<?xml version="1.0" encoding="utf-8" standalone="no"?>
<!DOCTYPE svg PUBLIC "-//W3C//DTD SVG 1.1//EN"
  "http://www.w3.org/Graphics/SVG/1.1/DTD/svg11.dtd">
<svg xmlns:xlink="http://www.w3.org/1999/xlink" width="1214.117109pt" height="1188.216641pt" viewBox="0 0 1214.117109 1188.216641" xmlns="http://www.w3.org/2000/svg" version="1.1">
 <metadata>
  <rdf:RDF xmlns:dc="http://purl.org/dc/elements/1.1/" xmlns:cc="http://creativecommons.org/ns#" xmlns:rdf="http://www.w3.org/1999/02/22-rdf-syntax-ns#">
   <cc:Work>
    <dc:type rdf:resource="http://purl.org/dc/dcmitype/StillImage"/>
    <dc:date>2023-01-08T12:40:26.390589</dc:date>
    <dc:format>image/svg+xml</dc:format>
    <dc:creator>
     <cc:Agent>
      <dc:title>Matplotlib v3.5.1, https://matplotlib.org/</dc:title>
     </cc:Agent>
    </dc:creator>
   </cc:Work>
  </rdf:RDF>
 </metadata>
 <defs>
  <style type="text/css">*{stroke-linejoin: round; stroke-linecap: butt}</style>
 </defs>
 <g id="figure_1">
  <g id="patch_1">
   <path d="M 0 1188.216641 
L 1214.117109 1188.216641 
L 1214.117109 0 
L 0 0 
z
" style="fill: #ffffff"/>
  </g>
  <g id="axes_1">
   <g id="patch_2">
    <path d="M 90.917109 1094.4 
L 1206.917109 1094.4 
L 1206.917109 7.2 
L 90.917109 7.2 
z
" style="fill: #eaeaf2"/>
   </g>
   <g id="matplotlib.axis_1">
    <g id="xtick_1">
     <g id="line2d_1">
      <path d="M 162.969324 1094.4 
L 162.969324 7.2 
" clip-path="url(#p2a48cc1eaa)" style="fill: none; stroke: #ffffff; stroke-linecap: round"/>
     </g>
     <g id="text_1">
      <!-- -8 -->
      <g style="fill: #262626" transform="translate(146.934675 1130.633438)scale(0.385 -0.385)">
       <defs>
        <path id="TimesNewRomanPSMT-2d" d="M 259 1672 
L 1875 1672 
L 1875 1200 
L 259 1200 
L 259 1672 
z
" transform="scale(0.015625)"/>
        <path id="TimesNewRomanPSMT-38" d="M 1228 2134 
Q 725 2547 579 2797 
Q 434 3047 434 3316 
Q 434 3728 753 4026 
Q 1072 4325 1600 4325 
Q 2113 4325 2425 4047 
Q 2738 3769 2738 3413 
Q 2738 3175 2569 2928 
Q 2400 2681 1866 2347 
Q 2416 1922 2594 1678 
Q 2831 1359 2831 1006 
Q 2831 559 2490 242 
Q 2150 -75 1597 -75 
Q 994 -75 656 303 
Q 388 606 388 966 
Q 388 1247 577 1523 
Q 766 1800 1228 2134 
z
M 1719 2469 
Q 2094 2806 2194 3001 
Q 2294 3197 2294 3444 
Q 2294 3772 2109 3958 
Q 1925 4144 1606 4144 
Q 1288 4144 1088 3959 
Q 888 3775 888 3528 
Q 888 3366 970 3203 
Q 1053 3041 1206 2894 
L 1719 2469 
z
M 1375 2016 
Q 1116 1797 991 1539 
Q 866 1281 866 981 
Q 866 578 1086 336 
Q 1306 94 1647 94 
Q 1984 94 2187 284 
Q 2391 475 2391 747 
Q 2391 972 2272 1150 
Q 2050 1481 1375 2016 
z
" transform="scale(0.015625)"/>
       </defs>
       <use xlink:href="#TimesNewRomanPSMT-2d"/>
       <use xlink:href="#TimesNewRomanPSMT-38" x="33.300781"/>
      </g>
     </g>
    </g>
    <g id="xtick_2">
     <g id="line2d_2">
      <path d="M 341.893711 1094.4 
L 341.893711 7.2 
" clip-path="url(#p2a48cc1eaa)" style="fill: none; stroke: #ffffff; stroke-linecap: round"/>
     </g>
     <g id="text_2">
      <!-- -6 -->
      <g style="fill: #262626" transform="translate(325.859062 1130.633438)scale(0.385 -0.385)">
       <defs>
        <path id="TimesNewRomanPSMT-36" d="M 2869 4325 
L 2869 4209 
Q 2456 4169 2195 4045 
Q 1934 3922 1679 3669 
Q 1425 3416 1258 3105 
Q 1091 2794 978 2366 
Q 1428 2675 1881 2675 
Q 2316 2675 2634 2325 
Q 2953 1975 2953 1425 
Q 2953 894 2631 456 
Q 2244 -75 1606 -75 
Q 1172 -75 869 213 
Q 275 772 275 1663 
Q 275 2231 503 2743 
Q 731 3256 1154 3653 
Q 1578 4050 1965 4187 
Q 2353 4325 2688 4325 
L 2869 4325 
z
M 925 2138 
Q 869 1716 869 1456 
Q 869 1156 980 804 
Q 1091 453 1309 247 
Q 1469 100 1697 100 
Q 1969 100 2183 356 
Q 2397 613 2397 1088 
Q 2397 1622 2184 2012 
Q 1972 2403 1581 2403 
Q 1463 2403 1327 2353 
Q 1191 2303 925 2138 
z
" transform="scale(0.015625)"/>
       </defs>
       <use xlink:href="#TimesNewRomanPSMT-2d"/>
       <use xlink:href="#TimesNewRomanPSMT-36" x="33.300781"/>
      </g>
     </g>
    </g>
    <g id="xtick_3">
     <g id="line2d_3">
      <path d="M 520.818098 1094.4 
L 520.818098 7.2 
" clip-path="url(#p2a48cc1eaa)" style="fill: none; stroke: #ffffff; stroke-linecap: round"/>
     </g>
     <g id="text_3">
      <!-- -4 -->
      <g style="fill: #262626" transform="translate(504.78345 1130.633438)scale(0.385 -0.385)">
       <defs>
        <path id="TimesNewRomanPSMT-34" d="M 2978 1563 
L 2978 1119 
L 2409 1119 
L 2409 0 
L 1894 0 
L 1894 1119 
L 100 1119 
L 100 1519 
L 2066 4325 
L 2409 4325 
L 2409 1563 
L 2978 1563 
z
M 1894 1563 
L 1894 3666 
L 406 1563 
L 1894 1563 
z
" transform="scale(0.015625)"/>
       </defs>
       <use xlink:href="#TimesNewRomanPSMT-2d"/>
       <use xlink:href="#TimesNewRomanPSMT-34" x="33.300781"/>
      </g>
     </g>
    </g>
    <g id="xtick_4">
     <g id="line2d_4">
      <path d="M 699.742485 1094.4 
L 699.742485 7.2 
" clip-path="url(#p2a48cc1eaa)" style="fill: none; stroke: #ffffff; stroke-linecap: round"/>
     </g>
     <g id="text_4">
      <!-- -2 -->
      <g style="fill: #262626" transform="translate(683.707837 1130.633438)scale(0.385 -0.385)">
       <defs>
        <path id="TimesNewRomanPSMT-32" d="M 2934 816 
L 2638 0 
L 138 0 
L 138 116 
Q 1241 1122 1691 1759 
Q 2141 2397 2141 2925 
Q 2141 3328 1894 3587 
Q 1647 3847 1303 3847 
Q 991 3847 742 3664 
Q 494 3481 375 3128 
L 259 3128 
Q 338 3706 661 4015 
Q 984 4325 1469 4325 
Q 1984 4325 2329 3994 
Q 2675 3663 2675 3213 
Q 2675 2891 2525 2569 
Q 2294 2063 1775 1497 
Q 997 647 803 472 
L 1909 472 
Q 2247 472 2383 497 
Q 2519 522 2628 598 
Q 2738 675 2819 816 
L 2934 816 
z
" transform="scale(0.015625)"/>
       </defs>
       <use xlink:href="#TimesNewRomanPSMT-2d"/>
       <use xlink:href="#TimesNewRomanPSMT-32" x="33.300781"/>
      </g>
     </g>
    </g>
    <g id="xtick_5">
     <g id="line2d_5">
      <path d="M 878.666872 1094.4 
L 878.666872 7.2 
" clip-path="url(#p2a48cc1eaa)" style="fill: none; stroke: #ffffff; stroke-linecap: round"/>
     </g>
     <g id="text_5">
      <!-- 0 -->
      <g style="fill: #262626" transform="translate(869.041872 1130.633438)scale(0.385 -0.385)">
       <defs>
        <path id="TimesNewRomanPSMT-30" d="M 231 2094 
Q 231 2819 450 3342 
Q 669 3866 1031 4122 
Q 1313 4325 1613 4325 
Q 2100 4325 2488 3828 
Q 2972 3213 2972 2159 
Q 2972 1422 2759 906 
Q 2547 391 2217 158 
Q 1888 -75 1581 -75 
Q 975 -75 572 641 
Q 231 1244 231 2094 
z
M 844 2016 
Q 844 1141 1059 588 
Q 1238 122 1591 122 
Q 1759 122 1940 273 
Q 2122 425 2216 781 
Q 2359 1319 2359 2297 
Q 2359 3022 2209 3506 
Q 2097 3866 1919 4016 
Q 1791 4119 1609 4119 
Q 1397 4119 1231 3928 
Q 1006 3669 925 3112 
Q 844 2556 844 2016 
z
" transform="scale(0.015625)"/>
       </defs>
       <use xlink:href="#TimesNewRomanPSMT-30"/>
      </g>
     </g>
    </g>
    <g id="xtick_6">
     <g id="line2d_6">
      <path d="M 1057.591259 1094.4 
L 1057.591259 7.2 
" clip-path="url(#p2a48cc1eaa)" style="fill: none; stroke: #ffffff; stroke-linecap: round"/>
     </g>
     <g id="text_6">
      <!-- 2 -->
      <g style="fill: #262626" transform="translate(1047.966259 1130.633438)scale(0.385 -0.385)">
       <use xlink:href="#TimesNewRomanPSMT-32"/>
      </g>
     </g>
    </g>
    <g id="text_7">
     <!-- PCA 0 -->
     <g style="fill: #262626" transform="translate(593.470547 1172.032578)scale(0.42 -0.42)">
      <defs>
       <path id="TimesNewRomanPSMT-50" d="M 1313 1984 
L 1313 750 
Q 1313 350 1400 253 
Q 1519 116 1759 116 
L 1922 116 
L 1922 0 
L 106 0 
L 106 116 
L 266 116 
Q 534 116 650 291 
Q 713 388 713 750 
L 713 3488 
Q 713 3888 628 3984 
Q 506 4122 266 4122 
L 106 4122 
L 106 4238 
L 1659 4238 
Q 2228 4238 2556 4120 
Q 2884 4003 3109 3725 
Q 3334 3447 3334 3066 
Q 3334 2547 2992 2222 
Q 2650 1897 2025 1897 
Q 1872 1897 1694 1919 
Q 1516 1941 1313 1984 
z
M 1313 2163 
Q 1478 2131 1606 2115 
Q 1734 2100 1825 2100 
Q 2150 2100 2386 2351 
Q 2622 2603 2622 3003 
Q 2622 3278 2509 3514 
Q 2397 3750 2190 3867 
Q 1984 3984 1722 3984 
Q 1563 3984 1313 3925 
L 1313 2163 
z
" transform="scale(0.015625)"/>
       <path id="TimesNewRomanPSMT-43" d="M 3853 4334 
L 3950 2894 
L 3853 2894 
Q 3659 3541 3300 3825 
Q 2941 4109 2438 4109 
Q 2016 4109 1675 3895 
Q 1334 3681 1139 3212 
Q 944 2744 944 2047 
Q 944 1472 1128 1050 
Q 1313 628 1683 403 
Q 2053 178 2528 178 
Q 2941 178 3256 354 
Q 3572 531 3950 1056 
L 4047 994 
Q 3728 428 3303 165 
Q 2878 -97 2294 -97 
Q 1241 -97 663 684 
Q 231 1266 231 2053 
Q 231 2688 515 3219 
Q 800 3750 1298 4042 
Q 1797 4334 2388 4334 
Q 2847 4334 3294 4109 
Q 3425 4041 3481 4041 
Q 3566 4041 3628 4100 
Q 3709 4184 3744 4334 
L 3853 4334 
z
" transform="scale(0.015625)"/>
       <path id="TimesNewRomanPSMT-41" d="M 2928 1419 
L 1288 1419 
L 1000 750 
Q 894 503 894 381 
Q 894 284 986 211 
Q 1078 138 1384 116 
L 1384 0 
L 50 0 
L 50 116 
Q 316 163 394 238 
Q 553 388 747 847 
L 2238 4334 
L 2347 4334 
L 3822 809 
Q 4000 384 4145 257 
Q 4291 131 4550 116 
L 4550 0 
L 2878 0 
L 2878 116 
Q 3131 128 3220 200 
Q 3309 272 3309 375 
Q 3309 513 3184 809 
L 2928 1419 
z
M 2841 1650 
L 2122 3363 
L 1384 1650 
L 2841 1650 
z
" transform="scale(0.015625)"/>
       <path id="TimesNewRomanPSMT-20" transform="scale(0.015625)"/>
      </defs>
      <use xlink:href="#TimesNewRomanPSMT-50"/>
      <use xlink:href="#TimesNewRomanPSMT-43" x="55.615234"/>
      <use xlink:href="#TimesNewRomanPSMT-41" x="122.314453"/>
      <use xlink:href="#TimesNewRomanPSMT-20" x="189.03125"/>
      <use xlink:href="#TimesNewRomanPSMT-30" x="214.03125"/>
     </g>
    </g>
   </g>
   <g id="matplotlib.axis_2">
    <g id="ytick_1">
     <g id="line2d_7">
      <path d="M 90.917109 997.500588 
L 1206.917109 997.500588 
" clip-path="url(#p2a48cc1eaa)" style="fill: none; stroke: #ffffff; stroke-linecap: round"/>
     </g>
     <g id="text_8">
      <!-- -2 -->
      <g style="fill: #262626" transform="translate(49.347812 1010.867307)scale(0.385 -0.385)">
       <use xlink:href="#TimesNewRomanPSMT-2d"/>
       <use xlink:href="#TimesNewRomanPSMT-32" x="33.300781"/>
      </g>
     </g>
    </g>
    <g id="ytick_2">
     <g id="line2d_8">
      <path d="M 90.917109 873.25985 
L 1206.917109 873.25985 
" clip-path="url(#p2a48cc1eaa)" style="fill: none; stroke: #ffffff; stroke-linecap: round"/>
     </g>
     <g id="text_9">
      <!-- -1 -->
      <g style="fill: #262626" transform="translate(49.347812 886.626569)scale(0.385 -0.385)">
       <defs>
        <path id="TimesNewRomanPSMT-31" d="M 750 3822 
L 1781 4325 
L 1884 4325 
L 1884 747 
Q 1884 391 1914 303 
Q 1944 216 2037 169 
Q 2131 122 2419 116 
L 2419 0 
L 825 0 
L 825 116 
Q 1125 122 1212 167 
Q 1300 213 1334 289 
Q 1369 366 1369 747 
L 1369 3034 
Q 1369 3497 1338 3628 
Q 1316 3728 1258 3775 
Q 1200 3822 1119 3822 
Q 1003 3822 797 3725 
L 750 3822 
z
" transform="scale(0.015625)"/>
       </defs>
       <use xlink:href="#TimesNewRomanPSMT-2d"/>
       <use xlink:href="#TimesNewRomanPSMT-31" x="33.300781"/>
      </g>
     </g>
    </g>
    <g id="ytick_3">
     <g id="line2d_9">
      <path d="M 90.917109 749.019111 
L 1206.917109 749.019111 
" clip-path="url(#p2a48cc1eaa)" style="fill: none; stroke: #ffffff; stroke-linecap: round"/>
     </g>
     <g id="text_10">
      <!-- 0 -->
      <g style="fill: #262626" transform="translate(62.167109 762.38583)scale(0.385 -0.385)">
       <use xlink:href="#TimesNewRomanPSMT-30"/>
      </g>
     </g>
    </g>
    <g id="ytick_4">
     <g id="line2d_10">
      <path d="M 90.917109 624.778373 
L 1206.917109 624.778373 
" clip-path="url(#p2a48cc1eaa)" style="fill: none; stroke: #ffffff; stroke-linecap: round"/>
     </g>
     <g id="text_11">
      <!-- 1 -->
      <g style="fill: #262626" transform="translate(62.167109 638.145092)scale(0.385 -0.385)">
       <use xlink:href="#TimesNewRomanPSMT-31"/>
      </g>
     </g>
    </g>
    <g id="ytick_5">
     <g id="line2d_11">
      <path d="M 90.917109 500.537635 
L 1206.917109 500.537635 
" clip-path="url(#p2a48cc1eaa)" style="fill: none; stroke: #ffffff; stroke-linecap: round"/>
     </g>
     <g id="text_12">
      <!-- 2 -->
      <g style="fill: #262626" transform="translate(62.167109 513.904353)scale(0.385 -0.385)">
       <use xlink:href="#TimesNewRomanPSMT-32"/>
      </g>
     </g>
    </g>
    <g id="ytick_6">
     <g id="line2d_12">
      <path d="M 90.917109 376.296896 
L 1206.917109 376.296896 
" clip-path="url(#p2a48cc1eaa)" style="fill: none; stroke: #ffffff; stroke-linecap: round"/>
     </g>
     <g id="text_13">
      <!-- 3 -->
      <g style="fill: #262626" transform="translate(62.167109 389.663615)scale(0.385 -0.385)">
       <defs>
        <path id="TimesNewRomanPSMT-33" d="M 325 3431 
Q 506 3859 782 4092 
Q 1059 4325 1472 4325 
Q 1981 4325 2253 3994 
Q 2459 3747 2459 3466 
Q 2459 3003 1878 2509 
Q 2269 2356 2469 2072 
Q 2669 1788 2669 1403 
Q 2669 853 2319 450 
Q 1863 -75 997 -75 
Q 569 -75 414 31 
Q 259 138 259 259 
Q 259 350 332 419 
Q 406 488 509 488 
Q 588 488 669 463 
Q 722 447 909 348 
Q 1097 250 1169 231 
Q 1284 197 1416 197 
Q 1734 197 1970 444 
Q 2206 691 2206 1028 
Q 2206 1275 2097 1509 
Q 2016 1684 1919 1775 
Q 1784 1900 1550 2001 
Q 1316 2103 1072 2103 
L 972 2103 
L 972 2197 
Q 1219 2228 1467 2375 
Q 1716 2522 1828 2728 
Q 1941 2934 1941 3181 
Q 1941 3503 1739 3701 
Q 1538 3900 1238 3900 
Q 753 3900 428 3381 
L 325 3431 
z
" transform="scale(0.015625)"/>
       </defs>
       <use xlink:href="#TimesNewRomanPSMT-33"/>
      </g>
     </g>
    </g>
    <g id="ytick_7">
     <g id="line2d_13">
      <path d="M 90.917109 252.056158 
L 1206.917109 252.056158 
" clip-path="url(#p2a48cc1eaa)" style="fill: none; stroke: #ffffff; stroke-linecap: round"/>
     </g>
     <g id="text_14">
      <!-- 4 -->
      <g style="fill: #262626" transform="translate(62.167109 265.422877)scale(0.385 -0.385)">
       <use xlink:href="#TimesNewRomanPSMT-34"/>
      </g>
     </g>
    </g>
    <g id="ytick_8">
     <g id="line2d_14">
      <path d="M 90.917109 127.81542 
L 1206.917109 127.81542 
" clip-path="url(#p2a48cc1eaa)" style="fill: none; stroke: #ffffff; stroke-linecap: round"/>
     </g>
     <g id="text_15">
      <!-- 5 -->
      <g style="fill: #262626" transform="translate(62.167109 141.182138)scale(0.385 -0.385)">
       <defs>
        <path id="TimesNewRomanPSMT-35" d="M 2778 4238 
L 2534 3706 
L 1259 3706 
L 981 3138 
Q 1809 3016 2294 2522 
Q 2709 2097 2709 1522 
Q 2709 1188 2573 903 
Q 2438 619 2231 419 
Q 2025 219 1772 97 
Q 1413 -75 1034 -75 
Q 653 -75 479 54 
Q 306 184 306 341 
Q 306 428 378 495 
Q 450 563 559 563 
Q 641 563 702 538 
Q 763 513 909 409 
Q 1144 247 1384 247 
Q 1750 247 2026 523 
Q 2303 800 2303 1197 
Q 2303 1581 2056 1914 
Q 1809 2247 1375 2428 
Q 1034 2569 447 2591 
L 1259 4238 
L 2778 4238 
z
" transform="scale(0.015625)"/>
       </defs>
       <use xlink:href="#TimesNewRomanPSMT-35"/>
      </g>
     </g>
    </g>
    <g id="text_16">
     <!-- PCA 1 -->
     <g style="fill: #262626" transform="translate(36.36375 606.246563)rotate(-90)scale(0.42 -0.42)">
      <use xlink:href="#TimesNewRomanPSMT-50"/>
      <use xlink:href="#TimesNewRomanPSMT-43" x="55.615234"/>
      <use xlink:href="#TimesNewRomanPSMT-41" x="122.314453"/>
      <use xlink:href="#TimesNewRomanPSMT-20" x="189.03125"/>
      <use xlink:href="#TimesNewRomanPSMT-31" x="214.03125"/>
     </g>
    </g>
   </g>
   <g id="PathCollection_1">
    <path d="M 1080.691212 757.464883 
C 1083.939273 757.464883 1087.05474 756.174414 1089.351466 753.877688 
C 1091.648192 751.580962 1092.938661 748.465495 1092.938661 745.217434 
C 1092.938661 741.969372 1091.648192 738.853906 1089.351466 736.55718 
C 1087.05474 734.260454 1083.939273 732.969985 1080.691212 732.969985 
C 1077.44315 732.969985 1074.327684 734.260454 1072.030958 736.55718 
C 1069.734232 738.853906 1068.443763 741.969372 1068.443763 745.217434 
C 1068.443763 748.465495 1069.734232 751.580962 1072.030958 753.877688 
C 1074.327684 756.174414 1077.44315 757.464883 1080.691212 757.464883 
z
" clip-path="url(#p2a48cc1eaa)" style="fill: #e41a1c; stroke: #ffffff; stroke-width: 1.959592"/>
    <path d="M 1106.495326 701.266239 
C 1109.743388 701.266239 1112.858854 699.975771 1115.155581 697.679045 
C 1117.452307 695.382319 1118.742775 692.266852 1118.742775 689.018791 
C 1118.742775 685.770729 1117.452307 682.655263 1115.155581 680.358537 
C 1112.858854 678.06181 1109.743388 676.771342 1106.495326 676.771342 
C 1103.247265 676.771342 1100.131799 678.06181 1097.835072 680.358537 
C 1095.538346 682.655263 1094.247878 685.770729 1094.247878 689.018791 
C 1094.247878 692.266852 1095.538346 695.382319 1097.835072 697.679045 
C 1100.131799 699.975771 1103.247265 701.266239 1106.495326 701.266239 
z
" clip-path="url(#p2a48cc1eaa)" style="fill: #e41a1c; stroke: #ffffff; stroke-width: 1.959592"/>
    <path d="M 1156.189837 487.083618 
C 1159.437898 487.083618 1162.553364 485.79315 1164.850091 483.496423 
C 1167.146817 481.199697 1168.437285 478.084231 1168.437285 474.836169 
C 1168.437285 471.588108 1167.146817 468.472641 1164.850091 466.175915 
C 1162.553364 463.879189 1159.437898 462.588721 1156.189837 462.588721 
C 1152.941775 462.588721 1149.826309 463.879189 1147.529583 466.175915 
C 1145.232856 468.472641 1143.942388 471.588108 1143.942388 474.836169 
C 1143.942388 478.084231 1145.232856 481.199697 1147.529583 483.496423 
C 1149.826309 485.79315 1152.941775 487.083618 1156.189837 487.083618 
z
" clip-path="url(#p2a48cc1eaa)" style="fill: #e41a1c; stroke: #ffffff; stroke-width: 1.959592"/>
    <path d="M 1100.078136 632.867497 
C 1103.326197 632.867497 1106.441663 631.577029 1108.73839 629.280303 
C 1111.035116 626.983577 1112.325584 623.86811 1112.325584 620.620049 
C 1112.325584 617.371987 1111.035116 614.256521 1108.73839 611.959795 
C 1106.441663 609.663068 1103.326197 608.3726 1100.078136 608.3726 
C 1096.830074 608.3726 1093.714608 609.663068 1091.417881 611.959795 
C 1089.121155 614.256521 1087.830687 617.371987 1087.830687 620.620049 
C 1087.830687 623.86811 1089.121155 626.983577 1091.417881 629.280303 
C 1093.714608 631.577029 1096.830074 632.867497 1100.078136 632.867497 
z
" clip-path="url(#p2a48cc1eaa)" style="fill: #e41a1c; stroke: #ffffff; stroke-width: 1.959592"/>
    <path d="M 1125.565029 553.971464 
C 1128.813091 553.971464 1131.928557 552.680995 1134.225283 550.384269 
C 1136.522009 548.087543 1137.812478 544.972077 1137.812478 541.724015 
C 1137.812478 538.475954 1136.522009 535.360487 1134.225283 533.063761 
C 1131.928557 530.767035 1128.813091 529.476567 1125.565029 529.476567 
C 1122.316968 529.476567 1119.201501 530.767035 1116.904775 533.063761 
C 1114.608049 535.360487 1113.31758 538.475954 1113.31758 541.724015 
C 1113.31758 544.972077 1114.608049 548.087543 1116.904775 550.384269 
C 1119.201501 552.680995 1122.316968 553.971464 1125.565029 553.971464 
z
" clip-path="url(#p2a48cc1eaa)" style="fill: #e41a1c; stroke: #ffffff; stroke-width: 1.959592"/>
    <path d="M 1139.93702 673.20132 
C 1143.185081 673.20132 1146.300548 671.910852 1148.597274 669.614126 
C 1150.894 667.317399 1152.184469 664.201933 1152.184469 660.953872 
C 1152.184469 657.70581 1150.894 654.590344 1148.597274 652.293618 
C 1146.300548 649.996891 1143.185081 648.706423 1139.93702 648.706423 
C 1136.688959 648.706423 1133.573492 649.996891 1131.276766 652.293618 
C 1128.98004 654.590344 1127.689571 657.70581 1127.689571 660.953872 
C 1127.689571 664.201933 1128.98004 667.317399 1131.276766 669.614126 
C 1133.573492 671.910852 1136.688959 673.20132 1139.93702 673.20132 
z
" clip-path="url(#p2a48cc1eaa)" style="fill: #377eb8; stroke: #ffffff; stroke-width: 1.959592"/>
    <path d="M 1122.751888 570.391789 
C 1125.99995 570.391789 1129.115416 569.10132 1131.412142 566.804594 
C 1133.708868 564.507868 1134.999337 561.392401 1134.999337 558.14434 
C 1134.999337 554.896279 1133.708868 551.780812 1131.412142 549.484086 
C 1129.115416 547.18736 1125.99995 545.896891 1122.751888 545.896891 
C 1119.503827 545.896891 1116.38836 547.18736 1114.091634 549.484086 
C 1111.794908 551.780812 1110.504439 554.896279 1110.504439 558.14434 
C 1110.504439 561.392401 1111.794908 564.507868 1114.091634 566.804594 
C 1116.38836 569.10132 1119.503827 570.391789 1122.751888 570.391789 
z
" clip-path="url(#p2a48cc1eaa)" style="fill: #377eb8; stroke: #ffffff; stroke-width: 1.959592"/>
    <path d="M 1120.218005 624.329792 
C 1123.466066 624.329792 1126.581533 623.039323 1128.878259 620.742597 
C 1131.174985 618.445871 1132.465454 615.330405 1132.465454 612.082343 
C 1132.465454 608.834282 1131.174985 605.718815 1128.878259 603.422089 
C 1126.581533 601.125363 1123.466066 599.834894 1120.218005 599.834894 
C 1116.969944 599.834894 1113.854477 601.125363 1111.557751 603.422089 
C 1109.261025 605.718815 1107.970556 608.834282 1107.970556 612.082343 
C 1107.970556 615.330405 1109.261025 618.445871 1111.557751 620.742597 
C 1113.854477 623.039323 1116.969944 624.329792 1120.218005 624.329792 
z
" clip-path="url(#p2a48cc1eaa)" style="fill: #377eb8; stroke: #ffffff; stroke-width: 1.959592"/>
    <path d="M 1117.817264 585.033584 
C 1121.065326 585.033584 1124.180792 583.743115 1126.477518 581.446389 
C 1128.774244 579.149663 1130.064713 576.034196 1130.064713 572.786135 
C 1130.064713 569.538074 1128.774244 566.422607 1126.477518 564.125881 
C 1124.180792 561.829155 1121.065326 560.538686 1117.817264 560.538686 
C 1114.569203 560.538686 1111.453736 561.829155 1109.15701 564.125881 
C 1106.860284 566.422607 1105.569815 569.538074 1105.569815 572.786135 
C 1105.569815 576.034196 1106.860284 579.149663 1109.15701 581.446389 
C 1111.453736 583.743115 1114.569203 585.033584 1117.817264 585.033584 
z
" clip-path="url(#p2a48cc1eaa)" style="fill: #377eb8; stroke: #ffffff; stroke-width: 1.959592"/>
    <path d="M 1060.305587 626.484161 
C 1063.553649 626.484161 1066.669115 625.193693 1068.965841 622.896966 
C 1071.262568 620.60024 1072.553036 617.484774 1072.553036 614.236712 
C 1072.553036 610.988651 1071.262568 607.873184 1068.965841 605.576458 
C 1066.669115 603.279732 1063.553649 601.989264 1060.305587 601.989264 
C 1057.057526 601.989264 1053.94206 603.279732 1051.645333 605.576458 
C 1049.348607 607.873184 1048.058139 610.988651 1048.058139 614.236712 
C 1048.058139 617.484774 1049.348607 620.60024 1051.645333 622.896966 
C 1053.94206 625.193693 1057.057526 626.484161 1060.305587 626.484161 
z
" clip-path="url(#p2a48cc1eaa)" style="fill: #377eb8; stroke: #ffffff; stroke-width: 1.959592"/>
    <path d="M 1097.310411 540.783979 
C 1100.558472 540.783979 1103.673938 539.493511 1105.970665 537.196785 
C 1108.267391 534.900058 1109.557859 531.784592 1109.557859 528.536531 
C 1109.557859 525.288469 1108.267391 522.173003 1105.970665 519.876276 
C 1103.673938 517.57955 1100.558472 516.289082 1097.310411 516.289082 
C 1094.062349 516.289082 1090.946883 517.57955 1088.650156 519.876276 
C 1086.35343 522.173003 1085.062962 525.288469 1085.062962 528.536531 
C 1085.062962 531.784592 1086.35343 534.900058 1088.650156 537.196785 
C 1090.946883 539.493511 1094.062349 540.783979 1097.310411 540.783979 
z
" clip-path="url(#p2a48cc1eaa)" style="fill: #377eb8; stroke: #ffffff; stroke-width: 1.959592"/>
    <path d="M 1097.309449 633.843976 
C 1100.55751 633.843976 1103.672977 632.553508 1105.969703 630.256782 
C 1108.266429 627.960055 1109.556898 624.844589 1109.556898 621.596528 
C 1109.556898 618.348466 1108.266429 615.233 1105.969703 612.936274 
C 1103.672977 610.639547 1100.55751 609.349079 1097.309449 609.349079 
C 1094.061388 609.349079 1090.945921 610.639547 1088.649195 612.936274 
C 1086.352469 615.233 1085.062 618.348466 1085.062 621.596528 
C 1085.062 624.844589 1086.352469 627.960055 1088.649195 630.256782 
C 1090.945921 632.553508 1094.061388 633.843976 1097.309449 633.843976 
z
" clip-path="url(#p2a48cc1eaa)" style="fill: #4daf4a; stroke: #ffffff; stroke-width: 1.959592"/>
    <path d="M 1083.368513 579.572494 
C 1086.616575 579.572494 1089.732041 578.282026 1092.028767 575.9853 
C 1094.325493 573.688573 1095.615962 570.573107 1095.615962 567.325046 
C 1095.615962 564.076984 1094.325493 560.961518 1092.028767 558.664792 
C 1089.732041 556.368065 1086.616575 555.077597 1083.368513 555.077597 
C 1080.120452 555.077597 1077.004985 556.368065 1074.708259 558.664792 
C 1072.411533 560.961518 1071.121064 564.076984 1071.121064 567.325046 
C 1071.121064 570.573107 1072.411533 573.688573 1074.708259 575.9853 
C 1077.004985 578.282026 1080.120452 579.572494 1083.368513 579.572494 
z
" clip-path="url(#p2a48cc1eaa)" style="fill: #4daf4a; stroke: #ffffff; stroke-width: 1.959592"/>
    <path d="M 1087.743741 671.81707 
C 1090.991803 671.81707 1094.107269 670.526601 1096.403995 668.229875 
C 1098.700722 665.933149 1099.99119 662.817682 1099.99119 659.569621 
C 1099.99119 656.32156 1098.700722 653.206093 1096.403995 650.909367 
C 1094.107269 648.612641 1090.991803 647.322172 1087.743741 647.322172 
C 1084.49568 647.322172 1081.380213 648.612641 1079.083487 650.909367 
C 1076.786761 653.206093 1075.496293 656.32156 1075.496293 659.569621 
C 1075.496293 662.817682 1076.786761 665.933149 1079.083487 668.229875 
C 1081.380213 670.526601 1084.49568 671.81707 1087.743741 671.81707 
z
" clip-path="url(#p2a48cc1eaa)" style="fill: #4daf4a; stroke: #ffffff; stroke-width: 1.959592"/>
    <path d="M 1064.55045 613.715547 
C 1067.798511 613.715547 1070.913977 612.425079 1073.210704 610.128352 
C 1075.50743 607.831626 1076.797898 604.71616 1076.797898 601.468098 
C 1076.797898 598.220037 1075.50743 595.10457 1073.210704 592.807844 
C 1070.913977 590.511118 1067.798511 589.22065 1064.55045 589.22065 
C 1061.302388 589.22065 1058.186922 590.511118 1055.890196 592.807844 
C 1053.593469 595.10457 1052.303001 598.220037 1052.303001 601.468098 
C 1052.303001 604.71616 1053.593469 607.831626 1055.890196 610.128352 
C 1058.186922 612.425079 1061.302388 613.715547 1064.55045 613.715547 
z
" clip-path="url(#p2a48cc1eaa)" style="fill: #4daf4a; stroke: #ffffff; stroke-width: 1.959592"/>
    <path d="M 1125.180526 496.9208 
C 1128.428587 496.9208 1131.544053 495.630332 1133.84078 493.333606 
C 1136.137506 491.036879 1137.427974 487.921413 1137.427974 484.673352 
C 1137.427974 481.42529 1136.137506 478.309824 1133.84078 476.013098 
C 1131.544053 473.716371 1128.428587 472.425903 1125.180526 472.425903 
C 1121.932464 472.425903 1118.816998 473.716371 1116.520272 476.013098 
C 1114.223545 478.309824 1112.933077 481.42529 1112.933077 484.673352 
C 1112.933077 487.921413 1114.223545 491.036879 1116.520272 493.333606 
C 1118.816998 495.630332 1121.932464 496.9208 1125.180526 496.9208 
z
" clip-path="url(#p2a48cc1eaa)" style="fill: #4daf4a; stroke: #ffffff; stroke-width: 1.959592"/>
    <path d="M 1018.819574 468.519178 
C 1022.067635 468.519178 1025.183102 467.228709 1027.479828 464.931983 
C 1029.776554 462.635257 1031.067023 459.519791 1031.067023 456.271729 
C 1031.067023 453.023668 1029.776554 449.908201 1027.479828 447.611475 
C 1025.183102 445.314749 1022.067635 444.024281 1018.819574 444.024281 
C 1015.571513 444.024281 1012.456046 445.314749 1010.15932 447.611475 
C 1007.862594 449.908201 1006.572125 453.023668 1006.572125 456.271729 
C 1006.572125 459.519791 1007.862594 462.635257 1010.15932 464.931983 
C 1012.456046 467.228709 1015.571513 468.519178 1018.819574 468.519178 
z
" clip-path="url(#p2a48cc1eaa)" style="fill: #4daf4a; stroke: #ffffff; stroke-width: 1.959592"/>
    <path d="M 1089.241854 694.511345 
C 1092.489915 694.511345 1095.605382 693.220877 1097.902108 690.924151 
C 1100.198834 688.627424 1101.489303 685.511958 1101.489303 682.263897 
C 1101.489303 679.015835 1100.198834 675.900369 1097.902108 673.603643 
C 1095.605382 671.306916 1092.489915 670.016448 1089.241854 670.016448 
C 1085.993793 670.016448 1082.878326 671.306916 1080.5816 673.603643 
C 1078.284874 675.900369 1076.994405 679.015835 1076.994405 682.263897 
C 1076.994405 685.511958 1078.284874 688.627424 1080.5816 690.924151 
C 1082.878326 693.220877 1085.993793 694.511345 1089.241854 694.511345 
z
" clip-path="url(#p2a48cc1eaa)" style="fill: #4daf4a; stroke: #ffffff; stroke-width: 1.959592"/>
    <path d="M 1019.168699 830.285711 
L 1025.292423 824.161987 
L 1031.416148 830.285711 
L 1037.539872 824.161987 
L 1031.416148 818.038262 
L 1037.539872 811.914538 
L 1031.416148 805.790814 
L 1025.292423 811.914538 
L 1019.168699 805.790814 
L 1013.044974 811.914538 
L 1019.168699 818.038262 
L 1013.044974 824.161987 
z
" clip-path="url(#p2a48cc1eaa)" style="fill: #e41a1c; stroke: #ffffff; stroke-width: 1.959592"/>
    <path d="M 980.829725 716.404594 
L 986.95345 710.280869 
L 993.077174 716.404594 
L 999.200898 710.280869 
L 993.077174 704.157145 
L 999.200898 698.033421 
L 993.077174 691.909696 
L 986.95345 698.033421 
L 980.829725 691.909696 
L 974.706001 698.033421 
L 980.829725 704.157145 
L 974.706001 710.280869 
z
" clip-path="url(#p2a48cc1eaa)" style="fill: #e41a1c; stroke: #ffffff; stroke-width: 1.959592"/>
    <path d="M 937.358221 704.968059 
L 943.481945 698.844335 
L 949.605669 704.968059 
L 955.729394 698.844335 
L 949.605669 692.72061 
L 955.729394 686.596886 
L 949.605669 680.473162 
L 943.481945 686.596886 
L 937.358221 680.473162 
L 931.234496 686.596886 
L 937.358221 692.72061 
L 931.234496 698.844335 
z
" clip-path="url(#p2a48cc1eaa)" style="fill: #e41a1c; stroke: #ffffff; stroke-width: 1.959592"/>
    <path d="M 928.485899 670.554177 
L 934.609623 664.430453 
L 940.733347 670.554177 
L 946.857072 664.430453 
L 940.733347 658.306729 
L 946.857072 652.183004 
L 940.733347 646.05928 
L 934.609623 652.183004 
L 928.485899 646.05928 
L 922.362174 652.183004 
L 928.485899 658.306729 
L 922.362174 664.430453 
z
" clip-path="url(#p2a48cc1eaa)" style="fill: #e41a1c; stroke: #ffffff; stroke-width: 1.959592"/>
    <path d="M 1017.140582 789.133852 
L 1023.264306 783.010128 
L 1029.38803 789.133852 
L 1035.511755 783.010128 
L 1029.38803 776.886403 
L 1035.511755 770.762679 
L 1029.38803 764.638954 
L 1023.264306 770.762679 
L 1017.140582 764.638954 
L 1011.016857 770.762679 
L 1017.140582 776.886403 
L 1011.016857 783.010128 
z
" clip-path="url(#p2a48cc1eaa)" style="fill: #e41a1c; stroke: #ffffff; stroke-width: 1.959592"/>
    <path d="M 994.771458 832.487379 
L 1000.895183 826.363654 
L 1007.018907 832.487379 
L 1013.142631 826.363654 
L 1007.018907 820.23993 
L 1013.142631 814.116206 
L 1007.018907 807.992481 
L 1000.895183 814.116206 
L 994.771458 807.992481 
L 988.647734 814.116206 
L 994.771458 820.23993 
L 988.647734 826.363654 
z
" clip-path="url(#p2a48cc1eaa)" style="fill: #e41a1c; stroke: #ffffff; stroke-width: 1.959592"/>
    <path d="M 1001.48929 861.285476 
L 1007.613014 855.161751 
L 1013.736739 861.285476 
L 1019.860463 855.161751 
L 1013.736739 849.038027 
L 1019.860463 842.914303 
L 1013.736739 836.790578 
L 1007.613014 842.914303 
L 1001.48929 836.790578 
L 995.365565 842.914303 
L 1001.48929 849.038027 
L 995.365565 855.161751 
z
" clip-path="url(#p2a48cc1eaa)" style="fill: #e41a1c; stroke: #ffffff; stroke-width: 1.959592"/>
    <path d="M 1023.369118 804.943938 
L 1029.492842 798.820213 
L 1035.616567 804.943938 
L 1041.740291 798.820213 
L 1035.616567 792.696489 
L 1041.740291 786.572765 
L 1035.616567 780.44904 
L 1029.492842 786.572765 
L 1023.369118 780.44904 
L 1017.245394 786.572765 
L 1023.369118 792.696489 
L 1017.245394 798.820213 
z
" clip-path="url(#p2a48cc1eaa)" style="fill: #e41a1c; stroke: #ffffff; stroke-width: 1.959592"/>
    <path d="M 960.87577 824.04991 
L 966.999494 817.926186 
L 973.123219 824.04991 
L 979.246943 817.926186 
L 973.123219 811.802461 
L 979.246943 805.678737 
L 973.123219 799.555013 
L 966.999494 805.678737 
L 960.87577 799.555013 
L 954.752046 805.678737 
L 960.87577 811.802461 
L 954.752046 817.926186 
z
" clip-path="url(#p2a48cc1eaa)" style="fill: #e41a1c; stroke: #ffffff; stroke-width: 1.959592"/>
    <path d="M 970.720603 781.344739 
L 976.844327 775.221014 
L 982.968051 781.344739 
L 989.091776 775.221014 
L 982.968051 769.09729 
L 989.091776 762.973566 
L 982.968051 756.849841 
L 976.844327 762.973566 
L 970.720603 756.849841 
L 964.596878 762.973566 
L 970.720603 769.09729 
L 964.596878 775.221014 
z
" clip-path="url(#p2a48cc1eaa)" style="fill: #e41a1c; stroke: #ffffff; stroke-width: 1.959592"/>
    <path d="M 943.863996 672.721603 
L 949.98772 666.597879 
L 956.111444 672.721603 
L 962.235169 666.597879 
L 956.111444 660.474154 
L 962.235169 654.35043 
L 956.111444 648.226706 
L 949.98772 654.35043 
L 943.863996 648.226706 
L 937.740271 654.35043 
L 943.863996 660.474154 
L 937.740271 666.597879 
z
" clip-path="url(#p2a48cc1eaa)" style="fill: #e41a1c; stroke: #ffffff; stroke-width: 1.959592"/>
    <path d="M 945.034892 776.747823 
L 951.158616 770.624098 
L 957.282341 776.747823 
L 963.406065 770.624098 
L 957.282341 764.500374 
L 963.406065 758.376649 
L 957.282341 752.252925 
L 951.158616 758.376649 
L 945.034892 752.252925 
L 938.911168 758.376649 
L 945.034892 764.500374 
L 938.911168 770.624098 
z
" clip-path="url(#p2a48cc1eaa)" style="fill: #e41a1c; stroke: #ffffff; stroke-width: 1.959592"/>
    <path d="M 1026.377 943.990782 
L 1032.500725 937.867057 
L 1038.624449 943.990782 
L 1044.748173 937.867057 
L 1038.624449 931.743333 
L 1044.748173 925.619609 
L 1038.624449 919.495884 
L 1032.500725 925.619609 
L 1026.377 919.495884 
L 1020.253276 925.619609 
L 1026.377 931.743333 
L 1020.253276 937.867057 
z
" clip-path="url(#p2a48cc1eaa)" style="fill: #377eb8; stroke: #ffffff; stroke-width: 1.959592"/>
    <path d="M 1012.459248 821.784306 
L 1018.582973 815.660582 
L 1024.706697 821.784306 
L 1030.830421 815.660582 
L 1024.706697 809.536857 
L 1030.830421 803.413133 
L 1024.706697 797.289409 
L 1018.582973 803.413133 
L 1012.459248 797.289409 
L 1006.335524 803.413133 
L 1012.459248 809.536857 
L 1006.335524 815.660582 
z
" clip-path="url(#p2a48cc1eaa)" style="fill: #377eb8; stroke: #ffffff; stroke-width: 1.959592"/>
    <path d="M 971.150063 871.731096 
L 977.273787 865.607372 
L 983.397511 871.731096 
L 989.521236 865.607372 
L 983.397511 859.483647 
L 989.521236 853.359923 
L 983.397511 847.236199 
L 977.273787 853.359923 
L 971.150063 847.236199 
L 965.026338 853.359923 
L 971.150063 859.483647 
L 965.026338 865.607372 
z
" clip-path="url(#p2a48cc1eaa)" style="fill: #377eb8; stroke: #ffffff; stroke-width: 1.959592"/>
    <path d="M 948.310248 841.423289 
L 954.433972 835.299565 
L 960.557696 841.423289 
L 966.681421 835.299565 
L 960.557696 829.17584 
L 966.681421 823.052116 
L 960.557696 816.928392 
L 954.433972 823.052116 
L 948.310248 816.928392 
L 942.186523 823.052116 
L 948.310248 829.17584 
L 942.186523 835.299565 
z
" clip-path="url(#p2a48cc1eaa)" style="fill: #377eb8; stroke: #ffffff; stroke-width: 1.959592"/>
    <path d="M 967.268535 947.963295 
L 973.392259 941.83957 
L 979.515984 947.963295 
L 985.639708 941.83957 
L 979.515984 935.715846 
L 985.639708 929.592121 
L 979.515984 923.468397 
L 973.392259 929.592121 
L 967.268535 923.468397 
L 961.144811 929.592121 
L 967.268535 935.715846 
L 961.144811 941.83957 
z
" clip-path="url(#p2a48cc1eaa)" style="fill: #377eb8; stroke: #ffffff; stroke-width: 1.959592"/>
    <path d="M 976.354763 934.097376 
L 982.478488 927.973652 
L 988.602212 934.097376 
L 994.725937 927.973652 
L 988.602212 921.849927 
L 994.725937 915.726203 
L 988.602212 909.602478 
L 982.478488 915.726203 
L 976.354763 909.602478 
L 970.231039 915.726203 
L 976.354763 921.849927 
L 970.231039 927.973652 
z
" clip-path="url(#p2a48cc1eaa)" style="fill: #377eb8; stroke: #ffffff; stroke-width: 1.959592"/>
    <path d="M 969.584084 851.611656 
L 975.707808 845.487931 
L 981.831533 851.611656 
L 987.955257 845.487931 
L 981.831533 839.364207 
L 987.955257 833.240483 
L 981.831533 827.116758 
L 975.707808 833.240483 
L 969.584084 827.116758 
L 963.46036 833.240483 
L 969.584084 839.364207 
L 963.46036 845.487931 
z
" clip-path="url(#p2a48cc1eaa)" style="fill: #377eb8; stroke: #ffffff; stroke-width: 1.959592"/>
    <path d="M 972.738097 898.700504 
L 978.861821 892.576779 
L 984.985545 898.700504 
L 991.10927 892.576779 
L 984.985545 886.453055 
L 991.10927 880.329331 
L 984.985545 874.205606 
L 978.861821 880.329331 
L 972.738097 874.205606 
L 966.614372 880.329331 
L 972.738097 886.453055 
L 966.614372 892.576779 
z
" clip-path="url(#p2a48cc1eaa)" style="fill: #377eb8; stroke: #ffffff; stroke-width: 1.959592"/>
    <path d="M 965.664643 902.848048 
L 971.788368 896.724324 
L 977.912092 902.848048 
L 984.035816 896.724324 
L 977.912092 890.600599 
L 984.035816 884.476875 
L 977.912092 878.353151 
L 971.788368 884.476875 
L 965.664643 878.353151 
L 959.540919 884.476875 
L 965.664643 890.600599 
L 959.540919 896.724324 
z
" clip-path="url(#p2a48cc1eaa)" style="fill: #377eb8; stroke: #ffffff; stroke-width: 1.959592"/>
    <path d="M 1007.670054 789.698629 
L 1013.793778 783.574904 
L 1019.917502 789.698629 
L 1026.041227 783.574904 
L 1019.917502 777.45118 
L 1026.041227 771.327456 
L 1019.917502 765.203731 
L 1013.793778 771.327456 
L 1007.670054 765.203731 
L 1001.546329 771.327456 
L 1007.670054 777.45118 
L 1001.546329 783.574904 
z
" clip-path="url(#p2a48cc1eaa)" style="fill: #377eb8; stroke: #ffffff; stroke-width: 1.959592"/>
    <path d="M 1021.728891 822.296552 
L 1027.852615 816.172828 
L 1033.97634 822.296552 
L 1040.100064 816.172828 
L 1033.97634 810.049103 
L 1040.100064 803.925379 
L 1033.97634 797.801655 
L 1027.852615 803.925379 
L 1021.728891 797.801655 
L 1015.605167 803.925379 
L 1021.728891 810.049103 
L 1015.605167 816.172828 
z
" clip-path="url(#p2a48cc1eaa)" style="fill: #377eb8; stroke: #ffffff; stroke-width: 1.959592"/>
    <path d="M 1018.785879 799.995351 
L 1024.909603 793.871627 
L 1031.033327 799.995351 
L 1037.157052 793.871627 
L 1031.033327 787.747903 
L 1037.157052 781.624178 
L 1031.033327 775.500454 
L 1024.909603 781.624178 
L 1018.785879 775.500454 
L 1012.662154 781.624178 
L 1018.785879 787.747903 
L 1012.662154 793.871627 
z
" clip-path="url(#p2a48cc1eaa)" style="fill: #377eb8; stroke: #ffffff; stroke-width: 1.959592"/>
    <path d="M 1009.226283 730.497002 
L 1015.350007 724.373277 
L 1021.473731 730.497002 
L 1027.597456 724.373277 
L 1021.473731 718.249553 
L 1027.597456 712.125828 
L 1021.473731 706.002104 
L 1015.350007 712.125828 
L 1009.226283 706.002104 
L 1003.102558 712.125828 
L 1009.226283 718.249553 
L 1003.102558 724.373277 
z
" clip-path="url(#p2a48cc1eaa)" style="fill: #4daf4a; stroke: #ffffff; stroke-width: 1.959592"/>
    <path d="M 988.81467 853.683033 
L 994.938394 847.559309 
L 1001.062118 853.683033 
L 1007.185843 847.559309 
L 1001.062118 841.435584 
L 1007.185843 835.31186 
L 1001.062118 829.188136 
L 994.938394 835.31186 
L 988.81467 829.188136 
L 982.690945 835.31186 
L 988.81467 841.435584 
L 982.690945 847.559309 
z
" clip-path="url(#p2a48cc1eaa)" style="fill: #4daf4a; stroke: #ffffff; stroke-width: 1.959592"/>
    <path d="M 994.373182 841.177594 
L 1000.496907 835.05387 
L 1006.620631 841.177594 
L 1012.744355 835.05387 
L 1006.620631 828.930146 
L 1012.744355 822.806421 
L 1006.620631 816.682697 
L 1000.496907 822.806421 
L 994.373182 816.682697 
L 988.249458 822.806421 
L 994.373182 828.930146 
L 988.249458 835.05387 
z
" clip-path="url(#p2a48cc1eaa)" style="fill: #4daf4a; stroke: #ffffff; stroke-width: 1.959592"/>
    <path d="M 970.800709 863.211508 
L 976.924434 857.087783 
L 983.048158 863.211508 
L 989.171883 857.087783 
L 983.048158 850.964059 
L 989.171883 844.840334 
L 983.048158 838.71661 
L 976.924434 844.840334 
L 970.800709 838.71661 
L 964.676985 844.840334 
L 970.800709 850.964059 
L 964.676985 857.087783 
z
" clip-path="url(#p2a48cc1eaa)" style="fill: #4daf4a; stroke: #ffffff; stroke-width: 1.959592"/>
    <path d="M 1008.053106 730.005968 
L 1014.17683 723.882243 
L 1020.300554 730.005968 
L 1026.424279 723.882243 
L 1020.300554 717.758519 
L 1026.424279 711.634795 
L 1020.300554 705.51107 
L 1014.17683 711.634795 
L 1008.053106 705.51107 
L 1001.929381 711.634795 
L 1008.053106 717.758519 
L 1001.929381 723.882243 
z
" clip-path="url(#p2a48cc1eaa)" style="fill: #4daf4a; stroke: #ffffff; stroke-width: 1.959592"/>
    <path d="M 996.668454 798.267785 
L 1002.792178 792.14406 
L 1008.915903 798.267785 
L 1015.039627 792.14406 
L 1008.915903 786.020336 
L 1015.039627 779.896612 
L 1008.915903 773.772887 
L 1002.792178 779.896612 
L 996.668454 773.772887 
L 990.54473 779.896612 
L 996.668454 786.020336 
L 990.54473 792.14406 
z
" clip-path="url(#p2a48cc1eaa)" style="fill: #4daf4a; stroke: #ffffff; stroke-width: 1.959592"/>
    <path d="M 918.007124 780.030222 
L 924.130848 773.906498 
L 930.254573 780.030222 
L 936.378297 773.906498 
L 930.254573 767.782773 
L 936.378297 761.659049 
L 930.254573 755.535325 
L 924.130848 761.659049 
L 918.007124 755.535325 
L 911.8834 761.659049 
L 918.007124 767.782773 
L 911.8834 773.906498 
z
" clip-path="url(#p2a48cc1eaa)" style="fill: #4daf4a; stroke: #ffffff; stroke-width: 1.959592"/>
    <path d="M 973.604664 782.018586 
L 979.728388 775.894862 
L 985.852112 782.018586 
L 991.975837 775.894862 
L 985.852112 769.771138 
L 991.975837 763.647413 
L 985.852112 757.523689 
L 979.728388 763.647413 
L 973.604664 757.523689 
L 967.480939 763.647413 
L 973.604664 769.771138 
L 967.480939 775.894862 
z
" clip-path="url(#p2a48cc1eaa)" style="fill: #4daf4a; stroke: #ffffff; stroke-width: 1.959592"/>
    <path d="M 966.701654 838.574787 
L 972.825379 832.451063 
L 978.949103 838.574787 
L 985.072827 832.451063 
L 978.949103 826.327339 
L 985.072827 820.203614 
L 978.949103 814.07989 
L 972.825379 820.203614 
L 966.701654 814.07989 
L 960.57793 820.203614 
L 966.701654 826.327339 
L 960.57793 832.451063 
z
" clip-path="url(#p2a48cc1eaa)" style="fill: #4daf4a; stroke: #ffffff; stroke-width: 1.959592"/>
    <path d="M 895.620506 799.927023 
L 901.744231 793.803298 
L 907.867955 799.927023 
L 913.991679 793.803298 
L 907.867955 787.679574 
L 913.991679 781.55585 
L 907.867955 775.432125 
L 901.744231 781.55585 
L 895.620506 775.432125 
L 889.496782 781.55585 
L 895.620506 787.679574 
L 889.496782 793.803298 
z
" clip-path="url(#p2a48cc1eaa)" style="fill: #4daf4a; stroke: #ffffff; stroke-width: 1.959592"/>
    <path d="M 932.552447 857.748628 
L 938.676171 851.624904 
L 944.799895 857.748628 
L 950.92362 851.624904 
L 944.799895 845.501179 
L 950.92362 839.377455 
L 944.799895 833.253731 
L 938.676171 839.377455 
L 932.552447 833.253731 
L 926.428722 839.377455 
L 932.552447 845.501179 
L 926.428722 851.624904 
z
" clip-path="url(#p2a48cc1eaa)" style="fill: #4daf4a; stroke: #ffffff; stroke-width: 1.959592"/>
    <path d="M 936.167349 843.52855 
L 942.291073 837.404826 
L 948.414797 843.52855 
L 954.538522 837.404826 
L 948.414797 831.281102 
L 954.538522 825.157377 
L 948.414797 819.033653 
L 942.291073 825.157377 
L 936.167349 819.033653 
L 930.043624 825.157377 
L 936.167349 831.281102 
L 930.043624 837.404826 
z
" clip-path="url(#p2a48cc1eaa)" style="fill: #4daf4a; stroke: #ffffff; stroke-width: 1.959592"/>
    <path d="M 595.27959 877.047348 
L 595.27959 894.367856 
L 612.600098 894.367856 
L 612.600098 877.047348 
z
" clip-path="url(#p2a48cc1eaa)" style="fill: #e41a1c; stroke: #ffffff; stroke-width: 1.959592"/>
    <path d="M 433.781613 349.859484 
L 433.781613 367.179992 
L 451.102121 367.179992 
L 451.102121 349.859484 
z
" clip-path="url(#p2a48cc1eaa)" style="fill: #e41a1c; stroke: #ffffff; stroke-width: 1.959592"/>
    <path d="M 415.218917 543.96423 
L 415.218917 561.284738 
L 432.539425 561.284738 
L 432.539425 543.96423 
z
" clip-path="url(#p2a48cc1eaa)" style="fill: #e41a1c; stroke: #ffffff; stroke-width: 1.959592"/>
    <path d="M 132.984128 47.957928 
L 132.984128 65.278436 
L 150.304636 65.278436 
L 150.304636 47.957928 
z
" clip-path="url(#p2a48cc1eaa)" style="fill: #e41a1c; stroke: #ffffff; stroke-width: 1.959592"/>
    <path d="M 377.028224 988.69401 
L 377.028224 1006.014518 
L 394.348732 1006.014518 
L 394.348732 988.69401 
z
" clip-path="url(#p2a48cc1eaa)" style="fill: #e41a1c; stroke: #ffffff; stroke-width: 1.959592"/>
    <path d="M 643.435049 823.798389 
L 643.435049 841.118897 
L 660.755557 841.118897 
L 660.755557 823.798389 
z
" clip-path="url(#p2a48cc1eaa)" style="fill: #e41a1c; stroke: #ffffff; stroke-width: 1.959592"/>
    <path d="M 636.950639 842.941841 
L 636.950639 860.262349 
L 654.271147 860.262349 
L 654.271147 842.941841 
z
" clip-path="url(#p2a48cc1eaa)" style="fill: #e41a1c; stroke: #ffffff; stroke-width: 1.959592"/>
    <path d="M 662.293121 925.660321 
L 662.293121 942.980829 
L 679.613629 942.980829 
L 679.613629 925.660321 
z
" clip-path="url(#p2a48cc1eaa)" style="fill: #e41a1c; stroke: #ffffff; stroke-width: 1.959592"/>
    <path d="M 469.116818 744.672508 
L 469.116818 761.993016 
L 486.437326 761.993016 
L 486.437326 744.672508 
z
" clip-path="url(#p2a48cc1eaa)" style="fill: #e41a1c; stroke: #ffffff; stroke-width: 1.959592"/>
    <path d="M 686.491428 583.377024 
L 686.491428 600.697533 
L 703.811936 600.697533 
L 703.811936 583.377024 
z
" clip-path="url(#p2a48cc1eaa)" style="fill: #e41a1c; stroke: #ffffff; stroke-width: 1.959592"/>
    <path d="M 392.895692 434.058425 
L 392.895692 451.378933 
L 410.2162 451.378933 
L 410.2162 434.058425 
z
" clip-path="url(#p2a48cc1eaa)" style="fill: #e41a1c; stroke: #ffffff; stroke-width: 1.959592"/>
    <path d="M 710.870634 567.756109 
L 710.870634 585.076617 
L 728.191142 585.076617 
L 728.191142 567.756109 
z
" clip-path="url(#p2a48cc1eaa)" style="fill: #e41a1c; stroke: #ffffff; stroke-width: 1.959592"/>
    <path d="M 909.533461 777.339505 
L 909.533461 794.660013 
L 926.853969 794.660013 
L 926.853969 777.339505 
z
" clip-path="url(#p2a48cc1eaa)" style="fill: #377eb8; stroke: #ffffff; stroke-width: 1.959592"/>
    <path d="M 705.458017 920.119663 
L 705.458017 937.440171 
L 722.778525 937.440171 
L 722.778525 920.119663 
z
" clip-path="url(#p2a48cc1eaa)" style="fill: #377eb8; stroke: #ffffff; stroke-width: 1.959592"/>
    <path d="M 802.324922 881.300581 
L 802.324922 898.621089 
L 819.64543 898.621089 
L 819.64543 881.300581 
z
" clip-path="url(#p2a48cc1eaa)" style="fill: #377eb8; stroke: #ffffff; stroke-width: 1.959592"/>
    <path d="M 734.463243 813.006145 
L 734.463243 830.326653 
L 751.783751 830.326653 
L 751.783751 813.006145 
z
" clip-path="url(#p2a48cc1eaa)" style="fill: #377eb8; stroke: #ffffff; stroke-width: 1.959592"/>
    <path d="M 479.93372 804.128249 
L 479.93372 821.448757 
L 497.254228 821.448757 
L 497.254228 804.128249 
z
" clip-path="url(#p2a48cc1eaa)" style="fill: #377eb8; stroke: #ffffff; stroke-width: 1.959592"/>
    <path d="M 760.184563 774.797649 
L 760.184563 792.118157 
L 777.505071 792.118157 
L 777.505071 774.797649 
z
" clip-path="url(#p2a48cc1eaa)" style="fill: #377eb8; stroke: #ffffff; stroke-width: 1.959592"/>
    <path d="M 669.427563 807.357547 
L 669.427563 824.678055 
L 686.748071 824.678055 
L 686.748071 807.357547 
z
" clip-path="url(#p2a48cc1eaa)" style="fill: #377eb8; stroke: #ffffff; stroke-width: 1.959592"/>
    <path d="M 720.841068 857.375706 
L 720.841068 874.696214 
L 738.161576 874.696214 
L 738.161576 857.375706 
z
" clip-path="url(#p2a48cc1eaa)" style="fill: #377eb8; stroke: #ffffff; stroke-width: 1.959592"/>
    <path d="M 769.240382 931.898496 
L 769.240382 949.219004 
L 786.56089 949.219004 
L 786.56089 931.898496 
z
" clip-path="url(#p2a48cc1eaa)" style="fill: #377eb8; stroke: #ffffff; stroke-width: 1.959592"/>
    <path d="M 766.909772 775.97868 
L 766.909772 793.299188 
L 784.23028 793.299188 
L 784.23028 775.97868 
z
" clip-path="url(#p2a48cc1eaa)" style="fill: #377eb8; stroke: #ffffff; stroke-width: 1.959592"/>
    <path d="M 568.099615 764.920622 
L 568.099615 782.24113 
L 585.420123 782.24113 
L 585.420123 764.920622 
z
" clip-path="url(#p2a48cc1eaa)" style="fill: #377eb8; stroke: #ffffff; stroke-width: 1.959592"/>
    <path d="M 854.661363 864.552894 
L 854.661363 881.873402 
L 871.981871 881.873402 
L 871.981871 864.552894 
z
" clip-path="url(#p2a48cc1eaa)" style="fill: #377eb8; stroke: #ffffff; stroke-width: 1.959592"/>
    <path d="M 858.213496 828.215739 
L 858.213496 845.536247 
L 875.534004 845.536247 
L 875.534004 828.215739 
z
" clip-path="url(#p2a48cc1eaa)" style="fill: #4daf4a; stroke: #ffffff; stroke-width: 1.959592"/>
    <path d="M 731.396069 829.584137 
L 731.396069 846.904645 
L 748.716577 846.904645 
L 748.716577 829.584137 
z
" clip-path="url(#p2a48cc1eaa)" style="fill: #4daf4a; stroke: #ffffff; stroke-width: 1.959592"/>
    <path d="M 627.177719 874.387443 
L 627.177719 891.707951 
L 644.498227 891.707951 
L 644.498227 874.387443 
z
" clip-path="url(#p2a48cc1eaa)" style="fill: #4daf4a; stroke: #ffffff; stroke-width: 1.959592"/>
    <path d="M 541.48142 1036.321564 
L 541.48142 1053.642072 
L 558.801928 1053.642072 
L 558.801928 1036.321564 
z
" clip-path="url(#p2a48cc1eaa)" style="fill: #4daf4a; stroke: #ffffff; stroke-width: 1.959592"/>
    <path d="M 637.16567 677.509124 
L 637.16567 694.829632 
L 654.486178 694.829632 
L 654.486178 677.509124 
z
" clip-path="url(#p2a48cc1eaa)" style="fill: #4daf4a; stroke: #ffffff; stroke-width: 1.959592"/>
    <path d="M 745.307792 732.146116 
L 745.307792 749.466624 
L 762.6283 749.466624 
L 762.6283 732.146116 
z
" clip-path="url(#p2a48cc1eaa)" style="fill: #4daf4a; stroke: #ffffff; stroke-width: 1.959592"/>
    <path d="M 752.020566 699.912083 
L 752.020566 717.232591 
L 769.341075 717.232591 
L 769.341075 699.912083 
z
" clip-path="url(#p2a48cc1eaa)" style="fill: #4daf4a; stroke: #ffffff; stroke-width: 1.959592"/>
    <path d="M 806.724572 660.122402 
L 806.724572 677.44291 
L 824.04508 677.44291 
L 824.04508 660.122402 
z
" clip-path="url(#p2a48cc1eaa)" style="fill: #4daf4a; stroke: #ffffff; stroke-width: 1.959592"/>
    <path d="M 776.353721 773.891155 
L 776.353721 791.211663 
L 793.674229 791.211663 
L 793.674229 773.891155 
z
" clip-path="url(#p2a48cc1eaa)" style="fill: #4daf4a; stroke: #ffffff; stroke-width: 1.959592"/>
    <path d="M 797.64952 880.080373 
L 797.64952 897.400881 
L 814.970028 897.400881 
L 814.970028 880.080373 
z
" clip-path="url(#p2a48cc1eaa)" style="fill: #4daf4a; stroke: #ffffff; stroke-width: 1.959592"/>
    <path d="M 609.521263 976.39189 
L 609.521263 993.712398 
L 626.841771 993.712398 
L 626.841771 976.39189 
z
" clip-path="url(#p2a48cc1eaa)" style="fill: #4daf4a; stroke: #ffffff; stroke-width: 1.959592"/>
    <path d="M 801.996201 768.670167 
L 801.996201 785.990675 
L 819.31671 785.990675 
L 819.31671 768.670167 
z
" clip-path="url(#p2a48cc1eaa)" style="fill: #4daf4a; stroke: #ffffff; stroke-width: 1.959592"/>
   </g>
   <g id="PathCollection_2"/>
   <g id="PathCollection_3"/>
   <g id="PathCollection_4"/>
   <g id="PathCollection_5"/>
   <g id="PathCollection_6"/>
   <g id="PathCollection_7"/>
   <g id="line2d_15">
    <path d="M 878.666872 985.68 
L 878.666872 333.36 
" clip-path="url(#p2a48cc1eaa)" style="fill: none; stroke-dasharray: 18.5,8; stroke-dashoffset: 0; stroke: #000000; stroke-width: 5"/>
   </g>
   <g id="line2d_16">
    <path d="M 1057.591259 985.68 
L 1057.591259 333.36 
" clip-path="url(#p2a48cc1eaa)" style="fill: none; stroke-dasharray: 18.5,8; stroke-dashoffset: 0; stroke: #000000; stroke-width: 5"/>
   </g>
   <g id="patch_3">
    <path d="M 90.917109 1094.4 
L 90.917109 7.2 
" style="fill: none; stroke: #ffffff; stroke-width: 1.25; stroke-linejoin: miter; stroke-linecap: square"/>
   </g>
   <g id="patch_4">
    <path d="M 1206.917109 1094.4 
L 1206.917109 7.2 
" style="fill: none; stroke: #ffffff; stroke-width: 1.25; stroke-linejoin: miter; stroke-linecap: square"/>
   </g>
   <g id="patch_5">
    <path d="M 90.917109 1094.4 
L 1206.917109 1094.4 
" style="fill: none; stroke: #ffffff; stroke-width: 1.25; stroke-linejoin: miter; stroke-linecap: square"/>
   </g>
   <g id="patch_6">
    <path d="M 90.917109 7.2 
L 1206.917109 7.2 
" style="fill: none; stroke: #ffffff; stroke-width: 1.25; stroke-linejoin: miter; stroke-linecap: square"/>
   </g>
   <g id="text_17">
    <!-- PCA0=0 -->
    <g transform="translate(754.458836 383.503928)scale(0.3 -0.3)">
     <defs>
      <path id="TimesNewRomanPSMT-3d" d="M 116 2759 
L 3488 2759 
L 3488 2503 
L 116 2503 
L 116 2759 
z
M 116 1741 
L 3488 1741 
L 3488 1484 
L 116 1484 
L 116 1741 
z
" transform="scale(0.015625)"/>
     </defs>
     <use xlink:href="#TimesNewRomanPSMT-50"/>
     <use xlink:href="#TimesNewRomanPSMT-43" x="55.615234"/>
     <use xlink:href="#TimesNewRomanPSMT-41" x="122.314453"/>
     <use xlink:href="#TimesNewRomanPSMT-30" x="194.53125"/>
     <use xlink:href="#TimesNewRomanPSMT-3d" x="244.53125"/>
     <use xlink:href="#TimesNewRomanPSMT-30" x="300.927734"/>
    </g>
   </g>
   <g id="text_18">
    <!-- PCA0=2 -->
    <g transform="translate(933.383223 383.503928)scale(0.3 -0.3)">
     <use xlink:href="#TimesNewRomanPSMT-50"/>
     <use xlink:href="#TimesNewRomanPSMT-43" x="55.615234"/>
     <use xlink:href="#TimesNewRomanPSMT-41" x="122.314453"/>
     <use xlink:href="#TimesNewRomanPSMT-30" x="194.53125"/>
     <use xlink:href="#TimesNewRomanPSMT-3d" x="244.53125"/>
     <use xlink:href="#TimesNewRomanPSMT-32" x="300.927734"/>
    </g>
   </g>
   <g id="text_19">
    <!-- W-H10 -->
    <g transform="translate(398.280929 340.878622)scale(0.3 -0.3)">
     <defs>
      <path id="TimesNewRomanPSMT-57" d="M 5991 4238 
L 5991 4122 
Q 5825 4122 5722 4062 
Q 5619 4003 5525 3841 
Q 5463 3731 5328 3319 
L 4147 -97 
L 4022 -97 
L 3056 2613 
L 2097 -97 
L 1984 -97 
L 725 3422 
Q 584 3816 547 3888 
Q 484 4006 376 4064 
Q 269 4122 84 4122 
L 84 4238 
L 1653 4238 
L 1653 4122 
L 1578 4122 
Q 1413 4122 1325 4047 
Q 1238 3972 1238 3866 
Q 1238 3756 1375 3363 
L 2209 984 
L 2913 3006 
L 2788 3363 
L 2688 3647 
Q 2622 3803 2541 3922 
Q 2500 3981 2441 4022 
Q 2363 4078 2284 4103 
Q 2225 4122 2097 4122 
L 2097 4238 
L 3747 4238 
L 3747 4122 
L 3634 4122 
Q 3459 4122 3378 4047 
Q 3297 3972 3297 3844 
Q 3297 3684 3438 3288 
L 4250 984 
L 5056 3319 
Q 5194 3706 5194 3856 
Q 5194 3928 5148 3990 
Q 5103 4053 5034 4078 
Q 4916 4122 4725 4122 
L 4725 4238 
L 5991 4238 
z
" transform="scale(0.015625)"/>
      <path id="TimesNewRomanPSMT-48" d="M 1316 2272 
L 3284 2272 
L 3284 3484 
Q 3284 3809 3244 3913 
Q 3213 3991 3113 4047 
Q 2978 4122 2828 4122 
L 2678 4122 
L 2678 4238 
L 4491 4238 
L 4491 4122 
L 4341 4122 
Q 4191 4122 4056 4050 
Q 3956 4000 3920 3898 
Q 3884 3797 3884 3484 
L 3884 750 
Q 3884 428 3925 325 
Q 3956 247 4053 191 
Q 4191 116 4341 116 
L 4491 116 
L 4491 0 
L 2678 0 
L 2678 116 
L 2828 116 
Q 3088 116 3206 269 
Q 3284 369 3284 750 
L 3284 2041 
L 1316 2041 
L 1316 750 
Q 1316 428 1356 325 
Q 1388 247 1488 191 
Q 1622 116 1772 116 
L 1925 116 
L 1925 0 
L 109 0 
L 109 116 
L 259 116 
Q 522 116 641 269 
Q 716 369 716 750 
L 716 3484 
Q 716 3809 675 3913 
Q 644 3991 547 4047 
Q 409 4122 259 4122 
L 109 4122 
L 109 4238 
L 1925 4238 
L 1925 4122 
L 1772 4122 
Q 1622 4122 1488 4050 
Q 1391 4000 1353 3898 
Q 1316 3797 1316 3484 
L 1316 2272 
z
" transform="scale(0.015625)"/>
     </defs>
     <use xlink:href="#TimesNewRomanPSMT-57"/>
     <use xlink:href="#TimesNewRomanPSMT-2d" x="88.884766"/>
     <use xlink:href="#TimesNewRomanPSMT-48" x="122.185547"/>
     <use xlink:href="#TimesNewRomanPSMT-31" x="194.402344"/>
     <use xlink:href="#TimesNewRomanPSMT-30" x="244.402344"/>
    </g>
   </g>
   <g id="text_20">
    <!-- W-H11 -->
    <g transform="translate(380.280734 534.983368)scale(0.3 -0.3)">
     <use xlink:href="#TimesNewRomanPSMT-57"/>
     <use xlink:href="#TimesNewRomanPSMT-2d" x="88.884766"/>
     <use xlink:href="#TimesNewRomanPSMT-48" x="122.185547"/>
     <use xlink:href="#TimesNewRomanPSMT-31" x="194.402344"/>
     <use xlink:href="#TimesNewRomanPSMT-31" x="240.652344"/>
    </g>
   </g>
   <g id="text_21">
    <!-- W-H12 -->
    <g transform="translate(97.483445 38.977065)scale(0.3 -0.3)">
     <use xlink:href="#TimesNewRomanPSMT-57"/>
     <use xlink:href="#TimesNewRomanPSMT-2d" x="88.884766"/>
     <use xlink:href="#TimesNewRomanPSMT-48" x="122.185547"/>
     <use xlink:href="#TimesNewRomanPSMT-31" x="194.402344"/>
     <use xlink:href="#TimesNewRomanPSMT-32" x="244.402344"/>
    </g>
   </g>
   <g id="text_22">
    <!-- W-H2 -->
    <g transform="translate(349.027541 979.713148)scale(0.3 -0.3)">
     <use xlink:href="#TimesNewRomanPSMT-57"/>
     <use xlink:href="#TimesNewRomanPSMT-2d" x="88.884766"/>
     <use xlink:href="#TimesNewRomanPSMT-48" x="122.185547"/>
     <use xlink:href="#TimesNewRomanPSMT-32" x="194.402344"/>
    </g>
   </g>
   <g id="text_23">
    <!-- W-H8 -->
    <g transform="translate(364.895008 425.077563)scale(0.3 -0.3)">
     <use xlink:href="#TimesNewRomanPSMT-57"/>
     <use xlink:href="#TimesNewRomanPSMT-2d" x="88.884766"/>
     <use xlink:href="#TimesNewRomanPSMT-48" x="122.185547"/>
     <use xlink:href="#TimesNewRomanPSMT-38" x="194.402344"/>
    </g>
   </g>
   <g id="legend_1">
    <g id="patch_7">
     <path d="M 448.569375 255.81375 
L 1179.967109 255.81375 
Q 1187.667109 255.81375 1187.667109 248.11375 
L 1187.667109 34.15 
Q 1187.667109 26.45 1179.967109 26.45 
L 448.569375 26.45 
Q 440.869375 26.45 440.869375 34.15 
L 440.869375 248.11375 
Q 440.869375 255.81375 448.569375 255.81375 
z
" style="fill: #eaeaf2; opacity: 0.8; stroke: #cccccc; stroke-linejoin: miter"/>
    </g>
    <g id="text_24">
     <!-- River -->
     <g style="fill: #262626" transform="translate(564.069375 68.8)scale(0.385 -0.385)">
      <defs>
       <path id="TimesNewRomanPSMT-52" d="M 4325 0 
L 3194 0 
L 1759 1981 
Q 1600 1975 1500 1975 
Q 1459 1975 1412 1976 
Q 1366 1978 1316 1981 
L 1316 750 
Q 1316 350 1403 253 
Q 1522 116 1759 116 
L 1925 116 
L 1925 0 
L 109 0 
L 109 116 
L 269 116 
Q 538 116 653 291 
Q 719 388 719 750 
L 719 3488 
Q 719 3888 631 3984 
Q 509 4122 269 4122 
L 109 4122 
L 109 4238 
L 1653 4238 
Q 2328 4238 2648 4139 
Q 2969 4041 3192 3777 
Q 3416 3513 3416 3147 
Q 3416 2756 3161 2468 
Q 2906 2181 2372 2063 
L 3247 847 
Q 3547 428 3762 290 
Q 3978 153 4325 116 
L 4325 0 
z
M 1316 2178 
Q 1375 2178 1419 2176 
Q 1463 2175 1491 2175 
Q 2097 2175 2405 2437 
Q 2713 2700 2713 3106 
Q 2713 3503 2464 3751 
Q 2216 4000 1806 4000 
Q 1625 4000 1316 3941 
L 1316 2178 
z
" transform="scale(0.015625)"/>
       <path id="TimesNewRomanPSMT-69" d="M 928 4444 
Q 1059 4444 1151 4351 
Q 1244 4259 1244 4128 
Q 1244 3997 1151 3903 
Q 1059 3809 928 3809 
Q 797 3809 703 3903 
Q 609 3997 609 4128 
Q 609 4259 701 4351 
Q 794 4444 928 4444 
z
M 1188 2947 
L 1188 647 
Q 1188 378 1227 289 
Q 1266 200 1342 156 
Q 1419 113 1622 113 
L 1622 0 
L 231 0 
L 231 113 
Q 441 113 512 153 
Q 584 194 626 287 
Q 669 381 669 647 
L 669 1750 
Q 669 2216 641 2353 
Q 619 2453 572 2492 
Q 525 2531 444 2531 
Q 356 2531 231 2484 
L 188 2597 
L 1050 2947 
L 1188 2947 
z
" transform="scale(0.015625)"/>
       <path id="TimesNewRomanPSMT-76" d="M 53 2863 
L 1400 2863 
L 1400 2747 
L 1313 2747 
Q 1191 2747 1127 2687 
Q 1063 2628 1063 2528 
Q 1063 2419 1128 2269 
L 1794 688 
L 2463 2328 
Q 2534 2503 2534 2594 
Q 2534 2638 2509 2666 
Q 2475 2713 2422 2730 
Q 2369 2747 2206 2747 
L 2206 2863 
L 3141 2863 
L 3141 2747 
Q 2978 2734 2916 2681 
Q 2806 2588 2719 2369 
L 1703 -88 
L 1575 -88 
L 553 2328 
Q 484 2497 421 2570 
Q 359 2644 263 2694 
Q 209 2722 53 2747 
L 53 2863 
z
" transform="scale(0.015625)"/>
       <path id="TimesNewRomanPSMT-65" d="M 681 1784 
Q 678 1147 991 784 
Q 1303 422 1725 422 
Q 2006 422 2214 576 
Q 2422 731 2563 1106 
L 2659 1044 
Q 2594 616 2278 264 
Q 1963 -88 1488 -88 
Q 972 -88 605 314 
Q 238 716 238 1394 
Q 238 2128 614 2539 
Q 991 2950 1559 2950 
Q 2041 2950 2350 2633 
Q 2659 2316 2659 1784 
L 681 1784 
z
M 681 1966 
L 2006 1966 
Q 1991 2241 1941 2353 
Q 1863 2528 1708 2628 
Q 1553 2728 1384 2728 
Q 1125 2728 920 2526 
Q 716 2325 681 1966 
z
" transform="scale(0.015625)"/>
       <path id="TimesNewRomanPSMT-72" d="M 1038 2947 
L 1038 2303 
Q 1397 2947 1775 2947 
Q 1947 2947 2059 2842 
Q 2172 2738 2172 2600 
Q 2172 2478 2090 2393 
Q 2009 2309 1897 2309 
Q 1788 2309 1652 2417 
Q 1516 2525 1450 2525 
Q 1394 2525 1328 2463 
Q 1188 2334 1038 2041 
L 1038 669 
Q 1038 431 1097 309 
Q 1138 225 1241 169 
Q 1344 113 1538 113 
L 1538 0 
L 72 0 
L 72 113 
Q 291 113 397 181 
Q 475 231 506 341 
Q 522 394 522 644 
L 522 1753 
Q 522 2253 501 2348 
Q 481 2444 426 2487 
Q 372 2531 291 2531 
Q 194 2531 72 2484 
L 41 2597 
L 906 2947 
L 1038 2947 
z
" transform="scale(0.015625)"/>
      </defs>
      <use xlink:href="#TimesNewRomanPSMT-52"/>
      <use xlink:href="#TimesNewRomanPSMT-69" x="66.699219"/>
      <use xlink:href="#TimesNewRomanPSMT-76" x="94.482422"/>
      <use xlink:href="#TimesNewRomanPSMT-65" x="144.482422"/>
      <use xlink:href="#TimesNewRomanPSMT-72" x="188.867188"/>
     </g>
    </g>
    <g id="PathCollection_8">
     <defs>
      <path id="mad2420c1fc" d="M 0 9 
C 2.386828 9 4.676219 8.051703 6.363961 6.363961 
C 8.051703 4.676219 9 2.386828 9 0 
C 9 -2.386828 8.051703 -4.676219 6.363961 -6.363961 
C 4.676219 -8.051703 2.386828 -9 0 -9 
C -2.386828 -9 -4.676219 -8.051703 -6.363961 -6.363961 
C -8.051703 -4.676219 -9 -2.386828 -9 0 
C -9 2.386828 -8.051703 4.676219 -6.363961 6.363961 
C -4.676219 8.051703 -2.386828 9 0 9 
z
" style="stroke: #e41a1c"/>
     </defs>
     <g>
      <use xlink:href="#mad2420c1fc" x="494.769375" y="113.129141" style="fill: #e41a1c; stroke: #e41a1c"/>
     </g>
    </g>
    <g id="text_25">
     <!-- Hangbu River -->
     <g style="fill: #262626" transform="translate(564.069375 123.235391)scale(0.385 -0.385)">
      <defs>
       <path id="TimesNewRomanPSMT-61" d="M 1822 413 
Q 1381 72 1269 19 
Q 1100 -59 909 -59 
Q 613 -59 420 144 
Q 228 347 228 678 
Q 228 888 322 1041 
Q 450 1253 767 1440 
Q 1084 1628 1822 1897 
L 1822 2009 
Q 1822 2438 1686 2597 
Q 1550 2756 1291 2756 
Q 1094 2756 978 2650 
Q 859 2544 859 2406 
L 866 2225 
Q 866 2081 792 2003 
Q 719 1925 600 1925 
Q 484 1925 411 2006 
Q 338 2088 338 2228 
Q 338 2497 613 2722 
Q 888 2947 1384 2947 
Q 1766 2947 2009 2819 
Q 2194 2722 2281 2516 
Q 2338 2381 2338 1966 
L 2338 994 
Q 2338 584 2353 492 
Q 2369 400 2405 369 
Q 2441 338 2488 338 
Q 2538 338 2575 359 
Q 2641 400 2828 588 
L 2828 413 
Q 2478 -56 2159 -56 
Q 2006 -56 1915 50 
Q 1825 156 1822 413 
z
M 1822 616 
L 1822 1706 
Q 1350 1519 1213 1441 
Q 966 1303 859 1153 
Q 753 1003 753 825 
Q 753 600 887 451 
Q 1022 303 1197 303 
Q 1434 303 1822 616 
z
" transform="scale(0.015625)"/>
       <path id="TimesNewRomanPSMT-6e" d="M 1034 2341 
Q 1538 2947 1994 2947 
Q 2228 2947 2397 2830 
Q 2566 2713 2666 2444 
Q 2734 2256 2734 1869 
L 2734 647 
Q 2734 375 2778 278 
Q 2813 200 2889 156 
Q 2966 113 3172 113 
L 3172 0 
L 1756 0 
L 1756 113 
L 1816 113 
Q 2016 113 2095 173 
Q 2175 234 2206 353 
Q 2219 400 2219 647 
L 2219 1819 
Q 2219 2209 2117 2386 
Q 2016 2563 1775 2563 
Q 1403 2563 1034 2156 
L 1034 647 
Q 1034 356 1069 288 
Q 1113 197 1189 155 
Q 1266 113 1500 113 
L 1500 0 
L 84 0 
L 84 113 
L 147 113 
Q 366 113 442 223 
Q 519 334 519 647 
L 519 1709 
Q 519 2225 495 2337 
Q 472 2450 423 2490 
Q 375 2531 294 2531 
Q 206 2531 84 2484 
L 38 2597 
L 900 2947 
L 1034 2947 
L 1034 2341 
z
" transform="scale(0.015625)"/>
       <path id="TimesNewRomanPSMT-67" d="M 966 1044 
Q 703 1172 562 1401 
Q 422 1631 422 1909 
Q 422 2334 742 2640 
Q 1063 2947 1563 2947 
Q 1972 2947 2272 2747 
L 2878 2747 
Q 3013 2747 3034 2739 
Q 3056 2731 3066 2713 
Q 3084 2684 3084 2613 
Q 3084 2531 3069 2500 
Q 3059 2484 3036 2475 
Q 3013 2466 2878 2466 
L 2506 2466 
Q 2681 2241 2681 1891 
Q 2681 1491 2375 1206 
Q 2069 922 1553 922 
Q 1341 922 1119 984 
Q 981 866 932 777 
Q 884 688 884 625 
Q 884 572 936 522 
Q 988 472 1138 450 
Q 1225 438 1575 428 
Q 2219 413 2409 384 
Q 2700 344 2873 169 
Q 3047 -6 3047 -263 
Q 3047 -616 2716 -925 
Q 2228 -1381 1444 -1381 
Q 841 -1381 425 -1109 
Q 191 -953 191 -784 
Q 191 -709 225 -634 
Q 278 -519 444 -313 
Q 466 -284 763 25 
Q 600 122 533 198 
Q 466 275 466 372 
Q 466 481 555 628 
Q 644 775 966 1044 
z
M 1509 2797 
Q 1278 2797 1122 2612 
Q 966 2428 966 2047 
Q 966 1553 1178 1281 
Q 1341 1075 1591 1075 
Q 1828 1075 1981 1253 
Q 2134 1431 2134 1813 
Q 2134 2309 1919 2591 
Q 1759 2797 1509 2797 
z
M 934 0 
Q 788 -159 713 -296 
Q 638 -434 638 -550 
Q 638 -700 819 -813 
Q 1131 -1006 1722 -1006 
Q 2284 -1006 2551 -807 
Q 2819 -609 2819 -384 
Q 2819 -222 2659 -153 
Q 2497 -84 2016 -72 
Q 1313 -53 934 0 
z
" transform="scale(0.015625)"/>
       <path id="TimesNewRomanPSMT-62" d="M 984 2369 
Q 1400 2947 1881 2947 
Q 2322 2947 2650 2570 
Q 2978 2194 2978 1541 
Q 2978 778 2472 313 
Q 2038 -88 1503 -88 
Q 1253 -88 995 3 
Q 738 94 469 275 
L 469 3241 
Q 469 3728 445 3840 
Q 422 3953 372 3993 
Q 322 4034 247 4034 
Q 159 4034 28 3984 
L -16 4094 
L 844 4444 
L 984 4444 
L 984 2369 
z
M 984 2169 
L 984 456 
Q 1144 300 1314 220 
Q 1484 141 1663 141 
Q 1947 141 2192 453 
Q 2438 766 2438 1363 
Q 2438 1913 2192 2208 
Q 1947 2503 1634 2503 
Q 1469 2503 1303 2419 
Q 1178 2356 984 2169 
z
" transform="scale(0.015625)"/>
       <path id="TimesNewRomanPSMT-75" d="M 2709 2863 
L 2709 1128 
Q 2709 631 2732 520 
Q 2756 409 2807 365 
Q 2859 322 2928 322 
Q 3025 322 3147 375 
L 3191 266 
L 2334 -88 
L 2194 -88 
L 2194 519 
Q 1825 119 1631 15 
Q 1438 -88 1222 -88 
Q 981 -88 804 51 
Q 628 191 559 409 
Q 491 628 491 1028 
L 491 2306 
Q 491 2509 447 2587 
Q 403 2666 317 2708 
Q 231 2750 6 2747 
L 6 2863 
L 1009 2863 
L 1009 947 
Q 1009 547 1148 422 
Q 1288 297 1484 297 
Q 1619 297 1789 381 
Q 1959 466 2194 703 
L 2194 2325 
Q 2194 2569 2105 2655 
Q 2016 2741 1734 2747 
L 1734 2863 
L 2709 2863 
z
" transform="scale(0.015625)"/>
      </defs>
      <use xlink:href="#TimesNewRomanPSMT-48"/>
      <use xlink:href="#TimesNewRomanPSMT-61" x="72.216797"/>
      <use xlink:href="#TimesNewRomanPSMT-6e" x="116.601562"/>
      <use xlink:href="#TimesNewRomanPSMT-67" x="166.601562"/>
      <use xlink:href="#TimesNewRomanPSMT-62" x="216.601562"/>
      <use xlink:href="#TimesNewRomanPSMT-75" x="266.601562"/>
      <use xlink:href="#TimesNewRomanPSMT-20" x="316.601562"/>
      <use xlink:href="#TimesNewRomanPSMT-52" x="341.601562"/>
      <use xlink:href="#TimesNewRomanPSMT-69" x="408.300781"/>
      <use xlink:href="#TimesNewRomanPSMT-76" x="436.083984"/>
      <use xlink:href="#TimesNewRomanPSMT-65" x="486.083984"/>
      <use xlink:href="#TimesNewRomanPSMT-72" x="530.46875"/>
     </g>
    </g>
    <g id="PathCollection_9">
     <defs>
      <path id="mdb90837759" d="M 0 9 
C 2.386828 9 4.676219 8.051703 6.363961 6.363961 
C 8.051703 4.676219 9 2.386828 9 0 
C 9 -2.386828 8.051703 -4.676219 6.363961 -6.363961 
C 4.676219 -8.051703 2.386828 -9 0 -9 
C -2.386828 -9 -4.676219 -8.051703 -6.363961 -6.363961 
C -8.051703 -4.676219 -9 -2.386828 -9 0 
C -9 2.386828 -8.051703 4.676219 -6.363961 6.363961 
C -4.676219 8.051703 -2.386828 9 0 9 
z
" style="stroke: #377eb8"/>
     </defs>
     <g>
      <use xlink:href="#mdb90837759" x="494.769375" y="167.636719" style="fill: #377eb8; stroke: #377eb8"/>
     </g>
    </g>
    <g id="text_26">
     <!-- Nanfei River -->
     <g style="fill: #262626" transform="translate(564.069375 177.742969)scale(0.385 -0.385)">
      <defs>
       <path id="TimesNewRomanPSMT-4e" d="M -84 4238 
L 1066 4238 
L 3656 1059 
L 3656 3503 
Q 3656 3894 3569 3991 
Q 3453 4122 3203 4122 
L 3056 4122 
L 3056 4238 
L 4531 4238 
L 4531 4122 
L 4381 4122 
Q 4113 4122 4000 3959 
Q 3931 3859 3931 3503 
L 3931 -69 
L 3819 -69 
L 1025 3344 
L 1025 734 
Q 1025 344 1109 247 
Q 1228 116 1475 116 
L 1625 116 
L 1625 0 
L 150 0 
L 150 116 
L 297 116 
Q 569 116 681 278 
Q 750 378 750 734 
L 750 3681 
Q 566 3897 470 3965 
Q 375 4034 191 4094 
Q 100 4122 -84 4122 
L -84 4238 
z
" transform="scale(0.015625)"/>
       <path id="TimesNewRomanPSMT-66" d="M 1319 2638 
L 1319 756 
Q 1319 356 1406 250 
Q 1522 113 1716 113 
L 1975 113 
L 1975 0 
L 266 0 
L 266 113 
L 394 113 
Q 519 113 622 175 
Q 725 238 764 344 
Q 803 450 803 756 
L 803 2638 
L 247 2638 
L 247 2863 
L 803 2863 
L 803 3050 
Q 803 3478 940 3775 
Q 1078 4072 1361 4255 
Q 1644 4438 1997 4438 
Q 2325 4438 2600 4225 
Q 2781 4084 2781 3909 
Q 2781 3816 2700 3733 
Q 2619 3650 2525 3650 
Q 2453 3650 2373 3701 
Q 2294 3753 2178 3923 
Q 2063 4094 1966 4153 
Q 1869 4213 1750 4213 
Q 1606 4213 1506 4136 
Q 1406 4059 1362 3898 
Q 1319 3738 1319 3069 
L 1319 2863 
L 2056 2863 
L 2056 2638 
L 1319 2638 
z
" transform="scale(0.015625)"/>
      </defs>
      <use xlink:href="#TimesNewRomanPSMT-4e"/>
      <use xlink:href="#TimesNewRomanPSMT-61" x="72.216797"/>
      <use xlink:href="#TimesNewRomanPSMT-6e" x="116.601562"/>
      <use xlink:href="#TimesNewRomanPSMT-66" x="166.601562"/>
      <use xlink:href="#TimesNewRomanPSMT-65" x="199.902344"/>
      <use xlink:href="#TimesNewRomanPSMT-69" x="244.287109"/>
      <use xlink:href="#TimesNewRomanPSMT-20" x="272.070312"/>
      <use xlink:href="#TimesNewRomanPSMT-52" x="297.070312"/>
      <use xlink:href="#TimesNewRomanPSMT-69" x="363.769531"/>
      <use xlink:href="#TimesNewRomanPSMT-76" x="391.552734"/>
      <use xlink:href="#TimesNewRomanPSMT-65" x="441.552734"/>
      <use xlink:href="#TimesNewRomanPSMT-72" x="485.9375"/>
     </g>
    </g>
    <g id="PathCollection_10">
     <defs>
      <path id="mfac92a76a4" d="M 0 9 
C 2.386828 9 4.676219 8.051703 6.363961 6.363961 
C 8.051703 4.676219 9 2.386828 9 0 
C 9 -2.386828 8.051703 -4.676219 6.363961 -6.363961 
C 4.676219 -8.051703 2.386828 -9 0 -9 
C -2.386828 -9 -4.676219 -8.051703 -6.363961 -6.363961 
C -8.051703 -4.676219 -9 -2.386828 -9 0 
C -9 2.386828 -8.051703 4.676219 -6.363961 6.363961 
C -4.676219 8.051703 -2.386828 9 0 9 
z
" style="stroke: #4daf4a"/>
     </defs>
     <g>
      <use xlink:href="#mfac92a76a4" x="494.769375" y="222.072109" style="fill: #4daf4a; stroke: #4daf4a"/>
     </g>
    </g>
    <g id="text_27">
     <!-- Pai River -->
     <g style="fill: #262626" transform="translate(564.069375 232.178359)scale(0.385 -0.385)">
      <use xlink:href="#TimesNewRomanPSMT-50"/>
      <use xlink:href="#TimesNewRomanPSMT-61" x="55.615234"/>
      <use xlink:href="#TimesNewRomanPSMT-69" x="100"/>
      <use xlink:href="#TimesNewRomanPSMT-20" x="127.783203"/>
      <use xlink:href="#TimesNewRomanPSMT-52" x="152.783203"/>
      <use xlink:href="#TimesNewRomanPSMT-69" x="219.482422"/>
      <use xlink:href="#TimesNewRomanPSMT-76" x="247.265625"/>
      <use xlink:href="#TimesNewRomanPSMT-65" x="297.265625"/>
      <use xlink:href="#TimesNewRomanPSMT-72" x="341.650391"/>
     </g>
    </g>
    <g id="text_28">
     <!-- Period -->
     <g style="fill: #262626" transform="translate(965.925156 68.8)scale(0.385 -0.385)">
      <defs>
       <path id="TimesNewRomanPSMT-6f" d="M 1600 2947 
Q 2250 2947 2644 2453 
Q 2978 2031 2978 1484 
Q 2978 1100 2793 706 
Q 2609 313 2286 112 
Q 1963 -88 1566 -88 
Q 919 -88 538 428 
Q 216 863 216 1403 
Q 216 1797 411 2186 
Q 606 2575 925 2761 
Q 1244 2947 1600 2947 
z
M 1503 2744 
Q 1338 2744 1170 2645 
Q 1003 2547 900 2300 
Q 797 2053 797 1666 
Q 797 1041 1045 587 
Q 1294 134 1700 134 
Q 2003 134 2200 384 
Q 2397 634 2397 1244 
Q 2397 2006 2069 2444 
Q 1847 2744 1503 2744 
z
" transform="scale(0.015625)"/>
       <path id="TimesNewRomanPSMT-64" d="M 2222 322 
Q 2013 103 1813 7 
Q 1613 -88 1381 -88 
Q 913 -88 563 304 
Q 213 697 213 1313 
Q 213 1928 600 2439 
Q 988 2950 1597 2950 
Q 1975 2950 2222 2709 
L 2222 3238 
Q 2222 3728 2198 3840 
Q 2175 3953 2125 3993 
Q 2075 4034 2000 4034 
Q 1919 4034 1784 3984 
L 1744 4094 
L 2597 4444 
L 2738 4444 
L 2738 1134 
Q 2738 631 2761 520 
Q 2784 409 2836 365 
Q 2888 322 2956 322 
Q 3041 322 3181 375 
L 3216 266 
L 2366 -88 
L 2222 -88 
L 2222 322 
z
M 2222 541 
L 2222 2016 
Q 2203 2228 2109 2403 
Q 2016 2578 1861 2667 
Q 1706 2756 1559 2756 
Q 1284 2756 1069 2509 
Q 784 2184 784 1559 
Q 784 928 1059 592 
Q 1334 256 1672 256 
Q 1956 256 2222 541 
z
" transform="scale(0.015625)"/>
      </defs>
      <use xlink:href="#TimesNewRomanPSMT-50"/>
      <use xlink:href="#TimesNewRomanPSMT-65" x="55.615234"/>
      <use xlink:href="#TimesNewRomanPSMT-72" x="100"/>
      <use xlink:href="#TimesNewRomanPSMT-69" x="133.300781"/>
      <use xlink:href="#TimesNewRomanPSMT-6f" x="161.083984"/>
      <use xlink:href="#TimesNewRomanPSMT-64" x="211.083984"/>
     </g>
    </g>
    <g id="PathCollection_11">
     <defs>
      <path id="m682be8a26f" d="M 0 9 
C 2.386828 9 4.676219 8.051703 6.363961 6.363961 
C 8.051703 4.676219 9 2.386828 9 0 
C 9 -2.386828 8.051703 -4.676219 6.363961 -6.363961 
C 4.676219 -8.051703 2.386828 -9 0 -9 
C -2.386828 -9 -4.676219 -8.051703 -6.363961 -6.363961 
C -8.051703 -4.676219 -9 -2.386828 -9 0 
C -9 2.386828 -8.051703 4.676219 -6.363961 6.363961 
C -4.676219 8.051703 -2.386828 9 0 9 
z
" style="stroke: #333333"/>
     </defs>
     <g>
      <use xlink:href="#m682be8a26f" x="896.625156" y="113.129141" style="fill: #333333; stroke: #333333"/>
     </g>
    </g>
    <g id="text_29">
     <!-- Dry Season -->
     <g style="fill: #262626" transform="translate(965.925156 123.235391)scale(0.385 -0.385)">
      <defs>
       <path id="TimesNewRomanPSMT-44" d="M 109 0 
L 109 116 
L 269 116 
Q 538 116 650 288 
Q 719 391 719 750 
L 719 3488 
Q 719 3884 631 3984 
Q 509 4122 269 4122 
L 109 4122 
L 109 4238 
L 1834 4238 
Q 2784 4238 3279 4022 
Q 3775 3806 4076 3303 
Q 4378 2800 4378 2141 
Q 4378 1256 3841 663 
Q 3238 0 2003 0 
L 109 0 
z
M 1319 306 
Q 1716 219 1984 219 
Q 2709 219 3187 728 
Q 3666 1238 3666 2109 
Q 3666 2988 3187 3494 
Q 2709 4000 1959 4000 
Q 1678 4000 1319 3909 
L 1319 306 
z
" transform="scale(0.015625)"/>
       <path id="TimesNewRomanPSMT-79" d="M 38 2863 
L 1372 2863 
L 1372 2747 
L 1306 2747 
Q 1166 2747 1095 2686 
Q 1025 2625 1025 2534 
Q 1025 2413 1128 2197 
L 1825 753 
L 2466 2334 
Q 2519 2463 2519 2588 
Q 2519 2644 2497 2672 
Q 2472 2706 2419 2726 
Q 2366 2747 2231 2747 
L 2231 2863 
L 3163 2863 
L 3163 2747 
Q 3047 2734 2984 2696 
Q 2922 2659 2847 2556 
Q 2819 2513 2741 2316 
L 1575 -541 
Q 1406 -956 1132 -1168 
Q 859 -1381 606 -1381 
Q 422 -1381 303 -1275 
Q 184 -1169 184 -1031 
Q 184 -900 270 -820 
Q 356 -741 506 -741 
Q 609 -741 788 -809 
Q 913 -856 944 -856 
Q 1038 -856 1148 -759 
Q 1259 -663 1372 -384 
L 1575 113 
L 547 2272 
Q 500 2369 397 2513 
Q 319 2622 269 2659 
Q 197 2709 38 2747 
L 38 2863 
z
" transform="scale(0.015625)"/>
       <path id="TimesNewRomanPSMT-53" d="M 2934 4334 
L 2934 2869 
L 2819 2869 
Q 2763 3291 2617 3541 
Q 2472 3791 2203 3937 
Q 1934 4084 1647 4084 
Q 1322 4084 1109 3886 
Q 897 3688 897 3434 
Q 897 3241 1031 3081 
Q 1225 2847 1953 2456 
Q 2547 2138 2764 1967 
Q 2981 1797 3098 1565 
Q 3216 1334 3216 1081 
Q 3216 600 2842 251 
Q 2469 -97 1881 -97 
Q 1697 -97 1534 -69 
Q 1438 -53 1133 45 
Q 828 144 747 144 
Q 669 144 623 97 
Q 578 50 556 -97 
L 441 -97 
L 441 1356 
L 556 1356 
Q 638 900 775 673 
Q 913 447 1195 297 
Q 1478 147 1816 147 
Q 2206 147 2432 353 
Q 2659 559 2659 841 
Q 2659 997 2573 1156 
Q 2488 1316 2306 1453 
Q 2184 1547 1640 1851 
Q 1097 2156 867 2337 
Q 638 2519 519 2737 
Q 400 2956 400 3219 
Q 400 3675 750 4004 
Q 1100 4334 1641 4334 
Q 1978 4334 2356 4169 
Q 2531 4091 2603 4091 
Q 2684 4091 2736 4139 
Q 2788 4188 2819 4334 
L 2934 4334 
z
" transform="scale(0.015625)"/>
       <path id="TimesNewRomanPSMT-73" d="M 2050 2947 
L 2050 1972 
L 1947 1972 
Q 1828 2431 1642 2597 
Q 1456 2763 1169 2763 
Q 950 2763 815 2647 
Q 681 2531 681 2391 
Q 681 2216 781 2091 
Q 878 1963 1175 1819 
L 1631 1597 
Q 2266 1288 2266 781 
Q 2266 391 1970 151 
Q 1675 -88 1309 -88 
Q 1047 -88 709 6 
Q 606 38 541 38 
Q 469 38 428 -44 
L 325 -44 
L 325 978 
L 428 978 
Q 516 541 762 319 
Q 1009 97 1316 97 
Q 1531 97 1667 223 
Q 1803 350 1803 528 
Q 1803 744 1651 891 
Q 1500 1038 1047 1263 
Q 594 1488 453 1669 
Q 313 1847 313 2119 
Q 313 2472 555 2709 
Q 797 2947 1181 2947 
Q 1350 2947 1591 2875 
Q 1750 2828 1803 2828 
Q 1853 2828 1881 2850 
Q 1909 2872 1947 2947 
L 2050 2947 
z
" transform="scale(0.015625)"/>
      </defs>
      <use xlink:href="#TimesNewRomanPSMT-44"/>
      <use xlink:href="#TimesNewRomanPSMT-72" x="72.216797"/>
      <use xlink:href="#TimesNewRomanPSMT-79" x="105.517578"/>
      <use xlink:href="#TimesNewRomanPSMT-20" x="155.517578"/>
      <use xlink:href="#TimesNewRomanPSMT-53" x="180.517578"/>
      <use xlink:href="#TimesNewRomanPSMT-65" x="236.132812"/>
      <use xlink:href="#TimesNewRomanPSMT-61" x="280.517578"/>
      <use xlink:href="#TimesNewRomanPSMT-73" x="324.902344"/>
      <use xlink:href="#TimesNewRomanPSMT-6f" x="363.818359"/>
      <use xlink:href="#TimesNewRomanPSMT-6e" x="413.818359"/>
     </g>
    </g>
    <g id="PathCollection_12">
     <defs>
      <path id="mf341a9e3aa" d="M -4.5 9 
L 0 4.5 
L 4.5 9 
L 9 4.5 
L 4.5 0 
L 9 -4.5 
L 4.5 -9 
L 0 -4.5 
L -4.5 -9 
L -9 -4.5 
L -4.5 0 
L -9 4.5 
z
" style="stroke: #333333"/>
     </defs>
     <g>
      <use xlink:href="#mf341a9e3aa" x="896.625156" y="167.636719" style="fill: #333333; stroke: #333333"/>
     </g>
    </g>
    <g id="text_30">
     <!-- Level Season -->
     <g style="fill: #262626" transform="translate(965.925156 177.742969)scale(0.385 -0.385)">
      <defs>
       <path id="TimesNewRomanPSMT-4c" d="M 3669 1172 
L 3772 1150 
L 3409 0 
L 128 0 
L 128 116 
L 288 116 
Q 556 116 672 291 
Q 738 391 738 753 
L 738 3488 
Q 738 3884 650 3984 
Q 528 4122 288 4122 
L 128 4122 
L 128 4238 
L 2047 4238 
L 2047 4122 
Q 1709 4125 1573 4059 
Q 1438 3994 1388 3894 
Q 1338 3794 1338 3416 
L 1338 753 
Q 1338 494 1388 397 
Q 1425 331 1503 300 
Q 1581 269 1991 269 
L 2300 269 
Q 2788 269 2984 341 
Q 3181 413 3343 595 
Q 3506 778 3669 1172 
z
" transform="scale(0.015625)"/>
       <path id="TimesNewRomanPSMT-6c" d="M 1184 4444 
L 1184 647 
Q 1184 378 1223 290 
Q 1263 203 1344 158 
Q 1425 113 1647 113 
L 1647 0 
L 244 0 
L 244 113 
Q 441 113 512 153 
Q 584 194 625 287 
Q 666 381 666 647 
L 666 3247 
Q 666 3731 644 3842 
Q 622 3953 573 3993 
Q 525 4034 450 4034 
Q 369 4034 244 3984 
L 191 4094 
L 1044 4444 
L 1184 4444 
z
" transform="scale(0.015625)"/>
      </defs>
      <use xlink:href="#TimesNewRomanPSMT-4c"/>
      <use xlink:href="#TimesNewRomanPSMT-65" x="61.083984"/>
      <use xlink:href="#TimesNewRomanPSMT-76" x="105.46875"/>
      <use xlink:href="#TimesNewRomanPSMT-65" x="155.46875"/>
      <use xlink:href="#TimesNewRomanPSMT-6c" x="199.853516"/>
      <use xlink:href="#TimesNewRomanPSMT-20" x="227.636719"/>
      <use xlink:href="#TimesNewRomanPSMT-53" x="252.636719"/>
      <use xlink:href="#TimesNewRomanPSMT-65" x="308.251953"/>
      <use xlink:href="#TimesNewRomanPSMT-61" x="352.636719"/>
      <use xlink:href="#TimesNewRomanPSMT-73" x="397.021484"/>
      <use xlink:href="#TimesNewRomanPSMT-6f" x="435.9375"/>
      <use xlink:href="#TimesNewRomanPSMT-6e" x="485.9375"/>
     </g>
    </g>
    <g id="PathCollection_13">
     <defs>
      <path id="m6922d365c0" d="M -6.363961 -6.363961 
L -6.363961 6.363961 
L 6.363961 6.363961 
L 6.363961 -6.363961 
z
" style="stroke: #333333"/>
     </defs>
     <g>
      <use xlink:href="#m6922d365c0" x="896.625156" y="222.072109" style="fill: #333333; stroke: #333333"/>
     </g>
    </g>
    <g id="text_31">
     <!-- Wet Season -->
     <g style="fill: #262626" transform="translate(965.925156 232.178359)scale(0.385 -0.385)">
      <defs>
       <path id="TimesNewRomanPSMT-74" d="M 1031 3803 
L 1031 2863 
L 1700 2863 
L 1700 2644 
L 1031 2644 
L 1031 788 
Q 1031 509 1111 412 
Q 1191 316 1316 316 
Q 1419 316 1516 380 
Q 1613 444 1666 569 
L 1788 569 
Q 1678 263 1478 108 
Q 1278 -47 1066 -47 
Q 922 -47 784 33 
Q 647 113 581 261 
Q 516 409 516 719 
L 516 2644 
L 63 2644 
L 63 2747 
Q 234 2816 414 2980 
Q 594 3144 734 3369 
Q 806 3488 934 3803 
L 1031 3803 
z
" transform="scale(0.015625)"/>
      </defs>
      <use xlink:href="#TimesNewRomanPSMT-57"/>
      <use xlink:href="#TimesNewRomanPSMT-65" x="86.384766"/>
      <use xlink:href="#TimesNewRomanPSMT-74" x="130.769531"/>
      <use xlink:href="#TimesNewRomanPSMT-20" x="158.552734"/>
      <use xlink:href="#TimesNewRomanPSMT-53" x="183.552734"/>
      <use xlink:href="#TimesNewRomanPSMT-65" x="239.167969"/>
      <use xlink:href="#TimesNewRomanPSMT-61" x="283.552734"/>
      <use xlink:href="#TimesNewRomanPSMT-73" x="327.9375"/>
      <use xlink:href="#TimesNewRomanPSMT-6f" x="366.853516"/>
      <use xlink:href="#TimesNewRomanPSMT-6e" x="416.853516"/>
     </g>
    </g>
   </g>
  </g>
 </g>
 <defs>
  <clipPath id="p2a48cc1eaa">
   <rect x="90.917109" y="7.2" width="1116" height="1087.2"/>
  </clipPath>
 </defs>
</svg>
