<?xml version="1.0" encoding="utf-8" standalone="no"?>
<!DOCTYPE svg PUBLIC "-//W3C//DTD SVG 1.1//EN"
  "http://www.w3.org/Graphics/SVG/1.1/DTD/svg11.dtd">
<svg xmlns:xlink="http://www.w3.org/1999/xlink" width="1218.129516pt" height="1440.026pt" viewBox="0 0 1218.129516 1440.026" xmlns="http://www.w3.org/2000/svg" version="1.1">
 <metadata>
  <rdf:RDF xmlns:dc="http://purl.org/dc/elements/1.1/" xmlns:cc="http://creativecommons.org/ns#" xmlns:rdf="http://www.w3.org/1999/02/22-rdf-syntax-ns#">
   <cc:Work>
    <dc:type rdf:resource="http://purl.org/dc/dcmitype/StillImage"/>
    <dc:date>2023-02-21T20:01:41.025446</dc:date>
    <dc:format>image/svg+xml</dc:format>
    <dc:creator>
     <cc:Agent>
      <dc:title>Matplotlib v3.5.1, https://matplotlib.org/</dc:title>
     </cc:Agent>
    </dc:creator>
   </cc:Work>
  </rdf:RDF>
 </metadata>
 <defs>
  <style type="text/css">*{stroke-linejoin: round; stroke-linecap: butt}</style>
 </defs>
 <g id="figure_1">
  <g id="patch_1">
   <path d="M 0 1440.026 
L 1218.129516 1440.026 
L 1218.129516 0 
L 0 0 
z
" style="fill: #ffffff"/>
  </g>
  <g id="axes_1">
   <g id="patch_2">
    <path d="M 94.929516 1094.4 
L 1210.929516 1094.4 
L 1210.929516 7.2 
L 94.929516 7.2 
z
" style="fill: #eaeaf2"/>
   </g>
   <g id="matplotlib.axis_1">
    <g id="xtick_1">
     <g id="line2d_1">
      <path d="M 166.98173 1094.4 
L 166.98173 7.2 
" clip-path="url(#pb57c614772)" style="fill: none; stroke: #ffffff; stroke-linecap: round"/>
     </g>
     <g id="text_1">
      <!-- -8 -->
      <g style="fill: #262626" transform="translate(150.030816 1132.161063)scale(0.407 -0.407)">
       <defs>
        <path id="TimesNewRomanPSMT-2d" d="M 259 1672 
L 1875 1672 
L 1875 1200 
L 259 1200 
L 259 1672 
z
" transform="scale(0.015625)"/>
        <path id="TimesNewRomanPSMT-38" d="M 1228 2134 
Q 725 2547 579 2797 
Q 434 3047 434 3316 
Q 434 3728 753 4026 
Q 1072 4325 1600 4325 
Q 2113 4325 2425 4047 
Q 2738 3769 2738 3413 
Q 2738 3175 2569 2928 
Q 2400 2681 1866 2347 
Q 2416 1922 2594 1678 
Q 2831 1359 2831 1006 
Q 2831 559 2490 242 
Q 2150 -75 1597 -75 
Q 994 -75 656 303 
Q 388 606 388 966 
Q 388 1247 577 1523 
Q 766 1800 1228 2134 
z
M 1719 2469 
Q 2094 2806 2194 3001 
Q 2294 3197 2294 3444 
Q 2294 3772 2109 3958 
Q 1925 4144 1606 4144 
Q 1288 4144 1088 3959 
Q 888 3775 888 3528 
Q 888 3366 970 3203 
Q 1053 3041 1206 2894 
L 1719 2469 
z
M 1375 2016 
Q 1116 1797 991 1539 
Q 866 1281 866 981 
Q 866 578 1086 336 
Q 1306 94 1647 94 
Q 1984 94 2187 284 
Q 2391 475 2391 747 
Q 2391 972 2272 1150 
Q 2050 1481 1375 2016 
z
" transform="scale(0.015625)"/>
       </defs>
       <use xlink:href="#TimesNewRomanPSMT-2d"/>
       <use xlink:href="#TimesNewRomanPSMT-38" x="33.300781"/>
      </g>
     </g>
    </g>
    <g id="xtick_2">
     <g id="line2d_2">
      <path d="M 345.906117 1094.4 
L 345.906117 7.2 
" clip-path="url(#pb57c614772)" style="fill: none; stroke: #ffffff; stroke-linecap: round"/>
     </g>
     <g id="text_2">
      <!-- -6 -->
      <g style="fill: #262626" transform="translate(328.955203 1132.161063)scale(0.407 -0.407)">
       <defs>
        <path id="TimesNewRomanPSMT-36" d="M 2869 4325 
L 2869 4209 
Q 2456 4169 2195 4045 
Q 1934 3922 1679 3669 
Q 1425 3416 1258 3105 
Q 1091 2794 978 2366 
Q 1428 2675 1881 2675 
Q 2316 2675 2634 2325 
Q 2953 1975 2953 1425 
Q 2953 894 2631 456 
Q 2244 -75 1606 -75 
Q 1172 -75 869 213 
Q 275 772 275 1663 
Q 275 2231 503 2743 
Q 731 3256 1154 3653 
Q 1578 4050 1965 4187 
Q 2353 4325 2688 4325 
L 2869 4325 
z
M 925 2138 
Q 869 1716 869 1456 
Q 869 1156 980 804 
Q 1091 453 1309 247 
Q 1469 100 1697 100 
Q 1969 100 2183 356 
Q 2397 613 2397 1088 
Q 2397 1622 2184 2012 
Q 1972 2403 1581 2403 
Q 1463 2403 1327 2353 
Q 1191 2303 925 2138 
z
" transform="scale(0.015625)"/>
       </defs>
       <use xlink:href="#TimesNewRomanPSMT-2d"/>
       <use xlink:href="#TimesNewRomanPSMT-36" x="33.300781"/>
      </g>
     </g>
    </g>
    <g id="xtick_3">
     <g id="line2d_3">
      <path d="M 524.830504 1094.4 
L 524.830504 7.2 
" clip-path="url(#pb57c614772)" style="fill: none; stroke: #ffffff; stroke-linecap: round"/>
     </g>
     <g id="text_3">
      <!-- -4 -->
      <g style="fill: #262626" transform="translate(507.87959 1132.161063)scale(0.407 -0.407)">
       <defs>
        <path id="TimesNewRomanPSMT-34" d="M 2978 1563 
L 2978 1119 
L 2409 1119 
L 2409 0 
L 1894 0 
L 1894 1119 
L 100 1119 
L 100 1519 
L 2066 4325 
L 2409 4325 
L 2409 1563 
L 2978 1563 
z
M 1894 1563 
L 1894 3666 
L 406 1563 
L 1894 1563 
z
" transform="scale(0.015625)"/>
       </defs>
       <use xlink:href="#TimesNewRomanPSMT-2d"/>
       <use xlink:href="#TimesNewRomanPSMT-34" x="33.300781"/>
      </g>
     </g>
    </g>
    <g id="xtick_4">
     <g id="line2d_4">
      <path d="M 703.754891 1094.4 
L 703.754891 7.2 
" clip-path="url(#pb57c614772)" style="fill: none; stroke: #ffffff; stroke-linecap: round"/>
     </g>
     <g id="text_4">
      <!-- -2 -->
      <g style="fill: #262626" transform="translate(686.803977 1132.161063)scale(0.407 -0.407)">
       <defs>
        <path id="TimesNewRomanPSMT-32" d="M 2934 816 
L 2638 0 
L 138 0 
L 138 116 
Q 1241 1122 1691 1759 
Q 2141 2397 2141 2925 
Q 2141 3328 1894 3587 
Q 1647 3847 1303 3847 
Q 991 3847 742 3664 
Q 494 3481 375 3128 
L 259 3128 
Q 338 3706 661 4015 
Q 984 4325 1469 4325 
Q 1984 4325 2329 3994 
Q 2675 3663 2675 3213 
Q 2675 2891 2525 2569 
Q 2294 2063 1775 1497 
Q 997 647 803 472 
L 1909 472 
Q 2247 472 2383 497 
Q 2519 522 2628 598 
Q 2738 675 2819 816 
L 2934 816 
z
" transform="scale(0.015625)"/>
       </defs>
       <use xlink:href="#TimesNewRomanPSMT-2d"/>
       <use xlink:href="#TimesNewRomanPSMT-32" x="33.300781"/>
      </g>
     </g>
    </g>
    <g id="xtick_5">
     <g id="line2d_5">
      <path d="M 882.679278 1094.4 
L 882.679278 7.2 
" clip-path="url(#pb57c614772)" style="fill: none; stroke: #ffffff; stroke-linecap: round"/>
     </g>
     <g id="text_5">
      <!-- 0 -->
      <g style="fill: #262626" transform="translate(872.504278 1132.161063)scale(0.407 -0.407)">
       <defs>
        <path id="TimesNewRomanPSMT-30" d="M 231 2094 
Q 231 2819 450 3342 
Q 669 3866 1031 4122 
Q 1313 4325 1613 4325 
Q 2100 4325 2488 3828 
Q 2972 3213 2972 2159 
Q 2972 1422 2759 906 
Q 2547 391 2217 158 
Q 1888 -75 1581 -75 
Q 975 -75 572 641 
Q 231 1244 231 2094 
z
M 844 2016 
Q 844 1141 1059 588 
Q 1238 122 1591 122 
Q 1759 122 1940 273 
Q 2122 425 2216 781 
Q 2359 1319 2359 2297 
Q 2359 3022 2209 3506 
Q 2097 3866 1919 4016 
Q 1791 4119 1609 4119 
Q 1397 4119 1231 3928 
Q 1006 3669 925 3112 
Q 844 2556 844 2016 
z
" transform="scale(0.015625)"/>
       </defs>
       <use xlink:href="#TimesNewRomanPSMT-30"/>
      </g>
     </g>
    </g>
    <g id="xtick_6">
     <g id="line2d_6">
      <path d="M 1061.603666 1094.4 
L 1061.603666 7.2 
" clip-path="url(#pb57c614772)" style="fill: none; stroke: #ffffff; stroke-linecap: round"/>
     </g>
     <g id="text_6">
      <!-- 2 -->
      <g style="fill: #262626" transform="translate(1051.428666 1132.161063)scale(0.407 -0.407)">
       <use xlink:href="#TimesNewRomanPSMT-32"/>
      </g>
     </g>
    </g>
    <g id="text_7">
     <!-- PCA 0 -->
     <g style="fill: #262626" transform="translate(594.314578 1175.697297)scale(0.444 -0.444)">
      <defs>
       <path id="TimesNewRomanPSMT-50" d="M 1313 1984 
L 1313 750 
Q 1313 350 1400 253 
Q 1519 116 1759 116 
L 1922 116 
L 1922 0 
L 106 0 
L 106 116 
L 266 116 
Q 534 116 650 291 
Q 713 388 713 750 
L 713 3488 
Q 713 3888 628 3984 
Q 506 4122 266 4122 
L 106 4122 
L 106 4238 
L 1659 4238 
Q 2228 4238 2556 4120 
Q 2884 4003 3109 3725 
Q 3334 3447 3334 3066 
Q 3334 2547 2992 2222 
Q 2650 1897 2025 1897 
Q 1872 1897 1694 1919 
Q 1516 1941 1313 1984 
z
M 1313 2163 
Q 1478 2131 1606 2115 
Q 1734 2100 1825 2100 
Q 2150 2100 2386 2351 
Q 2622 2603 2622 3003 
Q 2622 3278 2509 3514 
Q 2397 3750 2190 3867 
Q 1984 3984 1722 3984 
Q 1563 3984 1313 3925 
L 1313 2163 
z
" transform="scale(0.015625)"/>
       <path id="TimesNewRomanPSMT-43" d="M 3853 4334 
L 3950 2894 
L 3853 2894 
Q 3659 3541 3300 3825 
Q 2941 4109 2438 4109 
Q 2016 4109 1675 3895 
Q 1334 3681 1139 3212 
Q 944 2744 944 2047 
Q 944 1472 1128 1050 
Q 1313 628 1683 403 
Q 2053 178 2528 178 
Q 2941 178 3256 354 
Q 3572 531 3950 1056 
L 4047 994 
Q 3728 428 3303 165 
Q 2878 -97 2294 -97 
Q 1241 -97 663 684 
Q 231 1266 231 2053 
Q 231 2688 515 3219 
Q 800 3750 1298 4042 
Q 1797 4334 2388 4334 
Q 2847 4334 3294 4109 
Q 3425 4041 3481 4041 
Q 3566 4041 3628 4100 
Q 3709 4184 3744 4334 
L 3853 4334 
z
" transform="scale(0.015625)"/>
       <path id="TimesNewRomanPSMT-41" d="M 2928 1419 
L 1288 1419 
L 1000 750 
Q 894 503 894 381 
Q 894 284 986 211 
Q 1078 138 1384 116 
L 1384 0 
L 50 0 
L 50 116 
Q 316 163 394 238 
Q 553 388 747 847 
L 2238 4334 
L 2347 4334 
L 3822 809 
Q 4000 384 4145 257 
Q 4291 131 4550 116 
L 4550 0 
L 2878 0 
L 2878 116 
Q 3131 128 3220 200 
Q 3309 272 3309 375 
Q 3309 513 3184 809 
L 2928 1419 
z
M 2841 1650 
L 2122 3363 
L 1384 1650 
L 2841 1650 
z
" transform="scale(0.015625)"/>
       <path id="TimesNewRomanPSMT-20" transform="scale(0.015625)"/>
      </defs>
      <use xlink:href="#TimesNewRomanPSMT-50"/>
      <use xlink:href="#TimesNewRomanPSMT-43" x="55.615234"/>
      <use xlink:href="#TimesNewRomanPSMT-41" x="122.314453"/>
      <use xlink:href="#TimesNewRomanPSMT-20" x="189.03125"/>
      <use xlink:href="#TimesNewRomanPSMT-30" x="214.03125"/>
     </g>
    </g>
   </g>
   <g id="matplotlib.axis_2">
    <g id="ytick_1">
     <g id="line2d_7">
      <path d="M 94.929516 997.500588 
L 1210.929516 997.500588 
" clip-path="url(#pb57c614772)" style="fill: none; stroke: #ffffff; stroke-linecap: round"/>
     </g>
     <g id="text_8">
      <!-- -2 -->
      <g style="fill: #262626" transform="translate(51.527688 1011.631119)scale(0.407 -0.407)">
       <use xlink:href="#TimesNewRomanPSMT-2d"/>
       <use xlink:href="#TimesNewRomanPSMT-32" x="33.300781"/>
      </g>
     </g>
    </g>
    <g id="ytick_2">
     <g id="line2d_8">
      <path d="M 94.929516 873.25985 
L 1210.929516 873.25985 
" clip-path="url(#pb57c614772)" style="fill: none; stroke: #ffffff; stroke-linecap: round"/>
     </g>
     <g id="text_9">
      <!-- -1 -->
      <g style="fill: #262626" transform="translate(51.527688 887.390381)scale(0.407 -0.407)">
       <defs>
        <path id="TimesNewRomanPSMT-31" d="M 750 3822 
L 1781 4325 
L 1884 4325 
L 1884 747 
Q 1884 391 1914 303 
Q 1944 216 2037 169 
Q 2131 122 2419 116 
L 2419 0 
L 825 0 
L 825 116 
Q 1125 122 1212 167 
Q 1300 213 1334 289 
Q 1369 366 1369 747 
L 1369 3034 
Q 1369 3497 1338 3628 
Q 1316 3728 1258 3775 
Q 1200 3822 1119 3822 
Q 1003 3822 797 3725 
L 750 3822 
z
" transform="scale(0.015625)"/>
       </defs>
       <use xlink:href="#TimesNewRomanPSMT-2d"/>
       <use xlink:href="#TimesNewRomanPSMT-31" x="33.300781"/>
      </g>
     </g>
    </g>
    <g id="ytick_3">
     <g id="line2d_9">
      <path d="M 94.929516 749.019111 
L 1210.929516 749.019111 
" clip-path="url(#pb57c614772)" style="fill: none; stroke: #ffffff; stroke-linecap: round"/>
     </g>
     <g id="text_10">
      <!-- 0 -->
      <g style="fill: #262626" transform="translate(65.079516 763.149643)scale(0.407 -0.407)">
       <use xlink:href="#TimesNewRomanPSMT-30"/>
      </g>
     </g>
    </g>
    <g id="ytick_4">
     <g id="line2d_10">
      <path d="M 94.929516 624.778373 
L 1210.929516 624.778373 
" clip-path="url(#pb57c614772)" style="fill: none; stroke: #ffffff; stroke-linecap: round"/>
     </g>
     <g id="text_11">
      <!-- 1 -->
      <g style="fill: #262626" transform="translate(65.079516 638.908904)scale(0.407 -0.407)">
       <use xlink:href="#TimesNewRomanPSMT-31"/>
      </g>
     </g>
    </g>
    <g id="ytick_5">
     <g id="line2d_11">
      <path d="M 94.929516 500.537635 
L 1210.929516 500.537635 
" clip-path="url(#pb57c614772)" style="fill: none; stroke: #ffffff; stroke-linecap: round"/>
     </g>
     <g id="text_12">
      <!-- 2 -->
      <g style="fill: #262626" transform="translate(65.079516 514.668166)scale(0.407 -0.407)">
       <use xlink:href="#TimesNewRomanPSMT-32"/>
      </g>
     </g>
    </g>
    <g id="ytick_6">
     <g id="line2d_12">
      <path d="M 94.929516 376.296896 
L 1210.929516 376.296896 
" clip-path="url(#pb57c614772)" style="fill: none; stroke: #ffffff; stroke-linecap: round"/>
     </g>
     <g id="text_13">
      <!-- 3 -->
      <g style="fill: #262626" transform="translate(65.079516 390.427428)scale(0.407 -0.407)">
       <defs>
        <path id="TimesNewRomanPSMT-33" d="M 325 3431 
Q 506 3859 782 4092 
Q 1059 4325 1472 4325 
Q 1981 4325 2253 3994 
Q 2459 3747 2459 3466 
Q 2459 3003 1878 2509 
Q 2269 2356 2469 2072 
Q 2669 1788 2669 1403 
Q 2669 853 2319 450 
Q 1863 -75 997 -75 
Q 569 -75 414 31 
Q 259 138 259 259 
Q 259 350 332 419 
Q 406 488 509 488 
Q 588 488 669 463 
Q 722 447 909 348 
Q 1097 250 1169 231 
Q 1284 197 1416 197 
Q 1734 197 1970 444 
Q 2206 691 2206 1028 
Q 2206 1275 2097 1509 
Q 2016 1684 1919 1775 
Q 1784 1900 1550 2001 
Q 1316 2103 1072 2103 
L 972 2103 
L 972 2197 
Q 1219 2228 1467 2375 
Q 1716 2522 1828 2728 
Q 1941 2934 1941 3181 
Q 1941 3503 1739 3701 
Q 1538 3900 1238 3900 
Q 753 3900 428 3381 
L 325 3431 
z
" transform="scale(0.015625)"/>
       </defs>
       <use xlink:href="#TimesNewRomanPSMT-33"/>
      </g>
     </g>
    </g>
    <g id="ytick_7">
     <g id="line2d_13">
      <path d="M 94.929516 252.056158 
L 1210.929516 252.056158 
" clip-path="url(#pb57c614772)" style="fill: none; stroke: #ffffff; stroke-linecap: round"/>
     </g>
     <g id="text_14">
      <!-- 4 -->
      <g style="fill: #262626" transform="translate(65.079516 266.186689)scale(0.407 -0.407)">
       <use xlink:href="#TimesNewRomanPSMT-34"/>
      </g>
     </g>
    </g>
    <g id="ytick_8">
     <g id="line2d_14">
      <path d="M 94.929516 127.81542 
L 1210.929516 127.81542 
" clip-path="url(#pb57c614772)" style="fill: none; stroke: #ffffff; stroke-linecap: round"/>
     </g>
     <g id="text_15">
      <!-- 5 -->
      <g style="fill: #262626" transform="translate(65.079516 141.945951)scale(0.407 -0.407)">
       <defs>
        <path id="TimesNewRomanPSMT-35" d="M 2778 4238 
L 2534 3706 
L 1259 3706 
L 981 3138 
Q 1809 3016 2294 2522 
Q 2709 2097 2709 1522 
Q 2709 1188 2573 903 
Q 2438 619 2231 419 
Q 2025 219 1772 97 
Q 1413 -75 1034 -75 
Q 653 -75 479 54 
Q 306 184 306 341 
Q 306 428 378 495 
Q 450 563 559 563 
Q 641 563 702 538 
Q 763 513 909 409 
Q 1144 247 1384 247 
Q 1750 247 2026 523 
Q 2303 800 2303 1197 
Q 2303 1581 2056 1914 
Q 1809 2247 1375 2428 
Q 1034 2569 447 2591 
L 1259 4238 
L 2778 4238 
z
" transform="scale(0.015625)"/>
       </defs>
       <use xlink:href="#TimesNewRomanPSMT-35"/>
      </g>
     </g>
    </g>
    <g id="text_16">
     <!-- PCA 1 -->
     <g style="fill: #262626" transform="translate(38.03025 609.414938)rotate(-90)scale(0.444 -0.444)">
      <use xlink:href="#TimesNewRomanPSMT-50"/>
      <use xlink:href="#TimesNewRomanPSMT-43" x="55.615234"/>
      <use xlink:href="#TimesNewRomanPSMT-41" x="122.314453"/>
      <use xlink:href="#TimesNewRomanPSMT-20" x="189.03125"/>
      <use xlink:href="#TimesNewRomanPSMT-31" x="214.03125"/>
     </g>
    </g>
   </g>
   <g id="PathCollection_1">
    <path d="M 1084.703618 757.464883 
C 1087.951679 757.464883 1091.067146 756.174414 1093.363872 753.877688 
C 1095.660598 751.580962 1096.951067 748.465495 1096.951067 745.217434 
C 1096.951067 741.969372 1095.660598 738.853906 1093.363872 736.55718 
C 1091.067146 734.260454 1087.951679 732.969985 1084.703618 732.969985 
C 1081.455557 732.969985 1078.34009 734.260454 1076.043364 736.55718 
C 1073.746638 738.853906 1072.456169 741.969372 1072.456169 745.217434 
C 1072.456169 748.465495 1073.746638 751.580962 1076.043364 753.877688 
C 1078.34009 756.174414 1081.455557 757.464883 1084.703618 757.464883 
z
" clip-path="url(#pb57c614772)" style="fill: #e41a1c; stroke: #ffffff; stroke-width: 1.959592"/>
    <path d="M 1110.507733 701.266239 
C 1113.755794 701.266239 1116.871261 699.975771 1119.167987 697.679045 
C 1121.464713 695.382319 1122.755181 692.266852 1122.755181 689.018791 
C 1122.755181 685.770729 1121.464713 682.655263 1119.167987 680.358537 
C 1116.871261 678.06181 1113.755794 676.771342 1110.507733 676.771342 
C 1107.259671 676.771342 1104.144205 678.06181 1101.847479 680.358537 
C 1099.550752 682.655263 1098.260284 685.770729 1098.260284 689.018791 
C 1098.260284 692.266852 1099.550752 695.382319 1101.847479 697.679045 
C 1104.144205 699.975771 1107.259671 701.266239 1110.507733 701.266239 
z
" clip-path="url(#pb57c614772)" style="fill: #e41a1c; stroke: #ffffff; stroke-width: 1.959592"/>
    <path d="M 1160.202243 487.083618 
C 1163.450304 487.083618 1166.565771 485.79315 1168.862497 483.496423 
C 1171.159223 481.199697 1172.449692 478.084231 1172.449692 474.836169 
C 1172.449692 471.588108 1171.159223 468.472641 1168.862497 466.175915 
C 1166.565771 463.879189 1163.450304 462.588721 1160.202243 462.588721 
C 1156.954182 462.588721 1153.838715 463.879189 1151.541989 466.175915 
C 1149.245263 468.472641 1147.954794 471.588108 1147.954794 474.836169 
C 1147.954794 478.084231 1149.245263 481.199697 1151.541989 483.496423 
C 1153.838715 485.79315 1156.954182 487.083618 1160.202243 487.083618 
z
" clip-path="url(#pb57c614772)" style="fill: #e41a1c; stroke: #ffffff; stroke-width: 1.959592"/>
    <path d="M 1104.090542 632.867497 
C 1107.338603 632.867497 1110.45407 631.577029 1112.750796 629.280303 
C 1115.047522 626.983577 1116.33799 623.86811 1116.33799 620.620049 
C 1116.33799 617.371987 1115.047522 614.256521 1112.750796 611.959795 
C 1110.45407 609.663068 1107.338603 608.3726 1104.090542 608.3726 
C 1100.84248 608.3726 1097.727014 609.663068 1095.430288 611.959795 
C 1093.133562 614.256521 1091.843093 617.371987 1091.843093 620.620049 
C 1091.843093 623.86811 1093.133562 626.983577 1095.430288 629.280303 
C 1097.727014 631.577029 1100.84248 632.867497 1104.090542 632.867497 
z
" clip-path="url(#pb57c614772)" style="fill: #e41a1c; stroke: #ffffff; stroke-width: 1.959592"/>
    <path d="M 1129.577435 553.971464 
C 1132.825497 553.971464 1135.940963 552.680995 1138.237689 550.384269 
C 1140.534416 548.087543 1141.824884 544.972077 1141.824884 541.724015 
C 1141.824884 538.475954 1140.534416 535.360487 1138.237689 533.063761 
C 1135.940963 530.767035 1132.825497 529.476567 1129.577435 529.476567 
C 1126.329374 529.476567 1123.213908 530.767035 1120.917181 533.063761 
C 1118.620455 535.360487 1117.329987 538.475954 1117.329987 541.724015 
C 1117.329987 544.972077 1118.620455 548.087543 1120.917181 550.384269 
C 1123.213908 552.680995 1126.329374 553.971464 1129.577435 553.971464 
z
" clip-path="url(#pb57c614772)" style="fill: #e41a1c; stroke: #ffffff; stroke-width: 1.959592"/>
    <path d="M 1143.949426 673.20132 
C 1147.197488 673.20132 1150.312954 671.910852 1152.60968 669.614126 
C 1154.906407 667.317399 1156.196875 664.201933 1156.196875 660.953872 
C 1156.196875 657.70581 1154.906407 654.590344 1152.60968 652.293618 
C 1150.312954 649.996891 1147.197488 648.706423 1143.949426 648.706423 
C 1140.701365 648.706423 1137.585899 649.996891 1135.289172 652.293618 
C 1132.992446 654.590344 1131.701978 657.70581 1131.701978 660.953872 
C 1131.701978 664.201933 1132.992446 667.317399 1135.289172 669.614126 
C 1137.585899 671.910852 1140.701365 673.20132 1143.949426 673.20132 
z
" clip-path="url(#pb57c614772)" style="fill: #377eb8; stroke: #ffffff; stroke-width: 1.959592"/>
    <path d="M 1126.764294 570.391789 
C 1130.012356 570.391789 1133.127822 569.10132 1135.424548 566.804594 
C 1137.721275 564.507868 1139.011743 561.392401 1139.011743 558.14434 
C 1139.011743 554.896279 1137.721275 551.780812 1135.424548 549.484086 
C 1133.127822 547.18736 1130.012356 545.896891 1126.764294 545.896891 
C 1123.516233 545.896891 1120.400767 547.18736 1118.10404 549.484086 
C 1115.807314 551.780812 1114.516846 554.896279 1114.516846 558.14434 
C 1114.516846 561.392401 1115.807314 564.507868 1118.10404 566.804594 
C 1120.400767 569.10132 1123.516233 570.391789 1126.764294 570.391789 
z
" clip-path="url(#pb57c614772)" style="fill: #377eb8; stroke: #ffffff; stroke-width: 1.959592"/>
    <path d="M 1124.230411 624.329792 
C 1127.478473 624.329792 1130.593939 623.039323 1132.890665 620.742597 
C 1135.187392 618.445871 1136.47786 615.330405 1136.47786 612.082343 
C 1136.47786 608.834282 1135.187392 605.718815 1132.890665 603.422089 
C 1130.593939 601.125363 1127.478473 599.834894 1124.230411 599.834894 
C 1120.98235 599.834894 1117.866884 601.125363 1115.570157 603.422089 
C 1113.273431 605.718815 1111.982963 608.834282 1111.982963 612.082343 
C 1111.982963 615.330405 1113.273431 618.445871 1115.570157 620.742597 
C 1117.866884 623.039323 1120.98235 624.329792 1124.230411 624.329792 
z
" clip-path="url(#pb57c614772)" style="fill: #377eb8; stroke: #ffffff; stroke-width: 1.959592"/>
    <path d="M 1121.82967 585.033584 
C 1125.077732 585.033584 1128.193198 583.743115 1130.489924 581.446389 
C 1132.786651 579.149663 1134.077119 576.034196 1134.077119 572.786135 
C 1134.077119 569.538074 1132.786651 566.422607 1130.489924 564.125881 
C 1128.193198 561.829155 1125.077732 560.538686 1121.82967 560.538686 
C 1118.581609 560.538686 1115.466143 561.829155 1113.169416 564.125881 
C 1110.87269 566.422607 1109.582222 569.538074 1109.582222 572.786135 
C 1109.582222 576.034196 1110.87269 579.149663 1113.169416 581.446389 
C 1115.466143 583.743115 1118.581609 585.033584 1121.82967 585.033584 
z
" clip-path="url(#pb57c614772)" style="fill: #377eb8; stroke: #ffffff; stroke-width: 1.959592"/>
    <path d="M 1064.317994 626.484161 
C 1067.566055 626.484161 1070.681521 625.193693 1072.978248 622.896966 
C 1075.274974 620.60024 1076.565442 617.484774 1076.565442 614.236712 
C 1076.565442 610.988651 1075.274974 607.873184 1072.978248 605.576458 
C 1070.681521 603.279732 1067.566055 601.989264 1064.317994 601.989264 
C 1061.069932 601.989264 1057.954466 603.279732 1055.65774 605.576458 
C 1053.361013 607.873184 1052.070545 610.988651 1052.070545 614.236712 
C 1052.070545 617.484774 1053.361013 620.60024 1055.65774 622.896966 
C 1057.954466 625.193693 1061.069932 626.484161 1064.317994 626.484161 
z
" clip-path="url(#pb57c614772)" style="fill: #377eb8; stroke: #ffffff; stroke-width: 1.959592"/>
    <path d="M 1101.322817 540.783979 
C 1104.570878 540.783979 1107.686345 539.493511 1109.983071 537.196785 
C 1112.279797 534.900058 1113.570265 531.784592 1113.570265 528.536531 
C 1113.570265 525.288469 1112.279797 522.173003 1109.983071 519.876276 
C 1107.686345 517.57955 1104.570878 516.289082 1101.322817 516.289082 
C 1098.074755 516.289082 1094.959289 517.57955 1092.662563 519.876276 
C 1090.365836 522.173003 1089.075368 525.288469 1089.075368 528.536531 
C 1089.075368 531.784592 1090.365836 534.900058 1092.662563 537.196785 
C 1094.959289 539.493511 1098.074755 540.783979 1101.322817 540.783979 
z
" clip-path="url(#pb57c614772)" style="fill: #377eb8; stroke: #ffffff; stroke-width: 1.959592"/>
    <path d="M 1101.321855 633.843976 
C 1104.569917 633.843976 1107.685383 632.553508 1109.982109 630.256782 
C 1112.278835 627.960055 1113.569304 624.844589 1113.569304 621.596528 
C 1113.569304 618.348466 1112.278835 615.233 1109.982109 612.936274 
C 1107.685383 610.639547 1104.569917 609.349079 1101.321855 609.349079 
C 1098.073794 609.349079 1094.958327 610.639547 1092.661601 612.936274 
C 1090.364875 615.233 1089.074407 618.348466 1089.074407 621.596528 
C 1089.074407 624.844589 1090.364875 627.960055 1092.661601 630.256782 
C 1094.958327 632.553508 1098.073794 633.843976 1101.321855 633.843976 
z
" clip-path="url(#pb57c614772)" style="fill: #4daf4a; stroke: #ffffff; stroke-width: 1.959592"/>
    <path d="M 1087.380919 579.572494 
C 1090.628981 579.572494 1093.744447 578.282026 1096.041173 575.9853 
C 1098.3379 573.688573 1099.628368 570.573107 1099.628368 567.325046 
C 1099.628368 564.076984 1098.3379 560.961518 1096.041173 558.664792 
C 1093.744447 556.368065 1090.628981 555.077597 1087.380919 555.077597 
C 1084.132858 555.077597 1081.017392 556.368065 1078.720665 558.664792 
C 1076.423939 560.961518 1075.133471 564.076984 1075.133471 567.325046 
C 1075.133471 570.573107 1076.423939 573.688573 1078.720665 575.9853 
C 1081.017392 578.282026 1084.132858 579.572494 1087.380919 579.572494 
z
" clip-path="url(#pb57c614772)" style="fill: #4daf4a; stroke: #ffffff; stroke-width: 1.959592"/>
    <path d="M 1091.756148 671.81707 
C 1095.004209 671.81707 1098.119675 670.526601 1100.416402 668.229875 
C 1102.713128 665.933149 1104.003596 662.817682 1104.003596 659.569621 
C 1104.003596 656.32156 1102.713128 653.206093 1100.416402 650.909367 
C 1098.119675 648.612641 1095.004209 647.322172 1091.756148 647.322172 
C 1088.508086 647.322172 1085.39262 648.612641 1083.095894 650.909367 
C 1080.799167 653.206093 1079.508699 656.32156 1079.508699 659.569621 
C 1079.508699 662.817682 1080.799167 665.933149 1083.095894 668.229875 
C 1085.39262 670.526601 1088.508086 671.81707 1091.756148 671.81707 
z
" clip-path="url(#pb57c614772)" style="fill: #4daf4a; stroke: #ffffff; stroke-width: 1.959592"/>
    <path d="M 1068.562856 613.715547 
C 1071.810917 613.715547 1074.926384 612.425079 1077.22311 610.128352 
C 1079.519836 607.831626 1080.810305 604.71616 1080.810305 601.468098 
C 1080.810305 598.220037 1079.519836 595.10457 1077.22311 592.807844 
C 1074.926384 590.511118 1071.810917 589.22065 1068.562856 589.22065 
C 1065.314794 589.22065 1062.199328 590.511118 1059.902602 592.807844 
C 1057.605876 595.10457 1056.315407 598.220037 1056.315407 601.468098 
C 1056.315407 604.71616 1057.605876 607.831626 1059.902602 610.128352 
C 1062.199328 612.425079 1065.314794 613.715547 1068.562856 613.715547 
z
" clip-path="url(#pb57c614772)" style="fill: #4daf4a; stroke: #ffffff; stroke-width: 1.959592"/>
    <path d="M 1129.192932 496.9208 
C 1132.440993 496.9208 1135.55646 495.630332 1137.853186 493.333606 
C 1140.149912 491.036879 1141.440381 487.921413 1141.440381 484.673352 
C 1141.440381 481.42529 1140.149912 478.309824 1137.853186 476.013098 
C 1135.55646 473.716371 1132.440993 472.425903 1129.192932 472.425903 
C 1125.944871 472.425903 1122.829404 473.716371 1120.532678 476.013098 
C 1118.235952 478.309824 1116.945483 481.42529 1116.945483 484.673352 
C 1116.945483 487.921413 1118.235952 491.036879 1120.532678 493.333606 
C 1122.829404 495.630332 1125.944871 496.9208 1129.192932 496.9208 
z
" clip-path="url(#pb57c614772)" style="fill: #4daf4a; stroke: #ffffff; stroke-width: 1.959592"/>
    <path d="M 1022.83198 468.519178 
C 1026.080042 468.519178 1029.195508 467.228709 1031.492234 464.931983 
C 1033.788961 462.635257 1035.079429 459.519791 1035.079429 456.271729 
C 1035.079429 453.023668 1033.788961 449.908201 1031.492234 447.611475 
C 1029.195508 445.314749 1026.080042 444.024281 1022.83198 444.024281 
C 1019.583919 444.024281 1016.468452 445.314749 1014.171726 447.611475 
C 1011.875 449.908201 1010.584532 453.023668 1010.584532 456.271729 
C 1010.584532 459.519791 1011.875 462.635257 1014.171726 464.931983 
C 1016.468452 467.228709 1019.583919 468.519178 1022.83198 468.519178 
z
" clip-path="url(#pb57c614772)" style="fill: #4daf4a; stroke: #ffffff; stroke-width: 1.959592"/>
    <path d="M 1093.25426 694.511345 
C 1096.502322 694.511345 1099.617788 693.220877 1101.914514 690.924151 
C 1104.211241 688.627424 1105.501709 685.511958 1105.501709 682.263897 
C 1105.501709 679.015835 1104.211241 675.900369 1101.914514 673.603643 
C 1099.617788 671.306916 1096.502322 670.016448 1093.25426 670.016448 
C 1090.006199 670.016448 1086.890732 671.306916 1084.594006 673.603643 
C 1082.29728 675.900369 1081.006812 679.015835 1081.006812 682.263897 
C 1081.006812 685.511958 1082.29728 688.627424 1084.594006 690.924151 
C 1086.890732 693.220877 1090.006199 694.511345 1093.25426 694.511345 
z
" clip-path="url(#pb57c614772)" style="fill: #4daf4a; stroke: #ffffff; stroke-width: 1.959592"/>
    <path d="M 1023.181105 830.285711 
L 1029.304829 824.161987 
L 1035.428554 830.285711 
L 1041.552278 824.161987 
L 1035.428554 818.038262 
L 1041.552278 811.914538 
L 1035.428554 805.790814 
L 1029.304829 811.914538 
L 1023.181105 805.790814 
L 1017.057381 811.914538 
L 1023.181105 818.038262 
L 1017.057381 824.161987 
z
" clip-path="url(#pb57c614772)" style="fill: #e41a1c; stroke: #ffffff; stroke-width: 1.959592"/>
    <path d="M 984.842131 716.404594 
L 990.965856 710.280869 
L 997.08958 716.404594 
L 1003.213305 710.280869 
L 997.08958 704.157145 
L 1003.213305 698.033421 
L 997.08958 691.909696 
L 990.965856 698.033421 
L 984.842131 691.909696 
L 978.718407 698.033421 
L 984.842131 704.157145 
L 978.718407 710.280869 
z
" clip-path="url(#pb57c614772)" style="fill: #e41a1c; stroke: #ffffff; stroke-width: 1.959592"/>
    <path d="M 941.370627 704.968059 
L 947.494351 698.844335 
L 953.618076 704.968059 
L 959.7418 698.844335 
L 953.618076 692.72061 
L 959.7418 686.596886 
L 953.618076 680.473162 
L 947.494351 686.596886 
L 941.370627 680.473162 
L 935.246902 686.596886 
L 941.370627 692.72061 
L 935.246902 698.844335 
z
" clip-path="url(#pb57c614772)" style="fill: #e41a1c; stroke: #ffffff; stroke-width: 1.959592"/>
    <path d="M 932.498305 670.554177 
L 938.622029 664.430453 
L 944.745754 670.554177 
L 950.869478 664.430453 
L 944.745754 658.306729 
L 950.869478 652.183004 
L 944.745754 646.05928 
L 938.622029 652.183004 
L 932.498305 646.05928 
L 926.37458 652.183004 
L 932.498305 658.306729 
L 926.37458 664.430453 
z
" clip-path="url(#pb57c614772)" style="fill: #e41a1c; stroke: #ffffff; stroke-width: 1.959592"/>
    <path d="M 1021.152988 789.133852 
L 1027.276712 783.010128 
L 1033.400437 789.133852 
L 1039.524161 783.010128 
L 1033.400437 776.886403 
L 1039.524161 770.762679 
L 1033.400437 764.638954 
L 1027.276712 770.762679 
L 1021.152988 764.638954 
L 1015.029263 770.762679 
L 1021.152988 776.886403 
L 1015.029263 783.010128 
z
" clip-path="url(#pb57c614772)" style="fill: #e41a1c; stroke: #ffffff; stroke-width: 1.959592"/>
    <path d="M 998.783865 832.487379 
L 1004.907589 826.363654 
L 1011.031313 832.487379 
L 1017.155038 826.363654 
L 1011.031313 820.23993 
L 1017.155038 814.116206 
L 1011.031313 807.992481 
L 1004.907589 814.116206 
L 998.783865 807.992481 
L 992.66014 814.116206 
L 998.783865 820.23993 
L 992.66014 826.363654 
z
" clip-path="url(#pb57c614772)" style="fill: #e41a1c; stroke: #ffffff; stroke-width: 1.959592"/>
    <path d="M 1005.501696 861.285476 
L 1011.62542 855.161751 
L 1017.749145 861.285476 
L 1023.872869 855.161751 
L 1017.749145 849.038027 
L 1023.872869 842.914303 
L 1017.749145 836.790578 
L 1011.62542 842.914303 
L 1005.501696 836.790578 
L 999.377972 842.914303 
L 1005.501696 849.038027 
L 999.377972 855.161751 
z
" clip-path="url(#pb57c614772)" style="fill: #e41a1c; stroke: #ffffff; stroke-width: 1.959592"/>
    <path d="M 1027.381524 804.943938 
L 1033.505249 798.820213 
L 1039.628973 804.943938 
L 1045.752697 798.820213 
L 1039.628973 792.696489 
L 1045.752697 786.572765 
L 1039.628973 780.44904 
L 1033.505249 786.572765 
L 1027.381524 780.44904 
L 1021.2578 786.572765 
L 1027.381524 792.696489 
L 1021.2578 798.820213 
z
" clip-path="url(#pb57c614772)" style="fill: #e41a1c; stroke: #ffffff; stroke-width: 1.959592"/>
    <path d="M 964.888176 824.04991 
L 971.011901 817.926186 
L 977.135625 824.04991 
L 983.259349 817.926186 
L 977.135625 811.802461 
L 983.259349 805.678737 
L 977.135625 799.555013 
L 971.011901 805.678737 
L 964.888176 799.555013 
L 958.764452 805.678737 
L 964.888176 811.802461 
L 958.764452 817.926186 
z
" clip-path="url(#pb57c614772)" style="fill: #e41a1c; stroke: #ffffff; stroke-width: 1.959592"/>
    <path d="M 974.733009 781.344739 
L 980.856733 775.221014 
L 986.980458 781.344739 
L 993.104182 775.221014 
L 986.980458 769.09729 
L 993.104182 762.973566 
L 986.980458 756.849841 
L 980.856733 762.973566 
L 974.733009 756.849841 
L 968.609284 762.973566 
L 974.733009 769.09729 
L 968.609284 775.221014 
z
" clip-path="url(#pb57c614772)" style="fill: #e41a1c; stroke: #ffffff; stroke-width: 1.959592"/>
    <path d="M 947.876402 672.721603 
L 954.000126 666.597879 
L 960.123851 672.721603 
L 966.247575 666.597879 
L 960.123851 660.474154 
L 966.247575 654.35043 
L 960.123851 648.226706 
L 954.000126 654.35043 
L 947.876402 648.226706 
L 941.752677 654.35043 
L 947.876402 660.474154 
L 941.752677 666.597879 
z
" clip-path="url(#pb57c614772)" style="fill: #e41a1c; stroke: #ffffff; stroke-width: 1.959592"/>
    <path d="M 949.047298 776.747823 
L 955.171023 770.624098 
L 961.294747 776.747823 
L 967.418471 770.624098 
L 961.294747 764.500374 
L 967.418471 758.376649 
L 961.294747 752.252925 
L 955.171023 758.376649 
L 949.047298 752.252925 
L 942.923574 758.376649 
L 949.047298 764.500374 
L 942.923574 770.624098 
z
" clip-path="url(#pb57c614772)" style="fill: #e41a1c; stroke: #ffffff; stroke-width: 1.959592"/>
    <path d="M 1030.389406 943.990782 
L 1036.513131 937.867057 
L 1042.636855 943.990782 
L 1048.76058 937.867057 
L 1042.636855 931.743333 
L 1048.76058 925.619609 
L 1042.636855 919.495884 
L 1036.513131 925.619609 
L 1030.389406 919.495884 
L 1024.265682 925.619609 
L 1030.389406 931.743333 
L 1024.265682 937.867057 
z
" clip-path="url(#pb57c614772)" style="fill: #377eb8; stroke: #ffffff; stroke-width: 1.959592"/>
    <path d="M 1016.471655 821.784306 
L 1022.595379 815.660582 
L 1028.719103 821.784306 
L 1034.842828 815.660582 
L 1028.719103 809.536857 
L 1034.842828 803.413133 
L 1028.719103 797.289409 
L 1022.595379 803.413133 
L 1016.471655 797.289409 
L 1010.34793 803.413133 
L 1016.471655 809.536857 
L 1010.34793 815.660582 
z
" clip-path="url(#pb57c614772)" style="fill: #377eb8; stroke: #ffffff; stroke-width: 1.959592"/>
    <path d="M 975.162469 871.731096 
L 981.286193 865.607372 
L 987.409918 871.731096 
L 993.533642 865.607372 
L 987.409918 859.483647 
L 993.533642 853.359923 
L 987.409918 847.236199 
L 981.286193 853.359923 
L 975.162469 847.236199 
L 969.038744 853.359923 
L 975.162469 859.483647 
L 969.038744 865.607372 
z
" clip-path="url(#pb57c614772)" style="fill: #377eb8; stroke: #ffffff; stroke-width: 1.959592"/>
    <path d="M 952.322654 841.423289 
L 958.446378 835.299565 
L 964.570103 841.423289 
L 970.693827 835.299565 
L 964.570103 829.17584 
L 970.693827 823.052116 
L 964.570103 816.928392 
L 958.446378 823.052116 
L 952.322654 816.928392 
L 946.19893 823.052116 
L 952.322654 829.17584 
L 946.19893 835.299565 
z
" clip-path="url(#pb57c614772)" style="fill: #377eb8; stroke: #ffffff; stroke-width: 1.959592"/>
    <path d="M 971.280941 947.963295 
L 977.404666 941.83957 
L 983.52839 947.963295 
L 989.652114 941.83957 
L 983.52839 935.715846 
L 989.652114 929.592121 
L 983.52839 923.468397 
L 977.404666 929.592121 
L 971.280941 923.468397 
L 965.157217 929.592121 
L 971.280941 935.715846 
L 965.157217 941.83957 
z
" clip-path="url(#pb57c614772)" style="fill: #377eb8; stroke: #ffffff; stroke-width: 1.959592"/>
    <path d="M 980.36717 934.097376 
L 986.490894 927.973652 
L 992.614618 934.097376 
L 998.738343 927.973652 
L 992.614618 921.849927 
L 998.738343 915.726203 
L 992.614618 909.602478 
L 986.490894 915.726203 
L 980.36717 909.602478 
L 974.243445 915.726203 
L 980.36717 921.849927 
L 974.243445 927.973652 
z
" clip-path="url(#pb57c614772)" style="fill: #377eb8; stroke: #ffffff; stroke-width: 1.959592"/>
    <path d="M 973.59649 851.611656 
L 979.720215 845.487931 
L 985.843939 851.611656 
L 991.967663 845.487931 
L 985.843939 839.364207 
L 991.967663 833.240483 
L 985.843939 827.116758 
L 979.720215 833.240483 
L 973.59649 827.116758 
L 967.472766 833.240483 
L 973.59649 839.364207 
L 967.472766 845.487931 
z
" clip-path="url(#pb57c614772)" style="fill: #377eb8; stroke: #ffffff; stroke-width: 1.959592"/>
    <path d="M 976.750503 898.700504 
L 982.874227 892.576779 
L 988.997952 898.700504 
L 995.121676 892.576779 
L 988.997952 886.453055 
L 995.121676 880.329331 
L 988.997952 874.205606 
L 982.874227 880.329331 
L 976.750503 874.205606 
L 970.626779 880.329331 
L 976.750503 886.453055 
L 970.626779 892.576779 
z
" clip-path="url(#pb57c614772)" style="fill: #377eb8; stroke: #ffffff; stroke-width: 1.959592"/>
    <path d="M 969.677049 902.848048 
L 975.800774 896.724324 
L 981.924498 902.848048 
L 988.048222 896.724324 
L 981.924498 890.600599 
L 988.048222 884.476875 
L 981.924498 878.353151 
L 975.800774 884.476875 
L 969.677049 878.353151 
L 963.553325 884.476875 
L 969.677049 890.600599 
L 963.553325 896.724324 
z
" clip-path="url(#pb57c614772)" style="fill: #377eb8; stroke: #ffffff; stroke-width: 1.959592"/>
    <path d="M 1011.68246 789.698629 
L 1017.806184 783.574904 
L 1023.929909 789.698629 
L 1030.053633 783.574904 
L 1023.929909 777.45118 
L 1030.053633 771.327456 
L 1023.929909 765.203731 
L 1017.806184 771.327456 
L 1011.68246 765.203731 
L 1005.558736 771.327456 
L 1011.68246 777.45118 
L 1005.558736 783.574904 
z
" clip-path="url(#pb57c614772)" style="fill: #377eb8; stroke: #ffffff; stroke-width: 1.959592"/>
    <path d="M 1025.741297 822.296552 
L 1031.865022 816.172828 
L 1037.988746 822.296552 
L 1044.11247 816.172828 
L 1037.988746 810.049103 
L 1044.11247 803.925379 
L 1037.988746 797.801655 
L 1031.865022 803.925379 
L 1025.741297 797.801655 
L 1019.617573 803.925379 
L 1025.741297 810.049103 
L 1019.617573 816.172828 
z
" clip-path="url(#pb57c614772)" style="fill: #377eb8; stroke: #ffffff; stroke-width: 1.959592"/>
    <path d="M 1022.798285 799.995351 
L 1028.922009 793.871627 
L 1035.045734 799.995351 
L 1041.169458 793.871627 
L 1035.045734 787.747903 
L 1041.169458 781.624178 
L 1035.045734 775.500454 
L 1028.922009 781.624178 
L 1022.798285 775.500454 
L 1016.674561 781.624178 
L 1022.798285 787.747903 
L 1016.674561 793.871627 
z
" clip-path="url(#pb57c614772)" style="fill: #377eb8; stroke: #ffffff; stroke-width: 1.959592"/>
    <path d="M 1013.238689 730.497002 
L 1019.362413 724.373277 
L 1025.486138 730.497002 
L 1031.609862 724.373277 
L 1025.486138 718.249553 
L 1031.609862 712.125828 
L 1025.486138 706.002104 
L 1019.362413 712.125828 
L 1013.238689 706.002104 
L 1007.114964 712.125828 
L 1013.238689 718.249553 
L 1007.114964 724.373277 
z
" clip-path="url(#pb57c614772)" style="fill: #4daf4a; stroke: #ffffff; stroke-width: 1.959592"/>
    <path d="M 992.827076 853.683033 
L 998.9508 847.559309 
L 1005.074525 853.683033 
L 1011.198249 847.559309 
L 1005.074525 841.435584 
L 1011.198249 835.31186 
L 1005.074525 829.188136 
L 998.9508 835.31186 
L 992.827076 829.188136 
L 986.703352 835.31186 
L 992.827076 841.435584 
L 986.703352 847.559309 
z
" clip-path="url(#pb57c614772)" style="fill: #4daf4a; stroke: #ffffff; stroke-width: 1.959592"/>
    <path d="M 998.385588 841.177594 
L 1004.509313 835.05387 
L 1010.633037 841.177594 
L 1016.756761 835.05387 
L 1010.633037 828.930146 
L 1016.756761 822.806421 
L 1010.633037 816.682697 
L 1004.509313 822.806421 
L 998.385588 816.682697 
L 992.261864 822.806421 
L 998.385588 828.930146 
L 992.261864 835.05387 
z
" clip-path="url(#pb57c614772)" style="fill: #4daf4a; stroke: #ffffff; stroke-width: 1.959592"/>
    <path d="M 974.813116 863.211508 
L 980.93684 857.087783 
L 987.060564 863.211508 
L 993.184289 857.087783 
L 987.060564 850.964059 
L 993.184289 844.840334 
L 987.060564 838.71661 
L 980.93684 844.840334 
L 974.813116 838.71661 
L 968.689391 844.840334 
L 974.813116 850.964059 
L 968.689391 857.087783 
z
" clip-path="url(#pb57c614772)" style="fill: #4daf4a; stroke: #ffffff; stroke-width: 1.959592"/>
    <path d="M 1012.065512 730.005968 
L 1018.189236 723.882243 
L 1024.312961 730.005968 
L 1030.436685 723.882243 
L 1024.312961 717.758519 
L 1030.436685 711.634795 
L 1024.312961 705.51107 
L 1018.189236 711.634795 
L 1012.065512 705.51107 
L 1005.941788 711.634795 
L 1012.065512 717.758519 
L 1005.941788 723.882243 
z
" clip-path="url(#pb57c614772)" style="fill: #4daf4a; stroke: #ffffff; stroke-width: 1.959592"/>
    <path d="M 1000.68086 798.267785 
L 1006.804585 792.14406 
L 1012.928309 798.267785 
L 1019.052033 792.14406 
L 1012.928309 786.020336 
L 1019.052033 779.896612 
L 1012.928309 773.772887 
L 1006.804585 779.896612 
L 1000.68086 773.772887 
L 994.557136 779.896612 
L 1000.68086 786.020336 
L 994.557136 792.14406 
z
" clip-path="url(#pb57c614772)" style="fill: #4daf4a; stroke: #ffffff; stroke-width: 1.959592"/>
    <path d="M 922.01953 780.030222 
L 928.143255 773.906498 
L 934.266979 780.030222 
L 940.390703 773.906498 
L 934.266979 767.782773 
L 940.390703 761.659049 
L 934.266979 755.535325 
L 928.143255 761.659049 
L 922.01953 755.535325 
L 915.895806 761.659049 
L 922.01953 767.782773 
L 915.895806 773.906498 
z
" clip-path="url(#pb57c614772)" style="fill: #4daf4a; stroke: #ffffff; stroke-width: 1.959592"/>
    <path d="M 977.61707 782.018586 
L 983.740794 775.894862 
L 989.864519 782.018586 
L 995.988243 775.894862 
L 989.864519 769.771138 
L 995.988243 763.647413 
L 989.864519 757.523689 
L 983.740794 763.647413 
L 977.61707 757.523689 
L 971.493345 763.647413 
L 977.61707 769.771138 
L 971.493345 775.894862 
z
" clip-path="url(#pb57c614772)" style="fill: #4daf4a; stroke: #ffffff; stroke-width: 1.959592"/>
    <path d="M 970.714061 838.574787 
L 976.837785 832.451063 
L 982.961509 838.574787 
L 989.085234 832.451063 
L 982.961509 826.327339 
L 989.085234 820.203614 
L 982.961509 814.07989 
L 976.837785 820.203614 
L 970.714061 814.07989 
L 964.590336 820.203614 
L 970.714061 826.327339 
L 964.590336 832.451063 
z
" clip-path="url(#pb57c614772)" style="fill: #4daf4a; stroke: #ffffff; stroke-width: 1.959592"/>
    <path d="M 899.632913 799.927023 
L 905.756637 793.803298 
L 911.880361 799.927023 
L 918.004086 793.803298 
L 911.880361 787.679574 
L 918.004086 781.55585 
L 911.880361 775.432125 
L 905.756637 781.55585 
L 899.632913 775.432125 
L 893.509188 781.55585 
L 899.632913 787.679574 
L 893.509188 793.803298 
z
" clip-path="url(#pb57c614772)" style="fill: #4daf4a; stroke: #ffffff; stroke-width: 1.959592"/>
    <path d="M 936.564853 857.748628 
L 942.688577 851.624904 
L 948.812302 857.748628 
L 954.936026 851.624904 
L 948.812302 845.501179 
L 954.936026 839.377455 
L 948.812302 833.253731 
L 942.688577 839.377455 
L 936.564853 833.253731 
L 930.441129 839.377455 
L 936.564853 845.501179 
L 930.441129 851.624904 
z
" clip-path="url(#pb57c614772)" style="fill: #4daf4a; stroke: #ffffff; stroke-width: 1.959592"/>
    <path d="M 940.179755 843.52855 
L 946.303479 837.404826 
L 952.427204 843.52855 
L 958.550928 837.404826 
L 952.427204 831.281102 
L 958.550928 825.157377 
L 952.427204 819.033653 
L 946.303479 825.157377 
L 940.179755 819.033653 
L 934.056031 825.157377 
L 940.179755 831.281102 
L 934.056031 837.404826 
z
" clip-path="url(#pb57c614772)" style="fill: #4daf4a; stroke: #ffffff; stroke-width: 1.959592"/>
    <path d="M 599.291996 877.047348 
L 599.291996 894.367856 
L 616.612504 894.367856 
L 616.612504 877.047348 
z
" clip-path="url(#pb57c614772)" style="fill: #e41a1c; stroke: #ffffff; stroke-width: 1.959592"/>
    <path d="M 437.794019 349.859484 
L 437.794019 367.179992 
L 455.114527 367.179992 
L 455.114527 349.859484 
z
" clip-path="url(#pb57c614772)" style="fill: #e41a1c; stroke: #ffffff; stroke-width: 1.959592"/>
    <path d="M 419.231323 543.96423 
L 419.231323 561.284738 
L 436.551831 561.284738 
L 436.551831 543.96423 
z
" clip-path="url(#pb57c614772)" style="fill: #e41a1c; stroke: #ffffff; stroke-width: 1.959592"/>
    <path d="M 136.996534 47.957928 
L 136.996534 65.278436 
L 154.317042 65.278436 
L 154.317042 47.957928 
z
" clip-path="url(#pb57c614772)" style="fill: #e41a1c; stroke: #ffffff; stroke-width: 1.959592"/>
    <path d="M 381.040631 988.69401 
L 381.040631 1006.014518 
L 398.361139 1006.014518 
L 398.361139 988.69401 
z
" clip-path="url(#pb57c614772)" style="fill: #e41a1c; stroke: #ffffff; stroke-width: 1.959592"/>
    <path d="M 647.447455 823.798389 
L 647.447455 841.118897 
L 664.767963 841.118897 
L 664.767963 823.798389 
z
" clip-path="url(#pb57c614772)" style="fill: #e41a1c; stroke: #ffffff; stroke-width: 1.959592"/>
    <path d="M 640.963045 842.941841 
L 640.963045 860.262349 
L 658.283553 860.262349 
L 658.283553 842.941841 
z
" clip-path="url(#pb57c614772)" style="fill: #e41a1c; stroke: #ffffff; stroke-width: 1.959592"/>
    <path d="M 666.305527 925.660321 
L 666.305527 942.980829 
L 683.626035 942.980829 
L 683.626035 925.660321 
z
" clip-path="url(#pb57c614772)" style="fill: #e41a1c; stroke: #ffffff; stroke-width: 1.959592"/>
    <path d="M 473.129224 744.672508 
L 473.129224 761.993016 
L 490.449732 761.993016 
L 490.449732 744.672508 
z
" clip-path="url(#pb57c614772)" style="fill: #e41a1c; stroke: #ffffff; stroke-width: 1.959592"/>
    <path d="M 690.503834 583.377024 
L 690.503834 600.697533 
L 707.824342 600.697533 
L 707.824342 583.377024 
z
" clip-path="url(#pb57c614772)" style="fill: #e41a1c; stroke: #ffffff; stroke-width: 1.959592"/>
    <path d="M 396.908098 434.058425 
L 396.908098 451.378933 
L 414.228606 451.378933 
L 414.228606 434.058425 
z
" clip-path="url(#pb57c614772)" style="fill: #e41a1c; stroke: #ffffff; stroke-width: 1.959592"/>
    <path d="M 714.88304 567.756109 
L 714.88304 585.076617 
L 732.203549 585.076617 
L 732.203549 567.756109 
z
" clip-path="url(#pb57c614772)" style="fill: #e41a1c; stroke: #ffffff; stroke-width: 1.959592"/>
    <path d="M 913.545867 777.339505 
L 913.545867 794.660013 
L 930.866375 794.660013 
L 930.866375 777.339505 
z
" clip-path="url(#pb57c614772)" style="fill: #377eb8; stroke: #ffffff; stroke-width: 1.959592"/>
    <path d="M 709.470423 920.119663 
L 709.470423 937.440171 
L 726.790931 937.440171 
L 726.790931 920.119663 
z
" clip-path="url(#pb57c614772)" style="fill: #377eb8; stroke: #ffffff; stroke-width: 1.959592"/>
    <path d="M 806.337329 881.300581 
L 806.337329 898.621089 
L 823.657837 898.621089 
L 823.657837 881.300581 
z
" clip-path="url(#pb57c614772)" style="fill: #377eb8; stroke: #ffffff; stroke-width: 1.959592"/>
    <path d="M 738.47565 813.006145 
L 738.47565 830.326653 
L 755.796158 830.326653 
L 755.796158 813.006145 
z
" clip-path="url(#pb57c614772)" style="fill: #377eb8; stroke: #ffffff; stroke-width: 1.959592"/>
    <path d="M 483.946126 804.128249 
L 483.946126 821.448757 
L 501.266634 821.448757 
L 501.266634 804.128249 
z
" clip-path="url(#pb57c614772)" style="fill: #377eb8; stroke: #ffffff; stroke-width: 1.959592"/>
    <path d="M 764.19697 774.797649 
L 764.19697 792.118157 
L 781.517478 792.118157 
L 781.517478 774.797649 
z
" clip-path="url(#pb57c614772)" style="fill: #377eb8; stroke: #ffffff; stroke-width: 1.959592"/>
    <path d="M 673.439969 807.357547 
L 673.439969 824.678055 
L 690.760477 824.678055 
L 690.760477 807.357547 
z
" clip-path="url(#pb57c614772)" style="fill: #377eb8; stroke: #ffffff; stroke-width: 1.959592"/>
    <path d="M 724.853474 857.375706 
L 724.853474 874.696214 
L 742.173982 874.696214 
L 742.173982 857.375706 
z
" clip-path="url(#pb57c614772)" style="fill: #377eb8; stroke: #ffffff; stroke-width: 1.959592"/>
    <path d="M 773.252788 931.898496 
L 773.252788 949.219004 
L 790.573296 949.219004 
L 790.573296 931.898496 
z
" clip-path="url(#pb57c614772)" style="fill: #377eb8; stroke: #ffffff; stroke-width: 1.959592"/>
    <path d="M 770.922178 775.97868 
L 770.922178 793.299188 
L 788.242686 793.299188 
L 788.242686 775.97868 
z
" clip-path="url(#pb57c614772)" style="fill: #377eb8; stroke: #ffffff; stroke-width: 1.959592"/>
    <path d="M 572.112021 764.920622 
L 572.112021 782.24113 
L 589.432529 782.24113 
L 589.432529 764.920622 
z
" clip-path="url(#pb57c614772)" style="fill: #377eb8; stroke: #ffffff; stroke-width: 1.959592"/>
    <path d="M 858.67377 864.552894 
L 858.67377 881.873402 
L 875.994278 881.873402 
L 875.994278 864.552894 
z
" clip-path="url(#pb57c614772)" style="fill: #377eb8; stroke: #ffffff; stroke-width: 1.959592"/>
    <path d="M 862.225903 828.215739 
L 862.225903 845.536247 
L 879.546411 845.536247 
L 879.546411 828.215739 
z
" clip-path="url(#pb57c614772)" style="fill: #4daf4a; stroke: #ffffff; stroke-width: 1.959592"/>
    <path d="M 735.408475 829.584137 
L 735.408475 846.904645 
L 752.728983 846.904645 
L 752.728983 829.584137 
z
" clip-path="url(#pb57c614772)" style="fill: #4daf4a; stroke: #ffffff; stroke-width: 1.959592"/>
    <path d="M 631.190125 874.387443 
L 631.190125 891.707951 
L 648.510633 891.707951 
L 648.510633 874.387443 
z
" clip-path="url(#pb57c614772)" style="fill: #4daf4a; stroke: #ffffff; stroke-width: 1.959592"/>
    <path d="M 545.493827 1036.321564 
L 545.493827 1053.642072 
L 562.814335 1053.642072 
L 562.814335 1036.321564 
z
" clip-path="url(#pb57c614772)" style="fill: #4daf4a; stroke: #ffffff; stroke-width: 1.959592"/>
    <path d="M 641.178076 677.509124 
L 641.178076 694.829632 
L 658.498585 694.829632 
L 658.498585 677.509124 
z
" clip-path="url(#pb57c614772)" style="fill: #4daf4a; stroke: #ffffff; stroke-width: 1.959592"/>
    <path d="M 749.320199 732.146116 
L 749.320199 749.466624 
L 766.640707 749.466624 
L 766.640707 732.146116 
z
" clip-path="url(#pb57c614772)" style="fill: #4daf4a; stroke: #ffffff; stroke-width: 1.959592"/>
    <path d="M 756.032973 699.912083 
L 756.032973 717.232591 
L 773.353481 717.232591 
L 773.353481 699.912083 
z
" clip-path="url(#pb57c614772)" style="fill: #4daf4a; stroke: #ffffff; stroke-width: 1.959592"/>
    <path d="M 810.736978 660.122402 
L 810.736978 677.44291 
L 828.057486 677.44291 
L 828.057486 660.122402 
z
" clip-path="url(#pb57c614772)" style="fill: #4daf4a; stroke: #ffffff; stroke-width: 1.959592"/>
    <path d="M 780.366127 773.891155 
L 780.366127 791.211663 
L 797.686635 791.211663 
L 797.686635 773.891155 
z
" clip-path="url(#pb57c614772)" style="fill: #4daf4a; stroke: #ffffff; stroke-width: 1.959592"/>
    <path d="M 801.661926 880.080373 
L 801.661926 897.400881 
L 818.982435 897.400881 
L 818.982435 880.080373 
z
" clip-path="url(#pb57c614772)" style="fill: #4daf4a; stroke: #ffffff; stroke-width: 1.959592"/>
    <path d="M 613.533669 976.39189 
L 613.533669 993.712398 
L 630.854178 993.712398 
L 630.854178 976.39189 
z
" clip-path="url(#pb57c614772)" style="fill: #4daf4a; stroke: #ffffff; stroke-width: 1.959592"/>
    <path d="M 806.008608 768.670167 
L 806.008608 785.990675 
L 823.329116 785.990675 
L 823.329116 768.670167 
z
" clip-path="url(#pb57c614772)" style="fill: #4daf4a; stroke: #ffffff; stroke-width: 1.959592"/>
   </g>
   <g id="PathCollection_2"/>
   <g id="PathCollection_3"/>
   <g id="PathCollection_4"/>
   <g id="PathCollection_5"/>
   <g id="PathCollection_6"/>
   <g id="PathCollection_7"/>
   <g id="line2d_15">
    <path d="M 882.679278 985.68 
L 882.679278 333.36 
" clip-path="url(#pb57c614772)" style="fill: none; stroke-dasharray: 18.5,8; stroke-dashoffset: 0; stroke: #000000; stroke-width: 5"/>
   </g>
   <g id="line2d_16">
    <path d="M 1061.603666 985.68 
L 1061.603666 333.36 
" clip-path="url(#pb57c614772)" style="fill: none; stroke-dasharray: 18.5,8; stroke-dashoffset: 0; stroke: #000000; stroke-width: 5"/>
   </g>
   <g id="patch_3">
    <path d="M 94.929516 1094.4 
L 94.929516 7.2 
" style="fill: none; stroke: #ffffff; stroke-width: 1.25; stroke-linejoin: miter; stroke-linecap: square"/>
   </g>
   <g id="patch_4">
    <path d="M 1210.929516 1094.4 
L 1210.929516 7.2 
" style="fill: none; stroke: #ffffff; stroke-width: 1.25; stroke-linejoin: miter; stroke-linecap: square"/>
   </g>
   <g id="patch_5">
    <path d="M 94.929516 1094.4 
L 1210.929516 1094.4 
" style="fill: none; stroke: #ffffff; stroke-width: 1.25; stroke-linejoin: miter; stroke-linecap: square"/>
   </g>
   <g id="patch_6">
    <path d="M 94.929516 7.2 
L 1210.929516 7.2 
" style="fill: none; stroke: #ffffff; stroke-width: 1.25; stroke-linejoin: miter; stroke-linecap: square"/>
   </g>
   <g id="text_17">
    <!-- PCA0=0 -->
    <g transform="translate(758.471242 383.503928)scale(0.3 -0.3)">
     <defs>
      <path id="TimesNewRomanPSMT-3d" d="M 116 2759 
L 3488 2759 
L 3488 2503 
L 116 2503 
L 116 2759 
z
M 116 1741 
L 3488 1741 
L 3488 1484 
L 116 1484 
L 116 1741 
z
" transform="scale(0.015625)"/>
     </defs>
     <use xlink:href="#TimesNewRomanPSMT-50"/>
     <use xlink:href="#TimesNewRomanPSMT-43" x="55.615234"/>
     <use xlink:href="#TimesNewRomanPSMT-41" x="122.314453"/>
     <use xlink:href="#TimesNewRomanPSMT-30" x="194.53125"/>
     <use xlink:href="#TimesNewRomanPSMT-3d" x="244.53125"/>
     <use xlink:href="#TimesNewRomanPSMT-30" x="300.927734"/>
    </g>
   </g>
   <g id="text_18">
    <!-- PCA0=2 -->
    <g transform="translate(937.395629 383.503928)scale(0.3 -0.3)">
     <use xlink:href="#TimesNewRomanPSMT-50"/>
     <use xlink:href="#TimesNewRomanPSMT-43" x="55.615234"/>
     <use xlink:href="#TimesNewRomanPSMT-41" x="122.314453"/>
     <use xlink:href="#TimesNewRomanPSMT-30" x="194.53125"/>
     <use xlink:href="#TimesNewRomanPSMT-3d" x="244.53125"/>
     <use xlink:href="#TimesNewRomanPSMT-32" x="300.927734"/>
    </g>
   </g>
   <g id="text_19">
    <!-- W-H10 -->
    <g transform="translate(394.933179 342.079794)scale(0.35 -0.35)">
     <defs>
      <path id="TimesNewRomanPSMT-57" d="M 5991 4238 
L 5991 4122 
Q 5825 4122 5722 4062 
Q 5619 4003 5525 3841 
Q 5463 3731 5328 3319 
L 4147 -97 
L 4022 -97 
L 3056 2613 
L 2097 -97 
L 1984 -97 
L 725 3422 
Q 584 3816 547 3888 
Q 484 4006 376 4064 
Q 269 4122 84 4122 
L 84 4238 
L 1653 4238 
L 1653 4122 
L 1578 4122 
Q 1413 4122 1325 4047 
Q 1238 3972 1238 3866 
Q 1238 3756 1375 3363 
L 2209 984 
L 2913 3006 
L 2788 3363 
L 2688 3647 
Q 2622 3803 2541 3922 
Q 2500 3981 2441 4022 
Q 2363 4078 2284 4103 
Q 2225 4122 2097 4122 
L 2097 4238 
L 3747 4238 
L 3747 4122 
L 3634 4122 
Q 3459 4122 3378 4047 
Q 3297 3972 3297 3844 
Q 3297 3684 3438 3288 
L 4250 984 
L 5056 3319 
Q 5194 3706 5194 3856 
Q 5194 3928 5148 3990 
Q 5103 4053 5034 4078 
Q 4916 4122 4725 4122 
L 4725 4238 
L 5991 4238 
z
" transform="scale(0.015625)"/>
      <path id="TimesNewRomanPSMT-48" d="M 1316 2272 
L 3284 2272 
L 3284 3484 
Q 3284 3809 3244 3913 
Q 3213 3991 3113 4047 
Q 2978 4122 2828 4122 
L 2678 4122 
L 2678 4238 
L 4491 4238 
L 4491 4122 
L 4341 4122 
Q 4191 4122 4056 4050 
Q 3956 4000 3920 3898 
Q 3884 3797 3884 3484 
L 3884 750 
Q 3884 428 3925 325 
Q 3956 247 4053 191 
Q 4191 116 4341 116 
L 4491 116 
L 4491 0 
L 2678 0 
L 2678 116 
L 2828 116 
Q 3088 116 3206 269 
Q 3284 369 3284 750 
L 3284 2041 
L 1316 2041 
L 1316 750 
Q 1316 428 1356 325 
Q 1388 247 1488 191 
Q 1622 116 1772 116 
L 1925 116 
L 1925 0 
L 109 0 
L 109 116 
L 259 116 
Q 522 116 641 269 
Q 716 369 716 750 
L 716 3484 
Q 716 3809 675 3913 
Q 644 3991 547 4047 
Q 409 4122 259 4122 
L 109 4122 
L 109 4238 
L 1925 4238 
L 1925 4122 
L 1772 4122 
Q 1622 4122 1488 4050 
Q 1391 4000 1353 3898 
Q 1316 3797 1316 3484 
L 1316 2272 
z
" transform="scale(0.015625)"/>
     </defs>
     <use xlink:href="#TimesNewRomanPSMT-57"/>
     <use xlink:href="#TimesNewRomanPSMT-2d" x="88.884766"/>
     <use xlink:href="#TimesNewRomanPSMT-48" x="122.185547"/>
     <use xlink:href="#TimesNewRomanPSMT-31" x="194.402344"/>
     <use xlink:href="#TimesNewRomanPSMT-30" x="244.402344"/>
    </g>
   </g>
   <g id="text_20">
    <!-- W-H11 -->
    <g transform="translate(377.026734 536.18454)scale(0.35 -0.35)">
     <use xlink:href="#TimesNewRomanPSMT-57"/>
     <use xlink:href="#TimesNewRomanPSMT-2d" x="88.884766"/>
     <use xlink:href="#TimesNewRomanPSMT-48" x="122.185547"/>
     <use xlink:href="#TimesNewRomanPSMT-31" x="194.402344"/>
     <use xlink:href="#TimesNewRomanPSMT-31" x="240.652344"/>
    </g>
   </g>
   <g id="text_21">
    <!-- W-H12 -->
    <g transform="translate(94.135695 40.178237)scale(0.35 -0.35)">
     <use xlink:href="#TimesNewRomanPSMT-57"/>
     <use xlink:href="#TimesNewRomanPSMT-2d" x="88.884766"/>
     <use xlink:href="#TimesNewRomanPSMT-48" x="122.185547"/>
     <use xlink:href="#TimesNewRomanPSMT-31" x="194.402344"/>
     <use xlink:href="#TimesNewRomanPSMT-32" x="244.402344"/>
    </g>
   </g>
   <g id="text_22">
    <!-- W-H2 -->
    <g transform="translate(346.929791 980.91432)scale(0.35 -0.35)">
     <use xlink:href="#TimesNewRomanPSMT-57"/>
     <use xlink:href="#TimesNewRomanPSMT-2d" x="88.884766"/>
     <use xlink:href="#TimesNewRomanPSMT-48" x="122.185547"/>
     <use xlink:href="#TimesNewRomanPSMT-32" x="194.402344"/>
    </g>
   </g>
   <g id="text_23">
    <!-- W-H8 -->
    <g transform="translate(362.797258 426.278735)scale(0.35 -0.35)">
     <use xlink:href="#TimesNewRomanPSMT-57"/>
     <use xlink:href="#TimesNewRomanPSMT-2d" x="88.884766"/>
     <use xlink:href="#TimesNewRomanPSMT-48" x="122.185547"/>
     <use xlink:href="#TimesNewRomanPSMT-38" x="194.402344"/>
    </g>
   </g>
   <g id="legend_1">
    <g id="patch_7">
     <path d="M 266.33357 1432.826 
L 1039.525461 1432.826 
Q 1047.665461 1432.826 1047.665461 1424.686 
L 1047.665461 1198.49575 
Q 1047.665461 1190.35575 1039.525461 1190.35575 
L 266.33357 1190.35575 
Q 258.19357 1190.35575 258.19357 1198.49575 
L 258.19357 1424.686 
Q 258.19357 1432.826 266.33357 1432.826 
z
" style="fill: #eaeaf2; opacity: 0.8; stroke: #cccccc; stroke-linejoin: miter"/>
    </g>
    <g id="text_24">
     <!-- River -->
     <g style="fill: #262626" transform="translate(388.43357 1235.12575)scale(0.407 -0.407)">
      <defs>
       <path id="TimesNewRomanPSMT-52" d="M 4325 0 
L 3194 0 
L 1759 1981 
Q 1600 1975 1500 1975 
Q 1459 1975 1412 1976 
Q 1366 1978 1316 1981 
L 1316 750 
Q 1316 350 1403 253 
Q 1522 116 1759 116 
L 1925 116 
L 1925 0 
L 109 0 
L 109 116 
L 269 116 
Q 538 116 653 291 
Q 719 388 719 750 
L 719 3488 
Q 719 3888 631 3984 
Q 509 4122 269 4122 
L 109 4122 
L 109 4238 
L 1653 4238 
Q 2328 4238 2648 4139 
Q 2969 4041 3192 3777 
Q 3416 3513 3416 3147 
Q 3416 2756 3161 2468 
Q 2906 2181 2372 2063 
L 3247 847 
Q 3547 428 3762 290 
Q 3978 153 4325 116 
L 4325 0 
z
M 1316 2178 
Q 1375 2178 1419 2176 
Q 1463 2175 1491 2175 
Q 2097 2175 2405 2437 
Q 2713 2700 2713 3106 
Q 2713 3503 2464 3751 
Q 2216 4000 1806 4000 
Q 1625 4000 1316 3941 
L 1316 2178 
z
" transform="scale(0.015625)"/>
       <path id="TimesNewRomanPSMT-69" d="M 928 4444 
Q 1059 4444 1151 4351 
Q 1244 4259 1244 4128 
Q 1244 3997 1151 3903 
Q 1059 3809 928 3809 
Q 797 3809 703 3903 
Q 609 3997 609 4128 
Q 609 4259 701 4351 
Q 794 4444 928 4444 
z
M 1188 2947 
L 1188 647 
Q 1188 378 1227 289 
Q 1266 200 1342 156 
Q 1419 113 1622 113 
L 1622 0 
L 231 0 
L 231 113 
Q 441 113 512 153 
Q 584 194 626 287 
Q 669 381 669 647 
L 669 1750 
Q 669 2216 641 2353 
Q 619 2453 572 2492 
Q 525 2531 444 2531 
Q 356 2531 231 2484 
L 188 2597 
L 1050 2947 
L 1188 2947 
z
" transform="scale(0.015625)"/>
       <path id="TimesNewRomanPSMT-76" d="M 53 2863 
L 1400 2863 
L 1400 2747 
L 1313 2747 
Q 1191 2747 1127 2687 
Q 1063 2628 1063 2528 
Q 1063 2419 1128 2269 
L 1794 688 
L 2463 2328 
Q 2534 2503 2534 2594 
Q 2534 2638 2509 2666 
Q 2475 2713 2422 2730 
Q 2369 2747 2206 2747 
L 2206 2863 
L 3141 2863 
L 3141 2747 
Q 2978 2734 2916 2681 
Q 2806 2588 2719 2369 
L 1703 -88 
L 1575 -88 
L 553 2328 
Q 484 2497 421 2570 
Q 359 2644 263 2694 
Q 209 2722 53 2747 
L 53 2863 
z
" transform="scale(0.015625)"/>
       <path id="TimesNewRomanPSMT-65" d="M 681 1784 
Q 678 1147 991 784 
Q 1303 422 1725 422 
Q 2006 422 2214 576 
Q 2422 731 2563 1106 
L 2659 1044 
Q 2594 616 2278 264 
Q 1963 -88 1488 -88 
Q 972 -88 605 314 
Q 238 716 238 1394 
Q 238 2128 614 2539 
Q 991 2950 1559 2950 
Q 2041 2950 2350 2633 
Q 2659 2316 2659 1784 
L 681 1784 
z
M 681 1966 
L 2006 1966 
Q 1991 2241 1941 2353 
Q 1863 2528 1708 2628 
Q 1553 2728 1384 2728 
Q 1125 2728 920 2526 
Q 716 2325 681 1966 
z
" transform="scale(0.015625)"/>
       <path id="TimesNewRomanPSMT-72" d="M 1038 2947 
L 1038 2303 
Q 1397 2947 1775 2947 
Q 1947 2947 2059 2842 
Q 2172 2738 2172 2600 
Q 2172 2478 2090 2393 
Q 2009 2309 1897 2309 
Q 1788 2309 1652 2417 
Q 1516 2525 1450 2525 
Q 1394 2525 1328 2463 
Q 1188 2334 1038 2041 
L 1038 669 
Q 1038 431 1097 309 
Q 1138 225 1241 169 
Q 1344 113 1538 113 
L 1538 0 
L 72 0 
L 72 113 
Q 291 113 397 181 
Q 475 231 506 341 
Q 522 394 522 644 
L 522 1753 
Q 522 2253 501 2348 
Q 481 2444 426 2487 
Q 372 2531 291 2531 
Q 194 2531 72 2484 
L 41 2597 
L 906 2947 
L 1038 2947 
z
" transform="scale(0.015625)"/>
      </defs>
      <use xlink:href="#TimesNewRomanPSMT-52"/>
      <use xlink:href="#TimesNewRomanPSMT-69" x="66.699219"/>
      <use xlink:href="#TimesNewRomanPSMT-76" x="94.482422"/>
      <use xlink:href="#TimesNewRomanPSMT-65" x="144.482422"/>
      <use xlink:href="#TimesNewRomanPSMT-72" x="188.867188"/>
     </g>
    </g>
    <g id="PathCollection_8">
     <defs>
      <path id="me23a7626b8" d="M 0 9 
C 2.386828 9 4.676219 8.051703 6.363961 6.363961 
C 8.051703 4.676219 9 2.386828 9 0 
C 9 -2.386828 8.051703 -4.676219 6.363961 -6.363961 
C 4.676219 -8.051703 2.386828 -9 0 -9 
C -2.386828 -9 -4.676219 -8.051703 -6.363961 -6.363961 
C -8.051703 -4.676219 -9 -2.386828 -9 0 
C -9 2.386828 -8.051703 4.676219 -6.363961 6.363961 
C -4.676219 8.051703 -2.386828 9 0 9 
z
" style="stroke: #e41a1c"/>
     </defs>
     <g>
      <use xlink:href="#me23a7626b8" x="315.17357" y="1281.987984" style="fill: #e41a1c; stroke: #e41a1c"/>
     </g>
    </g>
    <g id="text_25">
     <!-- Hangbu River -->
     <g style="fill: #262626" transform="translate(388.43357 1292.671734)scale(0.407 -0.407)">
      <defs>
       <path id="TimesNewRomanPSMT-61" d="M 1822 413 
Q 1381 72 1269 19 
Q 1100 -59 909 -59 
Q 613 -59 420 144 
Q 228 347 228 678 
Q 228 888 322 1041 
Q 450 1253 767 1440 
Q 1084 1628 1822 1897 
L 1822 2009 
Q 1822 2438 1686 2597 
Q 1550 2756 1291 2756 
Q 1094 2756 978 2650 
Q 859 2544 859 2406 
L 866 2225 
Q 866 2081 792 2003 
Q 719 1925 600 1925 
Q 484 1925 411 2006 
Q 338 2088 338 2228 
Q 338 2497 613 2722 
Q 888 2947 1384 2947 
Q 1766 2947 2009 2819 
Q 2194 2722 2281 2516 
Q 2338 2381 2338 1966 
L 2338 994 
Q 2338 584 2353 492 
Q 2369 400 2405 369 
Q 2441 338 2488 338 
Q 2538 338 2575 359 
Q 2641 400 2828 588 
L 2828 413 
Q 2478 -56 2159 -56 
Q 2006 -56 1915 50 
Q 1825 156 1822 413 
z
M 1822 616 
L 1822 1706 
Q 1350 1519 1213 1441 
Q 966 1303 859 1153 
Q 753 1003 753 825 
Q 753 600 887 451 
Q 1022 303 1197 303 
Q 1434 303 1822 616 
z
" transform="scale(0.015625)"/>
       <path id="TimesNewRomanPSMT-6e" d="M 1034 2341 
Q 1538 2947 1994 2947 
Q 2228 2947 2397 2830 
Q 2566 2713 2666 2444 
Q 2734 2256 2734 1869 
L 2734 647 
Q 2734 375 2778 278 
Q 2813 200 2889 156 
Q 2966 113 3172 113 
L 3172 0 
L 1756 0 
L 1756 113 
L 1816 113 
Q 2016 113 2095 173 
Q 2175 234 2206 353 
Q 2219 400 2219 647 
L 2219 1819 
Q 2219 2209 2117 2386 
Q 2016 2563 1775 2563 
Q 1403 2563 1034 2156 
L 1034 647 
Q 1034 356 1069 288 
Q 1113 197 1189 155 
Q 1266 113 1500 113 
L 1500 0 
L 84 0 
L 84 113 
L 147 113 
Q 366 113 442 223 
Q 519 334 519 647 
L 519 1709 
Q 519 2225 495 2337 
Q 472 2450 423 2490 
Q 375 2531 294 2531 
Q 206 2531 84 2484 
L 38 2597 
L 900 2947 
L 1034 2947 
L 1034 2341 
z
" transform="scale(0.015625)"/>
       <path id="TimesNewRomanPSMT-67" d="M 966 1044 
Q 703 1172 562 1401 
Q 422 1631 422 1909 
Q 422 2334 742 2640 
Q 1063 2947 1563 2947 
Q 1972 2947 2272 2747 
L 2878 2747 
Q 3013 2747 3034 2739 
Q 3056 2731 3066 2713 
Q 3084 2684 3084 2613 
Q 3084 2531 3069 2500 
Q 3059 2484 3036 2475 
Q 3013 2466 2878 2466 
L 2506 2466 
Q 2681 2241 2681 1891 
Q 2681 1491 2375 1206 
Q 2069 922 1553 922 
Q 1341 922 1119 984 
Q 981 866 932 777 
Q 884 688 884 625 
Q 884 572 936 522 
Q 988 472 1138 450 
Q 1225 438 1575 428 
Q 2219 413 2409 384 
Q 2700 344 2873 169 
Q 3047 -6 3047 -263 
Q 3047 -616 2716 -925 
Q 2228 -1381 1444 -1381 
Q 841 -1381 425 -1109 
Q 191 -953 191 -784 
Q 191 -709 225 -634 
Q 278 -519 444 -313 
Q 466 -284 763 25 
Q 600 122 533 198 
Q 466 275 466 372 
Q 466 481 555 628 
Q 644 775 966 1044 
z
M 1509 2797 
Q 1278 2797 1122 2612 
Q 966 2428 966 2047 
Q 966 1553 1178 1281 
Q 1341 1075 1591 1075 
Q 1828 1075 1981 1253 
Q 2134 1431 2134 1813 
Q 2134 2309 1919 2591 
Q 1759 2797 1509 2797 
z
M 934 0 
Q 788 -159 713 -296 
Q 638 -434 638 -550 
Q 638 -700 819 -813 
Q 1131 -1006 1722 -1006 
Q 2284 -1006 2551 -807 
Q 2819 -609 2819 -384 
Q 2819 -222 2659 -153 
Q 2497 -84 2016 -72 
Q 1313 -53 934 0 
z
" transform="scale(0.015625)"/>
       <path id="TimesNewRomanPSMT-62" d="M 984 2369 
Q 1400 2947 1881 2947 
Q 2322 2947 2650 2570 
Q 2978 2194 2978 1541 
Q 2978 778 2472 313 
Q 2038 -88 1503 -88 
Q 1253 -88 995 3 
Q 738 94 469 275 
L 469 3241 
Q 469 3728 445 3840 
Q 422 3953 372 3993 
Q 322 4034 247 4034 
Q 159 4034 28 3984 
L -16 4094 
L 844 4444 
L 984 4444 
L 984 2369 
z
M 984 2169 
L 984 456 
Q 1144 300 1314 220 
Q 1484 141 1663 141 
Q 1947 141 2192 453 
Q 2438 766 2438 1363 
Q 2438 1913 2192 2208 
Q 1947 2503 1634 2503 
Q 1469 2503 1303 2419 
Q 1178 2356 984 2169 
z
" transform="scale(0.015625)"/>
       <path id="TimesNewRomanPSMT-75" d="M 2709 2863 
L 2709 1128 
Q 2709 631 2732 520 
Q 2756 409 2807 365 
Q 2859 322 2928 322 
Q 3025 322 3147 375 
L 3191 266 
L 2334 -88 
L 2194 -88 
L 2194 519 
Q 1825 119 1631 15 
Q 1438 -88 1222 -88 
Q 981 -88 804 51 
Q 628 191 559 409 
Q 491 628 491 1028 
L 491 2306 
Q 491 2509 447 2587 
Q 403 2666 317 2708 
Q 231 2750 6 2747 
L 6 2863 
L 1009 2863 
L 1009 947 
Q 1009 547 1148 422 
Q 1288 297 1484 297 
Q 1619 297 1789 381 
Q 1959 466 2194 703 
L 2194 2325 
Q 2194 2569 2105 2655 
Q 2016 2741 1734 2747 
L 1734 2863 
L 2709 2863 
z
" transform="scale(0.015625)"/>
      </defs>
      <use xlink:href="#TimesNewRomanPSMT-48"/>
      <use xlink:href="#TimesNewRomanPSMT-61" x="72.216797"/>
      <use xlink:href="#TimesNewRomanPSMT-6e" x="116.601562"/>
      <use xlink:href="#TimesNewRomanPSMT-67" x="166.601562"/>
      <use xlink:href="#TimesNewRomanPSMT-62" x="216.601562"/>
      <use xlink:href="#TimesNewRomanPSMT-75" x="266.601562"/>
      <use xlink:href="#TimesNewRomanPSMT-20" x="316.601562"/>
      <use xlink:href="#TimesNewRomanPSMT-52" x="341.601562"/>
      <use xlink:href="#TimesNewRomanPSMT-69" x="408.300781"/>
      <use xlink:href="#TimesNewRomanPSMT-76" x="436.083984"/>
      <use xlink:href="#TimesNewRomanPSMT-65" x="486.083984"/>
      <use xlink:href="#TimesNewRomanPSMT-72" x="530.46875"/>
     </g>
    </g>
    <g id="PathCollection_9">
     <defs>
      <path id="m44c356d162" d="M 0 9 
C 2.386828 9 4.676219 8.051703 6.363961 6.363961 
C 8.051703 4.676219 9 2.386828 9 0 
C 9 -2.386828 8.051703 -4.676219 6.363961 -6.363961 
C 4.676219 -8.051703 2.386828 -9 0 -9 
C -2.386828 -9 -4.676219 -8.051703 -6.363961 -6.363961 
C -8.051703 -4.676219 -9 -2.386828 -9 0 
C -9 2.386828 -8.051703 4.676219 -6.363961 6.363961 
C -4.676219 8.051703 -2.386828 9 0 9 
z
" style="stroke: #377eb8"/>
     </defs>
     <g>
      <use xlink:href="#m44c356d162" x="315.17357" y="1339.610281" style="fill: #377eb8; stroke: #377eb8"/>
     </g>
    </g>
    <g id="text_26">
     <!-- Nanfei River -->
     <g style="fill: #262626" transform="translate(388.43357 1350.294031)scale(0.407 -0.407)">
      <defs>
       <path id="TimesNewRomanPSMT-4e" d="M -84 4238 
L 1066 4238 
L 3656 1059 
L 3656 3503 
Q 3656 3894 3569 3991 
Q 3453 4122 3203 4122 
L 3056 4122 
L 3056 4238 
L 4531 4238 
L 4531 4122 
L 4381 4122 
Q 4113 4122 4000 3959 
Q 3931 3859 3931 3503 
L 3931 -69 
L 3819 -69 
L 1025 3344 
L 1025 734 
Q 1025 344 1109 247 
Q 1228 116 1475 116 
L 1625 116 
L 1625 0 
L 150 0 
L 150 116 
L 297 116 
Q 569 116 681 278 
Q 750 378 750 734 
L 750 3681 
Q 566 3897 470 3965 
Q 375 4034 191 4094 
Q 100 4122 -84 4122 
L -84 4238 
z
" transform="scale(0.015625)"/>
       <path id="TimesNewRomanPSMT-66" d="M 1319 2638 
L 1319 756 
Q 1319 356 1406 250 
Q 1522 113 1716 113 
L 1975 113 
L 1975 0 
L 266 0 
L 266 113 
L 394 113 
Q 519 113 622 175 
Q 725 238 764 344 
Q 803 450 803 756 
L 803 2638 
L 247 2638 
L 247 2863 
L 803 2863 
L 803 3050 
Q 803 3478 940 3775 
Q 1078 4072 1361 4255 
Q 1644 4438 1997 4438 
Q 2325 4438 2600 4225 
Q 2781 4084 2781 3909 
Q 2781 3816 2700 3733 
Q 2619 3650 2525 3650 
Q 2453 3650 2373 3701 
Q 2294 3753 2178 3923 
Q 2063 4094 1966 4153 
Q 1869 4213 1750 4213 
Q 1606 4213 1506 4136 
Q 1406 4059 1362 3898 
Q 1319 3738 1319 3069 
L 1319 2863 
L 2056 2863 
L 2056 2638 
L 1319 2638 
z
" transform="scale(0.015625)"/>
      </defs>
      <use xlink:href="#TimesNewRomanPSMT-4e"/>
      <use xlink:href="#TimesNewRomanPSMT-61" x="72.216797"/>
      <use xlink:href="#TimesNewRomanPSMT-6e" x="116.601562"/>
      <use xlink:href="#TimesNewRomanPSMT-66" x="166.601562"/>
      <use xlink:href="#TimesNewRomanPSMT-65" x="199.902344"/>
      <use xlink:href="#TimesNewRomanPSMT-69" x="244.287109"/>
      <use xlink:href="#TimesNewRomanPSMT-20" x="272.070312"/>
      <use xlink:href="#TimesNewRomanPSMT-52" x="297.070312"/>
      <use xlink:href="#TimesNewRomanPSMT-69" x="363.769531"/>
      <use xlink:href="#TimesNewRomanPSMT-76" x="391.552734"/>
      <use xlink:href="#TimesNewRomanPSMT-65" x="441.552734"/>
      <use xlink:href="#TimesNewRomanPSMT-72" x="485.9375"/>
     </g>
    </g>
    <g id="PathCollection_10">
     <defs>
      <path id="mc3dc5be35b" d="M 0 9 
C 2.386828 9 4.676219 8.051703 6.363961 6.363961 
C 8.051703 4.676219 9 2.386828 9 0 
C 9 -2.386828 8.051703 -4.676219 6.363961 -6.363961 
C 4.676219 -8.051703 2.386828 -9 0 -9 
C -2.386828 -9 -4.676219 -8.051703 -6.363961 -6.363961 
C -8.051703 -4.676219 -9 -2.386828 -9 0 
C -9 2.386828 -8.051703 4.676219 -6.363961 6.363961 
C -4.676219 8.051703 -2.386828 9 0 9 
z
" style="stroke: #4daf4a"/>
     </defs>
     <g>
      <use xlink:href="#mc3dc5be35b" x="315.17357" y="1397.156266" style="fill: #4daf4a; stroke: #4daf4a"/>
     </g>
    </g>
    <g id="text_27">
     <!-- Pai River -->
     <g style="fill: #262626" transform="translate(388.43357 1407.840016)scale(0.407 -0.407)">
      <use xlink:href="#TimesNewRomanPSMT-50"/>
      <use xlink:href="#TimesNewRomanPSMT-61" x="55.615234"/>
      <use xlink:href="#TimesNewRomanPSMT-69" x="100"/>
      <use xlink:href="#TimesNewRomanPSMT-20" x="127.783203"/>
      <use xlink:href="#TimesNewRomanPSMT-52" x="152.783203"/>
      <use xlink:href="#TimesNewRomanPSMT-69" x="219.482422"/>
      <use xlink:href="#TimesNewRomanPSMT-76" x="247.265625"/>
      <use xlink:href="#TimesNewRomanPSMT-65" x="297.265625"/>
      <use xlink:href="#TimesNewRomanPSMT-72" x="341.650391"/>
     </g>
    </g>
    <g id="text_28">
     <!-- Period -->
     <g style="fill: #262626" transform="translate(813.252539 1235.12575)scale(0.407 -0.407)">
      <defs>
       <path id="TimesNewRomanPSMT-6f" d="M 1600 2947 
Q 2250 2947 2644 2453 
Q 2978 2031 2978 1484 
Q 2978 1100 2793 706 
Q 2609 313 2286 112 
Q 1963 -88 1566 -88 
Q 919 -88 538 428 
Q 216 863 216 1403 
Q 216 1797 411 2186 
Q 606 2575 925 2761 
Q 1244 2947 1600 2947 
z
M 1503 2744 
Q 1338 2744 1170 2645 
Q 1003 2547 900 2300 
Q 797 2053 797 1666 
Q 797 1041 1045 587 
Q 1294 134 1700 134 
Q 2003 134 2200 384 
Q 2397 634 2397 1244 
Q 2397 2006 2069 2444 
Q 1847 2744 1503 2744 
z
" transform="scale(0.015625)"/>
       <path id="TimesNewRomanPSMT-64" d="M 2222 322 
Q 2013 103 1813 7 
Q 1613 -88 1381 -88 
Q 913 -88 563 304 
Q 213 697 213 1313 
Q 213 1928 600 2439 
Q 988 2950 1597 2950 
Q 1975 2950 2222 2709 
L 2222 3238 
Q 2222 3728 2198 3840 
Q 2175 3953 2125 3993 
Q 2075 4034 2000 4034 
Q 1919 4034 1784 3984 
L 1744 4094 
L 2597 4444 
L 2738 4444 
L 2738 1134 
Q 2738 631 2761 520 
Q 2784 409 2836 365 
Q 2888 322 2956 322 
Q 3041 322 3181 375 
L 3216 266 
L 2366 -88 
L 2222 -88 
L 2222 322 
z
M 2222 541 
L 2222 2016 
Q 2203 2228 2109 2403 
Q 2016 2578 1861 2667 
Q 1706 2756 1559 2756 
Q 1284 2756 1069 2509 
Q 784 2184 784 1559 
Q 784 928 1059 592 
Q 1334 256 1672 256 
Q 1956 256 2222 541 
z
" transform="scale(0.015625)"/>
      </defs>
      <use xlink:href="#TimesNewRomanPSMT-50"/>
      <use xlink:href="#TimesNewRomanPSMT-65" x="55.615234"/>
      <use xlink:href="#TimesNewRomanPSMT-72" x="100"/>
      <use xlink:href="#TimesNewRomanPSMT-69" x="133.300781"/>
      <use xlink:href="#TimesNewRomanPSMT-6f" x="161.083984"/>
      <use xlink:href="#TimesNewRomanPSMT-64" x="211.083984"/>
     </g>
    </g>
    <g id="PathCollection_11">
     <defs>
      <path id="m9b8be08d05" d="M 0 9 
C 2.386828 9 4.676219 8.051703 6.363961 6.363961 
C 8.051703 4.676219 9 2.386828 9 0 
C 9 -2.386828 8.051703 -4.676219 6.363961 -6.363961 
C 4.676219 -8.051703 2.386828 -9 0 -9 
C -2.386828 -9 -4.676219 -8.051703 -6.363961 -6.363961 
C -8.051703 -4.676219 -9 -2.386828 -9 0 
C -9 2.386828 -8.051703 4.676219 -6.363961 6.363961 
C -4.676219 8.051703 -2.386828 9 0 9 
z
" style="stroke: #333333"/>
     </defs>
     <g>
      <use xlink:href="#m9b8be08d05" x="739.992539" y="1281.987984" style="fill: #333333; stroke: #333333"/>
     </g>
    </g>
    <g id="text_29">
     <!-- Dry Season -->
     <g style="fill: #262626" transform="translate(813.252539 1292.671734)scale(0.407 -0.407)">
      <defs>
       <path id="TimesNewRomanPSMT-44" d="M 109 0 
L 109 116 
L 269 116 
Q 538 116 650 288 
Q 719 391 719 750 
L 719 3488 
Q 719 3884 631 3984 
Q 509 4122 269 4122 
L 109 4122 
L 109 4238 
L 1834 4238 
Q 2784 4238 3279 4022 
Q 3775 3806 4076 3303 
Q 4378 2800 4378 2141 
Q 4378 1256 3841 663 
Q 3238 0 2003 0 
L 109 0 
z
M 1319 306 
Q 1716 219 1984 219 
Q 2709 219 3187 728 
Q 3666 1238 3666 2109 
Q 3666 2988 3187 3494 
Q 2709 4000 1959 4000 
Q 1678 4000 1319 3909 
L 1319 306 
z
" transform="scale(0.015625)"/>
       <path id="TimesNewRomanPSMT-79" d="M 38 2863 
L 1372 2863 
L 1372 2747 
L 1306 2747 
Q 1166 2747 1095 2686 
Q 1025 2625 1025 2534 
Q 1025 2413 1128 2197 
L 1825 753 
L 2466 2334 
Q 2519 2463 2519 2588 
Q 2519 2644 2497 2672 
Q 2472 2706 2419 2726 
Q 2366 2747 2231 2747 
L 2231 2863 
L 3163 2863 
L 3163 2747 
Q 3047 2734 2984 2696 
Q 2922 2659 2847 2556 
Q 2819 2513 2741 2316 
L 1575 -541 
Q 1406 -956 1132 -1168 
Q 859 -1381 606 -1381 
Q 422 -1381 303 -1275 
Q 184 -1169 184 -1031 
Q 184 -900 270 -820 
Q 356 -741 506 -741 
Q 609 -741 788 -809 
Q 913 -856 944 -856 
Q 1038 -856 1148 -759 
Q 1259 -663 1372 -384 
L 1575 113 
L 547 2272 
Q 500 2369 397 2513 
Q 319 2622 269 2659 
Q 197 2709 38 2747 
L 38 2863 
z
" transform="scale(0.015625)"/>
       <path id="TimesNewRomanPSMT-53" d="M 2934 4334 
L 2934 2869 
L 2819 2869 
Q 2763 3291 2617 3541 
Q 2472 3791 2203 3937 
Q 1934 4084 1647 4084 
Q 1322 4084 1109 3886 
Q 897 3688 897 3434 
Q 897 3241 1031 3081 
Q 1225 2847 1953 2456 
Q 2547 2138 2764 1967 
Q 2981 1797 3098 1565 
Q 3216 1334 3216 1081 
Q 3216 600 2842 251 
Q 2469 -97 1881 -97 
Q 1697 -97 1534 -69 
Q 1438 -53 1133 45 
Q 828 144 747 144 
Q 669 144 623 97 
Q 578 50 556 -97 
L 441 -97 
L 441 1356 
L 556 1356 
Q 638 900 775 673 
Q 913 447 1195 297 
Q 1478 147 1816 147 
Q 2206 147 2432 353 
Q 2659 559 2659 841 
Q 2659 997 2573 1156 
Q 2488 1316 2306 1453 
Q 2184 1547 1640 1851 
Q 1097 2156 867 2337 
Q 638 2519 519 2737 
Q 400 2956 400 3219 
Q 400 3675 750 4004 
Q 1100 4334 1641 4334 
Q 1978 4334 2356 4169 
Q 2531 4091 2603 4091 
Q 2684 4091 2736 4139 
Q 2788 4188 2819 4334 
L 2934 4334 
z
" transform="scale(0.015625)"/>
       <path id="TimesNewRomanPSMT-73" d="M 2050 2947 
L 2050 1972 
L 1947 1972 
Q 1828 2431 1642 2597 
Q 1456 2763 1169 2763 
Q 950 2763 815 2647 
Q 681 2531 681 2391 
Q 681 2216 781 2091 
Q 878 1963 1175 1819 
L 1631 1597 
Q 2266 1288 2266 781 
Q 2266 391 1970 151 
Q 1675 -88 1309 -88 
Q 1047 -88 709 6 
Q 606 38 541 38 
Q 469 38 428 -44 
L 325 -44 
L 325 978 
L 428 978 
Q 516 541 762 319 
Q 1009 97 1316 97 
Q 1531 97 1667 223 
Q 1803 350 1803 528 
Q 1803 744 1651 891 
Q 1500 1038 1047 1263 
Q 594 1488 453 1669 
Q 313 1847 313 2119 
Q 313 2472 555 2709 
Q 797 2947 1181 2947 
Q 1350 2947 1591 2875 
Q 1750 2828 1803 2828 
Q 1853 2828 1881 2850 
Q 1909 2872 1947 2947 
L 2050 2947 
z
" transform="scale(0.015625)"/>
      </defs>
      <use xlink:href="#TimesNewRomanPSMT-44"/>
      <use xlink:href="#TimesNewRomanPSMT-72" x="72.216797"/>
      <use xlink:href="#TimesNewRomanPSMT-79" x="105.517578"/>
      <use xlink:href="#TimesNewRomanPSMT-20" x="155.517578"/>
      <use xlink:href="#TimesNewRomanPSMT-53" x="180.517578"/>
      <use xlink:href="#TimesNewRomanPSMT-65" x="236.132812"/>
      <use xlink:href="#TimesNewRomanPSMT-61" x="280.517578"/>
      <use xlink:href="#TimesNewRomanPSMT-73" x="324.902344"/>
      <use xlink:href="#TimesNewRomanPSMT-6f" x="363.818359"/>
      <use xlink:href="#TimesNewRomanPSMT-6e" x="413.818359"/>
     </g>
    </g>
    <g id="PathCollection_12">
     <defs>
      <path id="me99625e74b" d="M -4.5 9 
L 0 4.5 
L 4.5 9 
L 9 4.5 
L 4.5 0 
L 9 -4.5 
L 4.5 -9 
L 0 -4.5 
L -4.5 -9 
L -9 -4.5 
L -4.5 0 
L -9 4.5 
z
" style="stroke: #333333"/>
     </defs>
     <g>
      <use xlink:href="#me99625e74b" x="739.992539" y="1339.610281" style="fill: #333333; stroke: #333333"/>
     </g>
    </g>
    <g id="text_30">
     <!-- Level Season -->
     <g style="fill: #262626" transform="translate(813.252539 1350.294031)scale(0.407 -0.407)">
      <defs>
       <path id="TimesNewRomanPSMT-4c" d="M 3669 1172 
L 3772 1150 
L 3409 0 
L 128 0 
L 128 116 
L 288 116 
Q 556 116 672 291 
Q 738 391 738 753 
L 738 3488 
Q 738 3884 650 3984 
Q 528 4122 288 4122 
L 128 4122 
L 128 4238 
L 2047 4238 
L 2047 4122 
Q 1709 4125 1573 4059 
Q 1438 3994 1388 3894 
Q 1338 3794 1338 3416 
L 1338 753 
Q 1338 494 1388 397 
Q 1425 331 1503 300 
Q 1581 269 1991 269 
L 2300 269 
Q 2788 269 2984 341 
Q 3181 413 3343 595 
Q 3506 778 3669 1172 
z
" transform="scale(0.015625)"/>
       <path id="TimesNewRomanPSMT-6c" d="M 1184 4444 
L 1184 647 
Q 1184 378 1223 290 
Q 1263 203 1344 158 
Q 1425 113 1647 113 
L 1647 0 
L 244 0 
L 244 113 
Q 441 113 512 153 
Q 584 194 625 287 
Q 666 381 666 647 
L 666 3247 
Q 666 3731 644 3842 
Q 622 3953 573 3993 
Q 525 4034 450 4034 
Q 369 4034 244 3984 
L 191 4094 
L 1044 4444 
L 1184 4444 
z
" transform="scale(0.015625)"/>
      </defs>
      <use xlink:href="#TimesNewRomanPSMT-4c"/>
      <use xlink:href="#TimesNewRomanPSMT-65" x="61.083984"/>
      <use xlink:href="#TimesNewRomanPSMT-76" x="105.46875"/>
      <use xlink:href="#TimesNewRomanPSMT-65" x="155.46875"/>
      <use xlink:href="#TimesNewRomanPSMT-6c" x="199.853516"/>
      <use xlink:href="#TimesNewRomanPSMT-20" x="227.636719"/>
      <use xlink:href="#TimesNewRomanPSMT-53" x="252.636719"/>
      <use xlink:href="#TimesNewRomanPSMT-65" x="308.251953"/>
      <use xlink:href="#TimesNewRomanPSMT-61" x="352.636719"/>
      <use xlink:href="#TimesNewRomanPSMT-73" x="397.021484"/>
      <use xlink:href="#TimesNewRomanPSMT-6f" x="435.9375"/>
      <use xlink:href="#TimesNewRomanPSMT-6e" x="485.9375"/>
     </g>
    </g>
    <g id="PathCollection_13">
     <defs>
      <path id="m5122995c6f" d="M -6.363961 -6.363961 
L -6.363961 6.363961 
L 6.363961 6.363961 
L 6.363961 -6.363961 
z
" style="stroke: #333333"/>
     </defs>
     <g>
      <use xlink:href="#m5122995c6f" x="739.992539" y="1397.156266" style="fill: #333333; stroke: #333333"/>
     </g>
    </g>
    <g id="text_31">
     <!-- Wet Season -->
     <g style="fill: #262626" transform="translate(813.252539 1407.840016)scale(0.407 -0.407)">
      <defs>
       <path id="TimesNewRomanPSMT-74" d="M 1031 3803 
L 1031 2863 
L 1700 2863 
L 1700 2644 
L 1031 2644 
L 1031 788 
Q 1031 509 1111 412 
Q 1191 316 1316 316 
Q 1419 316 1516 380 
Q 1613 444 1666 569 
L 1788 569 
Q 1678 263 1478 108 
Q 1278 -47 1066 -47 
Q 922 -47 784 33 
Q 647 113 581 261 
Q 516 409 516 719 
L 516 2644 
L 63 2644 
L 63 2747 
Q 234 2816 414 2980 
Q 594 3144 734 3369 
Q 806 3488 934 3803 
L 1031 3803 
z
" transform="scale(0.015625)"/>
      </defs>
      <use xlink:href="#TimesNewRomanPSMT-57"/>
      <use xlink:href="#TimesNewRomanPSMT-65" x="86.384766"/>
      <use xlink:href="#TimesNewRomanPSMT-74" x="130.769531"/>
      <use xlink:href="#TimesNewRomanPSMT-20" x="158.552734"/>
      <use xlink:href="#TimesNewRomanPSMT-53" x="183.552734"/>
      <use xlink:href="#TimesNewRomanPSMT-65" x="239.167969"/>
      <use xlink:href="#TimesNewRomanPSMT-61" x="283.552734"/>
      <use xlink:href="#TimesNewRomanPSMT-73" x="327.9375"/>
      <use xlink:href="#TimesNewRomanPSMT-6f" x="366.853516"/>
      <use xlink:href="#TimesNewRomanPSMT-6e" x="416.853516"/>
     </g>
    </g>
   </g>
  </g>
 </g>
 <defs>
  <clipPath id="pb57c614772">
   <rect x="94.929516" y="7.2" width="1116" height="1087.2"/>
  </clipPath>
 </defs>
</svg>
