<?xml version="1.0" encoding="utf-8" standalone="no"?>
<!DOCTYPE svg PUBLIC "-//W3C//DTD SVG 1.1//EN"
  "http://www.w3.org/Graphics/SVG/1.1/DTD/svg11.dtd">
<svg xmlns:xlink="http://www.w3.org/1999/xlink" width="1205.9pt" height="875.4pt" viewBox="0 0 1205.9 875.4" xmlns="http://www.w3.org/2000/svg" version="1.1">
 <metadata>
  <rdf:RDF xmlns:dc="http://purl.org/dc/elements/1.1/" xmlns:cc="http://creativecommons.org/ns#" xmlns:rdf="http://www.w3.org/1999/02/22-rdf-syntax-ns#">
   <cc:Work>
    <dc:type rdf:resource="http://purl.org/dc/dcmitype/StillImage"/>
    <dc:date>2023-03-05T12:44:53.652878</dc:date>
    <dc:format>image/svg+xml</dc:format>
    <dc:creator>
     <cc:Agent>
      <dc:title>Matplotlib v3.5.1, https://matplotlib.org/</dc:title>
     </cc:Agent>
    </dc:creator>
   </cc:Work>
  </rdf:RDF>
 </metadata>
 <defs>
  <style type="text/css">*{stroke-linejoin: round; stroke-linecap: butt}</style>
 </defs>
 <g id="figure_1">
  <g id="patch_1">
   <path d="M 0 875.4 
L 1205.9 875.4 
L 1205.9 0 
L 0 0 
z
" style="fill: #ffffff"/>
  </g>
  <g id="axes_1">
   <g id="patch_2">
    <path d="M 82.7 578.7 
L 589.972727 578.7 
L 589.972727 35.1 
L 82.7 35.1 
z
" style="fill: #eaeaf2"/>
   </g>
   <g id="matplotlib.axis_1">
    <g id="xtick_1">
     <g id="text_1">
      <!-- Dry Season -->
      <g style="fill: #262626" transform="translate(175.111314 741.263281)rotate(-90)scale(0.33 -0.33)">
       <defs>
        <path id="TimesNewRomanPSMT-44" d="M 109 0 
L 109 116 
L 269 116 
Q 538 116 650 288 
Q 719 391 719 750 
L 719 3488 
Q 719 3884 631 3984 
Q 509 4122 269 4122 
L 109 4122 
L 109 4238 
L 1834 4238 
Q 2784 4238 3279 4022 
Q 3775 3806 4076 3303 
Q 4378 2800 4378 2141 
Q 4378 1256 3841 663 
Q 3238 0 2003 0 
L 109 0 
z
M 1319 306 
Q 1716 219 1984 219 
Q 2709 219 3187 728 
Q 3666 1238 3666 2109 
Q 3666 2988 3187 3494 
Q 2709 4000 1959 4000 
Q 1678 4000 1319 3909 
L 1319 306 
z
" transform="scale(0.015625)"/>
        <path id="TimesNewRomanPSMT-72" d="M 1038 2947 
L 1038 2303 
Q 1397 2947 1775 2947 
Q 1947 2947 2059 2842 
Q 2172 2738 2172 2600 
Q 2172 2478 2090 2393 
Q 2009 2309 1897 2309 
Q 1788 2309 1652 2417 
Q 1516 2525 1450 2525 
Q 1394 2525 1328 2463 
Q 1188 2334 1038 2041 
L 1038 669 
Q 1038 431 1097 309 
Q 1138 225 1241 169 
Q 1344 113 1538 113 
L 1538 0 
L 72 0 
L 72 113 
Q 291 113 397 181 
Q 475 231 506 341 
Q 522 394 522 644 
L 522 1753 
Q 522 2253 501 2348 
Q 481 2444 426 2487 
Q 372 2531 291 2531 
Q 194 2531 72 2484 
L 41 2597 
L 906 2947 
L 1038 2947 
z
" transform="scale(0.015625)"/>
        <path id="TimesNewRomanPSMT-79" d="M 38 2863 
L 1372 2863 
L 1372 2747 
L 1306 2747 
Q 1166 2747 1095 2686 
Q 1025 2625 1025 2534 
Q 1025 2413 1128 2197 
L 1825 753 
L 2466 2334 
Q 2519 2463 2519 2588 
Q 2519 2644 2497 2672 
Q 2472 2706 2419 2726 
Q 2366 2747 2231 2747 
L 2231 2863 
L 3163 2863 
L 3163 2747 
Q 3047 2734 2984 2696 
Q 2922 2659 2847 2556 
Q 2819 2513 2741 2316 
L 1575 -541 
Q 1406 -956 1132 -1168 
Q 859 -1381 606 -1381 
Q 422 -1381 303 -1275 
Q 184 -1169 184 -1031 
Q 184 -900 270 -820 
Q 356 -741 506 -741 
Q 609 -741 788 -809 
Q 913 -856 944 -856 
Q 1038 -856 1148 -759 
Q 1259 -663 1372 -384 
L 1575 113 
L 547 2272 
Q 500 2369 397 2513 
Q 319 2622 269 2659 
Q 197 2709 38 2747 
L 38 2863 
z
" transform="scale(0.015625)"/>
        <path id="TimesNewRomanPSMT-20" transform="scale(0.015625)"/>
        <path id="TimesNewRomanPSMT-53" d="M 2934 4334 
L 2934 2869 
L 2819 2869 
Q 2763 3291 2617 3541 
Q 2472 3791 2203 3937 
Q 1934 4084 1647 4084 
Q 1322 4084 1109 3886 
Q 897 3688 897 3434 
Q 897 3241 1031 3081 
Q 1225 2847 1953 2456 
Q 2547 2138 2764 1967 
Q 2981 1797 3098 1565 
Q 3216 1334 3216 1081 
Q 3216 600 2842 251 
Q 2469 -97 1881 -97 
Q 1697 -97 1534 -69 
Q 1438 -53 1133 45 
Q 828 144 747 144 
Q 669 144 623 97 
Q 578 50 556 -97 
L 441 -97 
L 441 1356 
L 556 1356 
Q 638 900 775 673 
Q 913 447 1195 297 
Q 1478 147 1816 147 
Q 2206 147 2432 353 
Q 2659 559 2659 841 
Q 2659 997 2573 1156 
Q 2488 1316 2306 1453 
Q 2184 1547 1640 1851 
Q 1097 2156 867 2337 
Q 638 2519 519 2737 
Q 400 2956 400 3219 
Q 400 3675 750 4004 
Q 1100 4334 1641 4334 
Q 1978 4334 2356 4169 
Q 2531 4091 2603 4091 
Q 2684 4091 2736 4139 
Q 2788 4188 2819 4334 
L 2934 4334 
z
" transform="scale(0.015625)"/>
        <path id="TimesNewRomanPSMT-65" d="M 681 1784 
Q 678 1147 991 784 
Q 1303 422 1725 422 
Q 2006 422 2214 576 
Q 2422 731 2563 1106 
L 2659 1044 
Q 2594 616 2278 264 
Q 1963 -88 1488 -88 
Q 972 -88 605 314 
Q 238 716 238 1394 
Q 238 2128 614 2539 
Q 991 2950 1559 2950 
Q 2041 2950 2350 2633 
Q 2659 2316 2659 1784 
L 681 1784 
z
M 681 1966 
L 2006 1966 
Q 1991 2241 1941 2353 
Q 1863 2528 1708 2628 
Q 1553 2728 1384 2728 
Q 1125 2728 920 2526 
Q 716 2325 681 1966 
z
" transform="scale(0.015625)"/>
        <path id="TimesNewRomanPSMT-61" d="M 1822 413 
Q 1381 72 1269 19 
Q 1100 -59 909 -59 
Q 613 -59 420 144 
Q 228 347 228 678 
Q 228 888 322 1041 
Q 450 1253 767 1440 
Q 1084 1628 1822 1897 
L 1822 2009 
Q 1822 2438 1686 2597 
Q 1550 2756 1291 2756 
Q 1094 2756 978 2650 
Q 859 2544 859 2406 
L 866 2225 
Q 866 2081 792 2003 
Q 719 1925 600 1925 
Q 484 1925 411 2006 
Q 338 2088 338 2228 
Q 338 2497 613 2722 
Q 888 2947 1384 2947 
Q 1766 2947 2009 2819 
Q 2194 2722 2281 2516 
Q 2338 2381 2338 1966 
L 2338 994 
Q 2338 584 2353 492 
Q 2369 400 2405 369 
Q 2441 338 2488 338 
Q 2538 338 2575 359 
Q 2641 400 2828 588 
L 2828 413 
Q 2478 -56 2159 -56 
Q 2006 -56 1915 50 
Q 1825 156 1822 413 
z
M 1822 616 
L 1822 1706 
Q 1350 1519 1213 1441 
Q 966 1303 859 1153 
Q 753 1003 753 825 
Q 753 600 887 451 
Q 1022 303 1197 303 
Q 1434 303 1822 616 
z
" transform="scale(0.015625)"/>
        <path id="TimesNewRomanPSMT-73" d="M 2050 2947 
L 2050 1972 
L 1947 1972 
Q 1828 2431 1642 2597 
Q 1456 2763 1169 2763 
Q 950 2763 815 2647 
Q 681 2531 681 2391 
Q 681 2216 781 2091 
Q 878 1963 1175 1819 
L 1631 1597 
Q 2266 1288 2266 781 
Q 2266 391 1970 151 
Q 1675 -88 1309 -88 
Q 1047 -88 709 6 
Q 606 38 541 38 
Q 469 38 428 -44 
L 325 -44 
L 325 978 
L 428 978 
Q 516 541 762 319 
Q 1009 97 1316 97 
Q 1531 97 1667 223 
Q 1803 350 1803 528 
Q 1803 744 1651 891 
Q 1500 1038 1047 1263 
Q 594 1488 453 1669 
Q 313 1847 313 2119 
Q 313 2472 555 2709 
Q 797 2947 1181 2947 
Q 1350 2947 1591 2875 
Q 1750 2828 1803 2828 
Q 1853 2828 1881 2850 
Q 1909 2872 1947 2947 
L 2050 2947 
z
" transform="scale(0.015625)"/>
        <path id="TimesNewRomanPSMT-6f" d="M 1600 2947 
Q 2250 2947 2644 2453 
Q 2978 2031 2978 1484 
Q 2978 1100 2793 706 
Q 2609 313 2286 112 
Q 1963 -88 1566 -88 
Q 919 -88 538 428 
Q 216 863 216 1403 
Q 216 1797 411 2186 
Q 606 2575 925 2761 
Q 1244 2947 1600 2947 
z
M 1503 2744 
Q 1338 2744 1170 2645 
Q 1003 2547 900 2300 
Q 797 2053 797 1666 
Q 797 1041 1045 587 
Q 1294 134 1700 134 
Q 2003 134 2200 384 
Q 2397 634 2397 1244 
Q 2397 2006 2069 2444 
Q 1847 2744 1503 2744 
z
" transform="scale(0.015625)"/>
        <path id="TimesNewRomanPSMT-6e" d="M 1034 2341 
Q 1538 2947 1994 2947 
Q 2228 2947 2397 2830 
Q 2566 2713 2666 2444 
Q 2734 2256 2734 1869 
L 2734 647 
Q 2734 375 2778 278 
Q 2813 200 2889 156 
Q 2966 113 3172 113 
L 3172 0 
L 1756 0 
L 1756 113 
L 1816 113 
Q 2016 113 2095 173 
Q 2175 234 2206 353 
Q 2219 400 2219 647 
L 2219 1819 
Q 2219 2209 2117 2386 
Q 2016 2563 1775 2563 
Q 1403 2563 1034 2156 
L 1034 647 
Q 1034 356 1069 288 
Q 1113 197 1189 155 
Q 1266 113 1500 113 
L 1500 0 
L 84 0 
L 84 113 
L 147 113 
Q 366 113 442 223 
Q 519 334 519 647 
L 519 1709 
Q 519 2225 495 2337 
Q 472 2450 423 2490 
Q 375 2531 294 2531 
Q 206 2531 84 2484 
L 38 2597 
L 900 2947 
L 1034 2947 
L 1034 2341 
z
" transform="scale(0.015625)"/>
       </defs>
       <use xlink:href="#TimesNewRomanPSMT-44"/>
       <use xlink:href="#TimesNewRomanPSMT-72" x="72.216797"/>
       <use xlink:href="#TimesNewRomanPSMT-79" x="105.517578"/>
       <use xlink:href="#TimesNewRomanPSMT-20" x="155.517578"/>
       <use xlink:href="#TimesNewRomanPSMT-53" x="180.517578"/>
       <use xlink:href="#TimesNewRomanPSMT-65" x="236.132812"/>
       <use xlink:href="#TimesNewRomanPSMT-61" x="280.517578"/>
       <use xlink:href="#TimesNewRomanPSMT-73" x="324.902344"/>
       <use xlink:href="#TimesNewRomanPSMT-6f" x="363.818359"/>
       <use xlink:href="#TimesNewRomanPSMT-6e" x="413.818359"/>
      </g>
     </g>
    </g>
    <g id="xtick_2">
     <g id="text_2">
      <!-- Level Season -->
      <g style="fill: #262626" transform="translate(344.264098 765.064531)rotate(-90)scale(0.33 -0.33)">
       <defs>
        <path id="TimesNewRomanPSMT-4c" d="M 3669 1172 
L 3772 1150 
L 3409 0 
L 128 0 
L 128 116 
L 288 116 
Q 556 116 672 291 
Q 738 391 738 753 
L 738 3488 
Q 738 3884 650 3984 
Q 528 4122 288 4122 
L 128 4122 
L 128 4238 
L 2047 4238 
L 2047 4122 
Q 1709 4125 1573 4059 
Q 1438 3994 1388 3894 
Q 1338 3794 1338 3416 
L 1338 753 
Q 1338 494 1388 397 
Q 1425 331 1503 300 
Q 1581 269 1991 269 
L 2300 269 
Q 2788 269 2984 341 
Q 3181 413 3343 595 
Q 3506 778 3669 1172 
z
" transform="scale(0.015625)"/>
        <path id="TimesNewRomanPSMT-76" d="M 53 2863 
L 1400 2863 
L 1400 2747 
L 1313 2747 
Q 1191 2747 1127 2687 
Q 1063 2628 1063 2528 
Q 1063 2419 1128 2269 
L 1794 688 
L 2463 2328 
Q 2534 2503 2534 2594 
Q 2534 2638 2509 2666 
Q 2475 2713 2422 2730 
Q 2369 2747 2206 2747 
L 2206 2863 
L 3141 2863 
L 3141 2747 
Q 2978 2734 2916 2681 
Q 2806 2588 2719 2369 
L 1703 -88 
L 1575 -88 
L 553 2328 
Q 484 2497 421 2570 
Q 359 2644 263 2694 
Q 209 2722 53 2747 
L 53 2863 
z
" transform="scale(0.015625)"/>
        <path id="TimesNewRomanPSMT-6c" d="M 1184 4444 
L 1184 647 
Q 1184 378 1223 290 
Q 1263 203 1344 158 
Q 1425 113 1647 113 
L 1647 0 
L 244 0 
L 244 113 
Q 441 113 512 153 
Q 584 194 625 287 
Q 666 381 666 647 
L 666 3247 
Q 666 3731 644 3842 
Q 622 3953 573 3993 
Q 525 4034 450 4034 
Q 369 4034 244 3984 
L 191 4094 
L 1044 4444 
L 1184 4444 
z
" transform="scale(0.015625)"/>
       </defs>
       <use xlink:href="#TimesNewRomanPSMT-4c"/>
       <use xlink:href="#TimesNewRomanPSMT-65" x="61.083984"/>
       <use xlink:href="#TimesNewRomanPSMT-76" x="105.46875"/>
       <use xlink:href="#TimesNewRomanPSMT-65" x="155.46875"/>
       <use xlink:href="#TimesNewRomanPSMT-6c" x="199.853516"/>
       <use xlink:href="#TimesNewRomanPSMT-20" x="227.636719"/>
       <use xlink:href="#TimesNewRomanPSMT-53" x="252.636719"/>
       <use xlink:href="#TimesNewRomanPSMT-65" x="308.251953"/>
       <use xlink:href="#TimesNewRomanPSMT-61" x="352.636719"/>
       <use xlink:href="#TimesNewRomanPSMT-73" x="397.021484"/>
       <use xlink:href="#TimesNewRomanPSMT-6f" x="435.9375"/>
       <use xlink:href="#TimesNewRomanPSMT-6e" x="485.9375"/>
      </g>
     </g>
    </g>
    <g id="xtick_3">
     <g id="text_3">
      <!-- Wet Season -->
      <g style="fill: #262626" transform="translate(513.355007 742.26875)rotate(-90)scale(0.33 -0.33)">
       <defs>
        <path id="TimesNewRomanPSMT-57" d="M 5991 4238 
L 5991 4122 
Q 5825 4122 5722 4062 
Q 5619 4003 5525 3841 
Q 5463 3731 5328 3319 
L 4147 -97 
L 4022 -97 
L 3056 2613 
L 2097 -97 
L 1984 -97 
L 725 3422 
Q 584 3816 547 3888 
Q 484 4006 376 4064 
Q 269 4122 84 4122 
L 84 4238 
L 1653 4238 
L 1653 4122 
L 1578 4122 
Q 1413 4122 1325 4047 
Q 1238 3972 1238 3866 
Q 1238 3756 1375 3363 
L 2209 984 
L 2913 3006 
L 2788 3363 
L 2688 3647 
Q 2622 3803 2541 3922 
Q 2500 3981 2441 4022 
Q 2363 4078 2284 4103 
Q 2225 4122 2097 4122 
L 2097 4238 
L 3747 4238 
L 3747 4122 
L 3634 4122 
Q 3459 4122 3378 4047 
Q 3297 3972 3297 3844 
Q 3297 3684 3438 3288 
L 4250 984 
L 5056 3319 
Q 5194 3706 5194 3856 
Q 5194 3928 5148 3990 
Q 5103 4053 5034 4078 
Q 4916 4122 4725 4122 
L 4725 4238 
L 5991 4238 
z
" transform="scale(0.015625)"/>
        <path id="TimesNewRomanPSMT-74" d="M 1031 3803 
L 1031 2863 
L 1700 2863 
L 1700 2644 
L 1031 2644 
L 1031 788 
Q 1031 509 1111 412 
Q 1191 316 1316 316 
Q 1419 316 1516 380 
Q 1613 444 1666 569 
L 1788 569 
Q 1678 263 1478 108 
Q 1278 -47 1066 -47 
Q 922 -47 784 33 
Q 647 113 581 261 
Q 516 409 516 719 
L 516 2644 
L 63 2644 
L 63 2747 
Q 234 2816 414 2980 
Q 594 3144 734 3369 
Q 806 3488 934 3803 
L 1031 3803 
z
" transform="scale(0.015625)"/>
       </defs>
       <use xlink:href="#TimesNewRomanPSMT-57"/>
       <use xlink:href="#TimesNewRomanPSMT-65" x="86.384766"/>
       <use xlink:href="#TimesNewRomanPSMT-74" x="130.769531"/>
       <use xlink:href="#TimesNewRomanPSMT-20" x="158.552734"/>
       <use xlink:href="#TimesNewRomanPSMT-53" x="183.552734"/>
       <use xlink:href="#TimesNewRomanPSMT-65" x="239.167969"/>
       <use xlink:href="#TimesNewRomanPSMT-61" x="283.552734"/>
       <use xlink:href="#TimesNewRomanPSMT-73" x="327.9375"/>
       <use xlink:href="#TimesNewRomanPSMT-6f" x="366.853516"/>
       <use xlink:href="#TimesNewRomanPSMT-6e" x="416.853516"/>
      </g>
     </g>
    </g>
    <g id="text_4">
     <!-- Period -->
     <g style="fill: #262626" transform="translate(289.342301 794.062031)scale(0.36 -0.36)">
      <defs>
       <path id="TimesNewRomanPSMT-50" d="M 1313 1984 
L 1313 750 
Q 1313 350 1400 253 
Q 1519 116 1759 116 
L 1922 116 
L 1922 0 
L 106 0 
L 106 116 
L 266 116 
Q 534 116 650 291 
Q 713 388 713 750 
L 713 3488 
Q 713 3888 628 3984 
Q 506 4122 266 4122 
L 106 4122 
L 106 4238 
L 1659 4238 
Q 2228 4238 2556 4120 
Q 2884 4003 3109 3725 
Q 3334 3447 3334 3066 
Q 3334 2547 2992 2222 
Q 2650 1897 2025 1897 
Q 1872 1897 1694 1919 
Q 1516 1941 1313 1984 
z
M 1313 2163 
Q 1478 2131 1606 2115 
Q 1734 2100 1825 2100 
Q 2150 2100 2386 2351 
Q 2622 2603 2622 3003 
Q 2622 3278 2509 3514 
Q 2397 3750 2190 3867 
Q 1984 3984 1722 3984 
Q 1563 3984 1313 3925 
L 1313 2163 
z
" transform="scale(0.015625)"/>
       <path id="TimesNewRomanPSMT-69" d="M 928 4444 
Q 1059 4444 1151 4351 
Q 1244 4259 1244 4128 
Q 1244 3997 1151 3903 
Q 1059 3809 928 3809 
Q 797 3809 703 3903 
Q 609 3997 609 4128 
Q 609 4259 701 4351 
Q 794 4444 928 4444 
z
M 1188 2947 
L 1188 647 
Q 1188 378 1227 289 
Q 1266 200 1342 156 
Q 1419 113 1622 113 
L 1622 0 
L 231 0 
L 231 113 
Q 441 113 512 153 
Q 584 194 626 287 
Q 669 381 669 647 
L 669 1750 
Q 669 2216 641 2353 
Q 619 2453 572 2492 
Q 525 2531 444 2531 
Q 356 2531 231 2484 
L 188 2597 
L 1050 2947 
L 1188 2947 
z
" transform="scale(0.015625)"/>
       <path id="TimesNewRomanPSMT-64" d="M 2222 322 
Q 2013 103 1813 7 
Q 1613 -88 1381 -88 
Q 913 -88 563 304 
Q 213 697 213 1313 
Q 213 1928 600 2439 
Q 988 2950 1597 2950 
Q 1975 2950 2222 2709 
L 2222 3238 
Q 2222 3728 2198 3840 
Q 2175 3953 2125 3993 
Q 2075 4034 2000 4034 
Q 1919 4034 1784 3984 
L 1744 4094 
L 2597 4444 
L 2738 4444 
L 2738 1134 
Q 2738 631 2761 520 
Q 2784 409 2836 365 
Q 2888 322 2956 322 
Q 3041 322 3181 375 
L 3216 266 
L 2366 -88 
L 2222 -88 
L 2222 322 
z
M 2222 541 
L 2222 2016 
Q 2203 2228 2109 2403 
Q 2016 2578 1861 2667 
Q 1706 2756 1559 2756 
Q 1284 2756 1069 2509 
Q 784 2184 784 1559 
Q 784 928 1059 592 
Q 1334 256 1672 256 
Q 1956 256 2222 541 
z
" transform="scale(0.015625)"/>
      </defs>
      <use xlink:href="#TimesNewRomanPSMT-50"/>
      <use xlink:href="#TimesNewRomanPSMT-65" x="55.615234"/>
      <use xlink:href="#TimesNewRomanPSMT-72" x="100"/>
      <use xlink:href="#TimesNewRomanPSMT-69" x="133.300781"/>
      <use xlink:href="#TimesNewRomanPSMT-6f" x="161.083984"/>
      <use xlink:href="#TimesNewRomanPSMT-64" x="211.083984"/>
     </g>
    </g>
   </g>
   <g id="matplotlib.axis_2">
    <g id="ytick_1">
     <g id="line2d_1">
      <path d="M 82.7 496.086777 
L 589.972727 496.086777 
" clip-path="url(#p2fd26ae709)" style="fill: none; stroke: #ffffff; stroke-linecap: round"/>
     </g>
     <g id="text_5">
      <!-- 500 -->
      <g style="fill: #262626" transform="translate(23.7 507.543964)scale(0.33 -0.33)">
       <defs>
        <path id="TimesNewRomanPSMT-35" d="M 2778 4238 
L 2534 3706 
L 1259 3706 
L 981 3138 
Q 1809 3016 2294 2522 
Q 2709 2097 2709 1522 
Q 2709 1188 2573 903 
Q 2438 619 2231 419 
Q 2025 219 1772 97 
Q 1413 -75 1034 -75 
Q 653 -75 479 54 
Q 306 184 306 341 
Q 306 428 378 495 
Q 450 563 559 563 
Q 641 563 702 538 
Q 763 513 909 409 
Q 1144 247 1384 247 
Q 1750 247 2026 523 
Q 2303 800 2303 1197 
Q 2303 1581 2056 1914 
Q 1809 2247 1375 2428 
Q 1034 2569 447 2591 
L 1259 4238 
L 2778 4238 
z
" transform="scale(0.015625)"/>
        <path id="TimesNewRomanPSMT-30" d="M 231 2094 
Q 231 2819 450 3342 
Q 669 3866 1031 4122 
Q 1313 4325 1613 4325 
Q 2100 4325 2488 3828 
Q 2972 3213 2972 2159 
Q 2972 1422 2759 906 
Q 2547 391 2217 158 
Q 1888 -75 1581 -75 
Q 975 -75 572 641 
Q 231 1244 231 2094 
z
M 844 2016 
Q 844 1141 1059 588 
Q 1238 122 1591 122 
Q 1759 122 1940 273 
Q 2122 425 2216 781 
Q 2359 1319 2359 2297 
Q 2359 3022 2209 3506 
Q 2097 3866 1919 4016 
Q 1791 4119 1609 4119 
Q 1397 4119 1231 3928 
Q 1006 3669 925 3112 
Q 844 2556 844 2016 
z
" transform="scale(0.015625)"/>
       </defs>
       <use xlink:href="#TimesNewRomanPSMT-35"/>
       <use xlink:href="#TimesNewRomanPSMT-30" x="50"/>
       <use xlink:href="#TimesNewRomanPSMT-30" x="100"/>
      </g>
     </g>
    </g>
    <g id="ytick_2">
     <g id="line2d_2">
      <path d="M 82.7 396.252066 
L 589.972727 396.252066 
" clip-path="url(#p2fd26ae709)" style="fill: none; stroke: #ffffff; stroke-linecap: round"/>
     </g>
     <g id="text_6">
      <!-- 1000 -->
      <g style="fill: #262626" transform="translate(7.2 407.709254)scale(0.33 -0.33)">
       <defs>
        <path id="TimesNewRomanPSMT-31" d="M 750 3822 
L 1781 4325 
L 1884 4325 
L 1884 747 
Q 1884 391 1914 303 
Q 1944 216 2037 169 
Q 2131 122 2419 116 
L 2419 0 
L 825 0 
L 825 116 
Q 1125 122 1212 167 
Q 1300 213 1334 289 
Q 1369 366 1369 747 
L 1369 3034 
Q 1369 3497 1338 3628 
Q 1316 3728 1258 3775 
Q 1200 3822 1119 3822 
Q 1003 3822 797 3725 
L 750 3822 
z
" transform="scale(0.015625)"/>
       </defs>
       <use xlink:href="#TimesNewRomanPSMT-31"/>
       <use xlink:href="#TimesNewRomanPSMT-30" x="50"/>
       <use xlink:href="#TimesNewRomanPSMT-30" x="100"/>
       <use xlink:href="#TimesNewRomanPSMT-30" x="150"/>
      </g>
     </g>
    </g>
    <g id="ytick_3">
     <g id="line2d_3">
      <path d="M 82.7 296.417355 
L 589.972727 296.417355 
" clip-path="url(#p2fd26ae709)" style="fill: none; stroke: #ffffff; stroke-linecap: round"/>
     </g>
     <g id="text_7">
      <!-- 1500 -->
      <g style="fill: #262626" transform="translate(7.2 307.874543)scale(0.33 -0.33)">
       <use xlink:href="#TimesNewRomanPSMT-31"/>
       <use xlink:href="#TimesNewRomanPSMT-35" x="50"/>
       <use xlink:href="#TimesNewRomanPSMT-30" x="100"/>
       <use xlink:href="#TimesNewRomanPSMT-30" x="150"/>
      </g>
     </g>
    </g>
    <g id="ytick_4">
     <g id="line2d_4">
      <path d="M 82.7 196.582645 
L 589.972727 196.582645 
" clip-path="url(#p2fd26ae709)" style="fill: none; stroke: #ffffff; stroke-linecap: round"/>
     </g>
     <g id="text_8">
      <!-- 2000 -->
      <g style="fill: #262626" transform="translate(7.2 208.039832)scale(0.33 -0.33)">
       <defs>
        <path id="TimesNewRomanPSMT-32" d="M 2934 816 
L 2638 0 
L 138 0 
L 138 116 
Q 1241 1122 1691 1759 
Q 2141 2397 2141 2925 
Q 2141 3328 1894 3587 
Q 1647 3847 1303 3847 
Q 991 3847 742 3664 
Q 494 3481 375 3128 
L 259 3128 
Q 338 3706 661 4015 
Q 984 4325 1469 4325 
Q 1984 4325 2329 3994 
Q 2675 3663 2675 3213 
Q 2675 2891 2525 2569 
Q 2294 2063 1775 1497 
Q 997 647 803 472 
L 1909 472 
Q 2247 472 2383 497 
Q 2519 522 2628 598 
Q 2738 675 2819 816 
L 2934 816 
z
" transform="scale(0.015625)"/>
       </defs>
       <use xlink:href="#TimesNewRomanPSMT-32"/>
       <use xlink:href="#TimesNewRomanPSMT-30" x="50"/>
       <use xlink:href="#TimesNewRomanPSMT-30" x="100"/>
       <use xlink:href="#TimesNewRomanPSMT-30" x="150"/>
      </g>
     </g>
    </g>
    <g id="ytick_5">
     <g id="line2d_5">
      <path d="M 82.7 96.747934 
L 589.972727 96.747934 
" clip-path="url(#p2fd26ae709)" style="fill: none; stroke: #ffffff; stroke-linecap: round"/>
     </g>
     <g id="text_9">
      <!-- 2500 -->
      <g style="fill: #262626" transform="translate(7.2 108.205121)scale(0.33 -0.33)">
       <use xlink:href="#TimesNewRomanPSMT-32"/>
       <use xlink:href="#TimesNewRomanPSMT-35" x="50"/>
       <use xlink:href="#TimesNewRomanPSMT-30" x="100"/>
       <use xlink:href="#TimesNewRomanPSMT-30" x="150"/>
      </g>
     </g>
    </g>
   </g>
   <g id="patch_3">
    <path d="M 100.06 511.561157 
L 144.249091 511.561157 
L 144.249091 457.9 
L 100.06 457.9 
L 100.06 511.561157 
z
" clip-path="url(#p2fd26ae709)" style="fill: #cb3335; stroke: #484848; stroke-width: 1.5; stroke-linejoin: miter"/>
   </g>
   <g id="patch_4">
    <path d="M 145.150909 488.1 
L 189.34 488.1 
L 189.34 449.663636 
L 145.150909 449.663636 
L 145.150909 488.1 
z
" clip-path="url(#p2fd26ae709)" style="fill: #477ca8; stroke: #484848; stroke-width: 1.5; stroke-linejoin: miter"/>
   </g>
   <g id="patch_5">
    <path d="M 190.241818 468.133058 
L 234.430909 468.133058 
L 234.430909 389.263636 
L 190.241818 389.263636 
L 190.241818 468.133058 
z
" clip-path="url(#p2fd26ae709)" style="fill: #59a257; stroke: #484848; stroke-width: 1.5; stroke-linejoin: miter"/>
   </g>
   <g id="patch_6">
    <path d="M 269.150909 463.390909 
L 313.34 463.390909 
L 313.34 226.533058 
L 269.150909 226.533058 
L 269.150909 463.390909 
z
" clip-path="url(#p2fd26ae709)" style="fill: #cb3335; stroke: #484848; stroke-width: 1.5; stroke-linejoin: miter"/>
   </g>
   <g id="patch_7">
    <path d="M 314.241818 490.845455 
L 358.430909 490.845455 
L 358.430909 313.638843 
L 314.241818 313.638843 
L 314.241818 490.845455 
z
" clip-path="url(#p2fd26ae709)" style="fill: #477ca8; stroke: #484848; stroke-width: 1.5; stroke-linejoin: miter"/>
   </g>
   <g id="patch_8">
    <path d="M 359.332727 396.75124 
L 403.521818 396.75124 
L 403.521818 216.549587 
L 359.332727 216.549587 
L 359.332727 396.75124 
z
" clip-path="url(#p2fd26ae709)" style="fill: #59a257; stroke: #484848; stroke-width: 1.5; stroke-linejoin: miter"/>
   </g>
   <g id="patch_9">
    <path d="M 438.241818 440.428926 
L 482.430909 440.428926 
L 482.430909 287.931405 
L 438.241818 287.931405 
L 438.241818 440.428926 
z
" clip-path="url(#p2fd26ae709)" style="fill: #cb3335; stroke: #484848; stroke-width: 1.5; stroke-linejoin: miter"/>
   </g>
   <g id="patch_10">
    <path d="M 483.332727 328.114876 
L 527.521818 328.114876 
L 527.521818 183.354545 
L 483.332727 183.354545 
L 483.332727 328.114876 
z
" clip-path="url(#p2fd26ae709)" style="fill: #477ca8; stroke: #484848; stroke-width: 1.5; stroke-linejoin: miter"/>
   </g>
   <g id="patch_11">
    <path d="M 528.423636 258.729752 
L 572.612727 258.729752 
L 572.612727 186.1 
L 528.423636 186.1 
L 528.423636 258.729752 
z
" clip-path="url(#p2fd26ae709)" style="fill: #59a257; stroke: #484848; stroke-width: 1.5; stroke-linejoin: miter"/>
   </g>
   <g id="patch_12">
    <path d="M 167.245455 595.921488 
L 167.245455 595.921488 
L 167.245455 595.921488 
L 167.245455 595.921488 
z
" clip-path="url(#p2fd26ae709)" style="fill: #cb3335; stroke: #484848; stroke-width: 0.75; stroke-linejoin: miter"/>
   </g>
   <g id="patch_13">
    <path d="M 167.245455 595.921488 
L 167.245455 595.921488 
L 167.245455 595.921488 
L 167.245455 595.921488 
z
" clip-path="url(#p2fd26ae709)" style="fill: #477ca8; stroke: #484848; stroke-width: 0.75; stroke-linejoin: miter"/>
   </g>
   <g id="patch_14">
    <path d="M 167.245455 595.921488 
L 167.245455 595.921488 
L 167.245455 595.921488 
L 167.245455 595.921488 
z
" clip-path="url(#p2fd26ae709)" style="fill: #59a257; stroke: #484848; stroke-width: 0.75; stroke-linejoin: miter"/>
   </g>
   <g id="line2d_6">
    <path d="M 122.154545 511.561157 
L 122.154545 532.027273 
" clip-path="url(#p2fd26ae709)" style="fill: none; stroke: #484848; stroke-width: 1.5; stroke-linecap: round"/>
   </g>
   <g id="line2d_7">
    <path d="M 122.154545 457.9 
L 122.154545 455.154545 
" clip-path="url(#p2fd26ae709)" style="fill: none; stroke: #484848; stroke-width: 1.5; stroke-linecap: round"/>
   </g>
   <g id="line2d_8">
    <path d="M 111.107273 532.027273 
L 133.201818 532.027273 
" clip-path="url(#p2fd26ae709)" style="fill: none; stroke: #484848; stroke-width: 1.5; stroke-linecap: round"/>
   </g>
   <g id="line2d_9">
    <path d="M 111.107273 455.154545 
L 133.201818 455.154545 
" clip-path="url(#p2fd26ae709)" style="fill: none; stroke: #484848; stroke-width: 1.5; stroke-linecap: round"/>
   </g>
   <g id="line2d_10">
    <defs>
     <path id="m3b8c8be4e6" d="M 0 3.535534 
L 2.12132 0 
L 0 -3.535534 
L -2.12132 0 
z
" style="stroke: #484848; stroke-linejoin: miter"/>
    </defs>
    <g clip-path="url(#p2fd26ae709)">
     <use xlink:href="#m3b8c8be4e6" x="122.154545" y="301.409091" style="fill: #484848; stroke: #484848; stroke-linejoin: miter"/>
    </g>
   </g>
   <g id="line2d_11">
    <path d="M 167.245455 488.1 
L 167.245455 510.063636 
" clip-path="url(#p2fd26ae709)" style="fill: none; stroke: #484848; stroke-width: 1.5; stroke-linecap: round"/>
   </g>
   <g id="line2d_12">
    <path d="M 167.245455 449.663636 
L 167.245455 422.209091 
" clip-path="url(#p2fd26ae709)" style="fill: none; stroke: #484848; stroke-width: 1.5; stroke-linecap: round"/>
   </g>
   <g id="line2d_13">
    <path d="M 156.198182 510.063636 
L 178.292727 510.063636 
" clip-path="url(#p2fd26ae709)" style="fill: none; stroke: #484848; stroke-width: 1.5; stroke-linecap: round"/>
   </g>
   <g id="line2d_14">
    <path d="M 156.198182 422.209091 
L 178.292727 422.209091 
" clip-path="url(#p2fd26ae709)" style="fill: none; stroke: #484848; stroke-width: 1.5; stroke-linecap: round"/>
   </g>
   <g id="line2d_15">
    <g clip-path="url(#p2fd26ae709)">
     <use xlink:href="#m3b8c8be4e6" x="167.245455" y="158.645455" style="fill: #484848; stroke: #484848; stroke-linejoin: miter"/>
    </g>
   </g>
   <g id="line2d_16">
    <path d="M 212.336364 468.133058 
L 212.336364 510.063636 
" clip-path="url(#p2fd26ae709)" style="fill: none; stroke: #484848; stroke-width: 1.5; stroke-linecap: round"/>
   </g>
   <g id="line2d_17">
    <path d="M 212.336364 389.263636 
L 212.336364 279.445455 
" clip-path="url(#p2fd26ae709)" style="fill: none; stroke: #484848; stroke-width: 1.5; stroke-linecap: round"/>
   </g>
   <g id="line2d_18">
    <path d="M 201.289091 510.063636 
L 223.383636 510.063636 
" clip-path="url(#p2fd26ae709)" style="fill: none; stroke: #484848; stroke-width: 1.5; stroke-linecap: round"/>
   </g>
   <g id="line2d_19">
    <path d="M 201.289091 279.445455 
L 223.383636 279.445455 
" clip-path="url(#p2fd26ae709)" style="fill: none; stroke: #484848; stroke-width: 1.5; stroke-linecap: round"/>
   </g>
   <g id="line2d_20"/>
   <g id="line2d_21">
    <path d="M 291.245455 463.390909 
L 291.245455 521.045455 
" clip-path="url(#p2fd26ae709)" style="fill: none; stroke: #484848; stroke-width: 1.5; stroke-linecap: round"/>
   </g>
   <g id="line2d_22">
    <path d="M 291.245455 226.533058 
L 291.245455 169.627273 
" clip-path="url(#p2fd26ae709)" style="fill: none; stroke: #484848; stroke-width: 1.5; stroke-linecap: round"/>
   </g>
   <g id="line2d_23">
    <path d="M 280.198182 521.045455 
L 302.292727 521.045455 
" clip-path="url(#p2fd26ae709)" style="fill: none; stroke: #484848; stroke-width: 1.5; stroke-linecap: round"/>
   </g>
   <g id="line2d_24">
    <path d="M 280.198182 169.627273 
L 302.292727 169.627273 
" clip-path="url(#p2fd26ae709)" style="fill: none; stroke: #484848; stroke-width: 1.5; stroke-linecap: round"/>
   </g>
   <g id="line2d_25"/>
   <g id="line2d_26">
    <path d="M 336.336364 490.845455 
L 336.336364 553.990909 
" clip-path="url(#p2fd26ae709)" style="fill: none; stroke: #484848; stroke-width: 1.5; stroke-linecap: round"/>
   </g>
   <g id="line2d_27">
    <path d="M 336.336364 313.638843 
L 336.336364 144.668595 
" clip-path="url(#p2fd26ae709)" style="fill: none; stroke: #484848; stroke-width: 1.5; stroke-linecap: round"/>
   </g>
   <g id="line2d_28">
    <path d="M 325.289091 553.990909 
L 347.383636 553.990909 
" clip-path="url(#p2fd26ae709)" style="fill: none; stroke: #484848; stroke-width: 1.5; stroke-linecap: round"/>
   </g>
   <g id="line2d_29">
    <path d="M 325.289091 144.668595 
L 347.383636 144.668595 
" clip-path="url(#p2fd26ae709)" style="fill: none; stroke: #484848; stroke-width: 1.5; stroke-linecap: round"/>
   </g>
   <g id="line2d_30"/>
   <g id="line2d_31">
    <path d="M 381.427273 396.75124 
L 381.427273 445.171074 
" clip-path="url(#p2fd26ae709)" style="fill: none; stroke: #484848; stroke-width: 1.5; stroke-linecap: round"/>
   </g>
   <g id="line2d_32">
    <path d="M 381.427273 216.549587 
L 381.427273 65.799174 
" clip-path="url(#p2fd26ae709)" style="fill: none; stroke: #484848; stroke-width: 1.5; stroke-linecap: round"/>
   </g>
   <g id="line2d_33">
    <path d="M 370.38 445.171074 
L 392.474545 445.171074 
" clip-path="url(#p2fd26ae709)" style="fill: none; stroke: #484848; stroke-width: 1.5; stroke-linecap: round"/>
   </g>
   <g id="line2d_34">
    <path d="M 370.38 65.799174 
L 392.474545 65.799174 
" clip-path="url(#p2fd26ae709)" style="fill: none; stroke: #484848; stroke-width: 1.5; stroke-linecap: round"/>
   </g>
   <g id="line2d_35"/>
   <g id="line2d_36">
    <path d="M 460.336364 440.428926 
L 460.336364 498.083471 
" clip-path="url(#p2fd26ae709)" style="fill: none; stroke: #484848; stroke-width: 1.5; stroke-linecap: round"/>
   </g>
   <g id="line2d_37">
    <path d="M 460.336364 287.931405 
L 460.336364 59.809091 
" clip-path="url(#p2fd26ae709)" style="fill: none; stroke: #484848; stroke-width: 1.5; stroke-linecap: round"/>
   </g>
   <g id="line2d_38">
    <path d="M 449.289091 498.083471 
L 471.383636 498.083471 
" clip-path="url(#p2fd26ae709)" style="fill: none; stroke: #484848; stroke-width: 1.5; stroke-linecap: round"/>
   </g>
   <g id="line2d_39">
    <path d="M 449.289091 59.809091 
L 471.383636 59.809091 
" clip-path="url(#p2fd26ae709)" style="fill: none; stroke: #484848; stroke-width: 1.5; stroke-linecap: round"/>
   </g>
   <g id="line2d_40"/>
   <g id="line2d_41">
    <path d="M 505.427273 328.114876 
L 505.427273 385.270248 
" clip-path="url(#p2fd26ae709)" style="fill: none; stroke: #484848; stroke-width: 1.5; stroke-linecap: round"/>
   </g>
   <g id="line2d_42">
    <path d="M 505.427273 183.354545 
L 505.427273 103.736364 
" clip-path="url(#p2fd26ae709)" style="fill: none; stroke: #484848; stroke-width: 1.5; stroke-linecap: round"/>
   </g>
   <g id="line2d_43">
    <path d="M 494.38 385.270248 
L 516.474545 385.270248 
" clip-path="url(#p2fd26ae709)" style="fill: none; stroke: #484848; stroke-width: 1.5; stroke-linecap: round"/>
   </g>
   <g id="line2d_44">
    <path d="M 494.38 103.736364 
L 516.474545 103.736364 
" clip-path="url(#p2fd26ae709)" style="fill: none; stroke: #484848; stroke-width: 1.5; stroke-linecap: round"/>
   </g>
   <g id="line2d_45"/>
   <g id="line2d_46">
    <path d="M 550.518182 258.729752 
L 550.518182 331.359504 
" clip-path="url(#p2fd26ae709)" style="fill: none; stroke: #484848; stroke-width: 1.5; stroke-linecap: round"/>
   </g>
   <g id="line2d_47">
    <path d="M 550.518182 186.1 
L 550.518182 81.772727 
" clip-path="url(#p2fd26ae709)" style="fill: none; stroke: #484848; stroke-width: 1.5; stroke-linecap: round"/>
   </g>
   <g id="line2d_48">
    <path d="M 539.470909 331.359504 
L 561.565455 331.359504 
" clip-path="url(#p2fd26ae709)" style="fill: none; stroke: #484848; stroke-width: 1.5; stroke-linecap: round"/>
   </g>
   <g id="line2d_49">
    <path d="M 539.470909 81.772727 
L 561.565455 81.772727 
" clip-path="url(#p2fd26ae709)" style="fill: none; stroke: #484848; stroke-width: 1.5; stroke-linecap: round"/>
   </g>
   <g id="line2d_50"/>
   <g id="line2d_51">
    <path d="M 100.06 488.1 
L 144.249091 488.1 
" clip-path="url(#p2fd26ae709)" style="fill: none; stroke: #484848; stroke-width: 1.5; stroke-linecap: round"/>
   </g>
   <g id="line2d_52">
    <path d="M 145.150909 477.118182 
L 189.34 477.118182 
" clip-path="url(#p2fd26ae709)" style="fill: none; stroke: #484848; stroke-width: 1.5; stroke-linecap: round"/>
   </g>
   <g id="line2d_53">
    <path d="M 190.241818 422.209091 
L 234.430909 422.209091 
" clip-path="url(#p2fd26ae709)" style="fill: none; stroke: #484848; stroke-width: 1.5; stroke-linecap: round"/>
   </g>
   <g id="line2d_54">
    <path d="M 269.150909 247.498347 
L 313.34 247.498347 
" clip-path="url(#p2fd26ae709)" style="fill: none; stroke: #484848; stroke-width: 1.5; stroke-linecap: round"/>
   </g>
   <g id="line2d_55">
    <path d="M 314.241818 339.346281 
L 358.430909 339.346281 
" clip-path="url(#p2fd26ae709)" style="fill: none; stroke: #484848; stroke-width: 1.5; stroke-linecap: round"/>
   </g>
   <g id="line2d_56">
    <path d="M 359.332727 269.961157 
L 403.521818 269.961157 
" clip-path="url(#p2fd26ae709)" style="fill: none; stroke: #484848; stroke-width: 1.5; stroke-linecap: round"/>
   </g>
   <g id="line2d_57">
    <path d="M 438.241818 357.316529 
L 482.430909 357.316529 
" clip-path="url(#p2fd26ae709)" style="fill: none; stroke: #484848; stroke-width: 1.5; stroke-linecap: round"/>
   </g>
   <g id="line2d_58">
    <path d="M 483.332727 239.51157 
L 527.521818 239.51157 
" clip-path="url(#p2fd26ae709)" style="fill: none; stroke: #484848; stroke-width: 1.5; stroke-linecap: round"/>
   </g>
   <g id="line2d_59">
    <path d="M 528.423636 238.513223 
L 572.612727 238.513223 
" clip-path="url(#p2fd26ae709)" style="fill: none; stroke: #484848; stroke-width: 1.5; stroke-linecap: round"/>
   </g>
   <g id="patch_15">
    <path d="M 82.7 578.7 
L 82.7 35.1 
" style="fill: none; stroke: #ffffff; stroke-width: 1.25; stroke-linejoin: miter; stroke-linecap: square"/>
   </g>
   <g id="patch_16">
    <path d="M 589.972727 578.7 
L 589.972727 35.1 
" style="fill: none; stroke: #ffffff; stroke-width: 1.25; stroke-linejoin: miter; stroke-linecap: square"/>
   </g>
   <g id="patch_17">
    <path d="M 82.7 578.7 
L 589.972727 578.7 
" style="fill: none; stroke: #ffffff; stroke-width: 1.25; stroke-linejoin: miter; stroke-linecap: square"/>
   </g>
   <g id="patch_18">
    <path d="M 82.7 35.1 
L 589.972727 35.1 
" style="fill: none; stroke: #ffffff; stroke-width: 1.25; stroke-linejoin: miter; stroke-linecap: square"/>
   </g>
   <g id="text_10">
    <!-- (a) $TN$ (mg/kg) -->
    <g style="fill: #262626" transform="translate(243.336364 29.1)scale(0.3 -0.3)">
     <defs>
      <path id="TimesNewRomanPSMT-28" d="M 1988 -1253 
L 1988 -1369 
Q 1516 -1131 1200 -813 
Q 750 -359 506 256 
Q 263 872 263 1534 
Q 263 2503 741 3301 
Q 1219 4100 1988 4444 
L 1988 4313 
Q 1603 4100 1356 3731 
Q 1109 3363 987 2797 
Q 866 2231 866 1616 
Q 866 947 969 400 
Q 1050 -31 1165 -292 
Q 1281 -553 1476 -793 
Q 1672 -1034 1988 -1253 
z
" transform="scale(0.015625)"/>
      <path id="TimesNewRomanPSMT-29" d="M 144 4313 
L 144 4444 
Q 619 4209 934 3891 
Q 1381 3434 1625 2820 
Q 1869 2206 1869 1541 
Q 1869 572 1392 -226 
Q 916 -1025 144 -1369 
L 144 -1253 
Q 528 -1038 776 -670 
Q 1025 -303 1145 264 
Q 1266 831 1266 1447 
Q 1266 2113 1163 2663 
Q 1084 3094 967 3353 
Q 850 3613 656 3853 
Q 463 4094 144 4313 
z
" transform="scale(0.015625)"/>
      <path id="DejaVuSans-Oblique-54" d="M 378 4666 
L 4325 4666 
L 4225 4134 
L 2559 4134 
L 1759 0 
L 1125 0 
L 1925 4134 
L 275 4134 
L 378 4666 
z
" transform="scale(0.015625)"/>
      <path id="DejaVuSans-Oblique-4e" d="M 1081 4666 
L 1931 4666 
L 3219 666 
L 4000 4666 
L 4616 4666 
L 3706 0 
L 2853 0 
L 1569 4025 
L 788 0 
L 172 0 
L 1081 4666 
z
" transform="scale(0.015625)"/>
      <path id="TimesNewRomanPSMT-6d" d="M 1050 2338 
Q 1363 2650 1419 2697 
Q 1559 2816 1721 2881 
Q 1884 2947 2044 2947 
Q 2313 2947 2506 2790 
Q 2700 2634 2766 2338 
Q 3088 2713 3309 2830 
Q 3531 2947 3766 2947 
Q 3994 2947 4170 2830 
Q 4347 2713 4450 2447 
Q 4519 2266 4519 1878 
L 4519 647 
Q 4519 378 4559 278 
Q 4591 209 4675 161 
Q 4759 113 4950 113 
L 4950 0 
L 3538 0 
L 3538 113 
L 3597 113 
Q 3781 113 3884 184 
Q 3956 234 3988 344 
Q 4000 397 4000 647 
L 4000 1878 
Q 4000 2228 3916 2372 
Q 3794 2572 3525 2572 
Q 3359 2572 3192 2489 
Q 3025 2406 2788 2181 
L 2781 2147 
L 2788 2013 
L 2788 647 
Q 2788 353 2820 281 
Q 2853 209 2943 161 
Q 3034 113 3253 113 
L 3253 0 
L 1806 0 
L 1806 113 
Q 2044 113 2133 169 
Q 2222 225 2256 338 
Q 2272 391 2272 647 
L 2272 1878 
Q 2272 2228 2169 2381 
Q 2031 2581 1784 2581 
Q 1616 2581 1450 2491 
Q 1191 2353 1050 2181 
L 1050 647 
Q 1050 366 1089 281 
Q 1128 197 1204 155 
Q 1281 113 1516 113 
L 1516 0 
L 100 0 
L 100 113 
Q 297 113 375 155 
Q 453 197 493 289 
Q 534 381 534 647 
L 534 1741 
Q 534 2213 506 2350 
Q 484 2453 437 2492 
Q 391 2531 309 2531 
Q 222 2531 100 2484 
L 53 2597 
L 916 2947 
L 1050 2947 
L 1050 2338 
z
" transform="scale(0.015625)"/>
      <path id="TimesNewRomanPSMT-67" d="M 966 1044 
Q 703 1172 562 1401 
Q 422 1631 422 1909 
Q 422 2334 742 2640 
Q 1063 2947 1563 2947 
Q 1972 2947 2272 2747 
L 2878 2747 
Q 3013 2747 3034 2739 
Q 3056 2731 3066 2713 
Q 3084 2684 3084 2613 
Q 3084 2531 3069 2500 
Q 3059 2484 3036 2475 
Q 3013 2466 2878 2466 
L 2506 2466 
Q 2681 2241 2681 1891 
Q 2681 1491 2375 1206 
Q 2069 922 1553 922 
Q 1341 922 1119 984 
Q 981 866 932 777 
Q 884 688 884 625 
Q 884 572 936 522 
Q 988 472 1138 450 
Q 1225 438 1575 428 
Q 2219 413 2409 384 
Q 2700 344 2873 169 
Q 3047 -6 3047 -263 
Q 3047 -616 2716 -925 
Q 2228 -1381 1444 -1381 
Q 841 -1381 425 -1109 
Q 191 -953 191 -784 
Q 191 -709 225 -634 
Q 278 -519 444 -313 
Q 466 -284 763 25 
Q 600 122 533 198 
Q 466 275 466 372 
Q 466 481 555 628 
Q 644 775 966 1044 
z
M 1509 2797 
Q 1278 2797 1122 2612 
Q 966 2428 966 2047 
Q 966 1553 1178 1281 
Q 1341 1075 1591 1075 
Q 1828 1075 1981 1253 
Q 2134 1431 2134 1813 
Q 2134 2309 1919 2591 
Q 1759 2797 1509 2797 
z
M 934 0 
Q 788 -159 713 -296 
Q 638 -434 638 -550 
Q 638 -700 819 -813 
Q 1131 -1006 1722 -1006 
Q 2284 -1006 2551 -807 
Q 2819 -609 2819 -384 
Q 2819 -222 2659 -153 
Q 2497 -84 2016 -72 
Q 1313 -53 934 0 
z
" transform="scale(0.015625)"/>
      <path id="TimesNewRomanPSMT-2f" d="M 1794 4444 
L 259 -88 
L 9 -88 
L 1544 4444 
L 1794 4444 
z
" transform="scale(0.015625)"/>
      <path id="TimesNewRomanPSMT-6b" d="M 1047 4444 
L 1047 1597 
L 1775 2259 
Q 2006 2472 2044 2528 
Q 2069 2566 2069 2603 
Q 2069 2666 2017 2711 
Q 1966 2756 1847 2763 
L 1847 2863 
L 3091 2863 
L 3091 2763 
Q 2834 2756 2664 2684 
Q 2494 2613 2291 2428 
L 1556 1750 
L 2291 822 
Q 2597 438 2703 334 
Q 2853 188 2966 144 
Q 3044 113 3238 113 
L 3238 0 
L 1847 0 
L 1847 113 
Q 1966 116 2008 148 
Q 2050 181 2050 241 
Q 2050 313 1925 472 
L 1047 1594 
L 1047 644 
Q 1047 366 1086 278 
Q 1125 191 1197 153 
Q 1269 116 1509 113 
L 1509 0 
L 53 0 
L 53 113 
Q 272 113 381 166 
Q 447 200 481 272 
Q 528 375 528 628 
L 528 3234 
Q 528 3731 506 3842 
Q 484 3953 434 3995 
Q 384 4038 303 4038 
Q 238 4038 106 3984 
L 53 4094 
L 903 4444 
L 1047 4444 
z
" transform="scale(0.015625)"/>
     </defs>
     <use xlink:href="#TimesNewRomanPSMT-28" transform="translate(0 0.09375)"/>
     <use xlink:href="#TimesNewRomanPSMT-61" transform="translate(33.300781 0.09375)"/>
     <use xlink:href="#TimesNewRomanPSMT-29" transform="translate(77.685547 0.09375)"/>
     <use xlink:href="#TimesNewRomanPSMT-20" transform="translate(110.986328 0.09375)"/>
     <use xlink:href="#DejaVuSans-Oblique-54" transform="translate(135.986328 0.09375)"/>
     <use xlink:href="#DejaVuSans-Oblique-4e" transform="translate(197.070312 0.09375)"/>
     <use xlink:href="#TimesNewRomanPSMT-20" transform="translate(271.875 0.09375)"/>
     <use xlink:href="#TimesNewRomanPSMT-28" transform="translate(296.875 0.09375)"/>
     <use xlink:href="#TimesNewRomanPSMT-6d" transform="translate(330.175781 0.09375)"/>
     <use xlink:href="#TimesNewRomanPSMT-67" transform="translate(407.958984 0.09375)"/>
     <use xlink:href="#TimesNewRomanPSMT-2f" transform="translate(457.958984 0.09375)"/>
     <use xlink:href="#TimesNewRomanPSMT-6b" transform="translate(485.742188 0.09375)"/>
     <use xlink:href="#TimesNewRomanPSMT-67" transform="translate(535.742188 0.09375)"/>
     <use xlink:href="#TimesNewRomanPSMT-29" transform="translate(585.742188 0.09375)"/>
    </g>
   </g>
  </g>
  <g id="axes_2">
   <g id="patch_19">
    <path d="M 691.427273 578.7 
L 1198.7 578.7 
L 1198.7 35.1 
L 691.427273 35.1 
z
" style="fill: #eaeaf2"/>
   </g>
   <g id="matplotlib.axis_3">
    <g id="xtick_4">
     <g id="text_11">
      <!-- Dry Season -->
      <g style="fill: #262626" transform="translate(783.838587 741.263281)rotate(-90)scale(0.33 -0.33)">
       <use xlink:href="#TimesNewRomanPSMT-44"/>
       <use xlink:href="#TimesNewRomanPSMT-72" x="72.216797"/>
       <use xlink:href="#TimesNewRomanPSMT-79" x="105.517578"/>
       <use xlink:href="#TimesNewRomanPSMT-20" x="155.517578"/>
       <use xlink:href="#TimesNewRomanPSMT-53" x="180.517578"/>
       <use xlink:href="#TimesNewRomanPSMT-65" x="236.132812"/>
       <use xlink:href="#TimesNewRomanPSMT-61" x="280.517578"/>
       <use xlink:href="#TimesNewRomanPSMT-73" x="324.902344"/>
       <use xlink:href="#TimesNewRomanPSMT-6f" x="363.818359"/>
       <use xlink:href="#TimesNewRomanPSMT-6e" x="413.818359"/>
      </g>
     </g>
    </g>
    <g id="xtick_5">
     <g id="text_12">
      <!-- Level Season -->
      <g style="fill: #262626" transform="translate(952.991371 765.064531)rotate(-90)scale(0.33 -0.33)">
       <use xlink:href="#TimesNewRomanPSMT-4c"/>
       <use xlink:href="#TimesNewRomanPSMT-65" x="61.083984"/>
       <use xlink:href="#TimesNewRomanPSMT-76" x="105.46875"/>
       <use xlink:href="#TimesNewRomanPSMT-65" x="155.46875"/>
       <use xlink:href="#TimesNewRomanPSMT-6c" x="199.853516"/>
       <use xlink:href="#TimesNewRomanPSMT-20" x="227.636719"/>
       <use xlink:href="#TimesNewRomanPSMT-53" x="252.636719"/>
       <use xlink:href="#TimesNewRomanPSMT-65" x="308.251953"/>
       <use xlink:href="#TimesNewRomanPSMT-61" x="352.636719"/>
       <use xlink:href="#TimesNewRomanPSMT-73" x="397.021484"/>
       <use xlink:href="#TimesNewRomanPSMT-6f" x="435.9375"/>
       <use xlink:href="#TimesNewRomanPSMT-6e" x="485.9375"/>
      </g>
     </g>
    </g>
    <g id="xtick_6">
     <g id="text_13">
      <!-- Wet Season -->
      <g style="fill: #262626" transform="translate(1122.08228 742.26875)rotate(-90)scale(0.33 -0.33)">
       <use xlink:href="#TimesNewRomanPSMT-57"/>
       <use xlink:href="#TimesNewRomanPSMT-65" x="86.384766"/>
       <use xlink:href="#TimesNewRomanPSMT-74" x="130.769531"/>
       <use xlink:href="#TimesNewRomanPSMT-20" x="158.552734"/>
       <use xlink:href="#TimesNewRomanPSMT-53" x="183.552734"/>
       <use xlink:href="#TimesNewRomanPSMT-65" x="239.167969"/>
       <use xlink:href="#TimesNewRomanPSMT-61" x="283.552734"/>
       <use xlink:href="#TimesNewRomanPSMT-73" x="327.9375"/>
       <use xlink:href="#TimesNewRomanPSMT-6f" x="366.853516"/>
       <use xlink:href="#TimesNewRomanPSMT-6e" x="416.853516"/>
      </g>
     </g>
    </g>
    <g id="text_14">
     <!-- Period -->
     <g style="fill: #262626" transform="translate(898.069574 794.062031)scale(0.36 -0.36)">
      <use xlink:href="#TimesNewRomanPSMT-50"/>
      <use xlink:href="#TimesNewRomanPSMT-65" x="55.615234"/>
      <use xlink:href="#TimesNewRomanPSMT-72" x="100"/>
      <use xlink:href="#TimesNewRomanPSMT-69" x="133.300781"/>
      <use xlink:href="#TimesNewRomanPSMT-6f" x="161.083984"/>
      <use xlink:href="#TimesNewRomanPSMT-64" x="211.083984"/>
     </g>
    </g>
   </g>
   <g id="matplotlib.axis_4">
    <g id="ytick_6">
     <g id="line2d_60">
      <path d="M 691.427273 502.381446 
L 1198.7 502.381446 
" clip-path="url(#p2ba088f32b)" style="fill: none; stroke: #ffffff; stroke-linecap: round"/>
     </g>
     <g id="text_15">
      <!-- 800 -->
      <g style="fill: #262626" transform="translate(632.427273 513.838634)scale(0.33 -0.33)">
       <defs>
        <path id="TimesNewRomanPSMT-38" d="M 1228 2134 
Q 725 2547 579 2797 
Q 434 3047 434 3316 
Q 434 3728 753 4026 
Q 1072 4325 1600 4325 
Q 2113 4325 2425 4047 
Q 2738 3769 2738 3413 
Q 2738 3175 2569 2928 
Q 2400 2681 1866 2347 
Q 2416 1922 2594 1678 
Q 2831 1359 2831 1006 
Q 2831 559 2490 242 
Q 2150 -75 1597 -75 
Q 994 -75 656 303 
Q 388 606 388 966 
Q 388 1247 577 1523 
Q 766 1800 1228 2134 
z
M 1719 2469 
Q 2094 2806 2194 3001 
Q 2294 3197 2294 3444 
Q 2294 3772 2109 3958 
Q 1925 4144 1606 4144 
Q 1288 4144 1088 3959 
Q 888 3775 888 3528 
Q 888 3366 970 3203 
Q 1053 3041 1206 2894 
L 1719 2469 
z
M 1375 2016 
Q 1116 1797 991 1539 
Q 866 1281 866 981 
Q 866 578 1086 336 
Q 1306 94 1647 94 
Q 1984 94 2187 284 
Q 2391 475 2391 747 
Q 2391 972 2272 1150 
Q 2050 1481 1375 2016 
z
" transform="scale(0.015625)"/>
       </defs>
       <use xlink:href="#TimesNewRomanPSMT-38"/>
       <use xlink:href="#TimesNewRomanPSMT-30" x="50"/>
       <use xlink:href="#TimesNewRomanPSMT-30" x="100"/>
      </g>
     </g>
    </g>
    <g id="ytick_7">
     <g id="line2d_61">
      <path d="M 691.427273 422.453518 
L 1198.7 422.453518 
" clip-path="url(#p2ba088f32b)" style="fill: none; stroke: #ffffff; stroke-linecap: round"/>
     </g>
     <g id="text_16">
      <!-- 900 -->
      <g style="fill: #262626" transform="translate(632.427273 433.910706)scale(0.33 -0.33)">
       <defs>
        <path id="TimesNewRomanPSMT-39" d="M 338 -88 
L 338 28 
Q 744 34 1094 217 
Q 1444 400 1770 856 
Q 2097 1313 2225 1859 
Q 1734 1544 1338 1544 
Q 891 1544 572 1889 
Q 253 2234 253 2806 
Q 253 3363 572 3797 
Q 956 4325 1575 4325 
Q 2097 4325 2469 3894 
Q 2925 3359 2925 2575 
Q 2925 1869 2578 1258 
Q 2231 647 1613 244 
Q 1109 -88 516 -88 
L 338 -88 
z
M 2275 2091 
Q 2331 2497 2331 2741 
Q 2331 3044 2228 3395 
Q 2125 3747 1936 3934 
Q 1747 4122 1506 4122 
Q 1228 4122 1018 3872 
Q 809 3622 809 3128 
Q 809 2469 1088 2097 
Q 1291 1828 1588 1828 
Q 1731 1828 1928 1897 
Q 2125 1966 2275 2091 
z
" transform="scale(0.015625)"/>
       </defs>
       <use xlink:href="#TimesNewRomanPSMT-39"/>
       <use xlink:href="#TimesNewRomanPSMT-30" x="50"/>
       <use xlink:href="#TimesNewRomanPSMT-30" x="100"/>
      </g>
     </g>
    </g>
    <g id="ytick_8">
     <g id="line2d_62">
      <path d="M 691.427273 342.52559 
L 1198.7 342.52559 
" clip-path="url(#p2ba088f32b)" style="fill: none; stroke: #ffffff; stroke-linecap: round"/>
     </g>
     <g id="text_17">
      <!-- 1000 -->
      <g style="fill: #262626" transform="translate(615.927273 353.982778)scale(0.33 -0.33)">
       <use xlink:href="#TimesNewRomanPSMT-31"/>
       <use xlink:href="#TimesNewRomanPSMT-30" x="50"/>
       <use xlink:href="#TimesNewRomanPSMT-30" x="100"/>
       <use xlink:href="#TimesNewRomanPSMT-30" x="150"/>
      </g>
     </g>
    </g>
    <g id="ytick_9">
     <g id="line2d_63">
      <path d="M 691.427273 262.597662 
L 1198.7 262.597662 
" clip-path="url(#p2ba088f32b)" style="fill: none; stroke: #ffffff; stroke-linecap: round"/>
     </g>
     <g id="text_18">
      <!-- 1100 -->
      <g style="fill: #262626" transform="translate(617.164773 274.05485)scale(0.33 -0.33)">
       <use xlink:href="#TimesNewRomanPSMT-31"/>
       <use xlink:href="#TimesNewRomanPSMT-31" x="46.25"/>
       <use xlink:href="#TimesNewRomanPSMT-30" x="96.25"/>
       <use xlink:href="#TimesNewRomanPSMT-30" x="146.25"/>
      </g>
     </g>
    </g>
    <g id="ytick_10">
     <g id="line2d_64">
      <path d="M 691.427273 182.669735 
L 1198.7 182.669735 
" clip-path="url(#p2ba088f32b)" style="fill: none; stroke: #ffffff; stroke-linecap: round"/>
     </g>
     <g id="text_19">
      <!-- 1200 -->
      <g style="fill: #262626" transform="translate(615.927273 194.126922)scale(0.33 -0.33)">
       <use xlink:href="#TimesNewRomanPSMT-31"/>
       <use xlink:href="#TimesNewRomanPSMT-32" x="50"/>
       <use xlink:href="#TimesNewRomanPSMT-30" x="100"/>
       <use xlink:href="#TimesNewRomanPSMT-30" x="150"/>
      </g>
     </g>
    </g>
    <g id="ytick_11">
     <g id="line2d_65">
      <path d="M 691.427273 102.741807 
L 1198.7 102.741807 
" clip-path="url(#p2ba088f32b)" style="fill: none; stroke: #ffffff; stroke-linecap: round"/>
     </g>
     <g id="text_20">
      <!-- 1300 -->
      <g style="fill: #262626" transform="translate(615.927273 114.198994)scale(0.33 -0.33)">
       <defs>
        <path id="TimesNewRomanPSMT-33" d="M 325 3431 
Q 506 3859 782 4092 
Q 1059 4325 1472 4325 
Q 1981 4325 2253 3994 
Q 2459 3747 2459 3466 
Q 2459 3003 1878 2509 
Q 2269 2356 2469 2072 
Q 2669 1788 2669 1403 
Q 2669 853 2319 450 
Q 1863 -75 997 -75 
Q 569 -75 414 31 
Q 259 138 259 259 
Q 259 350 332 419 
Q 406 488 509 488 
Q 588 488 669 463 
Q 722 447 909 348 
Q 1097 250 1169 231 
Q 1284 197 1416 197 
Q 1734 197 1970 444 
Q 2206 691 2206 1028 
Q 2206 1275 2097 1509 
Q 2016 1684 1919 1775 
Q 1784 1900 1550 2001 
Q 1316 2103 1072 2103 
L 972 2103 
L 972 2197 
Q 1219 2228 1467 2375 
Q 1716 2522 1828 2728 
Q 1941 2934 1941 3181 
Q 1941 3503 1739 3701 
Q 1538 3900 1238 3900 
Q 753 3900 428 3381 
L 325 3431 
z
" transform="scale(0.015625)"/>
       </defs>
       <use xlink:href="#TimesNewRomanPSMT-31"/>
       <use xlink:href="#TimesNewRomanPSMT-33" x="50"/>
       <use xlink:href="#TimesNewRomanPSMT-30" x="100"/>
       <use xlink:href="#TimesNewRomanPSMT-30" x="150"/>
      </g>
     </g>
    </g>
   </g>
   <g id="patch_20">
    <path d="M 708.787273 508.918409 
L 752.976364 508.918409 
L 752.976364 499.070146 
L 708.787273 499.070146 
L 708.787273 508.918409 
z
" clip-path="url(#p2ba088f32b)" style="fill: #cb3335; stroke: #484848; stroke-width: 1.5; stroke-linejoin: miter"/>
   </g>
   <g id="patch_21">
    <path d="M 753.878182 524.5329 
L 798.067273 524.5329 
L 798.067273 506.492025 
L 753.878182 506.492025 
L 753.878182 524.5329 
z
" clip-path="url(#p2ba088f32b)" style="fill: #477ca8; stroke: #484848; stroke-width: 1.5; stroke-linejoin: miter"/>
   </g>
   <g id="patch_22">
    <path d="M 798.969091 430.446311 
L 843.158182 430.446311 
L 843.158182 413.318898 
L 798.969091 413.318898 
L 798.969091 430.446311 
z
" clip-path="url(#p2ba088f32b)" style="fill: #59a257; stroke: #484848; stroke-width: 1.5; stroke-linejoin: miter"/>
   </g>
   <g id="patch_23">
    <path d="M 877.878182 525.334749 
L 922.067273 525.334749 
L 922.067273 413.317756 
L 877.878182 413.317756 
L 877.878182 525.334749 
z
" clip-path="url(#p2ba088f32b)" style="fill: #cb3335; stroke: #484848; stroke-width: 1.5; stroke-linejoin: miter"/>
   </g>
   <g id="patch_24">
    <path d="M 922.969091 538.464909 
L 967.158182 538.464909 
L 967.158182 482.629257 
L 922.969091 482.629257 
L 922.969091 538.464909 
z
" clip-path="url(#p2ba088f32b)" style="fill: #477ca8; stroke: #484848; stroke-width: 1.5; stroke-linejoin: miter"/>
   </g>
   <g id="patch_25">
    <path d="M 968.06 494.500552 
L 1012.249091 494.500552 
L 1012.249091 397.334169 
L 968.06 397.334169 
L 968.06 494.500552 
z
" clip-path="url(#p2ba088f32b)" style="fill: #59a257; stroke: #484848; stroke-width: 1.5; stroke-linejoin: miter"/>
   </g>
   <g id="patch_26">
    <path d="M 1046.969091 384.544844 
L 1091.158182 384.544844 
L 1091.158182 137.910095 
L 1046.969091 137.910095 
L 1046.969091 384.544844 
z
" clip-path="url(#p2ba088f32b)" style="fill: #cb3335; stroke: #484848; stroke-width: 1.5; stroke-linejoin: miter"/>
   </g>
   <g id="patch_27">
    <path d="M 1092.06 503.066543 
L 1136.249091 503.066543 
L 1136.249091 457.735989 
L 1092.06 457.735989 
L 1092.06 503.066543 
z
" clip-path="url(#p2ba088f32b)" style="fill: #477ca8; stroke: #484848; stroke-width: 1.5; stroke-linejoin: miter"/>
   </g>
   <g id="patch_28">
    <path d="M 1137.150909 404.070095 
L 1181.34 404.070095 
L 1181.34 357.711897 
L 1137.150909 357.711897 
L 1137.150909 404.070095 
z
" clip-path="url(#p2ba088f32b)" style="fill: #59a257; stroke: #484848; stroke-width: 1.5; stroke-linejoin: miter"/>
   </g>
   <g id="patch_29">
    <path d="M 775.972727 1141.804869 
L 775.972727 1141.804869 
L 775.972727 1141.804869 
L 775.972727 1141.804869 
z
" clip-path="url(#p2ba088f32b)" style="fill: #cb3335; stroke: #484848; stroke-width: 0.75; stroke-linejoin: miter"/>
   </g>
   <g id="patch_30">
    <path d="M 775.972727 1141.804869 
L 775.972727 1141.804869 
L 775.972727 1141.804869 
L 775.972727 1141.804869 
z
" clip-path="url(#p2ba088f32b)" style="fill: #477ca8; stroke: #484848; stroke-width: 0.75; stroke-linejoin: miter"/>
   </g>
   <g id="patch_31">
    <path d="M 775.972727 1141.804869 
L 775.972727 1141.804869 
L 775.972727 1141.804869 
L 775.972727 1141.804869 
z
" clip-path="url(#p2ba088f32b)" style="fill: #59a257; stroke: #484848; stroke-width: 0.75; stroke-linejoin: miter"/>
   </g>
   <g id="line2d_66">
    <path d="M 730.881818 508.918409 
L 730.881818 509.57496 
" clip-path="url(#p2ba088f32b)" style="fill: none; stroke: #484848; stroke-width: 1.5; stroke-linecap: round"/>
   </g>
   <g id="line2d_67">
    <path d="M 730.881818 499.070146 
L 730.881818 496.443943 
" clip-path="url(#p2ba088f32b)" style="fill: none; stroke: #484848; stroke-width: 1.5; stroke-linecap: round"/>
   </g>
   <g id="line2d_68">
    <path d="M 719.834545 509.57496 
L 741.929091 509.57496 
" clip-path="url(#p2ba088f32b)" style="fill: none; stroke: #484848; stroke-width: 1.5; stroke-linecap: round"/>
   </g>
   <g id="line2d_69">
    <path d="M 719.834545 496.443943 
L 741.929091 496.443943 
" clip-path="url(#p2ba088f32b)" style="fill: none; stroke: #484848; stroke-width: 1.5; stroke-linecap: round"/>
   </g>
   <g id="line2d_70">
    <g clip-path="url(#p2ba088f32b)">
     <use xlink:href="#m3b8c8be4e6" x="730.881818" y="527.958383" style="fill: #484848; stroke: #484848; stroke-linejoin: miter"/>
    </g>
   </g>
   <g id="line2d_71">
    <path d="M 775.972727 524.5329 
L 775.972727 539.376658 
" clip-path="url(#p2ba088f32b)" style="fill: none; stroke: #484848; stroke-width: 1.5; stroke-linecap: round"/>
   </g>
   <g id="line2d_72">
    <path d="M 775.972727 506.492025 
L 775.972727 501.467984 
" clip-path="url(#p2ba088f32b)" style="fill: none; stroke: #484848; stroke-width: 1.5; stroke-linecap: round"/>
   </g>
   <g id="line2d_73">
    <path d="M 764.925455 539.376658 
L 787.02 539.376658 
" clip-path="url(#p2ba088f32b)" style="fill: none; stroke: #484848; stroke-width: 1.5; stroke-linecap: round"/>
   </g>
   <g id="line2d_74">
    <path d="M 764.925455 501.467984 
L 787.02 501.467984 
" clip-path="url(#p2ba088f32b)" style="fill: none; stroke: #484848; stroke-width: 1.5; stroke-linecap: round"/>
   </g>
   <g id="line2d_75"/>
   <g id="line2d_76">
    <path d="M 821.063636 430.446311 
L 821.063636 439.809297 
" clip-path="url(#p2ba088f32b)" style="fill: none; stroke: #484848; stroke-width: 1.5; stroke-linecap: round"/>
   </g>
   <g id="line2d_77">
    <path d="M 821.063636 413.318898 
L 821.063636 413.318898 
" clip-path="url(#p2ba088f32b)" style="fill: none; stroke: #484848; stroke-width: 1.5; stroke-linecap: round"/>
   </g>
   <g id="line2d_78">
    <path d="M 810.016364 439.809297 
L 832.110909 439.809297 
" clip-path="url(#p2ba088f32b)" style="fill: none; stroke: #484848; stroke-width: 1.5; stroke-linecap: round"/>
   </g>
   <g id="line2d_79">
    <path d="M 810.016364 413.318898 
L 832.110909 413.318898 
" clip-path="url(#p2ba088f32b)" style="fill: none; stroke: #484848; stroke-width: 1.5; stroke-linecap: round"/>
   </g>
   <g id="line2d_80">
    <g clip-path="url(#p2ba088f32b)">
     <use xlink:href="#m3b8c8be4e6" x="821.063636" y="367.645796" style="fill: #484848; stroke: #484848; stroke-linejoin: miter"/>
    </g>
   </g>
   <g id="line2d_81">
    <path d="M 899.972727 525.334749 
L 899.972727 540.746851 
" clip-path="url(#p2ba088f32b)" style="fill: none; stroke: #484848; stroke-width: 1.5; stroke-linecap: round"/>
   </g>
   <g id="line2d_82">
    <path d="M 899.972727 413.317756 
L 899.972727 396.420992 
" clip-path="url(#p2ba088f32b)" style="fill: none; stroke: #484848; stroke-width: 1.5; stroke-linecap: round"/>
   </g>
   <g id="line2d_83">
    <path d="M 888.925455 540.746851 
L 911.02 540.746851 
" clip-path="url(#p2ba088f32b)" style="fill: none; stroke: #484848; stroke-width: 1.5; stroke-linecap: round"/>
   </g>
   <g id="line2d_84">
    <path d="M 888.925455 396.420992 
L 911.02 396.420992 
" clip-path="url(#p2ba088f32b)" style="fill: none; stroke: #484848; stroke-width: 1.5; stroke-linecap: round"/>
   </g>
   <g id="line2d_85"/>
   <g id="line2d_86">
    <path d="M 945.063636 538.464909 
L 945.063636 553.990909 
" clip-path="url(#p2ba088f32b)" style="fill: none; stroke: #484848; stroke-width: 1.5; stroke-linecap: round"/>
   </g>
   <g id="line2d_87">
    <path d="M 945.063636 482.629257 
L 945.063636 451.227572 
" clip-path="url(#p2ba088f32b)" style="fill: none; stroke: #484848; stroke-width: 1.5; stroke-linecap: round"/>
   </g>
   <g id="line2d_88">
    <path d="M 934.016364 553.990909 
L 956.110909 553.990909 
" clip-path="url(#p2ba088f32b)" style="fill: none; stroke: #484848; stroke-width: 1.5; stroke-linecap: round"/>
   </g>
   <g id="line2d_89">
    <path d="M 934.016364 451.227572 
L 956.110909 451.227572 
" clip-path="url(#p2ba088f32b)" style="fill: none; stroke: #484848; stroke-width: 1.5; stroke-linecap: round"/>
   </g>
   <g id="line2d_90"/>
   <g id="line2d_91">
    <path d="M 990.154545 494.500552 
L 990.154545 533.441439 
" clip-path="url(#p2ba088f32b)" style="fill: none; stroke: #484848; stroke-width: 1.5; stroke-linecap: round"/>
   </g>
   <g id="line2d_92">
    <path d="M 990.154545 397.334169 
L 990.154545 339.784062 
" clip-path="url(#p2ba088f32b)" style="fill: none; stroke: #484848; stroke-width: 1.5; stroke-linecap: round"/>
   </g>
   <g id="line2d_93">
    <path d="M 979.107273 533.441439 
L 1001.201818 533.441439 
" clip-path="url(#p2ba088f32b)" style="fill: none; stroke: #484848; stroke-width: 1.5; stroke-linecap: round"/>
   </g>
   <g id="line2d_94">
    <path d="M 979.107273 339.784062 
L 1001.201818 339.784062 
" clip-path="url(#p2ba088f32b)" style="fill: none; stroke: #484848; stroke-width: 1.5; stroke-linecap: round"/>
   </g>
   <g id="line2d_95"/>
   <g id="line2d_96">
    <path d="M 1069.063636 384.544844 
L 1069.063636 472.237199 
" clip-path="url(#p2ba088f32b)" style="fill: none; stroke: #484848; stroke-width: 1.5; stroke-linecap: round"/>
   </g>
   <g id="line2d_97">
    <path d="M 1069.063636 137.910095 
L 1069.063636 59.809091 
" clip-path="url(#p2ba088f32b)" style="fill: none; stroke: #484848; stroke-width: 1.5; stroke-linecap: round"/>
   </g>
   <g id="line2d_98">
    <path d="M 1058.016364 472.237199 
L 1080.110909 472.237199 
" clip-path="url(#p2ba088f32b)" style="fill: none; stroke: #484848; stroke-width: 1.5; stroke-linecap: round"/>
   </g>
   <g id="line2d_99">
    <path d="M 1058.016364 59.809091 
L 1080.110909 59.809091 
" clip-path="url(#p2ba088f32b)" style="fill: none; stroke: #484848; stroke-width: 1.5; stroke-linecap: round"/>
   </g>
   <g id="line2d_100"/>
   <g id="line2d_101">
    <path d="M 1114.154545 503.066543 
L 1114.154545 527.501652 
" clip-path="url(#p2ba088f32b)" style="fill: none; stroke: #484848; stroke-width: 1.5; stroke-linecap: round"/>
   </g>
   <g id="line2d_102">
    <path d="M 1114.154545 457.735989 
L 1114.154545 419.713132 
" clip-path="url(#p2ba088f32b)" style="fill: none; stroke: #484848; stroke-width: 1.5; stroke-linecap: round"/>
   </g>
   <g id="line2d_103">
    <path d="M 1103.107273 527.501652 
L 1125.201818 527.501652 
" clip-path="url(#p2ba088f32b)" style="fill: none; stroke: #484848; stroke-width: 1.5; stroke-linecap: round"/>
   </g>
   <g id="line2d_104">
    <path d="M 1103.107273 419.713132 
L 1125.201818 419.713132 
" clip-path="url(#p2ba088f32b)" style="fill: none; stroke: #484848; stroke-width: 1.5; stroke-linecap: round"/>
   </g>
   <g id="line2d_105"/>
   <g id="line2d_106">
    <path d="M 1159.245455 404.070095 
L 1159.245455 421.540056 
" clip-path="url(#p2ba088f32b)" style="fill: none; stroke: #484848; stroke-width: 1.5; stroke-linecap: round"/>
   </g>
   <g id="line2d_107">
    <path d="M 1159.245455 357.711897 
L 1159.245455 299.592875 
" clip-path="url(#p2ba088f32b)" style="fill: none; stroke: #484848; stroke-width: 1.5; stroke-linecap: round"/>
   </g>
   <g id="line2d_108">
    <path d="M 1148.198182 421.540056 
L 1170.292727 421.540056 
" clip-path="url(#p2ba088f32b)" style="fill: none; stroke: #484848; stroke-width: 1.5; stroke-linecap: round"/>
   </g>
   <g id="line2d_109">
    <path d="M 1148.198182 299.592875 
L 1170.292727 299.592875 
" clip-path="url(#p2ba088f32b)" style="fill: none; stroke: #484848; stroke-width: 1.5; stroke-linecap: round"/>
   </g>
   <g id="line2d_110">
    <g clip-path="url(#p2ba088f32b)">
     <use xlink:href="#m3b8c8be4e6" x="1159.245455" y="498.270867" style="fill: #484848; stroke: #484848; stroke-linejoin: miter"/>
    </g>
   </g>
   <g id="line2d_111">
    <path d="M 708.787273 505.578563 
L 752.976364 505.578563 
" clip-path="url(#p2ba088f32b)" style="fill: none; stroke: #484848; stroke-width: 1.5; stroke-linecap: round"/>
   </g>
   <g id="line2d_112">
    <path d="M 753.878182 521.564149 
L 798.067273 521.564149 
" clip-path="url(#p2ba088f32b)" style="fill: none; stroke: #484848; stroke-width: 1.5; stroke-linecap: round"/>
   </g>
   <g id="line2d_113">
    <path d="M 798.969091 427.020828 
L 843.158182 427.020828 
" clip-path="url(#p2ba088f32b)" style="fill: none; stroke: #484848; stroke-width: 1.5; stroke-linecap: round"/>
   </g>
   <g id="line2d_114">
    <path d="M 877.878182 498.956534 
L 922.067273 498.956534 
" clip-path="url(#p2ba088f32b)" style="fill: none; stroke: #484848; stroke-width: 1.5; stroke-linecap: round"/>
   </g>
   <g id="line2d_115">
    <path d="M 922.969091 513.343561 
L 967.158182 513.343561 
" clip-path="url(#p2ba088f32b)" style="fill: none; stroke: #484848; stroke-width: 1.5; stroke-linecap: round"/>
   </g>
   <g id="line2d_116">
    <path d="M 968.06 458.764776 
L 1012.249091 458.764776 
" clip-path="url(#p2ba088f32b)" style="fill: none; stroke: #484848; stroke-width: 1.5; stroke-linecap: round"/>
   </g>
   <g id="line2d_117">
    <path d="M 1046.969091 271.732283 
L 1091.158182 271.732283 
" clip-path="url(#p2ba088f32b)" style="fill: none; stroke: #484848; stroke-width: 1.5; stroke-linecap: round"/>
   </g>
   <g id="line2d_118">
    <path d="M 1092.06 479.544895 
L 1136.249091 479.544895 
" clip-path="url(#p2ba088f32b)" style="fill: none; stroke: #484848; stroke-width: 1.5; stroke-linecap: round"/>
   </g>
   <g id="line2d_119">
    <path d="M 1137.150909 375.638589 
L 1181.34 375.638589 
" clip-path="url(#p2ba088f32b)" style="fill: none; stroke: #484848; stroke-width: 1.5; stroke-linecap: round"/>
   </g>
   <g id="patch_32">
    <path d="M 691.427273 578.7 
L 691.427273 35.1 
" style="fill: none; stroke: #ffffff; stroke-width: 1.25; stroke-linejoin: miter; stroke-linecap: square"/>
   </g>
   <g id="patch_33">
    <path d="M 1198.7 578.7 
L 1198.7 35.1 
" style="fill: none; stroke: #ffffff; stroke-width: 1.25; stroke-linejoin: miter; stroke-linecap: square"/>
   </g>
   <g id="patch_34">
    <path d="M 691.427273 578.7 
L 1198.7 578.7 
" style="fill: none; stroke: #ffffff; stroke-width: 1.25; stroke-linejoin: miter; stroke-linecap: square"/>
   </g>
   <g id="patch_35">
    <path d="M 691.427273 35.1 
L 1198.7 35.1 
" style="fill: none; stroke: #ffffff; stroke-width: 1.25; stroke-linejoin: miter; stroke-linecap: square"/>
   </g>
   <g id="text_21">
    <!-- (b) $TP$ (mg/kg) -->
    <g style="fill: #262626" transform="translate(853.413636 29.1)scale(0.3 -0.3)">
     <defs>
      <path id="TimesNewRomanPSMT-62" d="M 984 2369 
Q 1400 2947 1881 2947 
Q 2322 2947 2650 2570 
Q 2978 2194 2978 1541 
Q 2978 778 2472 313 
Q 2038 -88 1503 -88 
Q 1253 -88 995 3 
Q 738 94 469 275 
L 469 3241 
Q 469 3728 445 3840 
Q 422 3953 372 3993 
Q 322 4034 247 4034 
Q 159 4034 28 3984 
L -16 4094 
L 844 4444 
L 984 4444 
L 984 2369 
z
M 984 2169 
L 984 456 
Q 1144 300 1314 220 
Q 1484 141 1663 141 
Q 1947 141 2192 453 
Q 2438 766 2438 1363 
Q 2438 1913 2192 2208 
Q 1947 2503 1634 2503 
Q 1469 2503 1303 2419 
Q 1178 2356 984 2169 
z
" transform="scale(0.015625)"/>
      <path id="DejaVuSans-Oblique-50" d="M 1081 4666 
L 2541 4666 
Q 3178 4666 3512 4369 
Q 3847 4072 3847 3500 
Q 3847 2731 3353 2303 
Q 2859 1875 1966 1875 
L 1172 1875 
L 806 0 
L 172 0 
L 1081 4666 
z
M 1613 4147 
L 1275 2394 
L 2069 2394 
Q 2606 2394 2893 2669 
Q 3181 2944 3181 3456 
Q 3181 3784 2986 3965 
Q 2791 4147 2438 4147 
L 1613 4147 
z
" transform="scale(0.015625)"/>
     </defs>
     <use xlink:href="#TimesNewRomanPSMT-28" transform="translate(0 0.09375)"/>
     <use xlink:href="#TimesNewRomanPSMT-62" transform="translate(33.300781 0.09375)"/>
     <use xlink:href="#TimesNewRomanPSMT-29" transform="translate(83.300781 0.09375)"/>
     <use xlink:href="#TimesNewRomanPSMT-20" transform="translate(116.601562 0.09375)"/>
     <use xlink:href="#DejaVuSans-Oblique-54" transform="translate(141.601562 0.09375)"/>
     <use xlink:href="#DejaVuSans-Oblique-50" transform="translate(202.685547 0.09375)"/>
     <use xlink:href="#TimesNewRomanPSMT-20" transform="translate(262.988281 0.09375)"/>
     <use xlink:href="#TimesNewRomanPSMT-28" transform="translate(287.988281 0.09375)"/>
     <use xlink:href="#TimesNewRomanPSMT-6d" transform="translate(321.289062 0.09375)"/>
     <use xlink:href="#TimesNewRomanPSMT-67" transform="translate(399.072266 0.09375)"/>
     <use xlink:href="#TimesNewRomanPSMT-2f" transform="translate(449.072266 0.09375)"/>
     <use xlink:href="#TimesNewRomanPSMT-6b" transform="translate(476.855469 0.09375)"/>
     <use xlink:href="#TimesNewRomanPSMT-67" transform="translate(526.855469 0.09375)"/>
     <use xlink:href="#TimesNewRomanPSMT-29" transform="translate(576.855469 0.09375)"/>
    </g>
   </g>
  </g>
  <g id="legend_1">
   <g id="patch_36">
    <path d="M 170.932578 868.2 
L 1074.467422 868.2 
Q 1081.067422 868.2 1081.067422 861.6 
L 1081.067422 818.179219 
Q 1081.067422 811.579219 1074.467422 811.579219 
L 170.932578 811.579219 
Q 164.332578 811.579219 164.332578 818.179219 
L 164.332578 861.6 
Q 164.332578 868.2 170.932578 868.2 
z
" style="fill: #eaeaf2; opacity: 0.8; stroke: #cccccc; stroke-linejoin: miter"/>
   </g>
   <g id="patch_37">
    <path d="M 177.532578 847.879219 
L 243.532578 847.879219 
L 243.532578 824.779219 
L 177.532578 824.779219 
z
" style="fill: #cb3335; stroke: #484848; stroke-width: 0.75; stroke-linejoin: miter"/>
   </g>
   <g id="text_22">
    <!-- Nanfei River -->
    <g style="fill: #262626" transform="translate(269.932578 847.879219)scale(0.33 -0.33)">
     <defs>
      <path id="TimesNewRomanPSMT-4e" d="M -84 4238 
L 1066 4238 
L 3656 1059 
L 3656 3503 
Q 3656 3894 3569 3991 
Q 3453 4122 3203 4122 
L 3056 4122 
L 3056 4238 
L 4531 4238 
L 4531 4122 
L 4381 4122 
Q 4113 4122 4000 3959 
Q 3931 3859 3931 3503 
L 3931 -69 
L 3819 -69 
L 1025 3344 
L 1025 734 
Q 1025 344 1109 247 
Q 1228 116 1475 116 
L 1625 116 
L 1625 0 
L 150 0 
L 150 116 
L 297 116 
Q 569 116 681 278 
Q 750 378 750 734 
L 750 3681 
Q 566 3897 470 3965 
Q 375 4034 191 4094 
Q 100 4122 -84 4122 
L -84 4238 
z
" transform="scale(0.015625)"/>
      <path id="TimesNewRomanPSMT-66" d="M 1319 2638 
L 1319 756 
Q 1319 356 1406 250 
Q 1522 113 1716 113 
L 1975 113 
L 1975 0 
L 266 0 
L 266 113 
L 394 113 
Q 519 113 622 175 
Q 725 238 764 344 
Q 803 450 803 756 
L 803 2638 
L 247 2638 
L 247 2863 
L 803 2863 
L 803 3050 
Q 803 3478 940 3775 
Q 1078 4072 1361 4255 
Q 1644 4438 1997 4438 
Q 2325 4438 2600 4225 
Q 2781 4084 2781 3909 
Q 2781 3816 2700 3733 
Q 2619 3650 2525 3650 
Q 2453 3650 2373 3701 
Q 2294 3753 2178 3923 
Q 2063 4094 1966 4153 
Q 1869 4213 1750 4213 
Q 1606 4213 1506 4136 
Q 1406 4059 1362 3898 
Q 1319 3738 1319 3069 
L 1319 2863 
L 2056 2863 
L 2056 2638 
L 1319 2638 
z
" transform="scale(0.015625)"/>
      <path id="TimesNewRomanPSMT-52" d="M 4325 0 
L 3194 0 
L 1759 1981 
Q 1600 1975 1500 1975 
Q 1459 1975 1412 1976 
Q 1366 1978 1316 1981 
L 1316 750 
Q 1316 350 1403 253 
Q 1522 116 1759 116 
L 1925 116 
L 1925 0 
L 109 0 
L 109 116 
L 269 116 
Q 538 116 653 291 
Q 719 388 719 750 
L 719 3488 
Q 719 3888 631 3984 
Q 509 4122 269 4122 
L 109 4122 
L 109 4238 
L 1653 4238 
Q 2328 4238 2648 4139 
Q 2969 4041 3192 3777 
Q 3416 3513 3416 3147 
Q 3416 2756 3161 2468 
Q 2906 2181 2372 2063 
L 3247 847 
Q 3547 428 3762 290 
Q 3978 153 4325 116 
L 4325 0 
z
M 1316 2178 
Q 1375 2178 1419 2176 
Q 1463 2175 1491 2175 
Q 2097 2175 2405 2437 
Q 2713 2700 2713 3106 
Q 2713 3503 2464 3751 
Q 2216 4000 1806 4000 
Q 1625 4000 1316 3941 
L 1316 2178 
z
" transform="scale(0.015625)"/>
     </defs>
     <use xlink:href="#TimesNewRomanPSMT-4e"/>
     <use xlink:href="#TimesNewRomanPSMT-61" x="72.216797"/>
     <use xlink:href="#TimesNewRomanPSMT-6e" x="116.601562"/>
     <use xlink:href="#TimesNewRomanPSMT-66" x="166.601562"/>
     <use xlink:href="#TimesNewRomanPSMT-65" x="199.902344"/>
     <use xlink:href="#TimesNewRomanPSMT-69" x="244.287109"/>
     <use xlink:href="#TimesNewRomanPSMT-20" x="272.070312"/>
     <use xlink:href="#TimesNewRomanPSMT-52" x="297.070312"/>
     <use xlink:href="#TimesNewRomanPSMT-69" x="363.769531"/>
     <use xlink:href="#TimesNewRomanPSMT-76" x="391.552734"/>
     <use xlink:href="#TimesNewRomanPSMT-65" x="441.552734"/>
     <use xlink:href="#TimesNewRomanPSMT-72" x="485.9375"/>
    </g>
   </g>
   <g id="patch_38">
    <path d="M 507.285078 847.879219 
L 573.285078 847.879219 
L 573.285078 824.779219 
L 507.285078 824.779219 
z
" style="fill: #477ca8; stroke: #484848; stroke-width: 0.75; stroke-linejoin: miter"/>
   </g>
   <g id="text_23">
    <!-- Pai River -->
    <g style="fill: #262626" transform="translate(599.685078 847.879219)scale(0.33 -0.33)">
     <use xlink:href="#TimesNewRomanPSMT-50"/>
     <use xlink:href="#TimesNewRomanPSMT-61" x="55.615234"/>
     <use xlink:href="#TimesNewRomanPSMT-69" x="100"/>
     <use xlink:href="#TimesNewRomanPSMT-20" x="127.783203"/>
     <use xlink:href="#TimesNewRomanPSMT-52" x="152.783203"/>
     <use xlink:href="#TimesNewRomanPSMT-69" x="219.482422"/>
     <use xlink:href="#TimesNewRomanPSMT-76" x="247.265625"/>
     <use xlink:href="#TimesNewRomanPSMT-65" x="297.265625"/>
     <use xlink:href="#TimesNewRomanPSMT-72" x="341.650391"/>
    </g>
   </g>
   <g id="patch_39">
    <path d="M 789.419609 847.879219 
L 855.419609 847.879219 
L 855.419609 824.779219 
L 789.419609 824.779219 
z
" style="fill: #59a257; stroke: #484848; stroke-width: 0.75; stroke-linejoin: miter"/>
   </g>
   <g id="text_24">
    <!-- Hangbu River -->
    <g style="fill: #262626" transform="translate(881.819609 847.879219)scale(0.33 -0.33)">
     <defs>
      <path id="TimesNewRomanPSMT-48" d="M 1316 2272 
L 3284 2272 
L 3284 3484 
Q 3284 3809 3244 3913 
Q 3213 3991 3113 4047 
Q 2978 4122 2828 4122 
L 2678 4122 
L 2678 4238 
L 4491 4238 
L 4491 4122 
L 4341 4122 
Q 4191 4122 4056 4050 
Q 3956 4000 3920 3898 
Q 3884 3797 3884 3484 
L 3884 750 
Q 3884 428 3925 325 
Q 3956 247 4053 191 
Q 4191 116 4341 116 
L 4491 116 
L 4491 0 
L 2678 0 
L 2678 116 
L 2828 116 
Q 3088 116 3206 269 
Q 3284 369 3284 750 
L 3284 2041 
L 1316 2041 
L 1316 750 
Q 1316 428 1356 325 
Q 1388 247 1488 191 
Q 1622 116 1772 116 
L 1925 116 
L 1925 0 
L 109 0 
L 109 116 
L 259 116 
Q 522 116 641 269 
Q 716 369 716 750 
L 716 3484 
Q 716 3809 675 3913 
Q 644 3991 547 4047 
Q 409 4122 259 4122 
L 109 4122 
L 109 4238 
L 1925 4238 
L 1925 4122 
L 1772 4122 
Q 1622 4122 1488 4050 
Q 1391 4000 1353 3898 
Q 1316 3797 1316 3484 
L 1316 2272 
z
" transform="scale(0.015625)"/>
      <path id="TimesNewRomanPSMT-75" d="M 2709 2863 
L 2709 1128 
Q 2709 631 2732 520 
Q 2756 409 2807 365 
Q 2859 322 2928 322 
Q 3025 322 3147 375 
L 3191 266 
L 2334 -88 
L 2194 -88 
L 2194 519 
Q 1825 119 1631 15 
Q 1438 -88 1222 -88 
Q 981 -88 804 51 
Q 628 191 559 409 
Q 491 628 491 1028 
L 491 2306 
Q 491 2509 447 2587 
Q 403 2666 317 2708 
Q 231 2750 6 2747 
L 6 2863 
L 1009 2863 
L 1009 947 
Q 1009 547 1148 422 
Q 1288 297 1484 297 
Q 1619 297 1789 381 
Q 1959 466 2194 703 
L 2194 2325 
Q 2194 2569 2105 2655 
Q 2016 2741 1734 2747 
L 1734 2863 
L 2709 2863 
z
" transform="scale(0.015625)"/>
     </defs>
     <use xlink:href="#TimesNewRomanPSMT-48"/>
     <use xlink:href="#TimesNewRomanPSMT-61" x="72.216797"/>
     <use xlink:href="#TimesNewRomanPSMT-6e" x="116.601562"/>
     <use xlink:href="#TimesNewRomanPSMT-67" x="166.601562"/>
     <use xlink:href="#TimesNewRomanPSMT-62" x="216.601562"/>
     <use xlink:href="#TimesNewRomanPSMT-75" x="266.601562"/>
     <use xlink:href="#TimesNewRomanPSMT-20" x="316.601562"/>
     <use xlink:href="#TimesNewRomanPSMT-52" x="341.601562"/>
     <use xlink:href="#TimesNewRomanPSMT-69" x="408.300781"/>
     <use xlink:href="#TimesNewRomanPSMT-76" x="436.083984"/>
     <use xlink:href="#TimesNewRomanPSMT-65" x="486.083984"/>
     <use xlink:href="#TimesNewRomanPSMT-72" x="530.46875"/>
    </g>
   </g>
  </g>
 </g>
 <defs>
  <clipPath id="p2fd26ae709">
   <rect x="82.7" y="35.1" width="507.272727" height="543.6"/>
  </clipPath>
  <clipPath id="p2ba088f32b">
   <rect x="691.427273" y="35.1" width="507.272727" height="543.6"/>
  </clipPath>
 </defs>
</svg>
