<?xml version="1.0" encoding="UTF-8"?>
<!DOCTYPE svg PUBLIC "-//W3C//DTD SVG 1.1//EN"
    "http://www.w3.org/Graphics/SVG/1.1/DTD/svg11.dtd" >
<svg contentScriptType="text/ecmascript" width="1315.0"
     xmlns:xlink="http://www.w3.org/1999/xlink" zoomAndPan="magnify"
     contentStyleType="text/css"
     viewBox="-658.000000 -654.000000 1315.000000 1296.000000" height="1296.0"
     preserveAspectRatio="xMidYMid meet" xmlns="http://www.w3.org/2000/svg"
     version="1.1">
    <g id="edges">
        <path stroke-linecap="round" fill="none"
              class="id_Bacterial_16S_rRNA id_S-TP"
              d="M -569.347595,-69.031738 A 1008.145407,1008.145407 0,0 1,515.223083,245.671295"
              stroke="#b32d3c" stroke-width="1.6993494" stroke-opacity="1.0"/>
        <path stroke-linecap="round" fill="none"
              class="id_Archaeal_16S_rRNA id_S-TP"
              d="M 615.847351,-142.729706 A 394.402247,394.402247 0,0 1,576.959167,246.015396"
              stroke="#ac0317" stroke-width="7.5803914" stroke-opacity="1.0"/>
        <path stroke-linecap="round" fill="none"
              class="id_Archaeal_16S_rRNA id_W-TN"
              d="M 543.694519,-189.794968 A 573.443581,573.443581 0,0 1,66.988922,-564.935303"
              stroke="#3ece3c" stroke-width="3.6380746" stroke-opacity="1.0"/>
        <path stroke-linecap="round" fill="none"
              class="id_Archaeal_16S_rRNA id_W-NH_{4}^{+}"
              d="M 544.280640,-178.265930 A 343.475964,343.475964 0,0 1,241.650772,-307.510345"
              stroke="#40ce3e" stroke-width="3.2859159" stroke-opacity="1.0"/>
        <path stroke-linecap="round" fill="none" class="id_AOA_amoA id_W-pH"
              d="M -144.693710,-540.591492 A 985.882631,985.882631 0,0 1,-34.174026,556.414185"
              stroke="#02d000" stroke-width="9.0" stroke-opacity="1.0"/>
        <path stroke-linecap="round" fill="none" class="id_AOA_amoA id_W-COD"
              d="M -132.792221,-556.178284 A 1007.865255,1007.865255 0,0 1,407.969299,434.855835"
              stroke="#af1627" stroke-width="5.6603417" stroke-opacity="1.0"/>
        <path stroke-linecap="round" fill="none" class="id_AOB_amoA id_Ⅳ-Area"
              d="M 346.734894,52.682762 A 549.011717,549.011717 0,0 1,267.089813,-518.982910"
              stroke="#49ce48" stroke-width="1.3320718" stroke-opacity="1.0"/>
        <path stroke-linecap="round" fill="none" class="id_narG id_W-DO"
              d="M -499.402405,-262.222046 A 589.624865,589.624865 0,0 1,-208.493927,292.186127"
              stroke="#48ce47" stroke-width="1.5330114" stroke-opacity="1.0"/>
        <path stroke-linecap="round" fill="none" class="id_narG id_W-T"
              d="M -496.462769,-301.632782 A 1003.925029,1003.925029 0,0 1,583.420105,11.030408"
              stroke="#3fce3e" stroke-width="3.3207812" stroke-opacity="1.0"/>
        <path stroke-linecap="round" fill="none" class="id_napA id_Ⅰ-Area"
              d="M -63.787342,104.515930 A 197.234464,197.234464 0,0 1,85.988121,86.628044"
              stroke="#b12636" stroke-width="3.090654" stroke-opacity="1.0"/>
        <path stroke-linecap="round" fill="none" class="id_nirK id_W-pH"
              d="M -363.355774,-456.777618 A 949.248111,949.248111 0,0 1,-43.539814,552.295654"
              stroke="#0ecf0c" stroke-width="8.559529" stroke-opacity="1.0"/>
        <path stroke-linecap="round" fill="none" class="id_nirK id_W-TN"
              d="M -370.182281,-523.641174 A 393.341481,393.341481 0,0 1,5.194519,-627.213257"
              stroke="#b32c3c" stroke-width="1.7094965" stroke-opacity="1.0"/>
        <path stroke-linecap="round" fill="none" class="id_nosZ id_W-pH"
              d="M 37.869297,422.421387 A 202.380567,202.380567 0,0 1,-19.995367,568.554565"
              stroke="#1acf18" stroke-width="7.882568" stroke-opacity="1.0"/>
        <path stroke-linecap="round" fill="none" class="id_cnorB id_S-TN"
              d="M -41.984989,-318.211243 A 368.950588,368.950588 0,0 1,-326.806274,-98.184807"
              stroke="#ac0014" stroke-width="7.833649" stroke-opacity="1.0"/>
        <path stroke-linecap="round" fill="none" class="id_cnorB id_HIX"
              d="M -25.310129,-315.441345 A 502.053610,502.053610 0,0 1,-313.637238,118.027946"
              stroke="#22cf20" stroke-width="7.2584186" stroke-opacity="1.0"/>
        <path stroke-linecap="round" fill="none" class="id_cnorB id_Ⅰ-Area"
              d="M 13.209198,-334.366760 A 413.511997,413.511997 0,0 1,144.274277,58.101559"
              stroke="#ac0518" stroke-width="7.43435" stroke-opacity="1.0"/>
        <path stroke-linecap="round" fill="none" class="id_hzsA id_FI"
              d="M -78.219421,-86.423424 A 468.118268,468.118268 0,0 1,250.849106,262.590607"
              stroke="#48ce47" stroke-width="1.5304534" stroke-opacity="1.0"/>
        <path stroke-linecap="round" fill="none" class="id_hzsA id_HIX"
              d="M -137.602982,-49.291916 A 275.266967,275.266967 0,0 1,-311.287048,125.315247"
              stroke="#ac0216" stroke-width="7.6509094" stroke-opacity="1.0"/>
        <path stroke-linecap="round" fill="none" class="id_hzsA id_Ⅲ-Area"
              d="M -169.810806,-120.948845 A 207.525627,207.525627 0,0 1,-255.231323,-260.356903"
              stroke="#b22838" stroke-width="2.5961404" stroke-opacity="1.0"/>
        <path stroke-linecap="round" fill="none" class="id_hzsA id_Ⅴ-Area"
              d="M -109.307693,-51.046539 A 566.466449,566.466449 0,0 1,-255.522049,529.019592"
              stroke="#b01a2b" stroke-width="5.123313" stroke-opacity="1.0"/>
        <path stroke-linecap="round" fill="none" class="id_hzsA id_W-DO"
              d="M -108.091446,-51.512890 A 372.808899,372.808899 0,0 1,-179.759506,305.950348"
              stroke="#49ce48" stroke-width="1.3587964" stroke-opacity="1.0"/>
        <path stroke-linecap="round" fill="none" class="id_hzsA id_W-TN"
              d="M -138.847534,-145.203125 A 453.985527,453.985527 0,0 1,12.823076,-582.269104"
              stroke="#35ce34" stroke-width="4.99536" stroke-opacity="1.0"/>
        <path stroke-linecap="round" fill="none" class="id_hzsA id_W-NO_{2}^{-}"
              d="M -147.499969,-52.741497 A 456.895937,456.895937 0,0 1,-547.384827,186.808517"
              stroke="#42ce41" stroke-width="2.770741" stroke-opacity="1.0"/>
        <path stroke-linecap="round" fill="none" class="id_hzsA id_W-NO_{3}^{-}"
              d="M -102.065422,-140.400650 A 557.769092,557.769092 0,0 1,425.387238,-399.681458"
              stroke="#2dcf2b" stroke-width="6.133993" stroke-opacity="1.0"/>
        <path stroke-linecap="round" fill="none" class="id_hzsA id_W-NH_{4}^{+}"
              d="M -108.891243,-143.600250 A 352.391852,352.391852 0,0 1,164.630554,-345.335602"
              stroke="#2ccf2b" stroke-width="6.204948" stroke-opacity="1.0"/>
        <path stroke-linecap="round" fill="none" class="id_hzsA id_W-T"
              d="M -81.040443,-117.004753 A 629.136022,629.136022 0,0 1,579.696411,14.297903"
              stroke="#40ce3f" stroke-width="3.1610184" stroke-opacity="1.0"/>
        <path stroke-linecap="round" fill="none" class="id_hzsB id_Ⅰ-Area"
              d="M 342.633118,-92.194679 A 275.258193,275.258193 0,0 1,178.849594,91.717010"
              stroke="#4bce4a" stroke-width="0.90000004" stroke-opacity="1.0"/>
        <path stroke-linecap="round" fill="none" class="id_hzsB id_Ⅱ-Area"
              d="M 332.615875,-95.070938 A 816.913369,816.913369 0,0 1,-423.582611,392.026276"
              stroke="#35ce34" stroke-width="4.981704" stroke-opacity="1.0"/>
        <path stroke-linecap="round" fill="none" class="id_hzsB id_W-DO"
              d="M 338.422089,-93.125702 A 619.257890,619.257890 0,0 1,-165.186249,336.194061"
              stroke="#38ce36" stroke-width="4.623287" stroke-opacity="1.0"/>
        <path stroke-linecap="round" fill="none" class="id_hzsB id_W-TN"
              d="M 305.976563,-160.770325 A 465.051709,465.051709 0,0 1,50.982769,-562.690674"
              stroke="#4ace49" stroke-width="1.04599" stroke-opacity="1.0"/>
        <path stroke-linecap="round" fill="none" class="id_hzsB id_W-NO_{3}^{-}"
              d="M 347.092773,-190.079849 A 233.587637,233.587637 0,0 1,432.927124,-365.662354"
              stroke="#47ce46" stroke-width="1.6724459" stroke-opacity="1.0"/>
        <path stroke-linecap="round" fill="none" class="id_hzsB id_W-T"
              d="M 400.442352,-137.139679 A 270.613393,270.613393 0,0 1,595.252991,4.085365"
              stroke="#3cce3a" stroke-width="3.962217" stroke-opacity="1.0"/>
        <path stroke-linecap="round" fill="none" class="id_hzo id_W-DO"
              d="M 130.551834,594.433777 A 390.250814,390.250814 0,0 1,-194.153534,386.333221"
              stroke="#b22737" stroke-width="2.7895005" stroke-opacity="1.0"/>
        <path stroke-linecap="round" fill="none" class="id_hzo id_W-COD"
              d="M 207.320862,552.805176 A 206.572270,206.572270 0,0 1,352.780823,480.756470"
              stroke="#ac0115" stroke-width="7.726076" stroke-opacity="1.0"/>
        <path stroke-linecap="round" fill="none" class="id_hzo id_W-T"
              d="M 183.527176,544.658569 A 580.121081,580.121081 0,0 1,566.854980,64.181587"
              stroke="#b22c3c" stroke-width="1.8101164" stroke-opacity="1.0"/>
        <path stroke-linecap="round" fill="none" class="id_nifH id_W-pH"
              d="M 123.267288,-81.208031 A 620.451686,620.451686 0,0 1,-22.347477,565.813538"
              stroke="#17cf15" stroke-width="8.069828" stroke-opacity="1.0"/>
    </g>
    <g id="nodes">
        <circle fill="#9a96e5" r="35.616" fill-opacity="0.6"
                class="id_Bacterial_16S_rRNA" cx="-615.9756" cy="-52.71638"/>
        <circle fill="none" r="39.008003" cx="-615.9756" cy="-52.71638"
                stroke="#000000" stroke-opacity="0.6" stroke-width="6.784"/>
        <circle fill="#f97743" r="35.616" fill-opacity="0.6" class="id_S-TP"
                cx="545.87616" cy="284.4108"/>
        <circle fill="none" r="39.008003" cx="545.87616" cy="284.4108"
                stroke="#000000" stroke-opacity="0.6" stroke-width="6.784"/>
        <circle fill="#9a96e5" r="35.616" fill-opacity="0.6"
                class="id_Archaeal_16S_rRNA" cx="592.98596" cy="-186.52145"/>
        <circle fill="none" r="39.008003" cx="592.98596" cy="-186.52145"
                stroke="#000000" stroke-opacity="0.6" stroke-width="6.784"/>
        <circle fill="#28b36a" r="35.616" fill-opacity="0.6" class="id_W-TN"
                cx="52.21793" cy="-612.07526"/>
        <circle fill="none" r="39.008003" cx="52.21793" cy="-612.07526"
                stroke="#000000" stroke-opacity="0.6" stroke-width="6.784"/>
        <circle fill="#28b36a" r="35.616" fill-opacity="0.6"
                class="id_W-NH_{4}^{+}" cx="213.93523" cy="-348.40298"/>
        <circle fill="none" r="39.008003" cx="213.93523" cy="-348.40298"
                stroke="#000000" stroke-opacity="0.6" stroke-width="6.784"/>
        <circle fill="#9a96e5" r="35.616" fill-opacity="0.6" class="id_AOA_amoA"
                cx="-177.22466" cy="-577.76807"/>
        <circle fill="none" r="39.008003" cx="-177.22466" cy="-577.76807"
                stroke="#000000" stroke-opacity="0.6" stroke-width="6.784"/>
        <circle fill="#28b36a" r="35.616" fill-opacity="0.6" class="id_W-pH"
                cx="-58.635704" cy="599.3326"/>
        <circle fill="none" r="39.008003" cx="-58.635704" cy="599.3326"
                stroke="#000000" stroke-opacity="0.6" stroke-width="6.784"/>
        <circle fill="#28b36a" r="35.616" fill-opacity="0.6" class="id_W-COD"
                cx="402.08047" cy="483.9036"/>
        <circle fill="none" r="39.008003" cx="402.08047" cy="483.9036"
                stroke="#000000" stroke-opacity="0.6" stroke-width="6.784"/>
        <circle fill="#9a96e5" r="35.616" fill-opacity="0.6" class="id_AOB_amoA"
                cx="379.9324" cy="89.26534"/>
        <circle fill="none" r="39.008003" cx="379.9324" cy="89.26534"
                stroke="#000000" stroke-opacity="0.6" stroke-width="6.784"/>
        <circle fill="#f97743" r="35.616" fill-opacity="0.6" class="id_Ⅳ-Area"
                cx="289.02377" cy="-563.24646"/>
        <circle fill="none" r="39.008003" cx="289.02377" cy="-563.24646"
                stroke="#000000" stroke-opacity="0.6" stroke-width="6.784"/>
        <circle fill="#9a96e5" r="35.616" fill-opacity="0.6" class="id_narG"
                cx="-543.08295" cy="-285.29517"/>
        <circle fill="none" r="39.008003" cx="-543.08295" cy="-285.29517"
                stroke="#000000" stroke-opacity="0.6" stroke-width="6.784"/>
        <circle fill="#28b36a" r="35.616" fill-opacity="0.6" class="id_W-DO"
                cx="-214.32782" cy="341.24045"/>
        <circle fill="none" r="39.008003" cx="-214.32782" cy="341.24045"
                stroke="#000000" stroke-opacity="0.6" stroke-width="6.784"/>
        <circle fill="#28b36a" r="35.616" fill-opacity="0.6" class="id_W-T"
                cx="614.0997" cy="49.74895"/>
        <circle fill="none" r="39.008003" cx="614.0997" cy="49.74895"
                stroke="#000000" stroke-opacity="0.6" stroke-width="6.784"/>
        <circle fill="#9a96e5" r="35.616" fill-opacity="0.6" class="id_napA"
                cx="-103.50484" cy="133.89076"/>
        <circle fill="none" r="39.008003" cx="-103.50484" cy="133.89076"
                stroke="#000000" stroke-opacity="0.6" stroke-width="6.784"/>
        <circle fill="#f97743" r="35.616" fill-opacity="0.6" class="id_Ⅰ-Area"
                cx="131.50638" cy="105.82305"/>
        <circle fill="none" r="39.008003" cx="131.50638" cy="105.82305"
                stroke="#000000" stroke-opacity="0.6" stroke-width="6.784"/>
        <circle fill="#9a96e5" r="35.616" fill-opacity="0.6" class="id_nirK"
                cx="-402.78986" cy="-486.53183"/>
        <circle fill="none" r="39.008003" cx="-402.78986" cy="-486.53183"
                stroke="#000000" stroke-opacity="0.6" stroke-width="6.784"/>
        <circle fill="#9a96e5" r="35.616" fill-opacity="0.6" class="id_nosZ"
                cx="30.774406" cy="373.53354"/>
        <circle fill="none" r="39.008003" cx="30.774406" cy="373.53354"
                stroke="#000000" stroke-opacity="0.6" stroke-width="6.784"/>
        <circle fill="#9a96e5" r="35.616" fill-opacity="0.6" class="id_cnorB"
                cx="-25.671906" cy="-364.84003"/>
        <circle fill="none" r="39.008003" cx="-25.671906" cy="-364.84003"
                stroke="#000000" stroke-opacity="0.6" stroke-width="6.784"/>
        <circle fill="#f97743" r="35.616" fill-opacity="0.6" class="id_S-TN"
                cx="-376.04333" cy="-94.17565"/>
        <circle fill="none" r="39.008003" cx="-376.04333" cy="-94.17565"
                stroke="#000000" stroke-opacity="0.6" stroke-width="6.784"/>
        <circle fill="#f97743" r="35.616" fill-opacity="0.6" class="id_HIX"
                cx="-359.33615" cy="136.78883"/>
        <circle fill="none" r="39.008003" cx="-359.33615" cy="136.78883"
                stroke="#000000" stroke-opacity="0.6" stroke-width="6.784"/>
        <circle fill="#9a96e5" r="35.616" fill-opacity="0.6" class="id_hzsA"
                cx="-126.38424" cy="-97.40117"/>
        <circle fill="none" r="39.008003" cx="-126.38424" cy="-97.40117"
                stroke="#000000" stroke-opacity="0.6" stroke-width="6.784"/>
        <circle fill="#f97743" r="35.616" fill-opacity="0.6" class="id_FI"
                cx="258.9768" cy="311.3174"/>
        <circle fill="none" r="39.008003" cx="258.9768" cy="311.3174"
                stroke="#000000" stroke-opacity="0.6" stroke-width="6.784"/>
        <circle fill="#f97743" r="35.616" fill-opacity="0.6" class="id_Ⅲ-Area"
                cx="-256.49265" cy="-309.7408"/>
        <circle fill="none" r="39.008003" cx="-256.49265" cy="-309.7408"
                stroke="#000000" stroke-opacity="0.6" stroke-width="6.784"/>
        <circle fill="#f97743" r="35.616" fill-opacity="0.6" class="id_Ⅴ-Area"
                cx="-292.53094" cy="561.74115"/>
        <circle fill="none" r="39.008003" cx="-292.53094" cy="561.74115"
                stroke="#000000" stroke-opacity="0.6" stroke-width="6.784"/>
        <circle fill="#28b36a" r="35.616" fill-opacity="0.6"
                class="id_W-NO_{2}^{-}" cx="-596.7238" cy="184.35457"/>
        <circle fill="none" r="39.008003" cx="-596.7238" cy="184.35457"
                stroke="#000000" stroke-opacity="0.6" stroke-width="6.784"/>
        <circle fill="#28b36a" r="35.616" fill-opacity="0.6"
                class="id_W-NO_{3}^{-}" cx="474.28778" cy="-392.67453"/>
        <circle fill="none" r="39.008003" cx="474.28778" cy="-392.67453"
                stroke="#000000" stroke-opacity="0.6" stroke-width="6.784"/>
        <circle fill="#9a96e5" r="35.616" fill-opacity="0.6" class="id_hzsB"
                cx="351.18182" cy="-140.84938"/>
        <circle fill="none" r="39.008003" cx="351.18182" cy="-140.84938"
                stroke="#000000" stroke-opacity="0.6" stroke-width="6.784"/>
        <circle fill="#f97743" r="35.616" fill-opacity="0.6" class="id_Ⅱ-Area"
                cx="-472.94107" cy="390.00064"/>
        <circle fill="none" r="39.008003" cx="-472.94107" cy="390.00064"
                stroke="#000000" stroke-opacity="0.6" stroke-width="6.784"/>
        <circle fill="#9a96e5" r="35.616" fill-opacity="0.6" class="id_hzo"
                cx="179.94925" cy="593.92883"/>
        <circle fill="none" r="39.008003" cx="179.94925" cy="593.92883"
                stroke="#000000" stroke-opacity="0.6" stroke-width="6.784"/>
        <circle fill="#9a96e5" r="35.616" fill-opacity="0.6" class="id_nifH"
                cx="104.83767" cy="-127.04153"/>
        <circle fill="none" r="39.008003" cx="104.83767" cy="-127.04153"
                stroke="#000000" stroke-opacity="0.6" stroke-width="6.784"/>
    </g>
</svg>