<?xml version="1.0" encoding="UTF-8"?>
<!DOCTYPE svg PUBLIC "-//W3C//DTD SVG 1.1//EN"
    "http://www.w3.org/Graphics/SVG/1.1/DTD/svg11.dtd" >
<svg contentScriptType="text/ecmascript" width="1241.0"
     xmlns:xlink="http://www.w3.org/1999/xlink" zoomAndPan="magnify"
     contentStyleType="text/css"
     viewBox="-630.000000 -641.000000 1241.000000 1279.000000" height="1279.0"
     preserveAspectRatio="xMidYMid meet" xmlns="http://www.w3.org/2000/svg"
     version="1.1">
    <g id="edges">
        <path stroke-linecap="round" fill="none"
              class="id_Bacterial_16S_rRNA id_S-Size-d(0.1)"
              d="M 82.495789,-572.535156 A 370.277314,370.277314 0,0 1,283.790070,-282.449341"
              stroke="#0fd20e" stroke-width="6.6310215" stroke-opacity="1.0"/>
        <path stroke-linecap="round" fill="none"
              class="id_Archaeal_16S_rRNA id_S-TN"
              d="M 412.909027,407.162170 A 403.723408,403.723408 0,0 1,19.783306,388.302002"
              stroke="#b01023" stroke-width="4.8162065" stroke-opacity="1.0"/>
        <path stroke-linecap="round" fill="none" class="id_AOA_amoA id_S-TN"
              d="M 210.504410,322.500580 A 235.337235,235.337235 0,0 1,28.066526,370.990570"
              stroke="#ad0317" stroke-width="7.49522" stroke-opacity="1.0"/>
        <path stroke-linecap="round" fill="none" class="id_AOB_amoA id_W-COD"
              d="M -523.234802,-211.387787 A 280.469883,280.469883 0,0 1,-286.849792,-271.729858"
              stroke="#1cd41a" stroke-width="3.8530917" stroke-opacity="1.0"/>
        <path stroke-linecap="round" fill="none"
              class="id_nxrA id_S-Size-d(0.1)"
              d="M 62.949203,71.803986 A 348.657391,348.657391 0,0 1,236.822098,-204.992050"
              stroke="#09d107" stroke-width="7.7928047" stroke-opacity="1.0"/>
        <path stroke-linecap="round" fill="none"
              class="id_nirK id_S-Size-d(0.9)"
              d="M 43.226662,-81.952911 A 583.521960,583.521960 0,0 1,-530.375061,127.303497"
              stroke="#b01022" stroke-width="4.864551" stroke-opacity="1.0"/>
        <path stroke-linecap="round" fill="none"
              class="id_nirS id_S-Size-d(0.1)"
              d="M 510.632507,124.416634 A 385.660665,385.660665 0,0 1,289.267883,-174.198730"
              stroke="#26d524" stroke-width="1.266342" stroke-opacity="1.0"/>
        <path stroke-linecap="round" fill="none" class="id_nosZ id_BIX"
              d="M -79.817841,566.034058 A 347.768388,347.768388 0,0 1,-245.191086,285.328339"
              stroke="#ae071a" stroke-width="6.7562547" stroke-opacity="1.0"/>
        <path stroke-linecap="round" fill="none" class="id_nosZ id_β:α"
              d="M -80.494743,567.404419 A 578.239723,578.239723 0,0 1,-385.669678,45.922134"
              stroke="#ac0316" stroke-width="7.511792" stroke-opacity="1.0"/>
        <path stroke-linecap="round" fill="none" class="id_nosZ id_Ⅲ-Area"
              d="M 9.279222,555.094116 A 218.375057,218.375057 0,0 1,173.921402,522.031738"
              stroke="#25d523" stroke-width="1.6600707" stroke-opacity="1.0"/>
        <path stroke-linecap="round" fill="none" class="id_nosZ id_W-NO_{3}^{-}"
              d="M -32.748867,536.533875 A 552.960081,552.960081 0,0 1,278.145660,54.317844"
              stroke="#1dd41b" stroke-width="3.6662822" stroke-opacity="1.0"/>
        <path stroke-linecap="round" fill="none" class="id_norB id_FI"
              d="M 222.721741,-477.408875 A 408.130070,408.130070 0,0 1,-175.526749,-500.351837"
              stroke="#b3192b" stroke-width="2.51643" stroke-opacity="1.0"/>
        <path stroke-linecap="round" fill="none" class="id_norB id_W-NH_{4}^{+}"
              d="M 320.568542,-485.415894 A 412.629887,412.629887 0,0 1,561.010742,-160.319427"
              stroke="#1ad318" stroke-width="4.349467" stroke-opacity="1.0"/>
        <path stroke-linecap="round" fill="none"
              class="id_hzsA id_S-Size-d((0.9-0.1)/0.5)"
              d="M -197.944992,-35.879417 A 394.743688,394.743688 0,0 1,-431.265503,-339.243774"
              stroke="#ac0014" stroke-width="8.07159" stroke-opacity="1.0"/>
        <path stroke-linecap="round" fill="none" class="id_hzsA id_FI"
              d="M -182.613098,-58.515358 A 433.129611,433.129611 0,0 1,-242.324066,-483.476929"
              stroke="#21d41f" stroke-width="2.7392812" stroke-opacity="1.0"/>
        <path stroke-linecap="round" fill="none" class="id_hzsA id_W-NH_{4}^{+}"
              d="M -106.172096,-53.597980 A 597.117235,597.117235 0,0 1,515.993469,-130.971436"
              stroke="#ae081c" stroke-width="6.4573812" stroke-opacity="1.0"/>
        <path stroke-linecap="round" fill="none" class="id_hzsB id_S-TN"
              d="M 39.300575,-310.124420 A 594.886756,594.886756 0,0 1,8.490435,313.386108"
              stroke="#21d41f" stroke-width="2.6802006" stroke-opacity="1.0"/>
        <path stroke-linecap="round" fill="none" class="id_hzsB id_Ⅰ-Area"
              d="M 56.968983,-385.146271 A 392.001683,392.001683 0,0 1,436.321350,-379.582794"
              stroke="#02d000" stroke-width="9.0" stroke-opacity="1.0"/>
        <path stroke-linecap="round" fill="none" class="id_hzsB id_W-NO_{3}^{-}"
              d="M 62.671921,-339.893585 A 418.405618,418.405618 0,0 1,322.335663,-20.875969"
              stroke="#1ed41c" stroke-width="3.485533" stroke-opacity="1.0"/>
        <path stroke-linecap="round" fill="none" class="id_hzo id_W-COD"
              d="M -307.085876,461.404602 A 637.455114,637.455114 0,0 1,-268.189789,-213.014221"
              stroke="#b51f30" stroke-width="1.1005381" stroke-opacity="1.0"/>
        <path stroke-linecap="round" fill="none" class="id_nifH id_S-TN"
              d="M -418.061066,310.926086 A 367.557689,367.557689 0,0 1,-68.575340,325.510071"
              stroke="#ac0215" stroke-width="7.7201495" stroke-opacity="1.0"/>
        <path stroke-linecap="round" fill="none" class="id_nifH id_Ⅰ-Area"
              d="M -447.489105,286.898132 A 974.809532,974.809532 0,0 1,427.193542,-348.782440"
              stroke="#ac0115" stroke-width="7.8224044" stroke-opacity="1.0"/>
        <path stroke-linecap="round" fill="none" class="id_nifH id_W-NO_{3}^{-}"
              d="M -434.360077,293.441956 A 707.985812,707.985812 0,0 1,275.314148,20.262775"
              stroke="#b52031" stroke-width="0.90000004" stroke-opacity="1.0"/>
    </g>
    <g id="nodes">
        <circle fill="#9a96e5" r="39.648003" fill-opacity="0.6"
                class="id_Bacterial_16S_rRNA" cx="32.446888" cy="-593.3377"/>
        <circle fill="none" r="43.424" cx="32.446888" cy="-593.3377"
                stroke="#000000" stroke-opacity="0.6" stroke-width="7.552"/>
        <circle fill="#f97743" r="39.648003" fill-opacity="0.6"
                class="id_S-Size-d(0.1)" cx="285.76154" cy="-228.2852"/>
        <circle fill="none" r="43.424" cx="285.76154" cy="-228.2852"
                stroke="#000000" stroke-opacity="0.6" stroke-width="7.552"/>
        <circle fill="#9a96e5" r="39.648003" fill-opacity="0.6"
                class="id_Archaeal_16S_rRNA" cx="459.7173" cy="379.8377"/>
        <circle fill="none" r="43.424" cx="459.7173" cy="379.8377"
                stroke="#000000" stroke-opacity="0.6" stroke-width="7.552"/>
        <circle fill="#f97743" r="39.648003" fill-opacity="0.6" class="id_S-TN"
                cx="-24.194237" cy="356.6221"/>
        <circle fill="none" r="43.424" cx="-24.194237" cy="356.6221"
                stroke="#000000" stroke-opacity="0.6" stroke-width="7.552"/>
        <circle fill="#9a96e5" r="39.648003" fill-opacity="0.6"
                class="id_AOA_amoA" cx="248.7346" cy="284.08063"/>
        <circle fill="none" r="43.424" cx="248.7346" cy="284.08063"
                stroke="#000000" stroke-opacity="0.6" stroke-width="7.552"/>
        <circle fill="#9a96e5" r="39.648003" fill-opacity="0.6"
                class="id_AOB_amoA" cx="-561.126" cy="-172.63345"/>
        <circle fill="none" r="43.424" cx="-561.126" cy="-172.63345"
                stroke="#000000" stroke-opacity="0.6" stroke-width="7.552"/>
        <circle fill="#28b36a" r="39.648003" fill-opacity="0.6" class="id_W-COD"
                cx="-235.01945" cy="-255.87877"/>
        <circle fill="none" r="43.424" cx="-235.01945" cy="-255.87877"
                stroke="#000000" stroke-opacity="0.6" stroke-width="7.552"/>
        <circle fill="#9a96e5" r="39.648003" fill-opacity="0.6" class="id_nxrA"
                cx="63.21076" cy="126.00336"/>
        <circle fill="none" r="43.424" cx="63.21076" cy="126.00336"
                stroke="#000000" stroke-opacity="0.6" stroke-width="7.552"/>
        <circle fill="#9a96e5" r="39.648003" fill-opacity="0.6" class="id_nirK"
                cx="74.89256" cy="-125.94053"/>
        <circle fill="none" r="43.424" cx="74.89256" cy="-125.94053"
                stroke="#000000" stroke-opacity="0.6" stroke-width="7.552"/>
        <circle fill="#f97743" r="39.648003" fill-opacity="0.6"
                class="id_S-Size-d(0.9)" cx="-582.927" cy="114.03951"/>
        <circle fill="none" r="43.424" cx="-582.927" cy="114.03951"
                stroke="#000000" stroke-opacity="0.6" stroke-width="7.552"/>
        <circle fill="#9a96e5" r="39.648003" fill-opacity="0.6" class="id_nirS"
                cx="561.36365" cy="143.4952"/>
        <circle fill="none" r="43.424" cx="561.36365" cy="143.4952"
                stroke="#000000" stroke-opacity="0.6" stroke-width="7.552"/>
        <circle fill="#9a96e5" r="39.648003" fill-opacity="0.6" class="id_nosZ"
                cx="-31.566433" cy="590.72095"/>
        <circle fill="none" r="43.424" cx="-31.566433" cy="590.72095"
                stroke="#000000" stroke-opacity="0.6" stroke-width="7.552"/>
        <circle fill="#f97743" r="39.648003" fill-opacity="0.6" class="id_BIX"
                cx="-243.39711" cy="231.15805"/>
        <circle fill="none" r="43.424" cx="-243.39711" cy="231.15805"
                stroke="#000000" stroke-opacity="0.6" stroke-width="7.552"/>
        <circle fill="#f97743" r="39.648003" fill-opacity="0.6" class="id_β:α"
                cx="-382.03308" cy="-8.155729"/>
        <circle fill="none" r="43.424" cx="-382.03308" cy="-8.155729"
                stroke="#000000" stroke-opacity="0.6" stroke-width="7.552"/>
        <circle fill="#f97743" r="39.648003" fill-opacity="0.6"
                class="id_Ⅲ-Area" cx="225.35452" cy="539.12775"/>
        <circle fill="none" r="43.424" cx="225.35452" cy="539.12775"
                stroke="#000000" stroke-opacity="0.6" stroke-width="7.552"/>
        <circle fill="#28b36a" r="39.648003" fill-opacity="0.6"
                class="id_W-NO_{3}^{-}" cx="327.98938" cy="33.02835"/>
        <circle fill="none" r="43.424" cx="327.98938" cy="33.02835"
                stroke="#000000" stroke-opacity="0.6" stroke-width="7.552"/>
        <circle fill="#9a96e5" r="39.648003" fill-opacity="0.6" class="id_norB"
                cx="269.77084" cy="-504.31653"/>
        <circle fill="none" r="43.424" cx="269.77084" cy="-504.31653"
                stroke="#000000" stroke-opacity="0.6" stroke-width="7.552"/>
        <circle fill="#f97743" r="39.648003" fill-opacity="0.6" class="id_FI"
                cx="-219.17456" cy="-532.4845"/>
        <circle fill="none" r="43.424" cx="-219.17456" cy="-532.4845"
                stroke="#000000" stroke-opacity="0.6" stroke-width="7.552"/>
        <circle fill="#28b36a" r="39.648003" fill-opacity="0.6"
                class="id_W-NH_{4}^{+}" cx="564.2086" cy="-106.213844"/>
        <circle fill="none" r="43.424" cx="564.2086" cy="-106.213844"
                stroke="#000000" stroke-opacity="0.6" stroke-width="7.552"/>
        <circle fill="#9a96e5" r="39.648003" fill-opacity="0.6" class="id_hzsA"
                cx="-146.85458" cy="-17.784925"/>
        <circle fill="none" r="43.424" cx="-146.85458" cy="-17.784925"
                stroke="#000000" stroke-opacity="0.6" stroke-width="7.552"/>
        <circle fill="#f97743" r="39.648003" fill-opacity="0.6"
                class="id_S-Size-d((0.9-0.1)/0.5)" cx="-435.64145"
                cy="-393.26685"/>
        <circle fill="none" r="43.424" cx="-435.64145" cy="-393.26685"
                stroke="#000000" stroke-opacity="0.6" stroke-width="7.552"/>
        <circle fill="#9a96e5" r="39.648003" fill-opacity="0.6" class="id_hzsB"
                cx="11.037646" cy="-356.3721"/>
        <circle fill="none" r="43.424" cx="11.037646" cy="-356.3721"
                stroke="#000000" stroke-opacity="0.6" stroke-width="7.552"/>
        <circle fill="#f97743" r="39.648003" fill-opacity="0.6"
                class="id_Ⅰ-Area" cx="481.38913" cy="-349.47406"/>
        <circle fill="none" r="43.424" cx="481.38913" cy="-349.47406"
                stroke="#000000" stroke-opacity="0.6" stroke-width="7.552"/>
        <circle fill="#9a96e5" r="39.648003" fill-opacity="0.6" class="id_hzo"
                cx="-279.0634" cy="507.79834"/>
        <circle fill="none" r="43.424" cx="-279.0634" cy="507.79834"
                stroke="#000000" stroke-opacity="0.6" stroke-width="7.552"/>
        <circle fill="#9a96e5" r="39.648003" fill-opacity="0.6" class="id_nifH"
                cx="-464.87994" cy="338.23233"/>
        <circle fill="none" r="43.424" cx="-464.87994" cy="338.23233"
                stroke="#000000" stroke-opacity="0.6" stroke-width="7.552"/>
    </g>
</svg>