<?xml version="1.0" encoding="UTF-8"?>
<!DOCTYPE svg PUBLIC "-//W3C//DTD SVG 1.1//EN"
    "http://www.w3.org/Graphics/SVG/1.1/DTD/svg11.dtd" >
<svg contentScriptType="text/ecmascript" width="1321.0"
     xmlns:xlink="http://www.w3.org/1999/xlink" zoomAndPan="magnify"
     contentStyleType="text/css"
     viewBox="-660.000000 -659.000000 1321.000000 1315.000000" height="1315.0"
     preserveAspectRatio="xMidYMid meet" xmlns="http://www.w3.org/2000/svg"
     version="1.1">
    <g id="edges">
        <path stroke-linecap="round" fill="none"
              class="id_Bacterial_16S_rRNA id_S-TP"
              d="M 534.445496,-203.352310 A 889.266424,889.266424 0,0 1,-440.390137,-362.834381"
              stroke="#b51e2f" stroke-width="1.1352257" stroke-opacity="1.0"/>
        <path stroke-linecap="round" fill="none"
              class="id_Bacterial_16S_rRNA id_W-T"
              d="M 539.294006,-195.437881 A 769.805115,769.805115 0,0 1,-304.440552,-167.289719"
              stroke="#24d522" stroke-width="3.6021862" stroke-opacity="1.0"/>
        <path stroke-linecap="round" fill="none"
              class="id_Archaeal_16S_rRNA id_W-pH"
              d="M 208.553604,-534.949158 A 381.711665,381.711665 0,0 1,-111.535965,-336.266083"
              stroke="#11d20f" stroke-width="7.2849007" stroke-opacity="1.0"/>
        <path stroke-linecap="round" fill="none"
              class="id_Archaeal_16S_rRNA id_W-NO_{3}^{-}"
              d="M 253.089874,-536.771790 A 477.015667,477.015667 0,0 1,216.120514,-46.374477"
              stroke="#24d523" stroke-width="3.5423243" stroke-opacity="1.0"/>
        <path stroke-linecap="round" fill="none" class="id_AOA_amoA id_S-TN"
              d="M -399.551483,479.976257 A 402.211262,402.211262 0,0 1,-618.839172,143.635849"
              stroke="#b3192b" stroke-width="2.2982988" stroke-opacity="1.0"/>
        <path stroke-linecap="round" fill="none" class="id_AOA_amoA id_W-COD"
              d="M -362.462799,451.327484 A 220.739585,220.739585 0,0 1,-295.496521,282.977509"
              stroke="#ac0216" stroke-width="7.0417166" stroke-opacity="1.0"/>
        <path stroke-linecap="round" fill="none" class="id_AOB_amoA id_Ⅲ-Area"
              d="M 584.053772,100.051010 A 517.429789,517.429789 0,0 1,49.173088,177.805908"
              stroke="#b21326" stroke-width="3.6089346" stroke-opacity="1.0"/>
        <path stroke-linecap="round" fill="none"
              class="id_AOB_amoA id_W-NO_{3}^{-}"
              d="M 575.246948,86.400246 A 367.002320,367.002320 0,0 1,221.603790,24.893848"
              stroke="#09d107" stroke-width="8.354188" stroke-opacity="1.0"/>
        <path stroke-linecap="round" fill="none" class="id_AOB_amoA id_W-COD"
              d="M 586.756042,102.780380 A 747.074098,747.074098 0,0 1,-212.348053,272.233643"
              stroke="#b41d2f" stroke-width="1.3407714" stroke-opacity="1.0"/>
        <path stroke-linecap="round" fill="none" class="id_nxrA id_W-pH"
              d="M -33.561321,-569.770142 A 254.031337,254.031337 0,0 1,-120.569771,-365.688385"
              stroke="#0fd20d" stroke-width="7.545574" stroke-opacity="1.0"/>
        <path stroke-linecap="round" fill="none" class="id_nxrA id_W-NO_{3}^{-}"
              d="M -0.909752,-589.771057 A 541.997354,541.997354 0,0 1,197.709442,-55.388432"
              stroke="#23d521" stroke-width="3.8664744"
              stroke-opacity="0.99607843"/>
        <path stroke-linecap="round" fill="none" class="id_narG id_HIX"
              d="M 116.674133,356.539246 A 527.727945,527.727945 0,0 1,-372.204590,98.260803"
              stroke="#02d000" stroke-width="9.0" stroke-opacity="1.0"/>
        <path stroke-linecap="round" fill="none" class="id_narG id_Ⅰ-Area"
              d="M 122.273529,327.925842 A 831.536222,831.536222 0,0 1,-284.319977,-495.580750"
              stroke="#b41a2c" stroke-width="1.9348733" stroke-opacity="1.0"/>
        <path stroke-linecap="round" fill="none" class="id_narG id_Ⅲ-Area"
              d="M 119.432411,334.164978 A 209.663306,209.663306 0,0 1,13.171002,204.555893"
              stroke="#21d41f" stroke-width="4.3027644" stroke-opacity="1.0"/>
        <path stroke-linecap="round" fill="none" class="id_narG id_Ⅴ-Area"
              d="M 152.118225,398.005493 A 328.142967,328.142967 0,0 1,-79.528465,606.872314"
              stroke="#2cd62a" stroke-width="1.6826596" stroke-opacity="1.0"/>
        <path stroke-linecap="round" fill="none" class="id_narG id_W-DO"
              d="M 127.845718,319.774963 A 447.714521,447.714521 0,0 1,1.621667,-118.871979"
              stroke="#21d51f" stroke-width="4.284293" stroke-opacity="1.0"/>
        <path stroke-linecap="round" fill="none" class="id_napA id_HIX"
              d="M -544.368103,-145.720978 A 242.352540,242.352540 0,0 1,-404.449921,7.653440"
              stroke="#02d000" stroke-width="8.983789" stroke-opacity="1.0"/>
        <path stroke-linecap="round" fill="none" class="id_napA id_Ⅲ-Area"
              d="M -542.673462,-165.010101 A 562.509743,562.509743 0,0 1,-17.120789,113.534836"
              stroke="#20d41e" stroke-width="4.4826994" stroke-opacity="1.0"/>
        <path stroke-linecap="round" fill="none" class="id_napA id_Ⅴ-Area"
              d="M -546.592957,-139.704788 A 752.058584,752.058584 0,0 1,-123.985481,566.349243"
              stroke="#25d524" stroke-width="3.3360813" stroke-opacity="1.0"/>
        <path stroke-linecap="round" fill="none" class="id_napA id_W-DO"
              d="M -550.983521,-187.165527 A 506.159851,506.159851 0,0 1,-24.084597,-192.055283"
              stroke="#2cd62a" stroke-width="1.7165669"
              stroke-opacity="0.99607843"/>
        <path stroke-linecap="round" fill="none" class="id_nirK id_S-TN"
              d="M -551.445801,291.694061 A 206.999287,206.999287 0,0 1,-622.427246,143.484207"
              stroke="#ae091c" stroke-width="5.746023" stroke-opacity="1.0"/>
        <path stroke-linecap="round" fill="none" class="id_nirK id_BIX"
              d="M -507.783081,270.594482 A 776.906911,776.906911 0,0 1,31.329294,-390.107513"
              stroke="#af0b1e" stroke-width="5.4319997" stroke-opacity="1.0"/>
        <path stroke-linecap="round" fill="none" class="id_nirK id_β:α"
              d="M -500.445923,271.692780 A 401.286478,401.286478 0,0 1,-211.026855,-4.988810"
              stroke="#ac0014" stroke-width="7.286155" stroke-opacity="1.0"/>
        <path stroke-linecap="round" fill="none" class="id_nirK id_Ⅳ-Area"
              d="M -466.828522,299.438965 A 748.933279,748.933279 0,0 1,336.710663,458.384705"
              stroke="#2fd72d" stroke-width="0.9645212"
              stroke-opacity="0.99607843"/>
        <path stroke-linecap="round" fill="none" class="id_nirS id_S-TN"
              d="M 283.869904,210.742340 A 790.973072,790.973072 0,0 1,-581.712341,126.699608"
              stroke="#2dd62b" stroke-width="1.4909159" stroke-opacity="1.0"/>
        <path stroke-linecap="round" fill="none" class="id_nirS id_HIX"
              d="M 281.834167,206.731659 A 610.822323,610.822323 0,0 1,-360.549072,89.636032"
              stroke="#2cd62b" stroke-width="1.6495651" stroke-opacity="1.0"/>
        <path stroke-linecap="round" fill="none" class="id_nirS id_Ⅰ-Area"
              d="M 279.277161,173.895142 A 789.225789,789.225789 0,0 1,-273.027649,-495.138733"
              stroke="#b11325" stroke-width="3.6897814" stroke-opacity="1.0"/>
        <path stroke-linecap="round" fill="none" class="id_nirS id_Ⅳ-Area"
              d="M 357.168427,224.171478 A 258.223358,258.223358 0,0 1,389.547791,448.814880"
              stroke="#b51f30" stroke-width="0.90000004" stroke-opacity="1.0"/>
        <path stroke-linecap="round" fill="none" class="id_nirS id_W-DO"
              d="M 279.275085,173.902695 A 390.687240,390.687240 0,0 1,23.205423,-117.048622"
              stroke="#06d004" stroke-width="8.682714" stroke-opacity="1.0"/>
        <path stroke-linecap="round" fill="none" class="id_nirS id_W-COD"
              d="M 289.199493,218.341507 A 489.158255,489.158255 0,0 1,-213.973343,275.675446"
              stroke="#27d626" stroke-width="2.813536" stroke-opacity="1.0"/>
        <path stroke-linecap="round" fill="none" class="id_norB id_β:α"
              d="M 420.666931,-390.448944 A 611.951829,611.951829 0,0 1,-114.613953,-14.125760"
              stroke="#af0a1d" stroke-width="5.630145" stroke-opacity="1.0"/>
        <path stroke-linecap="round" fill="none" class="id_norB id_Ⅱ-Area"
              d="M 427.573975,-388.460999 A 194.067477,194.067477 0,0 1,329.235107,-277.280640"
              stroke="#b11325" stroke-width="3.6891217" stroke-opacity="1.0"/>
        <path stroke-linecap="round" fill="none" class="id_hzsA id_β:α"
              d="M 388.406403,-21.859613 A 492.731965,492.731965 0,0 1,-121.279984,10.880329"
              stroke="#af0a1d" stroke-width="5.5986023" stroke-opacity="1.0"/>
        <path stroke-linecap="round" fill="none" class="id_hzsA id_Ⅱ-Area"
              d="M 382.928040,-72.395988 A 212.010426,212.010426 0,0 1,286.693054,-213.117111"
              stroke="#b11325" stroke-width="3.7369752" stroke-opacity="1.0"/>
        <path stroke-linecap="round" fill="none" class="id_hzsB id_Ⅲ-Area"
              d="M 486.563019,318.133270 A 455.971712,455.971712 0,0 1,37.134521,193.429886"
              stroke="#27d626" stroke-width="2.8275921" stroke-opacity="1.0"/>
        <path stroke-linecap="round" fill="none" class="id_hzsB id_W-pH"
              d="M 484.535248,296.401367 A 786.168639,786.168639 0,0 1,-149.886887,-289.936279"
              stroke="#b11123" stroke-width="4.2163844" stroke-opacity="1.0"/>
        <path stroke-linecap="round" fill="none" class="id_hzsB id_W-NO_{3}^{-}"
              d="M 484.652374,295.581848 A 388.155553,388.155553 0,0 1,198.453857,38.770023"
              stroke="#ac0115" stroke-width="7.1966977" stroke-opacity="1.0"/>
        <path stroke-linecap="round" fill="none" class="id_hzo id_Ⅲ-Area"
              d="M -84.335480,351.135956 A 212.365307,212.365307 0,0 1,-30.943502,188.773651"
              stroke="#ac0115" stroke-width="7.1399493" stroke-opacity="1.0"/>
        <path stroke-linecap="round" fill="none" class="id_hzo id_Ⅴ-Area"
              d="M -61.173492,445.492126 A 185.538742,185.538742 0,0 1,-94.204002,579.396545"
              stroke="#ac0014" stroke-width="7.398148" stroke-opacity="1.0"/>
        <path stroke-linecap="round" fill="none" class="id_hzo id_W-NO_{3}^{-}"
              d="M -74.839157,350.061768 A 402.453877,402.453877 0,0 1,141.624985,11.549283"
              stroke="#1dd41b" stroke-width="5.11757" stroke-opacity="1.0"/>
        <path stroke-linecap="round" fill="none" class="id_nifH id_W-pH"
              d="M 96.767792,569.513000 A 818.292967,818.292967 0,0 1,-174.858932,-291.134705"
              stroke="#b01022" stroke-width="4.4121585" stroke-opacity="1.0"/>
        <path stroke-linecap="round" fill="none" class="id_nifH id_W-NO_{3}^{-}"
              d="M 111.589508,556.618103 A 507.744731,507.744731 0,0 1,155.512115,29.613527"
              stroke="#b21427" stroke-width="3.362886" stroke-opacity="1.0"/>
    </g>
    <g id="nodes">
        <circle fill="#9a96e5" r="34.944" fill-opacity="0.6"
                class="id_Bacterial_16S_rRNA" cx="578.12213" cy="-224.66695"/>
        <circle fill="none" r="38.272" cx="578.12213" cy="-224.66695"
                stroke="#000000" stroke-opacity="0.6" stroke-width="6.6559997"/>
        <circle fill="#f97743" r="34.944" fill-opacity="0.6" class="id_S-TP"
                cx="-474.99744" cy="-396.95615"/>
        <circle fill="none" r="38.272" cx="-474.99744" cy="-396.95615"
                stroke="#000000" stroke-opacity="0.6" stroke-width="6.6559997"/>
        <circle fill="#28b36a" r="34.944" fill-opacity="0.6" class="id_W-T"
                cx="-345.1304" cy="-193.86595"/>
        <circle fill="none" r="38.272" cx="-345.1304" cy="-193.86595"
                stroke="#000000" stroke-opacity="0.6" stroke-width="6.6559997"/>
        <circle fill="#9a96e5" r="34.944" fill-opacity="0.6"
                class="id_Archaeal_16S_rRNA" cx="229.05576" cy="-579.013"/>
        <circle fill="none" r="38.272" cx="229.05576" cy="-579.013"
                stroke="#000000" stroke-opacity="0.6" stroke-width="6.6559997"/>
        <circle fill="#28b36a" r="34.944" fill-opacity="0.6" class="id_W-pH"
                cx="-160.12163" cy="-337.44638"/>
        <circle fill="none" r="38.272" cx="-160.12163" cy="-337.44638"
                stroke="#000000" stroke-opacity="0.6" stroke-width="6.6559997"/>
        <circle fill="#28b36a" r="34.944" fill-opacity="0.6"
                class="id_W-NO_{3}^{-}" cx="186.02518" cy="-8.213885"/>
        <circle fill="none" r="38.272" cx="186.02518" cy="-8.213885"
                stroke="#000000" stroke-opacity="0.6" stroke-width="6.6559997"/>
        <circle fill="#9a96e5" r="34.944" fill-opacity="0.6" class="id_AOA_amoA"
                cx="-354.97903" cy="499.34784"/>
        <circle fill="none" r="38.272" cx="-354.97903" cy="499.34784"
                stroke="#000000" stroke-opacity="0.6" stroke-width="6.6559997"/>
        <circle fill="#9a96e5" r="34.944" fill-opacity="0.6" class="id_S-TN"
                cx="-618.5825" cy="95.03652"/>
        <circle fill="none" r="38.272" cx="-618.5825" cy="95.03652"
                stroke="#000000" stroke-opacity="0.6" stroke-width="6.6559997"/>
        <circle fill="#28b36a" r="34.944" fill-opacity="0.6" class="id_W-COD"
                cx="-257.0735" cy="253.21799"/>
        <circle fill="none" r="38.272" cx="-257.0735" cy="253.21799"
                stroke="#000000" stroke-opacity="0.6" stroke-width="6.6559997"/>
        <circle fill="#9a96e5" r="34.944" fill-opacity="0.6" class="id_AOB_amoA"
                cx="619.91455" cy="67.24911"/>
        <circle fill="none" r="38.272" cx="619.91455" cy="67.24911"
                stroke="#000000" stroke-opacity="0.6" stroke-width="6.6559997"/>
        <circle fill="#f97743" r="34.944" fill-opacity="0.6" class="id_Ⅲ-Area"
                cx="5.4571986" cy="156.57196"/>
        <circle fill="none" r="38.272" cx="5.4571986" cy="156.57196"
                stroke="#000000" stroke-opacity="0.6" stroke-width="6.6559997"/>
        <circle fill="#9a96e5" r="34.944" fill-opacity="0.6" class="id_nxrA"
                cx="-40.568806" cy="-617.8623"/>
        <circle fill="none" r="38.272" cx="-40.568806" cy="-617.8623"
                stroke="#000000" stroke-opacity="0.6" stroke-width="6.6559997"/>
        <circle fill="#9a96e5" r="34.944" fill-opacity="0.6" class="id_narG"
                cx="164.97287" cy="351.13632"/>
        <circle fill="none" r="38.272" cx="164.97287" cy="351.13632"
                stroke="#000000" stroke-opacity="0.6" stroke-width="6.6559997"/>
        <circle fill="#f97743" r="34.944" fill-opacity="0.6" class="id_HIX"
                cx="-394.96207" cy="55.318317"/>
        <circle fill="none" r="38.272" cx="-394.96207" cy="55.318317"
                stroke="#000000" stroke-opacity="0.6" stroke-width="6.6559997"/>
        <circle fill="#f97743" r="34.944" fill-opacity="0.6" class="id_Ⅰ-Area"
                cx="-276.78583" cy="-543.5932"/>
        <circle fill="none" r="38.272" cx="-276.78583" cy="-543.5932"
                stroke="#000000" stroke-opacity="0.6" stroke-width="6.6559997"/>
        <circle fill="#f97743" r="34.944" fill-opacity="0.6" class="id_Ⅴ-Area"
                cx="-127.47356" cy="614.8239"/>
        <circle fill="none" r="38.272" cx="-127.47356" cy="614.8239"
                stroke="#000000" stroke-opacity="0.6" stroke-width="6.6559997"/>
        <circle fill="#28b36a" r="34.944" fill-opacity="0.6" class="id_W-DO"
                cx="16.401735" cy="-165.17003"/>
        <circle fill="none" r="38.272" cx="16.401735" cy="-165.17003"
                stroke="#000000" stroke-opacity="0.6" stroke-width="6.6559997"/>
        <circle fill="#9a96e5" r="34.944" fill-opacity="0.6" class="id_napA"
                cx="-590.9639" cy="-159.53352"/>
        <circle fill="none" r="38.272" cx="-590.9639" cy="-159.53352"
                stroke="#000000" stroke-opacity="0.6" stroke-width="6.6559997"/>
        <circle fill="#9a96e5" r="34.944" fill-opacity="0.6" class="id_nirK"
                cx="-511.2882" cy="319.06793"/>
        <circle fill="none" r="38.272" cx="-511.2882" cy="319.06793"
                stroke="#000000" stroke-opacity="0.6" stroke-width="6.6559997"/>
        <circle fill="#f97743" r="34.944" fill-opacity="0.6" class="id_BIX"
                cx="78.11402" cy="-403.26614"/>
        <circle fill="none" r="38.272" cx="78.11402" cy="-403.26614"
                stroke="#000000" stroke-opacity="0.6" stroke-width="6.6559997"/>
        <circle fill="#f97743" r="34.944" fill-opacity="0.6" class="id_β:α"
                cx="-163.21199" cy="-13.6893"/>
        <circle fill="none" r="38.272" cx="-163.21199" cy="-13.6893"
                stroke="#000000" stroke-opacity="0.6" stroke-width="6.6559997"/>
        <circle fill="#f97743" r="34.944" fill-opacity="0.6" class="id_Ⅳ-Area"
                cx="370.34906" cy="493.46204"/>
        <circle fill="none" r="38.272" cx="370.34906" cy="493.46204"
                stroke="#000000" stroke-opacity="0.6" stroke-width="6.6559997"/>
        <circle fill="#9a96e5" r="34.944" fill-opacity="0.6" class="id_nirS"
                cx="326.14255" cy="186.76352"/>
        <circle fill="none" r="38.272" cx="326.14255" cy="186.76352"
                stroke="#000000" stroke-opacity="0.6" stroke-width="6.6559997"/>
        <circle fill="#9a96e5" r="34.944" fill-opacity="0.6" class="id_norB"
                cx="437.52573" cy="-436.0312"/>
        <circle fill="none" r="38.272" cx="437.52573" cy="-436.0312"
                stroke="#000000" stroke-opacity="0.6" stroke-width="6.6559997"/>
        <circle fill="#f97743" r="34.944" fill-opacity="0.6" class="id_Ⅱ-Area"
                cx="283.2363" cy="-261.59402"/>
        <circle fill="none" r="38.272" cx="283.2363" cy="-261.59402"
                stroke="#000000" stroke-opacity="0.6" stroke-width="6.6559997"/>
        <circle fill="#9a96e5" r="34.944" fill-opacity="0.6" class="id_hzsA"
                cx="426.85028" cy="-51.592216"/>
        <circle fill="none" r="38.272" cx="426.85028" cy="-51.592216"
                stroke="#000000" stroke-opacity="0.6" stroke-width="6.6559997"/>
        <circle fill="#9a96e5" r="34.944" fill-opacity="0.6" class="id_hzsB"
                cx="532.7032" cy="302.86743"/>
        <circle fill="none" r="38.272" cx="532.7032" cy="302.86743"
                stroke="#000000" stroke-opacity="0.6" stroke-width="6.6559997"/>
        <circle fill="#9a96e5" r="34.944" fill-opacity="0.6" class="id_hzo"
                cx="-74.15114" cy="398.6569"/>
        <circle fill="none" r="38.272" cx="-74.15114" cy="398.6569"
                stroke="#000000" stroke-opacity="0.6" stroke-width="6.6559997"/>
        <circle fill="#9a96e5" r="34.944" fill-opacity="0.6" class="id_nifH"
                cx="135.41971" cy="598.9747"/>
        <circle fill="none" r="38.272" cx="135.41971" cy="598.9747"
                stroke="#000000" stroke-opacity="0.6" stroke-width="6.6559997"/>
    </g>
</svg>