<?xml version="1.0" encoding="UTF-8"?>
<!DOCTYPE svg PUBLIC "-//W3C//DTD SVG 1.1//EN"
    "http://www.w3.org/Graphics/SVG/1.1/DTD/svg11.dtd" >
<svg contentScriptType="text/ecmascript" width="1402.0"
     xmlns:xlink="http://www.w3.org/1999/xlink" zoomAndPan="magnify"
     contentStyleType="text/css"
     viewBox="-698.000000 -691.000000 1402.000000 1397.000000" height="1397.0"
     preserveAspectRatio="xMidYMid meet" xmlns="http://www.w3.org/2000/svg"
     version="1.1">
    <g id="edges">
        <path stroke-linecap="round" fill="none"
              class="id_Bacterial_16S_rRNA id_W-pH"
              d="M 451.556122,402.809875 A 377.676987,377.676987 0,0 1,235.004715,109.161758"
              stroke="#b62132" stroke-width="6.9739084" stroke-opacity="1.0"/>
        <path stroke-linecap="round" fill="none"
              class="id_Bacterial_16S_rRNA id_W-NO_{2}^{-}"
              d="M 449.908936,434.885590 A 808.838977,808.838977 0,0 1,-380.291565,129.927551"
              stroke="#ad0317" stroke-width="8.879451" stroke-opacity="1.0"/>
        <path stroke-linecap="round" fill="none"
              class="id_Bacterial_16S_rRNA id_W-COD"
              d="M 478.519012,373.747803 A 573.798144,573.798144 0,0 1,575.065674,-220.047729"
              stroke="#39d838" stroke-width="3.7630646" stroke-opacity="1.0"/>
        <path stroke-linecap="round" fill="none"
              class="id_Archaeal_16S_rRNA id_S-Size-d(0.1)"
              d="M -231.468536,-284.385773 A 220.133124,220.133124 0,0 1,-200.805573,-114.062462"
              stroke="#ad0317" stroke-width="8.897826" stroke-opacity="1.0"/>
        <path stroke-linecap="round" fill="none"
              class="id_Archaeal_16S_rRNA id_Ⅰ-Area"
              d="M -239.141052,-370.113068 A 519.682291,519.682291 0,0 1,242.758820,-605.628967"
              stroke="#27d525" stroke-width="6.342995" stroke-opacity="1.0"/>
        <path stroke-linecap="round" fill="none"
              class="id_Archaeal_16S_rRNA id_W-TN"
              d="M -227.424591,-288.188385 A 629.539058,629.539058 0,0 1,-90.816551,366.433044"
              stroke="#14d212" stroke-width="8.059218" stroke-opacity="1.0"/>
        <path stroke-linecap="round" fill="none"
              class="id_Archaeal_16S_rRNA id_W-NH_{4}^{+}"
              d="M -218.820984,-300.172363 A 722.984997,722.984997 0,0 1,143.104233,392.110016"
              stroke="#48db46" stroke-width="0.90000004" stroke-opacity="1.0"/>
        <path stroke-linecap="round" fill="none" class="id_AOA_amoA id_S-TN"
              d="M -415.146759,-105.755043 A 421.647170,421.647170 0,0 1,-528.326843,296.675781"
              stroke="#42da41" stroke-width="2.0667777" stroke-opacity="1.0"/>
        <path stroke-linecap="round" fill="none" class="id_AOA_amoA id_Ⅳ-Area"
              d="M -381.722412,-137.603439 A 350.865795,350.865795 0,0 1,-181.331680,127.581329"
              stroke="#2ed72c" stroke-width="5.5213795" stroke-opacity="1.0"/>
        <path stroke-linecap="round" fill="none" class="id_AOA_amoA id_W-T"
              d="M -398.869751,-197.513077 A 778.522308,778.522308 0,0 1,410.476440,-450.560730"
              stroke="#b92b3c" stroke-width="5.7843785" stroke-opacity="1.0"/>
        <path stroke-linecap="round" fill="none" class="id_AOB_amoA id_S-TN"
              d="M 57.884319,-593.076904 A 965.635338,965.635338 0,0 1,-519.306091,311.354980"
              stroke="#bb3141" stroke-width="4.9641833" stroke-opacity="1.0"/>
        <path stroke-linecap="round" fill="none" class="id_AOB_amoA id_W-pH"
              d="M 94.726616,-610.743530 A 603.414283,603.414283 0,0 1,249.989273,7.319201"
              stroke="#b21628" stroke-width="7.8814387" stroke-opacity="1.0"/>
        <path stroke-linecap="round" fill="none"
              class="id_AOB_amoA id_W-NO_{2}^{-}"
              d="M 57.491272,-593.059387 A 723.230867,723.230867 0,0 1,-361.825958,66.394920"
              stroke="#ba2f40" stroke-width="5.1977243" stroke-opacity="1.0"/>
        <path stroke-linecap="round" fill="none"
              class="id_nxrA id_S-Size-d(0.1)"
              d="M 362.987335,-150.020233 A 525.605092,525.605092 0,0 1,-170.126892,-44.210091"
              stroke="#bc3545" stroke-width="4.3781476" stroke-opacity="1.0"/>
        <path stroke-linecap="round" fill="none" class="id_nxrA id_BIX"
              d="M 434.979919,-148.049011 A 205.208529,205.208529 0,0 1,467.483276,3.192437"
              stroke="#18d316" stroke-width="7.804032" stroke-opacity="1.0"/>
        <path stroke-linecap="round" fill="none" class="id_nxrA id_HIX"
              d="M 395.802307,-134.931992 A 449.329460,449.329460 0,0 1,117.047340,220.222214"
              stroke="#ac0115" stroke-width="8.96606" stroke-opacity="1.0"/>
        <path stroke-linecap="round" fill="none" class="id_nxrA id_β:α"
              d="M 354.253082,-161.458755 A 176.279875,176.279875 0,0 1,235.379059,-158.943771"
              stroke="#19d317" stroke-width="7.700203" stroke-opacity="1.0"/>
        <path stroke-linecap="round" fill="none" class="id_nxrA id_Ⅲ-Area"
              d="M 348.569244,-176.487854 A 713.499829,713.499829 0,0 1,-360.913086,-475.120178"
              stroke="#bb3343" stroke-width="4.689959" stroke-opacity="1.0"/>
        <path stroke-linecap="round" fill="none" class="id_nxrA id_Ⅴ-Area"
              d="M 349.595367,-202.288086 A 248.642670,248.642670 0,0 1,208.490051,-355.115234"
              stroke="#bb3141" stroke-width="4.951448" stroke-opacity="1.0"/>
        <path stroke-linecap="round" fill="none" class="id_nxrA id_W-NO_{3}^{-}"
              d="M 421.608795,-139.390244 A 395.256688,395.256688 0,0 1,362.281219,242.159454"
              stroke="#b11224" stroke-width="8.193522" stroke-opacity="1.0"/>
        <path stroke-linecap="round" fill="none" class="id_nxrA id_W-NH_{4}^{+}"
              d="M 410.594116,-135.832703 A 570.348742,570.348742 0,0 1,180.575287,415.549957"
              stroke="#1fd41d" stroke-width="7.206547" stroke-opacity="1.0"/>
        <path stroke-linecap="round" fill="none"
              class="id_narG id_S-Size-d(0.1)"
              d="M -192.395935,588.133850 A 580.024544,580.024544 0,0 1,-244.423798,-18.734032"
              stroke="#3fd93e" stroke-width="2.6108615" stroke-opacity="1.0"/>
        <path stroke-linecap="round" fill="none" class="id_narG id_FI"
              d="M -144.404495,578.428101 A 871.026780,871.026780 0,0 1,605.697144,-19.419033"
              stroke="#c04250" stroke-width="2.0990875" stroke-opacity="1.0"/>
        <path stroke-linecap="round" fill="none" class="id_narG id_W-TN"
              d="M -173.611084,578.333374 A 182.735677,182.735677 0,0 1,-145.791519,454.505341"
              stroke="#b01022" stroke-width="8.304828" stroke-opacity="1.0"/>
        <path stroke-linecap="round" fill="none" class="id_narG id_W-NO_{3}^{-}"
              d="M -140.663467,579.676453 A 498.150106,498.150106 0,0 1,274.581543,282.885376"
              stroke="#48db46" stroke-width="0.92986107" stroke-opacity="1.0"/>
        <path stroke-linecap="round" fill="none" class="id_napA id_S-TN"
              d="M -393.751801,357.496857 A 183.832136,183.832136 0,0 1,-522.023254,356.688660"
              stroke="#0fd20d" stroke-width="8.384375" stroke-opacity="1.0"/>
        <path stroke-linecap="round" fill="none" class="id_napA id_S-TP"
              d="M -294.987671,336.622253 A 444.868757,444.868757 0,0 1,57.041729,610.627563"
              stroke="#47db46" stroke-width="1.0097423" stroke-opacity="1.0"/>
        <path stroke-linecap="round" fill="none" class="id_nirK id_W-pH"
              d="M -597.380554,79.735542 A 726.765566,726.765566 0,0 1,186.739594,29.469797"
              stroke="#b72435" stroke-width="6.6368313" stroke-opacity="1.0"/>
        <path stroke-linecap="round" fill="none" class="id_nirK id_W-DO"
              d="M -666.843933,68.101479 A 193.451352,193.451352 0,0 1,-675.313721,-71.824165"
              stroke="#3dd93b" stroke-width="3.0974126"
              stroke-opacity="0.99607843"/>
        <path stroke-linecap="round" fill="none" class="id_nirK id_W-NO_{2}^{-}"
              d="M -595.689636,81.985107 A 191.400457,191.400457 0,0 1,-458.908844,66.579453"
              stroke="#ad0519" stroke-width="8.805271" stroke-opacity="1.0"/>
        <path stroke-linecap="round" fill="none"
              class="id_nirS id_S-Size-d(0.9)"
              d="M -91.732819,-411.592072 A 423.913176,423.913176 0,0 1,-505.591797,-335.577850"
              stroke="#bd3a49" stroke-width="3.5292275" stroke-opacity="1.0"/>
        <path stroke-linecap="round" fill="none"
              class="id_nirS id_S-Size-d((0.9-0.1)/0.5)"
              d="M -19.888987,-407.667450 A 382.153992,382.153992 0,0 1,25.892254,-40.228149"
              stroke="#bd3949" stroke-width="3.6559024" stroke-opacity="1.0"/>
        <path stroke-linecap="round" fill="none" class="id_nirS id_W-NO_{2}^{-}"
              d="M -53.392639,-395.347137 A 535.586832,535.586832 0,0 1,-361.643250,66.835968"
              stroke="#35d834" stroke-width="4.3939075" stroke-opacity="1.0"/>
        <path stroke-linecap="round" fill="none" class="id_nirS id_W-COD"
              d="M -3.786557,-464.487976 A 576.261065,576.261065 0,0 1,577.573425,-298.615448"
              stroke="#b21326" stroke-width="8.078276" stroke-opacity="1.0"/>
        <path stroke-linecap="round" fill="none" class="id_nosZ id_W-NO_{2}^{-}"
              d="M -418.928192,502.040253 A 382.124263,382.124263 0,0 1,-436.758392,132.225403"
              stroke="#c14654" stroke-width="1.2498786" stroke-opacity="1.0"/>
        <path stroke-linecap="round" fill="none" class="id_hzsA id_W-NO_{2}^{-}"
              d="M -175.438812,-581.742859 A 626.083247,626.083247 0,0 1,-369.212341,53.942146"
              stroke="#3cd93a" stroke-width="3.2486215" stroke-opacity="1.0"/>
        <path stroke-linecap="round" fill="none"
              class="id_hzsB id_S-Size-d(0.1)"
              d="M 560.022766,234.590591 A 730.657981,730.657981 0,0 1,-187.531113,-22.147726"
              stroke="#c14554" stroke-width="1.4184313" stroke-opacity="1.0"/>
        <path stroke-linecap="round" fill="none" class="id_hzsB id_Ⅰ-Area"
              d="M 567.065247,190.734055 A 731.158927,731.158927 0,0 1,282.385651,-547.278076"
              stroke="#05d003" stroke-width="8.860082" stroke-opacity="1.0"/>
        <path stroke-linecap="round" fill="none" class="id_hzsB id_W-TN"
              d="M 576.496582,260.249573 A 622.949041,622.949041 0,0 1,-61.476395,432.391113"
              stroke="#02d000" stroke-width="8.964579" stroke-opacity="1.0"/>
        <path stroke-linecap="round" fill="none" class="id_hzsB id_W-NO_{3}^{-}"
              d="M 572.018066,255.949951 A 241.643998,241.643998 0,0 1,377.051788,297.969269"
              stroke="#b92b3c" stroke-width="5.751526" stroke-opacity="1.0"/>
        <path stroke-linecap="round" fill="none" class="id_hzo id_Ⅳ-Area"
              d="M 269.450317,567.378174 A 528.406402,528.406402 0,0 1,-161.030350,230.071976"
              stroke="#ac0014" stroke-width="9.0" stroke-opacity="1.0"/>
        <path stroke-linecap="round" fill="none" class="id_hzo id_W-pH"
              d="M 285.813782,532.853394 A 435.236341,435.236341 0,0 1,210.820419,104.911407"
              stroke="#bd3848" stroke-width="3.8557024" stroke-opacity="1.0"/>
        <path stroke-linecap="round" fill="none" class="id_hzo id_W-T"
              d="M 297.844727,524.337830 A 846.087918,846.087918 0,0 1,424.788940,-396.174377"
              stroke="#47db46" stroke-width="1.0436018" stroke-opacity="1.0"/>
        <path stroke-linecap="round" fill="none" class="id_nifH id_FI"
              d="M 15.013218,-244.525726 A 602.654039,602.654039 0,0 1,625.035583,-63.377655"
              stroke="#39d838" stroke-width="3.7260706" stroke-opacity="1.0"/>
        <path stroke-linecap="round" fill="none" class="id_nifH id_Ⅰ-Area"
              d="M -27.280146,-280.441559 A 413.079818,413.079818 0,0 1,244.062057,-584.715759"
              stroke="#41da40" stroke-width="2.3031313" stroke-opacity="1.0"/>
        <path stroke-linecap="round" fill="none" class="id_nifH id_Ⅳ-Area"
              d="M -22.784122,-177.272797 A 360.387305,360.387305 0,0 1,-135.821793,147.543213"
              stroke="#40da3f" stroke-width="2.4277914" stroke-opacity="1.0"/>
        <path stroke-linecap="round" fill="none" class="id_nifH id_W-TN"
              d="M -10.905389,-181.694427 A 539.884470,539.884470 0,0 1,-76.722374,375.155914"
              stroke="#10d20e" stroke-width="8.3569765" stroke-opacity="1.0"/>
        <path stroke-linecap="round" fill="none" class="id_nifH id_W-NO_{3}^{-}"
              d="M 14.168099,-209.891479 A 521.104410,521.104410 0,0 1,325.853943,228.730774"
              stroke="#c04452" stroke-width="1.7416056" stroke-opacity="1.0"/>
    </g>
    <g id="nodes">
        <circle fill="#9a96e5" r="38.304" fill-opacity="0.6"
                class="id_Bacterial_16S_rRNA" cx="500.75522" cy="421.41656"/>
        <circle fill="none" r="41.952003" cx="500.75522" cy="421.41656"
                stroke="#000000" stroke-opacity="0.6" stroke-width="7.296"/>
        <circle fill="#28b36a" r="38.304" fill-opacity="0.6" class="id_W-pH"
                cx="231.7659" cy="56.661564"/>
        <circle fill="none" r="41.952003" cx="231.7659" cy="56.661564"
                stroke="#000000" stroke-opacity="0.6" stroke-width="7.296"/>
        <circle fill="#28b36a" r="38.304" fill-opacity="0.6"
                class="id_W-NO_{2}^{-}" cx="-410.3289" cy="86.74748"/>
        <circle fill="none" r="41.952003" cx="-410.3289" cy="86.74748"
                stroke="#000000" stroke-opacity="0.6" stroke-width="7.296"/>
        <circle fill="#28b36a" r="38.304" fill-opacity="0.6" class="id_W-COD"
                cx="611.25836" cy="-258.2164"/>
        <circle fill="none" r="41.952003" cx="611.25836" cy="-258.2164"
                stroke="#000000" stroke-opacity="0.6" stroke-width="7.296"/>
        <circle fill="#9a96e5" r="38.304" fill-opacity="0.6"
                class="id_Archaeal_16S_rRNA" cx="-265.42923" cy="-324.5533"/>
        <circle fill="none" r="41.952003" cx="-265.42923" cy="-324.5533"
                stroke="#000000" stroke-opacity="0.6" stroke-width="7.296"/>
        <circle fill="#f97743" r="38.304" fill-opacity="0.6"
                class="id_S-Size-d(0.1)" cx="-218.62549" cy="-64.57296"/>
        <circle fill="none" r="41.952003" cx="-218.62549" cy="-64.57296"
                stroke="#000000" stroke-opacity="0.6" stroke-width="7.296"/>
        <circle fill="#f97743" r="38.304" fill-opacity="0.6" class="id_Ⅰ-Area"
                cx="294.8567" cy="-598.3783"/>
        <circle fill="none" r="41.952003" cx="294.8567" cy="-598.3783"
                stroke="#000000" stroke-opacity="0.6" stroke-width="7.296"/>
        <circle fill="#28b36a" r="38.304" fill-opacity="0.6" class="id_W-TN"
                cx="-111.10515" cy="414.96277"/>
        <circle fill="none" r="41.952003" cx="-111.10515" cy="414.96277"
                stroke="#000000" stroke-opacity="0.6" stroke-width="7.296"/>
        <circle fill="#28b36a" r="38.304" fill-opacity="0.6"
                class="id_W-NH_{4}^{+}" cx="136.52571" cy="444.29703"/>
        <circle fill="none" r="41.952003" cx="136.52571" cy="444.29703"
                stroke="#000000" stroke-opacity="0.6" stroke-width="7.296"/>
        <circle fill="#9a96e5" r="38.304" fill-opacity="0.6" class="id_AOA_amoA"
                cx="-431.03885" cy="-155.89687"/>
        <circle fill="none" r="41.952003" cx="-431.03885" cy="-155.89687"
                stroke="#000000" stroke-opacity="0.6" stroke-width="7.296"/>
        <circle fill="#f97743" r="38.304" fill-opacity="0.6" class="id_S-TN"
                cx="-568.02576" cy="331.18314"/>
        <circle fill="none" r="41.952003" cx="-568.02576" cy="331.18314"
                stroke="#000000" stroke-opacity="0.6" stroke-width="7.296"/>
        <circle fill="#f97743" r="38.304" fill-opacity="0.6" class="id_Ⅳ-Area"
                cx="-177.19931" cy="180.01875"/>
        <circle fill="none" r="41.952003" cx="-177.19931" cy="180.01875"
                stroke="#000000" stroke-opacity="0.6" stroke-width="7.296"/>
        <circle fill="#28b36a" r="38.304" fill-opacity="0.6" class="id_W-T"
                cx="460.6221" cy="-434.6808"/>
        <circle fill="none" r="41.952003" cx="460.6221" cy="-434.6808"
                stroke="#000000" stroke-opacity="0.6" stroke-width="7.296"/>
        <circle fill="#9a96e5" r="38.304" fill-opacity="0.6" class="id_AOB_amoA"
                cx="55.34782" cy="-645.6157"/>
        <circle fill="none" r="41.952003" cx="55.34782" cy="-645.6157"
                stroke="#000000" stroke-opacity="0.6" stroke-width="7.296"/>
        <circle fill="#9a96e5" r="38.304" fill-opacity="0.6" class="id_nxrA"
                cx="400.03305" cy="-187.36157"/>
        <circle fill="none" r="41.952003" cx="400.03305" cy="-187.36157"
                stroke="#000000" stroke-opacity="0.6" stroke-width="7.296"/>
        <circle fill="#f97743" r="38.304" fill-opacity="0.6" class="id_BIX"
                cx="451.77344" cy="53.39165"/>
        <circle fill="none" r="41.952003" cx="451.77344" cy="53.39165"
                stroke="#000000" stroke-opacity="0.6" stroke-width="7.296"/>
        <circle fill="#f97743" r="38.304" fill-opacity="0.6" class="id_HIX"
                cx="67.12425" cy="236.7886"/>
        <circle fill="none" r="41.952003" cx="67.12425" cy="236.7886"
                stroke="#000000" stroke-opacity="0.6" stroke-width="7.296"/>
        <circle fill="#f97743" r="38.304" fill-opacity="0.6" class="id_β:α"
                cx="188.54451" cy="-182.88715"/>
        <circle fill="none" r="41.952003" cx="188.54451" cy="-182.88715"
                stroke="#000000" stroke-opacity="0.6" stroke-width="7.296"/>
        <circle fill="#f97743" r="38.304" fill-opacity="0.6" class="id_Ⅲ-Area"
                cx="-389.10962" cy="-519.5242"/>
        <circle fill="none" r="41.952003" cx="-389.10962" cy="-519.5242"
                stroke="#000000" stroke-opacity="0.6" stroke-width="7.296"/>
        <circle fill="#f97743" r="38.304" fill-opacity="0.6" class="id_Ⅴ-Area"
                cx="197.62738" cy="-406.58136"/>
        <circle fill="none" r="41.952003" cx="197.62738" cy="-406.58136"
                stroke="#000000" stroke-opacity="0.6" stroke-width="7.296"/>
        <circle fill="#28b36a" r="38.304" fill-opacity="0.6"
                class="id_W-NO_{3}^{-}" cx="327.15808" cy="281.3146"/>
        <circle fill="none" r="41.952003" cx="327.15808" cy="281.3146"
                stroke="#000000" stroke-opacity="0.6" stroke-width="7.296"/>
        <circle fill="#9a96e5" r="38.304" fill-opacity="0.6" class="id_narG"
                cx="-159.17174" cy="628.91266"/>
        <circle fill="none" r="41.952003" cx="-159.17174" cy="628.91266"
                stroke="#000000" stroke-opacity="0.6" stroke-width="7.296"/>
        <circle fill="#f97743" r="38.304" fill-opacity="0.6" class="id_FI"
                cx="658.2037" cy="-22.55318"/>
        <circle fill="none" r="41.952003" cx="658.2037" cy="-22.55318"
                stroke="#000000" stroke-opacity="0.6" stroke-width="7.296"/>
        <circle fill="#9a96e5" r="38.304" fill-opacity="0.6" class="id_napA"
                cx="-347.43158" cy="332.57306"/>
        <circle fill="none" r="41.952003" cx="-347.43158" cy="332.57306"
                stroke="#000000" stroke-opacity="0.6" stroke-width="7.296"/>
        <circle fill="#f97743" r="38.304" fill-opacity="0.6" class="id_S-TP"
                cx="73.83951" cy="660.47327"/>
        <circle fill="none" r="41.952003" cx="73.83951" cy="660.47327"
                stroke="#000000" stroke-opacity="0.6" stroke-width="7.296"/>
        <circle fill="#9a96e5" r="38.304" fill-opacity="0.6" class="id_nirK"
                cx="-638.56635" cy="112.45392"/>
        <circle fill="none" r="41.952003" cx="-638.56635" cy="112.45392"
                stroke="#000000" stroke-opacity="0.6" stroke-width="7.296"/>
        <circle fill="#28b36a" r="38.304" fill-opacity="0.6" class="id_W-DO"
                cx="-652.59235" cy="-119.263596"/>
        <circle fill="none" r="41.952003" cx="-652.59235" cy="-119.263596"
                stroke="#000000" stroke-opacity="0.6" stroke-width="7.296"/>
        <circle fill="#9a96e5" r="38.304" fill-opacity="0.6" class="id_nirS"
                cx="-53.717785" cy="-447.94614"/>
        <circle fill="none" r="41.952003" cx="-53.717785" cy="-447.94614"
                stroke="#000000" stroke-opacity="0.6" stroke-width="7.296"/>
        <circle fill="#f97743" r="38.304" fill-opacity="0.6"
                class="id_S-Size-d(0.9)" cx="-554.04425" cy="-356.05026"/>
        <circle fill="none" r="41.952003" cx="-554.04425" cy="-356.05026"
                stroke="#000000" stroke-opacity="0.6" stroke-width="7.296"/>
        <circle fill="#f97743" r="38.304" fill-opacity="0.6"
                class="id_S-Size-d((0.9-0.1)/0.5)" cx="2.9813535" cy="7.1200376"/>
        <circle fill="none" r="41.952003" cx="2.9813535" cy="7.1200376"
                stroke="#000000" stroke-opacity="0.6" stroke-width="7.296"/>
        <circle fill="#9a96e5" r="38.304" fill-opacity="0.6" class="id_nosZ"
                cx="-388.2461" cy="544.7646"/>
        <circle fill="none" r="41.952003" cx="-388.2461" cy="544.7646"
                stroke="#000000" stroke-opacity="0.6" stroke-width="7.296"/>
        <circle fill="#9a96e5" r="38.304" fill-opacity="0.6" class="id_hzsA"
                cx="-191.26448" cy="-631.9057"/>
        <circle fill="none" r="41.952003" cx="-191.26448" cy="-631.9057"
                stroke="#000000" stroke-opacity="0.6" stroke-width="7.296"/>
        <circle fill="#9a96e5" r="38.304" fill-opacity="0.6" class="id_hzsB"
                cx="610.62225" cy="220.22212"/>
        <circle fill="none" r="41.952003" cx="610.62225" cy="220.22212"
                stroke="#000000" stroke-opacity="0.6" stroke-width="7.296"/>
        <circle fill="#9a96e5" r="38.304" fill-opacity="0.6" class="id_hzo"
                cx="321.91806" cy="571.1057"/>
        <circle fill="none" r="41.952003" cx="321.91806" cy="571.1057"
                stroke="#000000" stroke-opacity="0.6" stroke-width="7.296"/>
        <circle fill="#9a96e5" r="38.304" fill-opacity="0.6" class="id_nifH"
                cx="-35.060436" cy="-228.42015"/>
        <circle fill="none" r="41.952003" cx="-35.060436" cy="-228.42015"
                stroke="#000000" stroke-opacity="0.6" stroke-width="7.296"/>
    </g>
</svg>