<?xml version="1.0" encoding="UTF-8"?>
<!DOCTYPE svg PUBLIC "-//W3C//DTD SVG 1.1//EN"
    "http://www.w3.org/Graphics/SVG/1.1/DTD/svg11.dtd" >
<svg contentScriptType="text/ecmascript" width="1430.0"
     xmlns:xlink="http://www.w3.org/1999/xlink" zoomAndPan="magnify"
     contentStyleType="text/css"
     viewBox="-712.000000 -700.000000 1430.000000 1406.000000" height="1406.0"
     preserveAspectRatio="xMidYMid meet" xmlns="http://www.w3.org/2000/svg"
     version="1.1">
    <g id="edges">
        <path stroke-linecap="round" fill="none"
              class="id_Bacterial_16S_rRNA id_S-TN"
              d="M 228.590652,358.803375 A 203.663881,203.663881 0,0 1,131.164337,241.104568"
              stroke="#c65663" stroke-width="1.5153619" stroke-opacity="1.0"/>
        <path stroke-linecap="round" fill="none"
              class="id_Bacterial_16S_rRNA id_S-TP"
              d="M 229.438095,398.470001 A 532.530547,532.530547 0,0 1,-312.903229,296.403076"
              stroke="#c55461" stroke-width="1.8794111" stroke-opacity="1.0"/>
        <path stroke-linecap="round" fill="none"
              class="id_Bacterial_16S_rRNA id_W-COD"
              d="M 326.490234,357.895325 A 207.463218,207.463218 0,0 1,482.583344,378.697754"
              stroke="#bc3645" stroke-width="6.6181684" stroke-opacity="1.0"/>
        <path stroke-linecap="round" fill="none"
              class="id_Archaeal_16S_rRNA id_S-TN"
              d="M -477.547028,389.558228 A 562.335590,562.335590 0,0 1,70.636078,177.464325"
              stroke="#b51f30" stroke-width="8.374306" stroke-opacity="1.0"/>
        <path stroke-linecap="round" fill="none"
              class="id_Archaeal_16S_rRNA id_S-TP"
              d="M -495.569122,381.586060 A 195.034490,195.034490 0,0 1,-400.118011,276.265472"
              stroke="#b00e21" stroke-width="8.874292" stroke-opacity="1.0"/>
        <path stroke-linecap="round" fill="none"
              class="id_Archaeal_16S_rRNA id_W-pH"
              d="M -511.996216,380.420288 A 596.530433,596.530433 0,0 1,-203.267914,-167.573349"
              stroke="#11d20f" stroke-width="8.607942" stroke-opacity="1.0"/>
        <path stroke-linecap="round" fill="none" class="id_AOA_amoA id_HIX"
              d="M -594.112427,183.878372 A 1036.116800,1036.116800 0,0 1,264.756622,-592.261841"
              stroke="#bf414f" stroke-width="5.2754807" stroke-opacity="1.0"/>
        <path stroke-linecap="round" fill="none" class="id_AOA_amoA id_Ⅲ-Area"
              d="M -555.562805,218.652039 A 572.987343,572.987343 0,0 1,22.183907,382.812775"
              stroke="#bd3847" stroke-width="6.401036" stroke-opacity="1.0"/>
        <path stroke-linecap="round" fill="none" class="id_AOA_amoA id_Ⅴ-Area"
              d="M -564.007507,202.881500 A 826.881783,826.881783 0,0 1,340.956146,156.859512"
              stroke="#bb3444" stroke-width="6.8162746" stroke-opacity="1.0"/>
        <path stroke-linecap="round" fill="none" class="id_AOB_amoA id_S-TN"
              d="M 11.632946,-386.897614 A 524.626088,524.626088 0,0 1,140.121796,139.994781"
              stroke="#0ed20d" stroke-width="8.697765" stroke-opacity="1.0"/>
        <path stroke-linecap="round" fill="none" class="id_AOB_amoA id_S-TP"
              d="M -18.936464,-370.362030 A 628.635025,628.635025 0,0 1,-304.820282,232.967865"
              stroke="#1fd41d" stroke-width="7.9326086" stroke-opacity="1.0"/>
        <path stroke-linecap="round" fill="none"
              class="id_AOB_amoA id_S-Size-d(0.1)"
              d="M -70.418602,-392.211395 A 414.480523,414.480523 0,0 1,-479.628662,-380.379242"
              stroke="#50dc4f" stroke-width="0.90000004" stroke-opacity="1.0"/>
        <path stroke-linecap="round" fill="none" class="id_AOB_amoA id_W-pH"
              d="M -26.421385,-369.704193 A 220.739127,220.739127 0,0 1,-110.949791,-217.837555"
              stroke="#ac0115" stroke-width="8.997114" stroke-opacity="1.0"/>
        <path stroke-linecap="round" fill="none"
              class="id_AOB_amoA id_W-NO_{2}^{-}"
              d="M 22.616827,-438.965515 A 547.299478,547.299478 0,0 1,571.186096,-285.380890"
              stroke="#2dd72c" stroke-width="6.663821" stroke-opacity="1.0"/>
        <path stroke-linecap="round" fill="none" class="id_AOB_amoA id_W-T"
              d="M -11.051034,-372.261017 A 868.934495,868.934495 0,0 1,-293.524506,541.775940"
              stroke="#1dd41b" stroke-width="8.0682125" stroke-opacity="1.0"/>
        <path stroke-linecap="round" fill="none" class="id_nxrA id_S-TN"
              d="M -187.707993,20.032148 A 330.161730,330.161730 0,0 1,92.774925,145.516647"
              stroke="#ac0014" stroke-width="9.0" stroke-opacity="1.0"/>
        <path stroke-linecap="round" fill="none" class="id_nxrA id_S-TP"
              d="M -235.801331,79.982521 A 214.055879,214.055879 0,0 1,-307.049713,229.460052"
              stroke="#b72435" stroke-width="8.07099" stroke-opacity="1.0"/>
        <path stroke-linecap="round" fill="none" class="id_nxrA id_W-pH"
              d="M -247.226746,-24.536358 A 194.883822,194.883822 0,0 1,-196.437241,-157.091553"
              stroke="#02d000" stroke-width="8.946446" stroke-opacity="1.0"/>
        <path stroke-linecap="round" fill="none" class="id_nxrA id_W-NO_{2}^{-}"
              d="M -207.913055,-14.322775 A 739.895194,739.895194 0,0 1,554.850525,-260.558655"
              stroke="#b62132" stroke-width="8.259388" stroke-opacity="1.0"/>
        <path stroke-linecap="round" fill="none" class="id_nxrA id_W-T"
              d="M -218.622528,75.693916 A 462.221051,462.221051 0,0 1,-298.933929,535.787292"
              stroke="#c65865" stroke-width="1.1052555" stroke-opacity="1.0"/>
        <path stroke-linecap="round" fill="none" class="id_narG id_S-TN"
              d="M -573.953552,-208.492264 A 703.498609,703.498609 0,0 1,97.463982,142.740585"
              stroke="#bc3646" stroke-width="6.559945" stroke-opacity="1.0"/>
        <path stroke-linecap="round" fill="none" class="id_narG id_S-TP"
              d="M -578.720825,-179.234207 A 447.968580,447.968580 0,0 1,-347.879822,206.861664"
              stroke="#b82a3b" stroke-width="7.690606" stroke-opacity="1.0"/>
        <path stroke-linecap="round" fill="none" class="id_narG id_W-pH"
              d="M -581.378967,-229.591537 A 391.819773,391.819773 0,0 1,-199.509293,-220.547302"
              stroke="#0ad108" stroke-width="8.807077" stroke-opacity="1.0"/>
        <path stroke-linecap="round" fill="none" class="id_narG id_W-T"
              d="M -582.932556,-171.994293 A 690.574669,690.574669 0,0 1,-322.307648,522.927246"
              stroke="#c24957" stroke-width="4.0148907" stroke-opacity="1.0"/>
        <path stroke-linecap="round" fill="none" class="id_napA id_HIX"
              d="M 442.363739,-452.105011 A 197.370623,197.370623 0,0 1,334.159973,-548.666016"
              stroke="#b52031" stroke-width="8.309853" stroke-opacity="1.0"/>
        <path stroke-linecap="round" fill="none" class="id_napA id_Ⅰ-Area"
              d="M 452.008057,-408.632874 A 617.349320,617.349320 0,0 1,-201.067810,-373.010956"
              stroke="#40d93f" stroke-width="4.1084933" stroke-opacity="1.0"/>
        <path stroke-linecap="round" fill="none" class="id_napA id_Ⅲ-Area"
              d="M 501.146545,-388.618713 A 807.046070,807.046070 0,0 1,102.313545,398.372833"
              stroke="#af0b1e" stroke-width="8.920675" stroke-opacity="1.0"/>
        <path stroke-linecap="round" fill="none" class="id_napA id_Ⅴ-Area"
              d="M 515.276855,-392.714966 A 529.017110,529.017110 0,0 1,421.927124,146.896683"
              stroke="#b62234" stroke-width="8.184834" stroke-opacity="1.0"/>
        <path stroke-linecap="round" fill="none" class="id_napA id_W-DO"
              d="M 468.916931,-394.300201 A 379.366643,379.366643 0,0 1,147.960556,-216.515335"
              stroke="#c04250" stroke-width="5.116426" stroke-opacity="1.0"/>
        <path stroke-linecap="round" fill="none" class="id_nirK id_Ⅰ-Area"
              d="M 621.745300,-9.531071 A 828.566963,828.566963 0,0 1,-217.729935,-355.991272"
              stroke="#4cdb4a" stroke-width="1.9055626" stroke-opacity="1.0"/>
        <path stroke-linecap="round" fill="none" class="id_nirK id_W-TN"
              d="M 690.113098,28.736259 A 193.964620,193.964620 0,0 1,665.236206,167.337662"
              stroke="#c34c5a" stroke-width="3.363468" stroke-opacity="1.0"/>
        <path stroke-linecap="round" fill="none" class="id_nirK id_W-NH_{4}^{+}"
              d="M 669.058838,31.419224 A 720.380576,720.380576 0,0 1,177.782410,634.749023"
              stroke="#25d523" stroke-width="7.463549" stroke-opacity="1.0"/>
        <path stroke-linecap="round" fill="none" class="id_nirK id_W-COD"
              d="M 685.713684,30.031340 A 380.312231,380.312231 0,0 1,565.888367,378.030701"
              stroke="#1fd41d" stroke-width="7.9418664" stroke-opacity="1.0"/>
        <path stroke-linecap="round" fill="none" class="id_nirS id_S-TN"
              d="M 432.491577,26.076834 A 328.538119,328.538119 0,0 1,174.480148,189.294571"
              stroke="#4edc4c" stroke-width="1.5275439" stroke-opacity="1.0"/>
        <path stroke-linecap="round" fill="none" class="id_nirS id_S-TP"
              d="M 424.120331,21.103374 A 710.761334,710.761334 0,0 1,-299.612091,273.484741"
              stroke="#43da41" stroke-width="3.6678748" stroke-opacity="1.0"/>
        <path stroke-linecap="round" fill="none" class="id_nirS id_W-pH"
              d="M 405.182312,-4.725569 A 528.499430,528.499430 0,0 1,-121.943352,-150.843048"
              stroke="#b92c3c" stroke-width="7.541929" stroke-opacity="1.0"/>
        <path stroke-linecap="round" fill="none" class="id_nirS id_W-T"
              d="M 438.835815,28.599360 A 824.491646,824.491646 0,0 1,-282.578308,572.142517"
              stroke="#42da40" stroke-width="3.8448346" stroke-opacity="1.0"/>
        <path stroke-linecap="round" fill="none" class="id_nosZ id_FI"
              d="M -401.100861,35.423672 A 806.505247,806.505247 0,0 1,327.104065,532.408569"
              stroke="#43da42" stroke-width="3.572598" stroke-opacity="1.0"/>
        <path stroke-linecap="round" fill="none" class="id_norB id_S-TP"
              d="M -358.759369,-160.075943 A 385.604309,385.604309 0,0 1,-325.686493,212.916733"
              stroke="#c4515e" stroke-width="2.5505896" stroke-opacity="1.0"/>
        <path stroke-linecap="round" fill="none" class="id_norB id_BIX"
              d="M -349.362396,-233.440872 A 630.827205,630.827205 0,0 1,320.056274,-267.297699"
              stroke="#c65562" stroke-width="1.6024821" stroke-opacity="1.0"/>
        <path stroke-linecap="round" fill="none" class="id_norB id_β:α"
              d="M -415.246307,-248.272797 A 315.695915,315.695915 0,0 1,-390.797089,-536.948547"
              stroke="#c14755" stroke-width="4.359801" stroke-opacity="1.0"/>
        <path stroke-linecap="round" fill="none" class="id_norB id_Ⅰ-Area"
              d="M -385.092529,-253.759171 A 205.148066,205.148066 0,0 1,-293.924530,-378.642273"
              stroke="#bf3f4d" stroke-width="5.565946" stroke-opacity="1.0"/>
        <path stroke-linecap="round" fill="none" class="id_norB id_Ⅱ-Area"
              d="M -341.214539,-218.003052 A 538.856078,538.856078 0,0 1,197.135757,-65.672607"
              stroke="#ba2e3e" stroke-width="7.402282" stroke-opacity="1.0"/>
        <path stroke-linecap="round" fill="none" class="id_norB id_Ⅳ-Area"
              d="M -342.884796,-180.628357 A 424.465086,424.465086 0,0 1,-111.550735,171.655197"
              stroke="#b41b2d" stroke-width="8.529305" stroke-opacity="1.0"/>
        <path stroke-linecap="round" fill="none" class="id_norB id_W-DO"
              d="M -348.255676,-231.937485 A 405.833495,405.833495 0,0 1,50.380119,-247.167984"
              stroke="#49db48" stroke-width="2.39922" stroke-opacity="1.0"/>
        <path stroke-linecap="round" fill="none" class="id_hzsA id_HIX"
              d="M 142.608414,-658.470093 A 190.598366,190.598366 0,0 1,276.715057,-632.210693"
              stroke="#b62132" stroke-width="8.25998" stroke-opacity="1.0"/>
        <path stroke-linecap="round" fill="none" class="id_hzsA id_Ⅰ-Area"
              d="M 72.904861,-593.541931 A 346.790681,346.790681 0,0 1,-193.483246,-403.128845"
              stroke="#41da3f" stroke-width="3.9739203" stroke-opacity="1.0"/>
        <path stroke-linecap="round" fill="none" class="id_hzsA id_Ⅲ-Area"
              d="M 121.348984,-598.327271 A 888.444789,888.444789 0,0 1,87.682869,381.236633"
              stroke="#af0c1f" stroke-width="8.91079" stroke-opacity="1.0"/>
        <path stroke-linecap="round" fill="none" class="id_hzsA id_Ⅴ-Area"
              d="M 135.264648,-611.652344 A 731.268231,731.268231 0,0 1,399.382843,134.104919"
              stroke="#b62435" stroke-width="8.118791" stroke-opacity="1.0"/>
        <path stroke-linecap="round" fill="none" class="id_hzsA id_W-DO"
              d="M 121.177589,-598.215515 A 351.870942,351.870942 0,0 1,123.500328,-264.620880"
              stroke="#c04351" stroke-width="4.9788795" stroke-opacity="1.0"/>
        <path stroke-linecap="round" fill="none" class="id_hzsB id_S-TN"
              d="M -617.820740,-4.539881 A 672.818322,672.818322 0,0 1,86.058060,150.813690"
              stroke="#b41a2c" stroke-width="8.569149" stroke-opacity="1.0"/>
        <path stroke-linecap="round" fill="none" class="id_hzsB id_S-TP"
              d="M -614.154236,20.201260 A 332.897605,332.897605 0,0 1,-368.282074,209.977997"
              stroke="#b52031" stroke-width="8.313128" stroke-opacity="1.0"/>
        <path stroke-linecap="round" fill="none"
              class="id_hzsB id_S-Size-d(0.9)"
              d="M -623.939636,-15.551098 A 549.194721,549.194721 0,0 1,-52.278458,-33.647339"
              stroke="#c65663" stroke-width="1.3668854" stroke-opacity="1.0"/>
        <path stroke-linecap="round" fill="none" class="id_hzsB id_W-pH"
              d="M -636.792969,-28.068844 A 458.745353,458.745353 0,0 1,-207.624527,-201.413681"
              stroke="#34d832" stroke-width="5.9024825"
              stroke-opacity="0.99607843"/>
        <path stroke-linecap="round" fill="none" class="id_hzsB id_W-NO_{2}^{-}"
              d="M -630.691528,-23.183519 A 1081.760211,1081.760211 0,0 1,557.077271,-266.539825"
              stroke="#c55461" stroke-width="1.9210956" stroke-opacity="1.0"/>
        <path stroke-linecap="round" fill="none" class="id_hzo id_S-TN"
              d="M -157.162842,388.097748 A 321.642138,321.642138 0,0 1,69.788673,196.626755"
              stroke="#b62334" stroke-width="8.144214" stroke-opacity="1.0"/>
        <path stroke-linecap="round" fill="none" class="id_hzo id_S-TP"
              d="M -223.789246,424.074097 A 209.763938,209.763938 0,0 1,-336.618713,310.197754"
              stroke="#b51d2f" stroke-width="8.429111" stroke-opacity="1.0"/>
        <path stroke-linecap="round" fill="none" class="id_hzo id_W-pH"
              d="M -201.345261,393.827209 A 524.411804,524.411804 0,0 1,-186.676132,-148.048782"
              stroke="#35d833" stroke-width="5.808863" stroke-opacity="1.0"/>
        <path stroke-linecap="round" fill="none" class="id_hzo id_W-COD"
              d="M -130.873734,406.888245 A 581.808550,581.808550 0,0 1,479.886902,382.607910"
              stroke="#bf404f" stroke-width="5.3043823" stroke-opacity="1.0"/>
        <path stroke-linecap="round" fill="none"
              class="id_nifH id_S-Size-d(0.5)"
              d="M 229.950989,-359.703583 A 928.935001,928.935001 0,0 1,-59.248734,627.621582"
              stroke="#c65865" stroke-width="1.0980065" stroke-opacity="1.0"/>
        <path stroke-linecap="round" fill="none" class="id_nifH id_W-NO_{3}^{-}"
              d="M 160.365524,-412.199493 A 350.751888,350.751888 0,0 1,-109.940239,-605.389648"
              stroke="#32d730" stroke-width="6.1766753" stroke-opacity="1.0"/>
    </g>
    <g id="nodes">
        <circle fill="#9a96e5" r="38.304" fill-opacity="0.6"
                class="id_Bacterial_16S_rRNA" cx="277.71896" cy="377.59616"/>
        <circle fill="none" r="41.952003" cx="277.71896" cy="377.59616"
                stroke="#000000" stroke-opacity="0.6" stroke-width="7.296"/>
        <circle fill="#f97743" r="38.304" fill-opacity="0.6" class="id_S-TN"
                cx="121.880165" cy="189.3304"/>
        <circle fill="none" r="41.952003" cx="121.880165" cy="189.3304"
                stroke="#000000" stroke-opacity="0.6" stroke-width="7.296"/>
        <circle fill="#f97743" r="38.304" fill-opacity="0.6" class="id_S-TP"
                cx="-350.29303" cy="259.40628"/>
        <circle fill="none" r="41.952003" cx="-350.29303" cy="259.40628"
                stroke="#000000" stroke-opacity="0.6" stroke-width="7.296"/>
        <circle fill="#28b36a" r="38.304" fill-opacity="0.6" class="id_W-COD"
                cx="524.49304" cy="410.48358"/>
        <circle fill="none" r="41.952003" cx="524.49304" cy="410.48358"
                stroke="#000000" stroke-opacity="0.6" stroke-width="7.296"/>
        <circle fill="#9a96e5" r="38.304" fill-opacity="0.6"
                class="id_Archaeal_16S_rRNA" cx="-507.4603" cy="432.82434"/>
        <circle fill="none" r="41.952003" cx="-507.4603" cy="432.82434"
                stroke="#000000" stroke-opacity="0.6" stroke-width="7.296"/>
        <circle fill="#28b36a" r="38.304" fill-opacity="0.6" class="id_W-pH"
                cx="-156.09686" cy="-190.84677"/>
        <circle fill="none" r="41.952003" cx="-156.09686" cy="-190.84677"
                stroke="#000000" stroke-opacity="0.6" stroke-width="7.296"/>
        <circle fill="#9a96e5" r="38.304" fill-opacity="0.6" class="id_AOA_amoA"
                cx="-605.4803" cy="235.23528"/>
        <circle fill="none" r="41.952003" cx="-605.4803" cy="235.23528"
                stroke="#000000" stroke-opacity="0.6" stroke-width="7.296"/>
        <circle fill="#f97743" r="38.304" fill-opacity="0.6" class="id_HIX"
                cx="316.9987" cy="-598.38776"/>
        <circle fill="none" r="41.952003" cx="316.9987" cy="-598.38776"
                stroke="#000000" stroke-opacity="0.6" stroke-width="7.296"/>
        <circle fill="#f97743" r="38.304" fill-opacity="0.6" class="id_Ⅲ-Area"
                cx="55.923412" cy="423.1663"/>
        <circle fill="none" r="41.952003" cx="55.923412" cy="423.1663"
                stroke="#000000" stroke-opacity="0.6" stroke-width="7.296"/>
        <circle fill="#f97743" r="38.304" fill-opacity="0.6" class="id_Ⅴ-Area"
                cx="385.49722" cy="184.83904"/>
        <circle fill="none" r="41.952003" cx="385.49722" cy="184.83904"
                stroke="#000000" stroke-opacity="0.6" stroke-width="7.296"/>
        <circle fill="#9a96e5" r="38.304" fill-opacity="0.6" class="id_AOB_amoA"
                cx="-27.27236" cy="-422.2973"/>
        <circle fill="none" r="41.952003" cx="-27.27236" cy="-422.2973"
                stroke="#000000" stroke-opacity="0.6" stroke-width="7.296"/>
        <circle fill="#f97743" r="38.304" fill-opacity="0.6"
                class="id_S-Size-d(0.1)" cx="-524.4412" cy="-407.92184"/>
        <circle fill="none" r="41.952003" cx="-524.4412" cy="-407.92184"
                stroke="#000000" stroke-opacity="0.6" stroke-width="7.296"/>
        <circle fill="#28b36a" r="38.304" fill-opacity="0.6"
                class="id_W-NO_{2}^{-}" cx="605.1678" cy="-245.2311"/>
        <circle fill="none" r="41.952003" cx="605.1678" cy="-245.2311"
                stroke="#000000" stroke-opacity="0.6" stroke-width="7.296"/>
        <circle fill="#28b36a" r="38.304" fill-opacity="0.6" class="id_W-T"
                cx="-335.14774" cy="573.936"/>
        <circle fill="none" r="41.952003" cx="-335.14774" cy="573.936"
                stroke="#000000" stroke-opacity="0.6" stroke-width="7.296"/>
        <circle fill="#9a96e5" r="38.304" fill-opacity="0.6" class="id_nxrA"
                cx="-239.77051" cy="27.532488"/>
        <circle fill="none" r="41.952003" cx="-239.77051" cy="27.532488"
                stroke="#000000" stroke-opacity="0.6" stroke-width="7.296"/>
        <circle fill="#9a96e5" r="38.304" fill-opacity="0.6" class="id_narG"
                cx="-626.1488" cy="-201.97952"/>
        <circle fill="none" r="41.952003" cx="-626.1488" cy="-201.97952"
                stroke="#000000" stroke-opacity="0.6" stroke-width="7.296"/>
        <circle fill="#9a96e5" r="38.304" fill-opacity="0.6" class="id_napA"
                cx="493.71027" cy="-440.6904"/>
        <circle fill="none" r="41.952003" cx="493.71027" cy="-440.6904"
                stroke="#000000" stroke-opacity="0.6" stroke-width="7.296"/>
        <circle fill="#f97743" r="38.304" fill-opacity="0.6" class="id_Ⅰ-Area"
                cx="-246.0094" cy="-400.3425"/>
        <circle fill="none" r="41.952003" cx="-246.0094" cy="-400.3425"
                stroke="#000000" stroke-opacity="0.6" stroke-width="7.296"/>
        <circle fill="#28b36a" r="38.304" fill-opacity="0.6" class="id_W-DO"
                cx="95.48308" cy="-220.10355"/>
        <circle fill="none" r="41.952003" cx="95.48308" cy="-220.10355"
                stroke="#000000" stroke-opacity="0.6" stroke-width="7.296"/>
        <circle fill="#9a96e5" r="38.304" fill-opacity="0.6" class="id_nirK"
                cx="673.0736" cy="-21.027338"/>
        <circle fill="none" r="41.952003" cx="673.0736" cy="-21.027338"
                stroke="#000000" stroke-opacity="0.6" stroke-width="7.296"/>
        <circle fill="#28b36a" r="38.304" fill-opacity="0.6" class="id_W-TN"
                cx="631.95416" cy="208.06929"/>
        <circle fill="none" r="41.952003" cx="631.95416" cy="208.06929"
                stroke="#000000" stroke-opacity="0.6" stroke-width="7.296"/>
        <circle fill="#28b36a" r="38.304" fill-opacity="0.6"
                class="id_W-NH_{4}^{+}" cx="127.2371" cy="649.3069"/>
        <circle fill="none" r="41.952003" cx="127.2371" cy="649.3069"
                stroke="#000000" stroke-opacity="0.6" stroke-width="7.296"/>
        <circle fill="#9a96e5" r="38.304" fill-opacity="0.6" class="id_nirS"
                cx="455.05707" cy="-21.436941"/>
        <circle fill="none" r="41.952003" cx="455.05707" cy="-21.436941"
                stroke="#000000" stroke-opacity="0.6" stroke-width="7.296"/>
        <circle fill="#9a96e5" r="38.304" fill-opacity="0.6" class="id_nosZ"
                cx="-453.69705" cy="36.055687"/>
        <circle fill="none" r="41.952003" cx="-453.69705" cy="36.055687"
                stroke="#000000" stroke-opacity="0.6" stroke-width="7.296"/>
        <circle fill="#f97743" r="38.304" fill-opacity="0.6" class="id_FI"
                cx="345.6849" cy="581.61743"/>
        <circle fill="none" r="41.952003" cx="345.6849" cy="581.61743"
                stroke="#000000" stroke-opacity="0.6" stroke-width="7.296"/>
        <circle fill="#9a96e5" r="38.304" fill-opacity="0.6" class="id_norB"
                cx="-391.16208" cy="-201.51053"/>
        <circle fill="none" r="41.952003" cx="-391.16208" cy="-201.51053"
                stroke="#000000" stroke-opacity="0.6" stroke-width="7.296"/>
        <circle fill="#f97743" r="38.304" fill-opacity="0.6" class="id_BIX"
                cx="364.86426" cy="-239.74767"/>
        <circle fill="none" r="41.952003" cx="364.86426" cy="-239.74767"
                stroke="#000000" stroke-opacity="0.6" stroke-width="7.296"/>
        <circle fill="#f97743" r="38.304" fill-opacity="0.6" class="id_β:α"
                cx="-359.1913" cy="-578.9942"/>
        <circle fill="none" r="41.952003" cx="-359.1913" cy="-578.9942"
                stroke="#000000" stroke-opacity="0.6" stroke-width="7.296"/>
        <circle fill="#f97743" r="38.304" fill-opacity="0.6" class="id_Ⅱ-Area"
                cx="231.03659" cy="-25.454521"/>
        <circle fill="none" r="41.952003" cx="231.03659" cy="-25.454521"
                stroke="#000000" stroke-opacity="0.6" stroke-width="7.296"/>
        <circle fill="#f97743" r="38.304" fill-opacity="0.6" class="id_Ⅳ-Area"
                cx="-111.57446" cy="224.25519"/>
        <circle fill="none" r="41.952003" cx="-111.57446" cy="224.25519"
                stroke="#000000" stroke-opacity="0.6" stroke-width="7.296"/>
        <circle fill="#9a96e5" r="38.304" fill-opacity="0.6" class="id_hzsA"
                cx="92.54317" cy="-642.33844"/>
        <circle fill="none" r="41.952003" cx="92.54317" cy="-642.33844"
                stroke="#000000" stroke-opacity="0.6" stroke-width="7.296"/>
        <circle fill="#9a96e5" r="38.304" fill-opacity="0.6" class="id_hzsB"
                cx="-666.5273" cy="15.320467"/>
        <circle fill="none" r="41.952003" cx="-666.5273" cy="15.320467"
                stroke="#000000" stroke-opacity="0.6" stroke-width="7.296"/>
        <circle fill="#f97743" r="38.304" fill-opacity="0.6"
                class="id_S-Size-d(0.9)" cx="-7.8235364" cy="-5.531149"/>
        <circle fill="none" r="41.952003" cx="-7.8235364" cy="-5.531149"
                stroke="#000000" stroke-opacity="0.6" stroke-width="7.296"/>
        <circle fill="#9a96e5" r="38.304" fill-opacity="0.6" class="id_hzo"
                cx="-173.12624" cy="438.21692"/>
        <circle fill="none" r="41.952003" cx="-173.12624" cy="438.21692"
                stroke="#000000" stroke-opacity="0.6" stroke-width="7.296"/>
        <circle fill="#9a96e5" r="38.304" fill-opacity="0.6" class="id_nifH"
                cx="212.89421" cy="-409.46127"/>
        <circle fill="none" r="41.952003" cx="212.89421" cy="-409.46127"
                stroke="#000000" stroke-opacity="0.6" stroke-width="7.296"/>
        <circle fill="#28b36a" r="38.304" fill-opacity="0.6"
                class="id_S-Size-d(0.5)" cx="-100.45589" cy="660.31305"/>
        <circle fill="none" r="41.952003" cx="-100.45589" cy="660.31305"
                stroke="#000000" stroke-opacity="0.6" stroke-width="7.296"/>
        <circle fill="#000000" r="38.304" fill-opacity="0.6"
                class="id_W-NO_{3}^{-}" cx="-129.5394" cy="-654.20184"/>
        <circle fill="none" r="41.952003" cx="-129.5394" cy="-654.20184"
                stroke="#000000" stroke-opacity="0.6" stroke-width="7.296"/>
    </g>
</svg>