<?xml version="1.0" encoding="UTF-8"?>
<!DOCTYPE svg PUBLIC "-//W3C//DTD SVG 1.1//EN"
    "http://www.w3.org/Graphics/SVG/1.1/DTD/svg11.dtd" >
<svg contentScriptType="text/ecmascript" width="1300.0"
     xmlns:xlink="http://www.w3.org/1999/xlink" zoomAndPan="magnify"
     contentStyleType="text/css"
     viewBox="-651.000000 -642.000000 1300.000000 1282.000000" height="1282.0"
     preserveAspectRatio="xMidYMid meet" xmlns="http://www.w3.org/2000/svg"
     version="1.1">
    <g id="edges">
        <path stroke-linecap="round" fill="none"
              class="id_Bacterial_16S_rRNA id_HIX"
              d="M -87.089745,553.348938 A 383.747899,383.747899 0,0 1,21.423967,188.552826"
              stroke="#02d000" stroke-width="9.0" stroke-opacity="1.0"/>
        <path stroke-linecap="round" fill="none"
              class="id_Bacterial_16S_rRNA id_Ⅰ-Area"
              d="M -107.065117,565.263428 A 438.811170,438.811170 0,0 1,-193.502304,126.615875"
              stroke="#ac0014" stroke-width="8.502981" stroke-opacity="1.0"/>
        <path stroke-linecap="round" fill="none"
              class="id_Bacterial_16S_rRNA id_Ⅳ-Area"
              d="M -118.199753,582.653687 A 456.184725,456.184725 0,0 1,-393.153809,203.888336"
              stroke="#b31729" stroke-width="7.5739055" stroke-opacity="1.0"/>
        <path stroke-linecap="round" fill="none"
              class="id_Bacterial_16S_rRNA id_W-pH"
              d="M -63.672981,552.309998 A 425.827569,425.827569 0,0 1,243.001251,248.880920"
              stroke="#af0b1e" stroke-width="8.123973" stroke-opacity="1.0"/>
        <path stroke-linecap="round" fill="none"
              class="id_Bacterial_16S_rRNA id_W-DO"
              d="M -101.093697,560.216431 A 613.730088,613.730088 0,0 1,-111.137955,-97.527344"
              stroke="#b00e20" stroke-width="8.024855" stroke-opacity="1.0"/>
        <path stroke-linecap="round" fill="none"
              class="id_Bacterial_16S_rRNA id_W-TN"
              d="M -42.775131,562.363403 A 417.949711,417.949711 0,0 1,361.379913,441.275391"
              stroke="#67e066" stroke-width="3.986953" stroke-opacity="1.0"/>
        <path stroke-linecap="round" fill="none"
              class="id_Bacterial_16S_rRNA id_W-NH_{4}^{+}"
              d="M -71.580627,551.356812 A 862.311571,862.311571 0,0 1,509.194733,-208.932037"
              stroke="#6ae069" stroke-width="3.6061475"
              stroke-opacity="0.99607843"/>
        <path stroke-linecap="round" fill="none"
              class="id_Bacterial_16S_rRNA id_W-T"
              d="M -34.075172,571.846436 A 222.371919,222.371919 0,0 1,150.097229,558.652588"
              stroke="#ae091c" stroke-width="8.220244" stroke-opacity="1.0"/>
        <path stroke-linecap="round" fill="none"
              class="id_Archaeal_16S_rRNA id_Ⅲ-Area"
              d="M -226.499893,-299.273346 A 347.591692,347.591692 0,0 1,-537.192993,-169.084183"
              stroke="#bb3343" stroke-width="5.094258" stroke-opacity="1.0"/>
        <path stroke-linecap="round" fill="none"
              class="id_Archaeal_16S_rRNA id_Ⅴ-Area"
              d="M -151.818787,-341.532440 A 552.462899,552.462899 0,0 1,348.586334,-40.322594"
              stroke="#bd3847" stroke-width="4.469504" stroke-opacity="1.0"/>
        <path stroke-linecap="round" fill="none" class="id_AOA_amoA id_Ⅲ-Area"
              d="M 565.500305,32.370907 A 1006.104188,1006.104188 0,0 1,-550.142029,-144.042282"
              stroke="#bb3343" stroke-width="5.1198473" stroke-opacity="1.0"/>
        <path stroke-linecap="round" fill="none" class="id_AOA_amoA id_Ⅴ-Area"
              d="M 566.113525,33.557686 A 199.951037,199.951037 0,0 1,409.044800,28.400370"
              stroke="#bc3747" stroke-width="4.5335917" stroke-opacity="1.0"/>
        <path stroke-linecap="round" fill="none" class="id_nxrA id_FI"
              d="M -460.430542,360.375641 A 212.864740,212.864740 0,0 1,-330.965607,475.128326"
              stroke="#bd3948" stroke-width="4.3482633" stroke-opacity="1.0"/>
        <path stroke-linecap="round" fill="none" class="id_nxrA id_W-NO_{2}^{-}"
              d="M -504.312622,303.444550 A 756.196259,756.196259 0,0 1,13.899303,-343.855469"
              stroke="#c24957" stroke-width="1.6919101" stroke-opacity="1.0"/>
        <path stroke-linecap="round" fill="none" class="id_nxrA id_W-COD"
              d="M -520.322693,305.148315 A 405.894632,405.894632 0,0 1,-396.311981,-82.865074"
              stroke="#c34d5b" stroke-width="0.90000004" stroke-opacity="1.0"/>
        <path stroke-linecap="round" fill="none" class="id_narG id_FI"
              d="M 221.802261,-509.905243 A 1000.872966,1000.872966 0,0 1,-274.088318,497.921600"
              stroke="#71e170" stroke-width="2.3972285" stroke-opacity="1.0"/>
        <path stroke-linecap="round" fill="none" class="id_napA id_S-TP"
              d="M -411.452545,-408.853455 A 731.559775,731.559775 0,0 1,385.950775,-467.521362"
              stroke="#b31729" stroke-width="7.5630517" stroke-opacity="1.0"/>
        <path stroke-linecap="round" fill="none" class="id_napA id_Ⅰ-Area"
              d="M -405.361725,-358.032440 A 446.717766,446.717766 0,0 1,-172.511887,34.758396"
              stroke="#6fe16e" stroke-width="2.7254725" stroke-opacity="1.0"/>
        <path stroke-linecap="round" fill="none" class="id_napA id_Ⅴ-Area"
              d="M -401.417969,-386.938324 A 751.466187,751.466187 0,0 1,344.626770,-38.284657"
              stroke="#be3c4b" stroke-width="3.8399048" stroke-opacity="1.0"/>
        <path stroke-linecap="round" fill="none" class="id_napA id_W-pH"
              d="M -400.858215,-374.655426 A 802.608814,802.608814 0,0 1,277.631104,193.530853"
              stroke="#5dde5b" stroke-width="5.414762" stroke-opacity="1.0"/>
        <path stroke-linecap="round" fill="none" class="id_napA id_W-DO"
              d="M -400.693420,-378.263000 A 363.908626,363.908626 0,0 1,-103.511017,-181.153656"
              stroke="#53dc51" stroke-width="6.4167533" stroke-opacity="1.0"/>
        <path stroke-linecap="round" fill="none" class="id_napA id_W-T"
              d="M -403.799591,-361.684967 A 961.191673,961.191673 0,0 1,194.225082,532.277405"
              stroke="#43da42" stroke-width="7.550175" stroke-opacity="1.0"/>
        <path stroke-linecap="round" fill="none" class="id_nirK id_Ⅲ-Area"
              d="M -629.896790,31.611593 A 211.620208,211.620208 0,0 1,-612.479675,-138.977005"
              stroke="#c04352" stroke-width="2.7515242" stroke-opacity="1.0"/>
        <path stroke-linecap="round" fill="none" class="id_nirK id_Ⅴ-Area"
              d="M -573.095459,44.748695 A 817.608915,817.608915 0,0 1,327.480713,-21.460489"
              stroke="#bd3948" stroke-width="4.315756" stroke-opacity="1.0"/>
        <path stroke-linecap="round" fill="none"
              class="id_cnorB id_S-Size-d(0.5)"
              d="M 135.150574,-18.219934 A 426.375843,426.375843 0,0 1,-135.725922,318.403870"
              stroke="#44da42" stroke-width="7.5282893" stroke-opacity="1.0"/>
        <path stroke-linecap="round" fill="none"
              class="id_cnorB id_S-Size-d(0.9)"
              d="M 102.414268,-96.038643 A 466.462384,466.462384 0,0 1,-36.961563,-555.814148"
              stroke="#47da45" stroke-width="7.3559732" stroke-opacity="1.0"/>
        <path stroke-linecap="round" fill="none" class="id_cnorB id_HIX"
              d="M 147.690842,-18.740568 A 198.295382,198.295382 0,0 1,94.571045,126.999123"
              stroke="#6ee16d" stroke-width="2.9139998" stroke-opacity="1.0"/>
        <path stroke-linecap="round" fill="none" class="id_cnorB id_W-pH"
              d="M 180.104645,-40.677143 A 283.822977,283.822977 0,0 1,294.765472,192.171799"
              stroke="#b41c2e" stroke-width="7.232412" stroke-opacity="1.0"/>
        <path stroke-linecap="round" fill="none" class="id_cnorB id_W-DO"
              d="M 92.730583,-55.742908 A 195.952064,195.952064 0,0 1,-52.310707,-101.994850"
              stroke="#b31a2c" stroke-width="7.389558" stroke-opacity="1.0"/>
        <path stroke-linecap="round" fill="none" class="id_cnorB id_W-T"
              d="M 169.574341,-28.708763 A 540.070983,540.070983 0,0 1,216.453735,538.499023"
              stroke="#b31729" stroke-width="7.5382175" stroke-opacity="1.0"/>
        <path stroke-linecap="round" fill="none" class="id_hzsA id_S-TN"
              d="M 498.642609,236.333023 A 951.242435,951.242435 0,0 1,-257.706696,-511.442261"
              stroke="#c14554" stroke-width="2.3768334" stroke-opacity="1.0"/>
        <path stroke-linecap="round" fill="none" class="id_hzsA id_W-DO"
              d="M 498.109711,246.906082 A 613.940405,613.940405 0,0 1,-64.982262,-93.664284"
              stroke="#bb3141" stroke-width="5.339618" stroke-opacity="1.0"/>
        <path stroke-linecap="round" fill="none" class="id_hzo id_S-Size-d(0.5)"
              d="M 286.408478,-202.621918 A 624.770127,624.770127 0,0 1,-135.447556,319.317322"
              stroke="#bd3847" stroke-width="4.4774795" stroke-opacity="1.0"/>
        <path stroke-linecap="round" fill="none" class="id_hzo id_S-Size-d(0.9)"
              d="M 243.780121,-262.602936 A 391.985916,391.985916 0,0 1,-16.011850,-554.212158"
              stroke="#be3e4d" stroke-width="3.645262" stroke-opacity="1.0"/>
        <path stroke-linecap="round" fill="none" class="id_hzo id_HIX"
              d="M 293.089020,-202.591370 A 391.145309,391.145309 0,0 1,100.554176,136.032120"
              stroke="#c14654" stroke-width="2.2339253" stroke-opacity="1.0"/>
        <path stroke-linecap="round" fill="none" class="id_hzo id_W-pH"
              d="M 316.355438,-210.433502 A 408.345372,408.345372 0,0 1,316.313019,199.874863"
              stroke="#5ade59" stroke-width="5.6510177" stroke-opacity="1.0"/>
        <path stroke-linecap="round" fill="none" class="id_hzo id_W-DO"
              d="M 258.896576,-213.964676 A 326.017748,326.017748 0,0 1,-38.595280,-124.191284"
              stroke="#5fde5e" stroke-width="5.1215787" stroke-opacity="1.0"/>
        <path stroke-linecap="round" fill="none" class="id_hzo id_W-T"
              d="M 312.578369,-208.175629 A 696.673455,696.673455 0,0 1,224.557480,544.299072"
              stroke="#76e275" stroke-width="1.5338546" stroke-opacity="1.0"/>
        <path stroke-linecap="round" fill="none" class="id_nifH id_FI"
              d="M 37.467758,430.678467 A 336.792462,336.792462 0,0 1,-269.891144,532.524475"
              stroke="#6ce06b" stroke-width="3.2599115" stroke-opacity="1.0"/>
    </g>
    <g id="nodes">
        <circle fill="#9a96e5" r="34.272003" fill-opacity="0.6"
                class="id_Bacterial_16S_rRNA" cx="-73.32727" cy="599.1249"/>
        <circle fill="none" r="37.536003" cx="-73.32727" cy="599.1249"
                stroke="#000000" stroke-opacity="0.6" stroke-width="6.5280004"/>
        <circle fill="#f97743" r="34.272003" fill-opacity="0.6" class="id_HIX"
                cx="57.96841" cy="157.7414"/>
        <circle fill="none" r="37.536003" cx="57.96841" cy="157.7414"
                stroke="#000000" stroke-opacity="0.6" stroke-width="6.5280004"/>
        <circle fill="#f97743" r="34.272003" fill-opacity="0.6"
                class="id_Ⅰ-Area" cx="-175.13284" cy="82.48649"/>
        <circle fill="none" r="37.536003" cx="-175.13284" cy="82.48649"
                stroke="#000000" stroke-opacity="0.6" stroke-width="6.5280004"/>
        <circle fill="#f97743" r="34.272003" fill-opacity="0.6"
                class="id_Ⅳ-Area" cx="-394.9137" cy="156.12074"/>
        <circle fill="none" r="37.536003" cx="-394.9137" cy="156.12074"
                stroke="#000000" stroke-opacity="0.6" stroke-width="6.5280004"/>
        <circle fill="#28b36a" r="34.272003" fill-opacity="0.6" class="id_W-pH"
                cx="289.9162" cy="239.72519"/>
        <circle fill="none" r="37.536003" cx="289.9162" cy="239.72519"
                stroke="#000000" stroke-opacity="0.6" stroke-width="6.5280004"/>
        <circle fill="#28b36a" r="34.272003" fill-opacity="0.6" class="id_W-DO"
                cx="-84.57252" cy="-137.26546"/>
        <circle fill="none" r="37.536003" cx="-84.57252" cy="-137.26546"
                stroke="#000000" stroke-opacity="0.6" stroke-width="6.5280004"/>
        <circle fill="#28b36a" r="34.272003" fill-opacity="0.6" class="id_W-TN"
                cx="407.11243" cy="455.1814"/>
        <circle fill="none" r="37.536003" cx="407.11243" cy="455.1814"
                stroke="#000000" stroke-opacity="0.6" stroke-width="6.5280004"/>
        <circle fill="#28b36a" r="34.272003" fill-opacity="0.6"
                class="id_W-NH_{4}^{+}" cx="554.8217" cy="-223.18045"/>
        <circle fill="none" r="37.536003" cx="554.8217" cy="-223.18045"
                stroke="#000000" stroke-opacity="0.6" stroke-width="6.5280004"/>
        <circle fill="#28b36a" r="34.272003" fill-opacity="0.6" class="id_W-T"
                cx="192.83691" cy="580.05725"/>
        <circle fill="none" r="37.536003" cx="192.83691" cy="580.05725"
                stroke="#000000" stroke-opacity="0.6" stroke-width="6.5280004"/>
        <circle fill="#9a96e5" r="34.272003" fill-opacity="0.6"
                class="id_Archaeal_16S_rRNA" cx="-199.53734" cy="-338.7431"/>
        <circle fill="none" r="37.536003" cx="-199.53734" cy="-338.7431"
                stroke="#000000" stroke-opacity="0.6" stroke-width="6.5280004"/>
        <circle fill="#f97743" r="34.272003" fill-opacity="0.6"
                class="id_Ⅲ-Area" cx="-584.2387" cy="-177.54237"/>
        <circle fill="none" r="37.536003" cx="-584.2387" cy="-177.54237"
                stroke="#000000" stroke-opacity="0.6" stroke-width="6.5280004"/>
        <circle fill="#f97743" r="34.272003" fill-opacity="0.6"
                class="id_Ⅴ-Area" cx="368.45758" cy="3.1512287"/>
        <circle fill="none" r="37.536003" cx="368.45758" cy="3.1512287"
                stroke="#000000" stroke-opacity="0.6" stroke-width="6.5280004"/>
        <circle fill="#9a96e5" r="34.272003" fill-opacity="0.6"
                class="id_AOA_amoA" cx="608.2696" cy="11.025404"/>
        <circle fill="none" r="37.536003" cx="608.2696" cy="11.025404"
                stroke="#000000" stroke-opacity="0.6" stroke-width="6.5280004"/>
        <circle fill="#9a96e5" r="34.272003" fill-opacity="0.6" class="id_nxrA"
                cx="-507.33163" cy="351.1491"/>
        <circle fill="none" r="37.536003" cx="-507.33163" cy="351.1491"
                stroke="#000000" stroke-opacity="0.6" stroke-width="6.5280004"/>
        <circle fill="#f97743" r="34.272003" fill-opacity="0.6" class="id_FI"
                cx="-316.17538" cy="520.5826"/>
        <circle fill="none" r="37.536003" cx="-316.17538" cy="520.5826"
                stroke="#000000" stroke-opacity="0.6" stroke-width="6.5280004"/>
        <circle fill="#28b36a" r="34.272003" fill-opacity="0.6"
                class="id_W-NO_{2}^{-}" cx="59.78703" cy="-357.24042"/>
        <circle fill="none" r="37.536003" cx="59.78703" cy="-357.24042"
                stroke="#000000" stroke-opacity="0.6" stroke-width="6.5280004"/>
        <circle fill="#28b36a" r="34.272003" fill-opacity="0.6" class="id_W-COD"
                cx="-359.05005" cy="-112.80482"/>
        <circle fill="none" r="37.536003" cx="-359.05005" cy="-112.80482"
                stroke="#000000" stroke-opacity="0.6" stroke-width="6.5280004"/>
        <circle fill="#9a96e5" r="34.272003" fill-opacity="0.6" class="id_narG"
                cx="214.07544" cy="-557.0766"/>
        <circle fill="none" r="37.536003" cx="214.07544" cy="-557.0766"
                stroke="#000000" stroke-opacity="0.6" stroke-width="6.5280004"/>
        <circle fill="#9a96e5" r="34.272003" fill-opacity="0.6" class="id_napA"
                cx="-448.49194" cy="-378.63882"/>
        <circle fill="none" r="37.536003" cx="-448.49194" cy="-378.63882"
                stroke="#000000" stroke-opacity="0.6" stroke-width="6.5280004"/>
        <circle fill="#f97743" r="34.272003" fill-opacity="0.6" class="id_S-TP"
                cx="427.0134" cy="-443.053"/>
        <circle fill="none" r="37.536003" cx="427.0134" cy="-443.053"
                stroke="#000000" stroke-opacity="0.6" stroke-width="6.5280004"/>
        <circle fill="#9a96e5" r="34.272003" fill-opacity="0.6" class="id_nirK"
                cx="-610.03235" cy="75.08853"/>
        <circle fill="none" r="37.536003" cx="-610.03235" cy="75.08853"
                stroke="#000000" stroke-opacity="0.6" stroke-width="6.5280004"/>
        <circle fill="#9a96e5" r="34.272003" fill-opacity="0.6" class="id_cnorB"
                cx="139.45506" cy="-65.82573"/>
        <circle fill="none" r="37.536003" cx="139.45506" cy="-65.82573"
                stroke="#000000" stroke-opacity="0.6" stroke-width="6.5280004"/>
        <circle fill="#f97743" r="34.272003" fill-opacity="0.6"
                class="id_S-Size-d(0.5)" cx="-181.3085" cy="332.79376"/>
        <circle fill="none" r="37.536003" cx="-181.3085" cy="332.79376"
                stroke="#000000" stroke-opacity="0.6" stroke-width="6.5280004"/>
        <circle fill="#f97743" r="34.272003" fill-opacity="0.6"
                class="id_S-Size-d(0.9)" cx="-22.93126" cy="-601.50867"/>
        <circle fill="none" r="37.536003" cx="-22.93126" cy="-601.50867"
                stroke="#000000" stroke-opacity="0.6" stroke-width="6.5280004"/>
        <circle fill="#9a96e5" r="34.272003" fill-opacity="0.6" class="id_hzsA"
                cx="545.82196" cy="244.01094"/>
        <circle fill="none" r="37.536003" cx="545.82196" cy="244.01094"
                stroke="#000000" stroke-opacity="0.6" stroke-width="6.5280004"/>
        <circle fill="#f97743" r="34.272003" fill-opacity="0.6" class="id_S-TN"
                cx="-265.92197" cy="-558.531"/>
        <circle fill="none" r="37.536003" cx="-265.92197" cy="-558.531"
                stroke="#000000" stroke-opacity="0.6" stroke-width="6.5280004"/>
        <circle fill="#9a96e5" r="34.272003" fill-opacity="0.6" class="id_hzo"
                cx="289.96686" cy="-250.28929"/>
        <circle fill="none" r="37.536003" cx="289.96686" cy="-250.28929"
                stroke="#000000" stroke-opacity="0.6" stroke-width="6.5280004"/>
        <circle fill="#9a96e5" r="34.272003" fill-opacity="0.6" class="id_nifH"
                cx="67.462555" cy="393.46082"/>
        <circle fill="none" r="37.536003" cx="67.462555" cy="393.46082"
                stroke="#000000" stroke-opacity="0.6" stroke-width="6.5280004"/>
    </g>
</svg>