<svg width="1280" height="720" xmlns="http://www.w3.org/2000/svg" xmlns:xlink="http://www.w3.org/1999/xlink" overflow="hidden"><defs><clipPath id="clip0"><rect x="0" y="0" width="1280" height="720"/></clipPath><clipPath id="clip1"><rect x="280" y="0" width="720" height="720"/></clipPath><clipPath id="clip2"><rect x="280" y="0" width="720" height="720"/></clipPath><clipPath id="clip3"><rect x="280" y="0" width="720" height="720"/></clipPath></defs><g clip-path="url(#clip0)"><rect x="0" y="0" width="1280" height="720" fill="#FFFFFF"/><g clip-path="url(#clip1)"><g clip-path="url(#clip2)"><g clip-path="url(#clip3)"><path d="M-177.307-253.674C-161.258-219.171-160.928-179.411-176.403-144.647" stroke="#AC0014" stroke-width="4.72556" stroke-linecap="round" fill="none" transform="matrix(1 0 0 1.00076 638.902 356.979)"/><path d="M-174.716-300.565C-152.417-323.326-121.835-336.06-89.9716-335.851" stroke="#B72738" stroke-width="3.6489" stroke-linecap="round" fill="none" transform="matrix(1 0 0 1.00076 638.902 356.979)"/><path d="M107.216 185.804C147.507 181.162 187.789 194.572 217.258 222.438" stroke="#C04351" stroke-width="1.49692" stroke-linecap="round" fill="none" transform="matrix(1 0 0 1.00076 638.902 356.979)"/><path d="M51.0498 192.798C-52.5068 190.573-146.356 131.302-192.865 38.7504" stroke="#4CDB4B" stroke-width="4.8629" stroke-linecap="round" fill="none" transform="matrix(1 0 0 1.00076 638.902 356.979)"/><path d="M92.6482 166.779C110.172 141.498 137.089 124.287 167.389 118.989" stroke="#9DE89C" stroke-width="1.83631" stroke-linecap="round" fill="none" transform="matrix(1 0 0 1.00076 638.902 356.979)"/><path d="M78.4631 163.554C80.8789 93.5519 119.037 29.6834 179.535-5.61734" stroke="#8AE589" stroke-width="3.34525" stroke-linecap="round" fill="none" transform="matrix(1 0 0 1.00076 638.902 356.979)"/><path d="M-195.558 145.643C-232.837 151.435-270.803 140.857-299.716 116.622" stroke="#BD3948" stroke-width="2.42609" stroke-linecap="round" fill="none" transform="matrix(1 0 0 1.00076 638.902 356.979)"/><path d="M90.3312 319.938C-69.3433 337.359-224.395 259.535-305.838 121.092" stroke="#30D72E" stroke-width="4.92945" stroke-linecap="round" fill="none" transform="matrix(1 0 0 1.00076 638.902 356.979)"/><path d="M-233.775 224.592C-203.73 231.484-177.7 250.129-161.506 276.358" stroke="#AC0115" stroke-width="4.70245" stroke-linecap="round" fill="none" transform="matrix(1 0 0 1.00076 638.902 356.979)"/><path d="M-233.914 217.686C-153.468 211.278-75.6252 247.857-29.2149 313.877" stroke="#C04251" stroke-width="1.56319" stroke-linecap="round" fill="none" transform="matrix(1 0 0 1.00076 638.902 356.979)"/><path d="M-306.265-43.6572C-274.695-44.1732-244.258-31.8967-221.881-9.62106" stroke="#8EE68E" stroke-width="3.0746" stroke-linecap="round" fill="none" transform="matrix(1 0 0 1.00076 638.902 356.979)"/><path d="M324.183-132.625C342.236-107.719 349.564-76.6208 344.53-46.2747" stroke="#BC3645" stroke-width="2.69942" stroke-linecap="round" fill="none" transform="matrix(1 0 0 1.00076 638.902 356.979)"/><path d="M278.083-163.157C245.797-179.244 221.867-208.29 212.254-243.057" stroke="#B72435" stroke-width="3.77697" stroke-linecap="round" fill="none" transform="matrix(1 0 0 1.00076 638.902 356.979)"/><path d="M302.12-125.103C294.007-84.1371 268.031-48.9313 231.283-29.0933" stroke="#5EDE5D" stroke-width="4.71943" stroke-linecap="round" fill="none" transform="matrix(1 0 0 1.00076 638.902 356.979)"/><path d="M-268.179-177.554C-244.107-174.239-222.055-162.302-206.118-143.959" stroke="#B92D3D" stroke-width="3.31332" stroke-linecap="round" fill="none" transform="matrix(1 0 0 1.00076 638.902 356.979)"/><path d="M-272.464-162.396C-226.074-128.072-199.442-73.1993-201.177-15.5177" stroke="#BD3948" stroke-width="2.44529" stroke-linecap="round" fill="none" transform="matrix(1 0 0 1.00076 638.902 356.979)"/><path d="M-285.402-203.532C-247.903-278.136-173.548-327.159-90.2033-332.227" stroke="#B11325" stroke-width="4.38433" stroke-linecap="round" fill="none" transform="matrix(1 0 0 1.00076 638.902 356.979)"/><path d="M87.0345-304.924C90.709-279.219 84.6486-253.068 70.0417-231.599" stroke="#B82A3A" stroke-width="3.49781" stroke-linecap="round" fill="none" transform="matrix(1 0 0 1.00076 638.902 356.979)"/><path d="M54.5738-318.069C25.2683-305.64-7.82638-305.634-37.1362-318.053" stroke="#81E480" stroke-width="3.84203" stroke-linecap="round" fill="none" transform="matrix(1 0 0 1.00076 638.902 356.979)"/><path d="M102.724-316.28C186.151-253.236 227.832-149.195 211.008-45.9888" stroke="#39D837" stroke-width="4.9192" stroke-linecap="round" fill="none" transform="matrix(1 0 0 1.00076 638.902 356.979)"/><path d="M-77.5339 213.672C-164.282 225.244-250.567 189.366-303.536 119.698" stroke="#02D000" stroke-width="4.93902" stroke-linecap="round" fill="none" transform="matrix(1 0 0 1.00076 638.902 356.979)"/><path d="M-29.598 228.45C-11.6572 251.828-3.6415 281.329-7.28515 310.571" stroke="#BC3646" stroke-width="2.67921" stroke-linecap="round" fill="none" transform="matrix(1 0 0 1.00076 638.902 356.979)"/><path d="M145.942-144.94C114.883-147.545 86.1801-162.54 66.3027-186.546" stroke="#B41D2E" stroke-width="4.08563" stroke-linecap="round" fill="none" transform="matrix(1 0 0 1.00076 638.902 356.979)"/><path d="M193.701-125.234C210.146-102.142 217.001-73.5747 212.825-45.5346" stroke="#42DA41" stroke-width="4.89928" stroke-linecap="round" fill="none" transform="matrix(1 0 0 1.00076 638.902 356.979)"/><path d="M-22.4053 69.0958C80.9468 69.3914 175.68 126.758 223.833 218.208" stroke="#C14654" stroke-width="1.12487" stroke-linecap="round" fill="none" transform="matrix(1 0 0 1.00076 638.902 356.979)"/><path d="M-28.0994 53.3505C-4.10229 39.8125 24.169 35.9807 50.9039 42.6427" stroke="#B72637" stroke-width="3.69357" stroke-linecap="round" fill="none" transform="matrix(1 0 0 1.00076 638.902 356.979)"/><path d="M-68.6454 48.3349C-82.9579 24.8009-87.7133-3.32108-81.9345-30.2525" stroke="#B3182A" stroke-width="4.23847" stroke-linecap="round" fill="none" transform="matrix(1 0 0 1.00076 638.902 356.979)"/><path d="M-68.6864 48.368C-114.443-16.1086-122.889-99.9075-90.9193-172.218" stroke="#AF0D20" stroke-width="4.52193" stroke-linecap="round" fill="none" transform="matrix(1 0 0 1.00076 638.902 356.979)"/><path d="M-78.7686 75.5416C-118.942 78.5798-158.41 63.7392-186.629 34.9842" stroke="#92E691" stroke-width="2.8376" stroke-linecap="round" fill="none" transform="matrix(1 0 0 1.00076 638.902 356.979)"/><path d="M-57.5234 42.8417C-73.7828-45.6587-41.0349-136.047 28.1381-193.595" stroke="#BC3645" stroke-width="2.6918" stroke-linecap="round" fill="none" transform="matrix(1 0 0 1.00076 638.902 356.979)"/><path d="M-33.4441 47.9478C19.0382-11.92 99.1875-39.697 177.461-25.1447" stroke="#77E276" stroke-width="4.19612" stroke-linecap="round" fill="none" transform="matrix(1 0 0 1.00076 638.902 356.979)"/><path d="M-72.9848 88.2351C-137.858 133.785-221.923 141.811-294.242 109.358" stroke="#94E794" stroke-width="2.63453" stroke-linecap="round" fill="none" transform="matrix(1 0 0 1.00076 638.902 356.979)"/><path d="M74.3966-53.9194C88.872-29.7891 93.4636-0.99888 87.2122 26.437" stroke="#A9EAA8" stroke-width="0.493902" stroke-linecap="round" fill="none" transform="matrix(1 0 0 1.00076 638.902 356.979)"/><path d="M34.2618-58.7582C10.0979-44.6406-18.5786-40.3826-45.802-46.8698" stroke="#7EE37D" stroke-width="3.97" stroke-linecap="round" fill="none" transform="matrix(1 0 0 1.00076 638.902 356.979)"/><path d="M28.7767-81.3951C-15.9976-94.2073-52.349-126.973-69.7255-170.181" stroke="#85E484" stroke-width="3.64265" stroke-linecap="round" fill="none" transform="matrix(1 0 0 1.00076 638.902 356.979)"/><path d="M41.648-100.285C29.3335-127.016 28.0326-157.519 38.0263-185.201" stroke="#39D837" stroke-width="4.91965" stroke-linecap="round" fill="none" transform="matrix(1 0 0 1.00076 638.902 356.979)"/><path d="M83.1585-65.7344C144.194-36.4033 186.097 21.9854 194.345 89.1987" stroke="#BC3545" stroke-width="2.73043" stroke-linecap="round" fill="none" transform="matrix(1 0 0 1.00076 638.902 356.979)"/><path d="M32.5518-91.1466C-35.9161-139.494-73.4681-220.635-66.0122-304.119" stroke="#B51E30" stroke-width="4.0242" stroke-linecap="round" fill="none" transform="matrix(1 0 0 1.00076 638.902 356.979)"/><path d="M84.7695-80.8097C123.241-82.9724 160.753-68.3059 187.555-40.6223" stroke="#B01023" stroke-width="4.45201" stroke-linecap="round" fill="none" transform="matrix(1 0 0 1.00076 638.902 356.979)"/><path d="M296.918 131.97C272.309 141.417 245.048 141.266 220.545 131.548" stroke="#A1E9A1" stroke-width="1.38542" stroke-linecap="round" fill="none" transform="matrix(1 0 0 1.00076 638.902 356.979)"/><path d="M-167.424-278.003C-167.424-264.425-178.431-253.418-192.009-253.418-205.587-253.418-216.595-264.425-216.595-278.003-216.595-291.581-205.587-302.588-192.009-302.588-178.431-302.588-167.424-291.581-167.424-278.003Z" fill="#00B2C2" fill-opacity="0.6" transform="matrix(1 0 0 1.00076 638.902 356.979)"/><path d="M-166.115-120.077C-166.115-106.499-177.122-95.4914-190.7-95.4914-204.278-95.4914-215.285-106.499-215.285-120.077-215.285-133.655-204.278-144.662-190.7-144.662-177.122-144.662-166.115-133.655-166.115-120.077Z" fill="#F072B3" fill-opacity="0.6" transform="matrix(1 0 0 1.00076 638.902 356.979)"/><path d="M-37.1911-332.229C-37.1911-318.651-48.1984-307.643-61.7765-307.643-75.3546-307.643-86.3618-318.651-86.3618-332.229-86.3618-345.807-75.3546-356.814-61.7765-356.814-48.1984-356.814-37.1911-345.807-37.1911-332.229Z" fill="#B29F18" fill-opacity="0.6" transform="matrix(1 0 0 1.00076 638.902 356.979)"/><path d="M104.05 191.963C104.05 205.541 93.0425 216.549 79.4643 216.549 65.8862 216.549 54.879 205.541 54.879 191.963 54.879 178.385 65.8862 167.378 79.4643 167.378 93.0425 167.378 104.05 178.385 104.05 191.963Z" fill="#00B2C2" fill-opacity="0.6" transform="matrix(1 0 0 1.00076 638.902 356.979)"/><path d="M260.365 244.003C260.365 257.581 249.358 268.588 235.78 268.588 222.201 268.588 211.194 257.581 211.194 244.003 211.194 230.425 222.201 219.417 235.78 219.417 249.358 219.417 260.365 230.425 260.365 244.003Z" fill="#F072B3" fill-opacity="0.6" transform="matrix(1 0 0 1.00076 638.902 356.979)"/><path d="M-179.737 12.7346C-179.737 26.3127-190.744 37.32-204.322 37.32-217.9 37.32-228.907 26.3127-228.907 12.7346-228.907-0.843534-217.9-11.8508-204.322-11.8508-190.744-11.8508-179.737-0.843534-179.737 12.7346Z" fill="#B29F18" fill-opacity="0.6" transform="matrix(1 0 0 1.00076 638.902 356.979)"/><path d="M220.367 117.589C220.367 131.167 209.36 142.175 195.781 142.175 182.203 142.175 171.196 131.167 171.196 117.589 171.196 104.011 182.203 93.0039 195.781 93.0039 209.36 93.0039 220.367 104.011 220.367 117.589Z" fill="#B29F18" fill-opacity="0.6" transform="matrix(1 0 0 1.00076 638.902 356.979)"/><path d="M229.612-18.1985C229.612-4.62041 218.605 6.38683 205.026 6.38683 191.448 6.38683 180.441-4.62041 180.441-18.1985 180.441-31.7767 191.448-42.7839 205.026-42.7839 218.605-42.7839 229.612-31.7767 229.612-18.1985Z" fill="#B29F18" fill-opacity="0.6" transform="matrix(1 0 0 1.00076 638.902 356.979)"/><path d="M-143.523 138.255C-143.523 151.833-154.53 162.84-168.108 162.84-181.686 162.84-192.693 151.833-192.693 138.255-192.693 124.676-181.686 113.669-168.108 113.669-154.53 113.669-143.523 124.676-143.523 138.255Z" fill="#00B2C2" fill-opacity="0.6" transform="matrix(1 0 0 1.00076 638.902 356.979)"/><path d="M-294.805 96.1034C-294.805 109.681-305.812 120.689-319.39 120.689-332.968 120.689-343.975 109.681-343.975 96.1034-343.975 82.5252-332.968 71.518-319.39 71.518-305.812 71.518-294.805 82.5252-294.805 96.1034Z" fill="#B29F18" fill-opacity="0.6" transform="matrix(1 0 0 1.00076 638.902 356.979)"/><path d="M143.051 315.873C143.051 329.451 132.044 340.458 118.466 340.458 104.888 340.458 93.8805 329.451 93.8805 315.873 93.8805 302.294 104.888 291.287 118.466 291.287 132.044 291.287 143.051 302.294 143.051 315.873Z" fill="#00B2C2" fill-opacity="0.6" transform="matrix(1 0 0 1.00076 638.902 356.979)"/><path d="M-237.47 221.705C-237.47 235.283-248.477 246.29-262.055 246.29-275.633 246.29-286.641 235.283-286.641 221.705-286.641 208.126-275.633 197.119-262.055 197.119-248.477 197.119-237.47 208.126-237.47 221.705Z" fill="#00B2C2" fill-opacity="0.6" transform="matrix(1 0 0 1.00076 638.902 356.979)"/><path d="M-125.085 302.204C-125.085 315.782-136.092 326.789-149.67 326.789-163.249 326.789-174.256 315.782-174.256 302.204-174.256 288.626-163.249 277.618-149.67 277.618-136.092 277.618-125.085 288.626-125.085 302.204Z" fill="#B29F18" fill-opacity="0.6" transform="matrix(1 0 0 1.00076 638.902 356.979)"/><path d="M10.2375 338.107C10.2375 351.685-0.769698 362.692-14.3478 362.692-27.9259 362.692-38.9332 351.685-38.9332 338.107-38.9332 324.528-27.9259 313.521-14.3478 313.521-0.769697 313.521 10.2375 324.528 10.2375 338.107Z" fill="#B29F18" fill-opacity="0.6" transform="matrix(1 0 0 1.00076 638.902 356.979)"/><path d="M-309.835-39.7403C-309.835-26.1622-320.843-15.155-334.421-15.155-347.999-15.155-359.006-26.1622-359.006-39.7403-359.006-53.3184-347.999-64.3257-334.421-64.3257-320.843-64.3257-309.835-53.3184-309.835-39.7403Z" fill="#00B2C2" fill-opacity="0.6" transform="matrix(1 0 0 1.00076 638.902 356.979)"/><path d="M329.37-153.404C329.37-139.826 318.362-128.819 304.784-128.819 291.206-128.819 280.199-139.826 280.199-153.404 280.199-166.982 291.206-177.99 304.784-177.99 318.362-177.99 329.37-166.982 329.37-153.404Z" fill="#00B2C2" fill-opacity="0.6" transform="matrix(1 0 0 1.00076 638.902 356.979)"/><path d="M361.034-19.0206C361.034-5.44243 350.027 5.56481 336.449 5.56481 322.871 5.56481 311.864-5.44243 311.864-19.0206 311.864-32.5987 322.871-43.6059 336.449-43.6059 350.027-43.6059 361.034-32.5987 361.034-19.0206Z" fill="#F072B3" fill-opacity="0.6" transform="matrix(1 0 0 1.00076 638.902 356.979)"/><path d="M232.376-271.131C232.376-257.553 221.368-246.545 207.79-246.545 194.212-246.545 183.205-257.553 183.205-271.131 183.205-284.709 194.212-295.716 207.79-295.716 221.368-295.716 232.376-284.709 232.376-271.131Z" fill="#F072B3" fill-opacity="0.6" transform="matrix(1 0 0 1.00076 638.902 356.979)"/><path d="M-272.02-177.405C-272.02-163.827-283.027-152.82-296.605-152.82-310.184-152.82-321.191-163.827-321.191-177.405-321.191-190.984-310.184-201.991-296.605-201.991-283.027-201.991-272.02-190.983-272.02-177.405Z" fill="#00B2C2" fill-opacity="0.6" transform="matrix(1 0 0 1.00076 638.902 356.979)"/><path d="M103.795-332.253C103.795-318.675 92.7874-307.668 79.2093-307.668 65.6311-307.668 54.6239-318.675 54.6239-332.253 54.6239-345.831 65.6311-356.838 79.2093-356.838 92.7874-356.838 103.795-345.831 103.795-332.253Z" fill="#00B2C2" fill-opacity="0.6" transform="matrix(1 0 0 1.00076 638.902 356.979)"/><path d="M75.5785-210.499C75.5785-196.92 64.5713-185.913 50.9932-185.913 37.4151-185.913 26.4078-196.92 26.4078-210.499 26.4078-224.077 37.4151-235.084 50.9932-235.084 64.5713-235.084 75.5785-224.077 75.5785-210.499Z" fill="#B29F18" fill-opacity="0.6" transform="matrix(1 0 0 1.00076 638.902 356.979)"/><path d="M-25.0388 208.275C-25.0388 221.853-36.046 232.861-49.6241 232.861-63.2022 232.861-74.2095 221.853-74.2095 208.275-74.2095 194.697-63.2023 183.69-49.6241 183.69-36.046 183.69-25.0388 194.697-25.0388 208.275Z" fill="#00B2C2" fill-opacity="0.6" transform="matrix(1 0 0 1.00076 638.902 356.979)"/><path d="M198.932-146.055C198.932-132.477 187.925-121.469 174.347-121.469 160.769-121.469 149.762-132.477 149.762-146.055 149.762-159.633 160.769-170.64 174.347-170.64 187.925-170.64 198.932-159.633 198.932-146.055Z" fill="#00B2C2" fill-opacity="0.6" transform="matrix(1 0 0 1.00076 638.902 356.979)"/><path d="M-26.214 70.4618C-26.214 84.04-37.2212 95.0472-50.7993 95.0472-64.3775 95.0472-75.3847 84.04-75.3847 70.4618-75.3847 56.8837-64.3775 45.8765-50.7993 45.8765-37.2212 45.8765-26.214 56.8837-26.214 70.4618Z" fill="#00B2C2" fill-opacity="0.6" transform="matrix(1 0 0 1.00076 638.902 356.979)"/><path d="M101.925 53.0944C101.925 66.6725 90.9178 77.6797 77.3397 77.6797 63.7615 77.6797 52.7543 66.6725 52.7543 53.0944 52.7543 39.5162 63.7615 28.509 77.3397 28.509 90.9178 28.509 101.925 39.5162 101.925 53.0944Z" fill="#F072B3" fill-opacity="0.6" transform="matrix(1 0 0 1.00076 638.902 356.979)"/><path d="M-47.7707-57.017C-47.7707-43.4389-58.7779-32.4316-72.356-32.4316-85.9342-32.4316-96.9414-43.4389-96.9414-57.017-96.9414-70.5951-85.9342-81.6024-72.356-81.6024-58.7779-81.6024-47.7707-70.5951-47.7707-57.017Z" fill="#F072B3" fill-opacity="0.6" transform="matrix(1 0 0 1.00076 638.902 356.979)"/><path d="M-53.2156-197.437C-53.2156-183.859-64.2228-172.852-77.8009-172.852-91.3791-172.852-102.386-183.859-102.386-197.437-102.386-211.015-91.3791-222.022-77.8009-222.022-64.2228-222.022-53.2156-211.015-53.2156-197.437Z" fill="#F072B3" fill-opacity="0.6" transform="matrix(1 0 0 1.00076 638.902 356.979)"/><path d="M81.3071-76.1833C81.3071-62.6052 70.2998-51.598 56.7217-51.598 43.1436-51.598 32.1363-62.6052 32.1363-76.1833 32.1363-89.7615 43.1436-100.769 56.7217-100.769 70.2998-100.769 81.3071-89.7615 81.3071-76.1833Z" fill="#00B2C2" fill-opacity="0.6" transform="matrix(1 0 0 1.00076 638.902 356.979)"/><path d="M346.419 118.285C346.419 131.863 335.412 142.87 321.834 142.87 308.255 142.87 297.248 131.863 297.248 118.285 297.248 104.707 308.255 93.6996 321.834 93.6996 335.412 93.6996 346.419 104.707 346.419 118.285Z" fill="#00B2C2" fill-opacity="0.6" transform="matrix(1 0 0 1.00076 638.902 356.979)"/></g></g></g><text font-family="Times New Roman,Times New Roman_MSFontService,sans-serif" font-style="italic" font-weight="400" font-size="24" transform="translate(623.552 558)">Archaeal 16S rRNA</text><text font-family="Times New Roman,Times New Roman_MSFontService,sans-serif" font-style="italic" font-weight="400" font-size="24" transform="translate(355.1 85)">Bacterial 16S rRNA</text><text font-family="Times New Roman,Times New Roman_MSFontService,sans-serif" font-style="italic" font-weight="400" font-size="24" transform="translate(702.041 679)">AOB_amoA</text><text font-family="Cambria Math,Cambria Math_MSFontService,sans-serif" font-weight="400" font-size="24" transform="translate(820.842 346)">N</text><text font-family="Cambria Math,Cambria Math_MSFontService,sans-serif" font-weight="400" font-size="24" transform="translate(837.175 346)">H</text><text font-family="Cambria Math,Cambria Math_MSFontService,sans-serif" font-weight="400" font-size="18" transform="translate(853.675 351)">4</text><text font-family="Cambria Math,Cambria Math_MSFontService,sans-serif" font-weight="400" font-size="18" transform="translate(854.435 337)">+</text><text font-family="Times New Roman,Times New Roman_MSFontService,sans-serif" font-weight="400" font-size="24" transform="translate(421.351 245)">S</text><text font-family="Times New Roman,Times New Roman_MSFontService,sans-serif" font-weight="400" font-size="24" transform="translate(434.684 245)">-</text><text font-family="Times New Roman,Times New Roman_MSFontService,sans-serif" font-weight="400" font-size="24" transform="translate(442.684 245)">TN</text><text font-family="Times New Roman,Times New Roman_MSFontService,sans-serif" font-style="italic" font-weight="400" font-size="24" transform="translate(938.109 483)">nifH</text><text font-family="Times New Roman,Times New Roman_MSFontService,sans-serif" font-weight="400" font-size="24" transform="translate(684.307 417)">Ⅰ</text><text font-family="Times New Roman,Times New Roman_MSFontService,sans-serif" font-weight="400" font-size="24" transform="translate(692.307 417)">-</text><text font-family="Times New Roman,Times New Roman_MSFontService,sans-serif" font-weight="400" font-size="24" transform="translate(700.307 417)">Area</text><text font-family="Times New Roman,Times New Roman_MSFontService,sans-serif" font-style="italic" font-weight="400" font-size="24" transform="translate(696.565 33)">nirS</text><text font-family="Times New Roman,Times New Roman_MSFontService,sans-serif" font-style="italic" font-weight="400" font-size="24" transform="translate(919.783 215)">napA</text><text font-family="Times New Roman,Times New Roman_MSFontService,sans-serif" font-weight="400" font-size="24" transform="translate(617.696 704)">T</text><text font-family="Cambria Math,Cambria Math_MSFontService,sans-serif" font-weight="400" font-size="24" transform="translate(467.167 667)">N</text><text font-family="Cambria Math,Cambria Math_MSFontService,sans-serif" font-weight="400" font-size="24" transform="translate(483.5 667)">O</text><text font-family="Cambria Math,Cambria Math_MSFontService,sans-serif" font-weight="400" font-size="18" transform="translate(499.167 673)">3</text><text font-family="Cambria Math,Cambria Math_MSFontService,sans-serif" font-weight="400" font-size="18" transform="translate(499.167 658)">−</text><text font-family="Times New Roman,Times New Roman_MSFontService,sans-serif" font-style="italic" font-weight="400" font-size="24" transform="translate(352.388 586)">nxrA</text><text font-family="Times New Roman,Times New Roman_MSFontService,sans-serif" font-style="italic" font-weight="400" font-size="24" transform="translate(564.859 573)">norB</text><text font-family="Times New Roman,Times New Roman_MSFontService,sans-serif" font-style="italic" font-weight="400" font-size="24" transform="translate(319.901 187)">nirK</text><text font-family="Times New Roman,Times New Roman_MSFontService,sans-serif" font-style="italic" font-weight="400" font-size="24" transform="translate(278.244 325)">narG</text><text font-family="Times New Roman,Times New Roman_MSFontService,sans-serif" font-weight="400" font-size="24" transform="translate(293.51 462)">CO</text><text font-family="Times New Roman,Times New Roman_MSFontService,sans-serif" font-weight="400" font-size="24" transform="translate(326.843 462)">D</text><text font-family="Times New Roman,Times New Roman_MSFontService,sans-serif" font-weight="400" font-size="24" transform="translate(420.018 376)">pH</text><text font-family="Times New Roman,Times New Roman_MSFontService,sans-serif" font-style="italic" font-weight="400" font-size="24" transform="translate(413.707 503)">AOA_</text><text font-family="Times New Roman,Times New Roman_MSFontService,sans-serif" font-style="italic" font-weight="400" font-size="24" transform="translate(472.373 503)">amoA</text><text font-family="Times New Roman,Times New Roman_MSFontService,sans-serif" font-style="italic" font-weight="400" font-size="24" transform="translate(566.193 436)">hzsB</text><text font-family="Times New Roman,Times New Roman_MSFontService,sans-serif" font-weight="400" font-size="24" transform="translate(529.952 307)">Ⅱ</text><text font-family="Times New Roman,Times New Roman_MSFontService,sans-serif" font-weight="400" font-size="24" transform="translate(545.452 307)">-</text><text font-family="Times New Roman,Times New Roman_MSFontService,sans-serif" font-weight="400" font-size="24" transform="translate(553.452 307)">Area</text><text font-family="Times New Roman,Times New Roman_MSFontService,sans-serif" font-weight="400" font-size="24" transform="translate(522.355 168)">Ⅳ</text><text font-family="Times New Roman,Times New Roman_MSFontService,sans-serif" font-weight="400" font-size="24" transform="translate(547.522 168)">-</text><text font-family="Times New Roman,Times New Roman_MSFontService,sans-serif" font-weight="400" font-size="24" transform="translate(555.522 168)">Area</text><text font-family="Times New Roman,Times New Roman_MSFontService,sans-serif" font-weight="400" font-size="24" transform="translate(671.862 155)">DO</text><text font-family="Cambria Math,Cambria Math_MSFontService,sans-serif" font-weight="400" font-size="24" transform="translate(554.506 31)">N</text><text font-family="Cambria Math,Cambria Math_MSFontService,sans-serif" font-weight="400" font-size="24" transform="translate(570.839 31)">O</text><text font-family="Cambria Math,Cambria Math_MSFontService,sans-serif" font-weight="400" font-size="18" transform="translate(586.506 37)">2</text><text font-family="Cambria Math,Cambria Math_MSFontService,sans-serif" font-weight="400" font-size="18" transform="translate(586.506 22)">−</text><text font-family="Times New Roman,Times New Roman_MSFontService,sans-serif" font-weight="400" font-size="24" transform="translate(819.743 480)">TN</text><text font-family="Times New Roman,Times New Roman_MSFontService,sans-serif" font-weight="400" font-size="24" transform="translate(850.106 608)">S</text><text font-family="Times New Roman,Times New Roman_MSFontService,sans-serif" font-weight="400" font-size="24" transform="translate(863.439 608)">-</text><text font-family="Times New Roman,Times New Roman_MSFontService,sans-serif" font-weight="400" font-size="24" transform="translate(871.439 608)">TP</text><text font-family="Times New Roman,Times New Roman_MSFontService,sans-serif" font-weight="400" font-size="24" transform="translate(934.468 344)">Ⅲ</text><text font-family="Times New Roman,Times New Roman_MSFontService,sans-serif" font-weight="400" font-size="24" transform="translate(957.468 344)">-</text><text font-family="Times New Roman,Times New Roman_MSFontService,sans-serif" font-weight="400" font-size="24" transform="translate(965.468 344)">Area</text><text font-family="Times New Roman,Times New Roman_MSFontService,sans-serif" font-weight="400" font-size="24" transform="translate(810.147 93)">Ⅴ</text><text font-family="Times New Roman,Times New Roman_MSFontService,sans-serif" font-weight="400" font-size="24" transform="translate(827.481 93)">-</text><text font-family="Times New Roman,Times New Roman_MSFontService,sans-serif" font-weight="400" font-size="24" transform="translate(835.481 93)">Area</text><text font-family="Times New Roman,Times New Roman_MSFontService,sans-serif" font-style="italic" font-weight="400" font-size="24" transform="translate(789.347 219)">hzsA</text><text font-family="Times New Roman,Times New Roman_MSFontService,sans-serif" font-style="italic" font-weight="400" font-size="24" transform="translate(679.176 289)">hzo</text></g></svg>