<svg width="1280" height="720" xmlns="http://www.w3.org/2000/svg" xmlns:xlink="http://www.w3.org/1999/xlink" overflow="hidden"><defs><clipPath id="clip0"><rect x="0" y="0" width="1280" height="720"/></clipPath><clipPath id="clip1"><rect x="273" y="0" width="734" height="720"/></clipPath><clipPath id="clip2"><rect x="273" y="0" width="734" height="721"/></clipPath><clipPath id="clip3"><rect x="273" y="0" width="734" height="721"/></clipPath></defs><g clip-path="url(#clip0)"><rect x="0" y="0" width="1280" height="720" fill="#FFFFFF"/><g clip-path="url(#clip1)"><g clip-path="url(#clip2)"><g clip-path="url(#clip3)"><path d="M282.447 208.026C271.742 241.135 247.743 268.295 216.204 282.994" stroke="#AC0014" stroke-width="1.76307" stroke-linecap="round" fill="none" transform="matrix(1 0 0 1.00003 643.084 361.682)"/><path d="M215.421-83.0141C230.681-51.5472 232.13-15.1429 219.421 17.4379" stroke="#4CDB4B" stroke-width="2.42449" stroke-linecap="round" fill="none" transform="matrix(1 0 0 1.00003 643.084 361.682)"/><path d="M198.206-136.51C200.373-164.591 213.215-190.774 234.093-209.677" stroke="#9DE89C" stroke-width="1.05838" stroke-linecap="round" fill="none" transform="matrix(1 0 0 1.00003 643.084 361.682)"/><path d="M-206.265-94.5636C-234.998-86.7878-265.633-90.5817-291.601-105.131" stroke="#BD3948" stroke-width="1.61857" stroke-linecap="round" fill="none" transform="matrix(1 0 0 1.00003 643.084 361.682)"/><path d="M129.536-282.398C35.5792-149.95-127.238-84.8059-286.625-115.889" stroke="#30D72E" stroke-width="4.02118" stroke-linecap="round" fill="none" transform="matrix(1 0 0 1.00003 643.084 361.682)"/><path d="M-227.83-263.917C-212.808-290.109-188.068-309.324-158.973-317.397" stroke="#AC0115" stroke-width="1.73714" stroke-linecap="round" fill="none" transform="matrix(1 0 0 1.00003 643.084 361.682)"/><path d="M-212.039-247.959C-170.256-260.11-125.226-252.852-89.3773-228.188" stroke="#C04251" stroke-width="2.27399" stroke-linecap="round" fill="none" transform="matrix(1 0 0 1.00003 643.084 361.682)"/><path d="M312.46 61.3116C285.785 70.8229 256.476 69.7282 230.585 58.2534" stroke="#8EE68E" stroke-width="1.43291" stroke-linecap="round" fill="none" transform="matrix(1 0 0 1.00003 643.084 361.682)"/><path d="M-171.043 177.947C-206.26 190.519-245.169 187.455-277.983 169.525" stroke="#BC3645" stroke-width="0.50466" stroke-linecap="round" fill="none" transform="matrix(1 0 0 1.00003 643.084 361.682)"/><path d="M-173.908 163.102C-244.839 152.935-305.591 107.082-334.814 41.6568" stroke="#B72435" stroke-width="3.74292" stroke-linecap="round" fill="none" transform="matrix(1 0 0 1.00003 643.084 361.682)"/><path d="M-169.524 149.745C-196.973 127.688-213.953 95.1621-216.359 60.0319" stroke="#5EDE5D" stroke-width="4.80024" stroke-linecap="round" fill="none" transform="matrix(1 0 0 1.00003 643.084 361.682)"/><path d="M164.675 193.42C182.205 212.508 192.057 237.404 192.337 263.318" stroke="#B92D3D" stroke-width="3.22276" stroke-linecap="round" fill="none" transform="matrix(1 0 0 1.00003 643.084 361.682)"/><path d="M140.081 145.985C141.56 112.644 156.635 81.3651 181.794 59.4373" stroke="#BD3948" stroke-width="2.24892" stroke-linecap="round" fill="none" transform="matrix(1 0 0 1.00003 643.084 361.682)"/><path d="M143.462 203.97C140.925 249.762 117.62 291.891 80.1755 318.372" stroke="#B11325" stroke-width="4.4243" stroke-linecap="round" fill="none" transform="matrix(1 0 0 1.00003 643.084 361.682)"/><path d="M-85.4571 299.368C-79.7378 268.828-62.0798 241.828-36.3933 224.347" stroke="#B82A3A" stroke-width="3.42973" stroke-linecap="round" fill="none" transform="matrix(1 0 0 1.00003 643.084 361.682)"/><path d="M-61.5773 314.701C-31.8405 303.276 1.24329 304.303 30.2144 317.55" stroke="#81E480" stroke-width="4.32325" stroke-linecap="round" fill="none" transform="matrix(1 0 0 1.00003 643.084 361.682)"/><path d="M-111.581 312.558C-191.383 254.477-233.083 157.444-220.302 59.5751" stroke="#39D837" stroke-width="0.965624" stroke-linecap="round" fill="none" transform="matrix(1 0 0 1.00003 643.084 361.682)"/><path d="M1.29007-309.558C-51.0881-197.592-162.306-124.901-285.88-121.866" stroke="#02D000" stroke-width="5.0466" stroke-linecap="round" fill="none" transform="matrix(1 0 0 1.00003 643.084 361.682)"/><path d="M11.4502-307.359C6.28066-273.084-12.9001-242.498-41.5038-222.919" stroke="#BC3646" stroke-width="2.51136" stroke-linecap="round" fill="none" transform="matrix(1 0 0 1.00003 643.084 361.682)"/><path d="M-197.73 248.507C-155.265 208.193-95.7709 191.192-38.4172 202.981" stroke="#B41D2E" stroke-width="4.0892" stroke-linecap="round" fill="none" transform="matrix(1 0 0 1.00003 643.084 361.682)"/><path d="M-232.575 245.566C-264.276 185.961-263.644 114.36-230.898 55.3238" stroke="#42DA41" stroke-width="5.00201" stroke-linecap="round" fill="none" transform="matrix(1 0 0 1.00003 643.084 361.682)"/><path d="M-35.8345-52.004C-33.5255-23.5727-42.2552 4.65564-60.2111 26.8199" stroke="#B72637" stroke-width="3.58675" stroke-linecap="round" fill="none" transform="matrix(1 0 0 1.00003 643.084 361.682)"/><path d="M-16.8504-65.7884C23.0739-37.3228 47.4618 8.11441 49.1189 57.1195" stroke="#B3182A" stroke-width="0.624915" stroke-linecap="round" fill="none" transform="matrix(1 0 0 1.00003 643.084 361.682)"/><path d="M-33.7348-108.256C-18.6694-144.436 11.3563-172.297 48.5605-184.618" stroke="#AF0D20" stroke-width="1.53462" stroke-linecap="round" fill="none" transform="matrix(1 0 0 1.00003 643.084 361.682)"/><path d="M-13.1112-83.8205C68.1818-88.3055 145.819-49.6081 191.177 18.004" stroke="#92E691" stroke-width="1.16702" stroke-linecap="round" fill="none" transform="matrix(1 0 0 1.00003 643.084 361.682)"/><path d="M-23.4348-58.0221C28.2277 12.5489 38.2303 105.351 2.79239 185.31" stroke="#BC3645" stroke-width="1.00346" stroke-linecap="round" fill="none" transform="matrix(1 0 0 1.00003 643.084 361.682)"/><path d="M-54.3273-54.1187C-81.998-6.32441-130.991 25.2208-185.952 30.6307" stroke="#77E276" stroke-width="0.661761" stroke-linecap="round" fill="none" transform="matrix(1 0 0 1.00003 643.084 361.682)"/><path d="M-68.3867-68.3551C-144.235-39.4268-229.713-52.5945-293.338-103.008" stroke="#94E794" stroke-width="3.47591" stroke-linecap="round" fill="none" transform="matrix(1 0 0 1.00003 643.084 361.682)"/><path d="M71.3456-16.2428C42.4992 23.4997-3.2191 47.5307-52.3117 48.7553" stroke="#A9EAA8" stroke-width="0.567037" stroke-linecap="round" fill="none" transform="matrix(1 0 0 1.00003 643.084 361.682)"/><path d="M92.417-12.855C94.8508 15.5509 86.2533 43.8031 68.4088 66.0381" stroke="#7EE37D" stroke-width="4.46681" stroke-linecap="round" fill="none" transform="matrix(1 0 0 1.00003 643.084 361.682)"/><path d="M70.047-65.3818C54.306-96.2293 52.0874-132.23 63.9214-164.777" stroke="#85E484" stroke-width="4.09956" stroke-linecap="round" fill="none" transform="matrix(1 0 0 1.00003 643.084 361.682)"/><path d="M92.3097-12.8316C103.993 65.2808 73.9 143.804 13.0062 194.103" stroke="#39D837" stroke-width="4.51752" stroke-linecap="round" fill="none" transform="matrix(1 0 0 1.00003 643.084 361.682)"/><path d="M91.2059-69.8272C108.657-140.113 161.032-196.482 229.848-219.042" stroke="#BC3545" stroke-width="3.5835" stroke-linecap="round" fill="none" transform="matrix(1 0 0 1.00003 643.084 361.682)"/><path d="M100.445-15.9251C153.507 89.234 142.985 215.287 73.2225 310.194" stroke="#B51E30" stroke-width="0.976223" stroke-linecap="round" fill="none" transform="matrix(1 0 0 1.00003 643.084 361.682)"/><path d="M66.4094-19.9325C-0.993435 44.946-98.2282 68.2694-187.728 41.0264" stroke="#B01023" stroke-width="5.00757" stroke-linecap="round" fill="none" transform="matrix(1 0 0 1.00003 643.084 361.682)"/><path d="M306.18-106.341C277.76-128.348 259.921-161.305 257.035-197.133" stroke="#A1E9A1" stroke-width="1.55707" stroke-linecap="round" fill="none" transform="matrix(1 0 0 1.00003 643.084 361.682)"/><path d="M313.237 179.539C313.237 193.413 301.99 204.66 288.116 204.66 274.242 204.66 262.995 193.413 262.995 179.539 262.995 165.665 274.242 154.418 288.116 154.418 301.99 154.418 313.237 165.665 313.237 179.539Z" fill="#00B2C2" fill-opacity="0.6" transform="matrix(1 0 0 1.00003 643.084 361.682)"/><path d="M213.752 292.127C213.752 306.001 202.505 317.248 188.631 317.248 174.757 317.248 163.51 306.001 163.51 292.127 163.51 278.253 174.757 267.006 188.631 267.006 202.505 267.006 213.752 278.253 213.752 292.127Z" fill="#F072B3" fill-opacity="0.6" transform="matrix(1 0 0 1.00003 643.084 361.682)"/><path d="M80.0721 332.773C80.0721 346.647 68.8251 357.894 54.9512 357.894 41.0773 357.894 29.8303 346.647 29.8303 332.773 29.8303 318.9 41.0773 307.653 54.9512 307.653 68.8251 307.653 80.0721 318.9 80.0721 332.773Z" fill="#B29F18" fill-opacity="0.6" transform="matrix(1 0 0 1.00003 643.084 361.682)"/><path d="M224.931-107.508C224.931-93.6345 213.684-82.3875 199.81-82.3875 185.936-82.3875 174.689-93.6345 174.689-107.508 174.689-121.382 185.936-132.629 199.81-132.629 213.684-132.629 224.931-121.382 224.931-107.508Z" fill="#00B2C2" fill-opacity="0.6" transform="matrix(1 0 0 1.00003 643.084 361.682)"/><path d="M230.928 43.0959C230.928 56.9698 219.681 68.2168 205.807 68.2168 191.934 68.2168 180.687 56.9698 180.687 43.0959 180.687 29.2221 191.934 17.9751 205.807 17.9751 219.681 17.9751 230.928 29.2221 230.928 43.0959Z" fill="#B29F18" fill-opacity="0.6" transform="matrix(1 0 0 1.00003 643.084 361.682)"/><path d="M283.129-226.163C283.129-212.289 271.882-201.042 258.008-201.042 244.134-201.042 232.887-212.289 232.887-226.163 232.887-240.037 244.134-251.284 258.008-251.284 271.882-251.284 283.129-240.037 283.129-226.163Z" fill="#B29F18" fill-opacity="0.6" transform="matrix(1 0 0 1.00003 643.084 361.682)"/><path d="M-189.874 31.018C-189.874 44.8919-201.121 56.1389-214.995 56.1389-228.869 56.1389-240.116 44.8919-240.116 31.018-240.116 17.1441-228.869 5.89715-214.995 5.89715-201.121 5.89715-189.874 17.1441-189.874 31.018Z" fill="#B29F18" fill-opacity="0.6" transform="matrix(1 0 0 1.00003 643.084 361.682)"/><path d="M-154.305-105.668C-154.305-91.7943-165.552-80.5473-179.426-80.5473-193.3-80.5473-204.547-91.7943-204.547-105.668-204.547-119.542-193.3-130.789-179.426-130.789-165.552-130.789-154.305-119.542-154.305-105.668Z" fill="#00B2C2" fill-opacity="0.6" transform="matrix(1 0 0 1.00003 643.084 361.682)"/><path d="M-289.8-122.448C-289.8-108.574-301.047-97.3268-314.921-97.3268-328.794-97.3268-340.041-108.574-340.041-122.448-340.041-136.321-328.794-147.568-314.921-147.568-301.047-147.568-289.8-136.321-289.8-122.448Z" fill="#B29F18" fill-opacity="0.6" transform="matrix(1 0 0 1.00003 643.084 361.682)"/><path d="M170.619-306.664C170.619-292.791 159.372-281.544 145.498-281.544 131.624-281.544 120.378-292.791 120.378-306.664 120.378-320.538 131.624-331.785 145.498-331.785 159.372-331.785 170.619-320.538 170.619-306.664Z" fill="#00B2C2" fill-opacity="0.6" transform="matrix(1 0 0 1.00003 643.084 361.682)"/><path d="M-213.856-237.095C-213.856-223.221-225.103-211.974-238.977-211.974-252.85-211.974-264.097-223.221-264.097-237.095-264.097-250.969-252.85-262.216-238.977-262.216-225.103-262.216-213.856-250.969-213.856-237.095Z" fill="#00B2C2" fill-opacity="0.6" transform="matrix(1 0 0 1.00003 643.084 361.682)"/><path d="M-105.106-321.558C-105.106-307.684-116.353-296.437-130.227-296.437-144.101-296.437-155.348-307.684-155.348-321.558-155.348-335.431-144.101-346.678-130.227-346.678-116.353-346.678-105.106-335.431-105.106-321.558Z" fill="#B29F18" fill-opacity="0.6" transform="matrix(1 0 0 1.00003 643.084 361.682)"/><path d="M-42.0966-209.41C-42.0966-195.536-53.3435-184.289-67.2174-184.289-81.0913-184.289-92.3383-195.536-92.3383-209.41-92.3383-223.284-81.0913-234.531-67.2174-234.531-53.3436-234.531-42.0966-223.284-42.0966-209.41Z" fill="#B29F18" fill-opacity="0.6" transform="matrix(1 0 0 1.00003 643.084 361.682)"/><path d="M363.42 48.0449C363.42 61.9187 352.173 73.1657 338.299 73.1657 324.425 73.1657 313.178 61.9187 313.178 48.0449 313.178 34.171 324.425 22.924 338.299 22.924 352.173 22.924 363.42 34.171 363.42 48.0449Z" fill="#00B2C2" fill-opacity="0.6" transform="matrix(1 0 0 1.00003 643.084 361.682)"/><path d="M-119.818 165.211C-119.818 179.085-131.065 190.332-144.939 190.332-158.812 190.332-170.059 179.085-170.059 165.211-170.059 151.337-158.812 140.09-144.939 140.09-131.065 140.09-119.818 151.337-119.818 165.211Z" fill="#00B2C2" fill-opacity="0.6" transform="matrix(1 0 0 1.00003 643.084 361.682)"/><path d="M-276.652 152.859C-276.652 166.733-287.899 177.98-301.772 177.98-315.646 177.98-326.893 166.733-326.893 152.859-326.893 138.986-315.646 127.739-301.772 127.739-287.899 127.739-276.652 138.986-276.652 152.859Z" fill="#F072B3" fill-opacity="0.6" transform="matrix(1 0 0 1.00003 643.084 361.682)"/><path d="M-319.665 14.376C-319.665 28.2499-330.912 39.4969-344.786 39.4969-358.659 39.4969-369.906 28.2499-369.906 14.376-369.906 0.502142-358.659-10.7448-344.786-10.7448-330.912-10.7448-319.665 0.502143-319.665 14.376Z" fill="#F072B3" fill-opacity="0.6" transform="matrix(1 0 0 1.00003 643.084 361.682)"/><path d="M167.38 174.949C167.38 188.823 156.133 200.07 142.259 200.07 128.385 200.07 117.138 188.823 117.138 174.949 117.138 161.076 128.385 149.829 142.259 149.829 156.133 149.829 167.38 161.076 167.38 174.949Z" fill="#00B2C2" fill-opacity="0.6" transform="matrix(1 0 0 1.00003 643.084 361.682)"/><path d="M-62.0897 328.361C-62.0897 342.235-73.3367 353.482-87.2105 353.482-101.084 353.482-112.331 342.235-112.331 328.361-112.331 314.487-101.084 303.24-87.2105 303.24-73.3367 303.24-62.0897 314.487-62.0897 328.361Z" fill="#00B2C2" fill-opacity="0.6" transform="matrix(1 0 0 1.00003 643.084 361.682)"/><path d="M14.5866 211.118C14.5866 224.992 3.33957 236.239-10.5343 236.239-24.4082 236.239-35.6551 224.992-35.6551 211.118-35.6551 197.245-24.4082 185.998-10.5343 185.998 3.33957 185.998 14.5866 197.245 14.5866 211.118Z" fill="#B29F18" fill-opacity="0.6" transform="matrix(1 0 0 1.00003 643.084 361.682)"/><path d="M37.5339-336.389C37.5339-322.516 26.2869-311.269 12.4131-311.269-1.4608-311.269-12.7078-322.516-12.7078-336.389-12.7078-350.263-1.4608-361.51 12.4131-361.51 26.2869-361.51 37.5339-350.263 37.5339-336.389Z" fill="#00B2C2" fill-opacity="0.6" transform="matrix(1 0 0 1.00003 643.084 361.682)"/><path d="M-191.982 270.148C-191.982 284.022-203.229 295.269-217.103 295.269-230.977 295.269-242.224 284.022-242.224 270.148-242.224 256.274-230.977 245.027-217.103 245.027-203.229 245.027-191.982 256.274-191.982 270.148Z" fill="#00B2C2" fill-opacity="0.6" transform="matrix(1 0 0 1.00003 643.084 361.682)"/><path d="M-16.834-80.3978C-16.834-66.524-28.081-55.277-41.9549-55.277-55.8287-55.277-67.0757-66.524-67.0757-80.3978-67.0757-94.2717-55.8287-105.519-41.9549-105.519-28.081-105.519-16.834-94.2717-16.834-80.3978Z" fill="#00B2C2" fill-opacity="0.6" transform="matrix(1 0 0 1.00003 643.084 361.682)"/><path d="M-56.1711 46.8017C-56.1711 60.6755-67.418 71.9225-81.2919 71.9225-95.1658 71.9225-106.413 60.6755-106.413 46.8017-106.413 32.9278-95.1658 21.6808-81.2919 21.6808-67.418 21.6808-56.171 32.9278-56.1711 46.8017Z" fill="#F072B3" fill-opacity="0.6" transform="matrix(1 0 0 1.00003 643.084 361.682)"/><path d="M72.5402 86.1157C72.5402 99.9896 61.2932 111.237 47.4193 111.237 33.5455 111.237 22.2985 99.9896 22.2985 86.1157 22.2985 72.2418 33.5455 60.9948 47.4193 60.9948 61.2932 60.9948 72.5402 72.2418 72.5402 86.1157Z" fill="#F072B3" fill-opacity="0.6" transform="matrix(1 0 0 1.00003 643.084 361.682)"/><path d="M102.076-190.734C102.076-176.86 90.8291-165.613 76.9553-165.613 63.0814-165.613 51.8344-176.86 51.8344-190.734 51.8344-204.608 63.0814-215.855 76.9553-215.855 90.8291-215.855 102.076-204.608 102.076-190.734Z" fill="#F072B3" fill-opacity="0.6" transform="matrix(1 0 0 1.00003 643.084 361.682)"/><path d="M111.29-41.2212C111.29-27.3473 100.043-16.1003 86.1695-16.1003 72.2957-16.1003 61.0487-27.3473 61.0487-41.2212 61.0487-55.0951 72.2957-66.342 86.1695-66.342 100.043-66.342 111.29-55.0951 111.29-41.2212Z" fill="#00B2C2" fill-opacity="0.6" transform="matrix(1 0 0 1.00003 643.084 361.682)"/><path d="M356.138-91.2816C356.138-77.4078 344.891-66.1608 331.017-66.1608 317.143-66.1608 305.896-77.4078 305.896-91.2816 305.896-105.156 317.143-116.402 331.017-116.402 344.891-116.402 356.138-105.156 356.138-91.2816Z" fill="#00B2C2" fill-opacity="0.6" transform="matrix(1 0 0 1.00003 643.084 361.682)"/></g></g></g><text font-family="Times New Roman,Times New Roman_MSFontService,sans-serif" font-weight="400" font-size="24" transform="translate(302.17 525)">Ⅲ</text><text font-family="Times New Roman,Times New Roman_MSFontService,sans-serif" font-weight="400" font-size="24" transform="translate(325.17 525)">-</text><text font-family="Times New Roman,Times New Roman_MSFontService,sans-serif" font-weight="400" font-size="24" transform="translate(333.17 525)">Area</text><text font-family="Times New Roman,Times New Roman_MSFontService,sans-serif" font-style="italic" font-weight="400" font-size="24" transform="translate(747.623 262)">Archaeal 16S rRNA</text><text font-family="Times New Roman,Times New Roman_MSFontService,sans-serif" font-style="italic" font-weight="400" font-size="24" transform="translate(823.003 550)">Bacterial 16S rRNA</text><text font-family="Times New Roman,Times New Roman_MSFontService,sans-serif" font-style="italic" font-weight="400" font-size="24" transform="translate(473.3 534)">napA</text><text font-family="Times New Roman,Times New Roman_MSFontService,sans-serif" font-style="italic" font-weight="400" font-size="24" transform="translate(730.131 63)">AOB_amoA</text><text font-family="Cambria Math,Cambria Math_MSFontService,sans-serif" font-weight="400" font-size="24" transform="translate(404.719 400)">N</text><text font-family="Cambria Math,Cambria Math_MSFontService,sans-serif" font-weight="400" font-size="24" transform="translate(421.052 400)">H</text><text font-family="Cambria Math,Cambria Math_MSFontService,sans-serif" font-weight="400" font-size="18" transform="translate(437.552 405)">4</text><text font-family="Cambria Math,Cambria Math_MSFontService,sans-serif" font-weight="400" font-size="18" transform="translate(438.312 391)">+</text><text font-family="Times New Roman,Times New Roman_MSFontService,sans-serif" font-style="italic" font-weight="400" font-size="24" transform="translate(956.823 417)">narG</text><text font-family="Times New Roman,Times New Roman_MSFontService,sans-serif" font-style="italic" font-weight="400" font-size="24" transform="translate(951.576 278)">nifH</text><text font-family="Times New Roman,Times New Roman_MSFontService,sans-serif" font-weight="400" font-size="24" transform="translate(886.125 144)">TN</text><text font-family="Times New Roman,Times New Roman_MSFontService,sans-serif" font-weight="400" font-size="24" transform="translate(835.424 411)">pH</text><text font-family="Times New Roman,Times New Roman_MSFontService,sans-serif" font-weight="400" font-size="24" transform="translate(805 662)">S</text><text font-family="Times New Roman,Times New Roman_MSFontService,sans-serif" font-weight="400" font-size="24" transform="translate(818.333 662)">-</text><text font-family="Times New Roman,Times New Roman_MSFontService,sans-serif" font-weight="400" font-size="24" transform="translate(826.333 662)">TN</text><text font-family="Times New Roman,Times New Roman_MSFontService,sans-serif" font-style="italic" font-weight="400" font-size="24" transform="translate(761.128 544)">nirK</text><text font-family="Cambria Math,Cambria Math_MSFontService,sans-serif" font-weight="400" font-size="24" transform="translate(676.637 701)">N</text><text font-family="Cambria Math,Cambria Math_MSFontService,sans-serif" font-weight="400" font-size="24" transform="translate(692.97 701)">O</text><text font-family="Cambria Math,Cambria Math_MSFontService,sans-serif" font-weight="400" font-size="18" transform="translate(708.637 707)">2</text><text font-family="Cambria Math,Cambria Math_MSFontService,sans-serif" font-weight="400" font-size="18" transform="translate(708.637 692)">−</text><text font-family="Times New Roman,Times New Roman_MSFontService,sans-serif" font-style="italic" font-weight="400" font-size="24" transform="translate(535.325 698)">nirS</text><text font-family="Times New Roman,Times New Roman_MSFontService,sans-serif" font-style="italic" font-weight="400" font-size="24" transform="translate(403.206 639)">hzsA</text><text font-family="Times New Roman,Times New Roman_MSFontService,sans-serif" font-style="italic" font-weight="400" font-size="24" transform="translate(712.366 327)">hzo</text><text font-family="Times New Roman,Times New Roman_MSFontService,sans-serif" font-style="italic" font-weight="400" font-size="24" transform="translate(578.913 289)">hzsB</text><text font-family="Times New Roman,Times New Roman_MSFontService,sans-serif" font-style="italic" font-weight="400" font-size="24" transform="translate(408.003 263)">AOA_</text><text font-family="Times New Roman,Times New Roman_MSFontService,sans-serif" font-style="italic" font-weight="400" font-size="24" transform="translate(466.669 263)">amoA</text><text font-family="Times New Roman,Times New Roman_MSFontService,sans-serif" font-style="italic" font-weight="400" font-size="24" transform="translate(631.906 33)">norB</text><text font-family="Times New Roman,Times New Roman_MSFontService,sans-serif" font-style="italic" font-weight="400" font-size="24" transform="translate(380.962 132)">nxrA</text><text font-family="Times New Roman,Times New Roman_MSFontService,sans-serif" font-weight="400" font-size="24" transform="translate(568.763 161)">T</text><text font-family="Cambria Math,Cambria Math_MSFontService,sans-serif" font-weight="400" font-size="24" transform="translate(491.185 47)">N</text><text font-family="Cambria Math,Cambria Math_MSFontService,sans-serif" font-weight="400" font-size="24" transform="translate(507.518 47)">O</text><text font-family="Cambria Math,Cambria Math_MSFontService,sans-serif" font-weight="400" font-size="18" transform="translate(523.185 52)">3</text><text font-family="Cambria Math,Cambria Math_MSFontService,sans-serif" font-weight="400" font-size="18" transform="translate(523.185 38)">−</text><text font-family="Times New Roman,Times New Roman_MSFontService,sans-serif" font-weight="400" font-size="24" transform="translate(303.214 247)">COD</text><text font-family="Times New Roman,Times New Roman_MSFontService,sans-serif" font-weight="400" font-size="24" transform="translate(528.532 417)">Ⅰ</text><text font-family="Times New Roman,Times New Roman_MSFontService,sans-serif" font-weight="400" font-size="24" transform="translate(536.532 417)">-</text><text font-family="Times New Roman,Times New Roman_MSFontService,sans-serif" font-weight="400" font-size="24" transform="translate(544.532 417)">Area</text><text font-family="Times New Roman,Times New Roman_MSFontService,sans-serif" font-weight="400" font-size="24" transform="translate(651.168 455)">Ⅱ</text><text font-family="Times New Roman,Times New Roman_MSFontService,sans-serif" font-weight="400" font-size="24" transform="translate(666.668 455)">-</text><text font-family="Times New Roman,Times New Roman_MSFontService,sans-serif" font-weight="400" font-size="24" transform="translate(674.668 455)">Area</text><text font-family="Times New Roman,Times New Roman_MSFontService,sans-serif" font-weight="400" font-size="24" transform="translate(261.77 384)">Ⅴ</text><text font-family="Times New Roman,Times New Roman_MSFontService,sans-serif" font-weight="400" font-size="24" transform="translate(279.104 384)">-</text><text font-family="Times New Roman,Times New Roman_MSFontService,sans-serif" font-weight="400" font-size="24" transform="translate(287.104 384)">Area</text><text font-family="Times New Roman,Times New Roman_MSFontService,sans-serif" font-weight="400" font-size="24" transform="translate(681.976 180)">Ⅳ</text><text font-family="Times New Roman,Times New Roman_MSFontService,sans-serif" font-weight="400" font-size="24" transform="translate(707.143 180)">-</text><text font-family="Times New Roman,Times New Roman_MSFontService,sans-serif" font-weight="400" font-size="24" transform="translate(715.143 180)">Area</text><text font-family="Times New Roman,Times New Roman_MSFontService,sans-serif" font-weight="400" font-size="24" transform="translate(615.562 581)">DO</text></g></svg>