<svg width="1280" height="720" xmlns="http://www.w3.org/2000/svg" xmlns:xlink="http://www.w3.org/1999/xlink" overflow="hidden"><defs><clipPath id="clip0"><rect x="0" y="0" width="1280" height="720"/></clipPath><clipPath id="clip1"><rect x="289" y="0" width="702" height="720"/></clipPath><clipPath id="clip2"><rect x="289" y="0" width="702" height="721"/></clipPath><clipPath id="clip3"><rect x="289" y="0" width="702" height="721"/></clipPath></defs><g clip-path="url(#clip0)"><rect x="0" y="0" width="1280" height="720" fill="#FFFFFF"/><g clip-path="url(#clip1)"><g clip-path="url(#clip2)"><g clip-path="url(#clip3)"><path d="M209.641 216.587C185.099 181.747 177.561 137.705 189.119 96.6865" stroke="#B41C2E" stroke-width="4.69142" stroke-linecap="round" fill="none" transform="matrix(1 0 0 1.00083 640.272 359.184)"/><path d="M214.129 262.359C195.976 286.629 168.878 302.64 138.861 306.832" stroke="#C14553" stroke-width="3.62229" stroke-linecap="round" fill="none" transform="matrix(1 0 0 1.00083 640.272 359.184)"/><path d="M83.7763-287.798C63.4839-249.555 26.9664-222.556-15.5457-214.366" stroke="#6DE16B" stroke-width="2.40804" stroke-linecap="round" fill="none" transform="matrix(1 0 0 1.00083 640.272 359.184)"/><path d="M-27.1516-309.751C-18.6834-285.767-19.4323-259.491-29.253-236.028" stroke="#02D000" stroke-width="4.89388" stroke-linecap="round" fill="none" transform="matrix(1 0 0 1.00083 640.272 359.184)"/><path d="M-329.326-94.1417C-328.392-123.675-315.813-151.639-294.334-171.931" stroke="#B51E30" stroke-width="4.66847" stroke-linecap="round" fill="none" transform="matrix(1 0 0 1.00083 640.272 359.184)"/><path d="M-311.689-42.2459C-296.6-10.761-295.474 25.6243-308.589 57.9814" stroke="#C9626E" stroke-width="1.55119" stroke-linecap="round" fill="none" transform="matrix(1 0 0 1.00083 640.272 359.184)"/><path d="M308.143-30.6839C291.432-56.4387 285.763-87.8256 292.409-117.799" stroke="#64DF63" stroke-width="3.05201" stroke-linecap="round" stroke-opacity="0.996078" fill="none" transform="matrix(1 0 0 1.00083 640.272 359.184)"/><path d="M-184.275 283.708C-212.909 275.283-237.023 255.83-251.316 229.628" stroke="#C55562" stroke-width="2.67946" stroke-linecap="round" fill="none" transform="matrix(1 0 0 1.00083 640.272 359.184)"/><path d="M-128.787 283.024C-95.9398 280.808-63.6324 292.236-39.484 314.613" stroke="#C04251" stroke-width="3.74947" stroke-linecap="round" fill="none" transform="matrix(1 0 0 1.00083 640.272 359.184)"/><path d="M-153.776 260.179C-142.023 188.903-94.2222 128.785-27.4276 101.275" stroke="#32D730" stroke-width="4.68533" stroke-linecap="round" stroke-opacity="0.996078" fill="none" transform="matrix(1 0 0 1.00083 640.272 359.184)"/><path d="M281.602 129.055C255.752 126.152 231.932 113.652 214.856 94.0292" stroke="#C34B59" stroke-width="3.28907" stroke-linecap="round" fill="none" transform="matrix(1 0 0 1.00083 640.272 359.184)"/><path d="M293.613 105.295C251.601 36.5494 249.108-49.296 287.061-120.363" stroke="#C65865" stroke-width="2.42711" stroke-linecap="round" fill="none" transform="matrix(1 0 0 1.00083 640.272 359.184)"/><path d="M302.561 155.604C277.698 230.214 215.375 286.212 138.541 302.982" stroke="#BA3040" stroke-width="4.35258" stroke-linecap="round" fill="none" transform="matrix(1 0 0 1.00083 640.272 359.184)"/><path d="M91.144 150.354C68.1519 112.805 63.5003 66.8331 78.5048 25.4398" stroke="#C24856" stroke-width="3.47226" stroke-linecap="round" fill="none" transform="matrix(1 0 0 1.00083 640.272 359.184)"/><path d="M122.52 197.038C134.339 224.188 134.928 254.913 124.159 282.497" stroke="#55DD54" stroke-width="3.81407" stroke-linecap="round" fill="none" transform="matrix(1 0 0 1.00083 640.272 359.184)"/><path d="M80.151 169.501C51.0799 162.273 26.077 143.781 10.6549 118.1" stroke="#0BD109" stroke-width="4.8837" stroke-linecap="round" fill="none" transform="matrix(1 0 0 1.00083 640.272 359.184)"/><path d="M287.809-119.917C271.719-99.0373 248.34-84.9999 222.348-80.6115" stroke="#0BD109" stroke-width="4.05597" stroke-linecap="round" fill="none" transform="matrix(1 0 0 1.00083 640.272 359.184)"/><path d="M-37.1552 185.057C-35.0779 113.688 3.69305 48.4466 65.387 12.5056" stroke="#4FDC4E" stroke-width="4.05597" stroke-linecap="round" fill="none" transform="matrix(1 0 0 1.00083 640.272 359.184)"/><path d="M-42.3239 185.742C-44.7019 159.354-37.0099 133.042-20.7922 112.09" stroke="#AC0014" stroke-width="4.86392" stroke-linecap="round" fill="none" transform="matrix(1 0 0 1.00083 640.272 359.184)"/><path d="M112.812-202.312C130.418-226.945 157.134-243.526 187.022-248.37" stroke="#CB6671" stroke-width="1.11594" stroke-linecap="round" fill="none" transform="matrix(1 0 0 1.00083 640.272 359.184)"/><path d="M79.2333-157.88C21.4278-108.418-58.0418-92.8014-130.266-116.712" stroke="#C04452" stroke-width="3.66665" stroke-linecap="round" fill="none" transform="matrix(1 0 0 1.00083 640.272 359.184)"/><path d="M71.9613-171.189C-13.355-156.632-99.9224-188.968-154.801-255.895" stroke="#BC3645" stroke-width="4.20773" stroke-linecap="round" fill="none" transform="matrix(1 0 0 1.00083 640.272 359.184)"/><path d="M89.7438-151.083C76.1889-124.8 52.7847-104.95 24.6426-95.8656" stroke="#B82A3A" stroke-width="4.48921" stroke-linecap="round" fill="none" transform="matrix(1 0 0 1.00083 640.272 359.184)"/><path d="M125.363-188.471C178.215-205.75 236.17-196.245 280.734-162.988" stroke="#67E066" stroke-width="2.81667" stroke-linecap="round" fill="none" transform="matrix(1 0 0 1.00083 640.272 359.184)"/><path d="M112.881-152.809C130.768-110.939 128.409-63.1701 106.484-23.2663" stroke="#C55562" stroke-width="2.6719" stroke-linecap="round" fill="none" transform="matrix(1 0 0 1.00083 640.272 359.184)"/><path d="M105.81-150.114C120.443-65.2547 88.4667 20.9364 22.0284 75.7185" stroke="#4CDB4A" stroke-width="4.16568" stroke-linecap="round" fill="none" transform="matrix(1 0 0 1.00083 640.272 359.184)"/><path d="M72.4381-169.399C38.7439-163.335 4.04927-171.644-23.243-192.312" stroke="#6AE069" stroke-width="2.61503" stroke-linecap="round" fill="none" transform="matrix(1 0 0 1.00083 640.272 359.184)"/><path d="M-117.032-13.5166C-142.078-35.1336-157.08-66.1376-158.489-99.1921" stroke="#7FE47E" stroke-width="0.489388" stroke-linecap="round" fill="none" transform="matrix(1 0 0 1.00083 640.272 359.184)"/><path d="M-114.952-16.224C-177.514-77.3286-202.398-167.346-180.105-251.908" stroke="#52DC51" stroke-width="3.94114" stroke-linecap="round" stroke-opacity="0.996078" fill="none" transform="matrix(1 0 0 1.00083 640.272 359.184)"/><path d="M-86.4487-24.9633C-75.8158-50.7761-55.6152-71.4788-30.0711-82.7422" stroke="#5ADE58" stroke-width="3.61608" stroke-linecap="round" fill="none" transform="matrix(1 0 0 1.00083 640.272 359.184)"/><path d="M-69.8878-12.7975C-27.1843-34.5983 23.2493-35.2104 66.4693-14.4525" stroke="#0BD109" stroke-width="4.88415" stroke-linecap="round" fill="none" transform="matrix(1 0 0 1.00083 640.272 359.184)"/><path d="M-90.9409 30.2878C-91.5984 63.3072-105.859 94.5903-130.353 116.743" stroke="#C55461" stroke-width="2.71025" stroke-linecap="round" fill="none" transform="matrix(1 0 0 1.00083 640.272 359.184)"/><path d="M-67.5678 12.7797C37.3826 60.7806 106.393 163.754 110.895 279.072" stroke="#BE3C4B" stroke-width="3.99496" stroke-linecap="round" fill="none" transform="matrix(1 0 0 1.00083 640.272 359.184)"/><path d="M-66.4528 9.41444C-40.7311 19.9243-20.0565 39.9537-8.73672 65.3294" stroke="#B92D3E" stroke-width="4.41978" stroke-linecap="round" fill="none" transform="matrix(1 0 0 1.00083 640.272 359.184)"/><path d="M-196.419 18.8348C-170.271 40.1018-154.147 71.2875-151.913 104.918" stroke="#CA636F" stroke-width="1.37466" stroke-linecap="round" fill="none" transform="matrix(1 0 0 1.00083 640.272 359.184)"/><path d="M252.434 237.886C252.434 251.34 241.527 262.246 228.073 262.246 214.619 262.246 203.712 251.34 203.712 237.886 203.712 224.432 214.619 213.525 228.073 213.525 241.527 213.525 252.434 224.432 252.434 237.886Z" fill="#00B2C2" fill-opacity="0.6" transform="matrix(1 0 0 1.00083 640.272 359.184)"/><path d="M223.778 70.4698C223.778 83.9238 212.872 94.8305 199.418 94.8305 185.964 94.8305 175.057 83.9238 175.057 70.4698 175.057 57.0158 185.964 46.1092 199.418 46.1092 212.872 46.1092 223.778 57.0158 223.778 70.4698Z" fill="#F072B3" fill-opacity="0.6" transform="matrix(1 0 0 1.00083 640.272 359.184)"/><path d="M135.058 307.239C135.058 320.693 124.151 331.599 110.697 331.599 97.2431 331.599 86.3365 320.693 86.3365 307.239 86.3365 293.785 97.2431 282.878 110.697 282.878 124.151 282.878 135.058 293.785 135.058 307.239Z" fill="#B29F18" fill-opacity="0.6" transform="matrix(1 0 0 1.00083 640.272 359.184)"/><path d="M218.556-79.7033C218.556-66.2493 207.649-55.3427 194.195-55.3427 180.741-55.3427 169.835-66.2493 169.835-79.7033 169.835-93.1573 180.741-104.064 194.195-104.064 207.649-104.064 218.556-93.1573 218.556-79.7033Z" fill="#00B2C2" fill-opacity="0.6" transform="matrix(1 0 0 1.00083 640.272 359.184)"/><path d="M239.531-249.392C239.531-235.938 228.624-225.032 215.17-225.032 201.716-225.032 190.81-235.938 190.81-249.392 190.81-262.846 201.716-273.753 215.17-273.753 228.624-273.753 239.531-262.846 239.531-249.392Z" fill="#F072B3" fill-opacity="0.6" transform="matrix(1 0 0 1.00083 640.272 359.184)"/><path d="M326.204-144.339C326.204-130.885 315.297-119.979 301.843-119.979 288.389-119.979 277.482-130.885 277.482-144.339 277.482-157.793 288.389-168.7 301.843-168.7 315.297-168.7 326.204-157.793 326.204-144.339Z" fill="#B29F18" fill-opacity="0.6" transform="matrix(1 0 0 1.00083 640.272 359.184)"/><path d="M-128.959 133.05C-128.959 146.504-139.866 157.411-153.32 157.411-166.774 157.411-177.681 146.504-177.681 133.05-177.681 119.596-166.774 108.69-153.32 108.69-139.866 108.69-128.959 119.596-128.959 133.05Z" fill="#B29F18" fill-opacity="0.6" transform="matrix(1 0 0 1.00083 640.272 359.184)"/><path d="M23.6425 92.331C23.6425 105.785 12.7358 116.692-0.718197 116.692-14.1722 116.692-25.0788 105.785-25.0788 92.331-25.0788 78.8769-14.1722 67.9703-0.718196 67.9703 12.7358 67.9703 23.6425 78.8769 23.6425 92.331Z" fill="#B29F18" fill-opacity="0.6" transform="matrix(1 0 0 1.00083 640.272 359.184)"/><path d="M118.826-313.858C118.826-300.404 107.919-289.498 94.4654-289.498 81.0114-289.498 70.1047-300.404 70.1047-313.858 70.1047-327.313 81.0114-338.219 94.4654-338.219 107.919-338.219 118.826-327.313 118.826-313.858Z" fill="#00B2C2" fill-opacity="0.6" transform="matrix(1 0 0 1.00083 640.272 359.184)"/><path d="M-19.2336-211.786C-19.2336-198.332-30.1403-187.425-43.5943-187.425-57.0483-187.425-67.9549-198.332-67.9549-211.786-67.9549-225.24-57.0483-236.146-43.5943-236.146-30.1403-236.146-19.2336-225.24-19.2336-211.786Z" fill="#B29F18" fill-opacity="0.6" transform="matrix(1 0 0 1.00083 640.272 359.184)"/><path d="M-15.7281-334.771C-15.7281-321.317-26.6348-310.41-40.0888-310.41-53.5428-310.41-64.4494-321.317-64.4494-334.771-64.4494-348.225-53.5428-359.132-40.0888-359.132-26.6348-359.132-15.7281-348.225-15.7281-334.771Z" fill="#00B2C2" fill-opacity="0.6" transform="matrix(1 0 0 1.00083 640.272 359.184)"/><path d="M-302.306-66.1006C-302.306-52.6466-313.212-41.7399-326.666-41.7399-340.12-41.7399-351.027-52.6466-351.027-66.1006-351.027-79.5546-340.12-90.4612-326.666-90.4612-313.212-90.4612-302.306-79.5546-302.306-66.1006Z" fill="#00B2C2" fill-opacity="0.6" transform="matrix(1 0 0 1.00083 640.272 359.184)"/><path d="M-247.227-188.544C-247.227-175.09-258.134-164.183-271.588-164.183-285.042-164.183-295.949-175.09-295.949-188.544-295.949-201.998-285.042-212.904-271.588-212.904-258.134-212.904-247.227-201.998-247.227-188.544Z" fill="#B29F18" fill-opacity="0.6" transform="matrix(1 0 0 1.00083 640.272 359.184)"/><path d="M-297.703 82.716C-297.703 96.17-308.61 107.077-322.064 107.077-335.518 107.077-346.425 96.17-346.425 82.716-346.425 69.262-335.518 58.3554-322.064 58.3554-308.61 58.3554-297.703 69.262-297.703 82.716Z" fill="#B29F18" fill-opacity="0.6" transform="matrix(1 0 0 1.00083 640.272 359.184)"/><path d="M350.625-9.12018C350.625 4.33383 339.719 15.2405 326.265 15.2405 312.811 15.2405 301.904 4.33383 301.904-9.12018 301.904-22.5742 312.811-33.4808 326.265-33.4808 339.719-33.4808 350.625-22.5742 350.625-9.12018Z" fill="#00B2C2" fill-opacity="0.6" transform="matrix(1 0 0 1.00083 640.272 359.184)"/><path d="M-132.111 288.217C-132.111 301.671-143.018 312.577-156.472 312.577-169.926 312.577-180.832 301.671-180.832 288.217-180.832 274.763-169.926 263.856-156.472 263.856-143.018 263.856-132.111 274.763-132.111 288.217Z" fill="#00B2C2" fill-opacity="0.6" transform="matrix(1 0 0 1.00083 640.272 359.184)"/><path d="M-237.245 203.407C-237.245 216.861-248.151 227.768-261.605 227.768-275.059 227.768-285.966 216.861-285.966 203.407-285.966 189.953-275.059 179.046-261.605 179.046-248.151 179.046-237.245 189.953-237.245 203.407Z" fill="#F072B3" fill-opacity="0.6" transform="matrix(1 0 0 1.00083 640.272 359.184)"/><path d="M3.13784 336.059C3.13784 349.513-7.7688 360.419-21.2228 360.419-34.6768 360.419-45.5835 349.513-45.5835 336.059-45.5835 322.605-34.6768 311.698-21.2228 311.698-7.7688 311.698 3.13784 322.605 3.13784 336.059Z" fill="#F072B3" fill-opacity="0.6" transform="matrix(1 0 0 1.00083 640.272 359.184)"/><path d="M334.122 128.373C334.122 141.827 323.215 152.734 309.761 152.734 296.307 152.734 285.401 141.827 285.401 128.373 285.401 114.919 296.307 104.012 309.761 104.012 323.215 104.012 334.122 114.919 334.122 128.373Z" fill="#00B2C2" fill-opacity="0.6" transform="matrix(1 0 0 1.00083 640.272 359.184)"/><path d="M132.481 172.83C132.481 186.284 121.574 197.191 108.12 197.191 94.6664 197.191 83.7598 186.284 83.7598 172.83 83.7598 159.376 94.6664 148.47 108.12 148.47 121.574 148.47 132.481 159.376 132.481 172.83Z" fill="#00B2C2" fill-opacity="0.6" transform="matrix(1 0 0 1.00083 640.272 359.184)"/><path d="M114.995 0.0185321C114.995 13.4725 104.089 24.3792 90.6348 24.3792 77.1808 24.3792 66.2742 13.4725 66.2742 0.0185314 66.2742-13.4355 77.1808-24.3421 90.6348-24.3421 104.089-24.3421 114.995-13.4355 114.995 0.0185321Z" fill="#B29F18" fill-opacity="0.6" transform="matrix(1 0 0 1.00083 640.272 359.184)"/><path d="M-11.6934 213.203C-11.6934 226.657-22.6 237.563-36.0541 237.563-49.5081 237.563-60.4147 226.657-60.4147 213.203-60.4147 199.749-49.5081 188.842-36.0541 188.842-22.6 188.842-11.6934 199.749-11.6934 213.203Z" fill="#00B2C2" fill-opacity="0.6" transform="matrix(1 0 0 1.00083 640.272 359.184)"/><path d="M123.763-177.542C123.763-164.088 112.857-153.181 99.4025-153.181 85.9485-153.181 75.0418-164.088 75.0418-177.542 75.0418-190.996 85.9485-201.903 99.4025-201.903 112.857-201.903 123.763-190.996 123.763-177.542Z" fill="#00B2C2" fill-opacity="0.6" transform="matrix(1 0 0 1.00083 640.272 359.184)"/><path d="M-132.015-127.28C-132.015-113.826-142.921-102.919-156.375-102.919-169.829-102.919-180.736-113.826-180.736-127.28-180.736-140.734-169.829-151.64-156.375-151.64-142.921-151.64-132.015-140.734-132.015-127.28Z" fill="#F072B3" fill-opacity="0.6" transform="matrix(1 0 0 1.00083 640.272 359.184)"/><path d="M-146.996-278.682C-146.996-265.228-157.903-254.322-171.357-254.322-184.811-254.322-195.718-265.228-195.718-278.682-195.718-292.136-184.811-303.043-171.357-303.043-157.903-303.043-146.996-292.136-146.996-278.682Z" fill="#F072B3" fill-opacity="0.6" transform="matrix(1 0 0 1.00083 640.272 359.184)"/><path d="M21.3225-90.6544C21.3225-77.2004 10.4159-66.2937-3.03816-66.2937-16.4922-66.2937-27.3988-77.2004-27.3988-90.6544-27.3988-104.108-16.4922-115.015-3.03816-115.015 10.4159-115.015 21.3225-104.108 21.3225-90.6544Z" fill="#F072B3" fill-opacity="0.6" transform="matrix(1 0 0 1.00083 640.272 359.184)"/><path d="M-69.3343 2.25572C-69.3343 15.7097-80.2409 26.6164-93.6949 26.6164-107.149 26.6164-118.056 15.7097-118.056 2.25572-118.056-11.1983-107.149-22.1049-93.6949-22.1049-80.2409-22.1049-69.3343-11.1983-69.3343 2.25572Z" fill="#00B2C2" fill-opacity="0.6" transform="matrix(1 0 0 1.00083 640.272 359.184)"/><path d="M-195.826 3.71887C-195.826 17.1729-206.732 28.0795-220.186 28.0795-233.641 28.0795-244.547 17.1729-244.547 3.71887-244.547-9.73514-233.64-20.6418-220.186-20.6418-206.732-20.6418-195.826-9.73514-195.826 3.71887Z" fill="#00B2C2" fill-opacity="0.6" transform="matrix(1 0 0 1.00083 640.272 359.184)"/></g></g></g><text font-family="Times New Roman,Times New Roman_MSFontService,sans-serif" font-style="italic" font-weight="400" font-size="24" transform="translate(740.628 287)">Archaeal 16S rRNA</text><text font-family="Times New Roman,Times New Roman_MSFontService,sans-serif" font-style="italic" font-weight="400" font-size="24" transform="translate(769.841 609)">Bacterial 16S rRNA</text><text font-family="Times New Roman,Times New Roman_MSFontService,sans-serif" font-style="italic" font-weight="400" font-size="24" transform="translate(679.187 51)">AOA_</text><text font-family="Times New Roman,Times New Roman_MSFontService,sans-serif" font-style="italic" font-weight="400" font-size="24" transform="translate(737.854 51)">amoA</text><text font-family="Cambria Math,Cambria Math_MSFontService,sans-serif" font-weight="400" font-size="24" transform="translate(728.39 675)">N</text><text font-family="Cambria Math,Cambria Math_MSFontService,sans-serif" font-weight="400" font-size="24" transform="translate(744.723 675)">O</text><text font-family="Cambria Math,Cambria Math_MSFontService,sans-serif" font-weight="400" font-size="18" transform="translate(760.39 680)">2</text><text font-family="Cambria Math,Cambria Math_MSFontService,sans-serif" font-weight="400" font-size="18" transform="translate(760.39 666)">−</text><text font-family="Times New Roman,Times New Roman_MSFontService,sans-serif" font-weight="400" font-size="24" transform="translate(342.554 570)">Ⅲ</text><text font-family="Times New Roman,Times New Roman_MSFontService,sans-serif" font-weight="400" font-size="24" transform="translate(365.554 570)">-</text><text font-family="Times New Roman,Times New Roman_MSFontService,sans-serif" font-weight="400" font-size="24" transform="translate(373.554 570)">Area</text><text font-family="Times New Roman,Times New Roman_MSFontService,sans-serif" font-weight="400" font-size="24" transform="translate(583.298 704)">Ⅴ</text><text font-family="Times New Roman,Times New Roman_MSFontService,sans-serif" font-weight="400" font-size="24" transform="translate(600.631 704)">-</text><text font-family="Times New Roman,Times New Roman_MSFontService,sans-serif" font-weight="400" font-size="24" transform="translate(608.631 704)">Area</text><text font-family="Times New Roman,Times New Roman_MSFontService,sans-serif" font-style="italic" font-weight="400" font-size="24" transform="translate(541.407 33)">AOB_</text><text font-family="Times New Roman,Times New Roman_MSFontService,sans-serif" font-style="italic" font-weight="400" font-size="24" transform="translate(600.074 33)">amoA</text><text font-family="Times New Roman,Times New Roman_MSFontService,sans-serif" font-style="italic" font-weight="400" font-size="24" transform="translate(941.299 358)">narG</text><text font-family="Times New Roman,Times New Roman_MSFontService,sans-serif" font-style="italic" font-weight="400" font-size="24" transform="translate(926.712 496)">nirK</text><text font-family="Times New Roman,Times New Roman_MSFontService,sans-serif" font-style="italic" font-weight="400" font-size="24" transform="translate(727.33 540)">nirS</text><text font-family="Times New Roman,Times New Roman_MSFontService,sans-serif" font-style="italic" font-weight="400" font-size="24" transform="translate(581.104 580)">hzsA</text><text font-family="Times New Roman,Times New Roman_MSFontService,sans-serif" font-style="italic" font-weight="400" font-size="24" transform="translate(458.657 654)">nap</text><text font-family="Times New Roman,Times New Roman_MSFontService,sans-serif" font-style="italic" font-weight="400" font-size="24" transform="translate(494.657 654)">A</text><text font-family="Times New Roman,Times New Roman_MSFontService,sans-serif" font-style="italic" font-weight="400" font-size="24" transform="translate(398.804 368)">nifH</text><text font-family="Times New Roman,Times New Roman_MSFontService,sans-serif" font-style="italic" font-weight="400" font-size="24" transform="translate(290.034 301)">nxrA</text><text font-family="Times New Roman,Times New Roman_MSFontService,sans-serif" font-style="italic" font-weight="400" font-size="24" transform="translate(530.67 369)">hzo</text><text font-family="Times New Roman,Times New Roman_MSFontService,sans-serif" font-style="italic" font-weight="400" font-size="24" transform="translate(717.274 190)">hzsB</text><text font-family="Times New Roman,Times New Roman_MSFontService,sans-serif" font-weight="400" font-size="24" transform="translate(813.625 439)">S</text><text font-family="Times New Roman,Times New Roman_MSFontService,sans-serif" font-weight="400" font-size="24" transform="translate(826.958 439)">-</text><text font-family="Times New Roman,Times New Roman_MSFontService,sans-serif" font-weight="400" font-size="24" transform="translate(834.958 439)">TN</text><text font-family="Cambria Math,Cambria Math_MSFontService,sans-serif" font-weight="400" font-size="24" transform="translate(616.552 458)">N</text><text font-family="Cambria Math,Cambria Math_MSFontService,sans-serif" font-weight="400" font-size="24" transform="translate(632.886 458)">H</text><text font-family="Cambria Math,Cambria Math_MSFontService,sans-serif" font-weight="400" font-size="18" transform="translate(649.386 463)">4</text><text font-family="Cambria Math,Cambria Math_MSFontService,sans-serif" font-weight="400" font-size="18" transform="translate(650.146 449)">+</text><text font-family="Times New Roman,Times New Roman_MSFontService,sans-serif" font-weight="400" font-size="24" transform="translate(470.777 501)">TN</text><text font-family="Times New Roman,Times New Roman_MSFontService,sans-serif" font-weight="400" font-size="24" transform="translate(309.463 451)">T</text><text font-family="Cambria Math,Cambria Math_MSFontService,sans-serif" font-weight="400" font-size="24" transform="translate(346.397 178)">N</text><text font-family="Cambria Math,Cambria Math_MSFontService,sans-serif" font-weight="400" font-size="24" transform="translate(362.73 178)">O</text><text font-family="Cambria Math,Cambria Math_MSFontService,sans-serif" font-weight="400" font-size="18" transform="translate(378.397 184)">3</text><text font-family="Cambria Math,Cambria Math_MSFontService,sans-serif" font-weight="400" font-size="18" transform="translate(378.397 169)">−</text><text font-family="Times New Roman,Times New Roman_MSFontService,sans-serif" font-weight="400" font-size="24" transform="translate(453.864 239)">Ⅰ</text><text font-family="Times New Roman,Times New Roman_MSFontService,sans-serif" font-weight="400" font-size="24" transform="translate(461.864 239)">-</text><text font-family="Times New Roman,Times New Roman_MSFontService,sans-serif" font-weight="400" font-size="24" transform="translate(469.864 239)">Area</text><text font-family="Times New Roman,Times New Roman_MSFontService,sans-serif" font-weight="400" font-size="24" transform="translate(598.31 275)">Ⅳ</text><text font-family="Times New Roman,Times New Roman_MSFontService,sans-serif" font-weight="400" font-size="24" transform="translate(623.476 275)">-</text><text font-family="Times New Roman,Times New Roman_MSFontService,sans-serif" font-weight="400" font-size="24" transform="translate(631.476 275)">Area</text><text font-family="Times New Roman,Times New Roman_MSFontService,sans-serif" font-weight="400" font-size="24" transform="translate(432.685 88)">Ⅱ</text><text font-family="Times New Roman,Times New Roman_MSFontService,sans-serif" font-weight="400" font-size="24" transform="translate(448.185 88)">-</text><text font-family="Times New Roman,Times New Roman_MSFontService,sans-serif" font-weight="400" font-size="24" transform="translate(456.185 88)">Area</text><text font-family="Times New Roman,Times New Roman_MSFontService,sans-serif" font-weight="400" font-size="24" transform="translate(830.708 118)">S</text><text font-family="Times New Roman,Times New Roman_MSFontService,sans-serif" font-weight="400" font-size="24" transform="translate(844.042 118)">-</text><text font-family="Times New Roman,Times New Roman_MSFontService,sans-serif" font-weight="400" font-size="24" transform="translate(852.042 118)">TP</text><text font-family="Times New Roman,Times New Roman_MSFontService,sans-serif" font-weight="400" font-size="24" transform="translate(570.956 156)">COD</text><text font-family="Times New Roman,Times New Roman_MSFontService,sans-serif" font-weight="400" font-size="24" transform="translate(928.559 221)">pH</text><text font-family="Times New Roman,Times New Roman_MSFontService,sans-serif" font-weight="400" font-size="24" transform="translate(712.587 367)">DO</text></g></svg>