<svg width="1280" height="720" xmlns="http://www.w3.org/2000/svg" xmlns:xlink="http://www.w3.org/1999/xlink" overflow="hidden"><defs><clipPath id="clip0"><rect x="0" y="0" width="1280" height="720"/></clipPath><clipPath id="clip1"><rect x="273" y="0" width="734" height="720"/></clipPath><clipPath id="clip2"><rect x="273" y="0" width="735" height="721"/></clipPath><clipPath id="clip3"><rect x="273" y="0" width="735" height="721"/></clipPath></defs><g clip-path="url(#clip0)"><rect x="0" y="0" width="1280" height="720" fill="#FFFFFF"/><g clip-path="url(#clip1)"><g clip-path="url(#clip2)"><g clip-path="url(#clip3)"><path d="M284.029 152.179C227.362 270.553-35.1998 363.114-153.574 306.447" stroke="#BC6973" stroke-width="1.64541" fill="none" transform="matrix(1 0 0 1.00082 642.577 356.586)"/><path d="M284.029 152.179C124.014 241.483-249.964 135.416-339.268-24.5994" stroke="#14CF12" stroke-width="5.34678" fill="none" transform="matrix(1 0 0 1.00082 642.577 356.586)"/><path d="M284.029 152.179C144.689 176.62-100.983 4.27054-125.424-135.07" stroke="#BA5D68" stroke-width="3.92105" fill="none" transform="matrix(1 0 0 1.00082 642.577 356.586)"/><path d="M284.029 152.179C107.706 168.971-181.967-70.3266-198.759-246.65" stroke="#39CE37" stroke-width="2.85702" fill="none" transform="matrix(1 0 0 1.00082 642.577 356.586)"/><path d="M284.029 152.179C214.991 166.087 90.5713 83.3905 76.6637 14.352" stroke="#20CF1E" stroke-width="5.16378" fill="none" transform="matrix(1 0 0 1.00082 642.577 356.586)"/><path d="M-109.099 189.422C-80.1306 49.7538 172.824-116.296 312.492-87.3284" stroke="#2BCF29" stroke-width="4.6515" fill="none" transform="matrix(1 0 0 1.00082 642.577 356.586)"/><path d="M-90.7539-9.94249C-25.5819-106.069 216.366-152.5 312.492-87.3284" stroke="#2BCF29" stroke-width="4.65474" fill="none" transform="matrix(1 0 0 1.00082 642.577 356.586)"/><path d="M100.661-196.31C30.7091-146.494-148.943-176.698-198.759-246.65" stroke="#3ACE39" stroke-width="2.48792" fill="none" transform="matrix(1 0 0 1.00082 642.577 356.586)"/><path d="M100.661-196.31C133.231-228.429 230.266-227.752 262.385-195.182" stroke="#25CF23" stroke-width="4.98911" fill="none" transform="matrix(1 0 0 1.00082 642.577 356.586)"/><path d="M-224.896-53.8883C-155.273-64.9164-34.2971 22.9754-23.269 92.598" stroke="#41CE3F" stroke-width="0.738979" fill="none" transform="matrix(1 0 0 1.00082 642.577 356.586)"/><path d="M108.452 319.012C-29.1399 274.971-169.465 2.52169-125.424-135.07" stroke="#BC6B74" stroke-width="1.05367" fill="none" transform="matrix(1 0 0 1.00082 642.577 356.586)"/><path d="M29.1587 211.005C-107.956 165.058-244.706-109.536-198.759-246.65" stroke="#20CF1E" stroke-width="5.14975" fill="none" transform="matrix(1 0 0 1.00082 642.577 356.586)"/><path d="M29.1587 211.005C-0.670907 162.173 27.8321 44.1816 76.6637 14.352" stroke="#24CF23" stroke-width="5.00203" fill="none" transform="matrix(1 0 0 1.00082 642.577 356.586)"/><path d="M29.1587 211.005C-5.43355 83.1224 134.502-160.59 262.385-195.182" stroke="#1DCF1C" stroke-width="5.22148" fill="none" transform="matrix(1 0 0 1.00082 642.577 356.586)"/><path d="M29.1587 211.005C42.5228 245.387 10.9954 317.007-23.3868 330.371" stroke="#B84D59" stroke-width="5.10233" fill="none" transform="matrix(1 0 0 1.00082 642.577 356.586)"/><path d="M-35.8316-226.01C61.5695-267.938 270.564-184.729 312.492-87.3284" stroke="#33CF32" stroke-width="3.74405" fill="none" transform="matrix(1 0 0 1.00082 642.577 356.586)"/><path d="M176.573-292.405C177.904-144.846-41.4381 78.4889-188.997 79.8197" stroke="#BC6771" stroke-width="2.0641" fill="none" transform="matrix(1 0 0 1.00082 642.577 356.586)"/><path d="M176.573-292.405C183.429-221.117 86.7798-103.901 15.4915-97.0454" stroke="#BB616C" stroke-width="3.32758" fill="none" transform="matrix(1 0 0 1.00082 642.577 356.586)"/><path d="M176.573-292.405C147.641-200.539-33.5573-106.137-125.424-135.07" stroke="#20CF1E" stroke-width="5.16074" fill="none" transform="matrix(1 0 0 1.00082 642.577 356.586)"/><path d="M176.573-292.405C248.201-233.107 266.695-36.719 207.396 34.9083" stroke="#14CF12" stroke-width="5.34861" fill="none" transform="matrix(1 0 0 1.00082 642.577 356.586)"/><path d="M176.573-292.405C217.943-211.072 157.997-27.0175 76.6637 14.352" stroke="#B8525E" stroke-width="4.86364" fill="none" transform="matrix(1 0 0 1.00082 642.577 356.586)"/><path d="M176.573-292.405C244.773-278.573 326.324-155.527 312.492-87.3284" stroke="#B9535F" stroke-width="4.80628" fill="none" transform="matrix(1 0 0 1.00082 642.577 356.586)"/><path d="M-153.574 306.447C-205.984 268.206-227.238 132.23-188.997 79.8197" stroke="#B32D3C" stroke-width="5.40346" fill="none" transform="matrix(1 0 0 1.00082 642.577 356.586)"/><path d="M-188.997 79.8197C-209.914 111.055-288.143 126.532-319.378 105.615" stroke="#BB656F" stroke-width="2.70693" fill="none" transform="matrix(1 0 0 1.00082 642.577 356.586)"/><path d="M-188.997 79.8197C-118.701-8.44136 119.135-35.3882 207.396 34.9083" stroke="#34CE33" stroke-width="3.64119" fill="none" transform="matrix(1 0 0 1.00082 642.577 356.586)"/><path d="M-188.997 79.8197C-153.296 49.2297-53.859 56.8967-23.269 92.598" stroke="#2FCF2E" stroke-width="4.22125" fill="none" transform="matrix(1 0 0 1.00082 642.577 356.586)"/><path d="M-319.378 105.615C-369.555 46.6465-356.369-117.072-297.4-167.249" stroke="#B22C3B" stroke-width="5.40393" fill="none" transform="matrix(1 0 0 1.00082 642.577 356.586)"/><path d="M-319.378 105.615C-215.229 91.3679-37.6339 226.221-23.3868 330.371" stroke="#B95460" stroke-width="4.73686" fill="none" transform="matrix(1 0 0 1.00082 642.577 356.586)"/><path d="M-319.378 105.615C-262.76 43.7898-85.0942 35.9796-23.269 92.598" stroke="#1CCF1B" stroke-width="5.24086" fill="none" transform="matrix(1 0 0 1.00082 642.577 356.586)"/><path d="M217.407 252.365C198.445 184.843 271.285 55.1151 338.807 36.1527" stroke="#AC0014" stroke-width="5.40656" fill="none" transform="matrix(1 0 0 1.00082 642.577 356.586)"/><path d="M217.407 252.365C66.7017 170.667-36.8083-177.939 44.8904-328.645" stroke="#B64452" stroke-width="5.2886" fill="none" transform="matrix(1 0 0 1.00082 642.577 356.586)"/><path d="M217.407 252.365C140.119 193.418 112.608-10.9358 171.556-88.2238" stroke="#B95661" stroke-width="4.63685" fill="none" transform="matrix(1 0 0 1.00082 642.577 356.586)"/><path d="M217.407 252.365C136.893 153.86 163.88-114.668 262.385-195.182" stroke="#BB646E" stroke-width="2.87281" fill="none" transform="matrix(1 0 0 1.00082 642.577 356.586)"/><path d="M217.407 252.365C184.849 316.125 40.373 362.929-23.3868 330.371" stroke="#41CE3F" stroke-width="0.684376" fill="none" transform="matrix(1 0 0 1.00082 642.577 356.586)"/><path d="M-339.268-24.5994C-274.049 4.16902-219.374 145.15-248.142 210.368" stroke="#3ECE3D" stroke-width="1.47407" fill="none" transform="matrix(1 0 0 1.00082 642.577 356.586)"/><path d="M-339.268-24.5994C-318.593-89.4622-190.287-155.745-125.424-135.07" stroke="#20CF1E" stroke-width="5.15861" fill="none" transform="matrix(1 0 0 1.00082 642.577 356.586)"/><path d="M338.807 36.1527C207.065 21.9766 30.7143-196.902 44.8904-328.645" stroke="#B84D59" stroke-width="5.0964" fill="none" transform="matrix(1 0 0 1.00082 642.577 356.586)"/><path d="M338.807 36.1527C280.482 44.7277 180.131-29.8982 171.556-88.2238" stroke="#BB656F" stroke-width="2.64289" fill="none" transform="matrix(1 0 0 1.00082 642.577 356.586)"/><path d="M338.807 36.1527C277.256 5.17025 231.402-133.631 262.385-195.182" stroke="#BA5C67" stroke-width="4.09555" fill="none" transform="matrix(1 0 0 1.00082 642.577 356.586)"/><path d="M338.807 36.1527C325.212 167.435 107.896 343.966-23.3868 330.371" stroke="#3ACE38" stroke-width="2.61876" fill="none" transform="matrix(1 0 0 1.00082 642.577 356.586)"/><path d="M338.807 36.1527C277.681 119.857 60.4354 153.724-23.269 92.598" stroke="#BC6770" stroke-width="2.23656" fill="none" transform="matrix(1 0 0 1.00082 642.577 356.586)"/><path d="M-248.142 210.368C-297.338 43.9592-121.519-279.449 44.8904-328.645" stroke="#BC6670" stroke-width="2.41733" fill="none" transform="matrix(1 0 0 1.00082 642.577 356.586)"/><path d="M-248.142 210.368C-223.921 66.7102 27.8979-112.445 171.556-88.2238" stroke="#B43947" stroke-width="5.38306" fill="none" transform="matrix(1 0 0 1.00082 642.577 356.586)"/><path d="M-248.142 210.368C-292.686 116.737-219.055-90.5259-125.424-135.07" stroke="#B6404E" stroke-width="5.34075" fill="none" transform="matrix(1 0 0 1.00082 642.577 356.586)"/><path d="M-248.142 210.368C-192.126 84.1685 81.1968-21.1074 207.396 34.9083" stroke="#B64451" stroke-width="5.29532" fill="none" transform="matrix(1 0 0 1.00082 642.577 356.586)"/><path d="M-248.142 210.368C-226.722 141.84-91.7977 71.1774-23.269 92.598" stroke="#BB646E" stroke-width="2.845" fill="none" transform="matrix(1 0 0 1.00082 642.577 356.586)"/><path d="M44.8904-328.645C157.628-252.009 211.782 32.0498 135.147 144.788" stroke="#B53C4A" stroke-width="5.36782" fill="none" transform="matrix(1 0 0 1.00082 642.577 356.586)"/><path d="M44.8904-328.645C118.308-305.893 194.307-161.641 171.556-88.2238" stroke="#B01B2C" stroke-width="5.40652" fill="none" transform="matrix(1 0 0 1.00082 642.577 356.586)"/><path d="M44.8904-328.645C85.3305-276.445 67.6911-137.485 15.4915-97.0454" stroke="#B95863" stroke-width="4.50632" fill="none" transform="matrix(1 0 0 1.00082 642.577 356.586)"/><path d="M135.147 144.788C95.8265 90.9035 117.672-48.9033 171.556-88.2238" stroke="#BA5B66" stroke-width="4.17086" fill="none" transform="matrix(1 0 0 1.00082 642.577 356.586)"/><path d="M135.147 144.788C62.8493 120.352-8.94398-24.7477 15.4915-97.0454" stroke="#AC0014" stroke-width="5.40656" fill="none" transform="matrix(1 0 0 1.00082 642.577 356.586)"/><path d="M171.556-88.2238C138.579-58.7753 44.9401-64.0682 15.4915-97.0454" stroke="#BD6C76" stroke-width="0.540656" fill="none" transform="matrix(1 0 0 1.00082 642.577 356.586)"/><path d="M171.556-88.2238C168.755-13.0945 51.8604 95.3986-23.269 92.598" stroke="#BA5B66" stroke-width="4.17959" fill="none" transform="matrix(1 0 0 1.00082 642.577 356.586)"/><path d="M15.4915-97.0454C50.0054-87.0003 86.7087-20.1619 76.6637 14.352" stroke="#BC6B75" stroke-width="0.996987" fill="none" transform="matrix(1 0 0 1.00082 642.577 356.586)"/><path d="M15.4915-97.0454C45.2428-166.051 193.379-224.933 262.385-195.182" stroke="#BC6670" stroke-width="2.34468" fill="none" transform="matrix(1 0 0 1.00082 642.577 356.586)"/><path d="M-125.424-135.07C-24.8641-167.638 174.828-65.6514 207.396 34.9083" stroke="#B01F30" stroke-width="5.40642" fill="none" transform="matrix(1 0 0 1.00082 642.577 356.586)"/><path d="M-125.424-135.07C-55.1219-145.603 66.1306-55.9499 76.6637 14.352" stroke="#02D000" stroke-width="5.40371" fill="none" transform="matrix(1 0 0 1.00082 642.577 356.586)"/><path d="M-125.424-135.07C-28.2924-213.105 234.457-184.46 312.492-87.3284" stroke="#29CF27" stroke-width="4.76956" fill="none" transform="matrix(1 0 0 1.00082 642.577 356.586)"/><path d="M-125.424-135.07C-59.4593-109.967 1.83361 26.6335-23.269 92.598" stroke="#B8505C" stroke-width="4.95959" fill="none" transform="matrix(1 0 0 1.00082 642.577 356.586)"/><path d="M207.396 34.9083C177.139 56.9436 98.699 44.6098 76.6637 14.352" stroke="#27CF26" stroke-width="4.8508" fill="none" transform="matrix(1 0 0 1.00082 642.577 356.586)"/><path d="M207.396 34.9083C203.968-10.5581 267.026-83.9001 312.492-87.3284" stroke="#26CF25" stroke-width="4.91941" fill="none" transform="matrix(1 0 0 1.00082 642.577 356.586)"/><path d="M207.396 34.9083C172.801 92.5794 34.402 127.193-23.269 92.598" stroke="#B43342" stroke-width="5.39685" fill="none" transform="matrix(1 0 0 1.00082 642.577 356.586)"/><path d="M-198.759-246.65C-91.4739-249.534 73.7796-92.9329 76.6637 14.352" stroke="#B43947" stroke-width="5.38333" fill="none" transform="matrix(1 0 0 1.00082 642.577 356.586)"/><path d="M-198.759-246.65C-96.2366-328.585 180.45-297.704 262.385-195.182" stroke="#B95460" stroke-width="4.74337" fill="none" transform="matrix(1 0 0 1.00082 642.577 356.586)"/><path d="M-198.759-246.65C-64.6443-317.036 242.106-221.443 312.492-87.3284" stroke="#BB656F" stroke-width="2.50738" fill="none" transform="matrix(1 0 0 1.00082 642.577 356.586)"/><path d="M76.6637 14.352C71.9011-64.6991 183.334-190.42 262.385-195.182" stroke="#B84E5B" stroke-width="5.04013" fill="none" transform="matrix(1 0 0 1.00082 642.577 356.586)"/><path d="M76.6637 14.352C103.493-53.1498 244.99-114.158 312.492-87.3284" stroke="#B3303F" stroke-width="5.40113" fill="none" transform="matrix(1 0 0 1.00082 642.577 356.586)"/><path d="M262.385-195.182C310.341-32.9173 138.878 282.415-23.3868 330.371" stroke="#37CE36" stroke-width="3.12565" fill="none" transform="matrix(1 0 0 1.00082 642.577 356.586)"/><path d="M262.385-195.182C293.977-183.633 324.041-118.921 312.492-87.3284" stroke="#BA5B66" stroke-width="4.13309" fill="none" transform="matrix(1 0 0 1.00082 642.577 356.586)"/><path d="M-23.3868 330.371C-70.9178 282.793-70.8471 140.129-23.269 92.598" stroke="#15CF13" stroke-width="5.34282" fill="none" transform="matrix(1 0 0 1.00082 642.577 356.586)"/><path d="M-102.933-330.854C-2.30934-262.096 45.4888-8.02514-23.269 92.598" stroke="#BB656F" stroke-width="2.58148" fill="none" transform="matrix(1 0 0 1.00082 642.577 356.586)"/><path d="M309.332 152.179C309.332 166.154 298.003 177.482 284.029 177.482 270.055 177.482 258.726 166.154 258.726 152.179 258.726 138.205 270.055 126.877 284.029 126.877 298.003 126.877 309.332 138.205 309.332 152.179Z" stroke="#000000" stroke-width="0.540656" fill="#28B36A" transform="matrix(1 0 0 1.00082 642.577 356.586)"/><path d="M-128.271 306.447C-128.271 320.421-139.6 331.75-153.574 331.75-167.548 331.75-178.877 320.421-178.877 306.447-178.877 292.473-167.548 281.144-153.574 281.144-139.6 281.144-128.271 292.473-128.271 306.447Z" stroke="#000000" stroke-width="0.540656" fill="#9A96E5" transform="matrix(1 0 0 1.00082 642.577 356.586)"/><path d="M-313.965-24.5994C-313.965-10.6251-325.293 0.703317-339.268 0.703317-353.242 0.703317-364.57-10.6251-364.57-24.5994-364.57-38.5737-353.242-49.9021-339.268-49.9021-325.293-49.9021-313.965-38.5737-313.965-24.5994Z" stroke="#000000" stroke-width="0.540656" fill="#9A96E5" transform="matrix(1 0 0 1.00082 642.577 356.586)"/><path d="M-100.121-135.07C-100.121-121.096-111.45-109.767-125.424-109.767-139.398-109.767-150.727-121.096-150.727-135.07-150.727-149.044-139.398-160.373-125.424-160.373-111.45-160.373-100.121-149.044-100.121-135.07Z" stroke="#000000" stroke-width="0.540656" fill="#F97743" transform="matrix(1 0 0 1.00082 642.577 356.586)"/><path d="M-173.456-246.65C-173.456-232.676-184.785-221.347-198.759-221.347-212.733-221.347-224.062-232.676-224.062-246.65-224.062-260.624-212.733-271.953-198.759-271.953-184.785-271.953-173.456-260.624-173.456-246.65Z" stroke="#000000" stroke-width="0.540656" fill="#F97743" transform="matrix(1 0 0 1.00082 642.577 356.586)"/><path d="M101.966 14.352C101.966 28.3263 90.638 39.6547 76.6637 39.6547 62.6894 39.6547 51.361 28.3263 51.361 14.352 51.361 0.377679 62.6894-10.9507 76.6637-10.9507 90.638-10.9507 101.966 0.377679 101.966 14.352Z" stroke="#000000" stroke-width="0.540656" fill="#F97743" transform="matrix(1 0 0 1.00082 642.577 356.586)"/><path d="M-83.7959 189.422C-83.7959 203.396-95.1243 214.725-109.099 214.725-123.073 214.725-134.401 203.396-134.401 189.422-134.401 175.448-123.073 164.119-109.099 164.119-95.1243 164.119-83.7959 175.448-83.7959 189.422Z" stroke="#000000" stroke-width="0.540656" fill="#28B36A" transform="matrix(1 0 0 1.00082 642.577 356.586)"/><path d="M337.795-87.3284C337.795-73.3541 326.466-62.0257 312.492-62.0257 298.518-62.0257 287.189-73.3541 287.189-87.3284 287.189-101.303 298.518-112.631 312.492-112.631 326.466-112.631 337.795-101.303 337.795-87.3284Z" stroke="#000000" stroke-width="0.540656" fill="#F97743" transform="matrix(1 0 0 1.00082 642.577 356.586)"/><path d="M-65.4512-9.94249C-65.4512 4.0318-76.7796 15.3602-90.7539 15.3602-104.728 15.3602-116.057 4.0318-116.057-9.94249-116.057-23.9168-104.728-35.2452-90.7539-35.2452-76.7796-35.2452-65.4512-23.9168-65.4512-9.94249Z" stroke="#000000" stroke-width="0.540656" fill="#28B36A" transform="matrix(1 0 0 1.00082 642.577 356.586)"/><path d="M125.964-196.31C125.964-182.336 114.635-171.007 100.661-171.007 86.6868-171.007 75.3584-182.336 75.3584-196.31 75.3584-210.284 86.6868-221.613 100.661-221.613 114.635-221.613 125.964-210.284 125.964-196.31Z" stroke="#000000" stroke-width="0.540656" fill="#28B36A" transform="matrix(1 0 0 1.00082 642.577 356.586)"/><path d="M287.687-195.182C287.687-181.208 276.359-169.88 262.385-169.88 248.41-169.88 237.082-181.208 237.082-195.182 237.082-209.157 248.41-220.485 262.385-220.485 276.359-220.485 287.687-209.157 287.687-195.182Z" stroke="#000000" stroke-width="0.540656" fill="#F97743" transform="matrix(1 0 0 1.00082 642.577 356.586)"/><path d="M-199.593-53.8883C-199.593-39.914-210.922-28.5856-224.896-28.5856-238.87-28.5856-250.199-39.914-250.199-53.8883-250.199-67.8626-238.87-79.191-224.896-79.191-210.922-79.191-199.593-67.8626-199.593-53.8883Z" stroke="#000000" stroke-width="0.540656" fill="#28B36A" transform="matrix(1 0 0 1.00082 642.577 356.586)"/><path d="M2.0337 92.598C2.0337 106.572-9.29471 117.901-23.269 117.901-37.2433 117.901-48.5717 106.572-48.5717 92.598-48.5717 78.6237-37.2433 67.2953-23.269 67.2953-9.29471 67.2953 2.0337 78.6237 2.0337 92.598Z" stroke="#000000" stroke-width="0.540656" fill="#F97743" transform="matrix(1 0 0 1.00082 642.577 356.586)"/><path d="M133.754 319.012C133.754 332.987 122.426 344.315 108.452 344.315 94.4774 344.315 83.149 332.987 83.149 319.012 83.149 305.038 94.4774 293.71 108.452 293.71 122.426 293.71 133.754 305.038 133.754 319.012Z" stroke="#000000" stroke-width="0.540656" fill="#28B36A" transform="matrix(1 0 0 1.00082 642.577 356.586)"/><path d="M54.4614 211.005C54.4614 224.979 43.133 236.308 29.1587 236.308 15.1844 236.308 3.85602 224.979 3.85602 211.005 3.85602 197.031 15.1844 185.702 29.1587 185.702 43.133 185.702 54.4614 197.031 54.4614 211.005Z" stroke="#000000" stroke-width="0.540656" fill="#28B36A" transform="matrix(1 0 0 1.00082 642.577 356.586)"/><path d="M1.91586 330.371C1.91586 344.345-9.41255 355.674-23.3868 355.674-37.3611 355.674-48.6896 344.345-48.6896 330.371-48.6896 316.397-37.3611 305.068-23.3868 305.068-9.41255 305.068 1.91586 316.397 1.91586 330.371Z" stroke="#000000" stroke-width="0.540656" fill="#F97743" transform="matrix(1 0 0 1.00082 642.577 356.586)"/><path d="M-10.5289-226.01C-10.5289-212.036-21.8573-200.707-35.8316-200.707-49.8059-200.707-61.1343-212.036-61.1343-226.01-61.1343-239.984-49.8059-251.313-35.8316-251.313-21.8573-251.313-10.5289-239.984-10.5289-226.01Z" stroke="#000000" stroke-width="0.540656" fill="#28B36A" transform="matrix(1 0 0 1.00082 642.577 356.586)"/><path d="M201.876-292.405C201.876-278.431 190.548-267.102 176.573-267.102 162.599-267.102 151.271-278.431 151.271-292.405 151.271-306.379 162.599-317.708 176.573-317.708 190.548-317.708 201.876-306.379 201.876-292.405Z" stroke="#000000" stroke-width="0.540656" fill="#F97743" transform="matrix(1 0 0 1.00082 642.577 356.586)"/><path d="M-163.695 79.8197C-163.695 93.794-175.023 105.122-188.997 105.122-202.972 105.122-214.3 93.794-214.3 79.8197-214.3 65.8454-202.972 54.517-188.997 54.517-175.023 54.517-163.695 65.8454-163.695 79.8197Z" stroke="#000000" stroke-width="0.540656" fill="#9A96E5" transform="matrix(1 0 0 1.00082 642.577 356.586)"/><path d="M40.7942-97.0454C40.7942-83.0711 29.4658-71.7427 15.4915-71.7427 1.51721-71.7427-9.8112-83.0711-9.8112-97.0454-9.8112-111.02 1.51721-122.348 15.4915-122.348 29.4658-122.348 40.7942-111.02 40.7942-97.0454Z" stroke="#000000" stroke-width="0.540656" fill="#9A96E5" transform="matrix(1 0 0 1.00082 642.577 356.586)"/><path d="M232.699 34.9083C232.699 48.8826 221.371 60.211 207.396 60.211 193.422 60.211 182.094 48.8826 182.094 34.9083 182.094 20.934 193.422 9.60562 207.396 9.60562 221.371 9.60562 232.699 20.934 232.699 34.9083Z" stroke="#000000" stroke-width="0.540656" fill="#F97743" transform="matrix(1 0 0 1.00082 642.577 356.586)"/><path d="M-294.075 105.615C-294.075 119.589-305.404 130.918-319.378 130.918-333.352 130.918-344.681 119.589-344.681 105.615-344.681 91.6407-333.352 80.3123-319.378 80.3123-305.404 80.3123-294.075 91.6407-294.075 105.615Z" stroke="#000000" stroke-width="0.540656" fill="#9A96E5" transform="matrix(1 0 0 1.00082 642.577 356.586)"/><path d="M-272.098-167.249C-272.098-153.275-283.426-141.947-297.4-141.947-311.375-141.947-322.703-153.275-322.703-167.249-322.703-181.224-311.375-192.552-297.4-192.552-283.426-192.552-272.098-181.224-272.098-167.249Z" stroke="#000000" stroke-width="0.540656" fill="#9A96E5" transform="matrix(1 0 0 1.00082 642.577 356.586)"/><path d="M242.71 252.365C242.71 266.34 231.381 277.668 217.407 277.668 203.433 277.668 192.104 266.34 192.104 252.365 192.104 238.391 203.433 227.063 217.407 227.063 231.381 227.063 242.71 238.391 242.71 252.365Z" stroke="#000000" stroke-width="0.540656" fill="#9A96E5" transform="matrix(1 0 0 1.00082 642.577 356.586)"/><path d="M364.11 36.1527C364.11 50.127 352.782 61.4554 338.807 61.4554 324.833 61.4554 313.505 50.127 313.505 36.1527 313.505 22.1784 324.833 10.85 338.807 10.85 352.782 10.85 364.11 22.1784 364.11 36.1527Z" stroke="#000000" stroke-width="0.540656" fill="#9A96E5" transform="matrix(1 0 0 1.00082 642.577 356.586)"/><path d="M70.1931-328.645C70.1931-314.67 58.8647-303.342 44.8904-303.342 30.9161-303.342 19.5877-314.67 19.5877-328.645 19.5877-342.619 30.9161-353.947 44.8904-353.947 58.8647-353.947 70.1931-342.619 70.1931-328.645Z" stroke="#000000" stroke-width="0.540656" fill="#9A96E5" transform="matrix(1 0 0 1.00082 642.577 356.586)"/><path d="M196.859-88.2238C196.859-74.2495 185.53-62.9211 171.556-62.9211 157.582-62.9211 146.253-74.2495 146.253-88.2238 146.253-102.198 157.582-113.527 171.556-113.527 185.53-113.527 196.859-102.198 196.859-88.2238Z" stroke="#000000" stroke-width="0.540656" fill="#9A96E5" transform="matrix(1 0 0 1.00082 642.577 356.586)"/><path d="M-222.839 210.368C-222.839 224.342-234.168 235.671-248.142 235.671-262.116 235.671-273.445 224.342-273.445 210.368-273.445 196.394-262.116 185.066-248.142 185.066-234.168 185.066-222.839 196.394-222.839 210.368Z" stroke="#000000" stroke-width="0.540656" fill="#9A96E5" transform="matrix(1 0 0 1.00082 642.577 356.586)"/><path d="M160.45 144.788C160.45 158.762 149.121 170.09 135.147 170.09 121.173 170.09 109.844 158.762 109.844 144.788 109.844 130.813 121.173 119.485 135.147 119.485 149.121 119.485 160.45 130.813 160.45 144.788Z" stroke="#000000" stroke-width="0.540656" fill="#9A96E5" transform="matrix(1 0 0 1.00082 642.577 356.586)"/><path d="M-77.6298-330.854C-77.6298-316.88-88.9582-305.552-102.933-305.552-116.907-305.552-128.235-316.88-128.235-330.854-128.235-344.829-116.907-356.157-102.933-356.157-88.9582-356.157-77.6298-344.829-77.6298-330.854Z" stroke="#000000" stroke-width="0.540656" fill="#F97743" transform="matrix(1 0 0 1.00082 642.577 356.586)"/></g></g></g><text font-family="Times New Roman,Times New Roman_MSFontService,sans-serif" font-style="italic" font-weight="400" font-size="24" transform="translate(720.612 686)">cnorB</text><text font-family="Times New Roman,Times New Roman_MSFontService,sans-serif" font-weight="400" font-size="24" transform="translate(598.37 459)">W</text><text font-family="Times New Roman,Times New Roman_MSFontService,sans-serif" font-weight="400" font-size="24" transform="translate(619.71 459)">-</text><text font-family="Times New Roman,Times New Roman_MSFontService,sans-serif" font-weight="400" font-size="24" transform="translate(627.71 459)">T</text><text font-family="Times New Roman,Times New Roman_MSFontService,sans-serif" font-style="italic" font-weight="400" font-size="24" transform="translate(966.912 398)">β</text><text font-family="Times New Roman,Times New Roman_MSFontService,sans-serif" font-weight="400" font-size="24" transform="translate(978.912 398)">:</text><text font-family="Times New Roman,Times New Roman_MSFontService,sans-serif" font-style="italic" font-weight="400" font-size="24" transform="translate(985.579 398)">α</text><text font-family="Times New Roman,Times New Roman_MSFontService,sans-serif" font-style="italic" font-weight="400" font-size="24" transform="translate(488.634 351)">AOA_amoA</text><text font-family="Times New Roman,Times New Roman_MSFontService,sans-serif" font-weight="400" font-size="24" transform="translate(279.342 338)">HIX</text><text font-family="Cambria Math,Cambria Math_MSFontService,sans-serif" font-weight="400" font-size="24" transform="translate(685.945 378)">W</text><text font-family="Cambria Math,Cambria Math_MSFontService,sans-serif" font-weight="400" font-size="24" transform="translate(708.112 378)">-</text><text font-family="Cambria Math,Cambria Math_MSFontService,sans-serif" font-weight="400" font-size="24" transform="translate(716.112 378)">NO</text><text font-family="Cambria Math,Cambria Math_MSFontService,sans-serif" font-weight="400" font-size="18" transform="translate(748.112 383)">2</text><text font-family="Cambria Math,Cambria Math_MSFontService,sans-serif" font-weight="400" font-size="18" transform="translate(748.112 369)">−</text><text font-family="Times New Roman,Times New Roman_MSFontService,sans-serif" font-weight="400" font-size="24" transform="translate(424.702 671)">S</text><text font-family="Times New Roman,Times New Roman_MSFontService,sans-serif" font-weight="400" font-size="24" transform="translate(438.035 671)">-</text><text font-family="Times New Roman,Times New Roman_MSFontService,sans-serif" font-weight="400" font-size="24" transform="translate(446.035 671)">Size</text><text font-family="Times New Roman,Times New Roman_MSFontService,sans-serif" font-weight="400" font-size="24" transform="translate(487.368 671)">-</text><text font-family="Times New Roman,Times New Roman_MSFontService,sans-serif" font-weight="400" font-size="24" transform="translate(495.368 671)">d(0.1)</text><text font-family="Times New Roman,Times New Roman_MSFontService,sans-serif" font-style="italic" font-weight="400" font-size="24" transform="translate(837.66 518)">Bacterial 16S rRNA</text><text font-family="Times New Roman,Times New Roman_MSFontService,sans-serif" font-style="italic" font-weight="400" font-size="24" transform="translate(583.098 141)">hzsB</text><text font-family="Times New Roman,Times New Roman_MSFontService,sans-serif" font-weight="400" font-size="24" transform="translate(911.936 276)">W</text><text font-family="Times New Roman,Times New Roman_MSFontService,sans-serif" font-weight="400" font-size="24" transform="translate(933.276 276)">-</text><text font-family="Times New Roman,Times New Roman_MSFontService,sans-serif" font-weight="400" font-size="24" transform="translate(941.276 276)">COD</text><text font-family="Times New Roman,Times New Roman_MSFontService,sans-serif" font-weight="400" font-size="24" transform="translate(796.054 69)">S</text><text font-family="Times New Roman,Times New Roman_MSFontService,sans-serif" font-weight="400" font-size="24" transform="translate(809.387 69)">-</text><text font-family="Times New Roman,Times New Roman_MSFontService,sans-serif" font-weight="400" font-size="24" transform="translate(817.387 69)">TP</text><text font-family="Times New Roman,Times New Roman_MSFontService,sans-serif" font-weight="400" font-size="24" transform="translate(248.211 197)">S</text><text font-family="Times New Roman,Times New Roman_MSFontService,sans-serif" font-weight="400" font-size="24" transform="translate(261.545 197)">-</text><text font-family="Times New Roman,Times New Roman_MSFontService,sans-serif" font-weight="400" font-size="24" transform="translate(269.545 197)">Size</text><text font-family="Times New Roman,Times New Roman_MSFontService,sans-serif" font-weight="400" font-size="24" transform="translate(310.878 197)">-</text><text font-family="Times New Roman,Times New Roman_MSFontService,sans-serif" font-weight="400" font-size="24" transform="translate(318.878 197)">d[(0.9</text><text font-family="Times New Roman,Times New Roman_MSFontService,sans-serif" font-weight="400" font-size="24" transform="translate(376.878 197)">-</text><text font-family="Times New Roman,Times New Roman_MSFontService,sans-serif" font-weight="400" font-size="24" transform="translate(384.878 197)">01)/0.5]</text><text font-family="Times New Roman,Times New Roman_MSFontService,sans-serif" font-weight="400" font-size="24" transform="translate(742.845 507)">Ⅲ</text><text font-family="Times New Roman,Times New Roman_MSFontService,sans-serif" font-weight="400" font-size="24" transform="translate(765.845 507)">-</text><text font-family="Times New Roman,Times New Roman_MSFontService,sans-serif" font-weight="400" font-size="24" transform="translate(773.845 507)">Area</text><text font-family="Times New Roman,Times New Roman_MSFontService,sans-serif" font-weight="400" font-size="24" transform="translate(776.678 277)">Ⅳ</text><text font-family="Times New Roman,Times New Roman_MSFontService,sans-serif" font-weight="400" font-size="24" transform="translate(801.844 277)">-</text><text font-family="Times New Roman,Times New Roman_MSFontService,sans-serif" font-weight="400" font-size="24" transform="translate(809.844 277)">Area</text><text font-family="Times New Roman,Times New Roman_MSFontService,sans-serif" font-weight="400" font-size="24" transform="translate(621.094 268)">Ⅴ</text><text font-family="Times New Roman,Times New Roman_MSFontService,sans-serif" font-weight="400" font-size="24" transform="translate(638.427 268)">-</text><text font-family="Times New Roman,Times New Roman_MSFontService,sans-serif" font-weight="400" font-size="24" transform="translate(646.427 268)">Area</text><text font-family="DengXian,DengXian_MSFontService,sans-serif" font-weight="400" font-size="24" transform="translate(578.292 693)">W</text><text font-family="DengXian,DengXian_MSFontService,sans-serif" font-weight="400" font-size="24" transform="translate(600.292 693)">-</text><text font-family="Cambria Math,Cambria Math_MSFontService,sans-serif" font-weight="400" font-size="24" transform="translate(612.292 693)">NH</text><text font-family="Cambria Math,Cambria Math_MSFontService,sans-serif" font-weight="400" font-size="18" transform="translate(645.126 698)">4</text><text font-family="Cambria Math,Cambria Math_MSFontService,sans-serif" font-weight="400" font-size="18" transform="translate(645.886 684)">+</text><text font-family="Times New Roman,Times New Roman_MSFontService,sans-serif" font-weight="400" font-size="24" transform="translate(819.077 401)">W</text><text font-family="Times New Roman,Times New Roman_MSFontService,sans-serif" font-weight="400" font-size="24" transform="translate(840.417 401)">-</text><text font-family="Times New Roman,Times New Roman_MSFontService,sans-serif" font-weight="400" font-size="24" transform="translate(848.417 401)">DO</text><text font-family="DengXian,DengXian_MSFontService,sans-serif" font-weight="400" font-size="24" transform="translate(502.597 30)">W</text><text font-family="DengXian,DengXian_MSFontService,sans-serif" font-weight="400" font-size="24" transform="translate(524.597 30)">-</text><text font-family="Cambria Math,Cambria Math_MSFontService,sans-serif" font-weight="400" font-size="24" transform="translate(536.597 30)">𝑃</text><text font-family="Cambria Math,Cambria Math_MSFontService,sans-serif" font-weight="400" font-size="24" transform="translate(551.43 30)">O</text><text font-family="Cambria Math,Cambria Math_MSFontService,sans-serif" font-weight="400" font-size="18" transform="translate(567.097 35)">4</text><text font-family="Cambria Math,Cambria Math_MSFontService,sans-serif" font-weight="400" font-size="18" transform="translate(567.097 20)">3</text><text font-family="Cambria Math,Cambria Math_MSFontService,sans-serif" font-weight="400" font-size="18" transform="translate(577.263 20)">−</text><text font-family="Times New Roman,Times New Roman_MSFontService,sans-serif" font-weight="400" font-size="24" transform="translate(412.073 117)">W</text><text font-family="Times New Roman,Times New Roman_MSFontService,sans-serif" font-weight="400" font-size="24" transform="translate(433.413 117)">-</text><text font-family="Times New Roman,Times New Roman_MSFontService,sans-serif" font-weight="400" font-size="24" transform="translate(441.413 117)">TN</text><text font-family="DengXian,DengXian_MSFontService,sans-serif" font-weight="400" font-size="24" transform="translate(873.962 170)">W</text><text font-family="DengXian,DengXian_MSFontService,sans-serif" font-weight="400" font-size="24" transform="translate(895.962 170)">-</text><text font-family="Cambria Math,Cambria Math_MSFontService,sans-serif" font-weight="400" font-size="24" transform="translate(907.962 170)">NO</text><text font-family="Cambria Math,Cambria Math_MSFontService,sans-serif" font-weight="400" font-size="18" transform="translate(939.962 175)">3</text><text font-family="Cambria Math,Cambria Math_MSFontService,sans-serif" font-weight="400" font-size="18" transform="translate(939.962 161)">−</text><text font-family="Times New Roman,Times New Roman_MSFontService,sans-serif" font-weight="400" font-size="24" transform="translate(395.858 445)">S</text><text font-family="Times New Roman,Times New Roman_MSFontService,sans-serif" font-weight="400" font-size="24" transform="translate(409.191 445)">-</text><text font-family="Times New Roman,Times New Roman_MSFontService,sans-serif" font-weight="400" font-size="24" transform="translate(417.191 445)">Size</text><text font-family="Times New Roman,Times New Roman_MSFontService,sans-serif" font-weight="400" font-size="24" transform="translate(458.524 445)">-</text><text font-family="Times New Roman,Times New Roman_MSFontService,sans-serif" font-weight="400" font-size="24" transform="translate(466.524 445)">d(0.5)</text><text font-family="Times New Roman,Times New Roman_MSFontService,sans-serif" font-weight="400" font-size="24" transform="translate(266.226 470)">S</text><text font-family="Times New Roman,Times New Roman_MSFontService,sans-serif" font-weight="400" font-size="24" transform="translate(279.559 470)">-</text><text font-family="Times New Roman,Times New Roman_MSFontService,sans-serif" font-weight="400" font-size="24" transform="translate(287.559 470)">Size</text><text font-family="Times New Roman,Times New Roman_MSFontService,sans-serif" font-weight="400" font-size="24" transform="translate(328.892 470)">-</text><text font-family="Times New Roman,Times New Roman_MSFontService,sans-serif" font-weight="400" font-size="24" transform="translate(336.892 470)">d(0.9)</text><text font-family="Times New Roman,Times New Roman_MSFontService,sans-serif" font-weight="400" font-size="24" transform="translate(838.099 616)">BIX</text><text font-family="Times New Roman,Times New Roman_MSFontService,sans-serif" font-weight="400" font-size="24" transform="translate(650.826 30)">Ⅱ</text><text font-family="Times New Roman,Times New Roman_MSFontService,sans-serif" font-weight="400" font-size="24" transform="translate(666.326 30)">-</text><text font-family="Times New Roman,Times New Roman_MSFontService,sans-serif" font-weight="400" font-size="24" transform="translate(674.326 30)">Area</text><text font-family="Times New Roman,Times New Roman_MSFontService,sans-serif" font-weight="400" font-size="24" transform="translate(486.639 234)">W</text><text font-family="Times New Roman,Times New Roman_MSFontService,sans-serif" font-weight="400" font-size="24" transform="translate(507.979 234)">-</text><text font-family="Times New Roman,Times New Roman_MSFontService,sans-serif" font-weight="400" font-size="24" transform="translate(515.979 234)">pH</text><text font-family="Times New Roman,Times New Roman_MSFontService,sans-serif" font-style="italic" font-weight="400" font-size="24" transform="translate(651.591 576)">hzsA</text><text font-family="Times New Roman,Times New Roman_MSFontService,sans-serif" font-weight="400" font-size="24" transform="translate(358.864 579)">Ⅰ</text><text font-family="Times New Roman,Times New Roman_MSFontService,sans-serif" font-weight="400" font-size="24" transform="translate(366.864 579)">-</text><text font-family="Times New Roman,Times New Roman_MSFontService,sans-serif" font-weight="400" font-size="24" transform="translate(374.864 579)">Area</text><text font-family="Times New Roman,Times New Roman_MSFontService,sans-serif" font-style="italic" font-weight="400" font-size="24" transform="translate(440.181 558)">Archaeal 16S rRNA</text><text font-family="Times New Roman,Times New Roman_MSFontService,sans-serif" font-style="italic" font-weight="400" font-size="24" transform="translate(395.102 309)">napA</text><text font-family="Times New Roman,Times New Roman_MSFontService,sans-serif" font-style="italic" font-weight="400" font-size="24" transform="translate(727.674 170)">nxrA</text></g></svg>