<svg width="1280" height="720" xmlns="http://www.w3.org/2000/svg" xmlns:xlink="http://www.w3.org/1999/xlink" overflow="hidden"><defs><clipPath id="clip0"><rect x="0" y="0" width="1280" height="720"/></clipPath><clipPath id="clip1"><rect x="275" y="0" width="730" height="720"/></clipPath><clipPath id="clip2"><rect x="275" y="0" width="730" height="721"/></clipPath><clipPath id="clip3"><rect x="275" y="0" width="730" height="721"/></clipPath></defs><g clip-path="url(#clip0)"><rect x="0" y="0" width="1280" height="720" fill="#FFFFFF"/><g clip-path="url(#clip1)"><g clip-path="url(#clip2)"><g clip-path="url(#clip3)"><path d="M-47.9727 314.552C-67.3829 237.897-43.25 156.769 14.9014 103.185" stroke="#02D000" stroke-width="5.61538" stroke-linecap="round" fill="none" transform="matrix(1 0 0 1.00015 640.562 360.562)"/><path d="M-57.4759 320.331C-120.385 252.129-139.649 154.37-107.317 67.3998" stroke="#AC0014" stroke-width="5.30528" stroke-linecap="round" fill="none" transform="matrix(1 0 0 1.00015 640.562 360.562)"/><path d="M-62.7437 328.702C-152.607 291.884-213.924 207.417-221.092 110.569" stroke="#B31729" stroke-width="4.7256" stroke-linecap="round" fill="none" transform="matrix(1 0 0 1.00015 640.562 360.562)"/><path d="M-36.7336 313.956C-15.1803 227.036 53.1334 159.446 140.277 138.818" stroke="#AF0B1E" stroke-width="5.0688" stroke-linecap="round" fill="none" transform="matrix(1 0 0 1.00015 640.562 360.562)"/><path d="M-54.5909 317.859C-130.723 204.712-132.974 57.313-60.3321-58.1061" stroke="#B00E20" stroke-width="5.00696" stroke-linecap="round" fill="none" transform="matrix(1 0 0 1.00015 640.562 360.562)"/><path d="M-26.6806 318.69C31.9818 253.645 121.983 226.68 206.746 248.753" stroke="#67E066" stroke-width="2.48759" stroke-linecap="round" fill="none" transform="matrix(1 0 0 1.00015 640.562 360.562)"/><path d="M-40.4319 313.533C-29.2998 115.479 101.503-55.7545 289.657-118.584" stroke="#6AE069" stroke-width="2.24999" stroke-linecap="round" stroke-opacity="0.996078" fill="none" transform="matrix(1 0 0 1.00015 640.562 360.562)"/><path d="M-22.5715 323.061C11.0207 303.321 51.9018 300.392 87.9649 315.142" stroke="#AE091C" stroke-width="5.12887" stroke-linecap="round" fill="none" transform="matrix(1 0 0 1.00015 640.562 360.562)"/><path d="M-124.78-171.17C-167.074-115.296-236.074-86.3832-305.565-95.4155" stroke="#BB3343" stroke-width="3.17847" stroke-linecap="round" fill="none" transform="matrix(1 0 0 1.00015 640.562 360.562)"/><path d="M-89.1851-191.699C31.8719-195.065 143.821-127.679 197.511-19.1276" stroke="#BD3847" stroke-width="2.78866" stroke-linecap="round" fill="none" transform="matrix(1 0 0 1.00015 640.562 360.562)"/><path d="M321.103 16.4935C109.792 117.558-141.967 77.7483-311.786-83.5834" stroke="#BB3343" stroke-width="3.19443" stroke-linecap="round" fill="none" transform="matrix(1 0 0 1.00015 640.562 360.562)"/><path d="M321.555 17.3452C290.867 30.547 255.895 29.3987 226.141 14.2123" stroke="#BC3747" stroke-width="2.82865" stroke-linecap="round" fill="none" transform="matrix(1 0 0 1.00015 640.562 360.562)"/><path d="M-262.336 201.234C-227.093 211.128-198.326 236.626-184.273 270.426" stroke="#BD3948" stroke-width="2.71302" stroke-linecap="round" fill="none" transform="matrix(1 0 0 1.00015 640.562 360.562)"/><path d="M-283.545 174.312C-268.857 3.04077-152.357-142.479 11.549-194.291" stroke="#C24957" stroke-width="1.05564" stroke-linecap="round" fill="none" transform="matrix(1 0 0 1.00015 640.562 360.562)"/><path d="M-291.303 175.19C-310.883 92.8992-283.28 6.5327-219.603-49.1488" stroke="#C34D5B" stroke-width="0.561538" stroke-linecap="round" fill="none" transform="matrix(1 0 0 1.00015 640.562 360.562)"/><path d="M123.994-290.224C157.76-59.7533 45.8632 167.662-157.334 281.536" stroke="#71E170" stroke-width="1.49571" stroke-linecap="round" fill="none" transform="matrix(1 0 0 1.00015 640.562 360.562)"/><path d="M-234.162-227.187C-103.334-328.967 75.8442-342.15 220.159-260.613" stroke="#B31729" stroke-width="4.71883" stroke-linecap="round" fill="none" transform="matrix(1 0 0 1.00015 640.562 360.562)"/><path d="M-231.096-202.906C-147.205-158.853-95.2954-71.2875-96.9082 23.4536" stroke="#6FE16E" stroke-width="1.70051" stroke-linecap="round" fill="none" transform="matrix(1 0 0 1.00015 640.562 360.562)"/><path d="M-229.301-216.703C-60.5499-242.557 107.154-164.183 195.574-18.1439" stroke="#BE3C4B" stroke-width="2.39584" stroke-linecap="round" fill="none" transform="matrix(1 0 0 1.00015 640.562 360.562)"/><path d="M-229.006-210.811C-46.5315-191.674 106.129-63.8318 157.007 112.448" stroke="#5DDE5B" stroke-width="3.37844" stroke-linecap="round" fill="none" transform="matrix(1 0 0 1.00015 640.562 360.562)"/><path d="M-228.935-212.661C-154.908-208.636-88.867-164.834-56.3649-98.2021" stroke="#53DC51" stroke-width="4.00362" stroke-linecap="round" fill="none" transform="matrix(1 0 0 1.00015 640.562 360.562)"/><path d="M-230.395-204.572C-23.2862-121.813 111.591 79.8089 109.034 302.826" stroke="#43DA42" stroke-width="4.71079" stroke-linecap="round" fill="none" transform="matrix(1 0 0 1.00015 640.562 360.562)"/><path d="M-352.423 21.4876C-364.823-12.626-360.953-50.5363-341.914-81.44" stroke="#C04352" stroke-width="1.71676" stroke-linecap="round" fill="none" transform="matrix(1 0 0 1.00015 640.562 360.562)"/><path d="M-324.915 27.5474C-177.82-88.268 24.8625-103.169 187.313-10.111" stroke="#BD3948" stroke-width="2.69274" stroke-linecap="round" fill="none" transform="matrix(1 0 0 1.00015 640.562 360.562)"/><path d="M76.4338-14.1298C64.8234 74.8039 4.48267 149.791-79.9078 180.159" stroke="#44DA42" stroke-width="4.69714" stroke-linecap="round" fill="none" transform="matrix(1 0 0 1.00015 640.562 360.562)"/><path d="M60.4473-51.3111C-14.4578-117.068-45.551-219.639-19.7659-315.92" stroke="#47DA45" stroke-width="4.58962" stroke-linecap="round" fill="none" transform="matrix(1 0 0 1.00015 640.562 360.562)"/><path d="M82.657-14.4692C85.5525 18.3997 73.7212 50.8601 50.3542 74.1569" stroke="#6EE16D" stroke-width="1.81814" stroke-linecap="round" fill="none" transform="matrix(1 0 0 1.00015 640.562 360.562)"/><path d="M97.9405-25.1518C142.269 6.06816 167.685 57.6821 165.405 111.853" stroke="#B41C2E" stroke-width="4.51253" stroke-linecap="round" fill="none" transform="matrix(1 0 0 1.00015 640.562 360.562)"/><path d="M56.0046-31.7291C23.8465-27.6486-8.47464-37.9554-32.3339-59.8992" stroke="#B31A2C" stroke-width="4.61058" stroke-linecap="round" fill="none" transform="matrix(1 0 0 1.00015 640.562 360.562)"/><path d="M92.8608-19.2673C164.32 74.6541 174.803 201.5 119.734 305.879" stroke="#B31729" stroke-width="4.70333" stroke-linecap="round" fill="none" transform="matrix(1 0 0 1.00015 640.562 360.562)"/><path d="M283.873 133.425C66.851 94.137-103.712-74.4921-145.471-291.052" stroke="#C14554" stroke-width="1.48298" stroke-linecap="round" fill="none" transform="matrix(1 0 0 1.00015 640.562 360.562)"/><path d="M283.64 138.54C147.286 143.051 21.0975 66.7298-38.2204-56.1284" stroke="#BB3141" stroke-width="3.33156" stroke-linecap="round" fill="none" transform="matrix(1 0 0 1.00015 640.562 360.562)"/><path d="M161.25-117.691C147.144 20.7208 52.5803 137.719-79.7945 180.54" stroke="#BD3847" stroke-width="2.79364" stroke-linecap="round" fill="none" transform="matrix(1 0 0 1.00015 640.562 360.562)"/><path d="M140.638-146.251C63.2248-170.509 5.42985-235.382-9.76315-315.072" stroke="#BE3E4D" stroke-width="2.27439" stroke-linecap="round" fill="none" transform="matrix(1 0 0 1.00015 640.562 360.562)"/><path d="M164.529-117.7C166.321-36.8035 123.49 38.5263 53.0555 78.3559" stroke="#C14654" stroke-width="1.39382" stroke-linecap="round" fill="none" transform="matrix(1 0 0 1.00015 640.562 360.562)"/><path d="M175.639-121.553C219.694-48.6291 219.684 42.7087 175.615 115.624" stroke="#5ADE59" stroke-width="3.52585" stroke-linecap="round" fill="none" transform="matrix(1 0 0 1.00015 640.562 360.562)"/><path d="M148.124-122.977C103.57-76.0492 37.5528-56.1273-25.5223-70.5766" stroke="#5FDE5E" stroke-width="3.19552" stroke-linecap="round" fill="none" transform="matrix(1 0 0 1.00015 640.562 360.562)"/><path d="M173.767-120.417C244.683 19.7179 224.919 188.678 123.575 308.662" stroke="#76E275" stroke-width="0.95702" stroke-linecap="round" fill="none" transform="matrix(1 0 0 1.00015 640.562 360.562)"/><path d="M23.6927 238.931C-21.1737 289.213-89.4065 311.823-155.421 298.282" stroke="#6CE06B" stroke-width="2.03396" stroke-linecap="round" fill="none" transform="matrix(1 0 0 1.00015 640.562 360.562)"/><path d="M-20.0982 336.432C-20.0982 348.073-29.5351 357.51-41.1761 357.51-52.8171 357.51-62.254 348.073-62.254 336.432-62.254 324.791-52.8171 315.354-41.1761 315.354-29.5351 315.354-20.0982 324.791-20.0982 336.432Z" stroke="#6B69A0" stroke-width="3.66572" fill="#9A96E5" transform="matrix(1 0 0 1.00015 640.562 360.562)"/><path d="M53.6294 88.5779C53.6294 100.219 44.1925 109.656 32.5515 109.656 20.9105 109.656 11.4736 100.219 11.4736 88.5779 11.4736 76.9369 20.9105 67.4999 32.5515 67.4999 44.1925 67.4999 53.6294 76.9369 53.6294 88.5779Z" stroke="#AE532E" stroke-width="3.66572" fill="#F97743" transform="matrix(1 0 0 1.00015 640.562 360.562)"/><path d="M-77.2659 46.3193C-77.2659 57.9603-86.7028 67.3972-98.3438 67.3972-109.985 67.3972-119.422 57.9603-119.422 46.3193-119.422 34.6783-109.985 25.2414-98.3438 25.2414-86.7028 25.2414-77.2659 34.6783-77.2659 46.3193Z" stroke="#AE532E" stroke-width="3.66572" fill="#F97743" transform="matrix(1 0 0 1.00015 640.562 360.562)"/><path d="M-200.681 87.6678C-200.681 99.3088-210.118 108.746-221.759 108.746-233.4 108.746-242.837 99.3088-242.837 87.6678-242.837 76.0268-233.4 66.5899-221.759 66.5899-210.118 66.5899-200.681 76.0268-200.681 87.6678Z" stroke="#AE532E" stroke-width="3.66572" fill="#F97743" transform="matrix(1 0 0 1.00015 640.562 360.562)"/><path d="M183.877 134.615C183.877 146.256 174.44 155.693 162.799 155.693 151.158 155.693 141.721 146.256 141.721 134.615 141.721 122.974 151.158 113.537 162.799 113.537 174.44 113.537 183.877 122.974 183.877 134.615Z" stroke="#1C7D4A" stroke-width="3.66572" fill="#28B36A" transform="matrix(1 0 0 1.00015 640.562 360.562)"/><path d="M-26.4128-77.0798C-26.4128-65.4388-35.8497-56.0019-47.4907-56.0019-59.1317-56.0019-68.5686-65.4388-68.5686-77.0798-68.5686-88.7208-59.1317-98.1577-47.4907-98.1577-35.8497-98.1577-26.4128-88.7208-26.4128-77.0798Z" stroke="#1C7D4A" stroke-width="3.66572" fill="#28B36A" transform="matrix(1 0 0 1.00015 640.562 360.562)"/><path d="M249.687 255.602C249.687 267.243 240.25 276.68 228.609 276.68 216.968 276.68 207.531 267.243 207.531 255.602 207.531 243.961 216.968 234.524 228.609 234.524 240.25 234.524 249.687 243.961 249.687 255.602Z" stroke="#1C7D4A" stroke-width="3.66572" fill="#28B36A" transform="matrix(1 0 0 1.00015 640.562 360.562)"/><path d="M332.632-125.324C332.632-113.683 323.195-104.246 311.554-104.246 299.913-104.246 290.476-113.683 290.476-125.324 290.476-136.965 299.913-146.402 311.554-146.402 323.195-146.402 332.632-136.965 332.632-125.324Z" stroke="#1C7D4A" stroke-width="3.66572" fill="#28B36A" transform="matrix(1 0 0 1.00015 640.562 360.562)"/><path d="M129.363 325.724C129.363 337.365 119.926 346.802 108.285 346.802 96.6443 346.802 87.2074 337.365 87.2074 325.724 87.2074 314.083 96.6443 304.647 108.285 304.647 119.926 304.647 129.363 314.083 129.363 325.724Z" stroke="#1C7D4A" stroke-width="3.66572" fill="#28B36A" transform="matrix(1 0 0 1.00015 640.562 360.562)"/><path d="M-90.97-190.217C-90.97-178.576-100.407-169.139-112.048-169.139-123.689-169.139-133.126-178.576-133.126-190.217-133.126-201.858-123.689-211.295-112.048-211.295-100.407-211.295-90.97-201.858-90.97-190.217Z" stroke="#6B69A0" stroke-width="3.66572" fill="#9A96E5" transform="matrix(1 0 0 1.00015 640.562 360.562)"/><path d="M-306.995-99.6969C-306.995-88.0559-316.431-78.619-328.073-78.619-339.714-78.619-349.15-88.0559-349.15-99.6969-349.15-111.338-339.714-120.775-328.073-120.775-316.431-120.775-306.995-111.338-306.995-99.6969Z" stroke="#AE532E" stroke-width="3.66572" fill="#F97743" transform="matrix(1 0 0 1.00015 640.562 360.562)"/><path d="M227.981 1.76954C227.981 13.4105 218.544 22.8474 206.903 22.8474 195.262 22.8474 185.825 13.4105 185.825 1.76954 185.825-9.87147 195.262-19.3084 206.903-19.3084 218.544-19.3084 227.981-9.87147 227.981 1.76954Z" stroke="#AE532E" stroke-width="3.66572" fill="#F97743" transform="matrix(1 0 0 1.00015 640.562 360.562)"/><path d="M362.645 6.19119C362.645 17.8322 353.208 27.2691 341.567 27.2691 329.926 27.2691 320.489 17.8322 320.489 6.19119 320.489-5.44982 329.926-14.8867 341.567-14.8867 353.208-14.8867 362.645-5.44982 362.645 6.19119Z" stroke="#6B69A0" stroke-width="3.66572" fill="#9A96E5" transform="matrix(1 0 0 1.00015 640.562 360.562)"/><path d="M-263.808 197.184C-263.808 208.825-273.245 218.262-284.886 218.262-296.527 218.262-305.964 208.825-305.964 197.184-305.964 185.543-296.527 176.106-284.886 176.106-273.245 176.106-263.808 185.543-263.808 197.184Z" stroke="#6B69A0" stroke-width="3.66572" fill="#9A96E5" transform="matrix(1 0 0 1.00015 640.562 360.562)"/><path d="M-156.467 292.327C-156.467 303.968-165.904 313.405-177.545 313.405-189.186 313.405-198.623 303.968-198.623 292.327-198.623 280.686-189.186 271.249-177.545 271.249-165.904 271.249-156.467 280.686-156.467 292.327Z" stroke="#AE532E" stroke-width="3.66572" fill="#F97743" transform="matrix(1 0 0 1.00015 640.562 360.562)"/><path d="M54.6506-200.604C54.6506-188.963 45.2137-179.526 33.5727-179.526 21.9317-179.526 12.4948-188.963 12.4948-200.604 12.4948-212.245 21.9317-221.682 33.5727-221.682 45.2137-221.682 54.6506-212.245 54.6506-200.604Z" stroke="#1C7D4A" stroke-width="3.66572" fill="#28B36A" transform="matrix(1 0 0 1.00015 640.562 360.562)"/><path d="M-180.542-63.3442C-180.542-51.7032-189.979-42.2663-201.62-42.2663-213.261-42.2663-222.698-51.7032-222.698-63.3442-222.698-74.9853-213.261-84.4221-201.62-84.4221-189.979-84.4221-180.542-74.9853-180.542-63.3442Z" stroke="#1C7D4A" stroke-width="3.66572" fill="#28B36A" transform="matrix(1 0 0 1.00015 640.562 360.562)"/><path d="M141.29-312.82C141.29-301.179 131.853-291.742 120.212-291.742 108.571-291.742 99.1337-301.179 99.1337-312.82 99.1337-324.461 108.571-333.898 120.212-333.898 131.853-333.898 141.29-324.461 141.29-312.82Z" stroke="#6B69A0" stroke-width="3.66572" fill="#9A96E5" transform="matrix(1 0 0 1.00015 640.562 360.562)"/><path d="M-230.768-212.62C-230.768-200.979-240.204-191.542-251.845-191.542-263.486-191.542-272.923-200.979-272.923-212.62-272.923-224.261-263.486-233.698-251.845-233.698-240.204-233.698-230.768-224.261-230.768-212.62Z" stroke="#6B69A0" stroke-width="3.66572" fill="#9A96E5" transform="matrix(1 0 0 1.00015 640.562 360.562)"/><path d="M260.862-248.791C260.862-237.15 251.425-227.713 239.784-227.713 228.143-227.713 218.707-237.15 218.707-248.791 218.707-260.432 228.143-269.869 239.784-269.869 251.425-269.869 260.862-260.432 260.862-248.791Z" stroke="#AE532E" stroke-width="3.66572" fill="#F97743" transform="matrix(1 0 0 1.00015 640.562 360.562)"/><path d="M-321.479 42.1651C-321.479 53.8061-330.916 63.243-342.557 63.243-354.198 63.243-363.635 53.8061-363.635 42.1651-363.635 30.5241-354.198 21.0872-342.557 21.0872-330.916 21.0872-321.479 30.5241-321.479 42.1651Z" stroke="#6B69A0" stroke-width="3.66572" fill="#9A96E5" transform="matrix(1 0 0 1.00015 640.562 360.562)"/><path d="M99.3873-36.9637C99.3873-25.3227 89.9504-15.8858 78.3094-15.8858 66.6684-15.8858 57.2315-25.3227 57.2315-36.9637 57.2315-48.6047 66.6684-58.0416 78.3094-58.0416 89.9504-58.0416 99.3873-48.6047 99.3873-36.9637Z" stroke="#6B69A0" stroke-width="3.66572" fill="#9A96E5" transform="matrix(1 0 0 1.00015 640.562 360.562)"/><path d="M-80.7338 186.876C-80.7338 198.518-90.1707 207.954-101.812 207.954-113.453 207.954-122.89 198.518-122.89 186.876-122.89 175.235-113.453 165.799-101.812 165.799-90.1707 165.799-80.7338 175.235-80.7338 186.876Z" stroke="#AE532E" stroke-width="3.66572" fill="#F97743" transform="matrix(1 0 0 1.00015 640.562 360.562)"/><path d="M8.20113-337.77C8.20113-326.129-1.23578-316.692-12.8768-316.692-24.5178-316.692-33.9547-326.129-33.9547-337.77-33.9547-349.411-24.5178-358.848-12.8768-358.848-1.23578-358.848 8.20113-349.411 8.20113-337.77Z" stroke="#AE532E" stroke-width="3.66572" fill="#F97743" transform="matrix(1 0 0 1.00015 640.562 360.562)"/><path d="M327.578 137.022C327.578 148.663 318.141 158.099 306.5 158.099 294.859 158.099 285.422 148.663 285.422 137.022 285.422 125.381 294.859 115.944 306.5 115.944 318.141 115.944 327.578 125.381 327.578 137.022Z" stroke="#6B69A0" stroke-width="3.66572" fill="#9A96E5" transform="matrix(1 0 0 1.00015 640.562 360.562)"/><path d="M-128.248-313.637C-128.248-301.996-137.684-292.559-149.325-292.559-160.966-292.559-170.403-301.996-170.403-313.637-170.403-325.278-160.966-334.715-149.325-334.715-137.684-334.715-128.248-325.278-128.248-313.637Z" stroke="#AE532E" stroke-width="3.66572" fill="#F97743" transform="matrix(1 0 0 1.00015 640.562 360.562)"/><path d="M183.905-140.547C183.905-128.906 174.469-119.469 162.828-119.469 151.187-119.469 141.75-128.906 141.75-140.547 141.75-152.188 151.187-161.625 162.828-161.625 174.469-161.625 183.905-152.188 183.905-140.547Z" stroke="#6B69A0" stroke-width="3.66572" fill="#9A96E5" transform="matrix(1 0 0 1.00015 640.562 360.562)"/><path d="M58.9607 220.943C58.9607 232.584 49.5238 242.021 37.8828 242.021 26.2418 242.021 16.8049 232.584 16.8049 220.943 16.8049 209.302 26.2418 199.865 37.8828 199.865 49.5238 199.865 58.9607 209.302 58.9607 220.943Z" stroke="#6B69A0" stroke-width="3.66572" fill="#9A96E5" transform="matrix(1 0 0 1.00015 640.562 360.562)"/></g></g></g><text font-family="Times New Roman,Times New Roman_MSFontService,sans-serif" font-style="italic" font-weight="400" font-size="24" transform="translate(698.177 329)">norB</text><text font-family="Times New Roman,Times New Roman_MSFontService,sans-serif" font-weight="400" font-size="24" transform="translate(740.959 694)">T</text><text font-family="Times New Roman,Times New Roman_MSFontService,sans-serif" font-style="italic" font-weight="400" font-size="24" transform="translate(925.399 373)">AOA_amoA</text><text font-family="Times New Roman,Times New Roman_MSFontService,sans-serif" font-weight="400" font-size="24" transform="translate(651.324 458)">HIX</text><text font-family="Times New Roman,Times New Roman_MSFontService,sans-serif" font-weight="400" font-size="24" transform="translate(639.493 168)">W</text><text font-family="Times New Roman,Times New Roman_MSFontService,sans-serif" font-weight="400" font-size="24" transform="translate(660.833 168)">-</text><text font-family="Cambria Math,Cambria Math_MSFontService,sans-serif" font-weight="400" font-size="24" transform="translate(668.833 168)">NO</text><text font-family="Cambria Math,Cambria Math_MSFontService,sans-serif" font-weight="400" font-size="18" transform="translate(700.833 173)">2</text><text font-family="Cambria Math,Cambria Math_MSFontService,sans-serif" font-weight="400" font-size="18" transform="translate(700.833 158)">−</text><text font-family="Times New Roman,Times New Roman_MSFontService,sans-serif" font-style="italic" font-weight="400" font-size="24" transform="translate(499.793 706)">Bacterial 16S rRNA</text><text font-family="Times New Roman,Times New Roman_MSFontService,sans-serif" font-weight="400" font-size="24" transform="translate(414.168 305)">COD</text><text font-family="Times New Roman,Times New Roman_MSFontService,sans-serif" font-weight="400" font-size="24" transform="translate(856.768 121)">S</text><text font-family="Times New Roman,Times New Roman_MSFontService,sans-serif" font-weight="400" font-size="24" transform="translate(870.101 121)">-</text><text font-family="Times New Roman,Times New Roman_MSFontService,sans-serif" font-weight="400" font-size="24" transform="translate(878.101 121)">TP</text><text font-family="Times New Roman,Times New Roman_MSFontService,sans-serif" font-weight="400" font-size="24" transform="translate(275.919 269)">Ⅲ</text><text font-family="Times New Roman,Times New Roman_MSFontService,sans-serif" font-weight="400" font-size="24" transform="translate(298.919 269)">-</text><text font-family="Times New Roman,Times New Roman_MSFontService,sans-serif" font-weight="400" font-size="24" transform="translate(306.919 269)">Area</text><text font-family="Times New Roman,Times New Roman_MSFontService,sans-serif" font-weight="400" font-size="24" transform="translate(379.525 454)">Ⅳ</text><text font-family="Times New Roman,Times New Roman_MSFontService,sans-serif" font-weight="400" font-size="24" transform="translate(404.691 454)">-</text><text font-family="Times New Roman,Times New Roman_MSFontService,sans-serif" font-weight="400" font-size="24" transform="translate(412.691 454)">Area</text><text font-family="Times New Roman,Times New Roman_MSFontService,sans-serif" font-weight="400" font-size="24" transform="translate(812.842 372)">Ⅴ</text><text font-family="Times New Roman,Times New Roman_MSFontService,sans-serif" font-weight="400" font-size="24" transform="translate(830.175 372)">-</text><text font-family="Times New Roman,Times New Roman_MSFontService,sans-serif" font-weight="400" font-size="24" transform="translate(838.175 372)">Area</text><text font-family="Times New Roman,Times New Roman_MSFontService,sans-serif" font-weight="400" font-size="24" transform="translate(916.624 241)">W</text><text font-family="Times New Roman,Times New Roman_MSFontService,sans-serif" font-weight="400" font-size="24" transform="translate(937.964 241)">-</text><text font-family="Cambria Math,Cambria Math_MSFontService,sans-serif" font-weight="400" font-size="24" transform="translate(945.964 241)">NH</text><text font-family="Cambria Math,Cambria Math_MSFontService,sans-serif" font-weight="400" font-size="18" transform="translate(978.797 247)">4</text><text font-family="Cambria Math,Cambria Math_MSFontService,sans-serif" font-weight="400" font-size="18" transform="translate(979.557 232)">+</text><text font-family="Times New Roman,Times New Roman_MSFontService,sans-serif" font-weight="400" font-size="24" transform="translate(576.314 291)">DO</text><text font-family="Times New Roman,Times New Roman_MSFontService,sans-serif" font-weight="400" font-size="24" transform="translate(838.367 624)">W</text><text font-family="Times New Roman,Times New Roman_MSFontService,sans-serif" font-weight="400" font-size="24" transform="translate(859.707 624)">-</text><text font-family="Times New Roman,Times New Roman_MSFontService,sans-serif" font-weight="400" font-size="24" transform="translate(867.707 624)">TN</text><text font-family="Times New Roman,Times New Roman_MSFontService,sans-serif" font-weight="400" font-size="24" transform="translate(482.239 554)">S</text><text font-family="Times New Roman,Times New Roman_MSFontService,sans-serif" font-weight="400" font-size="24" transform="translate(495.572 554)">-</text><text font-family="Times New Roman,Times New Roman_MSFontService,sans-serif" font-weight="400" font-size="24" transform="translate(503.572 554)">Size</text><text font-family="Times New Roman,Times New Roman_MSFontService,sans-serif" font-weight="400" font-size="24" transform="translate(544.905 554)">-</text><text font-family="Times New Roman,Times New Roman_MSFontService,sans-serif" font-weight="400" font-size="24" transform="translate(552.905 554)">d(0.5)</text><text font-family="Times New Roman,Times New Roman_MSFontService,sans-serif" font-weight="400" font-size="24" transform="translate(561.286 28)">S</text><text font-family="Times New Roman,Times New Roman_MSFontService,sans-serif" font-weight="400" font-size="24" transform="translate(574.619 28)">-</text><text font-family="Times New Roman,Times New Roman_MSFontService,sans-serif" font-weight="400" font-size="24" transform="translate(582.619 28)">Size</text><text font-family="Times New Roman,Times New Roman_MSFontService,sans-serif" font-weight="400" font-size="24" transform="translate(623.952 28)">-</text><text font-family="Times New Roman,Times New Roman_MSFontService,sans-serif" font-weight="400" font-size="24" transform="translate(631.952 28)">d(0.9)</text><text font-family="Times New Roman,Times New Roman_MSFontService,sans-serif" font-weight="400" font-size="24" transform="translate(451.672 662)">FI</text><text font-family="Times New Roman,Times New Roman_MSFontService,sans-serif" font-weight="400" font-size="24" transform="translate(788.845 500)">pH</text><text font-family="Times New Roman,Times New Roman_MSFontService,sans-serif" font-weight="400" font-size="24" transform="translate(512.483 412)">Ⅰ</text><text font-family="Times New Roman,Times New Roman_MSFontService,sans-serif" font-weight="400" font-size="24" transform="translate(520.483 412)">-</text><text font-family="Times New Roman,Times New Roman_MSFontService,sans-serif" font-weight="400" font-size="24" transform="translate(528.483 412)">Area</text><text font-family="Times New Roman,Times New Roman_MSFontService,sans-serif" font-style="italic" font-weight="400" font-size="24" transform="translate(440.265 176)">Archaeal 16S rRNA</text><text font-family="Times New Roman,Times New Roman_MSFontService,sans-serif" font-style="italic" font-weight="400" font-size="24" transform="translate(333.79 564)">nxrA</text><text font-family="Times New Roman,Times New Roman_MSFontService,sans-serif" font-style="italic" font-weight="400" font-size="24" transform="translate(654.565 588)">nifH</text><text font-family="Times New Roman,Times New Roman_MSFontService,sans-serif" font-style="italic" font-weight="400" font-size="24" transform="translate(926.101 507)">hzsA</text><text font-family="Times New Roman,Times New Roman_MSFontService,sans-serif" font-style="italic" font-weight="400" font-size="24" transform="translate(787.386 228)">hzo</text><text font-family="Times New Roman,Times New Roman_MSFontService,sans-serif" font-style="italic" font-weight="400" font-size="24" transform="translate(275.919 412)">nirK</text><text font-family="Times New Roman,Times New Roman_MSFontService,sans-serif" font-style="italic" font-weight="400" font-size="24" transform="translate(735.857 56)">narG</text><text font-family="Times New Roman,Times New Roman_MSFontService,sans-serif" font-weight="400" font-size="24" transform="translate(463.894 54)">S</text><text font-family="Times New Roman,Times New Roman_MSFontService,sans-serif" font-weight="400" font-size="24" transform="translate(477.227 54)">-</text><text font-family="Times New Roman,Times New Roman_MSFontService,sans-serif" font-weight="400" font-size="24" transform="translate(485.227 54)">TN</text><text font-family="Times New Roman,Times New Roman_MSFontService,sans-serif" font-style="italic" font-weight="400" font-size="24" transform="translate(365.207 155)">napA</text></g></svg>