<?xml version="1.0" encoding="UTF-8"?>
<!DOCTYPE svg PUBLIC "-//W3C//DTD SVG 1.1//EN"
    "http://www.w3.org/Graphics/SVG/1.1/DTD/svg11.dtd" >
<svg contentScriptType="text/ecmascript" width="1300.0"
     xmlns:xlink="http://www.w3.org/1999/xlink" zoomAndPan="magnify"
     contentStyleType="text/css"
     viewBox="-651.000000 -642.000000 1300.000000 1282.000000" height="1282.0"
     preserveAspectRatio="xMidYMid meet" xmlns="http://www.w3.org/2000/svg"
     version="1.1">
    <g id="edges">
        <path stroke-linecap="round" fill="none"
              class="id_Bacterial_16S_rRNA id_HIX"
              d="M -85.430779,560.161499 A 383.747899,383.747899 0,0 1,26.536703,183.754623"
              stroke="#02d000" stroke-width="10.0" stroke-opacity="1.0"/>
        <path stroke-linecap="round" fill="none"
              class="id_Bacterial_16S_rRNA id_Ⅰ-Area"
              d="M -102.354332,570.453125 A 438.811170,438.811170 0,0 1,-191.112534,120.026993"
              stroke="#ac0014" stroke-width="9.447757" stroke-opacity="1.0"/>
        <path stroke-linecap="round" fill="none"
              class="id_Bacterial_16S_rRNA id_Ⅳ-Area"
              d="M -111.735329,585.360413 A 456.184725,456.184725 0,0 1,-393.724762,196.903412"
              stroke="#b31729" stroke-width="8.41545" stroke-opacity="1.0"/>
        <path stroke-linecap="round" fill="none"
              class="id_Bacterial_16S_rRNA id_W-pH"
              d="M -65.415947,559.099243 A 425.827569,425.827569 0,0 1,249.808670,247.210281"
              stroke="#af0b1e" stroke-width="9.026636" stroke-opacity="1.0"/>
        <path stroke-linecap="round" fill="none"
              class="id_Bacterial_16S_rRNA id_W-DO"
              d="M -97.216614,566.050110 A 613.730088,613.730088 0,0 1,-107.440804,-103.476677"
              stroke="#b00e20" stroke-width="8.916506" stroke-opacity="1.0"/>
        <path stroke-linecap="round" fill="none"
              class="id_Bacterial_16S_rRNA id_W-TN"
              d="M -47.513344,567.529297 A 417.949711,417.949711 0,0 1,368.178040,442.984894"
              stroke="#67e066" stroke-width="4.429948" stroke-opacity="1.0"/>
        <path stroke-linecap="round" fill="none"
              class="id_Bacterial_16S_rRNA id_W-NH_{4}^{+}"
              d="M -72.001968,558.346436 A 862.311571,862.311571 0,0 1,515.827454,-211.176849"
              stroke="#6ae069" stroke-width="4.0068307"
              stroke-opacity="0.99607843"/>
        <path stroke-linecap="round" fill="none"
              class="id_Bacterial_16S_rRNA id_W-T"
              d="M -40.195869,575.314148 A 222.371919,222.371919 0,0 1,156.649734,561.212402"
              stroke="#ae091c" stroke-width="9.133604" stroke-opacity="1.0"/>
        <path stroke-linecap="round" fill="none"
              class="id_Archaeal_16S_rRNA id_Ⅲ-Area"
              d="M -222.210327,-304.822968 A 347.591692,347.591692 0,0 1,-544.157410,-169.918030"
              stroke="#bb3343" stroke-width="5.6602864" stroke-opacity="1.0"/>
        <path stroke-linecap="round" fill="none"
              class="id_Archaeal_16S_rRNA id_Ⅴ-Area"
              d="M -158.822784,-341.382172 A 552.462899,552.462899 0,0 1,351.731964,-34.062927"
              stroke="#bd3847" stroke-width="4.9661155" stroke-opacity="1.0"/>
        <path stroke-linecap="round" fill="none" class="id_AOA_amoA id_Ⅲ-Area"
              d="M 571.827209,29.371914 A 1006.104188,1006.104188 0,0 1,-555.234924,-148.847061"
              stroke="#bb3343" stroke-width="5.6887193" stroke-opacity="1.0"/>
        <path stroke-linecap="round" fill="none" class="id_AOA_amoA id_Ⅴ-Area"
              d="M 572.631287,30.888723 A 199.951037,199.951037 0,0 1,402.716125,25.309599"
              stroke="#bc3747" stroke-width="5.037324" stroke-opacity="1.0"/>
        <path stroke-linecap="round" fill="none" class="id_nxrA id_FI"
              d="M -467.174194,358.361572 A 212.864740,212.864740 0,0 1,-328.156555,481.581421"
              stroke="#bd3948" stroke-width="4.8314037" stroke-opacity="1.0"/>
        <path stroke-linecap="round" fill="none" class="id_nxrA id_W-NO_{2}^{-}"
              d="M -504.943329,310.419067 A 756.196259,756.196259 0,0 1,20.566782,-345.997101"
              stroke="#c24957" stroke-width="1.8799002" stroke-opacity="1.0"/>
        <path stroke-linecap="round" fill="none" class="id_nxrA id_W-COD"
              d="M -518.758850,311.982056 A 405.894632,405.894632 0,0 1,-391.074707,-87.525177"
              stroke="#c34d5b" stroke-width="1.0" stroke-opacity="1.0"/>
        <path stroke-linecap="round" fill="none" class="id_narG id_FI"
              d="M 220.811523,-516.836487 A 1000.872966,1000.872966 0,0 1,-280.184265,501.365936"
              stroke="#71e170" stroke-width="2.6635873" stroke-opacity="1.0"/>
        <path stroke-linecap="round" fill="none" class="id_napA id_S-TP"
              d="M -417.000549,-404.579742 A 731.559775,731.559775 0,0 1,392.064484,-464.105652"
              stroke="#b31729" stroke-width="8.403391" stroke-opacity="1.0"/>
        <path stroke-linecap="round" fill="none" class="id_napA id_Ⅰ-Area"
              d="M -411.541016,-361.339417 A 446.717766,446.717766 0,0 1,-172.576202,41.766666"
              stroke="#6fe16e" stroke-width="3.0283027" stroke-opacity="1.0"/>
        <path stroke-linecap="round" fill="none" class="id_napA id_Ⅴ-Area"
              d="M -408.345093,-385.910095 A 751.466187,751.466187 0,0 1,348.281647,-32.311031"
              stroke="#be3c4b" stroke-width="4.266561" stroke-opacity="1.0"/>
        <path stroke-linecap="round" fill="none" class="id_napA id_W-pH"
              d="M -407.819427,-375.416168 A 802.608814,802.608814 0,0 1,279.602295,200.250336"
              stroke="#5dde5b" stroke-width="6.0164022" stroke-opacity="1.0"/>
        <path stroke-linecap="round" fill="none" class="id_napA id_W-DO"
              d="M -407.692017,-378.711151 A 363.908626,363.908626 0,0 1,-100.375893,-174.880524"
              stroke="#53dc51" stroke-width="7.129726" stroke-opacity="1.0"/>
        <path stroke-linecap="round" fill="none" class="id_napA id_W-T"
              d="M -410.292023,-364.306793 A 961.191673,961.191673 0,0 1,194.170334,539.279053"
              stroke="#43da42" stroke-width="8.389084" stroke-opacity="1.0"/>
        <path stroke-linecap="round" fill="none" class="id_nirK id_Ⅲ-Area"
              d="M -627.602539,38.265606 A 211.620208,211.620208 0,0 1,-608.888062,-145.030075"
              stroke="#c04352" stroke-width="3.057249" stroke-opacity="1.0"/>
        <path stroke-linecap="round" fill="none" class="id_nirK id_Ⅴ-Area"
              d="M -578.615784,49.056992 A 817.608915,817.608915 0,0 1,333.571777,-18.005846"
              stroke="#bd3948" stroke-width="4.7952847" stroke-opacity="1.0"/>
        <path stroke-linecap="round" fill="none"
              class="id_cnorB id_S-Size-d(0.5)"
              d="M 136.115067,-25.162666 A 426.375843,426.375843 0,0 1,-142.301544,320.831421"
              stroke="#44da42" stroke-width="8.364766" stroke-opacity="1.0"/>
        <path stroke-linecap="round" fill="none"
              class="id_cnorB id_S-Size-d(0.9)"
              d="M 107.645828,-91.375938 A 466.462384,466.462384 0,0 1,-35.199554,-562.596863"
              stroke="#47da45" stroke-width="8.173304" stroke-opacity="1.0"/>
        <path stroke-linecap="round" fill="none" class="id_cnorB id_HIX"
              d="M 147.197464,-25.767078 A 198.295382,198.295382 0,0 1,89.671951,132.060165"
              stroke="#6ee16d" stroke-width="3.2377775" stroke-opacity="1.0"/>
        <path stroke-linecap="round" fill="none" class="id_cnorB id_W-pH"
              d="M 174.414642,-44.790798 A 283.822977,283.822977 0,0 1,294.557068,199.189987"
              stroke="#b41c2e" stroke-width="8.036014" stroke-opacity="1.0"/>
        <path stroke-linecap="round" fill="none" class="id_cnorB id_W-DO"
              d="M 99.734230,-56.503941 A 195.952064,195.952064 0,0 1,-57.580864,-106.669853"
              stroke="#b31a2c" stroke-width="8.21062" stroke-opacity="1.0"/>
        <path stroke-linecap="round" fill="none" class="id_cnorB id_W-T"
              d="M 165.368515,-34.311718 A 540.070983,540.070983 0,0 1,213.224854,544.716431"
              stroke="#b31729" stroke-width="8.375797" stroke-opacity="1.0"/>
        <path stroke-linecap="round" fill="none" class="id_hzsA id_S-TN"
              d="M 505.527893,237.605667 A 951.242435,951.242435 0,0 1,-259.057739,-518.312561"
              stroke="#c14554" stroke-width="2.6409261" stroke-opacity="1.0"/>
        <path stroke-linecap="round" fill="none" class="id_hzsA id_W-DO"
              d="M 505.111633,246.714386 A 613.940405,613.940405 0,0 1,-68.063698,-99.954613"
              stroke="#bb3141" stroke-width="5.932909" stroke-opacity="1.0"/>
        <path stroke-linecap="round" fill="none" class="id_hzo id_S-Size-d(0.5)"
              d="M 287.157715,-209.586105 A 624.770127,624.770127 0,0 1,-142.099731,321.510468"
              stroke="#bd3847" stroke-width="4.9749775" stroke-opacity="1.0"/>
        <path stroke-linecap="round" fill="none" class="id_hzo id_S-Size-d(0.9)"
              d="M 250.451447,-260.446716 A 391.985916,391.985916 0,0 1,-17.386425,-561.087219"
              stroke="#be3e4d" stroke-width="4.050291" stroke-opacity="1.0"/>
        <path stroke-linecap="round" fill="none" class="id_hzo id_HIX"
              d="M 292.996582,-209.601929 A 391.145309,391.145309 0,0 1,94.482384,139.537827"
              stroke="#c14654" stroke-width="2.4821393" stroke-opacity="1.0"/>
        <path stroke-linecap="round" fill="none" class="id_hzo id_W-pH"
              d="M 312.782166,-216.464722 A 408.345372,408.345372 0,0 1,312.738525,205.905334"
              stroke="#5ade59" stroke-width="6.2789083" stroke-opacity="1.0"/>
        <path stroke-linecap="round" fill="none" class="id_hzo id_W-DO"
              d="M 263.781769,-219.000610 A 326.017748,326.017748 0,0 1,-45.450699,-125.684280"
              stroke="#5fde5e" stroke-width="5.6906433" stroke-opacity="1.0"/>
        <path stroke-linecap="round" fill="none" class="id_hzo id_W-T"
              d="M 309.447479,-214.440369 A 696.673455,696.673455 0,0 1,220.065292,549.672119"
              stroke="#76e275" stroke-width="1.7042829" stroke-opacity="1.0"/>
        <path stroke-linecap="round" fill="none" class="id_nifH id_FI"
              d="M 42.192532,425.493073 A 336.792462,336.792462 0,0 1,-276.777466,531.186584"
              stroke="#6ce06b" stroke-width="3.622124" stroke-opacity="1.0"/>
    </g>
    <g id="nodes">
        <circle fill-opacity="1.0" fill="#9a96e5" r="37.536003" cx="-73.32727"
                class="id_Bacterial_16S_rRNA" cy="599.1249" stroke="#6b69a0"
                stroke-opacity="1.0" stroke-width="6.5280004"/>
        <circle fill-opacity="1.0" fill="#f97743" r="37.536003" cx="57.96841"
                class="id_HIX" cy="157.7414" stroke="#ae532e"
                stroke-opacity="1.0" stroke-width="6.5280004"/>
        <circle fill-opacity="1.0" fill="#f97743" r="37.536003" cx="-175.13284"
                class="id_Ⅰ-Area" cy="82.48649" stroke="#ae532e"
                stroke-opacity="1.0" stroke-width="6.5280004"/>
        <circle fill-opacity="1.0" fill="#f97743" r="37.536003" cx="-394.9137"
                class="id_Ⅳ-Area" cy="156.12074" stroke="#ae532e"
                stroke-opacity="1.0" stroke-width="6.5280004"/>
        <circle fill-opacity="1.0" fill="#28b36a" r="37.536003" cx="289.9162"
                class="id_W-pH" cy="239.72519" stroke="#1c7d4a"
                stroke-opacity="1.0" stroke-width="6.5280004"/>
        <circle fill-opacity="1.0" fill="#28b36a" r="37.536003" cx="-84.57252"
                class="id_W-DO" cy="-137.26546" stroke="#1c7d4a"
                stroke-opacity="1.0" stroke-width="6.5280004"/>
        <circle fill-opacity="1.0" fill="#28b36a" r="37.536003" cx="407.11243"
                class="id_W-TN" cy="455.1814" stroke="#1c7d4a"
                stroke-opacity="1.0" stroke-width="6.5280004"/>
        <circle fill-opacity="1.0" fill="#28b36a" r="37.536003" cx="554.8217"
                class="id_W-NH_{4}^{+}" cy="-223.18045" stroke="#1c7d4a"
                stroke-opacity="1.0" stroke-width="6.5280004"/>
        <circle fill-opacity="1.0" fill="#28b36a" r="37.536003" cx="192.83691"
                class="id_W-T" cy="580.05725" stroke="#1c7d4a"
                stroke-opacity="1.0" stroke-width="6.5280004"/>
        <circle fill-opacity="1.0" fill="#9a96e5" r="37.536003" cx="-199.53734"
                class="id_Archaeal_16S_rRNA" cy="-338.7431" stroke="#6b69a0"
                stroke-opacity="1.0" stroke-width="6.5280004"/>
        <circle fill-opacity="1.0" fill="#f97743" r="37.536003" cx="-584.2387"
                class="id_Ⅲ-Area" cy="-177.54237" stroke="#ae532e"
                stroke-opacity="1.0" stroke-width="6.5280004"/>
        <circle fill-opacity="1.0" fill="#f97743" r="37.536003" cx="368.45758"
                class="id_Ⅴ-Area" cy="3.1512327" stroke="#ae532e"
                stroke-opacity="1.0" stroke-width="6.5280004"/>
        <circle fill-opacity="1.0" fill="#9a96e5" r="37.536003" cx="608.2696"
                class="id_AOA_amoA" cy="11.025404" stroke="#6b69a0"
                stroke-opacity="1.0" stroke-width="6.5280004"/>
        <circle fill-opacity="1.0" fill="#9a96e5" r="37.536003" cx="-507.33163"
                class="id_nxrA" cy="351.1491" stroke="#6b69a0"
                stroke-opacity="1.0" stroke-width="6.5280004"/>
        <circle fill-opacity="1.0" fill="#f97743" r="37.536003" cx="-316.17538"
                class="id_FI" cy="520.5826" stroke="#ae532e"
                stroke-opacity="1.0" stroke-width="6.5280004"/>
        <circle fill-opacity="1.0" fill="#28b36a" r="37.536003" cx="59.78703"
                class="id_W-NO_{2}^{-}" cy="-357.24042" stroke="#1c7d4a"
                stroke-opacity="1.0" stroke-width="6.5280004"/>
        <circle fill-opacity="1.0" fill="#28b36a" r="37.536003" cx="-359.05005"
                class="id_W-COD" cy="-112.804825" stroke="#1c7d4a"
                stroke-opacity="1.0" stroke-width="6.5280004"/>
        <circle fill-opacity="1.0" fill="#9a96e5" r="37.536003" cx="214.07544"
                class="id_narG" cy="-557.0766" stroke="#6b69a0"
                stroke-opacity="1.0" stroke-width="6.5280004"/>
        <circle fill-opacity="1.0" fill="#9a96e5" r="37.536003" cx="-448.49194"
                class="id_napA" cy="-378.63882" stroke="#6b69a0"
                stroke-opacity="1.0" stroke-width="6.5280004"/>
        <circle fill-opacity="1.0" fill="#f97743" r="37.536003" cx="427.0134"
                class="id_S-TP" cy="-443.053" stroke="#ae532e"
                stroke-opacity="1.0" stroke-width="6.5280004"/>
        <circle fill-opacity="1.0" fill="#9a96e5" r="37.536003" cx="-610.03235"
                class="id_nirK" cy="75.08853" stroke="#6b69a0"
                stroke-opacity="1.0" stroke-width="6.5280004"/>
        <circle fill-opacity="1.0" fill="#9a96e5" r="37.536003" cx="139.45506"
                class="id_cnorB" cy="-65.82573" stroke="#6b69a0"
                stroke-opacity="1.0" stroke-width="6.5280004"/>
        <circle fill-opacity="1.0" fill="#f97743" r="37.536003" cx="-181.3085"
                class="id_S-Size-d(0.5)" cy="332.79376" stroke="#ae532e"
                stroke-opacity="1.0" stroke-width="6.5280004"/>
        <circle fill-opacity="1.0" fill="#f97743" r="37.536003" cx="-22.93126"
                class="id_S-Size-d(0.9)" cy="-601.50867" stroke="#ae532e"
                stroke-opacity="1.0" stroke-width="6.5280004"/>
        <circle fill-opacity="1.0" fill="#9a96e5" r="37.536003" cx="545.82196"
                class="id_hzsA" cy="244.01094" stroke="#6b69a0"
                stroke-opacity="1.0" stroke-width="6.5280004"/>
        <circle fill-opacity="1.0" fill="#f97743" r="37.536003" cx="-265.92197"
                class="id_S-TN" cy="-558.531" stroke="#ae532e"
                stroke-opacity="1.0" stroke-width="6.5280004"/>
        <circle fill-opacity="1.0" fill="#9a96e5" r="37.536003" cx="289.96686"
                class="id_hzo" cy="-250.28929" stroke="#6b69a0"
                stroke-opacity="1.0" stroke-width="6.5280004"/>
        <circle fill-opacity="1.0" fill="#9a96e5" r="37.536003" cx="67.462555"
                class="id_nifH" cy="393.46082" stroke="#6b69a0"
                stroke-opacity="1.0" stroke-width="6.5280004"/>
    </g>
</svg>