<svg width="1280" height="720" xmlns="http://www.w3.org/2000/svg" xmlns:xlink="http://www.w3.org/1999/xlink" overflow="hidden"><defs><clipPath id="clip0"><rect x="0" y="0" width="1280" height="720"/></clipPath><clipPath id="clip1"><rect x="279" y="0" width="722" height="720"/></clipPath><clipPath id="clip2"><rect x="279" y="0" width="722" height="720"/></clipPath><clipPath id="clip3"><rect x="279" y="0" width="722" height="720"/></clipPath></defs><g clip-path="url(#clip0)"><rect x="0" y="0" width="1280" height="720" fill="#FFFFFF"/><g clip-path="url(#clip1)"><g clip-path="url(#clip2)"><g clip-path="url(#clip3)"><path d="M-187.737-112.454C-136.411-190.624 57.8335-230.89 136.004-179.564" stroke="#BB646E" stroke-width="3.77951" fill="none" transform="matrix(1.00057 0 0 1 640.265 362.118)"/><path d="M0.33914-339.319C-27.6248-278.332-161.05-228.799-222.037-256.763" stroke="#1ACF18" stroke-width="4.9019" fill="none" transform="matrix(1.00057 0 0 1 640.265 362.118)"/><path d="M0.33914-339.319C60.2255-216.82-33.6936 56.7584-156.193 116.645" stroke="#2ACF29" stroke-width="3.54132" fill="none" transform="matrix(1.00057 0 0 1 640.265 362.118)"/><path d="M109.671 318.848C0.208401 264.962-83.1568 19.9408-29.2714-89.5215" stroke="#1ACF18" stroke-width="4.92165" fill="none" transform="matrix(1.00057 0 0 1 640.265 362.118)"/><path d="M-330.903-53.5158C-199.1-187.328 199.323-190.342 333.135-58.5388" stroke="#BC6771" stroke-width="3.44953" fill="none" transform="matrix(1.00057 0 0 1 640.265 362.118)"/><path d="M-300.754-165.681C-230.237-173.481-112.763-79.4071-104.963-8.89097" stroke="#2BCF29" stroke-width="3.45147" fill="none" transform="matrix(1.00057 0 0 1 640.265 362.118)"/><path d="M-300.754-165.681C-182.344-135.132-50.5531 88.305-81.1018 206.714" stroke="#24CF23" stroke-width="4.2408" fill="none" transform="matrix(1.00057 0 0 1 640.265 362.118)"/><path d="M-120.894 325.467C-184.58 255.409-175.021 54.7942-104.963-8.89097" stroke="#BB636D" stroke-width="3.91897" fill="none" transform="matrix(1.00057 0 0 1 640.265 362.118)"/><path d="M-216.034 255.007C-231.738 215.367-195.833 132.349-156.193 116.645" stroke="#17CF16" stroke-width="5.00623" fill="none" transform="matrix(1.00057 0 0 1 640.265 362.118)"/><path d="M-216.034 255.007C-198.706 218.362-117.747 189.387-81.1018 206.714" stroke="#0BCF0A" stroke-width="5.2238" fill="none" transform="matrix(1.00057 0 0 1 640.265 362.118)"/><path d="M-216.034 255.007C-195.38 108.642 55.1492-79.9234 201.514-59.2691" stroke="#30CF2F" stroke-width="2.52182" fill="none" transform="matrix(1.00057 0 0 1 640.265 362.118)"/><path d="M-117.721-324.066C-53.1225-294.847-0.0524838-154.12-29.2714-89.5215" stroke="#0CCF0A" stroke-width="5.22222" fill="none" transform="matrix(1.00057 0 0 1 640.265 362.118)"/><path d="M216.526 268.819C111.547 312.928-112.084 221.623-156.193 116.645" stroke="#31CF2F" stroke-width="2.39364" fill="none" transform="matrix(1.00057 0 0 1 640.265 362.118)"/><path d="M216.526 268.819C144.579 315.923-33.9972 278.661-81.1018 206.714" stroke="#0DCF0B" stroke-width="5.21201" fill="none" transform="matrix(1.00057 0 0 1 640.265 362.118)"/><path d="M-25.5945 82.7751C-78.1911 108.687-195.954 68.6596-221.865 16.063" stroke="#BE737C" stroke-width="0.548938" fill="none" transform="matrix(1.00057 0 0 1 640.265 362.118)"/><path d="M-25.5945 82.7751C10.606 93.1756 49.306 163.077 38.9056 199.277" stroke="#BC6B74" stroke-width="2.68585" fill="none" transform="matrix(1.00057 0 0 1 640.265 362.118)"/><path d="M-25.5945 82.7751C-44.9402 115.669-123.299 135.99-156.193 116.645" stroke="#24CF23" stroke-width="4.26472" fill="none" transform="matrix(1.00057 0 0 1 640.265 362.118)"/><path d="M-25.5945 82.7751C-11.9081 118.664-45.2125 193.028-81.1018 206.714" stroke="#37CE35" stroke-width="0.738456" fill="none" transform="matrix(1.00057 0 0 1 640.265 362.118)"/><path d="M-25.5945 82.7751C-60.7892 49.0512-62.9953-54.3268-29.2714-89.5215" stroke="#33CF31" stroke-width="1.9177" fill="none" transform="matrix(1.00057 0 0 1 640.265 362.118)"/><path d="M-25.5945 82.7751C16.941 30.7459 158.788 16.5053 210.817 59.0407" stroke="#2ECF2C" stroke-width="2.94013" fill="none" transform="matrix(1.00057 0 0 1 640.265 362.118)"/><path d="M226.459-259.772C260.006-169.089 174.304 17.2556 83.6216 50.8032" stroke="#09CF07" stroke-width="5.24529" fill="none" transform="matrix(1.00057 0 0 1 640.265 362.118)"/><path d="M226.459-259.772C225.212-107.958-4.37905 117.892-156.193 116.645" stroke="#B95964" stroke-width="4.76952" fill="none" transform="matrix(1.00057 0 0 1 640.265 362.118)"/><path d="M226.459-259.772C261.57-214.682 246.604-94.3808 201.514-59.2691" stroke="#BB626C" stroke-width="4.04657" fill="none" transform="matrix(1.00057 0 0 1 640.265 362.118)"/><path d="M226.459-259.772C287.093-192.881 277.708-1.59349 210.817 59.0407" stroke="#B43443" stroke-width="5.29002" fill="none" transform="matrix(1.00057 0 0 1 640.265 362.118)"/><path d="M-102.443-199.545C-81.1966-226.619-8.71566-235.362 18.3589-214.116" stroke="#BC6771" stroke-width="3.44752" fill="none" transform="matrix(1.00057 0 0 1 640.265 362.118)"/><path d="M18.3589-214.116C34.082-76.5089-148.744 153.486-286.351 169.209" stroke="#B84F5B" stroke-width="5.10477" fill="none" transform="matrix(1.00057 0 0 1 640.265 362.118)"/><path d="M-338.192 68.2011C-220.914-9.71986 71.8835 49.3151 149.805 166.593" stroke="#AC0014" stroke-width="5.29412" fill="none" transform="matrix(1.00057 0 0 1 640.265 362.118)"/><path d="M-2.27848 334.603C-65.8725 237.398-15.4556-3.80086 81.7496-67.3948" stroke="#35CE34" stroke-width="1.26397" fill="none" transform="matrix(1.00057 0 0 1 640.265 362.118)"/><path d="M-2.27848 334.603C24.5087 243.01 202.079 145.801 293.672 172.588" stroke="#AC0216" stroke-width="5.29412" fill="none" transform="matrix(1.00057 0 0 1 640.265 362.118)"/><path d="M81.7496-67.3948C103.945-127.432 227.293-184.196 287.331-162.001" stroke="#02D000" stroke-width="5.27697" fill="none" transform="matrix(1.00057 0 0 1 640.265 362.118)"/><path d="M81.7496-67.3948C157.993-93.5023 311.52-18.2982 337.627 57.9454" stroke="#B12636" stroke-width="5.29394" fill="none" transform="matrix(1.00057 0 0 1 640.265 362.118)"/><path d="M81.7496-67.3948C39.0008-124.963 61.2297-275.438 118.798-318.187" stroke="#B22B3B" stroke-width="5.29351" fill="none" transform="matrix(1.00057 0 0 1 640.265 362.118)"/><path d="M81.7496-67.3948C133.798-115.901 284.629-110.587 333.135-58.5388" stroke="#BC6973" stroke-width="3.00149" fill="none" transform="matrix(1.00057 0 0 1 640.265 362.118)"/><path d="M81.7496-67.3948C107.328-89.7226 179.186-84.8472 201.514-59.2691" stroke="#B95561" stroke-width="4.91792" fill="none" transform="matrix(1.00057 0 0 1 640.265 362.118)"/><path d="M287.331-162.001C221.104-24.5493-84.4133 82.2893-221.865 16.063" stroke="#B74754" stroke-width="5.21923" fill="none" transform="matrix(1.00057 0 0 1 640.265 362.118)"/><path d="M287.331-162.001C309.901-40.0606 160.846 176.707 38.9056 199.277" stroke="#B3303F" stroke-width="5.29241" fill="none" transform="matrix(1.00057 0 0 1 640.265 362.118)"/><path d="M287.331-162.001C289.15-78.6987 166.924 48.9841 83.6216 50.8032" stroke="#BB626C" stroke-width="4.03898" fill="none" transform="matrix(1.00057 0 0 1 640.265 362.118)"/><path d="M287.331-162.001C290.714-124.292 239.224-62.6523 201.514-59.2691" stroke="#23CF21" stroke-width="4.41141" fill="none" transform="matrix(1.00057 0 0 1 640.265 362.118)"/><path d="M287.331-162.001C316.236-102.49 270.328 30.135 210.817 59.0407" stroke="#2BCF29" stroke-width="3.44328" fill="none" transform="matrix(1.00057 0 0 1 640.265 362.118)"/><path d="M-221.865 16.063C-133.068 0.55172 23.3942 110.48 38.9056 199.277" stroke="#B12536" stroke-width="5.29395" fill="none" transform="matrix(1.00057 0 0 1 640.265 362.118)"/><path d="M-221.865 16.063C-153.82-38.0863 29.4722-17.2423 83.6216 50.8032" stroke="#BA5D68" stroke-width="4.46631" fill="none" transform="matrix(1.00057 0 0 1 640.265 362.118)"/><path d="M-221.865 16.063C-188.615 23.0448-149.211 83.3939-156.193 116.645" stroke="#2DCF2B" stroke-width="3.13431" fill="none" transform="matrix(1.00057 0 0 1 640.265 362.118)"/><path d="M-221.865 16.063C-155.582 26.0406-71.1243 140.431-81.1018 206.714" stroke="#35CE33" stroke-width="1.42605" fill="none" transform="matrix(1.00057 0 0 1 640.265 362.118)"/><path d="M-221.865 16.063C-204.464-43.5727-88.9071-106.923-29.2714-89.5215" stroke="#30CF2F" stroke-width="2.50598" fill="none" transform="matrix(1.00057 0 0 1 640.265 362.118)"/><path d="M-221.865 16.063C-126.733-61.8779 132.876-36.0913 210.817 59.0407" stroke="#31CF30" stroke-width="2.22016" fill="none" transform="matrix(1.00057 0 0 1 640.265 362.118)"/><path d="M337.627 57.9454C218.635 26.4848 87.3372-199.195 118.798-318.187" stroke="#AC0417" stroke-width="5.29412" fill="none" transform="matrix(1.00057 0 0 1 640.265 362.118)"/><path d="M38.9056 199.277C18.1539 160.639 44.9836 71.5548 83.6216 50.8032" stroke="#BB616C" stroke-width="4.11585" fill="none" transform="matrix(1.00057 0 0 1 640.265 362.118)"/><path d="M38.9056 199.277C-16.6406 221.771-133.7 172.191-156.193 116.645" stroke="#37CE36" stroke-width="0.529412" fill="none" transform="matrix(1.00057 0 0 1 640.265 362.118)"/><path d="M38.9056 199.277C-32.4896 155.153-73.3958-18.1263-29.2714-89.5215" stroke="#36CE34" stroke-width="1.07423" fill="none" transform="matrix(1.00057 0 0 1 640.265 362.118)"/><path d="M38.9056 199.277C19.718 115.046 117.283-40.0815 201.514-59.2691" stroke="#35CE34" stroke-width="1.23296" fill="none" transform="matrix(1.00057 0 0 1 640.265 362.118)"/><path d="M38.9056 199.277C45.2405 136.848 148.387 52.7057 210.817 59.0407" stroke="#11CF0F" stroke-width="5.15293" fill="none" transform="matrix(1.00057 0 0 1 640.265 362.118)"/><path d="M-222.037-256.763C-134.186-195.25-94.68 28.7945-156.193 116.645" stroke="#BB626D" stroke-width="4.00369" fill="none" transform="matrix(1.00057 0 0 1 640.265 362.118)"/><path d="M-222.037-256.763C-149.048-230.603-78.8032-81.8801-104.963-8.89097" stroke="#BA5D68" stroke-width="4.50144" fill="none" transform="matrix(1.00057 0 0 1 640.265 362.118)"/><path d="M83.6216 50.8032C48.8271 111.934-95.0614 151.439-156.193 116.645" stroke="#0DCF0B" stroke-width="5.20959" fill="none" transform="matrix(1.00057 0 0 1 640.265 362.118)"/><path d="M83.6216 50.8032C81.8592 114.93-16.9749 208.477-81.1018 206.714" stroke="#21CF1F" stroke-width="4.53876" fill="none" transform="matrix(1.00057 0 0 1 640.265 362.118)"/><path d="M83.6216 50.8032C32.9781 45.3168-34.7577-38.878-29.2714-89.5215" stroke="#1CCF1A" stroke-width="4.83208" fill="none" transform="matrix(1.00057 0 0 1 640.265 362.118)"/><path d="M83.6216 50.8032C85.1857 5.21021 155.921-60.8332 201.514-59.2691" stroke="#11CF0F" stroke-width="5.15767" fill="none" transform="matrix(1.00057 0 0 1 640.265 362.118)"/><path d="M83.6216 50.8032C110.708 27.0116 187.026 31.9541 210.817 59.0407" stroke="#12CF10" stroke-width="5.13569" fill="none" transform="matrix(1.00057 0 0 1 640.265 362.118)"/><path d="M-156.193 116.645C-171.054 81.2916-140.316 5.97021-104.963-8.89097" stroke="#BA5B66" stroke-width="4.65529" fill="none" transform="matrix(1.00057 0 0 1 640.265 362.118)"/><path d="M-156.193 116.645C-123.161 119.641-78.1061 173.682-81.1018 206.714" stroke="#B01A2B" stroke-width="5.29411" fill="none" transform="matrix(1.00057 0 0 1 640.265 362.118)"/><path d="M-156.193 116.645C-172.042 50.0273-95.8889-73.6725-29.2714-89.5215" stroke="#B53F4D" stroke-width="5.27074" fill="none" transform="matrix(1.00057 0 0 1 640.265 362.118)"/><path d="M-156.193 116.645C-119.834 9.92064 94.79-95.6277 201.514-59.2691" stroke="#B8505C" stroke-width="5.07908" fill="none" transform="matrix(1.00057 0 0 1 640.265 362.118)"/><path d="M-156.193 116.645C-94.3115 31.722 125.894-2.84042 210.817 59.0407" stroke="#B8515D" stroke-width="5.05543" fill="none" transform="matrix(1.00057 0 0 1 640.265 362.118)"/><path d="M-104.963-8.89097C-57.0695 29.4579-42.7529 158.821-81.1018 206.714" stroke="#B64653" stroke-width="5.23432" fill="none" transform="matrix(1.00057 0 0 1 640.265 362.118)"/><path d="M-104.963-8.89097C-105.951-40.1553-60.5358-88.5337-29.2714-89.5215" stroke="#BE737C" stroke-width="0.650419" fill="none" transform="matrix(1.00057 0 0 1 640.265 362.118)"/><path d="M333.135-58.5388C306.665-32.3607 227.692-32.7989 201.514-59.2691" stroke="#BE737B" stroke-width="0.745089" fill="none" transform="matrix(1.00057 0 0 1 640.265 362.118)"/><path d="M-81.1018 206.714C-129.983 137.101-98.8847-40.6404-29.2714-89.5215" stroke="#B84D59" stroke-width="5.14469" fill="none" transform="matrix(1.00057 0 0 1 640.265 362.118)"/><path d="M-81.1018 206.714C-77.7753 96.9944 91.7943-62.5956 201.514-59.2691" stroke="#B95863" stroke-width="4.80677" fill="none" transform="matrix(1.00057 0 0 1 640.265 362.118)"/><path d="M-29.2714-89.5215C48.4588-107.827 192.512-18.6894 210.817 59.0407" stroke="#BC6C75" stroke-width="2.56583" fill="none" transform="matrix(1.00057 0 0 1 640.265 362.118)"/><path d="M201.514-59.2691C227.037-37.4678 232.619 33.5181 210.817 59.0407" stroke="#BB656F" stroke-width="3.70352" fill="none" transform="matrix(1.00057 0 0 1 640.265 362.118)"/><path d="M-165.078-112.454C-165.078-99.9403-175.223-89.7956-187.737-89.7956-200.251-89.7956-210.396-99.9403-210.396-112.454-210.396-124.969-200.251-135.113-187.737-135.113-175.223-135.113-165.078-124.969-165.078-112.454Z" stroke="#000000" stroke-width="0.529412" fill="#28B36A" transform="matrix(1.00057 0 0 1 640.265 362.118)"/><path d="M158.662-179.564C158.662-167.05 148.518-156.905 136.004-156.905 123.489-156.905 113.345-167.05 113.345-179.564 113.345-192.078 123.489-202.223 136.004-202.223 148.518-202.223 158.662-192.078 158.662-179.564Z" stroke="#000000" stroke-width="0.529412" fill="#9A96E5" transform="matrix(1.00057 0 0 1 640.265 362.118)"/><path d="M22.998-339.319C22.998-326.805 12.8533-316.66 0.33914-316.66-12.175-316.66-22.3197-326.805-22.3197-339.319-22.3197-351.833-12.175-361.978 0.339141-361.978 12.8533-361.978 22.998-351.833 22.998-339.319Z" stroke="#000000" stroke-width="0.529412" fill="#28B36A" transform="matrix(1.00057 0 0 1 640.265 362.118)"/><path d="M-199.378-256.763C-199.378-244.249-209.523-234.104-222.037-234.104-234.551-234.104-244.696-244.249-244.696-256.763-244.696-269.277-234.551-279.421-222.037-279.421-209.523-279.421-199.378-269.277-199.378-256.763Z" stroke="#000000" stroke-width="0.529412" fill="#F97743" transform="matrix(1.00057 0 0 1 640.265 362.118)"/><path d="M-133.534 116.645C-133.534 129.159-143.678 139.304-156.193 139.304-168.707 139.304-178.851 129.159-178.851 116.645-178.851 104.131-168.707 93.9859-156.193 93.9859-143.678 93.9859-133.534 104.131-133.534 116.645Z" stroke="#000000" stroke-width="0.529412" fill="#F97743" transform="matrix(1.00057 0 0 1 640.265 362.118)"/><path d="M132.329 318.848C132.329 331.362 122.185 341.507 109.671 341.507 97.1565 341.507 87.0118 331.362 87.0118 318.848 87.0118 306.334 97.1565 296.189 109.671 296.189 122.185 296.189 132.329 306.334 132.329 318.848Z" stroke="#000000" stroke-width="0.529412" fill="#28B36A" transform="matrix(1.00057 0 0 1 640.265 362.118)"/><path d="M-6.61258-89.5215C-6.61258-77.0074-16.7573-66.8627-29.2714-66.8627-41.7855-66.8627-51.9302-77.0074-51.9302-89.5215-51.9302-102.036-41.7855-112.18-29.2714-112.18-16.7573-112.18-6.61258-102.036-6.61258-89.5215Z" stroke="#000000" stroke-width="0.529412" fill="#F97743" transform="matrix(1.00057 0 0 1 640.265 362.118)"/><path d="M-308.244-53.5158C-308.244-41.0017-318.389-30.857-330.903-30.857-343.417-30.857-353.562-41.0017-353.562-53.5158-353.562-66.0299-343.417-76.1746-330.903-76.1746-318.389-76.1746-308.244-66.0299-308.244-53.5158Z" stroke="#000000" stroke-width="0.529412" fill="#28B36A" transform="matrix(1.00057 0 0 1 640.265 362.118)"/><path d="M355.794-58.5388C355.794-46.0246 345.649-35.8799 333.135-35.8799 320.621-35.8799 310.476-46.0246 310.476-58.5388 310.476-71.0529 320.621-81.1976 333.135-81.1976 345.649-81.1976 355.794-71.0529 355.794-58.5388Z" stroke="#000000" stroke-width="0.529412" fill="#F97743" transform="matrix(1.00057 0 0 1 640.265 362.118)"/><path d="M-278.095-165.681C-278.095-153.167-288.239-143.022-300.754-143.022-313.268-143.022-323.412-153.167-323.412-165.681-323.412-178.195-313.268-188.34-300.754-188.34-288.239-188.34-278.095-178.195-278.095-165.681Z" stroke="#000000" stroke-width="0.529412" fill="#28B36A" transform="matrix(1.00057 0 0 1 640.265 362.118)"/><path d="M-82.3039-8.89097C-82.3039 3.62316-92.4486 13.7679-104.963 13.7679-117.477 13.7679-127.622 3.62316-127.622-8.89097-127.622-21.4051-117.477-31.5498-104.963-31.5498-92.4486-31.5498-82.3039-21.4051-82.3039-8.89097Z" stroke="#000000" stroke-width="0.529412" fill="#F97743" transform="matrix(1.00057 0 0 1 640.265 362.118)"/><path d="M-58.443 206.714C-58.443 219.228-68.5877 229.373-81.1018 229.373-93.6159 229.373-103.761 219.228-103.761 206.714-103.761 194.2-93.6159 184.055-81.1018 184.055-68.5877 184.055-58.443 194.2-58.443 206.714Z" stroke="#000000" stroke-width="0.529412" fill="#F97743" transform="matrix(1.00057 0 0 1 640.265 362.118)"/><path d="M-98.2356 325.467C-98.2356 337.981-108.38 348.125-120.894 348.125-133.409 348.125-143.553 337.981-143.553 325.467-143.553 312.952-133.409 302.808-120.894 302.808-108.38 302.808-98.2356 312.952-98.2356 325.467Z" stroke="#000000" stroke-width="0.529412" fill="#28B36A" transform="matrix(1.00057 0 0 1 640.265 362.118)"/><path d="M-193.375 255.007C-193.375 267.521-203.52 277.666-216.034 277.666-228.548 277.666-238.693 267.521-238.693 255.007-238.693 242.493-228.548 232.349-216.034 232.349-203.52 232.349-193.375 242.493-193.375 255.007Z" stroke="#000000" stroke-width="0.529412" fill="#28B36A" transform="matrix(1.00057 0 0 1 640.265 362.118)"/><path d="M224.173-59.2691C224.173-46.755 214.028-36.6103 201.514-36.6103 189-36.6103 178.855-46.755 178.855-59.2691 178.855-71.7833 189-81.928 201.514-81.928 214.028-81.928 224.173-71.7833 224.173-59.2691Z" stroke="#000000" stroke-width="0.529412" fill="#F97743" transform="matrix(1.00057 0 0 1 640.265 362.118)"/><path d="M-95.0626-324.066C-95.0626-311.552-105.207-301.407-117.721-301.407-130.236-301.407-140.38-311.552-140.38-324.066-140.38-336.58-130.236-346.725-117.721-346.725-105.207-346.725-95.0626-336.58-95.0626-324.066Z" stroke="#000000" stroke-width="0.529412" fill="#28B36A" transform="matrix(1.00057 0 0 1 640.265 362.118)"/><path d="M239.185 268.819C239.185 281.333 229.04 291.478 216.526 291.478 204.012 291.478 193.867 281.333 193.867 268.819 193.867 256.305 204.012 246.16 216.526 246.16 229.04 246.16 239.185 256.305 239.185 268.819Z" stroke="#000000" stroke-width="0.529412" fill="#28B36A" transform="matrix(1.00057 0 0 1 640.265 362.118)"/><path d="M-2.93568 82.7751C-2.93568 95.2892-13.0804 105.434-25.5945 105.434-38.1086 105.434-48.2533 95.2892-48.2533 82.7751-48.2533 70.261-38.1086 60.1163-25.5945 60.1163-13.0804 60.1163-2.93568 70.261-2.93568 82.7751Z" stroke="#000000" stroke-width="0.529412" fill="#28B36A" transform="matrix(1.00057 0 0 1 640.265 362.118)"/><path d="M-199.207 16.063C-199.207 28.5772-209.351 38.7219-221.865 38.7219-234.38 38.7219-244.524 28.5772-244.524 16.063-244.524 3.54892-234.38-6.59578-221.865-6.59578-209.351-6.59578-199.207 3.54892-199.207 16.063Z" stroke="#000000" stroke-width="0.529412" fill="#9A96E5" transform="matrix(1.00057 0 0 1 640.265 362.118)"/><path d="M61.5644 199.277C61.5644 211.792 51.4197 221.936 38.9056 221.936 26.3914 221.936 16.2467 211.792 16.2467 199.277 16.2467 186.763 26.3914 176.619 38.9056 176.619 51.4197 176.619 61.5644 186.763 61.5644 199.277Z" stroke="#000000" stroke-width="0.529412" fill="#9A96E5" transform="matrix(1.00057 0 0 1 640.265 362.118)"/><path d="M233.476 59.0407C233.476 71.5548 223.331 81.6996 210.817 81.6996 198.303 81.6996 188.158 71.5548 188.158 59.0407 188.158 46.5266 198.303 36.3819 210.817 36.3819 223.331 36.3819 233.476 46.5266 233.476 59.0407Z" stroke="#000000" stroke-width="0.529412" fill="#F97743" transform="matrix(1.00057 0 0 1 640.265 362.118)"/><path d="M249.117-259.772C249.117-247.258 238.973-237.113 226.459-237.113 213.945-237.113 203.8-247.258 203.8-259.772 203.8-272.286 213.945-282.431 226.459-282.431 238.973-282.431 249.117-272.286 249.117-259.772Z" stroke="#000000" stroke-width="0.529412" fill="#28B36A" transform="matrix(1.00057 0 0 1 640.265 362.118)"/><path d="M106.28 50.8032C106.28 63.3173 96.1358 73.462 83.6216 73.462 71.1075 73.462 60.9628 63.3173 60.9628 50.8032 60.9628 38.2891 71.1075 28.1444 83.6216 28.1444 96.1358 28.1444 106.28 38.2891 106.28 50.8032Z" stroke="#000000" stroke-width="0.529412" fill="#F97743" transform="matrix(1.00057 0 0 1 640.265 362.118)"/><path d="M-79.7839-199.545C-79.7839-187.031-89.9286-176.886-102.443-176.886-114.957-176.886-125.102-187.031-125.102-199.545-125.102-212.059-114.957-222.204-102.443-222.204-89.9286-222.204-79.7839-212.059-79.7839-199.545Z" stroke="#000000" stroke-width="0.529412" fill="#28B36A" transform="matrix(1.00057 0 0 1 640.265 362.118)"/><path d="M41.0177-214.116C41.0177-201.602 30.873-191.457 18.3589-191.457 5.84476-191.457-4.29994-201.602-4.29994-214.116-4.29994-226.63 5.84476-236.775 18.3589-236.775 30.873-236.775 41.0177-226.63 41.0177-214.116Z" stroke="#000000" stroke-width="0.529412" fill="#9A96E5" transform="matrix(1.00057 0 0 1 640.265 362.118)"/><path d="M-263.692 169.209C-263.692 181.724-273.836 191.868-286.351 191.868-298.865 191.868-309.009 181.724-309.009 169.209-309.009 156.695-298.865 146.551-286.351 146.551-273.836 146.551-263.692 156.695-263.692 169.209Z" stroke="#000000" stroke-width="0.529412" fill="#9A96E5" transform="matrix(1.00057 0 0 1 640.265 362.118)"/><path d="M-315.533 68.2011C-315.533 80.7152-325.678 90.86-338.192 90.86-350.706 90.86-360.851 80.7152-360.851 68.2011-360.851 55.687-350.706 45.5423-338.192 45.5423-325.678 45.5423-315.533 55.687-315.533 68.2011Z" stroke="#000000" stroke-width="0.529412" fill="#9A96E5" transform="matrix(1.00057 0 0 1 640.265 362.118)"/><path d="M172.463 166.593C172.463 179.107 162.319 189.252 149.805 189.252 137.29 189.252 127.146 179.107 127.146 166.593 127.146 154.079 137.29 143.934 149.805 143.934 162.319 143.934 172.463 154.079 172.463 166.593Z" stroke="#000000" stroke-width="0.529412" fill="#9A96E5" transform="matrix(1.00057 0 0 1 640.265 362.118)"/><path d="M20.3803 334.603C20.3803 347.117 10.2356 357.262-2.27848 357.262-14.7926 357.262-24.9373 347.117-24.9373 334.603-24.9373 322.089-14.7926 311.944-2.27848 311.944 10.2356 311.944 20.3803 322.089 20.3803 334.603Z" stroke="#000000" stroke-width="0.529412" fill="#9A96E5" transform="matrix(1.00057 0 0 1 640.265 362.118)"/><path d="M104.408-67.3948C104.408-54.8807 94.2638-44.736 81.7496-44.736 69.2355-44.736 59.0908-54.8807 59.0908-67.3948 59.0908-79.909 69.2355-90.0537 81.7496-90.0537 94.2638-90.0537 104.408-79.909 104.408-67.3948Z" stroke="#000000" stroke-width="0.529412" fill="#9A96E5" transform="matrix(1.00057 0 0 1 640.265 362.118)"/><path d="M316.331 172.588C316.331 185.102 306.186 195.247 293.672 195.247 281.158 195.247 271.013 185.102 271.013 172.588 271.013 160.074 281.158 149.929 293.672 149.929 306.186 149.929 316.331 160.074 316.331 172.588Z" stroke="#000000" stroke-width="0.529412" fill="#9A96E5" transform="matrix(1.00057 0 0 1 640.265 362.118)"/><path d="M309.989-162.001C309.989-149.487 299.845-139.343 287.331-139.343 274.816-139.343 264.672-149.487 264.672-162.001 264.672-174.516 274.816-184.66 287.331-184.66 299.845-184.66 309.989-174.516 309.989-162.001Z" stroke="#000000" stroke-width="0.529412" fill="#9A96E5" transform="matrix(1.00057 0 0 1 640.265 362.118)"/><path d="M360.286 57.9454C360.286 70.4595 350.141 80.6042 337.627 80.6042 325.113 80.6042 314.968 70.4595 314.968 57.9454 314.968 45.4313 325.113 35.2866 337.627 35.2866 350.141 35.2866 360.286 45.4313 360.286 57.9454Z" stroke="#000000" stroke-width="0.529412" fill="#9A96E5" transform="matrix(1.00057 0 0 1 640.265 362.118)"/><path d="M141.457-318.187C141.457-305.673 131.312-295.528 118.798-295.528 106.284-295.528 96.139-305.673 96.139-318.187 96.139-330.701 106.284-340.846 118.798-340.846 131.312-340.846 141.457-330.701 141.457-318.187Z" stroke="#000000" stroke-width="0.529412" fill="#9A96E5" transform="matrix(1.00057 0 0 1 640.265 362.118)"/></g></g></g><text font-family="Times New Roman,Times New Roman_MSFontService,sans-serif" font-style="italic" font-weight="400" font-size="24" transform="translate(489.742 47)">cnorB</text><text font-family="Times New Roman,Times New Roman_MSFontService,sans-serif" font-style="italic" font-weight="400" font-size="24" transform="translate(913.675 542)">β</text><text font-family="Times New Roman,Times New Roman_MSFontService,sans-serif" font-weight="400" font-size="24" transform="translate(925.675 542)">:</text><text font-family="Times New Roman,Times New Roman_MSFontService,sans-serif" font-style="italic" font-weight="400" font-size="24" transform="translate(932.342 542)">α</text><text font-family="Times New Roman,Times New Roman_MSFontService,sans-serif" font-weight="400" font-size="24" transform="translate(702.16 303)">HIX</text><text font-family="Cambria Math,Cambria Math_MSFontService,sans-serif" font-weight="400" font-size="24" transform="translate(503.64 365)">W</text><text font-family="Cambria Math,Cambria Math_MSFontService,sans-serif" font-weight="400" font-size="24" transform="translate(525.806 365)">-</text><text font-family="Cambria Math,Cambria Math_MSFontService,sans-serif" font-weight="400" font-size="24" transform="translate(533.806 365)">NO</text><text font-family="Cambria Math,Cambria Math_MSFontService,sans-serif" font-weight="400" font-size="18" transform="translate(565.806 371)">2</text><text font-family="Cambria Math,Cambria Math_MSFontService,sans-serif" font-weight="400" font-size="18" transform="translate(565.806 356)">−</text><text font-family="Times New Roman,Times New Roman_MSFontService,sans-serif" font-weight="400" font-size="24" transform="translate(591.767 153)">S</text><text font-family="Times New Roman,Times New Roman_MSFontService,sans-serif" font-weight="400" font-size="24" transform="translate(605.1 153)">-</text><text font-family="Times New Roman,Times New Roman_MSFontService,sans-serif" font-weight="400" font-size="24" transform="translate(613.1 153)">Size</text><text font-family="Times New Roman,Times New Roman_MSFontService,sans-serif" font-weight="400" font-size="24" transform="translate(654.434 153)">-</text><text font-family="Times New Roman,Times New Roman_MSFontService,sans-serif" font-weight="400" font-size="24" transform="translate(662.434 153)">d(0.1)</text><text font-family="Times New Roman,Times New Roman_MSFontService,sans-serif" font-style="italic" font-weight="400" font-size="24" transform="translate(549.23 30)">Archaeal 16S rRNA</text><text font-family="Times New Roman,Times New Roman_MSFontService,sans-serif" font-style="italic" font-weight="400" font-size="24" transform="translate(591.767 448)">hzsB</text><text font-family="Times New Roman,Times New Roman_MSFontService,sans-serif" font-weight="400" font-size="24" transform="translate(573.128 282)">W</text><text font-family="Times New Roman,Times New Roman_MSFontService,sans-serif" font-weight="400" font-size="24" transform="translate(594.469 282)">-</text><text font-family="Times New Roman,Times New Roman_MSFontService,sans-serif" font-weight="400" font-size="24" transform="translate(602.469 282)">COD</text><text font-family="Times New Roman,Times New Roman_MSFontService,sans-serif" font-style="italic" font-weight="400" font-size="24" transform="translate(850.382 106)">hzo</text><text font-family="Times New Roman,Times New Roman_MSFontService,sans-serif" font-style="italic" font-weight="400" font-size="24" transform="translate(502.109 691)">nirK</text><text font-family="Times New Roman,Times New Roman_MSFontService,sans-serif" font-weight="400" font-size="24" transform="translate(684.591 540)">S</text><text font-family="Times New Roman,Times New Roman_MSFontService,sans-serif" font-weight="400" font-size="24" transform="translate(697.924 540)">-</text><text font-family="Times New Roman,Times New Roman_MSFontService,sans-serif" font-weight="400" font-size="24" transform="translate(705.924 540)">Size</text><text font-family="Times New Roman,Times New Roman_MSFontService,sans-serif" font-weight="400" font-size="24" transform="translate(747.258 540)">-</text><text font-family="Times New Roman,Times New Roman_MSFontService,sans-serif" font-weight="400" font-size="24" transform="translate(755.258 540)">d[(0.9</text><text font-family="Times New Roman,Times New Roman_MSFontService,sans-serif" font-weight="400" font-size="24" transform="translate(813.258 540)">-</text><text font-family="Times New Roman,Times New Roman_MSFontService,sans-serif" font-weight="400" font-size="24" transform="translate(821.258 540)">01)/0.5]</text><text font-family="Times New Roman,Times New Roman_MSFontService,sans-serif" font-weight="400" font-size="24" transform="translate(746.321 191)">S</text><text font-family="Times New Roman,Times New Roman_MSFontService,sans-serif" font-weight="400" font-size="24" transform="translate(759.654 191)">-</text><text font-family="Times New Roman,Times New Roman_MSFontService,sans-serif" font-weight="400" font-size="24" transform="translate(767.654 191)">TN</text><text font-family="Times New Roman,Times New Roman_MSFontService,sans-serif" font-weight="400" font-size="24" transform="translate(943.925 428)">Ⅲ</text><text font-family="Times New Roman,Times New Roman_MSFontService,sans-serif" font-weight="400" font-size="24" transform="translate(966.925 428)">-</text><text font-family="Times New Roman,Times New Roman_MSFontService,sans-serif" font-weight="400" font-size="24" transform="translate(974.925 428)">Area</text><text font-family="Times New Roman,Times New Roman_MSFontService,sans-serif" font-weight="400" font-size="24" transform="translate(642.54 567)">Ⅳ</text><text font-family="Times New Roman,Times New Roman_MSFontService,sans-serif" font-weight="400" font-size="24" transform="translate(667.707 567)">-</text><text font-family="Times New Roman,Times New Roman_MSFontService,sans-serif" font-weight="400" font-size="24" transform="translate(675.707 567)">Area</text><text font-family="Times New Roman,Times New Roman_MSFontService,sans-serif" font-weight="400" font-size="24" transform="translate(722.983 52)">Ⅴ</text><text font-family="Times New Roman,Times New Roman_MSFontService,sans-serif" font-weight="400" font-size="24" transform="translate(740.316 52)">-</text><text font-family="Times New Roman,Times New Roman_MSFontService,sans-serif" font-weight="400" font-size="24" transform="translate(748.316 52)">Area</text><text font-family="DengXian,DengXian_MSFontService,sans-serif" font-weight="400" font-size="24" transform="translate(524.324 581)">W</text><text font-family="DengXian,DengXian_MSFontService,sans-serif" font-weight="400" font-size="24" transform="translate(546.324 581)">-</text><text font-family="Cambria Math,Cambria Math_MSFontService,sans-serif" font-weight="400" font-size="24" transform="translate(558.324 581)">NH</text><text font-family="Cambria Math,Cambria Math_MSFontService,sans-serif" font-weight="400" font-size="18" transform="translate(591.157 586)">4</text><text font-family="Cambria Math,Cambria Math_MSFontService,sans-serif" font-weight="400" font-size="18" transform="translate(591.917 571)">+</text><text font-family="Times New Roman,Times New Roman_MSFontService,sans-serif" font-weight="400" font-size="24" transform="translate(697.367 423)">W</text><text font-family="Times New Roman,Times New Roman_MSFontService,sans-serif" font-weight="400" font-size="24" transform="translate(718.707 423)">-</text><text font-family="Times New Roman,Times New Roman_MSFontService,sans-serif" font-weight="400" font-size="24" transform="translate(726.707 423)">DO</text><text font-family="DengXian,DengXian_MSFontService,sans-serif" font-weight="400" font-size="24" transform="translate(805.851 317)">W</text><text font-family="DengXian,DengXian_MSFontService,sans-serif" font-weight="400" font-size="24" transform="translate(827.851 317)">-</text><text font-family="Cambria Math,Cambria Math_MSFontService,sans-serif" font-weight="400" font-size="24" transform="translate(839.851 317)">𝑃</text><text font-family="Cambria Math,Cambria Math_MSFontService,sans-serif" font-weight="400" font-size="24" transform="translate(854.684 317)">O</text><text font-family="Cambria Math,Cambria Math_MSFontService,sans-serif" font-weight="400" font-size="18" transform="translate(870.351 323)">4</text><text font-family="Cambria Math,Cambria Math_MSFontService,sans-serif" font-weight="400" font-size="18" transform="translate(870.351 308)">3</text><text font-family="Cambria Math,Cambria Math_MSFontService,sans-serif" font-weight="400" font-size="18" transform="translate(880.518 308)">−</text><text font-family="Times New Roman,Times New Roman_MSFontService,sans-serif" font-weight="400" font-size="24" transform="translate(458.6 486)">W</text><text font-family="Times New Roman,Times New Roman_MSFontService,sans-serif" font-weight="400" font-size="24" transform="translate(479.94 486)">-</text><text font-family="Times New Roman,Times New Roman_MSFontService,sans-serif" font-weight="400" font-size="24" transform="translate(487.94 486)">TN</text><text font-family="DengXian,DengXian_MSFontService,sans-serif" font-weight="400" font-size="24" transform="translate(937.491 310)">W</text><text font-family="DengXian,DengXian_MSFontService,sans-serif" font-weight="400" font-size="24" transform="translate(959.491 310)">-</text><text font-family="Cambria Math,Cambria Math_MSFontService,sans-serif" font-weight="400" font-size="24" transform="translate(971.491 310)">NO</text><text font-family="Cambria Math,Cambria Math_MSFontService,sans-serif" font-weight="400" font-size="18" transform="translate(1003.49 316)">3</text><text font-family="Cambria Math,Cambria Math_MSFontService,sans-serif" font-weight="400" font-size="18" transform="translate(1003.49 301)">−</text><text font-family="Times New Roman,Times New Roman_MSFontService,sans-serif" font-weight="400" font-size="24" transform="translate(288.806 542)">S</text><text font-family="Times New Roman,Times New Roman_MSFontService,sans-serif" font-weight="400" font-size="24" transform="translate(302.139 542)">-</text><text font-family="Times New Roman,Times New Roman_MSFontService,sans-serif" font-weight="400" font-size="24" transform="translate(310.139 542)">Size</text><text font-family="Times New Roman,Times New Roman_MSFontService,sans-serif" font-weight="400" font-size="24" transform="translate(351.473 542)">-</text><text font-family="Times New Roman,Times New Roman_MSFontService,sans-serif" font-weight="400" font-size="24" transform="translate(359.473 542)">d(0.5)</text><text font-family="Times New Roman,Times New Roman_MSFontService,sans-serif" font-weight="400" font-size="24" transform="translate(242.51 444)">S</text><text font-family="Times New Roman,Times New Roman_MSFontService,sans-serif" font-weight="400" font-size="24" transform="translate(255.844 444)">-</text><text font-family="Times New Roman,Times New Roman_MSFontService,sans-serif" font-weight="400" font-size="24" transform="translate(263.844 444)">Size</text><text font-family="Times New Roman,Times New Roman_MSFontService,sans-serif" font-weight="400" font-size="24" transform="translate(305.177 444)">-</text><text font-family="Times New Roman,Times New Roman_MSFontService,sans-serif" font-weight="400" font-size="24" transform="translate(313.177 444)">d(0.9)</text><text font-family="Times New Roman,Times New Roman_MSFontService,sans-serif" font-weight="400" font-size="24" transform="translate(822.574 430)">W</text><text font-family="Times New Roman,Times New Roman_MSFontService,sans-serif" font-weight="400" font-size="24" transform="translate(843.914 430)">-</text><text font-family="Times New Roman,Times New Roman_MSFontService,sans-serif" font-weight="400" font-size="24" transform="translate(851.914 430)">TP</text><text font-family="Times New Roman,Times New Roman_MSFontService,sans-serif" font-style="italic" font-weight="400" font-size="24" transform="translate(700.95 691)">AOB_amoA</text><text font-family="Times New Roman,Times New Roman_MSFontService,sans-serif" font-style="italic" font-weight="400" font-size="24" transform="translate(514.771 168)">nifH</text><text font-family="Times New Roman,Times New Roman_MSFontService,sans-serif" font-weight="400" font-size="24" transform="translate(617.738 707)">BIX</text><text font-family="Times New Roman,Times New Roman_MSFontService,sans-serif" font-weight="400" font-size="24" transform="translate(901.862 203)">Ⅰ</text><text font-family="Times New Roman,Times New Roman_MSFontService,sans-serif" font-weight="400" font-size="24" transform="translate(909.862 203)">-</text><text font-family="Times New Roman,Times New Roman_MSFontService,sans-serif" font-weight="400" font-size="24" transform="translate(917.862 203)">Area</text><text font-family="Times New Roman,Times New Roman_MSFontService,sans-serif" font-weight="400" font-size="24" transform="translate(395.693 112)">W</text><text font-family="Times New Roman,Times New Roman_MSFontService,sans-serif" font-weight="400" font-size="24" transform="translate(417.033 112)">-</text><text font-family="Times New Roman,Times New Roman_MSFontService,sans-serif" font-weight="400" font-size="24" transform="translate(425.033 112)">pH</text><text font-family="Times New Roman,Times New Roman_MSFontService,sans-serif" font-style="italic" font-weight="400" font-size="24" transform="translate(835.898 638)">hzsA</text><text font-family="Times New Roman,Times New Roman_MSFontService,sans-serif" font-weight="400" font-size="24" transform="translate(383.324 385)">Ⅱ</text><text font-family="Times New Roman,Times New Roman_MSFontService,sans-serif" font-weight="400" font-size="24" transform="translate(398.824 385)">-</text><text font-family="Times New Roman,Times New Roman_MSFontService,sans-serif" font-weight="400" font-size="24" transform="translate(406.824 385)">Area</text><text font-family="Times New Roman,Times New Roman_MSFontService,sans-serif" font-style="italic" font-weight="400" font-size="24" transform="translate(349.72 260)">Bacterial 16S rRNA</text><text font-family="Times New Roman,Times New Roman_MSFontService,sans-serif" font-style="italic" font-weight="400" font-size="24" transform="translate(310.065 202)">napA</text><text font-family="Times New Roman,Times New Roman_MSFontService,sans-serif" font-style="italic" font-weight="400" font-size="24" transform="translate(281.986 316)">nxrA</text><text font-family="Times New Roman,Times New Roman_MSFontService,sans-serif" font-style="italic" font-weight="400" font-size="24" transform="translate(402.654 625)">nirS</text></g></svg>