<svg width="1280" height="720" xmlns="http://www.w3.org/2000/svg" xmlns:xlink="http://www.w3.org/1999/xlink" overflow="hidden"><defs><clipPath id="clip0"><rect x="0" y="0" width="1280" height="720"/></clipPath><clipPath id="clip1"><rect x="276" y="0" width="728" height="720"/></clipPath><clipPath id="clip2"><rect x="276" y="0" width="729" height="720"/></clipPath><clipPath id="clip3"><rect x="276" y="0" width="729" height="720"/></clipPath></defs><g clip-path="url(#clip0)"><rect x="0" y="0" width="1280" height="720" fill="#FFFFFF"/><g clip-path="url(#clip1)"><g clip-path="url(#clip2)"><g clip-path="url(#clip3)"><path d="M-230.434-8.32261C-175.905-130.033-54.8949-208.29 78.4723-208.094" stroke="#AC0014" stroke-width="4.90518" stroke-linecap="round" fill="none" transform="matrix(1 0 0 1.00099 638.462 357.691)"/><path d="M-251.12-6.63135C-290.803-79.4187-287.084-168.163-241.451-237.375" stroke="#B72738" stroke-width="3.78759" stroke-linecap="round" fill="none" transform="matrix(1 0 0 1.00099 638.462 357.691)"/><path d="M192.416 77.7684C190.398 48.7134 200.816 20.1686 221.075-0.755793" stroke="#C04351" stroke-width="1.55382" stroke-linecap="round" fill="none" transform="matrix(1 0 0 1.00099 638.462 357.691)"/><path d="M195.554 123.305C190.944 153.126 173.732 179.523 148.304 195.771" stroke="#BE3C4B" stroke-width="2.29315" stroke-linecap="round" fill="none" transform="matrix(1 0 0 1.00099 638.462 357.691)"/><path d="M173.6 99.8187C66.3588 92.8792-27.4138 25.0883-67.6256-74.57" stroke="#BF404E" stroke-width="1.91035" stroke-linecap="round" fill="none" transform="matrix(1 0 0 1.00099 638.462 357.691)"/><path d="M218.836 105.96C243.873 115.513 263.866 134.963 274.107 159.727" stroke="#4CDB4B" stroke-width="5.04774" stroke-linecap="round" fill="none" transform="matrix(1 0 0 1.00099 638.462 357.691)"/><path d="M175.207 91.9028C61.7321 42.1335-12.2859-69.2514-14.2149-193.145" stroke="#9DE89C" stroke-width="1.90611" stroke-linecap="round" fill="none" transform="matrix(1 0 0 1.00099 638.462 357.691)"/><path d="M175.394 91.4438C149.473 76.9663 130.979 52.0949 124.579 23.1025" stroke="#8AE589" stroke-width="3.47241" stroke-linecap="round" fill="none" transform="matrix(1 0 0 1.00099 638.462 357.691)"/><path d="M-260.609 177.306C-182.028 96.3578-63.809 67.9902 42.9483 104.465" stroke="#C14755" stroke-width="1.07813" stroke-linecap="round" fill="none" transform="matrix(1 0 0 1.00099 638.462 357.691)"/><path d="M-290.225 176.414C-356.95 85.2158-365.079-36.2895-311.098-135.563" stroke="#BD3948" stroke-width="2.51831" stroke-linecap="round" fill="none" transform="matrix(1 0 0 1.00099 638.462 357.691)"/><path d="M-211.997 271.47C-322.156 167.654-359.868 8.18932-307.881-133.973" stroke="#30D72E" stroke-width="5.11683" stroke-linecap="round" fill="none" transform="matrix(1 0 0 1.00099 638.462 357.691)"/><path d="M153.05-119.134C39.4833-124.416-60.827-194.785-104.45-299.772" stroke="#BD3B4A" stroke-width="2.39248" stroke-linecap="round" fill="none" transform="matrix(1 0 0 1.00099 638.462 357.691)"/><path d="M157.749-105.042C57.5478-34.3194-74.6734-28.4553-180.743-90.0303" stroke="#BA2F3F" stroke-width="3.32165" stroke-linecap="round" fill="none" transform="matrix(1 0 0 1.00099 638.462 357.691)"/><path d="M198.573-123.295C247.833-128.862 296.634-109.559 328.759-71.8032" stroke="#AC0115" stroke-width="4.88119" stroke-linecap="round" fill="none" transform="matrix(1 0 0 1.00099 638.462 357.691)"/><path d="M167.966-97.454C113.094 36.1132-15.7627 124.423-160.131 127.402" stroke="#C04251" stroke-width="1.62261" stroke-linecap="round" fill="none" transform="matrix(1 0 0 1.00099 638.462 357.691)"/><path d="M29.3284 224.124C90.5439 165.947 178.929 146.427 258.953 173.411" stroke="#8EE68E" stroke-width="3.19147" stroke-linecap="round" fill="none" transform="matrix(1 0 0 1.00099 638.462 357.691)"/><path d="M192.334 295.958C170.68 322.533 138.246 337.991 103.965 338.075" stroke="#BC3645" stroke-width="2.80203" stroke-linecap="round" fill="none" transform="matrix(1 0 0 1.00099 638.462 357.691)"/><path d="M186.471 263.189C11.0108 128.42-63.5751-100.333-1.27593-312.624" stroke="#B72435" stroke-width="3.92054" stroke-linecap="round" fill="none" transform="matrix(1 0 0 1.00099 638.462 357.691)"/><path d="M187.179 262.273C120.108 202.041 92.3417 109.364 115.246 22.1752" stroke="#5EDE5D" stroke-width="4.89882" stroke-linecap="round" fill="none" transform="matrix(1 0 0 1.00099 638.462 357.691)"/><path d="M-109.829-215.399C-51.2177-250.947 21.9076-252.518 81.9919-219.521" stroke="#B92D3D" stroke-width="3.43927" stroke-linecap="round" fill="none" transform="matrix(1 0 0 1.00099 638.462 357.691)"/><path d="M-105.96-199.24C82.5673-168.877 233.694-26.937 275.806 159.319" stroke="#BD3948" stroke-width="2.53823" stroke-linecap="round" fill="none" transform="matrix(1 0 0 1.00099 638.462 357.691)"/><path d="M-151.679-201.745C-176.821-204.192-199.917-216.668-215.747-236.353" stroke="#B11325" stroke-width="4.55099" stroke-linecap="round" fill="none" transform="matrix(1 0 0 1.00099 638.462 357.691)"/><path d="M199.95-253.477C172.137-258.261 147.612-274.507 132.358-298.251" stroke="#B82A3A" stroke-width="3.63076" stroke-linecap="round" fill="none" transform="matrix(1 0 0 1.00099 638.462 357.691)"/><path d="M203.988-239.134C77.9641-157.614-84.4914-158.942-209.165-242.512" stroke="#81E480" stroke-width="3.98807" stroke-linecap="round" fill="none" transform="matrix(1 0 0 1.00099 638.462 357.691)"/><path d="M227.739-229.744C241.305-146.926 207.971-63.3955 141.114-12.6718" stroke="#39D837" stroke-width="5.10618" stroke-linecap="round" fill="none" transform="matrix(1 0 0 1.00099 638.462 357.691)"/><path d="M-23.0715-4.35514C-109.352-75.8744-146.695-190.71-118.983-299.298" stroke="#BE3D4C" stroke-width="2.13282" stroke-linecap="round" fill="none" transform="matrix(1 0 0 1.00099 638.462 357.691)"/><path d="M-27.6923 11.7074C-135.763 17.2729-237.443-39.6523-289.191-134.691" stroke="#02D000" stroke-width="5.12676" stroke-linecap="round" fill="none" transform="matrix(1 0 0 1.00099 638.462 357.691)"/><path d="M-13.9543 30.6649C-42.4089 86.2021-97.8745 122.777-160.13 127.056" stroke="#BC3646" stroke-width="2.78105" stroke-linecap="round" fill="none" transform="matrix(1 0 0 1.00099 638.462 357.691)"/><path d="M309.53 63.3243C180.123-7.81784 105.379-149.068 119.35-296.08" stroke="#B41D2E" stroke-width="4.24093" stroke-linecap="round" fill="none" transform="matrix(1 0 0 1.00099 638.462 357.691)"/><path d="M307.687 79.2432C243.763 90.7788 178.5 67.7026 136.035 18.5496" stroke="#42DA41" stroke-width="5.08551" stroke-linecap="round" fill="none" transform="matrix(1 0 0 1.00099 638.462 357.691)"/><path d="M67.8262-101.976C128.734-108.647 188.707-83.0512 226.029-34.4582" stroke="#C14654" stroke-width="1.16763" stroke-linecap="round" fill="none" transform="matrix(1 0 0 1.00099 638.462 357.691)"/><path d="M25.5519-86.1045C-0.0528377-74.3874-29.3996-73.9536-55.3395-84.9087" stroke="#C14553" stroke-width="1.32536" stroke-linecap="round" fill="none" transform="matrix(1 0 0 1.00099 638.462 357.691)"/><path d="M23.737-106.144C-53.6303-140.095-105.852-214.078-111.931-298.348" stroke="#B51F31" stroke-width="4.14062" stroke-linecap="round" fill="none" transform="matrix(1 0 0 1.00099 638.462 357.691)"/><path d="M34.2214-77.8164C-35.5703 40.8104-168.789 107.078-305.501 91.1747" stroke="#B72637" stroke-width="3.83396" stroke-linecap="round" fill="none" transform="matrix(1 0 0 1.00099 638.462 357.691)"/><path d="M28.4271-82.3039C-67.5466 1.22012-203.511 20.8697-319.205-32.064" stroke="#B3182A" stroke-width="4.39958" stroke-linecap="round" fill="none" transform="matrix(1 0 0 1.00099 638.462 357.691)"/><path d="M53.7347-76.6601C104.937 63.7499 67.6761 221.162-41.0389 323.718" stroke="#AF0D20" stroke-width="4.69382" stroke-linecap="round" fill="none" transform="matrix(1 0 0 1.00099 638.462 357.691)"/><path d="M67.3663-91.9437C180.483-56.4634 262.734 41.4302 278.186 158.97" stroke="#92E691" stroke-width="2.94546" stroke-linecap="round" fill="none" transform="matrix(1 0 0 1.00099 638.462 357.691)"/><path d="M39.5468-120.246C26.3353-188.911 50.9131-259.392 103.957-304.953" stroke="#BC3645" stroke-width="2.79412" stroke-linecap="round" fill="none" transform="matrix(1 0 0 1.00099 638.462 357.691)"/><path d="M66.5904-89.6021C92.8832-75.7682 112.003-51.3485 119.126-22.5048" stroke="#77E276" stroke-width="4.35562" stroke-linecap="round" fill="none" transform="matrix(1 0 0 1.00099 638.462 357.691)"/><path d="M24.4197-88.2197C-79.2645-44.4129-198.913-64.3137-282.834-139.324" stroke="#94E794" stroke-width="2.73467" stroke-linecap="round" fill="none" transform="matrix(1 0 0 1.00099 638.462 357.691)"/><path d="M-101.858 16.3529C-1.86245 25.4149 84.3085 90.481 120.4 184.176" stroke="#9FE99E" stroke-width="1.75756" stroke-linecap="round" fill="none" transform="matrix(1 0 0 1.00099 638.462 357.691)"/><path d="M-127.383-7.54406C-127.367-36.218-115.24-63.5511-93.9915-82.8043" stroke="#93E792" stroke-width="2.85367" stroke-linecap="round" fill="none" transform="matrix(1 0 0 1.00099 638.462 357.691)"/><path d="M-138.679 33.5789C-180.06 81.4631-243.553 104.09-305.891 93.1678" stroke="#A9EAA8" stroke-width="0.512676" stroke-linecap="round" fill="none" transform="matrix(1 0 0 1.00099 638.462 357.691)"/><path d="M-146.606 22.4936C-210.156 39.2358-277.82 21.0928-324.469-25.1973" stroke="#7EE37D" stroke-width="4.1209" stroke-linecap="round" fill="none" transform="matrix(1 0 0 1.00099 638.462 357.691)"/><path d="M-108.25 31.2032C-35.278 107.53-12.3775 218.862-49.3005 317.794" stroke="#85E484" stroke-width="3.78111" stroke-linecap="round" fill="none" transform="matrix(1 0 0 1.00099 638.462 357.691)"/><path d="M-124.197-7.68178C-116.053-144.509-27.9686-263.654 100.457-311.557" stroke="#39D837" stroke-width="5.10665" stroke-linecap="round" fill="none" transform="matrix(1 0 0 1.00099 638.462 357.691)"/><path d="M-128.058-7.45764C-134.985-85.4722-98.7164-161.034-33.5153-204.428" stroke="#BC3545" stroke-width="2.83422" stroke-linecap="round" fill="none" transform="matrix(1 0 0 1.00099 638.462 357.691)"/><path d="M-143.604 2.08933C-215.277-53.4428-249.847-144.413-233.143-233.529" stroke="#B51E30" stroke-width="4.17716" stroke-linecap="round" fill="none" transform="matrix(1 0 0 1.00099 638.462 357.691)"/><path d="M-106.495 1.40591C-44.3746-40.4361 35.5524-45.2955 102.285-11.2875" stroke="#B01023" stroke-width="4.62124" stroke-linecap="round" fill="none" transform="matrix(1 0 0 1.00099 638.462 357.691)"/><path d="M-34.9523 109.35C-10.7913 96.3735 17.6765 94.023 43.6387 102.861" stroke="#AF0A1D" stroke-width="4.75407" stroke-linecap="round" fill="none" transform="matrix(1 0 0 1.00099 638.462 357.691)"/><path d="M-31.0541 119.212C26.1048 114.948 81.4372 140.389 115.41 186.554" stroke="#C24957" stroke-width="0.759095" stroke-linecap="round" fill="none" transform="matrix(1 0 0 1.00099 638.462 357.691)"/><path d="M-68.2098 104.622C-105.601 51.8268-112.362-16.7801-85.9952-75.8588" stroke="#B92D3E" stroke-width="3.40698" stroke-linecap="round" fill="none" transform="matrix(1 0 0 1.00099 638.462 357.691)"/><path d="M-47.611 100.374C-3.25043-41.5014 121.24-143.402 269.084-158.853" stroke="#80E47F" stroke-width="4.0056" stroke-linecap="round" fill="none" transform="matrix(1 0 0 1.00099 638.462 357.691)"/><path d="M-52.5212 145.429C-54.2093 172.366-66.9527 197.408-87.7351 214.628" stroke="#88E588" stroke-width="3.57191" stroke-linecap="round" fill="none" transform="matrix(1 0 0 1.00099 638.462 357.691)"/><path d="M-64.5009 102.181C-111.621 3.3572-97.771-113.748-28.8977-198.853" stroke="#A1E9A1" stroke-width="1.43808" stroke-linecap="round" fill="none" transform="matrix(1 0 0 1.00099 638.462 357.691)"/><path d="M-217.977 12.9447C-217.977 24.6148-227.438 34.0752-239.108 34.0752-250.778 34.0752-260.238 24.6148-260.238 12.9447-260.238 1.2747-250.778-8.18572-239.108-8.18572-227.438-8.18572-217.977 1.2747-217.977 12.9447Z" stroke="#6B69A0" stroke-width="3.67486" fill="#9A96E5" transform="matrix(1 0 0 1.00099 638.462 357.691)"/><path d="M122.556-207.28C122.556-195.61 113.096-186.15 101.426-186.15 89.7557-186.15 80.2953-195.61 80.2953-207.28 80.2953-218.95 89.7557-228.411 101.426-228.411 113.096-228.411 122.556-218.95 122.556-207.28Z" stroke="#AE532E" stroke-width="3.67486" fill="#F97743" transform="matrix(1 0 0 1.00099 638.462 357.691)"/><path d="M-206.713-255.878C-206.713-244.208-216.173-234.747-227.843-234.747-239.513-234.747-248.974-244.208-248.974-255.878-248.974-267.548-239.513-277.008-227.843-277.008-216.173-277.008-206.713-267.548-206.713-255.878Z" stroke="#1C7D4A" stroke-width="3.67486" fill="#28B36A" transform="matrix(1 0 0 1.00099 638.462 357.691)"/><path d="M217.692 100.359C217.692 112.029 208.231 121.49 196.561 121.49 184.891 121.49 175.431 112.029 175.431 100.359 175.431 88.6891 184.891 79.2287 196.561 79.2287 208.231 79.2287 217.692 88.6891 217.692 100.359Z" stroke="#6B69A0" stroke-width="3.67486" fill="#9A96E5" transform="matrix(1 0 0 1.00099 638.462 357.691)"/><path d="M259.927-15.366C259.927-3.69596 250.467 5.76447 238.797 5.76447 227.127 5.76447 217.666-3.69596 217.666-15.366 217.666-27.036 227.127-36.4964 238.797-36.4964 250.467-36.4964 259.927-27.036 259.927-15.366Z" stroke="#AE532E" stroke-width="3.67486" fill="#F97743" transform="matrix(1 0 0 1.00099 638.462 357.691)"/><path d="M148.845 205.948C148.845 217.618 139.384 227.078 127.714 227.078 116.044 227.078 106.584 217.618 106.584 205.948 106.584 194.278 116.044 184.817 127.714 184.817 139.384 184.817 148.845 194.278 148.845 205.948Z" stroke="#AE532E" stroke-width="3.67486" fill="#F97743" transform="matrix(1 0 0 1.00099 638.462 357.691)"/><path d="M-54.2073-96.2044C-54.2073-84.5343-63.6677-75.0739-75.3378-75.0739-87.0078-75.0739-96.4682-84.5343-96.4682-96.2044-96.4682-107.874-87.0078-117.335-75.3378-117.335-63.6677-117.335-54.2073-107.874-54.2073-96.2044Z" stroke="#AE532E" stroke-width="3.67486" fill="#F97743" transform="matrix(1 0 0 1.00099 638.462 357.691)"/><path d="M301.449 181.839C301.449 193.509 291.989 202.969 280.319 202.969 268.649 202.969 259.188 193.509 259.188 181.839 259.188 170.169 268.649 160.708 280.319 160.708 291.989 160.708 301.449 170.169 301.449 181.839Z" stroke="#1C7D4A" stroke-width="3.67486" fill="#28B36A" transform="matrix(1 0 0 1.00099 638.462 357.691)"/><path d="M7.39112-216.108C7.39112-204.438-2.06931-194.978-13.7393-194.978-25.4094-194.978-34.8698-204.438-34.8698-216.108-34.8698-227.778-25.4094-237.239-13.7393-237.239-2.06931-237.239 7.39112-227.778 7.39112-216.108Z" stroke="#1C7D4A" stroke-width="3.67486" fill="#28B36A" transform="matrix(1 0 0 1.00099 638.462 357.691)"/><path d="M143.266 0.264959C143.266 11.935 133.806 21.3954 122.136 21.3954 110.466 21.3954 101.005 11.935 101.005 0.264959 101.005-11.4051 110.466-20.8655 122.136-20.8655 133.806-20.8655 143.266-11.4051 143.266 0.264959Z" stroke="#1C7D4A" stroke-width="3.67486" fill="#28B36A" transform="matrix(1 0 0 1.00099 638.462 357.691)"/><path d="M-254.815 194.403C-254.815 206.073-264.275 215.533-275.945 215.533-287.615 215.533-297.076 206.073-297.076 194.403-297.076 182.733-287.615 173.272-275.945 173.272-264.275 173.272-254.815 182.733-254.815 194.403Z" stroke="#6B69A0" stroke-width="3.67486" fill="#9A96E5" transform="matrix(1 0 0 1.00099 638.462 357.691)"/><path d="M85.5039 112.74C85.5039 124.41 76.0434 133.871 64.3734 133.871 52.7034 133.871 43.243 124.41 43.243 112.74 43.243 101.07 52.7034 91.61 64.3734 91.61 76.0434 91.61 85.5039 101.07 85.5039 112.74Z" stroke="#AE532E" stroke-width="3.67486" fill="#F97743" transform="matrix(1 0 0 1.00099 638.462 357.691)"/><path d="M-278.211-155.294C-278.211-143.624-287.672-134.164-299.342-134.164-311.012-134.164-320.472-143.624-320.472-155.294-320.472-166.964-311.012-176.425-299.342-176.425-287.672-176.425-278.211-166.964-278.211-155.294Z" stroke="#1C7D4A" stroke-width="3.67486" fill="#28B36A" transform="matrix(1 0 0 1.00099 638.462 357.691)"/><path d="M-173.682 286.708C-173.682 298.378-183.142 307.839-194.812 307.839-206.482 307.839-215.943 298.378-215.943 286.708-215.943 275.038-206.482 265.578-194.812 265.578-183.142 265.578-173.682 275.038-173.682 286.708Z" stroke="#6B69A0" stroke-width="3.67486" fill="#9A96E5" transform="matrix(1 0 0 1.00099 638.462 357.691)"/><path d="M197.147-118.965C197.147-107.295 187.687-97.8341 176.017-97.8341 164.347-97.8341 154.886-107.295 154.886-118.965 154.886-130.635 164.347-140.095 176.017-140.095 187.687-140.095 197.147-130.635 197.147-118.965Z" stroke="#6B69A0" stroke-width="3.67486" fill="#9A96E5" transform="matrix(1 0 0 1.00099 638.462 357.691)"/><path d="M-91.2956-321.31C-91.2956-309.64-100.756-300.18-112.426-300.18-124.096-300.18-133.557-309.64-133.557-321.31-133.557-332.98-124.096-342.441-112.426-342.441-100.756-342.441-91.2956-332.98-91.2956-321.31Z" stroke="#AE532E" stroke-width="3.67486" fill="#F97743" transform="matrix(1 0 0 1.00099 638.462 357.691)"/><path d="M-179.04-102.281C-179.04-90.6105-188.501-81.1501-200.171-81.1501-211.841-81.1501-221.301-90.6105-221.301-102.281-221.301-113.951-211.841-123.411-200.171-123.411-188.501-123.411-179.04-113.951-179.04-102.281Z" stroke="#AE532E" stroke-width="3.67486" fill="#F97743" transform="matrix(1 0 0 1.00099 638.462 357.691)"/><path d="M363.38-53.215C363.38-41.545 353.92-32.0845 342.249-32.0845 330.579-32.0845 321.119-41.545 321.119-53.215 321.119-64.885 330.579-74.3455 342.249-74.3455 353.919-74.3455 363.38-64.885 363.38-53.215Z" stroke="#1C7D4A" stroke-width="3.67486" fill="#28B36A" transform="matrix(1 0 0 1.00099 638.462 357.691)"/><path d="M-161.967 127.149C-161.967 138.819-171.428 148.28-183.098 148.28-194.768 148.28-204.228 138.819-204.228 127.149-204.228 115.479-194.768 106.019-183.098 106.019-171.428 106.019-161.967 115.479-161.967 127.149Z" stroke="#1C7D4A" stroke-width="3.67486" fill="#28B36A" transform="matrix(1 0 0 1.00099 638.462 357.691)"/><path d="M34.6293 240.766C34.6293 252.436 25.1689 261.896 13.4989 261.896 1.82884 261.896-7.63159 252.436-7.63159 240.766-7.63159 229.096 1.82884 219.635 13.4989 219.635 25.1689 219.635 34.6293 229.096 34.6293 240.766Z" stroke="#6B69A0" stroke-width="3.67486" fill="#9A96E5" transform="matrix(1 0 0 1.00099 638.462 357.691)"/><path d="M226.112 276.786C226.112 288.456 216.651 297.916 204.981 297.916 193.311 297.916 183.851 288.456 183.851 276.786 183.851 265.116 193.311 255.655 204.981 255.655 216.651 255.655 226.112 265.116 226.112 276.786Z" stroke="#6B69A0" stroke-width="3.67486" fill="#9A96E5" transform="matrix(1 0 0 1.00099 638.462 357.691)"/><path d="M102.238 335.825C102.238 347.495 92.778 356.955 81.108 356.955 69.438 356.955 59.9776 347.495 59.9776 335.825 59.9776 324.155 69.438 314.694 81.108 314.694 92.778 314.694 102.238 324.155 102.238 335.825Z" stroke="#AE532E" stroke-width="3.67486" fill="#F97743" transform="matrix(1 0 0 1.00099 638.462 357.691)"/><path d="M26.7928-334.519C26.7928-322.849 17.3324-313.388 5.66236-313.388-6.00767-313.388-15.4681-322.849-15.4681-334.519-15.4681-346.189-6.00767-355.649 5.66236-355.649 17.3324-355.649 26.7928-346.189 26.7928-334.519Z" stroke="#AE532E" stroke-width="3.67486" fill="#F97743" transform="matrix(1 0 0 1.00099 638.462 357.691)"/><path d="M-107.588-202.334C-107.588-190.664-117.049-181.203-128.719-181.203-140.389-181.203-149.849-190.664-149.849-202.334-149.849-214.004-140.389-223.464-128.719-223.464-117.049-223.464-107.588-214.004-107.588-202.334Z" stroke="#6B69A0" stroke-width="3.67486" fill="#9A96E5" transform="matrix(1 0 0 1.00099 638.462 357.691)"/><path d="M244.012-252.192C244.012-240.522 234.552-231.062 222.882-231.062 211.212-231.062 201.752-240.522 201.752-252.192 201.752-263.862 211.212-273.323 222.882-273.323 234.552-273.323 244.012-263.862 244.012-252.192Z" stroke="#6B69A0" stroke-width="3.67486" fill="#9A96E5" transform="matrix(1 0 0 1.00099 638.462 357.691)"/><path d="M143.362-318.866C143.362-307.196 133.901-297.736 122.231-297.736 110.561-297.736 101.101-307.196 101.101-318.866 101.101-330.536 110.561-339.996 122.231-339.996 133.901-339.996 143.362-330.536 143.362-318.866Z" stroke="#AE532E" stroke-width="3.67486" fill="#F97743" transform="matrix(1 0 0 1.00099 638.462 357.691)"/><path d="M16.3083 9.5906C16.3083 21.2606 6.84788 30.7211-4.82215 30.7211-16.4922 30.7211-25.9526 21.2606-25.9526 9.5906-25.9526-2.07943-16.4922-11.5399-4.82215-11.5399 6.84788-11.5399 16.3083-2.07943 16.3083 9.5906Z" stroke="#6B69A0" stroke-width="3.67486" fill="#9A96E5" transform="matrix(1 0 0 1.00099 638.462 357.691)"/><path d="M351.121 73.7594C351.121 85.4295 341.66 94.8899 329.99 94.8899 318.32 94.8899 308.86 85.4295 308.86 73.7594 308.86 62.0894 318.32 52.629 329.99 52.629 341.66 52.629 351.121 62.0894 351.121 73.7594Z" stroke="#6B69A0" stroke-width="3.67486" fill="#9A96E5" transform="matrix(1 0 0 1.00099 638.462 357.691)"/><path d="M66.338-97.9864C66.338-86.3164 56.8776-76.8559 45.2075-76.8559 33.5375-76.8559 24.0771-86.3164 24.0771-97.9864 24.0771-109.656 33.5375-119.117 45.2075-119.117 56.8776-119.117 66.338-109.656 66.338-97.9864Z" stroke="#6B69A0" stroke-width="3.67486" fill="#9A96E5" transform="matrix(1 0 0 1.00099 638.462 357.691)"/><path d="M-307.085 87.7684C-307.085 99.4384-316.545 108.899-328.215 108.899-339.885 108.899-349.346 99.4384-349.346 87.7684-349.346 76.0983-339.885 66.6379-328.215 66.6379-316.545 66.6379-307.085 76.0983-307.085 87.7684Z" stroke="#AE532E" stroke-width="3.67486" fill="#F97743" transform="matrix(1 0 0 1.00099 638.462 357.691)"/><path d="M-318.609-42.3538C-318.609-30.6838-328.069-21.2233-339.739-21.2233-351.409-21.2233-360.87-30.6838-360.87-42.3538-360.87-54.0238-351.409-63.4843-339.739-63.4843-328.069-63.4843-318.609-54.0238-318.609-42.3538Z" stroke="#AE532E" stroke-width="3.67486" fill="#F97743" transform="matrix(1 0 0 1.00099 638.462 357.691)"/><path d="M-37.0914 338.958C-37.0914 350.628-46.5518 360.088-58.2218 360.088-69.8918 360.088-79.3523 350.628-79.3523 338.958-79.3523 327.288-69.8918 317.827-58.2218 317.827-46.5518 317.827-37.0914 327.288-37.0914 338.958Z" stroke="#AE532E" stroke-width="3.67486" fill="#F97743" transform="matrix(1 0 0 1.00099 638.462 357.691)"/><path d="M-103.67 15.2782C-103.67 26.9482-113.131 36.4086-124.801 36.4086-136.471 36.4086-145.931 26.9482-145.931 15.2782-145.931 3.60814-136.471-5.85229-124.801-5.85229-113.131-5.85229-103.67 3.60814-103.67 15.2782Z" stroke="#6B69A0" stroke-width="3.67486" fill="#9A96E5" transform="matrix(1 0 0 1.00099 638.462 357.691)"/><path d="M-32.6555 122.496C-32.6555 134.166-42.1159 143.627-53.7859 143.627-65.456 143.627-74.9164 134.166-74.9164 122.496-74.9164 110.826-65.456 101.366-53.7859 101.366-42.1159 101.366-32.6555 110.826-32.6555 122.496Z" stroke="#6B69A0" stroke-width="3.67486" fill="#9A96E5" transform="matrix(1 0 0 1.00099 638.462 357.691)"/><path d="M313.121-160.535C313.121-148.865 303.66-139.404 291.99-139.404 280.32-139.404 270.86-148.865 270.86-160.535 270.86-172.205 280.32-181.665 291.99-181.665 303.66-181.665 313.121-172.205 313.121-160.535Z" stroke="#AE532E" stroke-width="3.67486" fill="#F97743" transform="matrix(1 0 0 1.00099 638.462 357.691)"/><path d="M-85.8885 227.104C-85.8885 238.774-95.3489 248.235-107.019 248.235-118.689 248.235-128.149 238.774-128.149 227.104-128.149 215.434-118.689 205.974-107.019 205.974-95.3489 205.974-85.8885 215.434-85.8885 227.104Z" stroke="#AE532E" stroke-width="3.67486" fill="#F97743" transform="matrix(1 0 0 1.00099 638.462 357.691)"/></g></g></g><text font-family="Times New Roman,Times New Roman_MSFontService,sans-serif" font-style="italic" font-weight="400" font-size="24" transform="translate(610.897 373)">norB</text><text font-family="Times New Roman,Times New Roman_MSFontService,sans-serif" font-weight="400" font-size="24" transform="translate(446.266 490)">T</text><text font-family="Times New Roman,Times New Roman_MSFontService,sans-serif" font-style="italic" font-weight="400" font-size="24" transform="translate(515.848 593)">β</text><text font-family="Times New Roman,Times New Roman_MSFontService,sans-serif" font-weight="400" font-size="24" transform="translate(527.848 593)">:</text><text font-family="Times New Roman,Times New Roman_MSFontService,sans-serif" font-style="italic" font-weight="400" font-size="24" transform="translate(534.515 593)">α</text><text font-family="Times New Roman,Times New Roman_MSFontService,sans-serif" font-style="italic" font-weight="400" font-size="24" transform="translate(298.515 557)">AOA_amoA</text><text font-family="Times New Roman,Times New Roman_MSFontService,sans-serif" font-weight="400" font-size="24" transform="translate(414.903 261)">HIX</text><text font-family="Times New Roman,Times New Roman_MSFontService,sans-serif" font-weight="400" font-size="24" transform="translate(373.275 109)">W</text><text font-family="Times New Roman,Times New Roman_MSFontService,sans-serif" font-weight="400" font-size="24" transform="translate(394.615 109)">-</text><text font-family="Cambria Math,Cambria Math_MSFontService,sans-serif" font-weight="400" font-size="24" transform="translate(402.615 109)">NO</text><text font-family="Cambria Math,Cambria Math_MSFontService,sans-serif" font-weight="400" font-size="18" transform="translate(434.615 115)">2</text><text font-family="Cambria Math,Cambria Math_MSFontService,sans-serif" font-weight="400" font-size="18" transform="translate(434.615 100)">−</text><text font-family="Times New Roman,Times New Roman_MSFontService,sans-serif" font-weight="400" font-size="24" transform="translate(636.744 479)">S</text><text font-family="Times New Roman,Times New Roman_MSFontService,sans-serif" font-weight="400" font-size="24" transform="translate(650.077 479)">-</text><text font-family="Times New Roman,Times New Roman_MSFontService,sans-serif" font-weight="400" font-size="24" transform="translate(658.077 479)">Size</text><text font-family="Times New Roman,Times New Roman_MSFontService,sans-serif" font-weight="400" font-size="24" transform="translate(699.411 479)">-</text><text font-family="Times New Roman,Times New Roman_MSFontService,sans-serif" font-weight="400" font-size="24" transform="translate(707.411 479)">d(0.1)</text><text font-family="Times New Roman,Times New Roman_MSFontService,sans-serif" font-style="italic" font-weight="400" font-size="24" transform="translate(291.94 379)">Bacterial 16S rRNA</text><text font-family="Times New Roman,Times New Roman_MSFontService,sans-serif" font-style="italic" font-weight="400" font-size="24" transform="translate(485.197 162)">nirK</text><text font-family="Times New Roman,Times New Roman_MSFontService,sans-serif" font-weight="400" font-size="24" transform="translate(311.856 212)">COD</text><text font-family="Times New Roman,Times New Roman_MSFontService,sans-serif" font-weight="400" font-size="24" transform="translate(854.574 352)">S</text><text font-family="Times New Roman,Times New Roman_MSFontService,sans-serif" font-weight="400" font-size="24" transform="translate(867.907 352)">-</text><text font-family="Times New Roman,Times New Roman_MSFontService,sans-serif" font-weight="400" font-size="24" transform="translate(875.907 352)">TP</text><text font-family="Times New Roman,Times New Roman_MSFontService,sans-serif" font-weight="400" font-size="24" transform="translate(422.385 42)">Size</text><text font-family="Times New Roman,Times New Roman_MSFontService,sans-serif" font-weight="400" font-size="24" transform="translate(463.719 42)">-</text><text font-family="Times New Roman,Times New Roman_MSFontService,sans-serif" font-weight="400" font-size="24" transform="translate(471.719 42)">d</text><text font-family="Times New Roman,Times New Roman_MSFontService,sans-serif" font-weight="400" font-size="24" transform="translate(483.719 42)">[(0.9</text><text font-family="Times New Roman,Times New Roman_MSFontService,sans-serif" font-weight="400" font-size="24" transform="translate(529.719 42)">-</text><text font-family="Times New Roman,Times New Roman_MSFontService,sans-serif" font-weight="400" font-size="24" transform="translate(537.719 42)">01)/</text><text font-family="Times New Roman,Times New Roman_MSFontService,sans-serif" font-weight="400" font-size="24" transform="translate(576.385 42)">0.5]</text><text font-family="Times New Roman,Times New Roman_MSFontService,sans-serif" font-weight="400" font-size="24" transform="translate(540.596 705)">Ⅳ</text><text font-family="Times New Roman,Times New Roman_MSFontService,sans-serif" font-weight="400" font-size="24" transform="translate(565.762 705)">-</text><text font-family="Times New Roman,Times New Roman_MSFontService,sans-serif" font-weight="400" font-size="24" transform="translate(573.762 705)">Area</text><text font-family="Times New Roman,Times New Roman_MSFontService,sans-serif" font-weight="400" font-size="24" transform="translate(607.667 28)">Ⅴ</text><text font-family="Times New Roman,Times New Roman_MSFontService,sans-serif" font-weight="400" font-size="24" transform="translate(625.001 28)">-</text><text font-family="Times New Roman,Times New Roman_MSFontService,sans-serif" font-weight="400" font-size="24" transform="translate(633.001 28)">Area</text><text font-family="Times New Roman,Times New Roman_MSFontService,sans-serif" font-weight="400" font-size="24" transform="translate(721.755 367)">W</text><text font-family="Times New Roman,Times New Roman_MSFontService,sans-serif" font-weight="400" font-size="24" transform="translate(743.095 367)">-</text><text font-family="Cambria Math,Cambria Math_MSFontService,sans-serif" font-weight="400" font-size="24" transform="translate(751.095 367)">NH</text><text font-family="Cambria Math,Cambria Math_MSFontService,sans-serif" font-weight="400" font-size="18" transform="translate(783.928 372)">4</text><text font-family="Cambria Math,Cambria Math_MSFontService,sans-serif" font-weight="400" font-size="18" transform="translate(784.688 358)">+</text><text font-family="Times New Roman,Times New Roman_MSFontService,sans-serif" font-weight="400" font-size="24" transform="translate(727.105 43)">W</text><text font-family="Times New Roman,Times New Roman_MSFontService,sans-serif" font-weight="400" font-size="24" transform="translate(748.445 43)">-</text><text font-family="Times New Roman,Times New Roman_MSFontService,sans-serif" font-weight="400" font-size="24" transform="translate(756.445 43)">DO</text><text font-family="Times New Roman,Times New Roman_MSFontService,sans-serif" font-weight="400" font-size="24" transform="translate(711.289 158)">S</text><text font-family="Times New Roman,Times New Roman_MSFontService,sans-serif" font-weight="400" font-size="24" transform="translate(724.622 158)">-</text><text font-family="Times New Roman,Times New Roman_MSFontService,sans-serif" font-weight="400" font-size="24" transform="translate(732.622 158)">TN</text><text font-family="Times New Roman,Times New Roman_MSFontService,sans-serif" font-weight="400" font-size="24" transform="translate(947.874 312)">W</text><text font-family="Times New Roman,Times New Roman_MSFontService,sans-serif" font-weight="400" font-size="24" transform="translate(969.214 312)">-</text><text font-family="Cambria Math,Cambria Math_MSFontService,sans-serif" font-weight="400" font-size="24" transform="translate(977.214 312)">NO</text><text font-family="Cambria Math,Cambria Math_MSFontService,sans-serif" font-weight="400" font-size="18" transform="translate(1009.21 317)">3</text><text font-family="Cambria Math,Cambria Math_MSFontService,sans-serif" font-weight="400" font-size="18" transform="translate(1009.21 303)">−</text><text font-family="Times New Roman,Times New Roman_MSFontService,sans-serif" font-weight="400" font-size="24" transform="translate(704.51 570)">S</text><text font-family="Times New Roman,Times New Roman_MSFontService,sans-serif" font-weight="400" font-size="24" transform="translate(717.844 570)">-</text><text font-family="Times New Roman,Times New Roman_MSFontService,sans-serif" font-weight="400" font-size="24" transform="translate(725.844 570)">Size</text><text font-family="Times New Roman,Times New Roman_MSFontService,sans-serif" font-weight="400" font-size="24" transform="translate(767.177 570)">-</text><text font-family="Times New Roman,Times New Roman_MSFontService,sans-serif" font-weight="400" font-size="24" transform="translate(775.177 570)">d(0.5)</text><text font-family="Times New Roman,Times New Roman_MSFontService,sans-serif" font-weight="400" font-size="24" transform="translate(500.754 268)">S</text><text font-family="Times New Roman,Times New Roman_MSFontService,sans-serif" font-weight="400" font-size="24" transform="translate(514.088 268)">-</text><text font-family="Times New Roman,Times New Roman_MSFontService,sans-serif" font-weight="400" font-size="24" transform="translate(522.088 268)">Size</text><text font-family="Times New Roman,Times New Roman_MSFontService,sans-serif" font-weight="400" font-size="24" transform="translate(563.421 268)">-</text><text font-family="Times New Roman,Times New Roman_MSFontService,sans-serif" font-weight="400" font-size="24" transform="translate(571.421 268)">d(0.9)</text><text font-family="Times New Roman,Times New Roman_MSFontService,sans-serif" font-weight="400" font-size="24" transform="translate(910.184 205)">BIX</text><text font-family="Times New Roman,Times New Roman_MSFontService,sans-serif" font-weight="400" font-size="24" transform="translate(262.714 320)">Ⅱ</text><text font-family="Times New Roman,Times New Roman_MSFontService,sans-serif" font-weight="400" font-size="24" transform="translate(278.214 320)">-</text><text font-family="Times New Roman,Times New Roman_MSFontService,sans-serif" font-weight="400" font-size="24" transform="translate(286.214 320)">Area</text><text font-family="Times New Roman,Times New Roman_MSFontService,sans-serif" font-weight="400" font-size="24" transform="translate(905.112 546)">pH</text><text font-family="Times New Roman,Times New Roman_MSFontService,sans-serif" font-style="italic" font-weight="400" font-size="24" transform="translate(840.85 110)">nirS</text><text font-family="Times New Roman,Times New Roman_MSFontService,sans-serif" font-weight="400" font-size="24" transform="translate(277.695 451)">Ⅰ</text><text font-family="Times New Roman,Times New Roman_MSFontService,sans-serif" font-weight="400" font-size="24" transform="translate(285.695 451)">-</text><text font-family="Times New Roman,Times New Roman_MSFontService,sans-serif" font-weight="400" font-size="24" transform="translate(293.695 451)">Area</text><text font-family="Times New Roman,Times New Roman_MSFontService,sans-serif" font-style="italic" font-weight="400" font-size="24" transform="translate(742.792 465)">Archaeal 16S rRNA</text><text font-family="Times New Roman,Times New Roman_MSFontService,sans-serif" font-style="italic" font-weight="400" font-size="24" transform="translate(817.192 641)">napA</text><text font-family="Times New Roman,Times New Roman_MSFontService,sans-serif" font-style="italic" font-weight="400" font-size="24" transform="translate(944.664 438)">hzsA</text><text font-family="Times New Roman,Times New Roman_MSFontService,sans-serif" font-style="italic" font-weight="400" font-size="24" transform="translate(384.113 649)">AOB_</text><text font-family="Times New Roman,Times New Roman_MSFontService,sans-serif" font-style="italic" font-weight="400" font-size="24" transform="translate(442.78 649)">amoA</text><text font-family="Times New Roman,Times New Roman_MSFontService,sans-serif" font-weight="400" font-size="24" transform="translate(678.22 702)">Ⅲ</text><text font-family="Times New Roman,Times New Roman_MSFontService,sans-serif" font-weight="400" font-size="24" transform="translate(701.22 702)">-</text><text font-family="Times New Roman,Times New Roman_MSFontService,sans-serif" font-weight="400" font-size="24" transform="translate(709.22 702)">Area</text><text font-family="Times New Roman,Times New Roman_MSFontService,sans-serif" font-style="italic" font-weight="400" font-size="24" transform="translate(628.223 605)">narG</text><text font-family="Times New Roman,Times New Roman_MSFontService,sans-serif" font-style="italic" font-weight="400" font-size="24" transform="translate(498.225 379)">hzo</text><text font-family="Times New Roman,Times New Roman_MSFontService,sans-serif" font-style="italic" font-weight="400" font-size="24" transform="translate(562.897 485)">nifH</text><text font-family="Times New Roman,Times New Roman_MSFontService,sans-serif" font-style="italic" font-weight="400" font-size="24" transform="translate(660.972 267)">hzsB</text><text font-family="Times New Roman,Times New Roman_MSFontService,sans-serif" font-style="italic" font-weight="400" font-size="24" transform="translate(793.024 244)">nxrA</text><text font-family="Times New Roman,Times New Roman_MSFontService,sans-serif" font-weight="400" font-size="24" transform="translate(595.89 148)">W</text><text font-family="Times New Roman,Times New Roman_MSFontService,sans-serif" font-weight="400" font-size="24" transform="translate(617.23 148)">-</text><text font-family="Times New Roman,Times New Roman_MSFontService,sans-serif" font-weight="400" font-size="24" transform="translate(625.23 148)">TN</text></g></svg>