<svg width="1280" height="720" xmlns="http://www.w3.org/2000/svg" xmlns:xlink="http://www.w3.org/1999/xlink" overflow="hidden"><defs><clipPath id="clip0"><rect x="0" y="0" width="1280" height="720"/></clipPath><clipPath id="clip1"><rect x="283" y="0" width="714" height="720"/></clipPath><clipPath id="clip2"><rect x="283" y="0" width="714" height="720"/></clipPath><clipPath id="clip3"><rect x="283" y="0" width="714" height="720"/></clipPath></defs><g clip-path="url(#clip0)"><rect x="0" y="0" width="1280" height="720" fill="#FFFFFF"/><g clip-path="url(#clip1)"><g clip-path="url(#clip2)"><g clip-path="url(#clip3)"><path d="M-162.716 296.82C-125.475 222.435 41.9658 166.719 116.351 203.96" stroke="#B95661" stroke-width="3.47163" fill="none" transform="matrix(1 0 0 1.00042 638.188 359.527)"/><path d="M-162.716 296.82C-169.75 235.574-88.43 133.154-27.1836 126.121" stroke="#51CE50" stroke-width="1.05876" fill="none" transform="matrix(1 0 0 1.00042 638.188 359.527)"/><path d="M-162.716 296.82C-107.457 251.038 44.1061 265.253 89.8885 320.513" stroke="#50CE4E" stroke-width="1.31833" fill="none" transform="matrix(1 0 0 1.00042 638.188 359.527)"/><path d="M-335.112-39.4142C-224.234-98.9322 31.3587-21.8932 90.8767 88.9842" stroke="#2DCF2B" stroke-width="4.74048" fill="none" transform="matrix(1 0 0 1.00042 638.188 359.527)"/><path d="M-335.112-39.4142C-328.753-96.6944-233.295-173.077-176.015-166.718" stroke="#46CE45" stroke-width="2.84943" fill="none" transform="matrix(1 0 0 1.00042 638.188 359.527)"/><path d="M338.8 37.8073C299.45 97.6272 150.697 128.333 90.8767 88.9842" stroke="#35CE34" stroke-width="4.34679" fill="none" transform="matrix(1 0 0 1.00042 638.188 359.527)"/><path d="M298.719 164.143C242.119 190.68 117.413 145.584 90.8767 88.9842" stroke="#3ECE3C" stroke-width="3.74172" fill="none" transform="matrix(1 0 0 1.00042 638.188 359.527)"/><path d="M-204.945-273.837C-99.5696-355.62 181.167-320.231 262.949-214.856" stroke="#B9535F" stroke-width="3.69799" fill="none" transform="matrix(1 0 0 1.00042 638.188 359.527)"/><path d="M-204.945-273.837C-161.786-225.302-169.85-87.7607-218.385-44.6016" stroke="#43CE42" stroke-width="3.18385" fill="none" transform="matrix(1 0 0 1.00042 638.188 359.527)"/><path d="M-204.945-273.837C-125.939-289.941 16.7241-195.589 32.828-116.584" stroke="#B95762" stroke-width="3.3411" fill="none" transform="matrix(1 0 0 1.00042 638.188 359.527)"/><path d="M-204.945-273.837C-177.735-258.199-160.377-193.928-176.015-166.718" stroke="#4DCE4C" stroke-width="1.81422" fill="none" transform="matrix(1 0 0 1.00042 638.188 359.527)"/><path d="M-1.76304 0.555955C-54.1189 34.8488-184.092 7.75425-218.385-44.6016" stroke="#B95561" stroke-width="3.53466" fill="none" transform="matrix(1 0 0 1.00042 638.188 359.527)"/><path d="M-1.76304 0.555955C-83.8764-46.2152-136.89-239.542-90.1185-321.655" stroke="#BB656F" stroke-width="1.27549" fill="none" transform="matrix(1 0 0 1.00042 638.188 359.527)"/><path d="M-1.76304 0.555955C18.2658 30.753 3.01346 106.092-27.1836 126.121" stroke="#3FCE3E" stroke-width="3.56718" fill="none" transform="matrix(1 0 0 1.00042 638.188 359.527)"/><path d="M-1.76304 0.555955C8.07744 64.1043-72.4844 174.188-136.033 184.028" stroke="#4BCE49" stroke-width="2.17884" fill="none" transform="matrix(1 0 0 1.00042 638.188 359.527)"/><path d="M-1.76304 0.555955C-16.7659 32.0024-86.4399 56.6679-117.886 41.665" stroke="#4ACE49" stroke-width="2.24746" fill="none" transform="matrix(1 0 0 1.00042 638.188 359.527)"/><path d="M-1.76304 0.555955C80.5586 46.217 135.55 238.191 89.8885 320.513" stroke="#41CE40" stroke-width="3.39734" fill="none" transform="matrix(1 0 0 1.00042 638.188 359.527)"/><path d="M-1.76304 0.555955C16.8612-30.0342 90.6827-47.983 121.273-29.3588" stroke="#47CE45" stroke-width="2.73015" fill="none" transform="matrix(1 0 0 1.00042 638.188 359.527)"/><path d="M-41.754 340.463C-58.1583 212.055 109.848-5.16386 238.256-21.5681" stroke="#50CE4F" stroke-width="1.14892" fill="none" transform="matrix(1 0 0 1.00042 638.188 359.527)"/><path d="M-41.754 340.463C-39.9775 243.607 107.972 100.987 204.828 102.763" stroke="#52CE51" stroke-width="0.82857" fill="none" transform="matrix(1 0 0 1.00042 638.188 359.527)"/><path d="M-54.1989-213.56C35.3249-182.066 122.37-0.539704 90.8767 88.9842" stroke="#3CCE3A" stroke-width="3.90909" fill="none" transform="matrix(1 0 0 1.00042 638.188 359.527)"/><path d="M116.351 203.96C25.7495 247.599-175.611 177.154-219.25 86.5523" stroke="#54CE52" stroke-width="0.517702" fill="none" transform="matrix(1 0 0 1.00042 638.188 359.527)"/><path d="M116.351 203.96C88.2612 186.06 72.9764 117.074 90.8767 88.9842" stroke="#B53948" stroke-width="4.96455" fill="none" transform="matrix(1 0 0 1.00042 638.188 359.527)"/><path d="M116.351 203.96C113.807 166.025 166.894 105.307 204.828 102.763" stroke="#48CE46" stroke-width="2.61712" fill="none" transform="matrix(1 0 0 1.00042 638.188 359.527)"/><path d="M116.351 203.96C72.0765 217.099-14.0445 170.396-27.1836 126.121" stroke="#0ECF0C" stroke-width="5.16263" fill="none" transform="matrix(1 0 0 1.00042 638.188 359.527)"/><path d="M116.351 203.96C61.8881 250.45-89.5423 238.491-136.033 184.028" stroke="#31CF30" stroke-width="4.55586" fill="none" transform="matrix(1 0 0 1.00042 638.188 359.527)"/><path d="M116.351 203.96C37.0448 218.349-103.498 120.972-117.886 41.665" stroke="#1ECF1D" stroke-width="5.06043" fill="none" transform="matrix(1 0 0 1.00042 638.188 359.527)"/><path d="M116.351 203.96C134.369 232.563 118.492 302.495 89.8885 320.513" stroke="#02D000" stroke-width="5.17564" fill="none" transform="matrix(1 0 0 1.00042 638.188 359.527)"/><path d="M116.351 203.96C70.6719 156.312 73.6248 16.3207 121.273-29.3588" stroke="#47CE46" stroke-width="2.71316" fill="none" transform="matrix(1 0 0 1.00042 638.188 359.527)"/><path d="M-263.519 210.715C-207.393 164.764-54.2773 180.027-8.32653 236.154" stroke="#B74754" stroke-width="4.52558" fill="none" transform="matrix(1 0 0 1.00042 638.188 359.527)"/><path d="M-263.519 210.715C-157.208 125.805 129.624 157.907 214.534 264.218" stroke="#BA5B66" stroke-width="2.90616" fill="none" transform="matrix(1 0 0 1.00042 638.188 359.527)"/><path d="M-263.519 210.715C-288.635 117.698-186.784-59.4999-93.768-84.6158" stroke="#B84E5A" stroke-width="4.13429" fill="none" transform="matrix(1 0 0 1.00042 638.188 359.527)"/><path d="M-8.32653 236.154C41.8583 197.195 175.575 214.033 214.534 264.218" stroke="#AC0216" stroke-width="5.17702" fill="none" transform="matrix(1 0 0 1.00042 638.188 359.527)"/><path d="M-8.32653 236.154C-10.2225 102.883 186.84-99.868 320.112-101.764" stroke="#47CE46" stroke-width="2.63545" fill="none" transform="matrix(1 0 0 1.00042 638.188 359.527)"/><path d="M-8.32653 236.154C-70.6432 157.375-45.9504-54.2672 32.828-116.584" stroke="#BC6670" stroke-width="1.09925" fill="none" transform="matrix(1 0 0 1.00042 638.188 359.527)"/><path d="M320.112-101.764C207.895-15.5296-89.7804-54.5022-176.015-166.718" stroke="#BB5F6A" stroke-width="2.26321" fill="none" transform="matrix(1 0 0 1.00042 638.188 359.527)"/><path d="M-219.25 86.5523C-245.308 60.1485-244.789-18.5439-218.385-44.6016" stroke="#3FCE3E" stroke-width="3.61327" fill="none" transform="matrix(1 0 0 1.00042 638.188 359.527)"/><path d="M-219.25 86.5523C-218.939-65.8818 10.1793-294.066 162.613-293.755" stroke="#45CE44" stroke-width="2.91688" fill="none" transform="matrix(1 0 0 1.00042 638.188 359.527)"/><path d="M-219.25 86.5523C-275.065-20.9155-197.586-265.84-90.1185-321.655" stroke="#4FCE4D" stroke-width="1.48784" fill="none" transform="matrix(1 0 0 1.00042 638.188 359.527)"/><path d="M-219.25 86.5523C-172.923 56.0527-57.6832 79.7938-27.1836 126.121" stroke="#B8515D" stroke-width="3.86956" fill="none" transform="matrix(1 0 0 1.00042 638.188 359.527)"/><path d="M-219.25 86.5523C-240.53 108.698-305.669 109.997-327.815 88.717" stroke="#B74754" stroke-width="4.54174" fill="none" transform="matrix(1 0 0 1.00042 638.188 359.527)"/><path d="M-219.25 86.5523C-183.111 89.404-133.181 147.889-136.033 184.028" stroke="#B95762" stroke-width="3.34518" fill="none" transform="matrix(1 0 0 1.00042 638.188 359.527)"/><path d="M-219.25 86.5523C-207.955 57.3021-147.137 30.3697-117.886 41.665" stroke="#B74855" stroke-width="4.45858" fill="none" transform="matrix(1 0 0 1.00042 638.188 359.527)"/><path d="M-219.25 86.5523C-110.63 71.5167 74.8529 211.893 89.8885 320.513" stroke="#B8525E" stroke-width="3.8246" fill="none" transform="matrix(1 0 0 1.00042 638.188 359.527)"/><path d="M-219.25 86.5523C-174.328-4.73447 29.9861-74.2811 121.273-29.3588" stroke="#B6404E" stroke-width="4.79837" fill="none" transform="matrix(1 0 0 1.00042 638.188 359.527)"/><path d="M173.835-143.78C75.9748-54.0017-205.482-66.1245-295.259-163.984" stroke="#AC0014" stroke-width="5.17702" fill="none" transform="matrix(1 0 0 1.00042 638.188 359.527)"/><path d="M173.835-143.78C141.595-171.53 134.863-261.515 162.613-293.755" stroke="#34CF32" stroke-width="4.42937" fill="none" transform="matrix(1 0 0 1.00042 638.188 359.527)"/><path d="M173.835-143.78C85.4688-126.564-72.9031-233.29-90.1185-321.655" stroke="#3BCE3A" stroke-width="3.94944" fill="none" transform="matrix(1 0 0 1.00042 638.188 359.527)"/><path d="M-218.385-44.6016C-182.539-109.241-31.811-152.43 32.828-116.584" stroke="#31CF2F" stroke-width="4.58745" fill="none" transform="matrix(1 0 0 1.00042 638.188 359.527)"/><path d="M-218.385-44.6016C-192.016-170.632 36.5832-320.124 162.613-293.755" stroke="#B12131" stroke-width="5.16651" fill="none" transform="matrix(1 0 0 1.00042 638.188 359.527)"/><path d="M-218.385-44.6016C-248.142-125.666-171.183-291.898-90.1185-321.655" stroke="#B12233" stroke-width="5.16284" fill="none" transform="matrix(1 0 0 1.00042 638.188 359.527)"/><path d="M-218.385-44.6016C-146-48.6974-31.2794 53.7361-27.1836 126.121" stroke="#41CE40" stroke-width="3.3617" fill="none" transform="matrix(1 0 0 1.00042 638.188 359.527)"/><path d="M-218.385-44.6016C-213.607 3.9481-279.265 83.9393-327.815 88.717" stroke="#47CE45" stroke-width="2.75549" fill="none" transform="matrix(1 0 0 1.00042 638.188 359.527)"/><path d="M-218.385-44.6016C-156.188-15.3461-106.777 121.832-136.033 184.028" stroke="#51CE50" stroke-width="1.07284" fill="none" transform="matrix(1 0 0 1.00042 638.188 359.527)"/><path d="M-218.385-44.6016C-181.032-47.4479-120.733 4.312-117.886 41.665" stroke="#48CE47" stroke-width="2.49809" fill="none" transform="matrix(1 0 0 1.00042 638.188 359.527)"/><path d="M-218.385-44.6016C-83.7072-33.2334 101.257 185.835 89.8885 320.513" stroke="#52CE51" stroke-width="0.753663" fill="none" transform="matrix(1 0 0 1.00042 638.188 359.527)"/><path d="M-218.385-44.6016C-147.405-109.485 56.3899-100.339 121.273-29.3588" stroke="#34CF32" stroke-width="4.42157" fill="none" transform="matrix(1 0 0 1.00042 638.188 359.527)"/><path d="M-295.259-163.984C-229.639-281.513 45.0847-359.375 162.613-293.755" stroke="#3BCE3A" stroke-width="3.9571" fill="none" transform="matrix(1 0 0 1.00042 638.188 359.527)"/><path d="M-295.259-163.984C-285.765-236.547-162.681-331.149-90.1185-321.655" stroke="#3DCE3B" stroke-width="3.83536" fill="none" transform="matrix(1 0 0 1.00042 638.188 359.527)"/><path d="M32.828-116.584C92.9168-138.666 216.174-81.6569 238.256-21.5681" stroke="#BB626C" stroke-width="1.87171" fill="none" transform="matrix(1 0 0 1.00042 638.188 359.527)"/><path d="M32.828-116.584C-11.2153-161.207-10.3463-294.205 34.2764-338.249" stroke="#B8505C" stroke-width="3.97715" fill="none" transform="matrix(1 0 0 1.00042 638.188 359.527)"/><path d="M32.828-116.584C69.3666-56.0406 33.3596 89.5821-27.1836 126.121" stroke="#BA5C67" stroke-width="2.74716" fill="none" transform="matrix(1 0 0 1.00042 638.188 359.527)"/><path d="M32.828-116.584C59.1783-22.6894-42.1382 157.678-136.033 184.028" stroke="#BC6670" stroke-width="1.04815" fill="none" transform="matrix(1 0 0 1.00042 638.188 359.527)"/><path d="M32.828-116.584C34.3349-54.7912-56.0937 40.1581-117.886 41.665" stroke="#BC6871" stroke-width="0.784408" fill="none" transform="matrix(1 0 0 1.00042 638.188 359.527)"/><path d="M32.828-116.584C131.659-40.5766 165.896 221.681 89.8885 320.513" stroke="#BB616C" stroke-width="1.91966" fill="none" transform="matrix(1 0 0 1.00042 638.188 359.527)"/><path d="M32.828-116.584C67.962-116.828 121.029-64.4928 121.273-29.3588" stroke="#BA5B66" stroke-width="2.90221" fill="none" transform="matrix(1 0 0 1.00042 638.188 359.527)"/><path d="M238.256-21.5681C168.69-60.8768 123.305-224.189 162.613-293.755" stroke="#BA5964" stroke-width="3.07618" fill="none" transform="matrix(1 0 0 1.00042 638.188 359.527)"/><path d="M162.613-293.755C106.487-248.788-45.1523-265.529-90.1185-321.655" stroke="#AC0518" stroke-width="5.17701" fill="none" transform="matrix(1 0 0 1.00042 638.188 359.527)"/><path d="M34.2764-338.249C113.454-293.87 165.652-108.536 121.273-29.3588" stroke="#BB616C" stroke-width="1.94402" fill="none" transform="matrix(1 0 0 1.00042 638.188 359.527)"/><path d="M90.8767 88.9842C74.6919 120.024 3.85577 142.305-27.1836 126.121" stroke="#53CE52" stroke-width="0.58551" fill="none" transform="matrix(1 0 0 1.00042 638.188 359.527)"/><path d="M90.8767 88.9842C136.985 135.488 136.392 274.405 89.8885 320.513" stroke="#35CE34" stroke-width="4.33889" fill="none" transform="matrix(1 0 0 1.00042 638.188 359.527)"/><path d="M204.828 102.763C163.098 153.837 23.8903 167.852-27.1836 126.121" stroke="#B22636" stroke-width="5.15362" fill="none" transform="matrix(1 0 0 1.00042 638.188 359.527)"/><path d="M204.828 102.763C95.4906 206.483-224.095 198.055-327.815 88.717" stroke="#BA5C67" stroke-width="2.73712" fill="none" transform="matrix(1 0 0 1.00042 638.188 359.527)"/><path d="M204.828 102.763C152.909 187.188-51.6075 235.947-136.033 184.028" stroke="#B12536" stroke-width="5.15524" fill="none" transform="matrix(1 0 0 1.00042 638.188 359.527)"/><path d="M204.828 102.763C128.066 155.087-65.5631 118.428-117.886 41.665" stroke="#B01C2D" stroke-width="5.17235" fill="none" transform="matrix(1 0 0 1.00042 638.188 359.527)"/><path d="M204.828 102.763C225.39 169.301 156.426 299.951 89.8885 320.513" stroke="#B32F3E" stroke-width="5.107" fill="none" transform="matrix(1 0 0 1.00042 638.188 359.527)"/><path d="M204.828 102.763C161.693 93.05 111.56 13.7768 121.273-29.3588" stroke="#B32D3D" stroke-width="5.11793" fill="none" transform="matrix(1 0 0 1.00042 638.188 359.527)"/><path d="M204.828 102.763C107.633 125.007-71.5246 12.5794-93.768-84.6158" stroke="#B74956" stroke-width="4.39502" fill="none" transform="matrix(1 0 0 1.00042 638.188 359.527)"/><path d="M-27.1836 126.121C-37.372 159.472-102.681 194.216-136.033 184.028" stroke="#AD081B" stroke-width="5.177" fill="none" transform="matrix(1 0 0 1.00042 638.188 359.527)"/><path d="M-27.1836 126.121C-62.2153 127.37-116.637 76.6967-117.886 41.665" stroke="#AC0216" stroke-width="5.17702" fill="none" transform="matrix(1 0 0 1.00042 638.188 359.527)"/><path d="M-27.1836 126.121C35.1092 141.585 105.353 258.22 89.8885 320.513" stroke="#AC0115" stroke-width="5.17702" fill="none" transform="matrix(1 0 0 1.00042 638.188 359.527)"/><path d="M-27.1836 126.121C-28.5882 65.3335 60.4856-27.9542 121.273-29.3588" stroke="#AF1325" stroke-width="5.17634" fill="none" transform="matrix(1 0 0 1.00042 638.188 359.527)"/><path d="M-27.1836 126.121C-82.6478 97.2903-122.598-29.1516-93.768-84.6158" stroke="#B9535F" stroke-width="3.72302" fill="none" transform="matrix(1 0 0 1.00042 638.188 359.527)"/><path d="M-327.815 88.717C-270.396 69.4229-155.327 126.609-136.033 184.028" stroke="#B9535F" stroke-width="3.73919" fill="none" transform="matrix(1 0 0 1.00042 638.188 359.527)"/><path d="M-327.815 88.717C-295.239 37.321-169.282 9.08976-117.886 41.665" stroke="#B84E5A" stroke-width="4.11097" fill="none" transform="matrix(1 0 0 1.00042 638.188 359.527)"/><path d="M-327.815 88.717C-261.612-24.7156 7.8402-95.5611 121.273-29.3588" stroke="#B64451" stroke-width="4.65169" fill="none" transform="matrix(1 0 0 1.00042 638.188 359.527)"/><path d="M-136.033 184.028C-160.876 151.926-149.988 66.5083-117.886 41.665" stroke="#AC0216" stroke-width="5.17701" fill="none" transform="matrix(1 0 0 1.00042 638.188 359.527)"/><path d="M-136.033 184.028C-63.5515 166.141 72.0013 248.032 89.8885 320.513" stroke="#AF1729" stroke-width="5.17533" fill="none" transform="matrix(1 0 0 1.00042 638.188 359.527)"/><path d="M-136.033 184.028C-127.249 89.8895 27.1344-38.1425 121.273-29.3588" stroke="#AD0B1E" stroke-width="5.17696" fill="none" transform="matrix(1 0 0 1.00042 638.188 359.527)"/><path d="M-136.033 184.028C-181.309 121.846-155.95-39.3399-93.768-84.6158" stroke="#BA5A65" stroke-width="2.93217" fill="none" transform="matrix(1 0 0 1.00042 638.188 359.527)"/><path d="M-117.886 41.665C-20.5619 55.8795 104.103 223.188 89.8885 320.513" stroke="#AE0E20" stroke-width="5.17688" fill="none" transform="matrix(1 0 0 1.00042 638.188 359.527)"/><path d="M-117.886 41.665C-84.2593-20.3716 59.2362-62.9859 121.273-29.3588" stroke="#AD0619" stroke-width="5.17701" fill="none" transform="matrix(1 0 0 1.00042 638.188 359.527)"/><path d="M-117.886 41.665C-138.319 11.5852-123.848-64.1833-93.768-84.6158" stroke="#B8515D" stroke-width="3.8988" fill="none" transform="matrix(1 0 0 1.00042 638.188 359.527)"/><path d="M89.8885 320.513C26.1911 244.262 45.0217 34.3387 121.273-29.3588" stroke="#B12434" stroke-width="5.16034" fill="none" transform="matrix(1 0 0 1.00042 638.188 359.527)"/><path d="M121.273-29.3588C67.2133 2.59799-61.8112-30.5562-93.768-84.6158" stroke="#BB606A" stroke-width="2.18704" fill="none" transform="matrix(1 0 0 1.00042 638.188 359.527)"/><path d="M-143.044 296.82C-143.044 307.685-151.851 316.493-162.716 316.493-173.581 316.493-182.389 307.685-182.389 296.82-182.389 285.955-173.581 277.148-162.716 277.148-151.851 277.148-143.044 285.955-143.044 296.82Z" stroke="#000000" stroke-width="0.517702" fill="#28B36A" transform="matrix(1 0 0 1.00042 638.188 359.527)"/><path d="M136.024 203.96C136.024 214.825 127.216 223.633 116.351 223.633 105.486 223.633 96.6787 214.825 96.6787 203.96 96.6787 193.095 105.486 184.287 116.351 184.287 127.216 184.287 136.024 193.095 136.024 203.96Z" stroke="#000000" stroke-width="0.517702" fill="#9A96E5" transform="matrix(1 0 0 1.00042 638.188 359.527)"/><path d="M-7.51095 126.121C-7.51095 136.986-16.3187 145.793-27.1836 145.793-38.0485 145.793-46.8563 136.986-46.8563 126.121-46.8563 115.256-38.0485 106.448-27.1836 106.448-16.3187 106.448-7.51095 115.256-7.51095 126.121Z" stroke="#000000" stroke-width="0.517702" fill="#F97743" transform="matrix(1 0 0 1.00042 638.188 359.527)"/><path d="M109.561 320.513C109.561 331.378 100.753 340.185 89.8885 340.185 79.0236 340.185 70.2159 331.378 70.2159 320.513 70.2159 309.648 79.0236 300.84 89.8885 300.84 100.753 300.84 109.561 309.648 109.561 320.513Z" stroke="#000000" stroke-width="0.517702" fill="#F97743" transform="matrix(1 0 0 1.00042 638.188 359.527)"/><path d="M-315.439-39.4142C-315.439-28.5493-324.247-19.7416-335.112-19.7416-345.977-19.7416-354.784-28.5493-354.784-39.4142-354.784-50.2791-345.977-59.0869-335.112-59.0869-324.247-59.0869-315.439-50.2791-315.439-39.4142Z" stroke="#000000" stroke-width="0.517702" fill="#28B36A" transform="matrix(1 0 0 1.00042 638.188 359.527)"/><path d="M110.549 88.9842C110.549 99.8491 101.742 108.657 90.8767 108.657 80.0118 108.657 71.204 99.8491 71.204 88.9842 71.204 78.1193 80.0118 69.3115 90.8767 69.3115 101.742 69.3115 110.549 78.1193 110.549 88.9842Z" stroke="#000000" stroke-width="0.517702" fill="#F97743" transform="matrix(1 0 0 1.00042 638.188 359.527)"/><path d="M-156.342-166.718C-156.342-155.853-165.15-147.046-176.015-147.046-186.88-147.046-195.688-155.853-195.688-166.718-195.688-177.583-186.88-186.391-176.015-186.391-165.15-186.391-156.342-177.583-156.342-166.718Z" stroke="#000000" stroke-width="0.517702" fill="#F97743" transform="matrix(1 0 0 1.00042 638.188 359.527)"/><path d="M93.5808-225.88C93.5808-215.015 84.773-206.207 73.9081-206.207 63.0432-206.207 54.2355-215.015 54.2355-225.88 54.2355-236.745 63.0432-245.553 73.9081-245.553 84.773-245.553 93.5808-236.745 93.5808-225.88Z" stroke="#000000" stroke-width="0.517702" fill="#28B36A" transform="matrix(1 0 0 1.00042 638.188 359.527)"/><path d="M358.472 37.8073C358.472 48.6722 349.664 57.48 338.8 57.48 327.935 57.48 319.127 48.6722 319.127 37.8073 319.127 26.9424 327.935 18.1346 338.8 18.1346 349.664 18.1346 358.472 26.9424 358.472 37.8073Z" stroke="#000000" stroke-width="0.517702" fill="#28B36A" transform="matrix(1 0 0 1.00042 638.188 359.527)"/><path d="M318.392 164.143C318.392 175.008 309.584 183.816 298.719 183.816 287.854 183.816 279.046 175.008 279.046 164.143 279.046 153.278 287.854 144.471 298.719 144.471 309.584 144.471 318.392 153.278 318.392 164.143Z" stroke="#000000" stroke-width="0.517702" fill="#28B36A" transform="matrix(1 0 0 1.00042 638.188 359.527)"/><path d="M-185.272-273.837C-185.272-262.972-194.08-254.164-204.945-254.164-215.81-254.164-224.617-262.972-224.617-273.837-224.617-284.702-215.81-293.51-204.945-293.51-194.08-293.51-185.272-284.702-185.272-273.837Z" stroke="#000000" stroke-width="0.517702" fill="#28B36A" transform="matrix(1 0 0 1.00042 638.188 359.527)"/><path d="M282.622-214.856C282.622-203.991 273.814-195.183 262.949-195.183 252.084-195.183 243.276-203.991 243.276-214.856 243.276-225.721 252.084-234.528 262.949-234.528 273.814-234.528 282.622-225.721 282.622-214.856Z" stroke="#000000" stroke-width="0.517702" fill="#9A96E5" transform="matrix(1 0 0 1.00042 638.188 359.527)"/><path d="M-198.712-44.6016C-198.712-33.7367-207.52-24.9289-218.385-24.9289-229.25-24.9289-238.057-33.7367-238.057-44.6016-238.057-55.4665-229.25-64.2743-218.385-64.2743-207.52-64.2743-198.712-55.4665-198.712-44.6016Z" stroke="#000000" stroke-width="0.517702" fill="#9A96E5" transform="matrix(1 0 0 1.00042 638.188 359.527)"/><path d="M52.5007-116.584C52.5007-105.719 43.6929-96.9112 32.828-96.9112 21.9631-96.9112 13.1554-105.719 13.1554-116.584 13.1554-127.449 21.9631-136.257 32.828-136.257 43.6929-136.257 52.5007-127.449 52.5007-116.584Z" stroke="#000000" stroke-width="0.517702" fill="#9A96E5" transform="matrix(1 0 0 1.00042 638.188 359.527)"/><path d="M17.9096 0.555955C17.9096 11.4209 9.10187 20.2286-1.76304 20.2286-12.6279 20.2286-21.4357 11.4209-21.4357 0.555955-21.4357-10.309-12.6279-19.1167-1.76304-19.1167 9.10187-19.1167 17.9096-10.309 17.9096 0.555955Z" stroke="#000000" stroke-width="0.517702" fill="#28B36A" transform="matrix(1 0 0 1.00042 638.188 359.527)"/><path d="M-70.4459-321.655C-70.4459-310.791-79.2536-301.983-90.1185-301.983-100.983-301.983-109.791-310.791-109.791-321.655-109.791-332.52-100.983-341.328-90.1185-341.328-79.2536-341.328-70.4459-332.52-70.4459-321.655Z" stroke="#000000" stroke-width="0.517702" fill="#9A96E5" transform="matrix(1 0 0 1.00042 638.188 359.527)"/><path d="M-116.36 184.028C-116.36 194.893-125.168 203.701-136.033 203.701-146.898 203.701-155.705 194.893-155.705 184.028-155.705 173.163-146.898 164.355-136.033 164.355-125.168 164.355-116.36 173.163-116.36 184.028Z" stroke="#000000" stroke-width="0.517702" fill="#F97743" transform="matrix(1 0 0 1.00042 638.188 359.527)"/><path d="M-98.2137 41.665C-98.2137 52.5299-107.021 61.3376-117.886 61.3376-128.751 61.3376-137.559 52.5299-137.559 41.665-137.559 30.8001-128.751 21.9923-117.886 21.9923-107.021 21.9923-98.2137 30.8001-98.2137 41.665Z" stroke="#000000" stroke-width="0.517702" fill="#F97743" transform="matrix(1 0 0 1.00042 638.188 359.527)"/><path d="M140.945-29.3588C140.945-18.4939 132.138-9.68614 121.273-9.68614 110.408-9.68614 101.6-18.4939 101.6-29.3588 101.6-40.2237 110.408-49.0314 121.273-49.0314 132.138-49.0314 140.945-40.2237 140.945-29.3588Z" stroke="#000000" stroke-width="0.517702" fill="#F97743" transform="matrix(1 0 0 1.00042 638.188 359.527)"/><path d="M-22.0814 340.463C-22.0814 351.328-30.8891 360.136-41.754 360.136-52.6189 360.136-61.4267 351.328-61.4267 340.463-61.4267 329.598-52.6189 320.791-41.754 320.791-30.8891 320.791-22.0814 329.598-22.0814 340.463Z" stroke="#000000" stroke-width="0.517702" fill="#28B36A" transform="matrix(1 0 0 1.00042 638.188 359.527)"/><path d="M257.929-21.5681C257.929-10.7032 249.121-1.89543 238.256-1.89543 227.391-1.89543 218.584-10.7032 218.584-21.5681 218.584-32.433 227.391-41.2407 238.256-41.2407 249.121-41.2407 257.929-32.433 257.929-21.5681Z" stroke="#000000" stroke-width="0.517702" fill="#9A96E5" transform="matrix(1 0 0 1.00042 638.188 359.527)"/><path d="M224.501 102.763C224.501 113.628 215.693 122.436 204.828 122.436 193.964 122.436 185.156 113.628 185.156 102.763 185.156 91.8984 193.964 83.0907 204.828 83.0907 215.693 83.0907 224.501 91.8984 224.501 102.763Z" stroke="#000000" stroke-width="0.517702" fill="#F97743" transform="matrix(1 0 0 1.00042 638.188 359.527)"/><path d="M-34.5263-213.56C-34.5263-202.695-43.334-193.887-54.1989-193.887-65.0639-193.887-73.8716-202.695-73.8716-213.56-73.8716-224.424-65.0639-233.232-54.1989-233.232-43.334-233.232-34.5263-224.424-34.5263-213.56Z" stroke="#000000" stroke-width="0.517702" fill="#28B36A" transform="matrix(1 0 0 1.00042 638.188 359.527)"/><path d="M-199.577 86.5523C-199.577 97.4172-208.385 106.225-219.25 106.225-230.115 106.225-238.923 97.4172-238.923 86.5523-238.923 75.6874-230.115 66.8796-219.25 66.8796-208.385 66.8796-199.577 75.6874-199.577 86.5523Z" stroke="#000000" stroke-width="0.517702" fill="#9A96E5" transform="matrix(1 0 0 1.00042 638.188 359.527)"/><path d="M182.286-293.755C182.286-282.89 173.478-274.082 162.613-274.082 151.748-274.082 142.941-282.89 142.941-293.755 142.941-304.62 151.748-313.427 162.613-313.427 173.478-313.427 182.286-304.62 182.286-293.755Z" stroke="#000000" stroke-width="0.517702" fill="#9A96E5" transform="matrix(1 0 0 1.00042 638.188 359.527)"/><path d="M-308.142 88.717C-308.142 99.5819-316.95 108.39-327.815 108.39-338.679 108.39-347.487 99.5819-347.487 88.717-347.487 77.8521-338.679 69.0444-327.815 69.0444-316.95 69.0444-308.142 77.8521-308.142 88.717Z" stroke="#000000" stroke-width="0.517702" fill="#F97743" transform="matrix(1 0 0 1.00042 638.188 359.527)"/><path d="M-243.847 210.715C-243.847 221.58-252.655 230.387-263.519 230.387-274.384 230.387-283.192 221.58-283.192 210.715-283.192 199.85-274.384 191.042-263.519 191.042-252.655 191.042-243.847 199.85-243.847 210.715Z" stroke="#000000" stroke-width="0.517702" fill="#9A96E5" transform="matrix(1 0 0 1.00042 638.188 359.527)"/><path d="M11.3461 236.154C11.3461 247.019 2.53838 255.827-8.32653 255.827-19.1914 255.827-27.9992 247.019-27.9992 236.154-27.9992 225.289-19.1914 216.481-8.32653 216.481 2.53838 216.481 11.3461 225.289 11.3461 236.154Z" stroke="#000000" stroke-width="0.517702" fill="#9A96E5" transform="matrix(1 0 0 1.00042 638.188 359.527)"/><path d="M234.207 264.218C234.207 275.083 225.399 283.891 214.534 283.891 203.669 283.891 194.861 275.083 194.861 264.218 194.861 253.353 203.669 244.545 214.534 244.545 225.399 244.545 234.207 253.353 234.207 264.218Z" stroke="#000000" stroke-width="0.517702" fill="#9A96E5" transform="matrix(1 0 0 1.00042 638.188 359.527)"/><path d="M-74.0954-84.6158C-74.0954-73.7508-82.9031-64.9431-93.768-64.9431-104.633-64.9431-113.441-73.7508-113.441-84.6158-113.441-95.4807-104.633-104.288-93.768-104.288-82.9031-104.288-74.0954-95.4807-74.0954-84.6158Z" stroke="#000000" stroke-width="0.517702" fill="#F97743" transform="matrix(1 0 0 1.00042 638.188 359.527)"/><path d="M339.784-101.764C339.784-90.8991 330.976-82.0913 320.112-82.0913 309.247-82.0913 300.439-90.8991 300.439-101.764 300.439-112.629 309.247-121.437 320.112-121.437 330.976-121.437 339.784-112.629 339.784-101.764Z" stroke="#000000" stroke-width="0.517702" fill="#9A96E5" transform="matrix(1 0 0 1.00042 638.188 359.527)"/><path d="M193.507-143.78C193.507-132.915 184.699-124.107 173.835-124.107 162.97-124.107 154.162-132.915 154.162-143.78 154.162-154.644 162.97-163.452 173.835-163.452 184.699-163.452 193.507-154.644 193.507-143.78Z" stroke="#000000" stroke-width="0.517702" fill="#9A96E5" transform="matrix(1 0 0 1.00042 638.188 359.527)"/><path d="M-275.587-163.984C-275.587-153.119-284.395-144.312-295.259-144.312-306.124-144.312-314.932-153.119-314.932-163.984-314.932-174.849-306.124-183.657-295.259-183.657-284.395-183.657-275.587-174.849-275.587-163.984Z" stroke="#000000" stroke-width="0.517702" fill="#9A96E5" transform="matrix(1 0 0 1.00042 638.188 359.527)"/><path d="M53.949-338.249C53.949-327.384 45.1413-318.576 34.2764-318.576 23.4115-318.576 14.6037-327.384 14.6037-338.249 14.6037-349.114 23.4115-357.921 34.2764-357.921 45.1413-357.921 53.949-349.114 53.949-338.249Z" stroke="#000000" stroke-width="0.517702" fill="#9A96E5" transform="matrix(1 0 0 1.00042 638.188 359.527)"/></g></g></g><text font-family="Times New Roman,Times New Roman_MSFontService,sans-serif" font-style="italic" font-weight="400" font-size="24" transform="translate(405.178 88)">cnorB</text><text font-family="Times New Roman,Times New Roman_MSFontService,sans-serif" font-weight="400" font-size="24" transform="translate(519.994 285)">W</text><text font-family="Times New Roman,Times New Roman_MSFontService,sans-serif" font-weight="400" font-size="24" transform="translate(541.334 285)">-</text><text font-family="Times New Roman,Times New Roman_MSFontService,sans-serif" font-weight="400" font-size="24" transform="translate(549.334 285)">T</text><text font-family="Times New Roman,Times New Roman_MSFontService,sans-serif" font-style="italic" font-weight="400" font-size="24" transform="translate(327.57 197)">β</text><text font-family="Times New Roman,Times New Roman_MSFontService,sans-serif" font-weight="400" font-size="24" transform="translate(339.57 197)">:</text><text font-family="Times New Roman,Times New Roman_MSFontService,sans-serif" font-style="italic" font-weight="400" font-size="24" transform="translate(346.236 197)">α</text><text font-family="Times New Roman,Times New Roman_MSFontService,sans-serif" font-style="italic" font-weight="400" font-size="24" transform="translate(233.303 329)">AOA_amoA</text><text font-family="Times New Roman,Times New Roman_MSFontService,sans-serif" font-weight="400" font-size="24" transform="translate(398.971 322)">HIX</text><text font-family="Cambria Math,Cambria Math_MSFontService,sans-serif" font-weight="400" font-size="24" transform="translate(269.854 453)">W</text><text font-family="Cambria Math,Cambria Math_MSFontService,sans-serif" font-weight="400" font-size="24" transform="translate(292.02 453)">-</text><text font-family="Cambria Math,Cambria Math_MSFontService,sans-serif" font-weight="400" font-size="24" transform="translate(300.02 453)">NO</text><text font-family="Cambria Math,Cambria Math_MSFontService,sans-serif" font-weight="400" font-size="18" transform="translate(332.02 459)">2</text><text font-family="Cambria Math,Cambria Math_MSFontService,sans-serif" font-weight="400" font-size="18" transform="translate(332.02 444)">−</text><text font-family="Times New Roman,Times New Roman_MSFontService,sans-serif" font-weight="400" font-size="24" transform="translate(317.76 582)">S</text><text font-family="Times New Roman,Times New Roman_MSFontService,sans-serif" font-weight="400" font-size="24" transform="translate(331.093 582)">-</text><text font-family="Times New Roman,Times New Roman_MSFontService,sans-serif" font-weight="400" font-size="24" transform="translate(339.093 582)">Size</text><text font-family="Times New Roman,Times New Roman_MSFontService,sans-serif" font-weight="400" font-size="24" transform="translate(380.427 582)">-</text><text font-family="Times New Roman,Times New Roman_MSFontService,sans-serif" font-weight="400" font-size="24" transform="translate(388.427 582)">d(0.1)</text><text font-family="Times New Roman,Times New Roman_MSFontService,sans-serif" font-style="italic" font-weight="400" font-size="24" transform="translate(363.164 668)">Archaeal 16S rRNA</text><text font-family="Times New Roman,Times New Roman_MSFontService,sans-serif" font-style="italic" font-weight="400" font-size="24" transform="translate(579.438 704)">hzsB</text><text font-family="Times New Roman,Times New Roman_MSFontService,sans-serif" font-weight="400" font-size="24" transform="translate(687.02 690)">W</text><text font-family="Times New Roman,Times New Roman_MSFontService,sans-serif" font-weight="400" font-size="24" transform="translate(708.36 690)">-</text><text font-family="Times New Roman,Times New Roman_MSFontService,sans-serif" font-weight="400" font-size="24" transform="translate(716.36 690)">COD</text><text font-family="Times New Roman,Times New Roman_MSFontService,sans-serif" font-style="italic" font-weight="400" font-size="24" transform="translate(912.912 529)">nosZ</text><text font-family="Times New Roman,Times New Roman_MSFontService,sans-serif" font-style="italic" font-weight="400" font-size="24" transform="translate(955.777 406)">nirK</text><text font-family="Times New Roman,Times New Roman_MSFontService,sans-serif" font-weight="400" font-size="24" transform="translate(728.391 569)">S</text><text font-family="Times New Roman,Times New Roman_MSFontService,sans-serif" font-weight="400" font-size="24" transform="translate(741.725 569)">-</text><text font-family="Times New Roman,Times New Roman_MSFontService,sans-serif" font-weight="400" font-size="24" transform="translate(749.725 569)">TP</text><text font-family="Times New Roman,Times New Roman_MSFontService,sans-serif" font-weight="400" font-size="24" transform="translate(837.407 266)">S</text><text font-family="Times New Roman,Times New Roman_MSFontService,sans-serif" font-weight="400" font-size="24" transform="translate(850.741 266)">-</text><text font-family="Times New Roman,Times New Roman_MSFontService,sans-serif" font-weight="400" font-size="24" transform="translate(858.741 266)">Size</text><text font-family="Times New Roman,Times New Roman_MSFontService,sans-serif" font-weight="400" font-size="24" transform="translate(900.074 266)">-</text><text font-family="Times New Roman,Times New Roman_MSFontService,sans-serif" font-weight="400" font-size="24" transform="translate(908.074 266)">d[(0.9</text><text font-family="Times New Roman,Times New Roman_MSFontService,sans-serif" font-weight="400" font-size="24" transform="translate(966.074 266)">-</text><text font-family="Times New Roman,Times New Roman_MSFontService,sans-serif" font-weight="400" font-size="24" transform="translate(974.074 266)">01)/0.5]</text><text font-family="Times New Roman,Times New Roman_MSFontService,sans-serif" font-weight="400" font-size="24" transform="translate(872.601 152)">S</text><text font-family="Times New Roman,Times New Roman_MSFontService,sans-serif" font-weight="400" font-size="24" transform="translate(885.935 152)">-</text><text font-family="Times New Roman,Times New Roman_MSFontService,sans-serif" font-weight="400" font-size="24" transform="translate(893.935 152)">TN</text><text font-family="Times New Roman,Times New Roman_MSFontService,sans-serif" font-weight="400" font-size="24" transform="translate(768.458 71)">Ⅲ</text><text font-family="Times New Roman,Times New Roman_MSFontService,sans-serif" font-weight="400" font-size="24" transform="translate(791.458 71)">-</text><text font-family="Times New Roman,Times New Roman_MSFontService,sans-serif" font-weight="400" font-size="24" transform="translate(799.458 71)">Area</text><text font-family="Times New Roman,Times New Roman_MSFontService,sans-serif" font-weight="400" font-size="24" transform="translate(638.098 27)">Ⅳ</text><text font-family="Times New Roman,Times New Roman_MSFontService,sans-serif" font-weight="400" font-size="24" transform="translate(663.265 27)">-</text><text font-family="Times New Roman,Times New Roman_MSFontService,sans-serif" font-weight="400" font-size="24" transform="translate(671.265 27)">Area</text><text font-family="Times New Roman,Times New Roman_MSFontService,sans-serif" font-weight="400" font-size="24" transform="translate(511.794 46)">Ⅴ</text><text font-family="Times New Roman,Times New Roman_MSFontService,sans-serif" font-weight="400" font-size="24" transform="translate(529.127 46)">-</text><text font-family="Times New Roman,Times New Roman_MSFontService,sans-serif" font-weight="400" font-size="24" transform="translate(537.127 46)">Area</text><text font-family="DengXian,DengXian_MSFontService,sans-serif" font-weight="400" font-size="24" transform="translate(484.511 407)">W</text><text font-family="DengXian,DengXian_MSFontService,sans-serif" font-weight="400" font-size="24" transform="translate(506.511 407)">-</text><text font-family="Cambria Math,Cambria Math_MSFontService,sans-serif" font-weight="400" font-size="24" transform="translate(518.511 407)">NH</text><text font-family="Cambria Math,Cambria Math_MSFontService,sans-serif" font-weight="400" font-size="18" transform="translate(551.344 412)">4</text><text font-family="Cambria Math,Cambria Math_MSFontService,sans-serif" font-weight="400" font-size="18" transform="translate(552.104 398)">+</text><text font-family="Times New Roman,Times New Roman_MSFontService,sans-serif" font-weight="400" font-size="24" transform="translate(818.326 469)">W</text><text font-family="Times New Roman,Times New Roman_MSFontService,sans-serif" font-weight="400" font-size="24" transform="translate(839.666 469)">-</text><text font-family="Times New Roman,Times New Roman_MSFontService,sans-serif" font-weight="400" font-size="24" transform="translate(847.666 469)">DO</text><text font-family="DengXian,DengXian_MSFontService,sans-serif" font-weight="400" font-size="24" transform="translate(430.599 203)">W</text><text font-family="DengXian,DengXian_MSFontService,sans-serif" font-weight="400" font-size="24" transform="translate(452.599 203)">-</text><text font-family="Cambria Math,Cambria Math_MSFontService,sans-serif" font-weight="400" font-size="24" transform="translate(464.599 203)">𝑃</text><text font-family="Cambria Math,Cambria Math_MSFontService,sans-serif" font-weight="400" font-size="24" transform="translate(479.432 203)">O</text><text font-family="Cambria Math,Cambria Math_MSFontService,sans-serif" font-weight="400" font-size="18" transform="translate(495.099 208)">4</text><text font-family="Cambria Math,Cambria Math_MSFontService,sans-serif" font-weight="400" font-size="18" transform="translate(495.099 193)">3</text><text font-family="Cambria Math,Cambria Math_MSFontService,sans-serif" font-weight="400" font-size="18" transform="translate(505.266 193)">−</text><text font-family="Times New Roman,Times New Roman_MSFontService,sans-serif" font-weight="400" font-size="24" transform="translate(577.035 495)">W</text><text font-family="Times New Roman,Times New Roman_MSFontService,sans-serif" font-weight="400" font-size="24" transform="translate(598.375 495)">-</text><text font-family="Times New Roman,Times New Roman_MSFontService,sans-serif" font-weight="400" font-size="24" transform="translate(606.375 495)">TN</text><text font-family="DengXian,DengXian_MSFontService,sans-serif" font-weight="400" font-size="24" transform="translate(468.305 552)">W</text><text font-family="DengXian,DengXian_MSFontService,sans-serif" font-weight="400" font-size="24" transform="translate(490.305 552)">-</text><text font-family="Cambria Math,Cambria Math_MSFontService,sans-serif" font-weight="400" font-size="24" transform="translate(502.305 552)">NO</text><text font-family="Cambria Math,Cambria Math_MSFontService,sans-serif" font-weight="400" font-size="18" transform="translate(534.305 557)">3</text><text font-family="Cambria Math,Cambria Math_MSFontService,sans-serif" font-weight="400" font-size="18" transform="translate(534.305 542)">−</text><text font-family="Times New Roman,Times New Roman_MSFontService,sans-serif" font-weight="400" font-size="24" transform="translate(410.178 453)">FI</text><text font-family="Times New Roman,Times New Roman_MSFontService,sans-serif" font-weight="400" font-size="24" transform="translate(569.629 605)">S</text><text font-family="Times New Roman,Times New Roman_MSFontService,sans-serif" font-weight="400" font-size="24" transform="translate(582.962 605)">-</text><text font-family="Times New Roman,Times New Roman_MSFontService,sans-serif" font-weight="400" font-size="24" transform="translate(590.962 605)">Size</text><text font-family="Times New Roman,Times New Roman_MSFontService,sans-serif" font-weight="400" font-size="24" transform="translate(632.295 605)">-</text><text font-family="Times New Roman,Times New Roman_MSFontService,sans-serif" font-weight="400" font-size="24" transform="translate(640.295 605)">d(0.5)</text><text font-family="Times New Roman,Times New Roman_MSFontService,sans-serif" font-weight="400" font-size="24" transform="translate(799.46 630)">S</text><text font-family="Times New Roman,Times New Roman_MSFontService,sans-serif" font-weight="400" font-size="24" transform="translate(812.794 630)">-</text><text font-family="Times New Roman,Times New Roman_MSFontService,sans-serif" font-weight="400" font-size="24" transform="translate(820.794 630)">Size</text><text font-family="Times New Roman,Times New Roman_MSFontService,sans-serif" font-weight="400" font-size="24" transform="translate(862.127 630)">-</text><text font-family="Times New Roman,Times New Roman_MSFontService,sans-serif" font-weight="400" font-size="24" transform="translate(870.127 630)">d(0.9)</text><text font-family="Times New Roman,Times New Roman_MSFontService,sans-serif" font-weight="400" font-size="24" transform="translate(733.792 340)">W</text><text font-family="Times New Roman,Times New Roman_MSFontService,sans-serif" font-weight="400" font-size="24" transform="translate(755.132 340)">-</text><text font-family="Times New Roman,Times New Roman_MSFontService,sans-serif" font-weight="400" font-size="24" transform="translate(763.132 340)">TP</text><text font-family="Times New Roman,Times New Roman_MSFontService,sans-serif" font-style="italic" font-weight="400" font-size="24" transform="translate(659.931 139)">AOB_amoA</text><text font-family="Times New Roman,Times New Roman_MSFontService,sans-serif" font-style="italic" font-weight="400" font-size="24" transform="translate(558.765 152)">nifH</text><text font-family="Times New Roman,Times New Roman_MSFontService,sans-serif" font-weight="400" font-size="24" transform="translate(792.117 224)">BIX</text><text font-family="Times New Roman,Times New Roman_MSFontService,sans-serif" font-weight="400" font-size="24" transform="translate(642.825 248)">Ⅰ</text><text font-family="Times New Roman,Times New Roman_MSFontService,sans-serif" font-weight="400" font-size="24" transform="translate(650.825 248)">-</text><text font-family="Times New Roman,Times New Roman_MSFontService,sans-serif" font-weight="400" font-size="24" transform="translate(658.825 248)">Area</text><text font-family="Times New Roman,Times New Roman_MSFontService,sans-serif" font-weight="400" font-size="24" transform="translate(702.012 456)">W</text><text font-family="Times New Roman,Times New Roman_MSFontService,sans-serif" font-weight="400" font-size="24" transform="translate(723.352 456)">-</text><text font-family="Times New Roman,Times New Roman_MSFontService,sans-serif" font-weight="400" font-size="24" transform="translate(731.352 456)">pH</text><text font-family="Times New Roman,Times New Roman_MSFontService,sans-serif" font-style="italic" font-weight="400" font-size="24" transform="translate(614.601 370)">hzsA</text><text font-family="Times New Roman,Times New Roman_MSFontService,sans-serif" font-weight="400" font-size="24" transform="translate(850.198 341)">Ⅱ</text><text font-family="Times New Roman,Times New Roman_MSFontService,sans-serif" font-weight="400" font-size="24" transform="translate(865.698 341)">-</text><text font-family="Times New Roman,Times New Roman_MSFontService,sans-serif" font-weight="400" font-size="24" transform="translate(873.698 341)">Area</text></g></svg>