<svg width="1280" height="720" xmlns="http://www.w3.org/2000/svg" xmlns:xlink="http://www.w3.org/1999/xlink" overflow="hidden"><defs><clipPath id="clip0"><rect x="0" y="0" width="1280" height="720"/></clipPath><clipPath id="clip1"><rect x="275" y="0" width="730" height="720"/></clipPath><clipPath id="clip2"><rect x="275" y="0" width="730" height="720"/></clipPath><clipPath id="clip3"><rect x="275" y="0" width="730" height="720"/></clipPath></defs><g clip-path="url(#clip0)"><rect x="0" y="0" width="1280" height="720" fill="#FFFFFF"/><g clip-path="url(#clip1)"><g clip-path="url(#clip2)"><g clip-path="url(#clip3)"><path d="M-319.759-37.1155C-100.018-109.699 141.732-39.5519 288.493 139.377" stroke="#B32D3C" stroke-width="1.04818" stroke-linecap="round" fill="none" transform="matrix(1 0 0 1.00076 640.278 363.333)"/><path d="M340.264-82.7764C374.133-10.1269 365.595 75.2231 318.006 139.724" stroke="#AC0317" stroke-width="4.6757" stroke-linecap="round" fill="none" transform="matrix(1 0 0 1.00076 640.278 363.333)"/><path d="M305.691-104.96C182.029-117.016 76.6816-199.919 35.8885-317.28" stroke="#3ECE3C" stroke-width="2.24402" stroke-linecap="round" fill="none" transform="matrix(1 0 0 1.00076 640.278 363.333)"/><path d="M306.021-99.3739C238.85-91.5227 172.545-119.839 131.768-173.792" stroke="#40CE3E" stroke-width="2.0268" stroke-linecap="round" fill="none" transform="matrix(1 0 0 1.00076 640.278 363.333)"/><path d="M-82.8204-303.08C62.8813-130.412 87.5091 114.04-20.8228 312.302" stroke="#02D000" stroke-width="5.55133" stroke-linecap="round" fill="none" transform="matrix(1 0 0 1.00076 640.278 363.333)"/><path d="M-77.1769-310.525C129.1-205.778 249.635 15.123 226.095 245.271" stroke="#AF1627" stroke-width="3.49138" stroke-linecap="round" fill="none" transform="matrix(1 0 0 1.00076 640.278 363.333)"/><path d="M194.985 32.2249C118.397-57.844 100.809-184.08 149.861-291.654" stroke="#49CE48" stroke-width="0.821641" stroke-linecap="round" fill="none" transform="matrix(1 0 0 1.00076 640.278 363.333)"/><path d="M-280.606-147.507C-169.066-84.2354-104.747 38.3421-116.062 166.078" stroke="#48CE47" stroke-width="0.945584" stroke-linecap="round" fill="none" transform="matrix(1 0 0 1.00076 640.278 363.333)"/><path d="M-279.297-166.239C-60.5746-238.584 180.118-168.895 326.354 9.11818" stroke="#3FCE3E" stroke-width="2.04831" stroke-linecap="round" fill="none" transform="matrix(1 0 0 1.00076 640.278 363.333)"/><path d="M-38.7878 59.9951C-11.6822 43.4889 21.2518 39.5555 51.4823 49.214" stroke="#B12636" stroke-width="1.90636" stroke-linecap="round" fill="none" transform="matrix(1 0 0 1.00076 640.278 363.333)"/><path d="M-204.761-255.982C-34.0892-122.139 37.1418 102.606-25.2753 310.324" stroke="#0ECF0C" stroke-width="5.27964" stroke-linecap="round" fill="none" transform="matrix(1 0 0 1.00076 640.278 363.333)"/><path d="M-208.224-287.909C-152.84-345.493-70.4285-368.232 6.64781-347.195" stroke="#B32C3C" stroke-width="1.05444" stroke-linecap="round" fill="none" transform="matrix(1 0 0 1.00076 640.278 363.333)"/><path d="M20.8693 230.592C22.7352 263.535 10.0255 295.632-13.8872 318.367" stroke="#1ACF18" stroke-width="4.86208" stroke-linecap="round" fill="none" transform="matrix(1 0 0 1.00076 640.278 363.333)"/><path d="M-21.8125-180.245C-49.5319-111.747-111.999-63.4902-185.277-53.9672" stroke="#AC0014" stroke-width="4.83191" stroke-linecap="round" fill="none" transform="matrix(1 0 0 1.00076 640.278 363.333)"/><path d="M-13.9147-179C-16.8941-72.38-80.4627 23.1887-177.643 67.1492" stroke="#22CF20" stroke-width="4.4771" stroke-linecap="round" fill="none" transform="matrix(1 0 0 1.00076 640.278 363.333)"/><path d="M4.39679-188.173C68.8852-133.015 97.6837-46.7794 79.2796 36.0604" stroke="#AC0518" stroke-width="4.58562" stroke-linecap="round" fill="none" transform="matrix(1 0 0 1.00076 640.278 363.333)"/><path d="M-47.1725-49.012C47.7786-23.5587 120.24 53.2944 140.068 149.577" stroke="#48CE47" stroke-width="0.944006" stroke-linecap="round" fill="none" transform="matrix(1 0 0 1.00076 640.278 363.333)"/><path d="M-75.2126-31.0816C-89.9253 17.6114-127.903 55.7911-176.518 70.7617" stroke="#AC0216" stroke-width="4.71919" stroke-linecap="round" fill="none" transform="matrix(1 0 0 1.00076 640.278 363.333)"/><path d="M-91.039-64.9377C-119.65-83.7742-138.395-114.366-142.186-148.411" stroke="#B22838" stroke-width="1.60134" stroke-linecap="round" fill="none" transform="matrix(1 0 0 1.00076 640.278 363.333)"/><path d="M-61.8872-32.0347C-23.1444 84.2085-55.4494 212.37-144.664 296.36" stroke="#B01A2B" stroke-width="3.16013" stroke-linecap="round" fill="none" transform="matrix(1 0 0 1.00076 640.278 363.333)"/><path d="M-61.2388-32.2892C-36.856 38.4711-52.5768 116.883-102.352 172.775" stroke="#49CE48" stroke-width="0.838125" stroke-linecap="round" fill="none" transform="matrix(1 0 0 1.00076 640.278 363.333)"/><path d="M-76.2741-76.8003C-96.6021-169.419-63.2222-265.609 10.1083-325.727" stroke="#35CE34" stroke-width="3.08121" stroke-linecap="round" fill="none" transform="matrix(1 0 0 1.00076 640.278 363.333)"/><path d="M-80.0576-32.7151C-124.211 52.0104-212.228 104.737-307.762 103.691" stroke="#42CE41" stroke-width="1.70903" stroke-linecap="round" fill="none" transform="matrix(1 0 0 1.00076 640.278 363.333)"/><path d="M-58.7018-74.631C3.85785-177.486 120.363-234.757 240.015-221.471" stroke="#2DCF2B" stroke-width="3.78354" stroke-linecap="round" fill="none" transform="matrix(1 0 0 1.00076 640.278 363.333)"/><path d="M-62.0447-76.165C-34.0722-140.138 25.8761-184.353 95.2569-192.182" stroke="#2CCF2B" stroke-width="3.8273" stroke-linecap="round" fill="none" transform="matrix(1 0 0 1.00076 640.278 363.333)"/><path d="M-48.6074-63.5313C79.5267-114.699 225.774-85.6365 324.609 10.6349" stroke="#40CE3F" stroke-width="1.94976" stroke-linecap="round" fill="none" transform="matrix(1 0 0 1.00076 640.278 363.333)"/><path d="M191.176-54.9575C179.171-5.52943 143.358 34.6848 95.6451 52.3131" stroke="#4BCE4A" stroke-width="0.555133" stroke-linecap="round" fill="none" transform="matrix(1 0 0 1.00076 640.278 363.333)"/><path d="M186.2-56.3404C113.266 112.873-54.8041 221.133-239.032 217.568" stroke="#35CE34" stroke-width="3.07279" stroke-linecap="round" fill="none" transform="matrix(1 0 0 1.00076 640.278 363.333)"/><path d="M189.002-55.4172C150.265 74.4677 38.8258 169.468-95.5527 187.162" stroke="#38CE36" stroke-width="2.85171" stroke-linecap="round" fill="none" transform="matrix(1 0 0 1.00076 640.278 363.333)"/><path d="M173.343-87.5193C85.6394-130.225 29.4961-218.718 28.2221-316.258" stroke="#4ACE49" stroke-width="0.645182" stroke-linecap="round" fill="none" transform="matrix(1 0 0 1.00076 640.278 363.333)"/><path d="M192.651-101.615C192.365-142.255 211.149-180.678 243.394-205.414" stroke="#47CE46" stroke-width="1.03159" stroke-linecap="round" fill="none" transform="matrix(1 0 0 1.00076 640.278 363.333)"/><path d="M218.445-76.7274C267.679-69.7588 310.275-38.8796 332.21 5.74521" stroke="#3CCE3A" stroke-width="2.44395" stroke-linecap="round" fill="none" transform="matrix(1 0 0 1.00076 640.278 363.333)"/><path d="M76.3625 330.162C-2.72354 327.381-74.0011 281.7-109.561 211.005" stroke="#B22737" stroke-width="1.7206" stroke-linecap="round" fill="none" transform="matrix(1 0 0 1.00076 640.278 363.333)"/><path d="M112.602 309.896C133.809 283.293 165.734 267.48 199.747 266.731" stroke="#AC0115" stroke-width="4.76556" stroke-linecap="round" fill="none" transform="matrix(1 0 0 1.00076 640.278 363.333)"/><path d="M101.459 306.224C114.404 180.997 199.132 74.7953 318.355 34.358" stroke="#B22C3C" stroke-width="1.11651" stroke-linecap="round" fill="none" transform="matrix(1 0 0 1.00076 640.278 363.333)"/><path d="M67.1032-48.7366C114.162 78.6836 81.9396 221.862-15.1705 316.836" stroke="#17CF15" stroke-width="4.97759" stroke-linecap="round" fill="none" transform="matrix(1 0 0 1.00076 640.278 363.333)"/><path d="M-320.294-29.2646C-320.294-17.3051-329.989-7.60997-341.948-7.60997-353.908-7.60997-363.603-17.3051-363.603-29.2646-363.603-41.2241-353.908-50.9192-341.948-50.9192-329.989-50.9192-320.294-41.2241-320.294-29.2646Z" stroke="#6B69A0" stroke-width="3.76602" fill="#9A96E5" transform="matrix(1 0 0 1.00076 640.278 363.333)"/><path d="M324.689 157.886C324.689 169.845 314.993 179.54 303.034 179.54 291.074 179.54 281.379 169.845 281.379 157.886 281.379 145.926 291.074 136.231 303.034 136.231 314.993 136.231 324.689 145.926 324.689 157.886Z" stroke="#AE532E" stroke-width="3.76602" fill="#F97743" transform="matrix(1 0 0 1.00076 640.278 363.333)"/><path d="M350.841-103.544C350.841-91.5847 341.146-81.8896 329.186-81.8896 317.227-81.8896 307.531-91.5847 307.531-103.544 307.531-115.504 317.227-125.199 329.186-125.199 341.146-125.199 350.841-115.504 350.841-103.544Z" stroke="#6B69A0" stroke-width="3.76602" fill="#9A96E5" transform="matrix(1 0 0 1.00076 640.278 363.333)"/><path d="M50.6425-339.783C50.6425-327.824 40.9474-318.129 28.9879-318.129 17.0284-318.129 7.33327-327.824 7.33327-339.783 7.33327-351.743 17.0284-361.438 28.9879-361.438 40.9474-361.438 50.6425-351.743 50.6425-339.783Z" stroke="#1C7D4A" stroke-width="3.76602" fill="#28B36A" transform="matrix(1 0 0 1.00076 640.278 363.333)"/><path d="M140.417-193.41C140.417-181.451 130.722-171.755 118.763-171.755 106.803-171.755 97.1079-181.451 97.1079-193.41 97.1079-205.37 106.803-215.065 118.763-215.065 130.722-215.065 140.417-205.37 140.417-193.41Z" stroke="#1C7D4A" stroke-width="3.76602" fill="#28B36A" transform="matrix(1 0 0 1.00076 640.278 363.333)"/><path d="M-76.7286-320.738C-76.7286-308.779-86.4238-299.084-98.3833-299.084-110.343-299.084-120.038-308.779-120.038-320.738-120.038-332.698-110.343-342.393-98.3833-342.393-86.4238-342.393-76.7286-332.698-76.7286-320.738Z" stroke="#6B69A0" stroke-width="3.76602" fill="#9A96E5" transform="matrix(1 0 0 1.00076 640.278 363.333)"/><path d="M-10.896 332.709C-10.896 344.669-20.5911 354.364-32.5506 354.364-44.5101 354.364-54.2053 344.669-54.2053 332.709-54.2053 320.75-44.5101 311.055-32.5506 311.055-20.5911 311.055-10.896 320.75-10.896 332.709Z" stroke="#1C7D4A" stroke-width="3.76602" fill="#28B36A" transform="matrix(1 0 0 1.00076 640.278 363.333)"/><path d="M244.863 268.631C244.863 280.59 235.168 290.286 223.208 290.286 211.249 290.286 201.554 280.59 201.554 268.631 201.554 256.671 211.249 246.976 223.208 246.976 235.168 246.976 244.863 256.671 244.863 268.631Z" stroke="#1C7D4A" stroke-width="3.76602" fill="#28B36A" transform="matrix(1 0 0 1.00076 640.278 363.333)"/><path d="M232.568 49.5541C232.568 61.5137 222.873 71.2088 210.913 71.2088 198.954 71.2088 189.258 61.5137 189.258 49.5541 189.258 37.5946 198.954 27.8995 210.913 27.8995 222.873 27.8995 232.568 37.5946 232.568 49.5541Z" stroke="#6B69A0" stroke-width="3.76602" fill="#9A96E5" transform="matrix(1 0 0 1.00076 640.278 363.333)"/><path d="M182.101-312.677C182.101-300.717 172.406-291.022 160.447-291.022 148.487-291.022 138.792-300.717 138.792-312.677 138.792-324.636 148.487-334.331 160.447-334.331 172.406-334.331 182.101-324.636 182.101-312.677Z" stroke="#AE532E" stroke-width="3.76602" fill="#F97743" transform="matrix(1 0 0 1.00076 640.278 363.333)"/><path d="M-279.829-158.377C-279.829-146.417-289.524-136.722-301.483-136.722-313.443-136.722-323.138-146.417-323.138-158.377-323.138-170.336-313.443-180.031-301.483-180.031-289.524-180.031-279.829-170.336-279.829-158.377Z" stroke="#6B69A0" stroke-width="3.76602" fill="#9A96E5" transform="matrix(1 0 0 1.00076 640.278 363.333)"/><path d="M-97.3258 189.434C-97.3258 201.393-107.021 211.089-118.98 211.089-130.94 211.089-140.635 201.393-140.635 189.434-140.635 177.474-130.94 167.779-118.98 167.779-107.021 167.779-97.3258 177.474-97.3258 189.434Z" stroke="#1C7D4A" stroke-width="3.76602" fill="#28B36A" transform="matrix(1 0 0 1.00076 640.278 363.333)"/><path d="M362.562 27.6173C362.562 39.5768 352.867 49.2719 340.907 49.2719 328.948 49.2719 319.252 39.5768 319.252 27.6173 319.252 15.6578 328.948 5.96265 340.907 5.96265 352.867 5.96265 362.562 15.6578 362.562 27.6173Z" stroke="#1C7D4A" stroke-width="3.76602" fill="#28B36A" transform="matrix(1 0 0 1.00076 640.278 363.333)"/><path d="M-35.8043 74.3272C-35.8043 86.2867-45.4994 95.9818-57.459 95.9818-69.4185 95.9818-79.1136 86.2867-79.1136 74.3272-79.1136 62.3677-69.4185 52.6726-57.459 52.6726-45.4994 52.6726-35.8043 62.3677-35.8043 74.3272Z" stroke="#6B69A0" stroke-width="3.76602" fill="#9A96E5" transform="matrix(1 0 0 1.00076 640.278 363.333)"/><path d="M94.6582 58.7459C94.6582 70.7054 84.9631 80.4005 73.0036 80.4005 61.044 80.4005 51.3489 70.7054 51.3489 58.7459 51.3489 46.7864 61.044 37.0912 73.0036 37.0912 84.9631 37.0912 94.6582 46.7864 94.6582 58.7459Z" stroke="#AE532E" stroke-width="3.76602" fill="#F97743" transform="matrix(1 0 0 1.00076 640.278 363.333)"/><path d="M-201.947-270.09C-201.947-258.13-211.642-248.435-223.602-248.435-235.562-248.435-245.257-258.13-245.257-270.09-245.257-282.049-235.562-291.745-223.602-291.745-211.642-291.745-201.947-282.049-201.947-270.09Z" stroke="#6B69A0" stroke-width="3.76602" fill="#9A96E5" transform="matrix(1 0 0 1.00076 640.278 363.333)"/><path d="M38.7385 207.361C38.7385 219.32 29.0434 229.015 17.0839 229.015 5.12437 229.015-4.57074 219.32-4.57074 207.361-4.57074 195.401 5.12437 185.706 17.0839 185.706 29.0434 185.706 38.7385 195.401 38.7385 207.361Z" stroke="#6B69A0" stroke-width="3.76602" fill="#9A96E5" transform="matrix(1 0 0 1.00076 640.278 363.333)"/><path d="M7.40331-202.535C7.40331-190.575-2.2918-180.88-14.2513-180.88-26.2108-180.88-35.906-190.575-35.906-202.535-35.906-214.494-26.2108-224.189-14.2513-224.189-2.2918-224.189 7.40331-214.494 7.40331-202.535Z" stroke="#6B69A0" stroke-width="3.76602" fill="#9A96E5" transform="matrix(1 0 0 1.00076 640.278 363.333)"/><path d="M-187.099-52.28C-187.099-40.3205-196.795-30.6254-208.754-30.6254-220.714-30.6254-230.409-40.3205-230.409-52.28-230.409-64.2395-220.714-73.9347-208.754-73.9347-196.795-73.9347-187.099-64.2395-187.099-52.28Z" stroke="#AE532E" stroke-width="3.76602" fill="#F97743" transform="matrix(1 0 0 1.00076 640.278 363.333)"/><path d="M-177.825 75.936C-177.825 87.8955-187.52 97.5906-199.479 97.5906-211.439 97.5906-221.134 87.8955-221.134 75.936-221.134 63.9765-211.439 54.2814-199.479 54.2814-187.52 54.2814-177.825 63.9765-177.825 75.936Z" stroke="#AE532E" stroke-width="3.76602" fill="#F97743" transform="matrix(1 0 0 1.00076 640.278 363.333)"/><path d="M-48.5054-54.0706C-48.5054-42.1111-58.2006-32.416-70.1601-32.416-82.1196-32.416-91.8147-42.1111-91.8147-54.0706-91.8147-66.0301-82.1196-75.7252-70.1601-75.7252-58.2006-75.7252-48.5054-66.0301-48.5054-54.0706Z" stroke="#6B69A0" stroke-width="3.76602" fill="#9A96E5" transform="matrix(1 0 0 1.00076 640.278 363.333)"/><path d="M165.421 172.823C165.421 184.782 155.726 194.477 143.767 194.477 131.807 194.477 122.112 184.782 122.112 172.823 122.112 160.863 131.807 151.168 143.767 151.168 155.726 151.168 165.421 160.863 165.421 172.823Z" stroke="#AE532E" stroke-width="3.76602" fill="#F97743" transform="matrix(1 0 0 1.00076 640.278 363.333)"/><path d="M-120.733-171.947C-120.733-159.988-130.428-150.293-142.388-150.293-154.347-150.293-164.042-159.988-164.042-171.947-164.042-183.907-154.347-193.602-142.388-193.602-130.428-193.602-120.733-183.907-120.733-171.947Z" stroke="#AE532E" stroke-width="3.76602" fill="#F97743" transform="matrix(1 0 0 1.00076 640.278 363.333)"/><path d="M-140.739 311.841C-140.739 323.801-150.434 333.496-162.394 333.496-174.353 333.496-184.048 323.801-184.048 311.841-184.048 299.882-174.353 290.186-162.394 290.186-150.434 290.186-140.739 299.882-140.739 311.841Z" stroke="#AE532E" stroke-width="3.76602" fill="#F97743" transform="matrix(1 0 0 1.00076 640.278 363.333)"/><path d="M-309.607 102.341C-309.607 114.301-319.302 123.996-331.261 123.996-343.221 123.996-352.916 114.301-352.916 102.341-352.916 90.3818-343.221 80.6867-331.261 80.6867-319.302 80.6867-309.607 90.3818-309.607 102.341Z" stroke="#1C7D4A" stroke-width="3.76602" fill="#28B36A" transform="matrix(1 0 0 1.00076 640.278 363.333)"/><path d="M284.947-217.987C284.947-206.027 275.252-196.332 263.293-196.332 251.333-196.332 241.638-206.027 241.638-217.987 241.638-229.946 251.333-239.641 263.293-239.641 275.252-239.641 284.947-229.946 284.947-217.987Z" stroke="#1C7D4A" stroke-width="3.76602" fill="#28B36A" transform="matrix(1 0 0 1.00076 640.278 363.333)"/><path d="M216.607-78.1902C216.607-66.2306 206.912-56.5355 194.953-56.5355 182.993-56.5355 173.298-66.2306 173.298-78.1902 173.298-90.1497 182.993-99.8448 194.953-99.8448 206.912-99.8448 216.607-90.1497 216.607-78.1902Z" stroke="#6B69A0" stroke-width="3.76602" fill="#9A96E5" transform="matrix(1 0 0 1.00076 640.278 363.333)"/><path d="M-240.891 216.502C-240.891 228.462-250.586 238.157-262.545 238.157-274.505 238.157-284.2 228.462-284.2 216.502-284.2 204.543-274.505 194.848-262.545 194.848-250.586 194.848-240.891 204.543-240.891 216.502Z" stroke="#AE532E" stroke-width="3.76602" fill="#F97743" transform="matrix(1 0 0 1.00076 640.278 363.333)"/><path d="M121.55 329.71C121.55 341.669 111.855 351.364 99.8958 351.364 87.9363 351.364 78.2412 341.669 78.2412 329.71 78.2412 317.75 87.9363 308.055 99.8958 308.055 111.855 308.055 121.55 317.75 121.55 329.71Z" stroke="#6B69A0" stroke-width="3.76602" fill="#9A96E5" transform="matrix(1 0 0 1.00076 640.278 363.333)"/><path d="M79.8535-70.525C79.8535-58.5654 70.1584-48.8703 58.1989-48.8703 46.2393-48.8703 36.5442-58.5654 36.5442-70.525 36.5442-82.4845 46.2393-92.1796 58.1989-92.1796 70.1584-92.1796 79.8535-82.4845 79.8535-70.525Z" stroke="#6B69A0" stroke-width="3.76602" fill="#9A96E5" transform="matrix(1 0 0 1.00076 640.278 363.333)"/></g></g></g><text font-family="Times New Roman,Times New Roman_MSFontService,sans-serif" font-style="italic" font-weight="400" font-size="24" transform="translate(603.725 167)">norB</text><text font-family="Times New Roman,Times New Roman_MSFontService,sans-serif" font-style="italic" font-weight="400" font-size="24" transform="translate(486.585 44)">AOA_amoA</text><text font-family="Times New Roman,Times New Roman_MSFontService,sans-serif" font-weight="400" font-size="24" transform="translate(419.761 448)">HIX</text><text font-family="Times New Roman,Times New Roman_MSFontService,sans-serif" font-weight="400" font-size="24" transform="translate(271.187 474)">W</text><text font-family="Times New Roman,Times New Roman_MSFontService,sans-serif" font-weight="400" font-size="24" transform="translate(292.527 474)">-</text><text font-family="Cambria Math,Cambria Math_MSFontService,sans-serif" font-weight="400" font-size="24" transform="translate(300.527 474)">NO</text><text font-family="Cambria Math,Cambria Math_MSFontService,sans-serif" font-weight="400" font-size="18" transform="translate(332.527 479)">2</text><text font-family="Cambria Math,Cambria Math_MSFontService,sans-serif" font-weight="400" font-size="18" transform="translate(332.527 465)">−</text><text font-family="Times New Roman,Times New Roman_MSFontService,sans-serif" font-style="italic" font-weight="400" font-size="24" transform="translate(877.54 267)">Archaeal 16S</text><text font-family="Times New Roman,Times New Roman_MSFontService,sans-serif" font-style="italic" font-weight="400" font-size="24" transform="translate(1012.65 267)">rDNA</text><text font-family="Times New Roman,Times New Roman_MSFontService,sans-serif" font-style="italic" font-weight="400" font-size="24" transform="translate(547.416 316)">hzsA</text><text font-family="Times New Roman,Times New Roman_MSFontService,sans-serif" font-weight="400" font-size="24" transform="translate(838.246 641)">COD</text><text font-family="Times New Roman,Times New Roman_MSFontService,sans-serif" font-style="italic" font-weight="400" font-size="24" transform="translate(394.368 99)">nirK</text><text font-family="Times New Roman,Times New Roman_MSFontService,sans-serif" font-weight="400" font-size="24" transform="translate(918.172 529)">S</text><text font-family="Times New Roman,Times New Roman_MSFontService,sans-serif" font-weight="400" font-size="24" transform="translate(931.505 529)">-</text><text font-family="Times New Roman,Times New Roman_MSFontService,sans-serif" font-weight="400" font-size="24" transform="translate(939.505 529)">TP</text><text font-family="Times New Roman,Times New Roman_MSFontService,sans-serif" font-weight="400" font-size="24" transform="translate(405.327 318)">S</text><text font-family="Times New Roman,Times New Roman_MSFontService,sans-serif" font-weight="400" font-size="24" transform="translate(418.661 318)">-</text><text font-family="Times New Roman,Times New Roman_MSFontService,sans-serif" font-weight="400" font-size="24" transform="translate(426.661 318)">TN</text><text font-family="Times New Roman,Times New Roman_MSFontService,sans-serif" font-weight="400" font-size="24" transform="translate(463.269 196)">Ⅲ</text><text font-family="Times New Roman,Times New Roman_MSFontService,sans-serif" font-weight="400" font-size="24" transform="translate(486.269 196)">-</text><text font-family="Times New Roman,Times New Roman_MSFontService,sans-serif" font-weight="400" font-size="24" transform="translate(494.269 196)">Area</text><text font-family="Times New Roman,Times New Roman_MSFontService,sans-serif" font-weight="400" font-size="24" transform="translate(766.563 57)">Ⅳ</text><text font-family="Times New Roman,Times New Roman_MSFontService,sans-serif" font-weight="400" font-size="24" transform="translate(791.73 57)">-</text><text font-family="Times New Roman,Times New Roman_MSFontService,sans-serif" font-weight="400" font-size="24" transform="translate(799.73 57)">Area</text><text font-family="Times New Roman,Times New Roman_MSFontService,sans-serif" font-weight="400" font-size="24" transform="translate(442.75 684)">Ⅴ</text><text font-family="Times New Roman,Times New Roman_MSFontService,sans-serif" font-weight="400" font-size="24" transform="translate(460.083 684)">-</text><text font-family="Times New Roman,Times New Roman_MSFontService,sans-serif" font-weight="400" font-size="24" transform="translate(468.083 684)">Area</text><text font-family="Times New Roman,Times New Roman_MSFontService,sans-serif" font-weight="400" font-size="24" transform="translate(722.18 179)">W</text><text font-family="Times New Roman,Times New Roman_MSFontService,sans-serif" font-weight="400" font-size="24" transform="translate(743.52 179)">-</text><text font-family="Cambria Math,Cambria Math_MSFontService,sans-serif" font-weight="400" font-size="24" transform="translate(751.52 179)">NH</text><text font-family="Cambria Math,Cambria Math_MSFontService,sans-serif" font-weight="400" font-size="18" transform="translate(784.354 184)">4</text><text font-family="Cambria Math,Cambria Math_MSFontService,sans-serif" font-weight="400" font-size="18" transform="translate(785.114 169)">+</text><text font-family="Times New Roman,Times New Roman_MSFontService,sans-serif" font-weight="400" font-size="24" transform="translate(503.02 561)">DO</text><text font-family="Times New Roman,Times New Roman_MSFontService,sans-serif" font-weight="400" font-size="24" transform="translate(636.172 30)">W</text><text font-family="Times New Roman,Times New Roman_MSFontService,sans-serif" font-weight="400" font-size="24" transform="translate(657.512 30)">-</text><text font-family="Times New Roman,Times New Roman_MSFontService,sans-serif" font-weight="400" font-size="24" transform="translate(665.512 30)">TN</text><text font-family="Times New Roman,Times New Roman_MSFontService,sans-serif" font-weight="400" font-size="24" transform="translate(869.16 153)">W</text><text font-family="Times New Roman,Times New Roman_MSFontService,sans-serif" font-weight="400" font-size="24" transform="translate(890.5 153)">-</text><text font-family="Cambria Math,Cambria Math_MSFontService,sans-serif" font-weight="400" font-size="24" transform="translate(898.5 153)">NO</text><text font-family="Cambria Math,Cambria Math_MSFontService,sans-serif" font-weight="400" font-size="18" transform="translate(930.5 159)">3</text><text font-family="Cambria Math,Cambria Math_MSFontService,sans-serif" font-weight="400" font-size="18" transform="translate(930.5 144)">−</text><text font-family="Times New Roman,Times New Roman_MSFontService,sans-serif" font-weight="400" font-size="24" transform="translate(774.864 544)">FI</text><text font-family="Times New Roman,Times New Roman_MSFontService,sans-serif" font-weight="400" font-size="24" transform="translate(972.23 399)">T</text><text font-family="Times New Roman,Times New Roman_MSFontService,sans-serif" font-style="italic" font-weight="400" font-size="24" transform="translate(790.246 420)">AOB_amoA</text><text font-family="Times New Roman,Times New Roman_MSFontService,sans-serif" font-style="italic" font-weight="400" font-size="24" transform="translate(676.942 299)">nifH</text><text font-family="Times New Roman,Times New Roman_MSFontService,sans-serif" font-weight="400" font-size="24" transform="translate(682.494 428)">Ⅰ</text><text font-family="Times New Roman,Times New Roman_MSFontService,sans-serif" font-weight="400" font-size="24" transform="translate(690.494 428)">-</text><text font-family="Times New Roman,Times New Roman_MSFontService,sans-serif" font-weight="400" font-size="24" transform="translate(698.494 428)">Area</text><text font-family="Times New Roman,Times New Roman_MSFontService,sans-serif" font-weight="400" font-size="24" transform="translate(594.266 704)">pH</text><text font-family="Times New Roman,Times New Roman_MSFontService,sans-serif" font-style="italic" font-weight="400" font-size="24" transform="translate(723.268 701)">hzo</text><text font-family="Times New Roman,Times New Roman_MSFontService,sans-serif" font-weight="400" font-size="24" transform="translate(344.025 586)">Ⅱ</text><text font-family="Times New Roman,Times New Roman_MSFontService,sans-serif" font-weight="400" font-size="24" transform="translate(359.525 586)">-</text><text font-family="Times New Roman,Times New Roman_MSFontService,sans-serif" font-weight="400" font-size="24" transform="translate(367.525 586)">Area</text><text font-family="Times New Roman,Times New Roman_MSFontService,sans-serif" font-style="italic" font-weight="400" font-size="24" transform="translate(635.391 579)">nosZ</text><text font-family="Times New Roman,Times New Roman_MSFontService,sans-serif" font-style="italic" font-weight="400" font-size="24" transform="translate(200.404 340)">Bacterial</text><text font-family="Times New Roman,Times New Roman_MSFontService,sans-serif" font-style="italic" font-weight="400" font-size="24" transform="translate(295.737 340)">16S</text><text font-family="Times New Roman,Times New Roman_MSFontService,sans-serif" font-style="italic" font-weight="400" font-size="24" transform="translate(337.737 340)">rDNA</text><text font-family="Times New Roman,Times New Roman_MSFontService,sans-serif" font-style="italic" font-weight="400" font-size="24" transform="translate(312.186 214)">narG</text><text font-family="Times New Roman,Times New Roman_MSFontService,sans-serif" font-style="italic" font-weight="400" font-size="24" transform="translate(557.959 442)">napA</text><text font-family="Times New Roman,Times New Roman_MSFontService,sans-serif" font-style="italic" font-weight="400" font-size="24" transform="translate(812.79 290)">hzsB</text></g></svg>