<?xml version="1.0" encoding="UTF-8"?>
<!DOCTYPE svg PUBLIC "-//W3C//DTD SVG 1.1//EN"
    "http://www.w3.org/Graphics/SVG/1.1/DTD/svg11.dtd" >
<svg contentScriptType="text/ecmascript" width="1315.0"
     xmlns:xlink="http://www.w3.org/1999/xlink" zoomAndPan="magnify"
     contentStyleType="text/css"
     viewBox="-658.000000 -654.000000 1315.000000 1296.000000" height="1296.0"
     preserveAspectRatio="xMidYMid meet" xmlns="http://www.w3.org/2000/svg"
     version="1.1">
    <g id="edges">
        <path stroke-linecap="round" fill="none"
              class="id_Bacterial_16S_rRNA id_S-TP"
              d="M -576.003662,-66.858742 A 1008.145407,1008.145407 0,0 1,519.682251,251.069534"
              stroke="#b32d3c" stroke-width="1.8881661" stroke-opacity="1.0"/>
        <path stroke-linecap="round" fill="none"
              class="id_Archaeal_16S_rRNA id_S-TP"
              d="M 612.941223,-149.110931 A 394.402247,394.402247 0,0 1,572.846558,251.694489"
              stroke="#ac0317" stroke-width="8.422657" stroke-opacity="1.0"/>
        <path stroke-linecap="round" fill="none"
              class="id_Archaeal_16S_rRNA id_W-TN"
              d="M 550.662781,-189.072632 A 573.443581,573.443581 0,0 1,64.648491,-571.538330"
              stroke="#3ece3c" stroke-width="4.042305" stroke-opacity="1.0"/>
        <path stroke-linecap="round" fill="none"
              class="id_Archaeal_16S_rRNA id_W-NH_{4}^{+}"
              d="M 551.256775,-179.009186 A 343.475964,343.475964 0,0 1,237.363785,-313.063721"
              stroke="#40ce3e" stroke-width="3.6510177" stroke-opacity="1.0"/>
        <path stroke-linecap="round" fill="none" class="id_AOA_amoA id_W-pH"
              d="M -149.190231,-545.958801 A 985.882631,985.882631 0,0 1,-37.509579,562.570557"
              stroke="#02d000" stroke-width="10.0" stroke-opacity="1.0"/>
        <path stroke-linecap="round" fill="none" class="id_AOA_amoA id_W-COD"
              d="M -139.024170,-559.370178 A 1007.865255,1007.865255 0,0 1,407.281067,441.823730"
              stroke="#af1627" stroke-width="6.289269" stroke-opacity="1.0"/>
        <path stroke-linecap="round" fill="none" class="id_AOB_amoA id_Ⅳ-Area"
              d="M 351.239227,58.048973 A 549.011717,549.011717 0,0 1,269.955841,-525.375977"
              stroke="#49ce48" stroke-width="1.4800798" stroke-opacity="1.0"/>
        <path stroke-linecap="round" fill="none" class="id_narG id_W-DO"
              d="M -505.474976,-265.714569 A 589.624865,589.624865 0,0 1,-209.070572,299.167633"
              stroke="#48ce47" stroke-width="1.7033461" stroke-opacity="1.0"/>
        <path stroke-linecap="round" fill="none" class="id_narG id_W-T"
              d="M -503.118011,-299.457184 A 1003.925029,1003.925029 0,0 1,587.883484,16.425217"
              stroke="#3fce3e" stroke-width="3.6897569" stroke-opacity="1.0"/>
        <path stroke-linecap="round" fill="none" class="id_napA id_Ⅰ-Area"
              d="M -69.871216,108.073334 A 197.234464,197.234464 0,0 1,92.738655,88.652618"
              stroke="#b12636" stroke-width="3.4340599" stroke-opacity="1.0"/>
        <path stroke-linecap="round" fill="none" class="id_nirK id_W-pH"
              d="M -368.849640,-461.118805 A 949.248111,949.248111 0,0 1,-45.530094,559.008850"
              stroke="#0ecf0c" stroke-width="9.510589" stroke-opacity="1.0"/>
        <path stroke-linecap="round" fill="none" class="id_nirK id_W-TN"
              d="M -375.087799,-518.630981 A 393.341481,393.341481 0,0 1,11.975167,-625.427429"
              stroke="#b32c3c" stroke-width="1.8994405" stroke-opacity="1.0"/>
        <path stroke-linecap="round" fill="none" class="id_nosZ id_W-pH"
              d="M 37.593380,415.381622 A 202.380567,202.380567 0,0 1,-25.015938,573.497131"
              stroke="#1acf18" stroke-width="8.758409" stroke-opacity="1.0"/>
        <path stroke-linecap="round" fill="none" class="id_cnorB id_S-TN"
              d="M -39.292397,-324.687286 A 368.950588,368.950588 0,0 1,-333.752411,-97.214882"
              stroke="#ac0014" stroke-width="8.704055" stroke-opacity="1.0"/>
        <path stroke-linecap="round" fill="none" class="id_cnorB id_HIX"
              d="M -25.065516,-322.444366 A 502.053610,502.053610 0,0 1,-320.001373,120.960487"
              stroke="#22cf20" stroke-width="8.064909" stroke-opacity="1.0"/>
        <path stroke-linecap="round" fill="none" class="id_cnorB id_Ⅰ-Area"
              d="M 7.920251,-338.968658 A 413.511997,413.511997 0,0 1,142.811890,64.958084"
              stroke="#ac0518" stroke-width="8.260388" stroke-opacity="1.0"/>
        <path stroke-linecap="round" fill="none" class="id_hzsA id_FI"
              d="M -84.975029,-88.288696 A 468.118268,468.118268 0,0 1,252.314072,269.444183"
              stroke="#48ce47" stroke-width="1.7005038" stroke-opacity="1.0"/>
        <path stroke-linecap="round" fill="none" class="id_hzsA id_HIX"
              d="M -135.485641,-55.989521 A 275.266967,275.266967 0,0 1,-317.973328,127.468056"
              stroke="#ac0216" stroke-width="8.501011" stroke-opacity="1.0"/>
        <path stroke-linecap="round" fill="none" class="id_hzsA id_Ⅲ-Area"
              d="M -163.994843,-116.976738 A 207.525627,207.525627 0,0 1,-256.129456,-267.342377"
              stroke="#b22838" stroke-width="2.8846004" stroke-opacity="1.0"/>
        <path stroke-linecap="round" fill="none" class="id_hzsA id_Ⅴ-Area"
              d="M -111.481697,-57.706402 A 566.466449,566.466449 0,0 1,-260.593170,533.853210"
              stroke="#b01a2b" stroke-width="5.69257" stroke-opacity="1.0"/>
        <path stroke-linecap="round" fill="none" class="id_hzsA id_W-DO"
              d="M -110.313782,-58.164700 A 372.808899,372.808899 0,0 1,-184.374268,311.231384"
              stroke="#49ce48" stroke-width="1.5097737" stroke-opacity="1.0"/>
        <path stroke-linecap="round" fill="none" class="id_hzsA id_W-TN"
              d="M -137.397873,-138.345764 A 453.985527,453.985527 0,0 1,18.208870,-586.754456"
              stroke="#35ce34" stroke-width="5.5504003" stroke-opacity="1.0"/>
        <path stroke-linecap="round" fill="none" class="id_hzsA id_W-NO_{2}^{-}"
              d="M -144.213318,-58.931908 A 456.895937,456.895937 0,0 1,-554.393555,186.785538"
              stroke="#42ce41" stroke-width="3.0786011" stroke-opacity="1.0"/>
        <path stroke-linecap="round" fill="none" class="id_hzsA id_W-NO_{3}^{-}"
              d="M -105.743599,-134.437958 A 557.769092,557.769092 0,0 1,432.355072,-398.952057"
              stroke="#2dcf2b" stroke-width="6.815548" stroke-opacity="1.0"/>
        <path stroke-linecap="round" fill="none" class="id_hzsA id_W-NH_{4}^{+}"
              d="M -111.765419,-137.201294 A 352.391852,352.391852 0,0 1,171.592926,-346.191589"
              stroke="#2ccf2b" stroke-width="6.894387" stroke-opacity="1.0"/>
        <path stroke-linecap="round" fill="none" class="id_hzsA id_W-T"
              d="M -87.559944,-114.443306 A 629.136022,629.136022 0,0 1,584.741211,19.157421"
              stroke="#40ce3f" stroke-width="3.5122426" stroke-opacity="1.0"/>
        <path stroke-linecap="round" fill="none" class="id_hzsB id_Ⅰ-Area"
              d="M 344.377930,-98.998848 A 275.258193,275.258193 0,0 1,172.292206,94.235306"
              stroke="#4bce4a" stroke-width="1.0" stroke-opacity="1.0"/>
        <path stroke-linecap="round" fill="none" class="id_hzsB id_Ⅱ-Area"
              d="M 335.415253,-101.489822 A 816.913369,816.913369 0,0 1,-430.584564,391.920807"
              stroke="#35ce34" stroke-width="5.5352273" stroke-opacity="1.0"/>
        <path stroke-linecap="round" fill="none" class="id_hzsB id_W-DO"
              d="M 340.462006,-99.826881 A 619.257890,619.257890 0,0 1,-172.125809,337.147736"
              stroke="#38ce36" stroke-width="5.1369863" stroke-opacity="1.0"/>
        <path stroke-linecap="round" fill="none" class="id_hzsB id_W-TN"
              d="M 312.254425,-157.654678 A 465.051709,465.051709 0,0 1,50.838428,-569.697693"
              stroke="#4ace49" stroke-width="1.1622111" stroke-opacity="1.0"/>
        <path stroke-linecap="round" fill="none" class="id_hzsB id_W-NO_{3}^{-}"
              d="M 347.036407,-183.046249 A 233.587637,233.587637 0,0 1,438.442902,-370.027130"
              stroke="#47ce46" stroke-width="1.8582731" stroke-opacity="1.0"/>
        <path stroke-linecap="round" fill="none" class="id_hzsB id_W-T"
              d="M 393.499878,-138.214417 A 270.613393,270.613393 0,0 1,598.433655,10.349249"
              stroke="#3cce3a" stroke-width="4.4024634" stroke-opacity="1.0"/>
        <path stroke-linecap="round" fill="none" class="id_hzo id_W-DO"
              d="M 137.557068,594.743103 A 390.250814,390.250814 0,0 1,-197.360641,380.097565"
              stroke="#b22737" stroke-width="3.0994449" stroke-opacity="1.0"/>
        <path stroke-linecap="round" fill="none" class="id_hzo id_W-COD"
              d="M 202.837143,558.237061 A 206.572270,206.572270 0,0 1,359.818787,480.481445"
              stroke="#ac0115" stroke-width="8.584529" stroke-opacity="1.0"/>
        <path stroke-linecap="round" fill="none" class="id_hzo id_W-T"
              d="M 182.764801,551.622437 A 580.121081,580.121081 0,0 1,573.475525,61.891415"
              stroke="#b22c3c" stroke-width="2.0112405" stroke-opacity="1.0"/>
        <path stroke-linecap="round" fill="none" class="id_nifH id_W-pH"
              d="M 120.877617,-87.792572 A 620.451686,620.451686 0,0 1,-27.327629,570.739502"
              stroke="#17cf15" stroke-width="8.9664755" stroke-opacity="1.0"/>
    </g>
    <g id="nodes">
        <circle fill-opacity="1.0" fill="#9a96e5" r="39.008003" cx="-615.9756"
                class="id_Bacterial_16S_rRNA" cy="-52.71638" stroke="#6b69a0"
                stroke-opacity="1.0" stroke-width="6.784"/>
        <circle fill-opacity="1.0" fill="#f97743" r="39.008003" cx="545.87616"
                class="id_S-TP" cy="284.4108" stroke="#ae532e"
                stroke-opacity="1.0" stroke-width="6.784"/>
        <circle fill-opacity="1.0" fill="#9a96e5" r="39.008003" cx="592.98596"
                class="id_Archaeal_16S_rRNA" cy="-186.52145" stroke="#6b69a0"
                stroke-opacity="1.0" stroke-width="6.784"/>
        <circle fill-opacity="1.0" fill="#28b36a" r="39.008003" cx="52.21793"
                class="id_W-TN" cy="-612.07526" stroke="#1c7d4a"
                stroke-opacity="1.0" stroke-width="6.784"/>
        <circle fill-opacity="1.0" fill="#28b36a" r="39.008003" cx="213.93523"
                class="id_W-NH_{4}^{+}" cy="-348.40298" stroke="#1c7d4a"
                stroke-opacity="1.0" stroke-width="6.784"/>
        <circle fill-opacity="1.0" fill="#9a96e5" r="39.008003" cx="-177.22466"
                class="id_AOA_amoA" cy="-577.76807" stroke="#6b69a0"
                stroke-opacity="1.0" stroke-width="6.784"/>
        <circle fill-opacity="1.0" fill="#28b36a" r="39.008003" cx="-58.635704"
                class="id_W-pH" cy="599.3326" stroke="#1c7d4a"
                stroke-opacity="1.0" stroke-width="6.784"/>
        <circle fill-opacity="1.0" fill="#28b36a" r="39.008003" cx="402.08047"
                class="id_W-COD" cy="483.9036" stroke="#1c7d4a"
                stroke-opacity="1.0" stroke-width="6.784"/>
        <circle fill-opacity="1.0" fill="#9a96e5" r="39.008003" cx="379.9324"
                class="id_AOB_amoA" cy="89.26534" stroke="#6b69a0"
                stroke-opacity="1.0" stroke-width="6.784"/>
        <circle fill-opacity="1.0" fill="#f97743" r="39.008003" cx="289.02377"
                class="id_Ⅳ-Area" cy="-563.24646" stroke="#ae532e"
                stroke-opacity="1.0" stroke-width="6.784"/>
        <circle fill-opacity="1.0" fill="#9a96e5" r="39.008003" cx="-543.08295"
                class="id_narG" cy="-285.29517" stroke="#6b69a0"
                stroke-opacity="1.0" stroke-width="6.784"/>
        <circle fill-opacity="1.0" fill="#28b36a" r="39.008003" cx="-214.32782"
                class="id_W-DO" cy="341.24045" stroke="#1c7d4a"
                stroke-opacity="1.0" stroke-width="6.784"/>
        <circle fill-opacity="1.0" fill="#28b36a" r="39.008003" cx="614.0997"
                class="id_W-T" cy="49.74895" stroke="#1c7d4a"
                stroke-opacity="1.0" stroke-width="6.784"/>
        <circle fill-opacity="1.0" fill="#9a96e5" r="39.008003" cx="-103.50484"
                class="id_napA" cy="133.89076" stroke="#6b69a0"
                stroke-opacity="1.0" stroke-width="6.784"/>
        <circle fill-opacity="1.0" fill="#f97743" r="39.008003" cx="131.50638"
                class="id_Ⅰ-Area" cy="105.82305" stroke="#ae532e"
                stroke-opacity="1.0" stroke-width="6.784"/>
        <circle fill-opacity="1.0" fill="#9a96e5" r="39.008003" cx="-402.78986"
                class="id_nirK" cy="-486.53183" stroke="#6b69a0"
                stroke-opacity="1.0" stroke-width="6.784"/>
        <circle fill-opacity="1.0" fill="#9a96e5" r="39.008003" cx="30.774405"
                class="id_nosZ" cy="373.53354" stroke="#6b69a0"
                stroke-opacity="1.0" stroke-width="6.784"/>
        <circle fill-opacity="1.0" fill="#9a96e5" r="39.008003" cx="-25.671906"
                class="id_cnorB" cy="-364.84003" stroke="#6b69a0"
                stroke-opacity="1.0" stroke-width="6.784"/>
        <circle fill-opacity="1.0" fill="#f97743" r="39.008003" cx="-376.04333"
                class="id_S-TN" cy="-94.17565" stroke="#ae532e"
                stroke-opacity="1.0" stroke-width="6.784"/>
        <circle fill-opacity="1.0" fill="#f97743" r="39.008003" cx="-359.33615"
                class="id_HIX" cy="136.78883" stroke="#ae532e"
                stroke-opacity="1.0" stroke-width="6.784"/>
        <circle fill-opacity="1.0" fill="#9a96e5" r="39.008003" cx="-126.38424"
                class="id_hzsA" cy="-97.40117" stroke="#6b69a0"
                stroke-opacity="1.0" stroke-width="6.784"/>
        <circle fill-opacity="1.0" fill="#f97743" r="39.008003" cx="258.9768"
                class="id_FI" cy="311.3174" stroke="#ae532e"
                stroke-opacity="1.0" stroke-width="6.784"/>
        <circle fill-opacity="1.0" fill="#f97743" r="39.008003" cx="-256.49265"
                class="id_Ⅲ-Area" cy="-309.7408" stroke="#ae532e"
                stroke-opacity="1.0" stroke-width="6.784"/>
        <circle fill-opacity="1.0" fill="#f97743" r="39.008003" cx="-292.53094"
                class="id_Ⅴ-Area" cy="561.74115" stroke="#ae532e"
                stroke-opacity="1.0" stroke-width="6.784"/>
        <circle fill-opacity="1.0" fill="#28b36a" r="39.008003" cx="-596.7238"
                class="id_W-NO_{2}^{-}" cy="184.35457" stroke="#1c7d4a"
                stroke-opacity="1.0" stroke-width="6.784"/>
        <circle fill-opacity="1.0" fill="#28b36a" r="39.008003" cx="474.28778"
                class="id_W-NO_{3}^{-}" cy="-392.67453" stroke="#1c7d4a"
                stroke-opacity="1.0" stroke-width="6.784"/>
        <circle fill-opacity="1.0" fill="#9a96e5" r="39.008003" cx="351.18182"
                class="id_hzsB" cy="-140.84938" stroke="#6b69a0"
                stroke-opacity="1.0" stroke-width="6.784"/>
        <circle fill-opacity="1.0" fill="#f97743" r="39.008003" cx="-472.94107"
                class="id_Ⅱ-Area" cy="390.00064" stroke="#ae532e"
                stroke-opacity="1.0" stroke-width="6.784"/>
        <circle fill-opacity="1.0" fill="#9a96e5" r="39.008003" cx="179.94925"
                class="id_hzo" cy="593.92883" stroke="#6b69a0"
                stroke-opacity="1.0" stroke-width="6.784"/>
        <circle fill-opacity="1.0" fill="#9a96e5" r="39.008003" cx="104.83767"
                class="id_nifH" cy="-127.04153" stroke="#6b69a0"
                stroke-opacity="1.0" stroke-width="6.784"/>
    </g>
</svg>