<?xml version="1.0" encoding="UTF-8"?>
<!DOCTYPE svg PUBLIC "-//W3C//DTD SVG 1.1//EN"
    "http://www.w3.org/Graphics/SVG/1.1/DTD/svg11.dtd" >
<svg contentScriptType="text/ecmascript" width="1279.0"
     xmlns:xlink="http://www.w3.org/1999/xlink" zoomAndPan="magnify"
     contentStyleType="text/css"
     viewBox="-637.000000 -650.000000 1279.000000 1297.000000" height="1297.0"
     preserveAspectRatio="xMidYMid meet" xmlns="http://www.w3.org/2000/svg"
     version="1.1">
    <g id="edges">
        <path stroke-linecap="round" fill="none"
              class="id_Bacterial_16S_rRNA id_S-TP"
              d="M -541.502380,-311.466522 A 193.711540,193.711540 0,0 1,-446.306366,-422.822021"
              stroke="#b32d3c" stroke-width="4.455123" stroke-opacity="1.0"/>
        <path stroke-linecap="round" fill="none"
              class="id_Archaeal_16S_rRNA id_W-NH_{4}^{+}"
              d="M 515.554932,-181.016922 A 227.135306,227.135306 0,0 1,329.764191,-206.606216"
              stroke="#40ce3e" stroke-width="4.4940085" stroke-opacity="1.0"/>
        <path stroke-linecap="round" fill="none" class="id_AOA_amoA id_W-pH"
              d="M 6.391911,369.830414 A 388.781163,388.781163 0,0 1,-324.909790,175.893738"
              stroke="#02d000" stroke-width="8.619192" stroke-opacity="1.0"/>
        <path stroke-linecap="round" fill="none" class="id_AOA_amoA id_W-COD"
              d="M 12.827122,342.855286 A 347.781536,347.781536 0,0 1,-141.445114,46.294888"
              stroke="#af1627" stroke-width="6.03974" stroke-opacity="1.0"/>
        <path stroke-linecap="round" fill="none" class="id_AOB_amoA id_Ⅳ-Area"
              d="M 403.500946,398.741150 A 384.849330,384.849330 0,0 1,557.616882,52.340305"
              stroke="#49ce48" stroke-width="5.1050467" stroke-opacity="1.0"/>
        <path stroke-linecap="round" fill="none" class="id_narG id_W-DO"
              d="M 159.244873,548.851929 A 736.424633,736.424633 0,0 1,-340.774139,-79.120743"
              stroke="#48ce47" stroke-width="4.95967" stroke-opacity="1.0"/>
        <path stroke-linecap="round" fill="none" class="id_narG id_W-T"
              d="M 190.932098,516.054077 A 280.350585,280.350585 0,0 1,249.089203,270.378540"
              stroke="#3fce3e" stroke-width="3.512231" stroke-opacity="1.0"/>
        <path stroke-linecap="round" fill="none" class="id_napA id_Ⅰ-Area"
              d="M -83.546799,602.876892 A 556.498238,556.498238 0,0 1,-557.906372,258.465851"
              stroke="#b12636" stroke-width="0.90000004" stroke-opacity="1.0"/>
        <path stroke-linecap="round" fill="none" class="id_nirK id_W-pH"
              d="M -289.181793,505.159607 A 348.755632,348.755632 0,0 1,-363.763092,178.088318"
              stroke="#0ecf0c" stroke-width="7.8801703" stroke-opacity="1.0"/>
        <path stroke-linecap="round" fill="none" class="id_nirK id_W-TN"
              d="M -302.863556,533.488892 A 188.936404,188.936404 0,0 1,-415.794922,449.713531"
              stroke="#b32c3c" stroke-width="6.306628" stroke-opacity="1.0"/>
        <path stroke-linecap="round" fill="none" class="id_nosZ id_W-pH"
              d="M -218.924149,281.065643 A 198.412964,198.412964 0,0 1,-331.620636,178.635269"
              stroke="#1acf18" stroke-width="9.0" stroke-opacity="1.0"/>
        <path stroke-linecap="round" fill="none" class="id_cnorB id_S-TN"
              d="M -158.989578,-576.303528 A 558.202696,558.202696 0,0 1,416.054260,-452.321259"
              stroke="#ac0014" stroke-width="8.5057955" stroke-opacity="1.0"/>
        <path stroke-linecap="round" fill="none" class="id_hzsA id_Ⅲ-Area"
              d="M 128.944077,-124.883713 A 240.165116,240.165116 0,0 1,313.566803,-39.333801"
              stroke="#b22838" stroke-width="6.1471252" stroke-opacity="1.0"/>
        <path stroke-linecap="round" fill="none" class="id_hzsA id_Ⅴ-Area"
              d="M 70.243301,-168.092056 A 377.649318,377.649318 0,0 1,208.629486,-511.703156"
              stroke="#b01a2b" stroke-width="5.496289" stroke-opacity="1.0"/>
        <path stroke-linecap="round" fill="none" class="id_hzsA id_W-DO"
              d="M 37.780624,-93.693695 A 353.145611,353.145611 0,0 1,-302.928070,-100.765678"
              stroke="#49ce48" stroke-width="6.114071" stroke-opacity="1.0"/>
        <path stroke-linecap="round" fill="none" class="id_hzsA id_W-NO_{2}^{-}"
              d="M 129.090195,-115.993362 A 492.915121,492.915121 0,0 1,529.446045,199.274841"
              stroke="#42ce41" stroke-width="5.5751867" stroke-opacity="1.0"/>
        <path stroke-linecap="round" fill="none" class="id_hzsA id_W-NO_{3}^{-}"
              d="M 47.782757,-157.229309 A 410.114425,410.114425 0,0 1,-2.285833,-563.828735"
              stroke="#2dcf2b" stroke-width="7.5427437" stroke-opacity="1.0"/>
        <path stroke-linecap="round" fill="none" class="id_hzsA id_W-NH_{4}^{+}"
              d="M 105.300423,-161.954086 A 201.533818,201.533818 0,0 1,241.690445,-237.945450"
              stroke="#2ccf2b" stroke-width="7.5817027" stroke-opacity="1.0"/>
        <path stroke-linecap="round" fill="none" class="id_hzsA id_W-T"
              d="M 123.693268,-96.917328 A 341.429888,341.429888 0,0 1,286.527679,186.188522"
              stroke="#40ce3f" stroke-width="5.9103875" stroke-opacity="1.0"/>
        <path stroke-linecap="round" fill="none" class="id_hzsB id_Ⅱ-Area"
              d="M 21.748297,-325.950134 A 197.160815,197.160815 0,0 1,-122.308647,-281.532623"
              stroke="#35ce34" stroke-width="6.9100623" stroke-opacity="1.0"/>
        <path stroke-linecap="round" fill="none" class="id_hzsB id_W-DO"
              d="M 33.526184,-317.752289 A 385.570435,385.570435 0,0 1,-294.521698,-125.940636"
              stroke="#38ce36" stroke-width="6.7132683" stroke-opacity="1.0"/>
        <path stroke-linecap="round" fill="none" class="id_hzsB id_W-NO_{3}^{-}"
              d="M 24.928043,-400.723633 A 207.261154,207.261154 0,0 1,1.386977,-562.188599"
              stroke="#47ce46" stroke-width="4.7490993" stroke-opacity="1.0"/>
        <path stroke-linecap="round" fill="none" class="id_hzsB id_W-T"
              d="M 96.097321,-333.735321 A 533.094105,533.094105 0,0 1,295.451202,187.450378"
              stroke="#3cce3a" stroke-width="6.3502975" stroke-opacity="1.0"/>
        <path stroke-linecap="round" fill="none" class="id_hzo id_W-DO"
              d="M 19.008629,124.790306 A 402.427428,402.427428 0,0 1,-322.778961,-83.747894"
              stroke="#b22737" stroke-width="5.7064" stroke-opacity="1.0"/>
        <path stroke-linecap="round" fill="none" class="id_hzo id_W-COD"
              d="M 19.002525,121.596428 A 200.695882,200.695882 0,0 1,-113.180603,40.456387"
              stroke="#ac0115" stroke-width="8.416901" stroke-opacity="1.0"/>
        <path stroke-linecap="round" fill="none" class="id_hzo id_W-T"
              d="M 117.738342,121.078827 A 202.718333,202.718333 0,0 1,257.485504,193.912231"
              stroke="#b22c3c" stroke-width="4.174304" stroke-opacity="1.0"/>
        <path stroke-linecap="round" fill="none" class="id_nifH id_W-pH"
              d="M -545.340942,-25.061876 A 244.902843,244.902843 0,0 1,-368.867950,87.411415"
              stroke="#17cf15" stroke-width="7.6112924" stroke-opacity="1.0"/>
    </g>
    <g id="nodes">
        <circle fill="#00b2c2" r="35.616" fill-opacity="0.6"
                class="id_Bacterial_16S_rRNA" cx="-550.91345" cy="-262.97125"/>
        <circle fill="none" r="39.008003" cx="-550.91345" cy="-262.97125"
                stroke="#cccccc" stroke-opacity="0.6" stroke-width="6.784"/>
        <circle fill="#f072b3" r="35.616" fill-opacity="0.6" class="id_S-TP"
                cx="-399.8647" cy="-439.66043"/>
        <circle fill="none" r="39.008003" cx="-399.8647" cy="-439.66043"
                stroke="#cccccc" stroke-opacity="0.6" stroke-width="6.784"/>
        <circle fill="#00b2c2" r="35.616" fill-opacity="0.6"
                class="id_Archaeal_16S_rRNA" cx="561.10004" cy="-200.14809"/>
        <circle fill="none" r="39.008003" cx="561.10004" cy="-200.14809"
                stroke="#cccccc" stroke-opacity="0.6" stroke-width="6.784"/>
        <circle fill="#b29f18" r="35.616" fill-opacity="0.6" class="id_W-TN"
                cx="-435.94522" cy="404.61002"/>
        <circle fill="none" r="39.008003" cx="-435.94522" cy="404.61002"
                stroke="#cccccc" stroke-opacity="0.6" stroke-width="6.784"/>
        <circle fill="#b29f18" r="35.616" fill-opacity="0.6"
                class="id_W-NH_{4}^{+}" cx="291.0867" cy="-237.33751"/>
        <circle fill="none" r="39.008003" cx="291.0867" cy="-237.33751"
                stroke="#cccccc" stroke-opacity="0.6" stroke-width="6.784"/>
        <circle fill="#00b2c2" r="35.616" fill-opacity="0.6" class="id_AOA_amoA"
                cx="55.729362" cy="367.34525"/>
        <circle fill="none" r="39.008003" cx="55.729362" cy="367.34525"
                stroke="#cccccc" stroke-opacity="0.6" stroke-width="6.784"/>
        <circle fill="#b29f18" r="35.616" fill-opacity="0.6" class="id_W-pH"
                cx="-346.8971" cy="131.65666"/>
        <circle fill="none" r="39.008003" cx="-346.8971" cy="131.65666"
                stroke="#cccccc" stroke-opacity="0.6" stroke-width="6.784"/>
        <circle fill="#b29f18" r="35.616" fill-opacity="0.6" class="id_W-COD"
                cx="-136.87038" cy="-2.8928328"/>
        <circle fill="none" r="39.008003" cx="-136.87038" cy="-2.8928328"
                stroke="#cccccc" stroke-opacity="0.6" stroke-width="6.784"/>
        <circle fill="#00b2c2" r="35.616" fill-opacity="0.6" class="id_AOB_amoA"
                cx="411.40375" cy="447.5049"/>
        <circle fill="none" r="39.008003" cx="411.40375" cy="447.5049"
                stroke="#cccccc" stroke-opacity="0.6" stroke-width="6.784"/>
        <circle fill="#f072b3" r="35.616" fill-opacity="0.6" class="id_Ⅳ-Area"
                cx="599.129" cy="25.561554"/>
        <circle fill="none" r="39.008003" cx="599.129" cy="25.561554"
                stroke="#cccccc" stroke-opacity="0.6" stroke-width="6.784"/>
        <circle fill="#00b2c2" r="35.616" fill-opacity="0.6" class="id_narG"
                cx="206.60472" cy="562.90204"/>
        <circle fill="none" r="39.008003" cx="206.60472" cy="562.90204"
                stroke="#cccccc" stroke-opacity="0.6" stroke-width="6.784"/>
        <circle fill="#b29f18" r="35.616" fill-opacity="0.6" class="id_W-DO"
                cx="-343.85922" cy="-128.42432"/>
        <circle fill="none" r="39.008003" cx="-343.85922" cy="-128.42432"
                stroke="#cccccc" stroke-opacity="0.6" stroke-width="6.784"/>
        <circle fill="#b29f18" r="35.616" fill-opacity="0.6" class="id_W-T"
                cx="284.10153" cy="235.52892"/>
        <circle fill="none" r="39.008003" cx="284.10153" cy="235.52892"
                stroke="#cccccc" stroke-opacity="0.6" stroke-width="6.784"/>
        <circle fill="#00b2c2" r="35.616" fill-opacity="0.6" class="id_napA"
                cx="-34.167423" cy="604.3042"/>
        <circle fill="none" r="39.008003" cx="-34.167423" cy="604.3042"
                stroke="#cccccc" stroke-opacity="0.6" stroke-width="6.784"/>
        <circle fill="#f072b3" r="35.616" fill-opacity="0.6" class="id_Ⅰ-Area"
                cx="-574.5526" cy="211.95496"/>
        <circle fill="none" r="39.008003" cx="-574.5526" cy="211.95496"
                stroke="#cccccc" stroke-opacity="0.6" stroke-width="6.784"/>
        <circle fill="#00b2c2" r="35.616" fill-opacity="0.6" class="id_nirK"
                cx="-253.85426" cy="539.6897"/>
        <circle fill="none" r="39.008003" cx="-253.85426" cy="539.6897"
                stroke="#cccccc" stroke-opacity="0.6" stroke-width="6.784"/>
        <circle fill="#00b2c2" r="35.616" fill-opacity="0.6" class="id_nosZ"
                cx="-170.70432" cy="291.7991"/>
        <circle fill="none" r="39.008003" cx="-170.70432" cy="291.7991"
                stroke="#cccccc" stroke-opacity="0.6" stroke-width="6.784"/>
        <circle fill="#00b2c2" r="35.616" fill-opacity="0.6" class="id_cnorB"
                cx="-204.7384" cy="-557.66473"/>
        <circle fill="none" r="39.008003" cx="-204.7384" cy="-557.66473"
                stroke="#cccccc" stroke-opacity="0.6" stroke-width="6.784"/>
        <circle fill="#f072b3" r="35.616" fill-opacity="0.6" class="id_S-TN"
                cx="450.05847" cy="-416.4873"/>
        <circle fill="none" r="39.008003" cx="450.05847" cy="-416.4873"
                stroke="#cccccc" stroke-opacity="0.6" stroke-width="6.784"/>
        <circle fill="#00b2c2" r="35.616" fill-opacity="0.6" class="id_hzsA"
                cx="79.824234" cy="-119.63006"/>
        <circle fill="none" r="39.008003" cx="79.824234" cy="-119.63006"
                stroke="#cccccc" stroke-opacity="0.6" stroke-width="6.784"/>
        <circle fill="#f072b3" r="35.616" fill-opacity="0.6" class="id_Ⅲ-Area"
                cx="341.31323" cy="1.5379044"/>
        <circle fill="none" r="39.008003" cx="341.31323" cy="1.5379044"
                stroke="#cccccc" stroke-opacity="0.6" stroke-width="6.784"/>
        <circle fill="#f072b3" r="35.616" fill-opacity="0.6" class="id_Ⅴ-Area"
                cx="249.1235" cy="-539.9979"/>
        <circle fill="none" r="39.008003" cx="249.1235" cy="-539.9979"
                stroke="#cccccc" stroke-opacity="0.6" stroke-width="6.784"/>
        <circle fill="#b29f18" r="35.616" fill-opacity="0.6"
                class="id_W-NO_{2}^{-}" cx="544.53345" cy="246.3145"/>
        <circle fill="none" r="39.008003" cx="544.53345" cy="246.3145"
                stroke="#cccccc" stroke-opacity="0.6" stroke-width="6.784"/>
        <circle fill="#b29f18" r="35.616" fill-opacity="0.6"
                class="id_W-NO_{3}^{-}" cx="19.676828" cy="-608.07806"/>
        <circle fill="none" r="39.008003" cx="19.676828" cy="-608.07806"
                stroke="#cccccc" stroke-opacity="0.6" stroke-width="6.784"/>
        <circle fill="#00b2c2" r="35.616" fill-opacity="0.6" class="id_hzsB"
                cx="55.559063" cy="-361.96667"/>
        <circle fill="none" r="39.008003" cx="55.559063" cy="-361.96667"
                stroke="#cccccc" stroke-opacity="0.6" stroke-width="6.784"/>
        <circle fill="#f072b3" r="35.616" fill-opacity="0.6" class="id_Ⅱ-Area"
                cx="-170.53079" cy="-292.2557"/>
        <circle fill="none" r="39.008003" cx="-170.53079" cy="-292.2557"
                stroke="#cccccc" stroke-opacity="0.6" stroke-width="6.784"/>
        <circle fill="#00b2c2" r="35.616" fill-opacity="0.6" class="id_hzo"
                cx="68.37967" cy="123.09902"/>
        <circle fill="none" r="39.008003" cx="68.37967" cy="123.09902"
                stroke="#cccccc" stroke-opacity="0.6" stroke-width="6.784"/>
        <circle fill="#00b2c2" r="35.616" fill-opacity="0.6" class="id_nifH"
                cx="-594.7256" cy="-26.29431"/>
        <circle fill="none" r="39.008003" cx="-594.7256" cy="-26.29431"
                stroke="#cccccc" stroke-opacity="0.6" stroke-width="6.784"/>
    </g>
</svg>