<?xml version="1.0" encoding="UTF-8"?>
<!DOCTYPE svg PUBLIC "-//W3C//DTD SVG 1.1//EN"
    "http://www.w3.org/Graphics/SVG/1.1/DTD/svg11.dtd" >
<svg contentScriptType="text/ecmascript" width="1191.0"
     xmlns:xlink="http://www.w3.org/1999/xlink" zoomAndPan="magnify"
     contentStyleType="text/css"
     viewBox="-594.000000 -602.000000 1191.000000 1190.000000" height="1190.0"
     preserveAspectRatio="xMidYMid meet" xmlns="http://www.w3.org/2000/svg"
     version="1.1">
    <g id="edges">
        <path stroke-linecap="round" fill="none"
              class="id_Bacterial_16S_rRNA id_Ⅰ-Area"
              d="M -103.137093,258.537811 A 462.476687,462.476687 0,0 1,-176.602783,-211.384201"
              stroke="#ac0014" stroke-width="7.554361" stroke-opacity="1.0"/>
        <path stroke-linecap="round" fill="none"
              class="id_Bacterial_16S_rRNA id_Ⅳ-Area"
              d="M -114.116104,273.695251 A 358.739940,358.739940 0,0 1,-301.448853,-22.372423"
              stroke="#b31729" stroke-width="5.668786" stroke-opacity="1.0"/>
        <path stroke-linecap="round" fill="none"
              class="id_Bacterial_16S_rRNA id_W-pH"
              d="M -33.474922,263.583832 A 194.235425,194.235425 0,0 1,114.753471,239.791306"
              stroke="#af0b1e" stroke-width="7.1445584" stroke-opacity="1.0"/>
        <path stroke-linecap="round" fill="none"
              class="id_Bacterial_16S_rRNA id_W-DO"
              d="M -24.140425,282.641541 A 364.933101,364.933101 0,0 1,312.457458,404.118225"
              stroke="#b00e20" stroke-width="8.79941" stroke-opacity="1.0"/>
        <path stroke-linecap="round" fill="none"
              class="id_Bacterial_16S_rRNA id_W-TN"
              d="M -101.617012,330.038635 A 283.235412,283.235412 0,0 1,-348.317993,408.359924"
              stroke="#67e066" stroke-width="2.671403" stroke-opacity="1.0"/>
        <path stroke-linecap="round" fill="none"
              class="id_Bacterial_16S_rRNA id_W-NH_{4}^{+}"
              d="M -118.347931,290.284485 A 195.598060,195.598060 0,0 1,-244.425766,205.737320"
              stroke="#6ae069" stroke-width="2.1715555"
              stroke-opacity="0.99607843"/>
        <path stroke-linecap="round" fill="none"
              class="id_Bacterial_16S_rRNA id_W-T"
              d="M -48.514462,251.255569 A 590.797706,590.797706 0,0 1,508.744110,-43.090248"
              stroke="#ae091c" stroke-width="4.6056175" stroke-opacity="1.0"/>
        <path stroke-linecap="round" fill="none"
              class="id_Archaeal_16S_rRNA id_Ⅲ-Area"
              d="M 275.594421,-429.332733 A 229.925045,229.925045 0,0 1,121.813400,-311.258118"
              stroke="#bb3343" stroke-width="2.1641486" stroke-opacity="1.0"/>
        <path stroke-linecap="round" fill="none"
              class="id_Archaeal_16S_rRNA id_Ⅴ-Area"
              d="M 339.385223,-461.558655 A 216.451763,216.451763 0,0 1,464.060730,-335.362610"
              stroke="#bd3847" stroke-width="4.955184" stroke-opacity="1.0"/>
        <path stroke-linecap="round" fill="none" class="id_AOA_amoA id_Ⅴ-Area"
              d="M -178.538559,-524.384155 A 611.761806,611.761806 0,0 1,446.412476,-326.765717"
              stroke="#bc3747" stroke-width="3.6585238" stroke-opacity="1.0"/>
        <path stroke-linecap="round" fill="none" class="id_nxrA id_W-NO_{2}^{-}"
              d="M -556.765991,-154.580978 A 223.204362,223.204362 0,0 1,-473.641632,-320.596344"
              stroke="#c24957" stroke-width="9.0" stroke-opacity="1.0"/>
        <path stroke-linecap="round" fill="none" class="id_nxrA id_W-COD"
              d="M -526.224121,-67.531296 A 223.711310,223.711310 0,0 1,-513.863586,118.341454"
              stroke="#c34d5b" stroke-width="1.271858" stroke-opacity="1.0"/>
        <path stroke-linecap="round" fill="none" class="id_napA id_S-TP"
              d="M 229.191208,-108.431061 A 245.440664,245.440664 0,0 1,46.378899,0.540916"
              stroke="#b31729" stroke-width="6.538062" stroke-opacity="1.0"/>
        <path stroke-linecap="round" fill="none" class="id_napA id_Ⅰ-Area"
              d="M 206.284836,-135.375244 A 350.843950,350.843950 0,0 1,-123.950157,-219.586212"
              stroke="#6fe16e" stroke-width="2.1884377" stroke-opacity="1.0"/>
        <path stroke-linecap="round" fill="none" class="id_napA id_Ⅴ-Area"
              d="M 273.791565,-192.989532 A 219.503038,219.503038 0,0 1,427.931732,-288.120667"
              stroke="#be3c4b" stroke-width="2.5124068" stroke-opacity="1.0"/>
        <path stroke-linecap="round" fill="none" class="id_napA id_W-pH"
              d="M 268.071442,-105.805054 A 348.019751,348.019751 0,0 1,193.666748,223.273453"
              stroke="#5dde5b" stroke-width="6.8582563" stroke-opacity="1.0"/>
        <path stroke-linecap="round" fill="none" class="id_napA id_W-DO"
              d="M 284.006592,-115.554993 A 499.736003,499.736003 0,0 1,361.851135,399.139008"
              stroke="#53dc51" stroke-width="7.060649" stroke-opacity="1.0"/>
        <path stroke-linecap="round" fill="none" class="id_napA id_W-T"
              d="M 298.424835,-160.139359 A 270.818522,270.818522 0,0 1,526.909729,-75.268044"
              stroke="#43da42" stroke-width="8.286162" stroke-opacity="1.0"/>
        <path stroke-linecap="round" fill="none" class="id_nirK id_Ⅲ-Area"
              d="M 64.857628,-524.236145 A 215.437283,215.437283 0,0 1,91.965347,-350.180969"
              stroke="#c04352" stroke-width="2.2166061" stroke-opacity="1.0"/>
        <path stroke-linecap="round" fill="none" class="id_nirK id_Ⅴ-Area"
              d="M 82.318092,-562.886963 A 431.987949,431.987949 0,0 1,455.803711,-332.458832"
              stroke="#bd3948" stroke-width="3.9079328" stroke-opacity="1.0"/>
        <path stroke-linecap="round" fill="none" class="id_cnorB id_W-pH"
              d="M 301.190613,122.794525 A 195.793907,195.793907 0,0 1,204.238678,239.915634"
              stroke="#b41c2e" stroke-width="2.6565123" stroke-opacity="1.0"/>
        <path stroke-linecap="round" fill="none" class="id_cnorB id_W-DO"
              d="M 338.313782,113.668335 A 306.647174,306.647174 0,0 1,363.261902,399.841553"
              stroke="#b31a2c" stroke-width="8.112494" stroke-opacity="1.0"/>
        <path stroke-linecap="round" fill="none" class="id_cnorB id_W-T"
              d="M 336.411041,36.323101 A 226.360007,226.360007 0,0 1,508.694794,-42.653805"
              stroke="#b31729" stroke-width="4.749187" stroke-opacity="1.0"/>
        <path stroke-linecap="round" fill="none" class="id_hzsA id_S-TN"
              d="M -125.765656,512.270386 A 220.613471,220.613471 0,0 1,56.549591,520.305786"
              stroke="#c14554" stroke-width="7.4780993" stroke-opacity="1.0"/>
        <path stroke-linecap="round" fill="none" class="id_hzsA id_W-DO"
              d="M -133.532211,501.604156 A 431.259850,431.259850 0,0 1,297.380463,423.294159"
              stroke="#bb3141" stroke-width="4.2727737" stroke-opacity="1.0"/>
        <path stroke-linecap="round" fill="none" class="id_hzo id_W-pH"
              d="M 472.866730,264.229553 A 294.077035,294.077035 0,0 1,201.308746,279.795258"
              stroke="#5ade59" stroke-width="7.113708" stroke-opacity="1.0"/>
        <path stroke-linecap="round" fill="none" class="id_hzo id_W-DO"
              d="M 504.360474,283.699127 A 222.724677,222.724677 0,0 1,386.269897,426.204437"
              stroke="#5fde5e" stroke-width="4.779229" stroke-opacity="1.0"/>
        <path stroke-linecap="round" fill="none" class="id_hzo id_W-T"
              d="M 494.091187,192.075684 A 231.304261,231.304261 0,0 1,525.395813,-0.970219"
              stroke="#76e275" stroke-width="0.90000004" stroke-opacity="1.0"/>
    </g>
    <g id="nodes">
        <circle fill="#00b2c2" r="34.272003" fill-opacity="0.6"
                class="id_Bacterial_16S_rRNA" cx="-70.664024" cy="293.614"/>
        <circle fill="none" r="37.536003" cx="-70.664024" cy="293.614"
                stroke="#cccccc" stroke-opacity="0.6" stroke-width="6.5280004"/>
        <circle fill="#f072b3" r="34.272003" fill-opacity="0.6"
                class="id_Ⅰ-Area" cx="-156.38487" cy="-254.69789"/>
        <circle fill="none" r="37.536003" cx="-156.38487" cy="-254.69789"
                stroke="#cccccc" stroke-opacity="0.6" stroke-width="6.5280004"/>
        <circle fill="#f072b3" r="34.272003" fill-opacity="0.6"
                class="id_Ⅳ-Area" cx="-300.84244" cy="-70.16858"/>
        <circle fill="none" r="37.536003" cx="-300.84244" cy="-70.16858"
                stroke="#cccccc" stroke-opacity="0.6" stroke-width="6.5280004"/>
        <circle fill="#b29f18" r="34.272003" fill-opacity="0.6" class="id_W-pH"
                cx="159.4727" cy="256.67416"/>
        <circle fill="none" r="37.536003" cx="159.4727" cy="256.67416"
                stroke="#cccccc" stroke-opacity="0.6" stroke-width="6.5280004"/>
        <circle fill="#b29f18" r="34.272003" fill-opacity="0.6" class="id_W-DO"
                cx="341.25146" cy="442.27246"/>
        <circle fill="none" r="37.536003" cx="341.25146" cy="442.27246"
                stroke="#cccccc" stroke-opacity="0.6" stroke-width="6.5280004"/>
        <circle fill="#b29f18" r="34.272003" fill-opacity="0.6" class="id_W-TN"
                cx="-394.61295" cy="396.45956"/>
        <circle fill="none" r="37.536003" cx="-394.61295" cy="396.45956"
                stroke="#cccccc" stroke-opacity="0.6" stroke-width="6.5280004"/>
        <circle fill="#b29f18" r="34.272003" fill-opacity="0.6"
                class="id_W-NH_{4}^{+}" cx="-265.60678" cy="162.88637"/>
        <circle fill="none" r="37.536003" cx="-265.60678" cy="162.88637"
                stroke="#cccccc" stroke-opacity="0.6" stroke-width="6.5280004"/>
        <circle fill="#b29f18" r="34.272003" fill-opacity="0.6" class="id_W-T"
                cx="556.21686" cy="-37.50653"/>
        <circle fill="none" r="37.536003" cx="556.21686" cy="-37.50653"
                stroke="#cccccc" stroke-opacity="0.6" stroke-width="6.5280004"/>
        <circle fill="#00b2c2" r="34.272003" fill-opacity="0.6"
                class="id_Archaeal_16S_rRNA" cx="293.17462" cy="-473.78244"/>
        <circle fill="none" r="37.536003" cx="293.17462" cy="-473.78244"
                stroke="#cccccc" stroke-opacity="0.6" stroke-width="6.5280004"/>
        <circle fill="#f072b3" r="34.272003" fill-opacity="0.6"
                class="id_Ⅲ-Area" cx="74.33153" cy="-305.7525"/>
        <circle fill="none" r="37.536003" cx="74.33153" cy="-305.7525"
                stroke="#cccccc" stroke-opacity="0.6" stroke-width="6.5280004"/>
        <circle fill="#f072b3" r="34.272003" fill-opacity="0.6"
                class="id_Ⅴ-Area" cx="475.7235" cy="-289.00723"/>
        <circle fill="none" r="37.536003" cx="475.7235" cy="-289.00723"
                stroke="#cccccc" stroke-opacity="0.6" stroke-width="6.5280004"/>
        <circle fill="#00b2c2" r="34.272003" fill-opacity="0.6"
                class="id_AOA_amoA" cx="-224.22958" cy="-510.34238"/>
        <circle fill="none" r="37.536003" cx="-224.22958" cy="-510.34238"
                stroke="#cccccc" stroke-opacity="0.6" stroke-width="6.5280004"/>
        <circle fill="#00b2c2" r="34.272003" fill-opacity="0.6" class="id_nxrA"
                cx="-553.32697" cy="-106.904854"/>
        <circle fill="none" r="37.536003" cx="-553.32697" cy="-106.904854"
                stroke="#cccccc" stroke-opacity="0.6" stroke-width="6.5280004"/>
        <circle fill="#b29f18" r="34.272003" fill-opacity="0.6"
                class="id_W-NO_{2}^{-}" cx="-433.40826" cy="-346.40555"/>
        <circle fill="none" r="37.536003" cx="-433.40826" cy="-346.40555"
                stroke="#cccccc" stroke-opacity="0.6" stroke-width="6.5280004"/>
        <circle fill="#b29f18" r="34.272003" fill-opacity="0.6" class="id_W-COD"
                cx="-535.51416" cy="160.9571"/>
        <circle fill="none" r="37.536003" cx="-535.51416" cy="160.9571"
                stroke="#cccccc" stroke-opacity="0.6" stroke-width="6.5280004"/>
        <circle fill="#00b2c2" r="34.272003" fill-opacity="0.6" class="id_napA"
                cx="251.5727" cy="-150.66742"/>
        <circle fill="none" r="37.536003" cx="251.5727" cy="-150.66742"
                stroke="#cccccc" stroke-opacity="0.6" stroke-width="6.5280004"/>
        <circle fill="#f072b3" r="34.272003" fill-opacity="0.6" class="id_S-TP"
                cx="-1.4194037" cy="0.13779391"/>
        <circle fill="none" r="37.536003" cx="-1.4194037" cy="0.13779391"
                stroke="#cccccc" stroke-opacity="0.6" stroke-width="6.5280004"/>
        <circle fill="#00b2c2" r="34.272003" fill-opacity="0.6" class="id_nirK"
                cx="34.547943" cy="-561.1978"/>
        <circle fill="none" r="37.536003" cx="34.547943" cy="-561.1978"
                stroke="#cccccc" stroke-opacity="0.6" stroke-width="6.5280004"/>
        <circle fill="#00b2c2" r="34.272003" fill-opacity="0.6" class="id_cnorB"
                cx="309.2931" cy="75.68624"/>
        <circle fill="none" r="37.536003" cx="309.2931" cy="75.68624"
                stroke="#cccccc" stroke-opacity="0.6" stroke-width="6.5280004"/>
        <circle fill="#00b2c2" r="34.272003" fill-opacity="0.6" class="id_hzsA"
                cx="-167.92072" cy="534.8046"/>
        <circle fill="none" r="37.536003" cx="-167.92072" cy="534.8046"
                stroke="#cccccc" stroke-opacity="0.6" stroke-width="6.5280004"/>
        <circle fill="#f072b3" r="34.272003" fill-opacity="0.6" class="id_S-TN"
                cx="96.5587" cy="546.4613"/>
        <circle fill="none" r="37.536003" cx="96.5587" cy="546.4613"
                stroke="#cccccc" stroke-opacity="0.6" stroke-width="6.5280004"/>
        <circle fill="#00b2c2" r="34.272003" fill-opacity="0.6" class="id_hzo"
                cx="511.78687" cy="236.47954"/>
        <circle fill="none" r="37.536003" cx="511.78687" cy="236.47954"
                stroke="#cccccc" stroke-opacity="0.6" stroke-width="6.5280004"/>
    </g>
</svg>