<svg width="1280" height="720" xmlns="http://www.w3.org/2000/svg" xmlns:xlink="http://www.w3.org/1999/xlink" overflow="hidden"><defs><clipPath id="clip0"><rect x="0" y="0" width="1280" height="720"/></clipPath><clipPath id="clip1"><rect x="280" y="0" width="720" height="720"/></clipPath><clipPath id="clip2"><rect x="280" y="0" width="721" height="720"/></clipPath><clipPath id="clip3"><rect x="280" y="0" width="721" height="720"/></clipPath></defs><g clip-path="url(#clip0)"><rect x="0" y="0" width="1280" height="720" fill="#FFFFFF"/><g clip-path="url(#clip1)"><g clip-path="url(#clip2)"><g clip-path="url(#clip3)"><path d="M-62.3499 156.295C-128.445 77.0521-145.518-32.1543-106.762-127.789" stroke="#AC0014" stroke-width="4.56687" stroke-linecap="round" fill="none" transform="matrix(1 0 0 1.00084 639.093 364.235)"/><path d="M-68.9871 165.458C-135.284 129.541-178.168 61.7666-182.236-13.5249" stroke="#B31729" stroke-width="3.42697" stroke-linecap="round" fill="none" transform="matrix(1 0 0 1.00084 639.093 364.235)"/><path d="M-20.2367 159.345C6.49806 142.735 38.7822 137.553 69.3724 144.962" stroke="#AF0B1E" stroke-width="4.31913" stroke-linecap="round" fill="none" transform="matrix(1 0 0 1.00084 639.093 364.235)"/><path d="M-14.5937 170.866C61.4051 158.127 138.543 185.966 188.891 244.303" stroke="#B00E20" stroke-width="5.31954" stroke-linecap="round" fill="none" transform="matrix(1 0 0 1.00084 639.093 364.235)"/><path d="M-61.4309 199.52C-100.604 238.423-156.131 256.051-210.57 246.867" stroke="#67E066" stroke-width="1.61495" stroke-linecap="round" fill="none" transform="matrix(1 0 0 1.00084 639.093 364.235)"/><path d="M-71.5453 175.487C-102.796 169.405-130.274 150.978-147.764 124.375" stroke="#6AE069" stroke-width="1.31278" stroke-linecap="round" stroke-opacity="0.996078" fill="none" transform="matrix(1 0 0 1.00084 639.093 364.235)"/><path d="M-29.3286 151.893C39.3126 32.6367 170.357-36.5816 307.553-26.0495" stroke="#AE091C" stroke-width="2.78425" stroke-linecap="round" fill="none" transform="matrix(1 0 0 1.00084 639.093 364.235)"/><path d="M166.606-259.546C147.655-223.212 113.636-197.092 73.6403-188.166" stroke="#BB3343" stroke-width="1.3083" stroke-linecap="round" fill="none" transform="matrix(1 0 0 1.00084 639.093 364.235)"/><path d="M205.17-279.028C240.039-265.534 267.47-237.768 280.54-202.738" stroke="#BD3847" stroke-width="2.99558" stroke-linecap="round" fill="none" transform="matrix(1 0 0 1.00084 639.093 364.235)"/><path d="M-107.933-317.008C30.5109-353.701 177.694-307.16 269.872-197.541" stroke="#BC3747" stroke-width="2.2117" stroke-linecap="round" fill="none" transform="matrix(1 0 0 1.00084 639.093 364.235)"/><path d="M-336.584-93.4495C-335.202-132.613-316.862-169.242-286.332-193.811" stroke="#C24957" stroke-width="5.44081" stroke-linecap="round" fill="none" transform="matrix(1 0 0 1.00084 639.093 364.235)"/><path d="M-318.12-40.825C-299.412-6.23709-296.684 34.7809-310.648 71.5414" stroke="#C34D5B" stroke-width="0.768881" stroke-linecap="round" fill="none" transform="matrix(1 0 0 1.00084 639.093 364.235)"/><path d="M138.554-65.5503C113.647-27.9307 72.9762-3.68751 28.0376 0.327002" stroke="#B31729" stroke-width="3.95248" stroke-linecap="round" fill="none" transform="matrix(1 0 0 1.00084 639.093 364.235)"/><path d="M124.706-81.8389C53.834-63.1772-21.6507-82.4261-74.9321-132.747" stroke="#6FE16E" stroke-width="1.32299" stroke-linecap="round" fill="none" transform="matrix(1 0 0 1.00084 639.093 364.235)"/><path d="M165.516-116.669C186.851-148.358 220.808-169.316 258.699-174.179" stroke="#BE3C4B" stroke-width="1.51884" stroke-linecap="round" fill="none" transform="matrix(1 0 0 1.00084 639.093 364.235)"/><path d="M162.058-63.9628C182.36 5.67042 165.361 80.8502 117.078 134.976" stroke="#5DDE5B" stroke-width="4.14605" stroke-linecap="round" fill="none" transform="matrix(1 0 0 1.00084 639.093 364.235)"/><path d="M171.692-69.8569C244.422 16.8571 262.585 136.949 218.751 241.293" stroke="#53DC51" stroke-width="4.2684" stroke-linecap="round" fill="none" transform="matrix(1 0 0 1.00084 639.093 364.235)"/><path d="M180.408-96.8097C231.98-102.564 283.225-83.5282 318.535-45.5021" stroke="#43DA42" stroke-width="5.00927" stroke-linecap="round" fill="none" transform="matrix(1 0 0 1.00084 639.093 364.235)"/><path d="M39.2086-316.919C59.416-285.782 65.3777-247.503 55.5962-211.696" stroke="#C04352" stroke-width="1.34001" stroke-linecap="round" fill="none" transform="matrix(1 0 0 1.00084 639.093 364.235)"/><path d="M49.7641-340.284C144.763-338.383 231.234-285.034 275.549-200.983" stroke="#BD3948" stroke-width="2.36248" stroke-linecap="round" fill="none" transform="matrix(1 0 0 1.00084 639.093 364.235)"/><path d="M182.08 74.2335C172.879 104.766 151.746 130.295 123.469 145.037" stroke="#B41C2E" stroke-width="1.60595" stroke-linecap="round" fill="none" transform="matrix(1 0 0 1.00084 639.093 364.235)"/><path d="M204.522 68.7164C237.919 120.317 243.569 185.116 219.604 241.718" stroke="#B31A2C" stroke-width="4.90428" stroke-linecap="round" fill="none" transform="matrix(1 0 0 1.00084 639.093 364.235)"/><path d="M203.372 21.9586C229.435-8.42343 267.494-25.8702 307.523-25.7857" stroke="#B31729" stroke-width="2.87105" stroke-linecap="round" fill="none" transform="matrix(1 0 0 1.00084 639.093 364.235)"/><path d="M-76.0296 309.685C-40.3118 295.321-0.129417 297.092 34.1862 314.543" stroke="#C14554" stroke-width="4.52077" stroke-linecap="round" fill="none" transform="matrix(1 0 0 1.00084 639.093 364.235)"/><path d="M-80.7248 303.237C-8.96148 241.257 90.7949 223.128 179.777 255.896" stroke="#BB3141" stroke-width="2.58304" stroke-linecap="round" fill="none" transform="matrix(1 0 0 1.00084 639.093 364.235)"/><path d="M285.864 159.736C235.968 189.512 174.67 193.026 121.698 169.146" stroke="#5ADE59" stroke-width="4.30048" stroke-linecap="round" fill="none" transform="matrix(1 0 0 1.00084 639.093 364.235)"/><path d="M304.903 171.506C294.729 209.218 268.679 240.653 233.513 257.655" stroke="#5FDE5E" stroke-width="2.88921" stroke-linecap="round" fill="none" transform="matrix(1 0 0 1.00084 639.093 364.235)"/><path d="M298.695 116.116C287.439 76.3306 294.367 33.6032 317.62-0.586531" stroke="#76E275" stroke-width="0.544081" stroke-linecap="round" fill="none" transform="matrix(1 0 0 1.00084 639.093 364.235)"/><path d="M-22.0002 177.5C-22.0002 188.942-31.2762 198.218-42.7188 198.218-54.1614 198.218-63.4374 188.942-63.4374 177.5-63.4374 166.057-54.1614 156.781-42.7188 156.781-31.2762 156.781-22.0002 166.057-22.0002 177.5Z" fill="#00B2C2" fill-opacity="0.6" transform="matrix(1 0 0 1.00084 639.093 364.235)"/><path d="M-20.027 177.5C-20.027 190.032-30.1865 200.191-42.7188 200.191-55.2511 200.191-65.4106 190.032-65.4106 177.5-65.4106 164.967-55.2511 154.808-42.7188 154.808-30.1865 154.808-20.027 164.967-20.027 177.5Z" stroke="#CCCCCC" stroke-width="3.9464" stroke-opacity="0.6" fill="none" transform="matrix(1 0 0 1.00084 639.093 364.235)"/><path d="M-73.8214-153.974C-73.8214-142.531-83.0974-133.255-94.54-133.255-105.983-133.255-115.259-142.531-115.259-153.974-115.259-165.416-105.983-174.692-94.54-174.692-83.0974-174.692-73.8214-165.416-73.8214-153.974Z" fill="#F072B3" fill-opacity="0.6" transform="matrix(1 0 0 1.00084 639.093 364.235)"/><path d="M-71.8482-153.974C-71.8482-141.441-82.0076-131.282-94.54-131.282-107.072-131.282-117.232-141.441-117.232-153.974-117.232-166.506-107.072-176.665-94.54-176.665-82.0076-176.665-71.8482-166.506-71.8482-153.974Z" stroke="#CCCCCC" stroke-width="3.9464" stroke-opacity="0.6" fill="none" transform="matrix(1 0 0 1.00084 639.093 364.235)"/><path d="M-161.151-42.4193C-161.151-30.9767-170.427-21.7007-181.869-21.7007-193.312-21.7007-202.588-30.9767-202.588-42.4193-202.588-53.8619-193.312-63.1379-181.869-63.1379-170.427-63.1379-161.151-53.8619-161.151-42.4193Z" fill="#F072B3" fill-opacity="0.6" transform="matrix(1 0 0 1.00084 639.093 364.235)"/><path d="M-159.178-42.4193C-159.178-29.887-169.337-19.7275-181.869-19.7275-194.402-19.7275-204.561-29.887-204.561-42.4193-204.561-54.9516-194.402-65.1111-181.869-65.1111-169.337-65.1111-159.178-54.9516-159.178-42.4193Z" stroke="#CCCCCC" stroke-width="3.9464" stroke-opacity="0.6" fill="none" transform="matrix(1 0 0 1.00084 639.093 364.235)"/><path d="M117.125 155.168C117.125 166.611 107.849 175.887 96.4067 175.887 84.9641 175.887 75.6881 166.611 75.6881 155.168 75.6881 143.726 84.9641 134.45 96.4067 134.45 107.849 134.45 117.125 143.726 117.125 155.168Z" fill="#B29F18" fill-opacity="0.6" transform="matrix(1 0 0 1.00084 639.093 364.235)"/><path d="M119.098 155.168C119.098 167.701 108.939 177.86 96.4067 177.86 83.8743 177.86 73.7149 167.701 73.7149 155.168 73.7149 142.636 83.8743 132.476 96.4067 132.476 108.939 132.476 119.098 142.636 119.098 155.168Z" stroke="#CCCCCC" stroke-width="3.9464" stroke-opacity="0.6" fill="none" transform="matrix(1 0 0 1.00084 639.093 364.235)"/><path d="M227.017 267.369C227.017 278.811 217.741 288.087 206.298 288.087 194.856 288.087 185.58 278.811 185.58 267.369 185.58 255.926 194.856 246.65 206.298 246.65 217.741 246.65 227.017 255.926 227.017 267.369Z" fill="#B29F18" fill-opacity="0.6" transform="matrix(1 0 0 1.00084 639.093 364.235)"/><path d="M228.99 267.369C228.99 279.901 218.83 290.061 206.298 290.061 193.766 290.061 183.606 279.901 183.606 267.369 183.606 254.836 193.766 244.677 206.298 244.677 218.83 244.677 228.99 254.836 228.99 267.369Z" stroke="#CCCCCC" stroke-width="3.9464" stroke-opacity="0.6" fill="none" transform="matrix(1 0 0 1.00084 639.093 364.235)"/><path d="M-217.838 239.673C-217.838 251.116-227.114 260.392-238.557 260.392-250 260.392-259.276 251.116-259.276 239.673-259.276 228.231-250 218.955-238.557 218.955-227.114 218.955-217.838 228.231-217.838 239.673Z" fill="#B29F18" fill-opacity="0.6" transform="matrix(1 0 0 1.00084 639.093 364.235)"/><path d="M-215.865 239.673C-215.865 252.206-226.025 262.365-238.557 262.365-251.089 262.365-261.249 252.206-261.249 239.673-261.249 227.141-251.089 216.982-238.557 216.982-226.025 216.982-215.865 227.141-215.865 239.673Z" stroke="#CCCCCC" stroke-width="3.9464" stroke-opacity="0.6" fill="none" transform="matrix(1 0 0 1.00084 639.093 364.235)"/><path d="M-139.85 98.4704C-139.85 109.913-149.126 119.189-160.568 119.189-172.011 119.189-181.287 109.913-181.287 98.4704-181.287 87.0278-172.011 77.7518-160.568 77.7518-149.126 77.7518-139.85 87.0278-139.85 98.4704Z" fill="#B29F18" fill-opacity="0.6" transform="matrix(1 0 0 1.00084 639.093 364.235)"/><path d="M-137.877 98.4704C-137.877 111.003-148.036 121.162-160.568 121.162-173.101 121.162-183.26 111.003-183.26 98.4704-183.26 85.938-173.101 75.7786-160.568 75.7786-148.036 75.7786-137.877 85.938-137.877 98.4704Z" stroke="#CCCCCC" stroke-width="3.9464" stroke-opacity="0.6" fill="none" transform="matrix(1 0 0 1.00084 639.093 364.235)"/><path d="M356.971-22.674C356.971-11.2314 347.695-1.95538 336.252-1.95538 324.809-1.95538 315.533-11.2314 315.533-22.674 315.533-34.1165 324.81-43.3926 336.252-43.3926 347.695-43.3926 356.971-34.1165 356.971-22.674Z" fill="#B29F18" fill-opacity="0.6" transform="matrix(1 0 0 1.00084 639.093 364.235)"/><path d="M358.944-22.674C358.944-10.1416 348.784 0.017817 336.252 0.017817 323.72 0.017817 313.56-10.1416 313.56-22.674 313.56-35.2063 323.72-45.3658 336.252-45.3658 348.784-45.3658 358.944-35.2063 358.944-22.674Z" stroke="#CCCCCC" stroke-width="3.9464" stroke-opacity="0.6" fill="none" transform="matrix(1 0 0 1.00084 639.093 364.235)"/><path d="M197.953-286.418C197.953-274.975 188.677-265.699 177.234-265.699 165.791-265.699 156.515-274.975 156.515-286.418 156.515-297.86 165.791-307.136 177.234-307.136 188.677-307.136 197.953-297.86 197.953-286.418Z" fill="#00B2C2" fill-opacity="0.6" transform="matrix(1 0 0 1.00084 639.093 364.235)"/><path d="M199.926-286.418C199.926-273.885 189.766-263.726 177.234-263.726 164.702-263.726 154.542-273.885 154.542-286.418 154.542-298.95 164.702-309.109 177.234-309.109 189.766-309.109 199.926-298.95 199.926-286.418Z" stroke="#CCCCCC" stroke-width="3.9464" stroke-opacity="0.6" fill="none" transform="matrix(1 0 0 1.00084 639.093 364.235)"/><path d="M65.6545-184.838C65.6545-173.395 56.3785-164.119 44.9359-164.119 33.4934-164.119 24.2173-173.395 24.2173-184.838 24.2173-196.28 33.4934-205.556 44.9359-205.556 56.3785-205.556 65.6545-196.28 65.6545-184.838Z" fill="#F072B3" fill-opacity="0.6" transform="matrix(1 0 0 1.00084 639.093 364.235)"/><path d="M67.6277-184.838C67.6277-172.305 57.4683-162.146 44.9359-162.146 32.4036-162.146 22.2441-172.305 22.2441-184.838 22.2441-197.37 32.4036-207.53 44.9359-207.53 57.4683-207.53 67.6277-197.37 67.6277-184.838Z" stroke="#CCCCCC" stroke-width="3.9464" stroke-opacity="0.6" fill="none" transform="matrix(1 0 0 1.00084 639.093 364.235)"/><path d="M308.31-174.715C308.31-163.272 299.034-153.996 287.591-153.996 276.148-153.996 266.872-163.272 266.872-174.715 266.872-186.157 276.148-195.433 287.591-195.433 299.034-195.433 308.31-186.157 308.31-174.715Z" fill="#F072B3" fill-opacity="0.6" transform="matrix(1 0 0 1.00084 639.093 364.235)"/><path d="M310.283-174.715C310.283-162.182 300.123-152.023 287.591-152.023 275.059-152.023 264.899-162.182 264.899-174.715 264.899-187.247 275.059-197.407 287.591-197.407 300.123-197.407 310.283-187.247 310.283-174.715Z" stroke="#CCCCCC" stroke-width="3.9464" stroke-opacity="0.6" fill="none" transform="matrix(1 0 0 1.00084 639.093 364.235)"/><path d="M-114.836-308.519C-114.836-297.077-124.112-287.801-135.554-287.801-146.997-287.801-156.273-297.077-156.273-308.519-156.273-319.962-146.997-329.238-135.554-329.238-124.112-329.238-114.836-319.962-114.836-308.519Z" fill="#00B2C2" fill-opacity="0.6" transform="matrix(1 0 0 1.00084 639.093 364.235)"/><path d="M-112.863-308.519C-112.863-295.987-123.022-285.828-135.554-285.828-148.087-285.828-158.246-295.987-158.246-308.519-158.246-321.052-148.087-331.211-135.554-331.211-123.022-331.211-112.863-321.052-112.863-308.519Z" stroke="#CCCCCC" stroke-width="3.9464" stroke-opacity="0.6" fill="none" transform="matrix(1 0 0 1.00084 639.093 364.235)"/><path d="M-313.786-64.6276C-313.786-53.1851-323.062-43.909-334.505-43.909-345.948-43.909-355.224-53.1851-355.224-64.6276-355.224-76.0702-345.948-85.3462-334.505-85.3462-323.062-85.3462-313.786-76.0702-313.786-64.6276Z" fill="#00B2C2" fill-opacity="0.6" transform="matrix(1 0 0 1.00084 639.093 364.235)"/><path d="M-311.813-64.6276C-311.813-52.0953-321.973-41.9358-334.505-41.9358-347.037-41.9358-357.197-52.0953-357.197-64.6276-357.197-77.16-347.037-87.3194-334.505-87.3194-321.973-87.3194-311.813-77.16-311.813-64.6276Z" stroke="#CCCCCC" stroke-width="3.9464" stroke-opacity="0.6" fill="none" transform="matrix(1 0 0 1.00084 639.093 364.235)"/><path d="M-241.291-209.414C-241.291-197.971-250.567-188.695-262.01-188.695-273.453-188.695-282.729-197.971-282.729-209.414-282.729-220.857-273.453-230.133-262.01-230.133-250.567-230.133-241.291-220.857-241.291-209.414Z" fill="#B29F18" fill-opacity="0.6" transform="matrix(1 0 0 1.00084 639.093 364.235)"/><path d="M-239.318-209.414C-239.318-196.882-249.478-186.722-262.01-186.722-274.542-186.722-284.702-196.882-284.702-209.414-284.702-221.946-274.542-232.106-262.01-232.106-249.478-232.106-239.318-221.946-239.318-209.414Z" stroke="#CCCCCC" stroke-width="3.9464" stroke-opacity="0.6" fill="none" transform="matrix(1 0 0 1.00084 639.093 364.235)"/><path d="M-303.018 97.304C-303.018 108.747-312.294 118.023-323.737 118.023-335.179 118.023-344.455 108.747-344.455 97.304-344.455 85.8615-335.179 76.5855-323.737 76.5855-312.294 76.5855-303.018 85.8615-303.018 97.304Z" fill="#B29F18" fill-opacity="0.6" transform="matrix(1 0 0 1.00084 639.093 364.235)"/><path d="M-301.045 97.304C-301.045 109.836-311.204 119.996-323.737 119.996-336.269 119.996-346.428 109.836-346.428 97.304-346.428 84.7717-336.269 74.6123-323.737 74.6123-311.204 74.6123-301.045 84.7717-301.045 97.304Z" stroke="#CCCCCC" stroke-width="3.9464" stroke-opacity="0.6" fill="none" transform="matrix(1 0 0 1.00084 639.093 364.235)"/><path d="M172.803-91.0836C172.803-79.641 163.527-70.365 152.084-70.365 140.642-70.365 131.366-79.641 131.366-91.0836 131.366-102.526 140.642-111.802 152.084-111.802 163.527-111.802 172.803-102.526 172.803-91.0836Z" fill="#00B2C2" fill-opacity="0.6" transform="matrix(1 0 0 1.00084 639.093 364.235)"/><path d="M174.776-91.0836C174.776-78.5513 164.617-68.3918 152.084-68.3918 139.552-68.3918 129.392-78.5513 129.392-91.0836 129.392-103.616 139.552-113.775 152.084-113.775 164.617-113.775 174.776-103.616 174.776-91.0836Z" stroke="#CCCCCC" stroke-width="3.9464" stroke-opacity="0.6" fill="none" transform="matrix(1 0 0 1.00084 639.093 364.235)"/><path d="M19.8605 0.0833011C19.8605 11.5259 10.5845 20.8019-0.858077 20.8019-12.3006 20.8019-21.5767 11.5259-21.5767 0.0833016-21.5767-11.3593-12.3006-20.6353-0.858078-20.6353 10.5845-20.6353 19.8605-11.3593 19.8605 0.0833011Z" fill="#F072B3" fill-opacity="0.6" transform="matrix(1 0 0 1.00084 639.093 364.235)"/><path d="M21.8337 0.0833011C21.8337 12.6156 11.6743 22.7751-0.858077 22.7751-13.3904 22.7751-23.5499 12.6156-23.5499 0.0833015-23.5499-12.449-13.3904-22.6085-0.858078-22.6085 11.6743-22.6085 21.8337-12.449 21.8337 0.0833011Z" stroke="#CCCCCC" stroke-width="3.9464" stroke-opacity="0.6" fill="none" transform="matrix(1 0 0 1.00084 639.093 364.235)"/><path d="M41.604-339.263C41.604-327.821 32.328-318.545 20.8854-318.545 9.44285-318.545 0.166815-327.821 0.166815-339.263 0.166815-350.706 9.44285-359.982 20.8854-359.982 32.328-359.982 41.604-350.706 41.604-339.263Z" fill="#00B2C2" fill-opacity="0.6" transform="matrix(1 0 0 1.00084 639.093 364.235)"/><path d="M43.5772-339.263C43.5772-326.731 33.4177-316.571 20.8854-316.571 8.35308-316.571-1.80638-326.731-1.80638-339.263-1.80638-351.796 8.35308-361.955 20.8854-361.955 33.4177-361.955 43.5772-351.796 43.5772-339.263Z" stroke="#CCCCCC" stroke-width="3.9464" stroke-opacity="0.6" fill="none" transform="matrix(1 0 0 1.00084 639.093 364.235)"/><path d="M207.697 45.7549C207.697 57.1975 198.421 66.4735 186.978 66.4735 175.536 66.4735 166.26 57.1975 166.26 45.7549 166.26 34.3123 175.536 25.0363 186.978 25.0363 198.421 25.0363 207.697 34.3123 207.697 45.7549Z" fill="#00B2C2" fill-opacity="0.6" transform="matrix(1 0 0 1.00084 639.093 364.235)"/><path d="M209.67 45.7549C209.67 58.2872 199.511 68.4467 186.978 68.4467 174.446 68.4467 164.286 58.2872 164.286 45.7549 164.286 33.2226 174.446 23.0631 186.978 23.0631 199.511 23.0631 209.67 33.2226 209.67 45.7549Z" stroke="#CCCCCC" stroke-width="3.9464" stroke-opacity="0.6" fill="none" transform="matrix(1 0 0 1.00084 639.093 364.235)"/><path d="M-80.7952 323.308C-80.7952 334.75-90.0712 344.026-101.514 344.026-112.956 344.026-122.232 334.75-122.232 323.308-122.232 311.865-112.956 302.589-101.514 302.589-90.0712 302.589-80.7952 311.865-80.7952 323.308Z" fill="#00B2C2" fill-opacity="0.6" transform="matrix(1 0 0 1.00084 639.093 364.235)"/><path d="M-78.822 323.308C-78.822 335.84-88.9815 345.999-101.514 345.999-114.046 345.999-124.206 335.84-124.206 323.308-124.206 310.775-114.046 300.616-101.514 300.616-88.9815 300.616-78.822 310.775-78.822 323.308Z" stroke="#CCCCCC" stroke-width="3.9464" stroke-opacity="0.6" fill="none" transform="matrix(1 0 0 1.00084 639.093 364.235)"/><path d="M79.0916 330.354C79.0916 341.797 69.8156 351.073 58.373 351.073 46.9305 351.073 37.6544 341.797 37.6544 330.354 37.6544 318.912 46.9305 309.636 58.373 309.636 69.8156 309.636 79.0916 318.912 79.0916 330.354Z" fill="#F072B3" fill-opacity="0.6" transform="matrix(1 0 0 1.00084 639.093 364.235)"/><path d="M81.0648 330.354C81.0648 342.887 70.9053 353.046 58.373 353.046 45.8407 353.046 35.6812 342.887 35.6812 330.354 35.6812 317.822 45.8407 307.663 58.373 307.663 70.9053 307.663 81.0648 317.822 81.0648 330.354Z" stroke="#CCCCCC" stroke-width="3.9464" stroke-opacity="0.6" fill="none" transform="matrix(1 0 0 1.00084 639.093 364.235)"/><path d="M330.111 142.96C330.111 154.402 320.835 163.679 309.393 163.679 297.95 163.679 288.674 154.402 288.674 142.96 288.674 131.517 297.95 122.241 309.393 122.241 320.835 122.241 330.111 131.517 330.111 142.96Z" fill="#00B2C2" fill-opacity="0.6" transform="matrix(1 0 0 1.00084 639.093 364.235)"/><path d="M332.084 142.96C332.084 155.492 321.925 165.652 309.393 165.652 296.86 165.652 286.701 155.492 286.701 142.96 286.701 130.428 296.86 120.268 309.393 120.268 321.925 120.268 332.084 130.428 332.084 142.96Z" stroke="#CCCCCC" stroke-width="3.9464" stroke-opacity="0.6" fill="none" transform="matrix(1 0 0 1.00084 639.093 364.235)"/></g></g></g><text font-family="Times New Roman,Times New Roman_MSFontService,sans-serif" font-style="italic" font-weight="400" font-size="24" transform="translate(444.073 63)">AOA_amoA</text><text font-family="Times New Roman,Times New Roman_MSFontService,sans-serif" font-style="italic" font-weight="400" font-size="24" transform="translate(716.605 85)">Archaeal 16S</text><text font-family="Times New Roman,Times New Roman_MSFontService,sans-serif" font-style="italic" font-weight="400" font-size="24" transform="translate(851.711 85)">rRNA</text><text font-family="Times New Roman,Times New Roman_MSFontService,sans-serif" font-style="italic" font-weight="400" font-size="24" transform="translate(498.366 551)">Bacterial</text><text font-family="Times New Roman,Times New Roman_MSFontService,sans-serif" font-style="italic" font-weight="400" font-size="24" transform="translate(593.699 551)">16S</text><text font-family="Times New Roman,Times New Roman_MSFontService,sans-serif" font-style="italic" font-weight="400" font-size="24" transform="translate(635.699 551)">rRNA</text><text font-family="Cambria Math,Cambria Math_MSFontService,sans-serif" font-weight="400" font-size="24" transform="translate(355.119 161)">NO</text><text font-family="Cambria Math,Cambria Math_MSFontService,sans-serif" font-weight="400" font-size="18" transform="translate(387.119 167)">2</text><text font-family="Cambria Math,Cambria Math_MSFontService,sans-serif" font-weight="400" font-size="18" transform="translate(387.119 152)">−</text><text font-family="Cambria Math,Cambria Math_MSFontService,sans-serif" font-weight="400" font-size="24" transform="translate(455.935 470)">NH</text><text font-family="Cambria Math,Cambria Math_MSFontService,sans-serif" font-weight="400" font-size="18" transform="translate(488.768 475)">4</text><text font-family="Cambria Math,Cambria Math_MSFontService,sans-serif" font-weight="400" font-size="18" transform="translate(489.528 460)">+</text><text font-family="Times New Roman,Times New Roman_MSFontService,sans-serif" font-weight="400" font-size="24" transform="translate(417.295 331)">Ⅳ</text><text font-family="Times New Roman,Times New Roman_MSFontService,sans-serif" font-weight="400" font-size="24" transform="translate(442.461 331)">-</text><text font-family="Times New Roman,Times New Roman_MSFontService,sans-serif" font-weight="400" font-size="24" transform="translate(450.461 331)">Area</text><text font-family="Times New Roman,Times New Roman_MSFontService,sans-serif" font-weight="400" font-size="24" transform="translate(384.114 613)">TN</text><text font-family="Times New Roman,Times New Roman_MSFontService,sans-serif" font-weight="400" font-size="24" transform="translate(889.373 196)">Ⅴ</text><text font-family="Times New Roman,Times New Roman_MSFontService,sans-serif" font-weight="400" font-size="24" transform="translate(906.706 196)">-</text><text font-family="Times New Roman,Times New Roman_MSFontService,sans-serif" font-weight="400" font-size="24" transform="translate(914.706 196)">Area</text><text font-family="Times New Roman,Times New Roman_MSFontService,sans-serif" font-style="italic" font-weight="400" font-size="24" transform="translate(637.103 31)">nirK</text><text font-family="Times New Roman,Times New Roman_MSFontService,sans-serif" font-weight="400" font-size="24" transform="translate(643.869 187)">Ⅲ</text><text font-family="Times New Roman,Times New Roman_MSFontService,sans-serif" font-weight="400" font-size="24" transform="translate(666.869 187)">-</text><text font-family="Times New Roman,Times New Roman_MSFontService,sans-serif" font-weight="400" font-size="24" transform="translate(674.869 187)">Area</text><text font-family="Times New Roman,Times New Roman_MSFontService,sans-serif" font-weight="400" font-size="24" transform="translate(512.978 218)">Ⅰ</text><text font-family="Times New Roman,Times New Roman_MSFontService,sans-serif" font-weight="400" font-size="24" transform="translate(520.978 218)">-</text><text font-family="Times New Roman,Times New Roman_MSFontService,sans-serif" font-weight="400" font-size="24" transform="translate(528.978 218)">Area</text><text font-family="Times New Roman,Times New Roman_MSFontService,sans-serif" font-weight="400" font-size="24" transform="translate(968.75 350)">T</text><text font-family="Times New Roman,Times New Roman_MSFontService,sans-serif" font-weight="400" font-size="24" transform="translate(828.972 640)">DO</text><text font-family="Times New Roman,Times New Roman_MSFontService,sans-serif" font-weight="400" font-size="24" transform="translate(720.947 525)">pH</text><text font-family="Times New Roman,Times New Roman_MSFontService,sans-serif" font-style="italic" font-weight="400" font-size="24" transform="translate(514.533 696)">hzsA</text><text font-family="Times New Roman,Times New Roman_MSFontService,sans-serif" font-weight="400" font-size="24" transform="translate(670.209 703)">S</text><text font-family="Times New Roman,Times New Roman_MSFontService,sans-serif" font-weight="400" font-size="24" transform="translate(683.543 703)">-</text><text font-family="Times New Roman,Times New Roman_MSFontService,sans-serif" font-weight="400" font-size="24" transform="translate(691.543 703)">TN</text><text font-family="Times New Roman,Times New Roman_MSFontService,sans-serif" font-weight="400" font-size="24" transform="translate(289.321 470)">COD</text><text font-family="Times New Roman,Times New Roman_MSFontService,sans-serif" font-style="italic" font-weight="400" font-size="24" transform="translate(280.089 306)">nxrA</text><text font-family="Times New Roman,Times New Roman_MSFontService,sans-serif" font-weight="400" font-size="24" transform="translate(614.355 372)">S</text><text font-family="Times New Roman,Times New Roman_MSFontService,sans-serif" font-weight="400" font-size="24" transform="translate(627.689 372)">-</text><text font-family="Times New Roman,Times New Roman_MSFontService,sans-serif" font-weight="400" font-size="24" transform="translate(635.689 372)">TP</text><text font-family="Times New Roman,Times New Roman_MSFontService,sans-serif" font-style="italic" font-weight="400" font-size="24" transform="translate(932.79 514)">hzo</text><text font-family="Times New Roman,Times New Roman_MSFontService,sans-serif" font-style="italic" font-weight="400" font-size="24" transform="translate(803.527 418)">norB</text><text font-family="Times New Roman,Times New Roman_MSFontService,sans-serif" font-style="italic" font-weight="400" font-size="24" transform="translate(766.207 280)">napA</text></g></svg>