<svg width="1280" height="720" xmlns="http://www.w3.org/2000/svg" xmlns:xlink="http://www.w3.org/1999/xlink" overflow="hidden"><defs><clipPath id="clip0"><rect x="0" y="0" width="1280" height="720"/></clipPath><clipPath id="clip1"><rect x="285" y="0" width="710" height="720"/></clipPath><clipPath id="clip2"><rect x="285" y="0" width="710" height="720"/></clipPath><clipPath id="clip3"><rect x="285" y="0" width="710" height="720"/></clipPath></defs><g clip-path="url(#clip0)"><rect x="0" y="0" width="1280" height="720" fill="#FFFFFF"/><g clip-path="url(#clip1)"><g clip-path="url(#clip2)"><g clip-path="url(#clip3)"><path d="M-300.599-172.902C-291.756-199.63-272.782-221.824-247.754-234.717" stroke="#B32D3C" stroke-width="2.47313" stroke-linecap="round" fill="none" transform="matrix(1 0 0 1.00001 638.612 360.833)"/><path d="M286.195-100.486C251.375-90.1446 213.787-95.3217 183.059-114.691" stroke="#40CE3E" stroke-width="2.49472" stroke-linecap="round" fill="none" transform="matrix(1 0 0 1.00001 638.612 360.833)"/><path d="M3.54829 205.301C-72.4339 204.294-142.288 163.403-180.364 97.6423" stroke="#02D000" stroke-width="4.7847" stroke-linecap="round" fill="none" transform="matrix(1 0 0 1.00001 638.612 360.833)"/><path d="M7.12061 190.326C-47.6567 153.667-79.9466 91.596-78.5192 25.6993" stroke="#AF1627" stroke-width="3.35279" stroke-linecap="round" fill="none" transform="matrix(1 0 0 1.00001 638.612 360.833)"/><path d="M223.992 221.35C216.768 146.676 249.242 73.6855 309.545 29.0552" stroke="#49CE48" stroke-width="2.83392" stroke-linecap="round" fill="none" transform="matrix(1 0 0 1.00001 638.612 360.833)"/><path d="M88.4002 304.679C-64.8888 253.55-173.676 116.925-189.171-43.9216" stroke="#48CE47" stroke-width="2.75322" stroke-linecap="round" fill="none" transform="matrix(1 0 0 1.00001 638.612 360.833)"/><path d="M105.99 286.473C94.5156 238.465 106.495 187.861 138.275 150.093" stroke="#3FCE3E" stroke-width="1.94971" stroke-linecap="round" fill="none" transform="matrix(1 0 0 1.00001 638.612 360.833)"/><path d="M-46.3786 334.67C-163.327 326.082-265.33 252.022-309.706 143.48" stroke="#B12636" stroke-width="0.499609" stroke-linecap="round" fill="none" transform="matrix(1 0 0 1.00001 638.612 360.833)"/><path d="M-160.531 280.425C-204.444 230.951-220.058 162.481-201.933 98.8606" stroke="#0ECF0C" stroke-width="4.37445" stroke-linecap="round" fill="none" transform="matrix(1 0 0 1.00001 638.612 360.833)"/><path d="M-168.126 296.151C-194.228 289.292-216.681 272.636-230.817 249.646" stroke="#B32C3C" stroke-width="3.50094" stroke-linecap="round" fill="none" transform="matrix(1 0 0 1.00001 638.612 360.833)"/><path d="M-121.529 156.025C-149.116 146.148-171.63 125.685-184.09 99.1642" stroke="#1ACF18" stroke-width="4.99609" stroke-linecap="round" fill="none" transform="matrix(1 0 0 1.00001 638.612 360.833)"/><path d="M-88.2585-319.918C22.5842-359.454 146.256-332.79 230.961-251.093" stroke="#AC0014" stroke-width="4.72175" stroke-linecap="round" fill="none" transform="matrix(1 0 0 1.00001 638.612 360.833)"/><path d="M71.5796-69.3256C111.092-69.4648 148.63-52.0703 174.068-21.835" stroke="#B22838" stroke-width="3.4124" stroke-linecap="round" fill="none" transform="matrix(1 0 0 1.00001 638.612 360.833)"/><path d="M38.9935-93.3115C29.517-165.948 58.6413-238.263 115.815-284.057" stroke="#B01A2B" stroke-width="3.05111" stroke-linecap="round" fill="none" transform="matrix(1 0 0 1.00001 638.612 360.833)"/><path d="M20.9728-52.0114C-38.5744-20.8022-109.961-22.2839-168.162-55.9372" stroke="#49CE48" stroke-width="3.39405" stroke-linecap="round" fill="none" transform="matrix(1 0 0 1.00001 638.612 360.833)"/><path d="M71.6607-64.3904C172.491-51.8419 258.065 15.5451 293.907 110.622" stroke="#42CE41" stroke-width="3.0949" stroke-linecap="round" fill="none" transform="matrix(1 0 0 1.00001 638.612 360.833)"/><path d="M26.5252-87.2813C-22.3452-152.172-32.9369-238.186-1.26891-312.993" stroke="#2DCF2B" stroke-width="4.18714" stroke-linecap="round" fill="none" transform="matrix(1 0 0 1.00001 638.612 360.833)"/><path d="M58.4545-89.9041C76.9989-113.568 104.287-128.771 134.167-132.089" stroke="#2CCF2B" stroke-width="4.20876" stroke-linecap="round" fill="none" transform="matrix(1 0 0 1.00001 638.612 360.833)"/><path d="M68.6648-53.8009C123.521-20.1571 157.56 39.0228 159.058 103.357" stroke="#40CE3F" stroke-width="3.28098" stroke-linecap="round" fill="none" transform="matrix(1 0 0 1.00001 638.612 360.833)"/><path d="M12.0729-180.942C-10.2648-162.454-39.026-153.586-67.8961-156.285" stroke="#35CE34" stroke-width="3.83592" stroke-linecap="round" fill="none" transform="matrix(1 0 0 1.00001 638.612 360.833)"/><path d="M18.6111-176.391C-19.1713-111.372-88.303-70.9505-163.495-69.9123" stroke="#38CE36" stroke-width="3.72668" stroke-linecap="round" fill="none" transform="matrix(1 0 0 1.00001 638.612 360.833)"/><path d="M13.8381-222.45C-2.59041-249.284-7.31294-281.675 0.76994-312.083" stroke="#47CE46" stroke-width="2.63633" stroke-linecap="round" fill="none" transform="matrix(1 0 0 1.00001 638.612 360.833)"/><path d="M53.3457-185.264C141.793-117.372 184.573-5.52977 164.011 104.058" stroke="#3CCE3A" stroke-width="3.52518" stroke-linecap="round" fill="none" transform="matrix(1 0 0 1.00001 638.612 360.833)"/><path d="M10.5521 69.2737C-68.7628 67.118-140.983 23.0537-179.181-46.4902" stroke="#B22737" stroke-width="3.16774" stroke-linecap="round" fill="none" transform="matrix(1 0 0 1.00001 638.612 360.833)"/><path d="M10.5487 67.5008C-18.9582 62.9263-45.394 46.6988-62.8289 22.4582" stroke="#AC0115" stroke-width="4.6724" stroke-linecap="round" fill="none" transform="matrix(1 0 0 1.00001 638.612 360.833)"/><path d="M65.359 67.2134C95.6124 69.6767 123.588 84.2569 142.936 107.645" stroke="#B22C3C" stroke-width="2.31724" stroke-linecap="round" fill="none" transform="matrix(1 0 0 1.00001 638.612 360.833)"/><path d="M-302.73-13.9124C-262.38-8.80204-226.437 14.1057-204.766 48.5239" stroke="#17CF15" stroke-width="4.22519" stroke-linecap="round" fill="none" transform="matrix(1 0 0 1.00001 638.612 360.833)"/><path d="M-286.053-145.981C-286.053-135.062-294.904-126.21-305.824-126.21-316.743-126.21-325.595-135.062-325.595-145.981-325.595-156.9-316.743-165.752-305.824-165.752-294.904-165.752-286.053-156.9-286.053-145.981Z" fill="#00B2C2" fill-opacity="0.6" transform="matrix(1 0 0 1.00001 638.612 360.833)"/><path d="M-284.17-145.981C-284.17-134.022-293.864-124.327-305.824-124.327-317.783-124.327-327.478-134.022-327.478-145.981-327.478-157.94-317.783-167.635-305.824-167.635-293.864-167.635-284.17-157.94-284.17-145.981Z" stroke="#CCCCCC" stroke-width="3.76594" stroke-opacity="0.6" fill="none" transform="matrix(1 0 0 1.00001 638.612 360.833)"/><path d="M-202.202-244.065C-202.202-233.145-211.054-224.294-221.973-224.294-232.893-224.294-241.745-233.145-241.745-244.065-241.745-254.984-232.893-263.836-221.973-263.836-211.054-263.836-202.202-254.984-202.202-244.065Z" fill="#F072B3" fill-opacity="0.6" transform="matrix(1 0 0 1.00001 638.612 360.833)"/><path d="M-200.319-244.065C-200.319-232.106-210.014-222.411-221.973-222.411-233.933-222.411-243.628-232.106-243.628-244.065-243.628-256.024-233.933-265.719-221.973-265.719-210.014-265.719-200.319-256.024-200.319-244.065Z" stroke="#CCCCCC" stroke-width="3.76594" stroke-opacity="0.6" fill="none" transform="matrix(1 0 0 1.00001 638.612 360.833)"/><path d="M331.25-111.106C331.25-100.187 322.398-91.3353 311.479-91.3353 300.559-91.3353 291.707-100.187 291.707-111.106 291.707-122.026 300.559-130.878 311.479-130.878 322.398-130.878 331.25-122.026 331.25-111.106Z" fill="#00B2C2" fill-opacity="0.6" transform="matrix(1 0 0 1.00001 638.612 360.833)"/><path d="M333.133-111.106C333.133-99.1472 323.438-89.4523 311.479-89.4523 299.519-89.4523 289.824-99.1472 289.824-111.106 289.824-123.066 299.519-132.761 311.479-132.761 323.438-132.761 333.133-123.066 333.133-111.106Z" stroke="#CCCCCC" stroke-width="3.76594" stroke-opacity="0.6" fill="none" transform="matrix(1 0 0 1.00001 638.612 360.833)"/><path d="M-222.231 224.608C-222.231 235.527-231.083 244.379-242.002 244.379-252.922 244.379-261.774 235.527-261.774 224.608-261.774 213.688-252.922 204.836-242.002 204.836-231.083 204.836-222.231 213.688-222.231 224.608Z" fill="#B29F18" fill-opacity="0.6" transform="matrix(1 0 0 1.00001 638.612 360.833)"/><path d="M-220.348 224.608C-220.348 236.567-230.043 246.262-242.002 246.262-253.962 246.262-263.657 236.567-263.657 224.608-263.657 212.648-253.962 202.953-242.002 202.953-230.043 202.953-220.348 212.648-220.348 224.608Z" stroke="#CCCCCC" stroke-width="3.76594" stroke-opacity="0.6" fill="none" transform="matrix(1 0 0 1.00001 638.612 360.833)"/><path d="M181.36-131.751C181.36-120.832 172.508-111.98 161.588-111.98 150.669-111.98 141.817-120.832 141.817-131.751 141.817-142.67 150.669-151.522 161.588-151.522 172.508-151.522 181.36-142.67 181.36-131.751Z" fill="#B29F18" fill-opacity="0.6" transform="matrix(1 0 0 1.00001 638.612 360.833)"/><path d="M183.243-131.751C183.243-119.792 173.548-110.097 161.588-110.097 149.629-110.097 139.934-119.792 139.934-131.751 139.934-143.71 149.629-153.405 161.588-153.405 173.548-153.405 183.243-143.71 183.243-131.751Z" stroke="#CCCCCC" stroke-width="3.76594" stroke-opacity="0.6" fill="none" transform="matrix(1 0 0 1.00001 638.612 360.833)"/><path d="M50.7077 203.921C50.7077 214.84 41.8559 223.692 30.9365 223.692 20.0172 223.692 11.1654 214.84 11.1654 203.921 11.1654 193.002 20.0172 184.15 30.9365 184.15 41.8559 184.15 50.7077 193.002 50.7077 203.921Z" fill="#00B2C2" fill-opacity="0.6" transform="matrix(1 0 0 1.00001 638.612 360.833)"/><path d="M52.5907 203.921C52.5907 215.88 42.8958 225.575 30.9366 225.575 18.9773 225.575 9.28238 215.88 9.28238 203.921 9.28238 191.962 18.9773 182.267 30.9366 182.267 42.8958 182.267 52.5907 191.962 52.5907 203.921Z" stroke="#CCCCCC" stroke-width="3.76594" stroke-opacity="0.6" fill="none" transform="matrix(1 0 0 1.00001 638.612 360.833)"/><path d="M-172.799 73.0854C-172.799 84.0047-181.651 92.8566-192.57 92.8566-203.489 92.8566-212.341 84.0047-212.341 73.0854-212.341 62.1661-203.489 53.3142-192.57 53.3142-181.651 53.3142-172.799 62.1661-172.799 73.0854Z" fill="#B29F18" fill-opacity="0.6" transform="matrix(1 0 0 1.00001 638.612 360.833)"/><path d="M-170.916 73.0854C-170.916 85.0447-180.611 94.7396-192.57 94.7396-204.529 94.7396-214.224 85.0447-214.224 73.0854-214.224 61.1261-204.529 51.4312-192.57 51.4312-180.611 51.4312-170.916 61.1261-170.916 73.0854Z" stroke="#CCCCCC" stroke-width="3.76594" stroke-opacity="0.6" fill="none" transform="matrix(1 0 0 1.00001 638.612 360.833)"/><path d="M-56.2085-1.60587C-56.2085 9.31346-65.0603 18.1653-75.9796 18.1653-86.899 18.1653-95.7508 9.31346-95.7508-1.60587-95.7508-12.5252-86.899-21.3771-75.9796-21.3771-65.0603-21.3771-56.2085-12.5252-56.2085-1.60587Z" fill="#B29F18" fill-opacity="0.6" transform="matrix(1 0 0 1.00001 638.612 360.833)"/><path d="M-54.3255-1.60587C-54.3255 10.3534-64.0204 20.0483-75.9796 20.0483-87.9389 20.0483-97.6338 10.3534-97.6338-1.60587-97.6338-13.5651-87.9389-23.26-75.9796-23.26-64.0204-23.26-54.3255-13.5651-54.3255-1.60587Z" stroke="#CCCCCC" stroke-width="3.76594" stroke-opacity="0.6" fill="none" transform="matrix(1 0 0 1.00001 638.612 360.833)"/><path d="M248.15 248.419C248.15 259.339 239.298 268.191 228.379 268.191 217.46 268.191 208.608 259.339 208.608 248.419 208.608 237.5 217.46 228.648 228.379 228.648 239.298 228.648 248.15 237.5 248.15 248.419Z" fill="#00B2C2" fill-opacity="0.6" transform="matrix(1 0 0 1.00001 638.612 360.833)"/><path d="M250.033 248.419C250.033 260.379 240.338 270.074 228.379 270.074 216.42 270.074 206.725 260.379 206.725 248.419 206.725 236.46 216.42 226.765 228.379 226.765 240.338 226.765 250.033 236.46 250.033 248.419Z" stroke="#CCCCCC" stroke-width="3.76594" stroke-opacity="0.6" fill="none" transform="matrix(1 0 0 1.00001 638.612 360.833)"/><path d="M352.36 14.1898C352.36 25.1091 343.509 33.961 332.589 33.961 321.67 33.961 312.818 25.1091 312.818 14.1898 312.818 3.27043 321.67-5.58144 332.589-5.58144 343.509-5.58144 352.36 3.27043 352.36 14.1898Z" fill="#F072B3" fill-opacity="0.6" transform="matrix(1 0 0 1.00001 638.612 360.833)"/><path d="M354.243 14.1898C354.243 26.149 344.548 35.8439 332.589 35.8439 320.63 35.8439 310.935 26.149 310.935 14.1898 310.935 2.23049 320.63-7.46441 332.589-7.46441 344.548-7.46441 354.243 2.23049 354.243 14.1898Z" stroke="#CCCCCC" stroke-width="3.76594" stroke-opacity="0.6" fill="none" transform="matrix(1 0 0 1.00001 638.612 360.833)"/><path d="M134.462 312.479C134.462 323.398 125.61 332.25 114.691 332.25 103.771 332.25 94.9195 323.398 94.9195 312.479 94.9195 301.56 103.771 292.708 114.691 292.708 125.61 292.708 134.462 301.559 134.462 312.479Z" fill="#00B2C2" fill-opacity="0.6" transform="matrix(1 0 0 1.00001 638.612 360.833)"/><path d="M136.345 312.479C136.345 324.438 126.65 334.133 114.691 334.133 102.731 334.133 93.0365 324.438 93.0365 312.479 93.0365 300.52 102.731 290.825 114.691 290.825 126.65 290.825 136.345 300.52 136.345 312.479Z" stroke="#CCCCCC" stroke-width="3.76594" stroke-opacity="0.6" fill="none" transform="matrix(1 0 0 1.00001 638.612 360.833)"/><path d="M-171.112-71.2911C-171.112-60.3717-179.964-51.5199-190.884-51.5199-201.803-51.5199-210.655-60.3717-210.655-71.2911-210.655-82.2104-201.803-91.0623-190.884-91.0623-179.964-91.0623-171.112-82.2104-171.112-71.2911Z" fill="#B29F18" fill-opacity="0.6" transform="matrix(1 0 0 1.00001 638.612 360.833)"/><path d="M-169.229-71.2911C-169.229-59.3318-178.924-49.6369-190.884-49.6369-202.843-49.6369-212.538-59.3318-212.538-71.2911-212.538-83.2503-202.843-92.9452-190.884-92.9452-178.924-92.9452-169.229-83.2503-169.229-71.2911Z" stroke="#CCCCCC" stroke-width="3.76594" stroke-opacity="0.6" fill="none" transform="matrix(1 0 0 1.00001 638.612 360.833)"/><path d="M177.482 130.747C177.482 141.666 168.63 150.518 157.711 150.518 146.791 150.518 137.94 141.666 137.94 130.747 137.94 119.828 146.791 110.976 157.711 110.976 168.63 110.976 177.482 119.828 177.482 130.747Z" fill="#B29F18" fill-opacity="0.6" transform="matrix(1 0 0 1.00001 638.612 360.833)"/><path d="M179.365 130.747C179.365 142.706 169.67 152.401 157.711 152.401 145.752 152.401 136.057 142.706 136.057 130.747 136.057 118.788 145.752 109.093 157.711 109.093 169.67 109.093 179.365 118.788 179.365 130.747Z" stroke="#CCCCCC" stroke-width="3.76594" stroke-opacity="0.6" fill="none" transform="matrix(1 0 0 1.00001 638.612 360.833)"/><path d="M0.804136 335.462C0.804136 346.381-8.04773 355.233-18.9671 355.233-29.8864 355.233-38.7383 346.381-38.7383 335.462-38.7383 324.543-29.8864 315.691-18.9671 315.691-8.04773 315.691 0.804136 324.543 0.804136 335.462Z" fill="#00B2C2" fill-opacity="0.6" transform="matrix(1 0 0 1.00001 638.612 360.833)"/><path d="M2.68711 335.462C2.68711 347.421-7.00779 357.116-18.9671 357.116-30.9263 357.116-40.6212 347.421-40.6212 335.462-40.6212 323.503-30.9263 313.808-18.9671 313.808-7.00779 313.808 2.68711 323.503 2.68711 335.462Z" stroke="#CCCCCC" stroke-width="3.76594" stroke-opacity="0.6" fill="none" transform="matrix(1 0 0 1.00001 638.612 360.833)"/><path d="M-299.175 117.661C-299.175 128.58-308.027 137.432-318.946 137.432-329.866 137.432-338.718 128.58-338.718 117.661-338.718 106.741-329.866 97.8895-318.946 97.8895-308.027 97.8895-299.175 106.741-299.175 117.661Z" fill="#F072B3" fill-opacity="0.6" transform="matrix(1 0 0 1.00001 638.612 360.833)"/><path d="M-297.292 117.661C-297.292 129.62-306.987 139.315-318.946 139.315-330.906 139.315-340.6 129.62-340.6 117.661-340.6 105.701-330.906 96.0065-318.946 96.0065-306.987 96.0065-297.292 105.701-297.292 117.661Z" stroke="#CCCCCC" stroke-width="3.76594" stroke-opacity="0.6" fill="none" transform="matrix(1 0 0 1.00001 638.612 360.833)"/><path d="M-121.149 299.593C-121.149 310.513-130.001 319.364-140.92 319.364-151.839 319.364-160.691 310.513-160.691 299.593-160.691 288.674-151.839 279.822-140.92 279.822-130.001 279.822-121.149 288.674-121.149 299.593Z" fill="#00B2C2" fill-opacity="0.6" transform="matrix(1 0 0 1.00001 638.612 360.833)"/><path d="M-119.266 299.593C-119.266 311.552-128.961 321.247-140.92 321.247-152.879 321.247-162.574 311.552-162.574 299.593-162.574 287.634-152.879 277.939-140.92 277.939-128.961 277.939-119.266 287.634-119.266 299.593Z" stroke="#CCCCCC" stroke-width="3.76594" stroke-opacity="0.6" fill="none" transform="matrix(1 0 0 1.00001 638.612 360.833)"/><path d="M-74.9904 161.984C-74.9904 172.903-83.8423 181.755-94.7616 181.755-105.681 181.755-114.533 172.903-114.533 161.984-114.533 151.065-105.681 142.213-94.7616 142.213-83.8422 142.213-74.9904 151.065-74.9904 161.984Z" fill="#00B2C2" fill-opacity="0.6" transform="matrix(1 0 0 1.00001 638.612 360.833)"/><path d="M-73.1074 161.984C-73.1074 173.943-82.8023 183.638-94.7616 183.638-106.721 183.638-116.416 173.943-116.416 161.984-116.416 150.025-106.721 140.33-94.7616 140.33-82.8023 140.33-73.1074 150.025-73.1074 161.984Z" stroke="#CCCCCC" stroke-width="3.76594" stroke-opacity="0.6" fill="none" transform="matrix(1 0 0 1.00001 638.612 360.833)"/><path d="M-93.8834-309.572C-93.8834-298.652-102.735-289.8-113.655-289.8-124.574-289.8-133.426-298.652-133.426-309.572-133.426-320.491-124.574-329.343-113.655-329.343-102.735-329.343-93.8834-320.491-93.8834-309.572Z" fill="#00B2C2" fill-opacity="0.6" transform="matrix(1 0 0 1.00001 638.612 360.833)"/><path d="M-92.0005-309.572C-92.0005-297.612-101.695-287.917-113.655-287.917-125.614-287.917-135.309-297.612-135.309-309.572-135.309-321.531-125.614-331.226-113.655-331.226-101.695-331.226-92.0005-321.531-92.0005-309.572Z" stroke="#CCCCCC" stroke-width="3.76594" stroke-opacity="0.6" fill="none" transform="matrix(1 0 0 1.00001 638.612 360.833)"/><path d="M269.608-231.201C269.608-220.282 260.756-211.43 249.837-211.43 238.918-211.43 230.066-220.282 230.066-231.201 230.066-242.12 238.918-250.972 249.837-250.972 260.756-250.972 269.608-242.12 269.608-231.201Z" fill="#F072B3" fill-opacity="0.6" transform="matrix(1 0 0 1.00001 638.612 360.833)"/><path d="M271.491-231.201C271.491-219.242 261.796-209.547 249.837-209.547 237.878-209.547 228.183-219.242 228.183-231.201 228.183-243.16 237.878-252.855 249.837-252.855 261.796-252.855 271.491-243.16 271.491-231.201Z" stroke="#CCCCCC" stroke-width="3.76594" stroke-opacity="0.6" fill="none" transform="matrix(1 0 0 1.00001 638.612 360.833)"/><path d="M64.0833-66.4092C64.0833-55.4898 55.2315-46.638 44.3121-46.638 33.3928-46.638 24.5409-55.4898 24.5409-66.4092 24.5409-77.3285 33.3928-86.1804 44.3121-86.1804 55.2315-86.1804 64.0833-77.3285 64.0833-66.4092Z" fill="#00B2C2" fill-opacity="0.6" transform="matrix(1 0 0 1.00001 638.612 360.833)"/><path d="M65.9663-66.4092C65.9663-54.4499 56.2714-44.755 44.3121-44.755 32.3529-44.755 22.658-54.4499 22.658-66.4092 22.658-78.3684 32.3529-88.0633 44.3121-88.0633 56.2714-88.0633 65.9663-78.3684 65.9663-66.4092Z" stroke="#CCCCCC" stroke-width="3.76594" stroke-opacity="0.6" fill="none" transform="matrix(1 0 0 1.00001 638.612 360.833)"/><path d="M209.241 0.853723C209.241 11.7731 200.39 20.6249 189.47 20.6249 178.551 20.6249 169.699 11.7731 169.699 0.853723 169.699-10.0656 178.551-18.9175 189.47-18.9175 200.39-18.9175 209.241-10.0656 209.241 0.853723Z" fill="#F072B3" fill-opacity="0.6" transform="matrix(1 0 0 1.00001 638.612 360.833)"/><path d="M211.124 0.853723C211.124 12.813 201.429 22.5079 189.47 22.5079 177.511 22.5079 167.816 12.813 167.816 0.853723 167.816-11.1055 177.511-20.8004 189.47-20.8004 201.429-20.8004 211.124-11.1055 211.124 0.853723Z" stroke="#CCCCCC" stroke-width="3.76594" stroke-opacity="0.6" fill="none" transform="matrix(1 0 0 1.00001 638.612 360.833)"/><path d="M158.065-299.764C158.065-288.845 149.213-279.993 138.294-279.993 127.374-279.993 118.523-288.845 118.523-299.764 118.523-310.684 127.374-319.535 138.294-319.535 149.213-319.535 158.065-310.684 158.065-299.764Z" fill="#F072B3" fill-opacity="0.6" transform="matrix(1 0 0 1.00001 638.612 360.833)"/><path d="M159.948-299.764C159.948-287.805 150.253-278.11 138.294-278.11 126.334-278.11 116.64-287.805 116.64-299.764 116.64-311.724 126.334-321.418 138.294-321.418 150.253-321.418 159.948-311.724 159.948-299.764Z" stroke="#CCCCCC" stroke-width="3.76594" stroke-opacity="0.6" fill="none" transform="matrix(1 0 0 1.00001 638.612 360.833)"/><path d="M322.053 136.734C322.053 147.654 313.201 156.506 302.282 156.506 291.363 156.506 282.511 147.654 282.511 136.734 282.511 125.815 291.363 116.963 302.282 116.963 313.201 116.963 322.053 125.815 322.053 136.734Z" fill="#B29F18" fill-opacity="0.6" transform="matrix(1 0 0 1.00001 638.612 360.833)"/><path d="M323.936 136.734C323.936 148.694 314.241 158.389 302.282 158.389 290.323 158.389 280.628 148.694 280.628 136.734 280.628 124.775 290.323 115.08 302.282 115.08 314.241 115.08 323.936 124.775 323.936 136.734Z" stroke="#CCCCCC" stroke-width="3.76594" stroke-opacity="0.6" fill="none" transform="matrix(1 0 0 1.00001 638.612 360.833)"/><path d="M30.6942-337.557C30.6942-326.638 21.8424-317.786 10.923-317.786 0.00369418-317.786-8.84817-326.638-8.84817-337.557-8.84817-348.476 0.00369409-357.328 10.923-357.328 21.8424-357.328 30.6942-348.476 30.6942-337.557Z" fill="#B29F18" fill-opacity="0.6" transform="matrix(1 0 0 1.00001 638.612 360.833)"/><path d="M32.5772-337.557C32.5772-325.598 22.8823-315.903 10.923-315.903-1.03624-315.903-10.7311-325.598-10.7311-337.557-10.7311-349.516-1.03624-359.211 10.923-359.211 22.8823-359.211 32.5772-349.516 32.5772-337.557Z" stroke="#CCCCCC" stroke-width="3.76594" stroke-opacity="0.6" fill="none" transform="matrix(1 0 0 1.00001 638.612 360.833)"/><path d="M50.6132-200.935C50.6132-190.016 41.7613-181.164 30.842-181.164 19.9227-181.164 11.0708-190.016 11.0708-200.935 11.0708-211.855 19.9227-220.707 30.842-220.707 41.7613-220.707 50.6132-211.855 50.6132-200.935Z" fill="#00B2C2" fill-opacity="0.6" transform="matrix(1 0 0 1.00001 638.612 360.833)"/><path d="M52.4962-200.935C52.4962-188.976 42.8013-179.281 30.842-179.281 18.8827-179.281 9.18784-188.976 9.18784-200.935 9.18784-212.895 18.8827-222.59 30.842-222.59 42.8013-222.59 52.4962-212.895 52.4962-200.935Z" stroke="#CCCCCC" stroke-width="3.76594" stroke-opacity="0.6" fill="none" transform="matrix(1 0 0 1.00001 638.612 360.833)"/><path d="M-74.8941-162.237C-74.8941-151.318-83.7459-142.466-94.6653-142.466-105.585-142.466-114.436-151.318-114.436-162.237-114.436-173.157-105.585-182.009-94.6653-182.009-83.7459-182.009-74.8941-173.157-74.8941-162.237Z" fill="#F072B3" fill-opacity="0.6" transform="matrix(1 0 0 1.00001 638.612 360.833)"/><path d="M-73.0111-162.237C-73.0111-150.278-82.706-140.583-94.6652-140.583-106.625-140.583-116.319-150.278-116.319-162.237-116.319-174.197-106.625-183.891-94.6652-183.891-82.706-183.891-73.0111-174.197-73.0111-162.237Z" stroke="#CCCCCC" stroke-width="3.76594" stroke-opacity="0.6" fill="none" transform="matrix(1 0 0 1.00001 638.612 360.833)"/><path d="M57.7302 68.3349C57.7302 79.2542 48.8783 88.1061 37.959 88.1061 27.0397 88.1061 18.1878 79.2542 18.1878 68.3349 18.1878 57.4156 27.0397 48.5637 37.959 48.5637 48.8783 48.5637 57.7302 57.4156 57.7302 68.3349Z" fill="#00B2C2" fill-opacity="0.6" transform="matrix(1 0 0 1.00001 638.612 360.833)"/><path d="M59.6132 68.3349C59.6132 80.2941 49.9183 89.989 37.959 89.989 25.9997 89.989 16.3048 80.2941 16.3048 68.3349 16.3048 56.3756 25.9997 46.6807 37.959 46.6807 49.9183 46.6807 59.6132 56.3756 59.6132 68.3349Z" stroke="#CCCCCC" stroke-width="3.76594" stroke-opacity="0.6" fill="none" transform="matrix(1 0 0 1.00001 638.612 360.833)"/><path d="M-310.374-14.5965C-310.374-3.6772-319.225 5.17467-330.145 5.17467-341.064 5.17467-349.916-3.6772-349.916-14.5965-349.916-25.5159-341.064-34.3677-330.145-34.3677-319.225-34.3677-310.374-25.5159-310.374-14.5965Z" fill="#00B2C2" fill-opacity="0.6" transform="matrix(1 0 0 1.00001 638.612 360.833)"/><path d="M-308.491-14.5965C-308.491-2.63726-318.186 7.05764-330.145 7.05764-342.104 7.05764-351.799-2.63726-351.799-14.5965-351.799-26.5558-342.104-36.2507-330.145-36.2507-318.186-36.2507-308.491-26.5558-308.491-14.5965Z" stroke="#CCCCCC" stroke-width="3.76594" stroke-opacity="0.6" fill="none" transform="matrix(1 0 0 1.00001 638.612 360.833)"/></g></g></g><text font-family="Times New Roman,Times New Roman_MSFontService,sans-serif" font-weight="400" font-size="24" transform="translate(430.936 298)">DO</text><text font-family="Times New Roman,Times New Roman_MSFontService,sans-serif" font-weight="400" font-size="24" transform="translate(790.13 367)">Ⅲ</text><text font-family="Times New Roman,Times New Roman_MSFontService,sans-serif" font-weight="400" font-size="24" transform="translate(813.13 367)">-</text><text font-family="Times New Roman,Times New Roman_MSFontService,sans-serif" font-weight="400" font-size="24" transform="translate(821.13 367)">Area</text><text font-family="Times New Roman,Times New Roman_MSFontService,sans-serif" font-weight="400" font-size="24" transform="translate(289.601 486)">Ⅰ</text><text font-family="Times New Roman,Times New Roman_MSFontService,sans-serif" font-weight="400" font-size="24" transform="translate(297.601 486)">-</text><text font-family="Times New Roman,Times New Roman_MSFontService,sans-serif" font-weight="400" font-size="24" transform="translate(305.601 486)">Area</text><text font-family="Times New Roman,Times New Roman_MSFontService,sans-serif" font-style="italic" font-weight="400" font-size="24" transform="translate(611.61 572)">AOA_amoA</text><text font-family="Times New Roman,Times New Roman_MSFontService,sans-serif" font-style="italic" font-weight="400" font-size="24" transform="translate(908.999 243)">Archaeal</text><text font-family="Times New Roman,Times New Roman_MSFontService,sans-serif" font-style="italic" font-weight="400" font-size="24" transform="translate(904.219 272)">16S</text><text font-family="Times New Roman,Times New Roman_MSFontService,sans-serif" font-style="italic" font-weight="400" font-size="24" transform="translate(946.219 272)">rRNA</text><text font-family="Times New Roman,Times New Roman_MSFontService,sans-serif" font-style="italic" font-weight="400" font-size="24" transform="translate(290.432 206)">Bacterial</text><text font-family="Times New Roman,Times New Roman_MSFontService,sans-serif" font-style="italic" font-weight="400" font-size="24" transform="translate(286.765 235)">16S rRNA</text><text font-family="Times New Roman,Times New Roman_MSFontService,sans-serif" font-style="italic" font-weight="400" font-size="24" transform="translate(660.041 435)">hzo</text><text font-family="Times New Roman,Times New Roman_MSFontService,sans-serif" font-style="italic" font-weight="400" font-size="24" transform="translate(807.525 616)">AOB_amoA</text><text font-family="Cambria Math,Cambria Math_MSFontService,sans-serif" font-weight="400" font-size="24" transform="translate(918.617 505)">NO</text><text font-family="Cambria Math,Cambria Math_MSFontService,sans-serif" font-weight="400" font-size="18" transform="translate(950.617 510)">2</text><text font-family="Cambria Math,Cambria Math_MSFontService,sans-serif" font-weight="400" font-size="18" transform="translate(950.617 495)">−</text><text font-family="Cambria Math,Cambria Math_MSFontService,sans-serif" font-weight="400" font-size="24" transform="translate(778.051 238)">NH</text><text font-family="Cambria Math,Cambria Math_MSFontService,sans-serif" font-weight="400" font-size="18" transform="translate(810.884 243)">4</text><text font-family="Cambria Math,Cambria Math_MSFontService,sans-serif" font-weight="400" font-size="18" transform="translate(811.644 228)">+</text><text font-family="Times New Roman,Times New Roman_MSFontService,sans-serif" font-weight="400" font-size="24" transform="translate(932.116 383)">Ⅳ</text><text font-family="Times New Roman,Times New Roman_MSFontService,sans-serif" font-weight="400" font-size="24" transform="translate(957.283 383)">-</text><text font-family="Times New Roman,Times New Roman_MSFontService,sans-serif" font-weight="400" font-size="24" transform="translate(965.283 383)">Area</text><text font-family="Times New Roman,Times New Roman_MSFontService,sans-serif" font-style="italic" font-weight="400" font-size="24" transform="translate(727.28 681)">narG</text><text font-family="Times New Roman,Times New Roman_MSFontService,sans-serif" font-style="italic" font-weight="400" font-size="24" transform="translate(594.777 703)">napA</text><text font-family="Times New Roman,Times New Roman_MSFontService,sans-serif" font-style="italic" font-weight="400" font-size="24" transform="translate(475.109 668)">nirK</text><text font-family="Times New Roman,Times New Roman_MSFontService,sans-serif" font-style="italic" font-weight="400" font-size="24" transform="translate(518.347 531)">nosZ</text><text font-family="Times New Roman,Times New Roman_MSFontService,sans-serif" font-weight="400" font-size="24" transform="translate(431.382 440)">pH</text><text font-family="Times New Roman,Times New Roman_MSFontService,sans-serif" font-weight="400" font-size="24" transform="translate(379.794 594)">TN</text><text font-family="Times New Roman,Times New Roman_MSFontService,sans-serif" font-weight="400" font-size="24" transform="translate(861.343 137)">S</text><text font-family="Times New Roman,Times New Roman_MSFontService,sans-serif" font-weight="400" font-size="24" transform="translate(874.676 137)">-</text><text font-family="Times New Roman,Times New Roman_MSFontService,sans-serif" font-weight="400" font-size="24" transform="translate(882.676 137)">TN</text><text font-family="Times New Roman,Times New Roman_MSFontService,sans-serif" font-weight="400" font-size="24" transform="translate(741.259 67)">Ⅴ</text><text font-family="Times New Roman,Times New Roman_MSFontService,sans-serif" font-weight="400" font-size="24" transform="translate(758.592 67)">-</text><text font-family="Times New Roman,Times New Roman_MSFontService,sans-serif" font-weight="400" font-size="24" transform="translate(766.592 67)">Area</text><text font-family="Times New Roman,Times New Roman_MSFontService,sans-serif" font-style="italic" font-weight="400" font-size="24" transform="translate(645.48 167)">hzsB</text><text font-family="Times New Roman,Times New Roman_MSFontService,sans-serif" font-style="italic" font-weight="400" font-size="24" transform="translate(501.028 59)">nor</text><text font-family="Times New Roman,Times New Roman_MSFontService,sans-serif" font-style="italic" font-weight="400" font-size="24" transform="translate(534.361 59)">B</text><text font-family="Cambria Math,Cambria Math_MSFontService,sans-serif" font-weight="400" font-size="24" transform="translate(626.727 31)">N</text><text font-family="Cambria Math,Cambria Math_MSFontService,sans-serif" font-weight="400" font-size="24" transform="translate(643.06 31)">O</text><text font-family="Cambria Math,Cambria Math_MSFontService,sans-serif" font-weight="400" font-size="18" transform="translate(658.727 36)">3</text><text font-family="Cambria Math,Cambria Math_MSFontService,sans-serif" font-weight="400" font-size="18" transform="translate(658.727 22)">−</text><text font-family="Times New Roman,Times New Roman_MSFontService,sans-serif" font-weight="400" font-size="24" transform="translate(391.709 124)">S</text><text font-family="Times New Roman,Times New Roman_MSFontService,sans-serif" font-weight="400" font-size="24" transform="translate(405.043 124)">-</text><text font-family="Times New Roman,Times New Roman_MSFontService,sans-serif" font-weight="400" font-size="24" transform="translate(413.043 124)">TP</text><text font-family="Times New Roman,Times New Roman_MSFontService,sans-serif" font-weight="400" font-size="24" transform="translate(509.721 207)">Ⅱ</text><text font-family="Times New Roman,Times New Roman_MSFontService,sans-serif" font-weight="400" font-size="24" transform="translate(525.221 207)">-</text><text font-family="Times New Roman,Times New Roman_MSFontService,sans-serif" font-weight="400" font-size="24" transform="translate(533.221 207)">Area</text><text font-family="Times New Roman,Times New Roman_MSFontService,sans-serif" font-weight="400" font-size="24" transform="translate(536.551 368)">COD</text><text font-family="Times New Roman,Times New Roman_MSFontService,sans-serif" font-weight="400" font-size="24" transform="translate(788.951 500)">T</text><text font-family="Times New Roman,Times New Roman_MSFontService,sans-serif" font-style="italic" font-weight="400" font-size="24" transform="translate(662.036 301)">hzsA</text><text font-family="Times New Roman,Times New Roman_MSFontService,sans-serif" font-style="italic" font-weight="400" font-size="24" transform="translate(286.594 353)">nifH</text></g></svg>